<svg xmlns="http://www.w3.org/2000/svg" xmlns:xlink="http://www.w3.org/1999/xlink" width="505" height="230" viewBox="0 0 505 230">
  <defs>
    <clipPath id="clip-path">
      <rect id="Rectángulo_416369" data-name="Rectángulo 416369" width="505" height="230" transform="translate(180 3213)" fill="#fff" stroke="#707070" stroke-width="1"/>
    </clipPath>
  </defs>
  <g id="Enmascarar_grupo_1183025" data-name="Enmascarar grupo 1183025" transform="translate(-180 -3213)" clip-path="url(#clip-path)">
    <g id="Grupo_1201066" data-name="Grupo 1201066">
      <circle id="Elipse_14201" data-name="Elipse 14201" cx="157.5" cy="157.5" r="157.5" transform="translate(265 3256)" fill="#fffbf3"/>
      <g id="OBJECTS" transform="translate(216.982 3176.311)">
        <g id="Grupo_1201065" data-name="Grupo 1201065" transform="translate(11.018 49.426)">
          <g id="Grupo_1201032" data-name="Grupo 1201032">
            <g id="Grupo_1201031" data-name="Grupo 1201031">
              <g id="Grupo_1200926" data-name="Grupo 1200926" transform="translate(59.527 12.736)">
                <g id="Grupo_1200906" data-name="Grupo 1200906">
                  <path id="Trazado_1046727" data-name="Trazado 1046727" d="M396.567,224.553H121.513V73.067H396.567ZM122.9,223.163H395.177V74.457H122.9Z" transform="translate(-121.513 -73.067)" fill="#c7d9ff"/>
                </g>
                <g id="Grupo_1200907" data-name="Grupo 1200907" transform="translate(22.332 0.695)">
                  <rect id="Rectángulo_416303" data-name="Rectángulo 416303" width="1.39" height="150.096" fill="#c7d9ff"/>
                </g>
                <g id="Grupo_1200914" data-name="Grupo 1200914" transform="translate(1.017 22.599)">
                  <g id="Grupo_1200908" data-name="Grupo 1200908">
                    <rect id="Rectángulo_416304" data-name="Rectángulo 416304" width="273.342" height="1.39" fill="#c7d9ff"/>
                  </g>
                  <g id="Grupo_1200909" data-name="Grupo 1200909" transform="translate(0 20.869)">
                    <rect id="Rectángulo_416305" data-name="Rectángulo 416305" width="273.342" height="1.39" fill="#c7d9ff"/>
                  </g>
                  <g id="Grupo_1200910" data-name="Grupo 1200910" transform="translate(0 41.738)">
                    <rect id="Rectángulo_416306" data-name="Rectángulo 416306" width="273.342" height="1.39" fill="#c7d9ff"/>
                  </g>
                  <g id="Grupo_1200911" data-name="Grupo 1200911" transform="translate(0 62.607)">
                    <rect id="Rectángulo_416307" data-name="Rectángulo 416307" width="273.342" height="1.39" fill="#c7d9ff"/>
                  </g>
                  <g id="Grupo_1200912" data-name="Grupo 1200912" transform="translate(0 83.475)">
                    <rect id="Rectángulo_416308" data-name="Rectángulo 416308" width="273.342" height="1.39" fill="#c7d9ff"/>
                  </g>
                  <g id="Grupo_1200913" data-name="Grupo 1200913" transform="translate(0 104.345)">
                    <rect id="Rectángulo_416309" data-name="Rectángulo 416309" width="273.342" height="1.39" fill="#c7d9ff"/>
                  </g>
                </g>
                <g id="Grupo_1200915" data-name="Grupo 1200915" transform="translate(43.174 0.695)">
                  <rect id="Rectángulo_416310" data-name="Rectángulo 416310" width="1.39" height="150.096" fill="#c7d9ff"/>
                </g>
                <g id="Grupo_1200916" data-name="Grupo 1200916" transform="translate(64.015 0.695)">
                  <rect id="Rectángulo_416311" data-name="Rectángulo 416311" width="1.39" height="150.096" fill="#c7d9ff"/>
                </g>
                <g id="Grupo_1200917" data-name="Grupo 1200917" transform="translate(84.856 0.695)">
                  <rect id="Rectángulo_416312" data-name="Rectángulo 416312" width="1.39" height="150.096" fill="#c7d9ff"/>
                </g>
                <g id="Grupo_1200918" data-name="Grupo 1200918" transform="translate(105.698 0.695)">
                  <rect id="Rectángulo_416313" data-name="Rectángulo 416313" width="1.39" height="150.096" transform="translate(0)" fill="#c7d9ff"/>
                </g>
                <g id="Grupo_1200919" data-name="Grupo 1200919" transform="translate(126.539 0.695)">
                  <rect id="Rectángulo_416314" data-name="Rectángulo 416314" width="1.39" height="150.096" transform="translate(0)" fill="#c7d9ff"/>
                </g>
                <g id="Grupo_1200920" data-name="Grupo 1200920" transform="translate(147.38 0.695)">
                  <rect id="Rectángulo_416315" data-name="Rectángulo 416315" width="1.39" height="150.096" fill="#c7d9ff"/>
                </g>
                <g id="Grupo_1200921" data-name="Grupo 1200921" transform="translate(168.222 0.695)">
                  <rect id="Rectángulo_416316" data-name="Rectángulo 416316" width="1.39" height="150.096" fill="#c7d9ff"/>
                </g>
                <g id="Grupo_1200922" data-name="Grupo 1200922" transform="translate(189.063 0.695)">
                  <rect id="Rectángulo_416317" data-name="Rectángulo 416317" width="1.39" height="150.096" fill="#c7d9ff"/>
                </g>
                <g id="Grupo_1200923" data-name="Grupo 1200923" transform="translate(209.904 0.695)">
                  <rect id="Rectángulo_416318" data-name="Rectángulo 416318" width="1.39" height="150.096" fill="#c7d9ff"/>
                </g>
                <g id="Grupo_1200924" data-name="Grupo 1200924" transform="translate(230.746 0.695)">
                  <rect id="Rectángulo_416319" data-name="Rectángulo 416319" width="1.39" height="150.096" fill="#c7d9ff"/>
                </g>
                <g id="Grupo_1200925" data-name="Grupo 1200925" transform="translate(251.587 0.695)">
                  <rect id="Rectángulo_416320" data-name="Rectángulo 416320" width="1.39" height="150.096" fill="#c7d9ff"/>
                </g>
              </g>
              <g id="Grupo_1200929" data-name="Grupo 1200929" transform="translate(65.028)">
                <g id="Grupo_1200927" data-name="Grupo 1200927" transform="translate(0 3.007)">
                  <path id="Trazado_1046728" data-name="Trazado 1046728" d="M132.272,159.555a.548.548,0,0,1-.486-.8l11.583-22.215,11.16,5.982L167.2,117.7h21.228l18.606-27.051H246.37L263.726,80.7l26.939,12.744L310.3,73.461l39.935,1.723,15.5-5.937L382.172,55.14a.549.549,0,0,1,.715.833L366.308,70.2l-15.892,6.086-.114,0-39.561-1.707L290.9,94.77,263.774,81.938l-17.113,9.806H207.608L189,118.8H167.868L155,144.016l-11.168-5.986-11.07,21.23A.549.549,0,0,1,132.272,159.555Z" transform="translate(-131.723 -55.008)" fill="#b6ba65"/>
                </g>
                <g id="Grupo_1200928" data-name="Grupo 1200928" transform="translate(20.399)">
                  <path id="Trazado_1046729" data-name="Trazado 1046729" d="M436.8,183.274a.549.549,0,0,1-.481-.283L426.475,165.2l-18.039-6.551-.082-.255-6.442-19.742-20.329-15.7-18.183-.016-39.413-9.764-.07-.041L288.508,92.1l-25.8,3.968L240.667,76.433l-19.4-4.471-.067-.037L197.1,58.642,169.979,50.5a.549.549,0,0,1,.316-1.052l27.231,8.175.051.028,24.082,13.274,19.529,4.5,21.861,19.482L288.73,90.96l35.677,21.193,39.191,9.709h18.359l.148.114,20.745,16.017.052.161,6.412,19.649,17.923,6.509,10.046,18.148a.549.549,0,0,1-.214.746A.54.54,0,0,1,436.8,183.274Z" transform="translate(-169.588 -49.426)" fill="#d85a2e"/>
                </g>
              </g>
              <g id="Grupo_1200930" data-name="Grupo 1200930" transform="translate(0 193.774)">
                <ellipse id="Elipse_14195" data-name="Elipse 14195" cx="194.416" cy="15.136" rx="194.416" ry="15.136" fill="#f8ddac"/>
              </g>
              <g id="Grupo_1200940" data-name="Grupo 1200940" transform="translate(320.523 69.006)">
                <g id="Grupo_1200933" data-name="Grupo 1200933" transform="translate(22.081 16.276)">
                  <g id="Grupo_1200931" data-name="Grupo 1200931" transform="translate(4.424 7.158)">
                    <rect id="Rectángulo_416321" data-name="Rectángulo 416321" width="8.004" height="12.885" fill="#d85a2e"/>
                  </g>
                  <g id="Grupo_1200932" data-name="Grupo 1200932">
                    <path id="Trazado_1046730" data-name="Trazado 1046730" d="M646.959,216.153l8.426-8.425,8.425,8.425Z" transform="translate(-646.959 -207.728)" fill="#d85a2e"/>
                  </g>
                </g>
                <g id="Grupo_1200936" data-name="Grupo 1200936" transform="translate(37.163 34.745)">
                  <g id="Grupo_1200934" data-name="Grupo 1200934" transform="translate(3.029 4.902)">
                    <rect id="Rectángulo_416322" data-name="Rectángulo 416322" width="5.482" height="8.824" fill="#d85a2e"/>
                  </g>
                  <g id="Grupo_1200935" data-name="Grupo 1200935">
                    <path id="Trazado_1046731" data-name="Trazado 1046731" d="M674.956,247.779l5.77-5.77,5.77,5.77Z" transform="translate(-674.956 -242.009)" fill="#d85a2e"/>
                  </g>
                </g>
                <g id="Grupo_1200939" data-name="Grupo 1200939">
                  <g id="Grupo_1200937" data-name="Grupo 1200937" transform="translate(3.03 4.902)">
                    <rect id="Rectángulo_416323" data-name="Rectángulo 416323" width="5.482" height="8.824" fill="#d85a2e"/>
                  </g>
                  <g id="Grupo_1200938" data-name="Grupo 1200938">
                    <path id="Trazado_1046732" data-name="Trazado 1046732" d="M605.973,183.286l5.77-5.77,5.77,5.77Z" transform="translate(-605.973 -177.516)" fill="#d85a2e"/>
                  </g>
                </g>
              </g>
              <g id="Grupo_1200950" data-name="Grupo 1200950" transform="translate(22.395 68.824)">
                <g id="Grupo_1200943" data-name="Grupo 1200943" transform="translate(5.279 6.437)">
                  <g id="Grupo_1200941" data-name="Grupo 1200941" transform="translate(4.424 7.158)">
                    <rect id="Rectángulo_416324" data-name="Rectángulo 416324" width="8.004" height="12.885" fill="#b6ba65"/>
                  </g>
                  <g id="Grupo_1200942" data-name="Grupo 1200942">
                    <path id="Trazado_1046733" data-name="Trazado 1046733" d="M62.387,197.552l8.426-8.426,8.426,8.426Z" transform="translate(-62.387 -189.126)" fill="#b6ba65"/>
                  </g>
                </g>
                <g id="Grupo_1200946" data-name="Grupo 1200946" transform="translate(0 60.972)">
                  <g id="Grupo_1200944" data-name="Grupo 1200944" transform="translate(3.598 5.821)">
                    <rect id="Rectángulo_416325" data-name="Rectángulo 416325" width="6.51" height="10.479" fill="#b6ba65"/>
                  </g>
                  <g id="Grupo_1200945" data-name="Grupo 1200945">
                    <path id="Trazado_1046734" data-name="Trazado 1046734" d="M52.588,297.206l6.853-6.852,6.852,6.852Z" transform="translate(-52.588 -290.354)" fill="#b6ba65"/>
                  </g>
                </g>
                <g id="Grupo_1200949" data-name="Grupo 1200949" transform="translate(21.706)">
                  <g id="Grupo_1200947" data-name="Grupo 1200947" transform="translate(2.842 4.598)">
                    <rect id="Rectángulo_416326" data-name="Rectángulo 416326" width="5.141" height="8.277" fill="#b6ba65"/>
                  </g>
                  <g id="Grupo_1200948" data-name="Grupo 1200948">
                    <path id="Trazado_1046735" data-name="Trazado 1046735" d="M92.878,182.589l5.412-5.412,5.412,5.412Z" transform="translate(-92.878 -177.177)" fill="#b6ba65"/>
                  </g>
                </g>
              </g>
              <g id="Grupo_1200973" data-name="Grupo 1200973" transform="translate(13.272 26.504)">
                <g id="Grupo_1200961" data-name="Grupo 1200961">
                  <g id="Grupo_1200957" data-name="Grupo 1200957" transform="translate(6.863 30.638)">
                    <g id="Grupo_1200951" data-name="Grupo 1200951" transform="translate(109.734)">
                      <rect id="Rectángulo_416327" data-name="Rectángulo 416327" width="14.862" height="150.544" fill="#4899b7"/>
                    </g>
                    <g id="Grupo_1200952" data-name="Grupo 1200952" transform="translate(87.787 31.756)">
                      <rect id="Rectángulo_416328" data-name="Rectángulo 416328" width="14.862" height="118.789" fill="#4899b7"/>
                    </g>
                    <g id="Grupo_1200953" data-name="Grupo 1200953" transform="translate(65.84 60.336)">
                      <rect id="Rectángulo_416329" data-name="Rectángulo 416329" width="14.862" height="90.209" fill="#4899b7"/>
                    </g>
                    <g id="Grupo_1200954" data-name="Grupo 1200954" transform="translate(43.893 83.094)">
                      <rect id="Rectángulo_416330" data-name="Rectángulo 416330" width="14.862" height="67.451" fill="#4899b7"/>
                    </g>
                    <g id="Grupo_1200955" data-name="Grupo 1200955" transform="translate(21.946 105.323)">
                      <rect id="Rectángulo_416331" data-name="Rectángulo 416331" width="14.862" height="45.222" fill="#4899b7"/>
                    </g>
                    <g id="Grupo_1200956" data-name="Grupo 1200956" transform="translate(0 127.552)">
                      <rect id="Rectángulo_416332" data-name="Rectángulo 416332" width="14.862" height="22.993" fill="#4899b7"/>
                    </g>
                  </g>
                  <g id="Grupo_1200960" data-name="Grupo 1200960">
                    <g id="Grupo_1200958" data-name="Grupo 1200958" transform="translate(0 5.348)">
                      <path id="Trazado_1046736" data-name="Trazado 1046736" d="M36.714,248.6a1.059,1.059,0,0,1-.57-1.951,323.542,323.542,0,0,0,46.509-38.107c22.438-22.009,51.576-57.086,62.969-99.206a1.058,1.058,0,1,1,2.043.553c-11.521,42.595-40.926,78-63.565,100.2a325.751,325.751,0,0,1-46.818,38.348A1.061,1.061,0,0,1,36.714,248.6Z" transform="translate(-35.654 -108.551)" fill="#4899b7"/>
                    </g>
                    <g id="Grupo_1200959" data-name="Grupo 1200959" transform="translate(101.232)">
                      <path id="Trazado_1046737" data-name="Trazado 1046737" d="M223.561,110.942l15.029,3.284-4.464-15.6Z" transform="translate(-223.561 -98.623)" fill="#4899b7"/>
                    </g>
                  </g>
                </g>
                <g id="Grupo_1200972" data-name="Grupo 1200972" transform="translate(236.72 7.752)">
                  <g id="Grupo_1200968" data-name="Grupo 1200968" transform="translate(0 22.886)">
                    <g id="Grupo_1200962" data-name="Grupo 1200962">
                      <rect id="Rectángulo_416333" data-name="Rectángulo 416333" width="14.862" height="150.544" fill="#f17f93"/>
                    </g>
                    <g id="Grupo_1200963" data-name="Grupo 1200963" transform="translate(21.947 31.756)">
                      <rect id="Rectángulo_416334" data-name="Rectángulo 416334" width="14.862" height="118.789" fill="#f17f93"/>
                    </g>
                    <g id="Grupo_1200964" data-name="Grupo 1200964" transform="translate(43.893 60.336)">
                      <rect id="Rectángulo_416335" data-name="Rectángulo 416335" width="14.862" height="90.209" fill="#f17f93"/>
                    </g>
                    <g id="Grupo_1200965" data-name="Grupo 1200965" transform="translate(65.84 83.094)">
                      <rect id="Rectángulo_416336" data-name="Rectángulo 416336" width="14.862" height="67.451" fill="#f17f93"/>
                    </g>
                    <g id="Grupo_1200966" data-name="Grupo 1200966" transform="translate(87.787 105.323)">
                      <rect id="Rectángulo_416337" data-name="Rectángulo 416337" width="14.862" height="45.222" fill="#f17f93"/>
                    </g>
                    <g id="Grupo_1200967" data-name="Grupo 1200967" transform="translate(109.734 127.552)">
                      <rect id="Rectángulo_416338" data-name="Rectángulo 416338" width="14.862" height="22.993" fill="#f17f93"/>
                    </g>
                  </g>
                  <g id="Grupo_1200971" data-name="Grupo 1200971" transform="translate(15.116)">
                    <g id="Grupo_1200969" data-name="Grupo 1200969">
                      <path id="Trazado_1046738" data-name="Trazado 1046738" d="M621.263,247.035a1.055,1.055,0,0,1-.447-.1c-40-18.638-69.849-53.665-87.848-79.768a325.753,325.753,0,0,1-29.774-52.688,1.059,1.059,0,0,1,1.954-.816,323.584,323.584,0,0,0,29.589,52.342c17.847,25.872,47.423,60.581,86.973,79.011a1.059,1.059,0,0,1-.448,2.018Z" transform="translate(-503.113 -113.012)" fill="#f17f93"/>
                    </g>
                    <g id="Grupo_1200970" data-name="Grupo 1200970" transform="translate(108.19 122.34)">
                      <path id="Trazado_1046739" data-name="Trazado 1046739" d="M709.741,340.1l-5.806,14.245,16.136-1.729Z" transform="translate(-703.935 -340.099)" fill="#f17f93"/>
                    </g>
                  </g>
                </g>
              </g>
              <g id="Grupo_1201026" data-name="Grupo 1201026" transform="translate(150.515 48.663)">
                <g id="Grupo_1200983" data-name="Grupo 1200983" transform="translate(6.251)">
                  <g id="Grupo_1200979" data-name="Grupo 1200979">
                    <g id="Grupo_1200977" data-name="Grupo 1200977">
                      <g id="Grupo_1200974" data-name="Grupo 1200974">
                        <circle id="Elipse_14196" data-name="Elipse 14196" cx="39.366" cy="39.366" r="39.366" fill="#ffc466"/>
                      </g>
                      <g id="Grupo_1200975" data-name="Grupo 1200975" transform="translate(38.524 4.829)">
                        <path id="Trazado_1046740" data-name="Trazado 1046740" d="M404.429,199.319a.843.843,0,0,1-.751-1.225,32.5,32.5,0,0,0,3.534-14.838A32.889,32.889,0,0,0,374.36,150.4a.843.843,0,0,1,0-1.686A34.577,34.577,0,0,1,408.9,183.257a34.171,34.171,0,0,1-3.716,15.6A.848.848,0,0,1,404.429,199.319Z" transform="translate(-373.517 -148.718)" fill="#d85a2e"/>
                      </g>
                      <g id="Grupo_1200976" data-name="Grupo 1200976" transform="translate(4.828 11.301)">
                        <path id="Trazado_1046741" data-name="Trazado 1046741" d="M345.509,223.336a34.541,34.541,0,0,1-20.36-62.441.844.844,0,0,1,1,1.362,32.854,32.854,0,0,0,19.364,59.393.843.843,0,1,1,0,1.686Z" transform="translate(-310.971 -160.732)" fill="#d85a2e"/>
                      </g>
                    </g>
                    <g id="Grupo_1200978" data-name="Grupo 1200978" transform="translate(29.198 17.385)">
                      <path id="Trazado_1046742" data-name="Trazado 1046742" d="M365.69,215.36v-.382a10.73,10.73,0,0,1-.076-1.577l-.076-1.577-1.366.048a15.777,15.777,0,0,1-4.7-.621q-1.214-.43-1.214-1a1.169,1.169,0,0,1,.417-.931,1.876,1.876,0,0,1,1.252-.359,9.506,9.506,0,0,1,2.276.382,9.377,9.377,0,0,0,1.973.383,10.144,10.144,0,0,0,1.214-.1l-.683-13.9-.152-2.963a58.845,58.845,0,0,1-6.563-6.283,7.274,7.274,0,0,1-1.783-4.706,5.4,5.4,0,0,1,2.011-3.894,13.232,13.232,0,0,1,5.5-2.89l-.076-1.672q0-1.29.986-1.29a1.561,1.561,0,0,1,1.176.526,1.819,1.819,0,0,1,.493,1.29v.621a31.893,31.893,0,0,1,4.628-.382,7.266,7.266,0,0,1,2.655.5,3.834,3.834,0,0,1,1.821,1.266l-1.29,1a23.06,23.06,0,0,1-2.656-.191q-1.973-.144-2.883-.143a15.793,15.793,0,0,0-2.124.143l1.062,15q1.821,1.481,2.921,2.508t2.39,2.46a9.552,9.552,0,0,1,2.428,6.211,8.394,8.394,0,0,1-1.594,4.873,9.045,9.045,0,0,1-4.476,3.344v3.631a1.923,1.923,0,0,1-2.2,2.15Q365.688,216.842,365.69,215.36Zm-1.366-28.141q-.228-3.2-.455-9.843a8.068,8.068,0,0,0-2.959,1.911,3.33,3.33,0,0,0-1.062,2.2,6.627,6.627,0,0,0,1.138,3.631,19.845,19.845,0,0,0,3.414,3.822Zm6.6,18.347a6.105,6.105,0,0,0,.835-2.771q0-3.249-3.945-7.071l.91,12.47A7.985,7.985,0,0,0,370.925,205.566Z" transform="translate(-356.206 -172.025)" fill="#d85a2e"/>
                    </g>
                  </g>
                  <g id="Grupo_1200980" data-name="Grupo 1200980" transform="translate(49.13 50.066)">
                    <path id="Trazado_1046743" data-name="Trazado 1046743" d="M400.606,247.489c-2.424-6.543-.858-4.977-7.4-7.4,6.543-2.424,4.977-.858,7.4-7.4,2.423,6.543.858,4.977,7.4,7.4C401.463,242.512,403.029,240.946,400.606,247.489Z" transform="translate(-393.205 -232.688)" fill="#fff"/>
                  </g>
                  <g id="Grupo_1200981" data-name="Grupo 1200981" transform="translate(45.562 63.893)">
                    <path id="Trazado_1046744" data-name="Trazado 1046744" d="M391.487,268.165c-1.606-4.337-.568-3.3-4.906-4.906,4.337-1.607,3.3-.568,4.906-4.906,1.607,4.337.568,3.3,4.906,4.906C392.055,264.866,393.093,263.828,391.487,268.165Z" transform="translate(-386.581 -258.354)" fill="#fff"/>
                  </g>
                  <g id="Grupo_1200982" data-name="Grupo 1200982" transform="translate(11.951 24.321)">
                    <path id="Trazado_1046745" data-name="Trazado 1046745" d="M329.1,194.711c-1.606-4.337-.568-3.3-4.906-4.906,4.337-1.606,3.3-.568,4.906-4.906,1.607,4.337.568,3.3,4.906,4.906C329.666,191.412,330.7,190.374,329.1,194.711Z" transform="translate(-324.192 -184.9)" fill="#fff"/>
                  </g>
                </g>
                <g id="Grupo_1201025" data-name="Grupo 1201025" transform="translate(0 78.733)">
                  <g id="Grupo_1201020" data-name="Grupo 1201020">
                    <g id="Grupo_1200989" data-name="Grupo 1200989" transform="translate(5.9 66.909)">
                      <g id="Grupo_1200984" data-name="Grupo 1200984">
                        <rect id="Rectángulo_416339" data-name="Rectángulo 416339" width="78.733" height="13.382" fill="#ffc466"/>
                      </g>
                      <g id="Grupo_1200985" data-name="Grupo 1200985" transform="translate(0 9.804)">
                        <rect id="Rectángulo_416340" data-name="Rectángulo 416340" width="78.733" height="3.577" fill="#d85a2e"/>
                      </g>
                      <g id="Grupo_1200986" data-name="Grupo 1200986" transform="translate(55.397)">
                        <rect id="Rectángulo_416341" data-name="Rectángulo 416341" width="9.693" height="11.593" fill="#d85a2e"/>
                      </g>
                      <g id="Grupo_1200987" data-name="Grupo 1200987" transform="translate(45.18)">
                        <rect id="Rectángulo_416342" data-name="Rectángulo 416342" width="3.687" height="11.593" fill="#d85a2e"/>
                      </g>
                      <g id="Grupo_1200988" data-name="Grupo 1200988" transform="translate(9.231)">
                        <rect id="Rectángulo_416343" data-name="Rectángulo 416343" width="21.446" height="9.804" fill="#ffd79c"/>
                      </g>
                    </g>
                    <g id="Grupo_1200995" data-name="Grupo 1200995" transform="translate(0 53.527)">
                      <g id="Grupo_1200990" data-name="Grupo 1200990">
                        <rect id="Rectángulo_416344" data-name="Rectángulo 416344" width="78.733" height="13.382" fill="#ffc466"/>
                      </g>
                      <g id="Grupo_1200991" data-name="Grupo 1200991" transform="translate(0 9.804)">
                        <rect id="Rectángulo_416345" data-name="Rectángulo 416345" width="78.733" height="3.577" fill="#d85a2e"/>
                      </g>
                      <g id="Grupo_1200992" data-name="Grupo 1200992" transform="translate(55.397)">
                        <rect id="Rectángulo_416346" data-name="Rectángulo 416346" width="9.693" height="11.593" fill="#d85a2e"/>
                      </g>
                      <g id="Grupo_1200993" data-name="Grupo 1200993" transform="translate(45.18)">
                        <rect id="Rectángulo_416347" data-name="Rectángulo 416347" width="3.687" height="11.593" fill="#d85a2e"/>
                      </g>
                      <g id="Grupo_1200994" data-name="Grupo 1200994" transform="translate(9.231)">
                        <rect id="Rectángulo_416348" data-name="Rectángulo 416348" width="21.446" height="9.804" fill="#ffd79c"/>
                      </g>
                    </g>
                    <g id="Grupo_1201001" data-name="Grupo 1201001" transform="translate(14.576 40.145)">
                      <g id="Grupo_1200996" data-name="Grupo 1200996">
                        <rect id="Rectángulo_416349" data-name="Rectángulo 416349" width="78.733" height="13.382" fill="#ffc466"/>
                      </g>
                      <g id="Grupo_1200997" data-name="Grupo 1200997" transform="translate(0 9.804)">
                        <rect id="Rectángulo_416350" data-name="Rectángulo 416350" width="78.733" height="3.577" fill="#d85a2e"/>
                      </g>
                      <g id="Grupo_1200998" data-name="Grupo 1200998" transform="translate(55.398)">
                        <rect id="Rectángulo_416351" data-name="Rectángulo 416351" width="9.693" height="11.593" fill="#d85a2e"/>
                      </g>
                      <g id="Grupo_1200999" data-name="Grupo 1200999" transform="translate(45.18)">
                        <rect id="Rectángulo_416352" data-name="Rectángulo 416352" width="3.687" height="11.593" fill="#d85a2e"/>
                      </g>
                      <g id="Grupo_1201000" data-name="Grupo 1201000" transform="translate(9.231)">
                        <rect id="Rectángulo_416353" data-name="Rectángulo 416353" width="21.446" height="9.804" fill="#ffd79c"/>
                      </g>
                    </g>
                    <g id="Grupo_1201007" data-name="Grupo 1201007" transform="translate(8.246 26.763)">
                      <g id="Grupo_1201002" data-name="Grupo 1201002">
                        <rect id="Rectángulo_416354" data-name="Rectángulo 416354" width="78.733" height="13.382" fill="#ffc466"/>
                      </g>
                      <g id="Grupo_1201003" data-name="Grupo 1201003" transform="translate(0 9.805)">
                        <rect id="Rectángulo_416355" data-name="Rectángulo 416355" width="78.733" height="3.577" fill="#d85a2e"/>
                      </g>
                      <g id="Grupo_1201004" data-name="Grupo 1201004" transform="translate(55.398)">
                        <rect id="Rectángulo_416356" data-name="Rectángulo 416356" width="9.693" height="11.593" fill="#d85a2e"/>
                      </g>
                      <g id="Grupo_1201005" data-name="Grupo 1201005" transform="translate(45.18)">
                        <rect id="Rectángulo_416357" data-name="Rectángulo 416357" width="3.687" height="11.593" fill="#d85a2e"/>
                      </g>
                      <g id="Grupo_1201006" data-name="Grupo 1201006" transform="translate(9.231)">
                        <rect id="Rectángulo_416358" data-name="Rectángulo 416358" width="21.446" height="9.804" fill="#ffd79c"/>
                      </g>
                    </g>
                    <g id="Grupo_1201013" data-name="Grupo 1201013" transform="translate(10.787 13.382)">
                      <g id="Grupo_1201008" data-name="Grupo 1201008">
                        <rect id="Rectángulo_416359" data-name="Rectángulo 416359" width="78.733" height="13.382" fill="#ffc466"/>
                      </g>
                      <g id="Grupo_1201009" data-name="Grupo 1201009" transform="translate(0 9.805)">
                        <rect id="Rectángulo_416360" data-name="Rectángulo 416360" width="78.733" height="3.577" fill="#d85a2e"/>
                      </g>
                      <g id="Grupo_1201010" data-name="Grupo 1201010" transform="translate(55.398)">
                        <rect id="Rectángulo_416361" data-name="Rectángulo 416361" width="9.693" height="11.593" fill="#d85a2e"/>
                      </g>
                      <g id="Grupo_1201011" data-name="Grupo 1201011" transform="translate(45.18)">
                        <rect id="Rectángulo_416362" data-name="Rectángulo 416362" width="3.687" height="11.593" fill="#d85a2e"/>
                      </g>
                      <g id="Grupo_1201012" data-name="Grupo 1201012" transform="translate(9.231)">
                        <rect id="Rectángulo_416363" data-name="Rectángulo 416363" width="21.446" height="9.804" fill="#ffd79c"/>
                      </g>
                    </g>
                    <g id="Grupo_1201019" data-name="Grupo 1201019" transform="translate(2.879)">
                      <g id="Grupo_1201014" data-name="Grupo 1201014">
                        <rect id="Rectángulo_416364" data-name="Rectángulo 416364" width="78.733" height="13.382" fill="#ffc466"/>
                      </g>
                      <g id="Grupo_1201015" data-name="Grupo 1201015" transform="translate(0 9.804)">
                        <rect id="Rectángulo_416365" data-name="Rectángulo 416365" width="78.733" height="3.577" fill="#d85a2e"/>
                      </g>
                      <g id="Grupo_1201016" data-name="Grupo 1201016" transform="translate(55.398)">
                        <rect id="Rectángulo_416366" data-name="Rectángulo 416366" width="9.693" height="11.593" fill="#d85a2e"/>
                      </g>
                      <g id="Grupo_1201017" data-name="Grupo 1201017" transform="translate(45.18)">
                        <rect id="Rectángulo_416367" data-name="Rectángulo 416367" width="3.687" height="11.593" fill="#d85a2e"/>
                      </g>
                      <g id="Grupo_1201018" data-name="Grupo 1201018" transform="translate(9.231)">
                        <rect id="Rectángulo_416368" data-name="Rectángulo 416368" width="21.446" height="9.804" fill="#ffd79c"/>
                      </g>
                    </g>
                  </g>
                  <g id="Grupo_1201021" data-name="Grupo 1201021" transform="translate(16.891 41.46)">
                    <path id="Trazado_1046746" data-name="Trazado 1046746" d="M326.239,371.82c-1.468-3.962-.519-3.014-4.481-4.481,3.962-1.467,3.014-.519,4.481-4.481,1.467,3.962.519,3.014,4.481,4.481C326.759,368.807,327.707,367.859,326.239,371.82Z" transform="translate(-321.758 -362.858)" fill="#fff"/>
                  </g>
                  <g id="Grupo_1201022" data-name="Grupo 1201022" transform="translate(57.118 56.619)">
                    <path id="Trazado_1046747" data-name="Trazado 1046747" d="M400.027,398.192c-1.178-3.181-.417-2.42-3.6-3.6,3.182-1.178,2.42-.417,3.6-3.6,1.178,3.181.417,2.42,3.6,3.6C400.444,395.772,401.2,395.011,400.027,398.192Z" transform="translate(-396.428 -390.995)" fill="#fff"/>
                  </g>
                  <g id="Grupo_1201023" data-name="Grupo 1201023" transform="translate(66.375 15.579)">
                    <path id="Trazado_1046748" data-name="Trazado 1046748" d="M417.209,322.014c-1.178-3.181-.417-2.42-3.6-3.6,3.182-1.178,2.42-.417,3.6-3.6,1.178,3.181.417,2.42,3.6,3.6C417.626,319.595,418.387,318.833,417.209,322.014Z" transform="translate(-413.61 -314.817)" fill="#fff"/>
                  </g>
                  <g id="Grupo_1201024" data-name="Grupo 1201024" transform="translate(55.966 18.863)">
                    <path id="Trazado_1046749" data-name="Trazado 1046749" d="M400.4,333.136c-2-5.4-.708-4.11-6.111-6.111,5.4-2,4.11-.708,6.111-6.111,2,5.4.708,4.11,6.111,6.111C401.109,329.026,402.4,327.733,400.4,333.136Z" transform="translate(-394.29 -320.913)" fill="#fff"/>
                  </g>
                </g>
              </g>
              <g id="Grupo_1201030" data-name="Grupo 1201030" transform="translate(34.5 21.235)">
                <g id="Grupo_1201027" data-name="Grupo 1201027" transform="translate(0 83.227)">
                  <path id="Trazado_1046750" data-name="Trazado 1046750" d="M76.847,254.314a3.628,3.628,0,0,1-1.253-1.746,9.072,9.072,0,0,1-.492-2.084q-.045-.845-.045-1.8a8.9,8.9,0,0,1,.716-3.154,3.765,3.765,0,0,1,1.185-1.591,2.811,2.811,0,0,1,1.767-.606q5.009,0,5.01,5.578v.085H83.69a7.606,7.606,0,0,0-.358,2.986,4.252,4.252,0,0,1-.358,1.578,2.267,2.267,0,0,1-1.118,1.07,6.326,6.326,0,0,1-2.549.422A3.772,3.772,0,0,1,76.847,254.314Zm4.83-4.648q0-4.929-2.773-4.929-.537,0-1.118,1.549a7.434,7.434,0,0,0-.582,2.367,16,16,0,0,0,.089,1.69,9.863,9.863,0,0,0,.582,2.226,2.269,2.269,0,0,0,.559.8,1.149,1.149,0,0,0,.783.3Q81.676,253.667,81.677,249.667Zm-.492,14.309q0-1.717,2.147-7.07,1.968-4.873,3.757-9.014l.895-2.084.4-.9a1.712,1.712,0,0,1,.38-.93,1.062,1.062,0,0,1,.872-.422,1.739,1.739,0,0,1,.85.2.566.566,0,0,1,.358.479q0,1.972-3.981,11.324-1.745,4.169-1.968,4.9a4.925,4.925,0,0,0-.224.761,10.691,10.691,0,0,1-.895,2.281,2.761,2.761,0,0,1-.76.93,1.758,1.758,0,0,1-.984.366Q81.184,264.483,81.185,263.976Zm9.08.3a3.047,3.047,0,0,1-1.074-1,6.992,6.992,0,0,1-1.029-2.619c-.06-.526-.089-.883-.089-1.07a16.687,16.687,0,0,1,.089-1.775,7.02,7.02,0,0,1,.447-2.112,3.741,3.741,0,0,1,1.3-1.775,3.4,3.4,0,0,1,2.415-.761,5.761,5.761,0,0,1,1.678.225,3.378,3.378,0,0,1,1.23.648A4.078,4.078,0,0,1,96.482,256a7.815,7.815,0,0,1,.268,2.112v1.352a5.983,5.983,0,0,1-.94,3.352,3.679,3.679,0,0,1-1.566,1.338,5.772,5.772,0,0,1-2.5.492A2.938,2.938,0,0,1,90.265,264.272Zm4.294-4.887v-1.126a6.607,6.607,0,0,0-.4-2.169A2.258,2.258,0,0,0,93.418,255a1.919,1.919,0,0,0-1.23-.408,1.289,1.289,0,0,0-1.074.648,6.882,6.882,0,0,0-.85,3.211q-.045.451-.045,1.182a5.989,5.989,0,0,0,.559,2.084q.558,1.353,1.1,1.352Q94.559,263.075,94.559,259.384Z" transform="translate(-75.057 -243.329)" fill="#ffc466"/>
                </g>
                <g id="Grupo_1201028" data-name="Grupo 1201028" transform="translate(262.406 15.226)">
                  <path id="Trazado_1046751" data-name="Trazado 1046751" d="M564.176,129.632a4.133,4.133,0,0,1-1.428-1.992,10.344,10.344,0,0,1-.561-2.377q-.051-.963-.051-2.056a10.154,10.154,0,0,1,.816-3.6A4.3,4.3,0,0,1,564.3,117.8a3.209,3.209,0,0,1,2.014-.691q5.712,0,5.713,6.36v.1h-.051a8.666,8.666,0,0,0-.408,3.4,4.839,4.839,0,0,1-.408,1.8,2.584,2.584,0,0,1-1.275,1.221,7.215,7.215,0,0,1-2.907.482A4.3,4.3,0,0,1,564.176,129.632Zm5.508-5.3q0-5.62-3.162-5.621-.612,0-1.275,1.767a8.466,8.466,0,0,0-.663,2.7,18.344,18.344,0,0,0,.1,1.927,11.314,11.314,0,0,0,.663,2.537,2.576,2.576,0,0,0,.638.915,1.308,1.308,0,0,0,.893.337Q569.684,128.894,569.685,124.333Zm-.561,16.316q0-1.959,2.449-8.062,2.243-5.557,4.284-10.279l1.02-2.377.459-1.028a1.954,1.954,0,0,1,.434-1.06,1.212,1.212,0,0,1,1-.482,1.99,1.99,0,0,1,.969.225.646.646,0,0,1,.408.546q0,2.249-4.539,12.912-1.989,4.754-2.244,5.589a5.554,5.554,0,0,0-.255.867,12.223,12.223,0,0,1-1.02,2.6,3.152,3.152,0,0,1-.867,1.06,2,2,0,0,1-1.122.418Q569.123,141.228,569.123,140.649Zm10.354.338a3.475,3.475,0,0,1-1.224-1.141,7.973,7.973,0,0,1-1.173-2.987c-.069-.6-.1-1.006-.1-1.22a19.118,19.118,0,0,1,.1-2.023,8.008,8.008,0,0,1,.51-2.409,4.26,4.26,0,0,1,1.479-2.023,3.88,3.88,0,0,1,2.754-.867,6.569,6.569,0,0,1,1.913.257,3.858,3.858,0,0,1,1.4.739,4.642,4.642,0,0,1,1.428,2.248,8.907,8.907,0,0,1,.306,2.409v1.542a6.826,6.826,0,0,1-1.071,3.822,4.2,4.2,0,0,1-1.785,1.526,6.57,6.57,0,0,1-2.856.562A3.357,3.357,0,0,1,579.477,140.987Zm4.9-5.573v-1.285a7.523,7.523,0,0,0-.46-2.473,2.566,2.566,0,0,0-.841-1.236,2.19,2.19,0,0,0-1.4-.465,1.468,1.468,0,0,0-1.224.739,7.853,7.853,0,0,0-.969,3.662q-.051.514-.051,1.349a6.834,6.834,0,0,0,.638,2.377q.637,1.542,1.249,1.542Q584.374,139.621,584.374,135.414Z" transform="translate(-562.136 -117.105)" fill="#ffc466"/>
                </g>
                <g id="Grupo_1201029" data-name="Grupo 1201029" transform="translate(41.603)">
                  <path id="Trazado_1046752" data-name="Trazado 1046752" d="M155.054,105.872a5.622,5.622,0,0,1-1.942-2.707,14.028,14.028,0,0,1-.763-3.231q-.07-1.31-.07-2.795a13.812,13.812,0,0,1,1.11-4.891,5.836,5.836,0,0,1,1.838-2.467,4.357,4.357,0,0,1,2.739-.939q7.765,0,7.766,8.646v.131h-.069q-.556,1.005-.555,4.629a6.57,6.57,0,0,1-.554,2.445,3.513,3.513,0,0,1-1.734,1.659,9.8,9.8,0,0,1-3.952.655A5.845,5.845,0,0,1,155.054,105.872Zm7.488-7.205q0-7.641-4.3-7.642-.832,0-1.734,2.4a11.516,11.516,0,0,0-.9,3.668,24.665,24.665,0,0,0,.138,2.62,15.307,15.307,0,0,0,.9,3.45,3.508,3.508,0,0,0,.867,1.244,1.779,1.779,0,0,0,1.213.458Q162.542,104.869,162.542,98.667Zm-.762,22.183q0-2.663,3.328-10.961,3.051-7.554,5.825-13.974l1.387-3.231.624-1.4a2.645,2.645,0,0,1,.589-1.441,1.646,1.646,0,0,1,1.352-.655,2.7,2.7,0,0,1,1.318.305.876.876,0,0,1,.554.742q0,3.057-6.171,17.554-2.7,6.463-3.051,7.6a7.6,7.6,0,0,0-.347,1.179,16.6,16.6,0,0,1-1.387,3.537,4.282,4.282,0,0,1-1.179,1.441,2.726,2.726,0,0,1-1.526.568Q161.779,121.637,161.78,120.85Zm14.076.458a4.723,4.723,0,0,1-1.664-1.55A10.842,10.842,0,0,1,172.6,115.7q-.14-1.222-.139-1.659a25.807,25.807,0,0,1,.139-2.751,10.892,10.892,0,0,1,.693-3.275,5.8,5.8,0,0,1,2.011-2.751,5.271,5.271,0,0,1,3.744-1.179,8.909,8.909,0,0,1,2.6.349,5.247,5.247,0,0,1,1.907,1,6.317,6.317,0,0,1,1.942,3.057,12.113,12.113,0,0,1,.416,3.275v2.1a9.28,9.28,0,0,1-1.456,5.2,5.705,5.705,0,0,1-2.427,2.074,8.933,8.933,0,0,1-3.883.764A4.573,4.573,0,0,1,175.856,121.309Zm6.657-7.576v-1.747a10.245,10.245,0,0,0-.624-3.362,3.5,3.5,0,0,0-1.144-1.681,2.976,2.976,0,0,0-1.907-.633,2,2,0,0,0-1.664,1q-.972,1.31-1.317,4.978-.07.7-.07,1.834a9.29,9.29,0,0,0,.867,3.231q.866,2.1,1.7,2.1Q182.512,119.453,182.513,113.733Z" transform="translate(-152.28 -88.842)" fill="#ffc466"/>
                </g>
              </g>
            </g>
          </g>
          <g id="Grupo_1201040" data-name="Grupo 1201040" transform="translate(330.928 36.822)">
            <g id="Grupo_1201039" data-name="Grupo 1201039" transform="translate(0 0)">
              <g id="Grupo_1201037" data-name="Grupo 1201037">
                <g id="Grupo_1201033" data-name="Grupo 1201033" transform="translate(3.871 7.884)">
                  <path id="Trazado_1046753" data-name="Trazado 1046753" d="M660.795,145.151c8.4,9.352,13.452,18.761,9.178,23.954-.227.276-2.533,2.288-2.8,2.529-5.321,4.777-16.8.665-25.645-9.184s-11.7-21.706-6.376-26.483c.389-.35,2.52-2.41,2.972-2.665C643.845,130.064,652.6,136.022,660.795,145.151Z" transform="translate(-632.472 -132.411)" fill="#d85a2e"/>
                </g>
                <g id="Grupo_1201034" data-name="Grupo 1201034">
                  <ellipse id="Elipse_14197" data-name="Elipse 14197" cx="12.948" cy="23.966" rx="12.948" ry="23.966" transform="translate(0 17.301) rotate(-41.92)" fill="#ffc466"/>
                </g>
                <g id="Grupo_1201035" data-name="Grupo 1201035" transform="translate(11.566 9.151)">
                  <path id="Trazado_1046754" data-name="Trazado 1046754" d="M674.387,152.778a.377.377,0,0,1-.338-.208,34.722,34.722,0,0,0-5.247-7.608,30.746,30.746,0,0,0-11.952-8.522c-4.008-1.436-7.371-1.191-9.466.69a.377.377,0,1,1-.5-.562c2.311-2.075,5.942-2.372,10.225-.839a31.509,31.509,0,0,1,12.259,8.728,35.464,35.464,0,0,1,5.359,7.774.377.377,0,0,1-.169.506A.381.381,0,0,1,674.387,152.778Z" transform="translate(-646.756 -134.762)" fill="#d85a2e"/>
                </g>
                <g id="Grupo_1201036" data-name="Grupo 1201036" transform="translate(9.619 17.926)">
                  <path id="Trazado_1046755" data-name="Trazado 1046755" d="M668.43,176.765c-4.975,0-11.726-3.669-17.322-9.9-4.406-4.908-7.383-10.666-7.965-15.4a.367.367,0,1,1,.728-.089c.564,4.593,3.473,10.2,7.783,15,7.421,8.266,16.832,11.965,20.974,8.244a.367.367,0,1,1,.49.546A6.829,6.829,0,0,1,668.43,176.765Z" transform="translate(-643.141 -151.049)" fill="#d85a2e"/>
                </g>
              </g>
              <g id="Grupo_1201038" data-name="Grupo 1201038" transform="translate(16.203 16.109)">
                <path id="Trazado_1046756" data-name="Trazado 1046756" d="M673.324,167.894l-.156-.173q-.193-.178-.66-.7l-.66-.7-.315.322a3.017,3.017,0,0,1-1.4.752.74.74,0,0,1-.706-.187,1.051,1.051,0,0,1-.277-.514.454.454,0,0,1,.161-.437,1.867,1.867,0,0,1,.713-.328,1.882,1.882,0,0,0,.638-.26,1.825,1.825,0,0,0,.259-.309l-5.822-6.149-1.242-1.309a33.391,33.391,0,0,1-4.162-1.4,6.986,6.986,0,0,1-2.35-1.74,4.691,4.691,0,0,1-1.091-2.206,4.49,4.49,0,0,1,.17-2.519l-.7-.74q-.525-.585-.283-.8a.466.466,0,0,1,.5-.02,1.723,1.723,0,0,1,.645.476l.253.281a5.856,5.856,0,0,1,.977-1.19,1.48,1.48,0,0,1,.854-.356,1.656,1.656,0,0,1,.961.174l.092.738a4.136,4.136,0,0,1-.728.5,8.023,8.023,0,0,0-.763.569,2.914,2.914,0,0,0-.462.531l6.362,6.563q1.048.271,1.735.494t1.585.59a9.112,9.112,0,0,1,3.12,2.279,8.375,8.375,0,0,1,1.592,2.558,4.084,4.084,0,0,1,.265,2.5l1.477,1.645q.874.975.336,1.457Q673.926,168.564,673.324,167.894Zm-11.779-12.448q-1.358-1.4-4.114-4.359a3.241,3.241,0,0,0,.053,1.515,2.985,2.985,0,0,0,.634,1.229,6.678,6.678,0,0,0,1.755,1.4,12.688,12.688,0,0,0,2.391.981Zm9.077,6.861a6.249,6.249,0,0,0-.922-1.438,8.953,8.953,0,0,0-3.842-2.337l5.294,5.449A5.31,5.31,0,0,0,670.621,162.307Z" transform="translate(-655.362 -147.677)" fill="#d85a2e"/>
              </g>
            </g>
          </g>
          <g id="Grupo_1201048" data-name="Grupo 1201048" transform="translate(353.872 118.697)">
            <g id="Grupo_1201047" data-name="Grupo 1201047" transform="translate(0 0)">
              <g id="Grupo_1201045" data-name="Grupo 1201045">
                <g id="Grupo_1201041" data-name="Grupo 1201041" transform="translate(2.607 5.325)">
                  <path id="Trazado_1046757" data-name="Trazado 1046757" d="M691.816,288.228c5.663,6.307,9.072,12.653,6.19,16.155-.153.186-1.708,1.543-1.889,1.706-3.589,3.222-11.332.449-17.3-6.194s-7.889-14.639-4.3-17.861c.262-.235,1.7-1.625,2-1.8C680.385,278.054,686.289,282.072,691.816,288.228Z" transform="translate(-672.715 -279.636)" fill="#d85a2e"/>
                </g>
                <g id="Grupo_1201042" data-name="Grupo 1201042">
                  <ellipse id="Elipse_14198" data-name="Elipse 14198" cx="8.732" cy="16.163" rx="8.732" ry="16.163" transform="translate(0 11.667) rotate(-41.92)" fill="#ffc466"/>
                </g>
                <g id="Grupo_1201043" data-name="Grupo 1201043" transform="translate(7.797 6.195)">
                  <path id="Trazado_1046758" data-name="Trazado 1046758" d="M700.982,293.387a.255.255,0,0,1-.228-.141,23.386,23.386,0,0,0-3.537-5.131c-5-5.572-11.482-7.943-14.445-5.282a.254.254,0,1,1-.34-.379c3.171-2.848,9.972-.46,15.163,5.321a23.93,23.93,0,0,1,3.614,5.242.256.256,0,0,1-.114.342A.264.264,0,0,1,700.982,293.387Z" transform="translate(-682.348 -281.252)" fill="#d85a2e"/>
                </g>
                <g id="Grupo_1201044" data-name="Grupo 1201044" transform="translate(6.483 12.097)">
                  <path id="Trazado_1046759" data-name="Trazado 1046759" d="M696.966,309.55c-3.355,0-7.908-2.474-11.683-6.678-2.972-3.31-4.979-7.194-5.372-10.388a.248.248,0,0,1,.215-.276.253.253,0,0,1,.276.215c.38,3.1,2.342,6.88,5.248,10.117,5.005,5.575,11.352,8.07,14.146,5.56a.247.247,0,1,1,.33.368A4.6,4.6,0,0,1,696.966,309.55Z" transform="translate(-679.91 -292.207)" fill="#d85a2e"/>
                </g>
              </g>
              <g id="Grupo_1201046" data-name="Grupo 1201046" transform="translate(10.925 10.872)">
                <path id="Trazado_1046760" data-name="Trazado 1046760" d="M700.266,303.567l-.1-.117q-.13-.12-.445-.471l-.444-.47-.213.216a2.044,2.044,0,0,1-.947.507.5.5,0,0,1-.476-.126.71.71,0,0,1-.187-.347.305.305,0,0,1,.108-.3,1.247,1.247,0,0,1,.481-.22,1.275,1.275,0,0,0,.43-.176,1.25,1.25,0,0,0,.175-.208l-3.926-4.147-.838-.882a22.661,22.661,0,0,1-2.807-.948,4.7,4.7,0,0,1-1.585-1.174,3.159,3.159,0,0,1-.736-1.487,3.024,3.024,0,0,1,.115-1.7l-.471-.5q-.354-.393-.191-.54a.316.316,0,0,1,.338-.013,1.18,1.18,0,0,1,.435.321l.17.19a3.89,3.89,0,0,1,.659-.8.992.992,0,0,1,.575-.24,1.113,1.113,0,0,1,.648.117l.062.5a2.778,2.778,0,0,1-.49.335,5.4,5.4,0,0,0-.515.384,1.935,1.935,0,0,0-.311.358l4.29,4.426q.707.183,1.17.333t1.069.4a6.139,6.139,0,0,1,2.1,1.538,5.646,5.646,0,0,1,1.074,1.724,2.761,2.761,0,0,1,.178,1.686l1,1.109q.589.657.226.983Q700.673,304.019,700.266,303.567Zm-7.944-8.4q-.916-.945-2.775-2.939a2.177,2.177,0,0,0,.036,1.021,2.007,2.007,0,0,0,.427.829,4.5,4.5,0,0,0,1.184.941,8.63,8.63,0,0,0,1.612.662Zm6.122,4.627a4.212,4.212,0,0,0-.622-.97,6.027,6.027,0,0,0-2.591-1.576l3.57,3.674A3.594,3.594,0,0,0,698.444,299.8Z" transform="translate(-688.154 -289.932)" fill="#d85a2e"/>
              </g>
            </g>
          </g>
          <g id="Grupo_1201056" data-name="Grupo 1201056" transform="translate(44.881 145.478)">
            <g id="Grupo_1201055" data-name="Grupo 1201055" transform="translate(0 0)">
              <g id="Grupo_1201053" data-name="Grupo 1201053">
                <g id="Grupo_1201049" data-name="Grupo 1201049" transform="translate(8.371 7.855)">
                  <path id="Trazado_1046761" data-name="Trazado 1046761" d="M120.593,346.785c-8.4,9.352-13.452,18.761-9.178,23.954.227.276,2.533,2.288,2.8,2.529,5.321,4.777,16.8.665,25.645-9.184s11.7-21.706,6.376-26.483c-.389-.35-2.52-2.41-2.972-2.665C137.543,331.7,128.789,337.657,120.593,346.785Z" transform="translate(-109.865 -334.045)" fill="#d85a2e"/>
                </g>
                <g id="Grupo_1201050" data-name="Grupo 1201050">
                  <ellipse id="Elipse_14199" data-name="Elipse 14199" cx="23.966" cy="12.948" rx="23.966" ry="12.948" transform="translate(0 35.666) rotate(-48.08)" fill="#ffc466"/>
                </g>
                <g id="Grupo_1201051" data-name="Grupo 1201051" transform="translate(11.719 9.147)">
                  <path id="Trazado_1046762" data-name="Trazado 1046762" d="M116.456,354.433a.373.373,0,0,1-.169-.04.377.377,0,0,1-.169-.506,35.477,35.477,0,0,1,5.359-7.774c7.7-8.572,17.782-12.11,22.484-7.89a.377.377,0,1,1-.5.562c-4.393-3.945-14-.43-21.418,7.832a34.733,34.733,0,0,0-5.246,7.608A.377.377,0,0,1,116.456,354.433Z" transform="translate(-116.079 -336.442)" fill="#d85a2e"/>
                </g>
                <g id="Grupo_1201052" data-name="Grupo 1201052" transform="translate(11.575 17.897)">
                  <path id="Trazado_1046763" data-name="Trazado 1046763" d="M120.655,378.425a6.864,6.864,0,0,1-4.721-1.628.367.367,0,0,1,.49-.546c1.972,1.771,5.22,1.915,9.144.4a32.267,32.267,0,0,0,11.83-8.648c4.309-4.8,7.218-10.408,7.783-15a.371.371,0,0,1,.409-.319.367.367,0,0,1,.319.409c-.581,4.737-3.559,10.495-7.965,15.4a33.023,33.023,0,0,1-12.112,8.843A14.612,14.612,0,0,1,120.655,378.425Z" transform="translate(-115.812 -352.683)" fill="#d85a2e"/>
                </g>
              </g>
              <g id="Grupo_1201054" data-name="Grupo 1201054" transform="translate(13.595 17.429)">
                <path id="Trazado_1046764" data-name="Trazado 1046764" d="M120.034,369.778l.173-.156q.178-.193.7-.66l.7-.66-.322-.315a3.017,3.017,0,0,1-.752-1.4.74.74,0,0,1,.187-.706,1.05,1.05,0,0,1,.514-.277.454.454,0,0,1,.437.161,1.867,1.867,0,0,1,.328.713,1.883,1.883,0,0,0,.26.638,1.831,1.831,0,0,0,.309.259l6.149-5.822,1.309-1.242a33.386,33.386,0,0,1,1.4-4.162,6.986,6.986,0,0,1,1.74-2.35,4.692,4.692,0,0,1,2.206-1.091,4.49,4.49,0,0,1,2.519.17l.74-.7q.585-.524.8-.283a.466.466,0,0,1,.02.5,1.724,1.724,0,0,1-.476.645l-.281.253a5.86,5.86,0,0,1,1.19.977,1.48,1.48,0,0,1,.356.854,1.656,1.656,0,0,1-.174.961l-.738.092a4.133,4.133,0,0,1-.5-.728,8.029,8.029,0,0,0-.569-.763,2.913,2.913,0,0,0-.531-.462l-6.563,6.362q-.271,1.048-.494,1.735t-.59,1.585a9.112,9.112,0,0,1-2.279,3.12,8.374,8.374,0,0,1-2.558,1.592,4.085,4.085,0,0,1-2.5.265l-1.645,1.477q-.975.874-1.457.336Q119.363,370.38,120.034,369.778Zm5.587-2.7a6.247,6.247,0,0,0,1.438-.922,8.953,8.953,0,0,0,2.337-3.842l-5.449,5.294A5.309,5.309,0,0,0,125.621,367.075ZM132.482,358q1.4-1.358,4.359-4.114a3.242,3.242,0,0,0-1.515.053,2.985,2.985,0,0,0-1.229.634,6.679,6.679,0,0,0-1.4,1.755,12.69,12.69,0,0,0-.981,2.391Z" transform="translate(-119.562 -351.816)" fill="#d85a2e"/>
              </g>
            </g>
          </g>
          <g id="Grupo_1201064" data-name="Grupo 1201064" transform="translate(53.916 43.275)">
            <g id="Grupo_1201063" data-name="Grupo 1201063" transform="translate(0 0)">
              <g id="Grupo_1201061" data-name="Grupo 1201061" transform="translate(0)">
                <g id="Grupo_1201057" data-name="Grupo 1201057" transform="translate(5.896 2.363)">
                  <path id="Trazado_1046765" data-name="Trazado 1046765" d="M123.528,150.149c-2.271,9.244-2.29,17.334,2.419,19.278.251.1,2.509.624,2.774.69,5.26,1.292,11.462-5.553,13.854-15.288s.067-18.675-5.193-19.967c-.385-.094-2.544-.71-2.937-.72C129.466,134.021,125.745,141.125,123.528,150.149Z" transform="translate(-122.041 -134.139)" fill="#d85a2e"/>
                </g>
                <g id="Grupo_1201058" data-name="Grupo 1201058">
                  <ellipse id="Elipse_14200" data-name="Elipse 14200" cx="18.152" cy="9.807" rx="18.152" ry="9.807" transform="translate(0 35.254) rotate(-76.196)" fill="#ffc466"/>
                </g>
                <g id="Grupo_1201059" data-name="Grupo 1201059" transform="translate(4.611 4.456)">
                  <path id="Trazado_1046766" data-name="Trazado 1046766" d="M119.95,158.844a.286.286,0,0,1-.286-.279,26.856,26.856,0,0,1,.805-7.106c2.081-8.473,7.556-14.438,12.2-13.295a.286.286,0,1,1-.136.555c-4.342-1.066-9.506,4.71-11.512,12.876a26.31,26.31,0,0,0-.789,6.955.285.285,0,0,1-.278.293Z" transform="translate(-119.656 -138.024)" fill="#d85a2e"/>
                </g>
                <g id="Grupo_1201060" data-name="Grupo 1201060" transform="translate(9.87 8.61)">
                  <path id="Trazado_1046767" data-name="Trazado 1046767" d="M130.7,172.574a4.461,4.461,0,0,1-1.069-.129.278.278,0,0,1,.133-.539c1.95.477,4.17-.584,6.253-2.994a24.451,24.451,0,0,0,4.816-10c1.165-4.745,1.107-9.529-.156-12.8a.278.278,0,0,1,.518-.2c1.3,3.372,1.368,8.281.177,13.132a25,25,0,0,1-4.935,10.231C134.57,171.433,132.57,172.574,130.7,172.574Z" transform="translate(-129.419 -145.735)" fill="#d85a2e"/>
                </g>
              </g>
              <g id="Grupo_1201062" data-name="Grupo 1201062" transform="translate(8.34 11.168)">
                <path id="Trazado_1046768" data-name="Trazado 1046768" d="M127.54,169.367l.06-.166c.033-.128.11-.358.231-.69l.231-.69-.327-.1a2.294,2.294,0,0,1-1-.669.559.559,0,0,1-.126-.538.794.794,0,0,1,.245-.368.344.344,0,0,1,.35-.049,1.408,1.408,0,0,1,.472.359,1.424,1.424,0,0,0,.4.333,1.343,1.343,0,0,0,.3.061l2.03-6.083.43-1.3a25.291,25.291,0,0,1-.547-3.281,5.29,5.29,0,0,1,.324-2.191,3.557,3.557,0,0,1,1.083-1.517,3.387,3.387,0,0,1,1.743-.785l.246-.731c.135-.373.281-.531.434-.475.107.039.171.148.193.328a1.316,1.316,0,0,1-.088.6l-.1.269a4.439,4.439,0,0,1,1.144.228,1.12,1.12,0,0,1,.543.443,1.251,1.251,0,0,1,.227.7l-.46.325a3.128,3.128,0,0,1-.592-.309,6.033,6.033,0,0,0-.652-.308,2.175,2.175,0,0,0-.52-.119L131.7,159.25q.193.8.289,1.336t.172,1.27a6.9,6.9,0,0,1-.41,2.9,6.326,6.326,0,0,1-1.14,1.977,3.1,3.1,0,0,1-1.575,1.069l-.572,1.574q-.338.932-.853.745C127.407,170.045,127.384,169.794,127.54,169.367Zm2.768-3.8a4.751,4.751,0,0,0,.631-1.13,6.775,6.775,0,0,0,.19-3.4l-1.751,5.482A4.006,4.006,0,0,0,130.308,165.567Zm1.343-8.513q.451-1.406,1.444-4.3a2.456,2.456,0,0,0-.994.576,2.26,2.26,0,0,0-.595.863,5.052,5.052,0,0,0-.3,1.671,9.613,9.613,0,0,0,.2,1.946Z" transform="translate(-126.577 -150.484)" fill="#d85a2e"/>
              </g>
            </g>
          </g>
        </g>
      </g>
    </g>
  </g>
</svg>
