<svg xmlns="http://www.w3.org/2000/svg" xmlns:xlink="http://www.w3.org/1999/xlink" width="108" height="108" viewBox="0 0 108 108">
  <defs>
    <filter id="Trazado_904820" x="0" y="0" width="108" height="108" filterUnits="userSpaceOnUse">
      <feOffset dy="3" input="SourceAlpha"/>
      <feGaussianBlur stdDeviation="3" result="blur"/>
      <feFlood flood-opacity="0.161"/>
      <feComposite operator="in" in2="blur"/>
      <feComposite in="SourceGraphic"/>
    </filter>
  </defs>
  <g id="Grupo_1201080" data-name="Grupo 1201080" transform="translate(-614 -4084.671)">
    <g id="Grupo_1183596" data-name="Grupo 1183596" transform="translate(623 4090.67)">
      <g id="Grupo_1173821" data-name="Grupo 1173821" transform="translate(0 0)">
        <g id="Grupo_1173585" data-name="Grupo 1173585">
          <g id="Grupo_1173428" data-name="Grupo 1173428">
            <g id="Grupo_1171958" data-name="Grupo 1171958">
              <g id="Grupo_1167341" data-name="Grupo 1167341">
                <g id="Grupo_1166792" data-name="Grupo 1166792">
                  <g transform="matrix(1, 0, 0, 1, -9, -6)" filter="url(#Trazado_904820)">
                    <g id="Trazado_904820-2" data-name="Trazado 904820" transform="translate(9 6)" fill="#fcf3f0">
                      <path d="M 44.99999618530273 88.50004577636719 C 39.12687301635742 88.50004577636719 33.43022155761719 87.35012054443359 28.06829643249512 85.08220672607422 C 22.88852119445801 82.89134216308594 18.23629570007324 79.75463104248047 14.24084663391113 75.75917816162109 C 10.24540901184082 71.76371765136719 7.108683586120605 67.11149597167969 4.917821407318115 61.93173217773438 C 2.649921178817749 56.56979370117188 1.499996185302734 50.87314224243164 1.499996185302734 45.00001907348633 C 1.499996185302734 39.12689590454102 2.649921178817749 33.43024444580078 4.917821407318115 28.06830596923828 C 7.108683586120605 22.88853073120117 10.24540901184082 18.23631858825684 14.24084663391113 14.24086952209473 C 18.23629570007324 10.2454195022583 22.88852119445801 7.108694076538086 28.06829643249512 4.917831420898438 C 33.43022155761719 2.649931669235229 39.12687301635742 1.500006556510925 44.99999618530273 1.500006556510925 C 50.87311935424805 1.500006556510925 56.56977081298828 2.649931669235229 61.93169784545898 4.917831420898438 C 67.11147308349609 7.108694076538086 71.76369476318359 10.2454195022583 75.75914764404297 14.24086952209473 C 79.75458526611328 18.23631858825684 82.89131164550781 22.88853073120117 85.08216857910156 28.06830596923828 C 87.35007476806641 33.43024444580078 88.5 39.12689590454102 88.5 45.00001907348633 C 88.5 50.87314224243164 87.35007476806641 56.56979370117188 85.08216857910156 61.93173217773438 C 82.89131164550781 67.11149597167969 79.75458526611328 71.76371765136719 75.75914764404297 75.75917816162109 C 71.76369476318359 79.75463104248047 67.11147308349609 82.89134216308594 61.93169784545898 85.08220672607422 C 56.56977081298828 87.35012054443359 50.87311935424805 88.50004577636719 44.99999618530273 88.50004577636719 Z" stroke="none"/>
                      <path d="M 44.99999618530273 3.000007629394531 C 39.32870864868164 3.000007629394531 33.82865142822266 4.110061645507812 28.65262603759766 6.299346923828125 C 23.65165710449219 8.414573669433594 19.15968322753906 11.44334411621094 15.301513671875 15.30152130126953 C 11.44333648681641 19.15969085693359 8.414566040039062 23.65166473388672 6.299339294433594 28.65263366699219 C 4.110054016113281 33.82867431640625 2.999992370605469 39.32873153686523 2.999992370605469 45.00001907348633 C 2.999992370605469 50.67130661010742 4.110054016113281 56.17136383056641 6.299339294433594 61.34738922119141 C 8.414566040039062 66.34837341308594 11.44333648681641 70.84033203125 15.301513671875 74.69850158691406 C 19.15968322753906 78.55668640136719 23.65165710449219 81.58546447753906 28.65262603759766 83.70069122314453 C 33.82865142822266 85.88997650146484 39.32870864868164 87.00003051757812 44.99999618530273 87.00003051757812 C 50.67128372192383 87.00003051757812 56.17134094238281 85.88997650146484 61.34736633300781 83.70069122314453 C 66.34834289550781 81.58546447753906 70.84030914306641 78.55668640136719 74.69847869873047 74.69850158691406 C 78.55665588378906 70.84033203125 81.58542633056641 66.34837341308594 83.70065307617188 61.34738922119141 C 85.88993835449219 56.17136383056641 87 50.67130661010742 87 45.00001907348633 C 87 39.32873153686523 85.88993835449219 33.82867431640625 83.70065307617188 28.65263366699219 C 81.58542633056641 23.65166473388672 78.55665588378906 19.15969085693359 74.69847869873047 15.30152130126953 C 70.84030914306641 11.44334411621094 66.34834289550781 8.414573669433594 61.34736633300781 6.299346923828125 C 56.17134094238281 4.110061645507812 50.67128372192383 3.000007629394531 44.99999618530273 3.000007629394531 M 44.99999618530273 7.62939453125e-06 C 69.85281372070312 7.62939453125e-06 90 20.14719390869141 90 45.00001907348633 C 90 69.85282897949219 69.85281372070312 90.00003051757812 44.99999618530273 90.00003051757812 C 20.14717864990234 90.00003051757812 -7.62939453125e-06 69.85282897949219 -7.62939453125e-06 45.00001907348633 C -7.62939453125e-06 20.14719390869141 20.14717864990234 7.62939453125e-06 44.99999618530273 7.62939453125e-06 Z" stroke="none" fill="#e89076"/>
                    </g>
                  </g>
                </g>
              </g>
            </g>
          </g>
        </g>
      </g>
    </g>
    <g id="red-global" transform="translate(638.416 4106.072)">
      <g id="Grupo_1201078" data-name="Grupo 1201078" transform="translate(0.866 0.882)">
        <g id="Grupo_1201067" data-name="Grupo 1201067" transform="translate(10.881 10.836)">
          <ellipse id="Elipse_14202" data-name="Elipse 14202" cx="17.534" cy="17.505" rx="17.534" ry="17.505" fill="#9ad4fe"/>
          <path id="Trazado_1046769" data-name="Trazado 1046769" d="M233.919,101.279a17.7,17.7,0,0,0-2.542.184,17.5,17.5,0,0,1,0,34.642,17.7,17.7,0,0,0,2.542.184,17.5,17.5,0,1,0,0-35.01Z" transform="translate(-216.385 -101.279)" fill="#70c5ff"/>
        </g>
        <g id="Grupo_1201072" data-name="Grupo 1201072" transform="translate(0 0.028)">
          <g id="Grupo_1201069" data-name="Grupo 1201069" transform="translate(35.481)">
            <path id="Trazado_1046770" data-name="Trazado 1046770" d="M462.017,19.24v0a2.021,2.021,0,0,1-.524-1.954h0a2.021,2.021,0,0,1,1.43-1.429h0a2.021,2.021,0,0,1,1.951.523l0,0a2.021,2.021,0,0,1,.524,1.954h0a2.021,2.021,0,0,1-1.43,1.429h0a2.021,2.021,0,0,1-1.951-.523Z" transform="translate(-444.445 -14.857)" fill="#51d29e"/>
            <g id="Grupo_1201068" data-name="Grupo 1201068">
              <path id="Trazado_1046771" data-name="Trazado 1046771" d="M315.11,11.2v0a2.021,2.021,0,0,1-.524-1.954h0a2.021,2.021,0,0,1,1.43-1.429h0a2.021,2.021,0,0,1,1.951.523l0,0a2.021,2.021,0,0,1,.524,1.954h0a2.021,2.021,0,0,1-1.43,1.429h0A2.021,2.021,0,0,1,315.11,11.2Z" transform="translate(-314.516 -7.75)" fill="#ffcd55"/>
              <path id="Trazado_1046772" data-name="Trazado 1046772" d="M470.06,166h0a2.021,2.021,0,0,1-.524-1.954h0a2.021,2.021,0,0,1,1.43-1.429h0a2.021,2.021,0,0,1,1.951.523h0a2.021,2.021,0,0,1,.524,1.954h0a2.021,2.021,0,0,1-1.43,1.429h0A2.022,2.022,0,0,1,470.06,166Z" transform="translate(-451.559 -144.659)" fill="#ffcd55"/>
            </g>
          </g>
          <g id="Grupo_1201071" data-name="Grupo 1201071" transform="translate(0 35.446)">
            <path id="Trazado_1046773" data-name="Trazado 1046773" d="M18.992,461.823h0a2.021,2.021,0,0,1,.524,1.954h0a2.021,2.021,0,0,1-1.43,1.429h0a2.021,2.021,0,0,1-1.951-.523h0a2.021,2.021,0,0,1-.524-1.954h0a2.021,2.021,0,0,1,1.43-1.429h0A2.021,2.021,0,0,1,18.992,461.823Z" transform="translate(-14.609 -444.271)" fill="#51d29e"/>
            <g id="Grupo_1201070" data-name="Grupo 1201070">
              <path id="Trazado_1046774" data-name="Trazado 1046774" d="M165.9,469.859v0a2.021,2.021,0,0,1,.524,1.953h0a2.021,2.021,0,0,1-1.43,1.429h0a2.021,2.021,0,0,1-1.951-.523h0a2.021,2.021,0,0,1-.524-1.954h0a2.021,2.021,0,0,1,1.43-1.429h0A2.021,2.021,0,0,1,165.9,469.859Z" transform="translate(-144.538 -451.379)" fill="#ffcd55"/>
              <path id="Trazado_1046775" data-name="Trazado 1046775" d="M10.948,315.06l0,0a2.021,2.021,0,0,1,.524,1.953h0a2.021,2.021,0,0,1-1.43,1.429h0a2.021,2.021,0,0,1-1.951-.523h0a2.021,2.021,0,0,1-.524-1.953h0a2.021,2.021,0,0,1,1.43-1.429H9a2.021,2.021,0,0,1,1.951.523Z" transform="translate(-7.495 -314.469)" fill="#ffcd55"/>
            </g>
          </g>
        </g>
        <g id="Grupo_1201077" data-name="Grupo 1201077" transform="translate(0.028)">
          <g id="Grupo_1201074" data-name="Grupo 1201074" transform="translate(35.446 35.481)">
            <path id="Trazado_1046776" data-name="Trazado 1046776" d="M461.807,462.033h0a2.021,2.021,0,0,1,1.954-.524h0a2.021,2.021,0,0,1,1.429,1.43v0a2.021,2.021,0,0,1-.523,1.951l0,0a2.021,2.021,0,0,1-1.953.524h0a2.021,2.021,0,0,1-1.429-1.43v0A2.021,2.021,0,0,1,461.807,462.033Z" transform="translate(-444.255 -444.461)" fill="#ffcd55"/>
            <g id="Grupo_1201073" data-name="Grupo 1201073">
              <path id="Trazado_1046777" data-name="Trazado 1046777" d="M469.843,315.126h0a2.021,2.021,0,0,1,1.953-.524h0a2.021,2.021,0,0,1,1.429,1.43v0a2.021,2.021,0,0,1-.523,1.951v0a2.021,2.021,0,0,1-1.954.524h0a2.021,2.021,0,0,1-1.429-1.43v0A2.021,2.021,0,0,1,469.843,315.126Z" transform="translate(-451.362 -314.532)" fill="#51d29e"/>
              <path id="Trazado_1046778" data-name="Trazado 1046778" d="M315.044,470.077h0a2.021,2.021,0,0,1,1.954-.524h0a2.021,2.021,0,0,1,1.429,1.43v0a2.021,2.021,0,0,1-.523,1.951v0a2.021,2.021,0,0,1-1.954.524h0a2.021,2.021,0,0,1-1.429-1.43v0A2.021,2.021,0,0,1,315.044,470.077Z" transform="translate(-314.453 -451.576)" fill="#51d29e"/>
            </g>
          </g>
          <g id="Grupo_1201076" data-name="Grupo 1201076">
            <path id="Trazado_1046779" data-name="Trazado 1046779" d="M19.224,19.008l0,0a2.021,2.021,0,0,1-1.954.524h0a2.021,2.021,0,0,1-1.429-1.43v0a2.021,2.021,0,0,1,.523-1.951l0,0a2.021,2.021,0,0,1,1.954-.524h0a2.021,2.021,0,0,1,1.429,1.43v0A2.021,2.021,0,0,1,19.224,19.008Z" transform="translate(-14.841 -14.625)" fill="#ffcd55"/>
            <g id="Grupo_1201075" data-name="Grupo 1201075">
              <path id="Trazado_1046780" data-name="Trazado 1046780" d="M11.188,165.915h0a2.021,2.021,0,0,1-1.954.524h0a2.021,2.021,0,0,1-1.429-1.43v0a2.021,2.021,0,0,1,.523-1.951h0a2.021,2.021,0,0,1,1.954-.524h0a2.021,2.021,0,0,1,1.429,1.43v0A2.021,2.021,0,0,1,11.188,165.915Z" transform="translate(-7.734 -144.555)" fill="#51d29e"/>
              <path id="Trazado_1046781" data-name="Trazado 1046781" d="M165.986,10.964v0a2.021,2.021,0,0,1-1.954.524h0a2.021,2.021,0,0,1-1.429-1.43v0a2.021,2.021,0,0,1,.523-1.951v0a2.021,2.021,0,0,1,1.954-.524h0a2.021,2.021,0,0,1,1.429,1.43v0a2.021,2.021,0,0,1-.523,1.951Z" transform="translate(-144.642 -7.511)" fill="#51d29e"/>
            </g>
          </g>
        </g>
      </g>
      <g id="Grupo_1201079" data-name="Grupo 1201079" transform="translate(0 0.016)">
        <path id="Trazado_1046782" data-name="Trazado 1046782" d="M130.954,112.151a18.406,18.406,0,0,0-30.5-13.845.867.867,0,0,0,1.139,1.307,16.647,16.647,0,0,1,5.27-3.1,14.509,14.509,0,0,0-2.052,2.836,22.756,22.756,0,0,0-2.329,6.34h-5.3a16.64,16.64,0,0,1,2.185-3.718A.867.867,0,1,0,98,100.906a18.176,18.176,0,0,0-3.849,11.245,18.4,18.4,0,0,0,36.8,0Zm-19.267,16.56c-1.994-.362-3.872-1.966-5.362-4.608a20.735,20.735,0,0,1-2.067-5.488h7.43Zm-7.768-11.83a29.984,29.984,0,0,1,0-9.461h7.768v9.46h-7.768Zm9.5-9.46h7.768a29.871,29.871,0,0,1,0,9.461H113.42Zm0-11.83c1.994.362,3.872,1.966,5.362,4.608a20.735,20.735,0,0,1,2.067,5.488h-7.43Zm9.521,11.83h5.592a16.622,16.622,0,0,1,0,9.461H122.94a31.564,31.564,0,0,0,0-9.461Zm4.97-1.733h-5.29a22.754,22.754,0,0,0-2.329-6.34,14.5,14.5,0,0,0-2.053-2.837,16.746,16.746,0,0,1,9.673,9.177ZM106.324,100.2c1.491-2.642,3.369-4.246,5.362-4.608v10.1h-7.43A20.739,20.739,0,0,1,106.324,100.2Zm-4.158,7.222a31.6,31.6,0,0,0,0,9.461H96.573a16.722,16.722,0,0,1-.009-9.461Zm-4.97,11.194h5.29a22.754,22.754,0,0,0,2.329,6.34,14.509,14.509,0,0,0,2.053,2.837A16.745,16.745,0,0,1,97.195,118.614Zm21.045,9.177a14.708,14.708,0,0,0,2.154-3.023.867.867,0,0,0-1.52-.834c-1.506,2.745-3.417,4.408-5.455,4.776v-10.1h7.424c-.183.788-.4,1.553-.648,2.287a.867.867,0,0,0,1.641.559,25.773,25.773,0,0,0,.784-2.845h5.291A16.745,16.745,0,0,1,118.24,127.791Z" transform="translate(-83.271 -82.943)"/>
        <path id="Trazado_1046783" data-name="Trazado 1046783" d="M307.876,5.2a2.945,2.945,0,0,0,3.371.508l2.55,2.547a.333.333,0,0,1,0,.471l-2.412,2.41a.867.867,0,1,0,1.225,1.226l2.412-2.41a2.084,2.084,0,0,0,0-2.924l-2.549-2.547a2.946,2.946,0,0,0-.52-3.379,2.9,2.9,0,0,0-2.788-.747l-.01,0a2.888,2.888,0,0,0-1.289,4.831l.009.009Zm.917-2.352a1.157,1.157,0,0,1,.816-.816l.009,0a1.155,1.155,0,1,1-.825.819Z" transform="translate(-271.54 -0.228)"/>
        <path id="Trazado_1046784" data-name="Trazado 1046784" d="M413.718,133.548a2.689,2.689,0,0,0-.6.233l-2.55-2.547a2.071,2.071,0,0,0-2.924,0l-2.412,2.41a.867.867,0,1,0,1.225,1.226l2.412-2.41a.336.336,0,0,1,.474,0l2.549,2.546a2.958,2.958,0,0,0,.52,3.379A2.89,2.89,0,1,0,416.5,134.3,2.893,2.893,0,0,0,413.718,133.548Zm1.855,3.093a1.173,1.173,0,0,1-1.935.519,1.23,1.23,0,0,1,0-1.633,1.157,1.157,0,0,1,1.939,1.114Z" transform="translate(-358.178 -115.536)"/>
        <path id="Trazado_1046785" data-name="Trazado 1046785" d="M380.161,22.352a.867.867,0,0,0,1.226,0l8.628-8.62a2.889,2.889,0,1,0,.6-5.355l-.014,0a2.885,2.885,0,0,0-1.812,4.124l-8.628,8.62a.867.867,0,0,0,0,1.226Zm10.073-11.479a1.154,1.154,0,0,1,.807-.814l.014,0a1.156,1.156,0,0,1,.608,2.229l-.014,0a1.157,1.157,0,0,1-1.114-.3h0l-.005-.005A1.158,1.158,0,0,1,390.234,10.873Z" transform="translate(-336.003 -7.327)"/>
        <path id="Trazado_1046786" data-name="Trazado 1046786" d="M138.306,412.267a2.962,2.962,0,0,0-3.379-.515l-2.55-2.547a.333.333,0,0,1,0-.471l2.412-2.41a.867.867,0,0,0-1.225-1.226l-2.412,2.41a2.084,2.084,0,0,0,0,2.924l2.549,2.547a2.973,2.973,0,0,0,.527,3.386,2.89,2.89,0,0,0,4.087-4.086Zm-.925,2.344a1.172,1.172,0,0,1-1.935.519,1.156,1.156,0,1,1,1.636-1.635A1.158,1.158,0,0,1,137.381,414.611Z" transform="translate(-115.466 -358.06)"/>
        <path id="Trazado_1046787" data-name="Trazado 1046787" d="M3.639,312.657a2.873,2.873,0,0,0,.587-.23l2.55,2.547a2.089,2.089,0,0,0,2.924,0l2.412-2.41a.867.867,0,0,0-1.225-1.226l-2.412,2.41a.336.336,0,0,1-.474,0L5.452,311.2a2.966,2.966,0,0,0-.527-3.387A2.89,2.89,0,0,0,.838,311.9a2.962,2.962,0,0,0,2.8.755Zm-1.561-1.966-.007-.007a1.156,1.156,0,0,1,1.636-1.635,1.252,1.252,0,0,1,.3,1.117,1.158,1.158,0,0,1-1.93.524Z" transform="translate(0 -271.504)"/>
        <path id="Trazado_1046788" data-name="Trazado 1046788" d="M22.124,380.049a.867.867,0,0,0-1.226,0l-8.629,8.62a2.9,2.9,0,0,0-2.081-.231l-.01,0a2.888,2.888,0,0,0-1.3,4.823,2.974,2.974,0,0,0,2.8.755,2.885,2.885,0,0,0,1.812-4.124l8.628-8.62a.866.866,0,0,0,0-1.226ZM12.051,391.528a1.159,1.159,0,0,1-.821.817,1.253,1.253,0,0,1-1.116-.3,1.155,1.155,0,0,1,.517-1.932l.009,0a1.157,1.157,0,0,1,1.11.3h0a1.158,1.158,0,0,1,.3,1.116Z" transform="translate(-7.113 -335.905)"/>
        <path id="Trazado_1046789" data-name="Trazado 1046789" d="M394,390.619a2.885,2.885,0,0,0-4.124-1.812l-8.62-8.628a.867.867,0,0,0-1.226,1.225l8.62,8.629a2.884,2.884,0,0,0-.233,2.073l0,.012a2.889,2.889,0,0,0,5.583-1.487Zm-1.974,1.568a1.155,1.155,0,0,1-1.93-.509l0-.012a1.157,1.157,0,0,1,.3-1.114l0,0a1.158,1.158,0,0,1,.818-.338,1.142,1.142,0,0,1,.3.039,1.155,1.155,0,0,1,.814.808l0,.012A1.158,1.158,0,0,1,392.029,392.187Z" transform="translate(-335.889 -336.019)"/>
        <path id="Trazado_1046790" data-name="Trazado 1046790" d="M415.043,307.136a2.9,2.9,0,0,0-2.791.748,2.986,2.986,0,0,0-.517,3.38l-2.547,2.55a.333.333,0,0,1-.471,0l-2.41-2.412a.867.867,0,1,0-1.226,1.225l2.41,2.412a2.084,2.084,0,0,0,2.924,0l2.546-2.549a2.946,2.946,0,0,0,3.379-.52,2.892,2.892,0,0,0-1.3-4.834Zm.068,3.611a1.156,1.156,0,0,1-1.635-1.636l.006-.007a1.156,1.156,0,0,1,1.628,1.643Z" transform="translate(-358.042 -271.557)"/>
        <path id="Trazado_1046791" data-name="Trazado 1046791" d="M312.539,405.251a.867.867,0,0,0-1.226,1.225l2.41,2.412a.336.336,0,0,1,0,.474l-2.547,2.549a2.967,2.967,0,0,0-3.379.52,2.893,2.893,0,0,0-.749,2.78l0,.012a2.9,2.9,0,0,0,2.031,2.04,2.889,2.889,0,0,0,3.319-4.125l2.547-2.55a2.071,2.071,0,0,0,0-2.924Zm-1.881,10.041a1.251,1.251,0,0,1-1.116.3,1.154,1.154,0,0,1-.814-.808l0-.012a1.158,1.158,0,0,1,.3-1.115,1.22,1.22,0,0,1,1.632,0A1.167,1.167,0,0,1,310.658,415.292Z" transform="translate(-271.479 -358.195)"/>
        <path id="Trazado_1046792" data-name="Trazado 1046792" d="M8.2,11.74a2.919,2.919,0,0,0,4.123,1.807l8.619,8.628a.867.867,0,0,0,1.226-1.225l-8.62-8.629A2.889,2.889,0,1,0,8.2,11.74Zm1.97-1.573a1.252,1.252,0,0,1,1.118-.3,1.158,1.158,0,0,1,.524,1.93,1.181,1.181,0,0,1-1.941-.519A1.158,1.158,0,0,1,10.173,10.167Z" transform="translate(-7.146 -7.165)"/>
        <path id="Trazado_1046793" data-name="Trazado 1046793" d="M.329,137.029a2.888,2.888,0,0,0,4.833,1.295,2.987,2.987,0,0,0,.517-3.38l2.547-2.55a.332.332,0,0,1,.471,0l2.41,2.412a.867.867,0,1,0,1.226-1.225l-2.41-2.412a2.084,2.084,0,0,0-2.924,0l-2.546,2.549a2.956,2.956,0,0,0-3.379.52,2.892,2.892,0,0,0-.749,2.778l0,.014ZM2.3,135.467l.007-.007a1.157,1.157,0,0,1,1.109-.3,1.185,1.185,0,0,1,.824.822,1.157,1.157,0,0,1-.3,1.115l0,0a1.155,1.155,0,0,1-1.929-.508l0-.014a1.158,1.158,0,0,1,.293-1.109Z" transform="translate(-0.202 -115.482)"/>
        <path id="Trazado_1046794" data-name="Trazado 1046794" d="M133.628,12.128a.867.867,0,0,0,1.226-1.225l-2.41-2.412a.336.336,0,0,1,0-.474l2.547-2.549a2.954,2.954,0,0,0,3.379-.52A2.89,2.89,0,0,0,134.282.862a2.966,2.966,0,0,0-.517,3.38l-2.547,2.55a2.072,2.072,0,0,0,0,2.924Zm1.879-10.039.006-.007a1.156,1.156,0,0,1,1.635,1.636,1.25,1.25,0,0,1-1.123.306,1.157,1.157,0,0,1-.816-.816A1.251,1.251,0,0,1,135.507,2.089Z" transform="translate(-115.52 -0.016)"/>
      </g>
    </g>
  </g>
</svg>
