<svg xmlns="http://www.w3.org/2000/svg" xmlns:xlink="http://www.w3.org/1999/xlink" width="208" height="199.928" viewBox="0 0 208 199.928">
  <defs>
    <filter id="Rectángulo_416200" x="0" y="-6" width="208" height="205" filterUnits="userSpaceOnUse">
      <feOffset dy="3" input="SourceAlpha"/>
      <feGaussianBlur stdDeviation="3" result="blur"/>
      <feFlood flood-opacity="0.161"/>
      <feComposite operator="in" in2="blur"/>
      <feComposite in="SourceGraphic"/>
    </filter>
    <filter id="Rectángulo_415962" x="0" y="36.928" width="208" height="163" filterUnits="userSpaceOnUse">
      <feOffset dy="3" input="SourceAlpha"/>
      <feGaussianBlur stdDeviation="3" result="blur-2"/>
      <feFlood flood-opacity="0.161"/>
      <feComposite operator="in" in2="blur-2"/>
      <feComposite in="SourceGraphic"/>
    </filter>
    <clipPath id="clip-path">
      <g transform="matrix(1, 0, 0, 1, 0, 0)" filter="url(#Rectángulo_416200)">
        <rect id="Rectángulo_416200-2" data-name="Rectángulo 416200" width="190" height="187" rx="20" transform="translate(-1081 5073.28)" fill="#004a54" opacity="0.59"/>
      </g>
    </clipPath>
    <clipPath id="clip-path-2">
      <rect id="Rectángulo_416154" data-name="Rectángulo 416154" width="11.427" height="7.648" fill="none"/>
    </clipPath>
    <clipPath id="clip-path-3">
      <rect id="Rectángulo_416155" data-name="Rectángulo 416155" width="12.787" height="9.117" fill="none"/>
    </clipPath>
  </defs>
  <g id="Grupo_1201081" data-name="Grupo 1201081" transform="translate(-171 -5330.284)">
    <g transform="matrix(1, 0, 0, 1, 171, 5330.28)" filter="url(#Rectángulo_415962)">
      <rect id="Rectángulo_415962-2" data-name="Rectángulo 415962" width="190" height="145" rx="29" transform="translate(9 42.93)" fill="#4a665c"/>
    </g>
    <g id="Enmascarar_grupo_1183026" data-name="Enmascarar grupo 1183026" transform="translate(1261 257)" clip-path="url(#clip-path)">
      <g id="Grupo_1200882" data-name="Grupo 1200882" transform="translate(-1263.686 -2436.098)">
        <g id="Grupo_1200880" data-name="Grupo 1200880" transform="translate(190.128 7512.548)">
          <path id="Trazado_1042059" data-name="Trazado 1042059" d="M425.319,292.52l19.613-9.6-16.085-29.133,11.923-2.593L417.3,212.913l-.007.2a29.5,29.5,0,0,0-23.862-12.136H353l.093-1.222-15.8.172c-14.7.279-27.948,9.8-32.01,23.926q-.246.855-.448,1.729l-9.109,50.1,27.1-2.207-5.3,67.931H427.155Z" transform="translate(-292.744 -106.469)" fill="#5c69ab"/>
          <path id="Trazado_1042060" data-name="Trazado 1042060" d="M454.675,311.8a.4.4,0,0,1-.4-.347l-10.058-72.271a.4.4,0,1,1,.8-.111l10.058,72.271a.4.4,0,0,1-.343.454.438.438,0,0,1-.056,0" transform="translate(-321.677 -114.063)" fill="#2d3248"/>
          <path id="Trazado_1042061" data-name="Trazado 1042061" d="M388.178,201.661H351.825a5.771,5.771,0,1,1,0-11.542h36.353a5.771,5.771,0,1,1,0,11.542" transform="translate(-302.55 -104.592)" fill="#111"/>
          <path id="Trazado_1042062" data-name="Trazado 1042062" d="M388.081,201.966H351.729a6.173,6.173,0,1,1,0-12.347h36.352a6.173,6.173,0,1,1,0,12.347m-36.352-11.542a5.368,5.368,0,1,0,0,10.737h36.352a5.368,5.368,0,1,0,0-10.737Z" transform="translate(-302.453 -104.495)" fill="#111"/>
          <path id="Trazado_1042063" data-name="Trazado 1042063" d="M406.706,216.149l9.553,127.68-50.6-.308,6.278-125.853-6.587-7.047Z" transform="translate(-306.31 -108.587)" fill="#111"/>
          <path id="Trazado_1042064" data-name="Trazado 1042064" d="M469.827,288.775H451.249a4.527,4.527,0,0,1-4.527-4.527V249.332a4.527,4.527,0,0,1,4.527-4.527h18.579a4.527,4.527,0,0,1,4.527,4.527v34.917a4.527,4.527,0,0,1-4.527,4.527" transform="translate(-322.165 -115.248)" fill="#111"/>
          <path id="Trazado_1042065" data-name="Trazado 1042065" d="M457.73,269.388c-2.539-.046-5.061.583-4.919,3.741-.283,2.87,2.175,3.6,4.742,3.85-1.615.09-2.991.657-3.1,2.581-.6,3.411,2.413,4.638,5.225,4.837-2.705.609-1.107,4.992,2.328,6.164,3.054,1.219,6.208,2.318,9.188,3.686a44.316,44.316,0,0,0,9.188,3.4,21.556,21.556,0,0,0,10.671-.221,9.866,9.866,0,0,0,5.615-3.791c2.258-3.521.982-8.511-.23-12.192a25.776,25.776,0,0,0-6.338-10.588s-10.654-10.221-14.882-12.969a4.777,4.777,0,0,0-1.448-.711,1.751,1.751,0,0,0-1.535.289,2.325,2.325,0,0,0-.565,1.953,18.273,18.273,0,0,0,1.943,6.216c-1.825-.548-3.773-1.147-5.9-1.829-4.577-1.117-11.9-3.886-13.01,2.187-.206,2.142,1.288,3.024,3.026,3.395" transform="translate(-323.347 -117.647)" fill="#e59078"/>
          <g id="Grupo_1200780" data-name="Grupo 1200780" transform="translate(148.795 144.283)" opacity="0.36">
            <g id="Grupo_1200779" data-name="Grupo 1200779" transform="translate(0 0)">
              <g id="Grupo_1200778" data-name="Grupo 1200778" clip-path="url(#clip-path-2)">
                <path id="Trazado_1042066" data-name="Trazado 1042066" d="M478.294,266.8l9.959,3.942s-9.564-7.1-11.427-7.647Z" transform="translate(-476.826 -263.094)" fill="#e06a4b"/>
              </g>
            </g>
          </g>
          <path id="Trazado_1042067" data-name="Trazado 1042067" d="M464.687,274.305a.408.408,0,0,1-.119-.018,63.041,63.041,0,0,0-6.937-1.871.4.4,0,0,1-.393-.411.43.43,0,0,1,.412-.394,66.527,66.527,0,0,1,7.157,1.907.4.4,0,0,1-.12.787" transform="translate(-324.214 -120.471)" fill="#df6969"/>
          <path id="Trazado_1042068" data-name="Trazado 1042068" d="M463.523,283.625a.394.394,0,0,1-.113-.016l-5.578-1.623a.4.4,0,0,1,.225-.774l5.579,1.624a.4.4,0,0,1-.113.789" transform="translate(-324.274 -122.338)" fill="#df6969"/>
          <path id="Trazado_1042069" data-name="Trazado 1042069" d="M464.272,292.111a.424.424,0,0,1-.1-.014l-3.025-.808a.4.4,0,1,1,.208-.778l3.025.808a.4.4,0,0,1-.1.791" transform="translate(-324.917 -124.151)" fill="#df6969"/>
          <path id="Trazado_1042070" data-name="Trazado 1042070" d="M461.526,262.684c-1.473-6.9-9.739-3.488-14.927-2.059-2.4.851-4.6,1.6-6.669,2.287a20.867,20.867,0,0,0,2.008-7.161,2.656,2.656,0,0,0-.711-2.211,2,2,0,0,0-1.762-.279,5.451,5.451,0,0,0-1.63.861c-4.734,3.28-16.553,15.308-16.553,15.308-6.94,8.535-10.491,21.1-6.351,27.386a2.83,2.83,0,0,0,1.552,1.138c3.03.916,12.472,4.026,16.886,1.978l20.651-8.956c3.882-1.454,5.559-6.513,2.449-7.116,3.205-.322,6.6-1.824,5.8-5.7-.192-2.192-1.783-2.793-3.629-2.842,2.923-.368,5.7-1.288,5.284-4.555.056-3.61-2.845-4.242-5.742-4.105,1.971-.481,3.647-1.539,3.34-3.977" transform="translate(-315.626 -116.879)" fill="#ffa485"/>
          <g id="Grupo_1200783" data-name="Grupo 1200783" transform="translate(113.067 141.754)" opacity="0.36">
            <g id="Grupo_1200782" data-name="Grupo 1200782" transform="translate(0 0)">
              <g id="Grupo_1200781" data-name="Grupo 1200781" clip-path="url(#clip-path-3)">
                <path id="Trazado_1042071" data-name="Trazado 1042071" d="M443.689,264.233l-11.237,4.837s10.679-8.428,12.787-9.117Z" transform="translate(-432.452 -259.953)" fill="#e06a4b"/>
              </g>
            </g>
          </g>
          <path id="Trazado_1042072" data-name="Trazado 1042072" d="M460.421,272.3a.4.4,0,0,1-.13-.783c.7-.24,6.886-2.351,8.089-2.415a.384.384,0,0,1,.423.38.4.4,0,0,1-.38.423,76.333,76.333,0,0,0-7.872,2.374.41.41,0,0,1-.13.022" transform="translate(-324.756 -119.982)" fill="#df6969"/>
          <path id="Trazado_1042073" data-name="Trazado 1042073" d="M462.466,282.9a.4.4,0,0,1-.125-.786l6.316-2.042a.4.4,0,1,1,.248.766l-6.316,2.043a.406.406,0,0,1-.123.019" transform="translate(-325.155 -122.117)" fill="#df6969"/>
          <path id="Trazado_1042074" data-name="Trazado 1042074" d="M462.6,292.617a.4.4,0,0,1-.115-.789l3.425-1.024a.4.4,0,1,1,.231.772l-3.425,1.024a.416.416,0,0,1-.116.017" transform="translate(-325.18 -124.207)" fill="#df6969"/>
          <path id="Trazado_1042075" data-name="Trazado 1042075" d="M341.055,286.234l1.382,3.919,41.406-11.692,4.9-1.386a2.847,2.847,0,0,1,3.409,1.664l11.132,27.3a3.5,3.5,0,0,1-1.973,4.581l-48.269,18.74-18.779,7.291a42.246,42.246,0,0,1-16.016,1.389c-15.6-1.765-26.858-12.973-26.2-27.573l3.407-22.736Z" transform="translate(-292.022 -121.514)" fill="#5c69ab"/>
          <path id="Trazado_1042076" data-name="Trazado 1042076" d="M411.153,295.2a.4.4,0,0,1-.382-.275l-5.244-15.656a.4.4,0,0,1,.762-.257l5.245,15.657a.4.4,0,0,1-.254.51.391.391,0,0,1-.127.021" transform="translate(-314.134 -121.859)" fill="#2d3248"/>
          <path id="Trazado_1042077" data-name="Trazado 1042077" d="M422.485,312.67a1.775,1.775,0,1,1,1.775-1.775,1.776,1.776,0,0,1-1.775,1.775m0-2.744a.969.969,0,1,0,.969.969.97.97,0,0,0-.969-.969" transform="translate(-317.097 -127.78)" fill="#2d3248"/>
          <path id="Trazado_1042078" data-name="Trazado 1042078" d="M331.928,297.5a.4.4,0,0,1-.107-.791c.329-.091,32.934-9.048,33.318-9.157a.4.4,0,1,1,.22.775c-.388.11-31.979,8.789-33.324,9.159a.414.414,0,0,1-.107.014" transform="translate(-299.719 -123.575)" fill="#2d3248"/>
          <path id="Trazado_1042079" data-name="Trazado 1042079" d="M345.957,288.394h-.017a.4.4,0,0,1-.386-.419L346.829,257a.4.4,0,1,1,.805.033l-1.275,30.971a.4.4,0,0,1-.4.386" transform="translate(-302.453 -117.549)" fill="#2d3248"/>
          <path id="Trazado_1042080" data-name="Trazado 1042080" d="M422.817,318.7a.4.4,0,0,1-.144-.779l4.279-1.636a2.68,2.68,0,0,0,1.529-3.507L427,309.118a.4.4,0,0,1,.747-.3l1.476,3.657a3.485,3.485,0,0,1-1.989,4.56l-4.278,1.637a.411.411,0,0,1-.144.027" transform="translate(-317.429 -127.671)" fill="#2d3248"/>
          <path id="Trazado_1042081" data-name="Trazado 1042081" d="M329.285,351.078a34.607,34.607,0,0,1-4.842-.34.4.4,0,1,1,.113-.8,34,34,0,0,0,16.846-1.9l20.753-7.925a.4.4,0,1,1,.288.751l-20.754,7.926a34.821,34.821,0,0,1-12.4,2.283" transform="translate(-298.272 -133.814)" fill="#2d3248"/>
          <path id="Trazado_1042082" data-name="Trazado 1042082" d="M431.5,98.16l-3.312.611a.645.645,0,0,1-.759-.685l.34-4.242a2.92,2.92,0,0,0-4.081-2.914,41.6,41.6,0,0,1-5.29,1.963,10.766,10.766,0,0,0-9.178-5.142c-.333,0-.663.018-.988.05a16.919,16.919,0,0,0-10.838-3.907h-6.612a15.891,15.891,0,0,0-15.748,13.82c-.122.035-.248.062-.369.1-5.037,1.671-7.738,7.177-6.541,12.348l2.549,11.011a8.692,8.692,0,0,1,1.7-.033l5.482.439,5.563.445,1.132-14.141H390.1c3.675,4.13,11.381,9.782,25.514,8.523a32.121,32.121,0,0,0,8.481-1.84,19.44,19.44,0,0,0,11.757-11.115A3.914,3.914,0,0,0,431.5,98.16" transform="translate(-306.796 -83.894)" fill="#111"/>
          <path id="Trazado_1042083" data-name="Trazado 1042083" d="M386.331,109.242a.632.632,0,0,0-.8-.279,13.806,13.806,0,0,1-1.952.643L382.194,126.9l-5.564-.445-5.482-.439a8.754,8.754,0,0,0-9.407,8.013l-.169,2.1a8.764,8.764,0,0,0,8.013,9.407l3.082.247-5.144,31.924a15.493,15.493,0,0,0,12.831,17.759l3.695.6a15.492,15.492,0,0,0,17.759-12.83l2.041-12.667.717.057a14.157,14.157,0,0,0,15.242-12.983l3.059-38.2a32.135,32.135,0,0,1-8.482,1.84c-19.325,1.721-26.643-9.481-28.053-12.042" transform="translate(-305.568 -88.769)" fill="#ffa485"/>
          <path id="Trazado_1042084" data-name="Trazado 1042084" d="M371.526,144.7a.4.4,0,0,1-.192-.756l2.948-1.6-2.824-3.7a.4.4,0,0,1,.64-.489l3.109,4.072a.4.4,0,0,1,.074.328.4.4,0,0,1-.2.271l-3.361,1.826a.4.4,0,0,1-.192.049" transform="translate(-307.435 -94.436)" fill="#e06a4b"/>
          <path id="Trazado_1042085" data-name="Trazado 1042085" d="M416.26,148.489c-.1,0-.192,0-.288-.011l-2.609-.208a.4.4,0,0,1-.369-.434.408.408,0,0,1,.433-.37l2.609.209a2.779,2.779,0,0,0,2.989-3.032l-.878-9.286a.4.4,0,0,1,.8-.075l.878,9.285a3.585,3.585,0,0,1-3.567,3.922" transform="translate(-315.593 -93.835)" fill="#e06a4b"/>
          <path id="Trazado_1042086" data-name="Trazado 1042086" d="M429.263,142.477a1.9,1.9,0,1,1-2.081-1.7,1.9,1.9,0,0,1,2.081,1.7" transform="translate(-318.024 -94.975)" fill="#111"/>
          <path id="Trazado_1042087" data-name="Trazado 1042087" d="M411.8,172.649a.4.4,0,0,1-.262-.043,3.367,3.367,0,0,0-3.78.386.4.4,0,0,1-.531-.589,4.233,4.233,0,0,1,4.7-.489.4.4,0,0,1-.124.734" transform="translate(-314.444 -100.946)" fill="#e06a4b"/>
          <path id="Trazado_1042088" data-name="Trazado 1042088" d="M395.978,130.521a8.027,8.027,0,0,0,3.336-.013c1.176-.161,2.362-.294,3.4-.373s2.229-.13,3.417-.151a7.988,7.988,0,0,0,3.292-.5c.86-.444,1.138-1.549-.016-2.793-1.087-1.213-3.781-2.417-7.21-2.162-3.424.271-5.861,1.869-6.712,3.231-.908,1.4-.432,2.449.5,2.756" transform="translate(-312.086 -91.806)" fill="#111"/>
          <path id="Trazado_1042089" data-name="Trazado 1042089" d="M434.038,133.982a4.876,4.876,0,0,1-2.269-.39c-.778-.258-1.565-.5-2.258-.675s-1.5-.354-2.3-.506a4.857,4.857,0,0,1-2.17-.758c-.523-.441-.556-1.329.407-2.159a5.957,5.957,0,0,1,5.215-.852,5.838,5.838,0,0,1,4.108,3.264c.419,1.188-.053,1.944-.729,2.076" transform="translate(-317.869 -92.569)" fill="#111"/>
          <path id="Trazado_1042090" data-name="Trazado 1042090" d="M408.615,141.486a2.081,2.081,0,1,1-1.735-2.378,2.082,2.082,0,0,1,1.735,2.378" transform="translate(-313.934 -94.648)" fill="#111"/>
          <path id="Trazado_1042091" data-name="Trazado 1042091" d="M404.187,144.061a2.965,2.965,0,0,1,3.63.548" transform="translate(-313.877 -95.541)" fill="#ffa485"/>
          <path id="Trazado_1042092" data-name="Trazado 1042092" d="M407.718,144.915a.4.4,0,0,1-.29-.123,2.527,2.527,0,0,0-3.13-.483.4.4,0,0,1-.417-.688,3.342,3.342,0,0,1,4.127.613.4.4,0,0,1-.29.682" transform="translate(-313.78 -95.444)" fill="#e06a4b"/>
          <path id="Trazado_1042093" data-name="Trazado 1042093" d="M425.779,145.669a4.121,4.121,0,0,1,3.224.291" transform="translate(-318.084 -95.891)" fill="#ffa485"/>
          <path id="Trazado_1042094" data-name="Trazado 1042094" d="M428.9,146.266a.4.4,0,0,1-.21-.06,3.741,3.741,0,0,0-2.879-.255.4.4,0,0,1-.268-.758,4.5,4.5,0,0,1,3.568.328.4.4,0,0,1-.21.746" transform="translate(-317.987 -95.793)" fill="#e06a4b"/>
          <path id="Trazado_1042095" data-name="Trazado 1042095" d="M401.093,151.855a1.7,1.7,0,0,1,2.058.366,11.623,11.623,0,0,0,6.315,3.5,1.206,1.206,0,0,1,.727,1.8c-.88,1.532-3.091,3.826-7.126,1.524-4.917-2.805-3.745-6.208-1.973-7.192" transform="translate(-312.976 -97.097)" fill="#fff"/>
          <path id="Trazado_1042096" data-name="Trazado 1042096" d="M408.955,183.766s-17.047-.263-20.683-7.469c0,0,1.126,15.237,19.163,16.9Z" transform="translate(-310.776 -101.899)" fill="#e06a4b"/>
          <path id="Trazado_1042097" data-name="Trazado 1042097" d="M415.767,197.568l4.056,10.421a3.532,3.532,0,0,1-.647,3.618l-10.507,12.02a1.819,1.819,0,0,1-3.225.187l-9.069-11.2,15.945-16.675c1.274-1.349,3.294-.4,3.448,1.626" transform="translate(-312.355 -105.604)" fill="#111"/>
          <path id="Trazado_1042098" data-name="Trazado 1042098" d="M406.9,225.01a2.266,2.266,0,0,1-1.884-1.069l-9.049-11.167a.4.4,0,0,1,.023-.532l15.944-16.675a2.213,2.213,0,0,1,2.394-.625,2.8,2.8,0,0,1,1.742,2.437l4.035,10.367a3.939,3.939,0,0,1-.719,4.028L408.9,223.763a2.342,2.342,0,0,1-1.907,1.245l-.1,0m-10.084-12.469,8.846,10.922a1.494,1.494,0,0,0,1.3.74,1.533,1.533,0,0,0,1.258-.866.376.376,0,0,1,.051-.072l10.507-12.02a3.133,3.133,0,0,0,.575-3.206l-4.056-10.422a.427.427,0,0,1-.027-.115,2.006,2.006,0,0,0-1.213-1.8,1.414,1.414,0,0,0-1.541.421Z" transform="translate(-312.258 -105.507)" fill="#111"/>
          <path id="Trazado_1042099" data-name="Trazado 1042099" d="M367.559,192.967l23.487,19.2L377.2,225.783a3.577,3.577,0,0,1-4.88-.34l-12.952-15.386a3.7,3.7,0,0,1-.5-4l6.167-12.644a1.7,1.7,0,0,1,2.523-.443" transform="translate(-304.974 -105.074)" fill="#111"/>
          <path id="Trazado_1042100" data-name="Trazado 1042100" d="M374.831,226.89c-.114,0-.229,0-.345-.014a3.769,3.769,0,0,1-2.574-1.271L358.959,210.22a4.1,4.1,0,0,1-.548-4.44l6.167-12.644a1.889,1.889,0,0,1,1.33-.994,2.144,2.144,0,0,1,1.809.415l23.486,19.2a.4.4,0,0,1,.027.6l-13.849,13.613a3.925,3.925,0,0,1-2.551.917M366.383,192.9a1.469,1.469,0,0,0-.305.033,1.1,1.1,0,0,0-.777.56l-6.167,12.645a3.3,3.3,0,0,0,.441,3.568l12.953,15.385a2.958,2.958,0,0,0,2.023.987,3.13,3.13,0,0,0,2.287-.694L390.347,212.1l-23.14-18.919v0a1.293,1.293,0,0,0-.823-.283" transform="translate(-304.877 -104.977)" fill="#111"/>
          <path id="Trazado_1042101" data-name="Trazado 1042101" d="M376.191,232.661c-.083,0-.164,0-.246-.007a4.148,4.148,0,0,1-2.961-1.52l-8.8-10.837a.4.4,0,1,1,.625-.508l8.8,10.837a3.33,3.33,0,0,0,4.9.295l11.6-11.218a1.686,1.686,0,0,1,2.535.221l6.281,8.634a2.422,2.422,0,0,0,3.844.094l3.848-4.778a.4.4,0,1,1,.627.5l-3.848,4.778a3.227,3.227,0,0,1-5.122-.126l-6.282-8.634a.88.88,0,0,0-1.324-.115l-11.6,11.218a4.147,4.147,0,0,1-2.875,1.162" transform="translate(-306.064 -110.264)" fill="#2d3248"/>
          <path id="Trazado_1042102" data-name="Trazado 1042102" d="M378.728,230.085a2.161,2.161,0,1,1,2.161-2.161,2.164,2.164,0,0,1-2.161,2.161m0-3.518a1.356,1.356,0,1,0,1.356,1.357,1.358,1.358,0,0,0-1.356-1.357" transform="translate(-308.496 -111.537)" fill="#2d3248"/>
          <path id="Trazado_1042103" data-name="Trazado 1042103" d="M378.119,246.324a.4.4,0,0,1-.014-.805,4.108,4.108,0,0,0,3.429-2.479,6.667,6.667,0,0,0,.188-4.524,16.768,16.768,0,0,0-2.081-4.293c-.923-1.468-2.186-3.479-1.533-5.44a1.753,1.753,0,0,1,.989-1.159.4.4,0,0,1,.279.755,1,1,0,0,0-.5.659c-.534,1.6.567,3.35,1.451,4.757A17.443,17.443,0,0,1,382.5,238.3a7.47,7.47,0,0,1-.231,5.074,4.925,4.925,0,0,1-4.134,2.949h-.014" transform="translate(-308.719 -111.895)" fill="#2d3248"/>
          <path id="Trazado_1042104" data-name="Trazado 1042104" d="M410.356,229.133a2.161,2.161,0,1,1,2.162-2.161,2.164,2.164,0,0,1-2.162,2.161m0-3.518a1.356,1.356,0,1,0,1.357,1.357,1.358,1.358,0,0,0-1.357-1.357" transform="translate(-314.658 -111.352)" fill="#2d3248"/>
          <path id="Trazado_1042105" data-name="Trazado 1042105" d="M409.747,252.629a.4.4,0,0,1-.018-.8c1.378-.063,2.751-1.484,3.417-3.536a13.317,13.317,0,0,0,.2-6.54,28.621,28.621,0,0,0-2.1-6.094c-.9-2.019-2.14-4.786-1.516-7.419a2.3,2.3,0,0,1,.953-1.543.4.4,0,0,1,.371.715,1.6,1.6,0,0,0-.54,1.013c-.561,2.369.564,4.884,1.468,6.906a29.333,29.333,0,0,1,2.155,6.266,14.125,14.125,0,0,1-.221,6.946c-.769,2.37-2.436,4.014-4.147,4.091h-.018" transform="translate(-314.882 -111.71)" fill="#2d3248"/>
          <path id="Trazado_1042106" data-name="Trazado 1042106" d="M367.061,209.757a.4.4,0,0,1-.277-.11,65.741,65.741,0,0,1-4.77-5.029,4.509,4.509,0,0,1-1.384-2.9,4.163,4.163,0,0,1,.335-1.389,80.652,80.652,0,0,1,4.92-9.121.4.4,0,0,1,.648.479,81.187,81.187,0,0,0-4.817,8.93,3.426,3.426,0,0,0-.281,1.121,3.855,3.855,0,0,0,1.192,2.359,64.708,64.708,0,0,0,4.71,4.967.4.4,0,0,1-.277.695" transform="translate(-305.39 -104.772)" fill="#2d3248"/>
          <path id="Trazado_1042107" data-name="Trazado 1042107" d="M371.964,194.886a.4.4,0,0,1-.225-.069l-4.5-3.036a.4.4,0,1,1,.45-.667l4.5,3.036a.4.4,0,0,1-.225.737" transform="translate(-306.643 -104.772)" fill="#2d3248"/>
          <path id="Trazado_1042108" data-name="Trazado 1042108" d="M418.984,212.319a.4.4,0,0,1-.276-.7l4.2-3.96a2.266,2.266,0,0,0,.544-.651,2.2,2.2,0,0,0-.328-1.747,41.287,41.287,0,0,0-2.2-3.9.4.4,0,1,1,.678-.434,42,42,0,0,1,2.245,3.972,2.314,2.314,0,0,1-.385,3.342l-4.2,3.96a.4.4,0,0,1-.276.109" transform="translate(-316.682 -106.663)" fill="#2d3248"/>
        </g>
        <g id="Grupo_1200881" data-name="Grupo 1200881" transform="translate(311.491 7563.511)">
          <g id="Grupo_1200765" data-name="Grupo 1200765" transform="translate(0.729 1.215)">
            <g id="Grupo_1200752" data-name="Grupo 1200752" transform="translate(4.615 0.729)">
              <g id="Grupo_1200751" data-name="Grupo 1200751">
                <circle id="Elipse_12553" data-name="Elipse 12553" cx="25.746" cy="25.746" r="25.746"/>
              </g>
            </g>
            <g id="Grupo_1200754" data-name="Grupo 1200754">
              <g id="Grupo_1200753" data-name="Grupo 1200753">
                <circle id="Elipse_12554" data-name="Elipse 12554" cx="25.746" cy="25.746" r="25.746" fill="#fce67a"/>
              </g>
            </g>
            <g id="Grupo_1200756" data-name="Grupo 1200756" transform="translate(7.53 7.53)">
              <g id="Grupo_1200755" data-name="Grupo 1200755">
                <circle id="Elipse_12555" data-name="Elipse 12555" cx="18.217" cy="18.217" r="18.217" fill="#ffdc00"/>
              </g>
            </g>
            <g id="Grupo_1200764" data-name="Grupo 1200764" transform="translate(18.187 11.416)">
              <g id="Grupo_1200759" data-name="Grupo 1200759" transform="translate(0 2.397)">
                <g id="Grupo_1200758" data-name="Grupo 1200758">
                  <g id="Grupo_1200757" data-name="Grupo 1200757">
                    <path id="Trazado_1042051" data-name="Trazado 1042051" d="M54.789,32.692c3.158.486,6.558-.486,6.315-3.4-.243-1.943-1.457-2.672-4.372-3.643-3.886-.972-6.072-2.915-6.315-5.586-.486-5.1,5.1-8.015,10.444-6.8.729.243,1.943.243,2.186,1.214a1.53,1.53,0,0,1-.729,1.943c-.729.243-1.457-.243-2.186-.243-2.915-.729-6.315.243-6.072,3.158.486,4.372,9.958,1.943,10.687,9.23.486,5.829-5.829,8.258-11.416,7.044-1.214-.243-2.429-.486-2.429-1.943a1.262,1.262,0,0,1,.486-.972C52.118,31.721,53.818,32.45,54.789,32.692Z" transform="translate(-50.388 -12.987)" fill="#fff"/>
                  </g>
                </g>
              </g>
              <g id="Grupo_1200761" data-name="Grupo 1200761" transform="translate(6.102)">
                <g id="Grupo_1200760" data-name="Grupo 1200760">
                  <path id="Trazado_1042052" data-name="Trazado 1042052" d="M52.9,15.4V12.972c0-.729,0-.972.729-.972.486,0,1.214,0,1.457.243s.243.243,0,3.4" transform="translate(-52.9 -12)" fill="#fff"/>
                </g>
              </g>
              <g id="Grupo_1200763" data-name="Grupo 1200763" transform="translate(5.13 23.56)">
                <g id="Grupo_1200762" data-name="Grupo 1200762">
                  <path id="Trazado_1042053" data-name="Trazado 1042053" d="M52.5,21.943v2.429c0,.729,0,.972.729.972.486.243,1.214.243,1.457-.243.243-.243.243-.243.243-3.4" transform="translate(-52.5 -21.7)" fill="#fff"/>
                </g>
              </g>
            </g>
          </g>
          <g id="Grupo_1200767" data-name="Grupo 1200767" transform="translate(0 0)">
            <g id="Grupo_1200766" data-name="Grupo 1200766">
              <path id="Trazado_1042054" data-name="Trazado 1042054" d="M43.572,29.631a1.332,1.332,0,0,1-.972-1.457A27.663,27.663,0,0,1,67.86,6.8a1.147,1.147,0,0,1,1.214,1.214A1.147,1.147,0,0,1,67.86,9.229,24.819,24.819,0,0,0,45.029,28.66,1.332,1.332,0,0,1,43.572,29.631Z" transform="translate(-42.6 -6.8)"/>
            </g>
          </g>
        </g>
      </g>
    </g>
  </g>
</svg>
