<svg xmlns="http://www.w3.org/2000/svg" xmlns:xlink="http://www.w3.org/1999/xlink" width="118" height="118" viewBox="0 0 118 118">
  <defs>
    <filter id="Trazado_982547" x="0" y="0" width="118" height="118" filterUnits="userSpaceOnUse">
      <feOffset dy="3" input="SourceAlpha"/>
      <feGaussianBlur stdDeviation="3" result="blur"/>
      <feFlood flood-opacity="0.161"/>
      <feComposite operator="in" in2="blur"/>
      <feComposite in="SourceGraphic"/>
    </filter>
  </defs>
  <g id="Grupo_1201123" data-name="Grupo 1201123" transform="translate(-584 -7818.194)">
    <g id="Grupo_1183658" data-name="Grupo 1183658" transform="translate(11 6436.866)">
      <g id="Grupo_1182317" data-name="Grupo 1182317" transform="translate(-11 -8277)">
        <g id="Grupo_1176357" data-name="Grupo 1176357" transform="translate(593 9664.328)">
          <g id="Grupo_1172970" data-name="Grupo 1172970" transform="translate(0)">
            <g id="Grupo_1171971" data-name="Grupo 1171971" transform="translate(0)">
              <g id="Grupo_1167337" data-name="Grupo 1167337">
                <g id="Grupo_1166720" data-name="Grupo 1166720">
                  <g id="Grupo_1164305" data-name="Grupo 1164305">
                    <g id="Grupo_1163948" data-name="Grupo 1163948">
                      <g id="Grupo_1158168" data-name="Grupo 1158168">
                        <g id="Grupo_1152576" data-name="Grupo 1152576">
                          <g id="Grupo_1148633" data-name="Grupo 1148633">
                            <g id="Grupo_1148525" data-name="Grupo 1148525">
                              <g transform="matrix(1, 0, 0, 1, -9, -6)" filter="url(#Trazado_982547)">
                                <g id="Trazado_982547-2" data-name="Trazado 982547" transform="translate(9 6)" fill="#f2f7f5">
                                  <path d="M 50 98.5 C 43.45188522338867 98.5 37.10042953491211 97.21787261962891 31.12207221984863 94.68923950195312 C 25.34691429138184 92.24655914306641 20.15995788574219 88.74932861328125 15.70532894134521 84.29468536376953 C 11.2506856918335 79.84004211425781 7.753442764282227 74.65309906005859 5.310757160186768 68.87794494628906 C 2.782128572463989 62.89958572387695 1.5 56.54813003540039 1.5 50 C 1.5 43.45188522338867 2.782128572463989 37.10042953491211 5.310757160186768 31.12207221984863 C 7.753442764282227 25.34691429138184 11.2506856918335 20.15997123718262 15.70532894134521 15.70532894134521 C 20.15997123718262 11.2506856918335 25.34691429138184 7.753442764282227 31.12207221984863 5.310757160186768 C 37.10042953491211 2.782128572463989 43.45188522338867 1.5 50 1.5 C 56.54813003540039 1.5 62.89958572387695 2.782128572463989 68.87794494628906 5.310757160186768 C 74.65309906005859 7.753442764282227 79.84004211425781 11.2506856918335 84.29468536376953 15.70532894134521 C 88.74932861328125 20.15995788574219 92.24655914306641 25.34691429138184 94.68923950195312 31.12207221984863 C 97.21787261962891 37.10042953491211 98.5 43.45188522338867 98.5 50 C 98.5 56.54813003540039 97.21787261962891 62.89958572387695 94.68923950195312 68.87794494628906 C 92.24655914306641 74.65309906005859 88.74932861328125 79.84004211425781 84.29468536376953 84.29468536376953 C 79.84004211425781 88.74932861328125 74.65309906005859 92.24655914306641 68.87794494628906 94.68923950195312 C 62.89958572387695 97.21787261962891 56.54813003540039 98.5 50 98.5 Z" stroke="none"/>
                                  <path d="M 50 3 C 43.65372467041016 3 37.49886322021484 4.242263793945312 31.70639801025391 6.6922607421875 C 26.11003112792969 9.059326171875 21.08335113525391 12.44861602783203 16.76598358154297 16.76598358154297 C 12.44861602783203 21.08335113525391 9.059326171875 26.11003112792969 6.6922607421875 31.70639801025391 C 4.242263793945312 37.49886322021484 3 43.65372467041016 3 50 C 3 56.34629058837891 4.242263793945312 62.50115203857422 6.6922607421875 68.29361724853516 C 9.059326171875 73.88998413085938 12.44861602783203 78.91666412353516 16.76598358154297 83.23403167724609 C 21.08335113525391 87.55138397216797 26.11003112792969 90.940673828125 31.70639801025391 93.3077392578125 C 37.49886322021484 95.75773620605469 43.65372467041016 97 50 97 C 56.34629058837891 97 62.50115203857422 95.75773620605469 68.29361724853516 93.3077392578125 C 73.88998413085938 90.940673828125 78.91666412353516 87.55138397216797 83.23403167724609 83.23403167724609 C 87.55138397216797 78.91666412353516 90.940673828125 73.88998413085938 93.3077392578125 68.29361724853516 C 95.75773620605469 62.50115203857422 97 56.34629058837891 97 50 C 97 43.65372467041016 95.75773620605469 37.49886322021484 93.3077392578125 31.70639801025391 C 90.940673828125 26.11003112792969 87.55138397216797 21.08335113525391 83.23403167724609 16.76598358154297 C 78.91666412353516 12.44861602783203 73.88998413085938 9.059326171875 68.29361724853516 6.6922607421875 C 62.50115203857422 4.242263793945312 56.34629058837891 3 50 3 M 50 0 C 77.6142578125 0 100 22.38577270507812 100 50 C 100 77.6142578125 77.6142578125 100 50 100 C 22.38577270507812 100 0 77.6142578125 0 50 C 0 22.38577270507812 22.38577270507812 0 50 0 Z" stroke="none" fill="#4a665c"/>
                                </g>
                              </g>
                            </g>
                          </g>
                        </g>
                      </g>
                    </g>
                  </g>
                </g>
              </g>
            </g>
          </g>
        </g>
      </g>
    </g>
    <g id="agente-de-servicio-al-cliente" transform="translate(612.958 7844.151)">
      <g id="Grupo_1201098" data-name="Grupo 1201098" transform="translate(0.88 0.88)">
        <g id="Grupo_1201096" data-name="Grupo 1201096">
          <path id="Trazado_1046821" data-name="Trazado 1046821" d="M10.064,7.5H30.542a2.564,2.564,0,0,1,2.564,2.564v16.92a2.564,2.564,0,0,1-2.564,2.564H25.519v3.8l-4.857-3.8h-10.6A2.564,2.564,0,0,1,7.5,26.984V10.064A2.564,2.564,0,0,1,10.064,7.5Z" transform="translate(-7.5 -7.5)" fill="#f4fbff"/>
        </g>
        <g id="Grupo_1201097" data-name="Grupo 1201097" transform="translate(21.46 2.255)">
          <path id="Trazado_1046822" data-name="Trazado 1046822" d="M192.024,37.1a4.732,4.732,0,0,0-1.66,3.6v3.793a4.711,4.711,0,0,0,.45,2.013h1.133a2.564,2.564,0,0,0,2.564-2.564V27.021a2.583,2.583,0,0,0-.02-.309,11.794,11.794,0,0,0-2.466,7.229Z" transform="translate(-190.364 -26.712)" fill="#dfeaef"/>
        </g>
      </g>
      <g id="Grupo_1201114" data-name="Grupo 1201114" transform="translate(18.899 0.88)">
        <g id="Grupo_1201099" data-name="Grupo 1201099" transform="translate(7 22.287)">
          <path id="Trazado_1046823" data-name="Trazado 1046823" d="M220.695,197.411H247V213.77H220.695Z" transform="translate(-220.695 -197.411)" fill="#934d36"/>
        </g>
        <g id="Grupo_1201100" data-name="Grupo 1201100" transform="translate(0 34.378)">
          <path id="Trazado_1046824" data-name="Trazado 1046824" d="M185.347,300.447l9.844,2.625a8.3,8.3,0,0,1,6.16,8.018v13.3H161.045v-13.3a8.3,8.3,0,0,1,6.16-8.018l9.844-2.625Z" transform="translate(-161.045 -300.447)" fill="#d3effb"/>
        </g>
        <g id="Grupo_1201102" data-name="Grupo 1201102" transform="translate(20.153 34.378)">
          <g id="Grupo_1201101" data-name="Grupo 1201101">
            <path id="Trazado_1046825" data-name="Trazado 1046825" d="M332.772,304.953l2.129,4.392a1.643,1.643,0,0,0,3.015-.135l2.923-7.717-3.918-1.045Z" transform="translate(-332.772 -300.448)" fill="#f4fbff"/>
          </g>
        </g>
        <g id="Grupo_1201104" data-name="Grupo 1201104" transform="translate(12.086 34.378)">
          <g id="Grupo_1201103" data-name="Grupo 1201103">
            <path id="Trazado_1046826" data-name="Trazado 1046826" d="M272.1,304.953l-2.13,4.392a1.643,1.643,0,0,1-3.015-.135l-2.923-7.717,3.918-1.045Z" transform="translate(-264.031 -300.448)" fill="#f4fbff"/>
          </g>
        </g>
        <g id="Grupo_1201105" data-name="Grupo 1201105" transform="translate(34.654 37.158)">
          <path id="Trazado_1046827" data-name="Trazado 1046827" d="M456.345,324.137a8.287,8.287,0,0,1,1.976,5.373V345.3H462V332A8.3,8.3,0,0,0,456.345,324.137Z" transform="translate(-456.345 -324.137)" fill="#b1e4f9"/>
        </g>
        <g id="Grupo_1201106" data-name="Grupo 1201106" transform="translate(16.004 29.281)">
          <path id="Trazado_1046828" data-name="Trazado 1046828" d="M297.417,262.463V257.01h8.3v5.453a4.149,4.149,0,1,1-8.3,0Z" transform="translate(-297.417 -257.01)" fill="#fcd0a3"/>
        </g>
        <g id="Grupo_1201107" data-name="Grupo 1201107" transform="translate(16.004 29.281)">
          <path id="Trazado_1046829" data-name="Trazado 1046829" d="M297.417,259.709a11.854,11.854,0,0,0,8.3,0v-2.7h-8.3v2.7Z" transform="translate(-297.417 -257.01)" fill="#ffb983"/>
        </g>
        <g id="Grupo_1201108" data-name="Grupo 1201108" transform="translate(10.669 11.025)">
          <path id="Trazado_1046830" data-name="Trazado 1046830" d="M251.959,101.445v9.85a9.484,9.484,0,1,0,18.967,0v-9.85Z" transform="translate(-251.959 -101.445)" fill="#fcd0a3"/>
        </g>
        <g id="Grupo_1201109" data-name="Grupo 1201109" transform="translate(25.935 11.025)">
          <path id="Trazado_1046831" data-name="Trazado 1046831" d="M385.748,111.3v-9.85H383.5v12.329a9.436,9.436,0,0,1-1.449,5.036A9.466,9.466,0,0,0,385.748,111.3Z" transform="translate(-382.047 -101.445)" fill="#ffb983"/>
        </g>
        <g id="Grupo_1201110" data-name="Grupo 1201110" transform="translate(7.587)">
          <path id="Trazado_1046832" data-name="Trazado 1046832" d="M225.7,19.355A11.855,11.855,0,0,1,237.55,7.5h3.438a3.556,3.556,0,0,1,3.556,3.556h1.541a4.742,4.742,0,0,1,4.742,4.742v9.839h-3.082l-3.2-6.164-1.693,1.693a4.742,4.742,0,0,1-3.353,1.389H235.9a9.484,9.484,0,0,0-6.094,2.217l-1.031.865H225.7V19.355Z" transform="translate(-225.695 -7.5)" fill="#aa593d"/>
        </g>
        <g id="Grupo_1201111" data-name="Grupo 1201111" transform="translate(29.142 3.701)">
          <path id="Trazado_1046833" data-name="Trazado 1046833" d="M409.375,39.038a4.721,4.721,0,0,1,.494,2.108v12.21l-.06,0,.06.116,3.082-.119V43.635A4.744,4.744,0,0,0,409.375,39.038Z" transform="translate(-409.375 -39.038)" fill="#934d36"/>
        </g>
        <g id="Grupo_1201112" data-name="Grupo 1201112" transform="translate(29.636 13.87)">
          <path id="Trazado_1046834" data-name="Trazado 1046834" d="M415.957,134.224h-2.371v-8.535h2.371a2.371,2.371,0,0,1,2.371,2.371v3.793A2.371,2.371,0,0,1,415.957,134.224Z" transform="translate(-413.586 -125.689)" fill="#e28086"/>
        </g>
        <g id="Grupo_1201113" data-name="Grupo 1201113" transform="translate(5.927 13.87)">
          <path id="Trazado_1046835" data-name="Trazado 1046835" d="M213.924,134.224h2.371v-8.535h-2.371a2.371,2.371,0,0,0-2.371,2.371v3.793A2.371,2.371,0,0,0,213.924,134.224Z" transform="translate(-211.553 -125.689)" fill="#e28086"/>
        </g>
      </g>
      <g id="Grupo_1201119" data-name="Grupo 1201119" transform="translate(0.88 36.681)">
        <g id="Grupo_1201115" data-name="Grupo 1201115">
          <path id="Trazado_1046836" data-name="Trazado 1046836" d="M34.765,330.351H7.5V314.94a2.371,2.371,0,0,1,2.371-2.371H32.395a2.371,2.371,0,0,1,2.371,2.371Z" transform="translate(-7.5 -312.569)" fill="#a0aab7"/>
        </g>
        <g id="Grupo_1201116" data-name="Grupo 1201116" transform="translate(11.262 6.52)">
          <circle id="Elipse_14210" data-name="Elipse 14210" cx="2.371" cy="2.371" r="2.371" fill="#f4fbff"/>
        </g>
        <g id="Grupo_1201117" data-name="Grupo 1201117" transform="translate(0 17.782)">
          <path id="Trazado_1046837" data-name="Trazado 1046837" d="M7.5,464.094H37.136v2.371a2.371,2.371,0,0,1-2.371,2.371H9.871A2.371,2.371,0,0,1,7.5,466.465Z" transform="translate(-7.5 -464.094)" fill="#808b95"/>
        </g>
        <g id="Grupo_1201118" data-name="Grupo 1201118" transform="translate(24.895 17.782)">
          <path id="Trazado_1046838" data-name="Trazado 1046838" d="M222,464.094v2.371a2.371,2.371,0,0,1-2.371,2.371H222a2.371,2.371,0,0,0,2.371-2.371v-2.371Z" transform="translate(-219.634 -464.094)" fill="#5e6b75"/>
        </g>
      </g>
      <g id="Grupo_1201121" data-name="Grupo 1201121" transform="translate(6.628 4.791)">
        <g id="Grupo_1201120" data-name="Grupo 1201120">
          <circle id="Elipse_14211" data-name="Elipse 14211" cx="7.113" cy="7.113" r="7.113" fill="#f6e266"/>
        </g>
      </g>
      <g id="Grupo_1201122" data-name="Grupo 1201122" transform="translate(0 0)">
        <path id="Trazado_1046839" data-name="Trazado 1046839" d="M59.2,48.772a.88.88,0,0,0,.88-.88V45.9a9.189,9.189,0,0,0-6.814-8.868l-.187-.05V23.326a3.243,3.243,0,0,0,1.073-2.411V17.121a3.253,3.253,0,0,0-1.66-2.833V9.178a5.628,5.628,0,0,0-5.622-5.622h-.749A4.444,4.444,0,0,0,41.778,0H38.34A12.741,12.741,0,0,0,27.366,6.282V3.444A3.448,3.448,0,0,0,23.922,0H8.948a.88.88,0,1,0,0,1.76H23.922a1.686,1.686,0,0,1,1.684,1.684V14.288a3.253,3.253,0,0,0-1.66,2.833v3.793a3.237,3.237,0,0,0,.2,1.117,1.723,1.723,0,0,1-.222.015H18.9a.88.88,0,0,0-.88.88v1.991l-3.436-2.685a.88.88,0,0,0-.542-.187H3.444A1.685,1.685,0,0,1,1.76,20.364V3.444A1.686,1.686,0,0,1,3.444,1.76H4.837a.88.88,0,0,0,0-1.76H3.444A3.448,3.448,0,0,0,0,3.444v16.92a3.448,3.448,0,0,0,3.444,3.443H13.738l4.619,3.609a.88.88,0,0,0,1.422-.694V23.807h4.143a3.442,3.442,0,0,0,1.1-.18V35.8H3.251A3.255,3.255,0,0,0,0,39.052v6.391a.88.88,0,0,0,1.76,0V39.052a1.492,1.492,0,0,1,1.491-1.491H25.775a1.492,1.492,0,0,1,1.491,1.491V53.583H1.76v-4.03a.88.88,0,1,0-1.76,0v7.281a3.255,3.255,0,0,0,3.251,3.251H59.2a.88.88,0,0,0,.88-.88V52a.88.88,0,0,0-1.76,0v6.32H52.261V54.463a.88.88,0,1,0-1.76,0v3.862H31.033a3.23,3.23,0,0,0,.363-1.491V54.463a.88.88,0,0,0-.88-.88H29.026V39.052a3.232,3.232,0,0,0-.25-1.249l1.668-.444,2.641,6.974a2.489,2.489,0,0,0,2.247,1.627c.04,0,.08,0,.119,0a2.486,2.486,0,0,0,2.264-1.422l1.337-2.759,1.337,2.759a2.486,2.486,0,0,0,2.264,1.423l.119,0a2.489,2.489,0,0,0,2.247-1.627l2.641-6.974,5.157,1.375A7.427,7.427,0,0,1,58.324,45.9v1.991a.88.88,0,0,0,.88.88ZM29.636,56.834a1.492,1.492,0,0,1-1.491,1.491H3.251A1.492,1.492,0,0,1,1.76,56.834V55.343H29.636Zm21.688-20.32-7.243-1.932V30.814A10.441,10.441,0,0,0,47.534,27.7a2.068,2.068,0,0,0,1.881-2.056V24.165h1.491a3.253,3.253,0,0,0,.418-.028ZM39.052,38.883a3.273,3.273,0,0,1-3.269-3.269V31.59a10.37,10.37,0,0,0,6.538,0v4.024A3.272,3.272,0,0,1,39.052,38.883Zm-5.029-4.3-6.5,1.732a3.24,3.24,0,0,0-.745-.354V24.138a3.275,3.275,0,0,0,.418.028h1.774a10.4,10.4,0,0,0,5.051,6.648ZM25.706,17.121A1.492,1.492,0,0,1,27.2,15.63h1.491v6.775H27.2a1.492,1.492,0,0,1-1.491-1.491Zm19.4-2.8,2.548,4.907v2.523a8.549,8.549,0,0,1-1.1,4.2H40.575a1.76,1.76,0,1,0,0,1.76h4.676a8.6,8.6,0,0,1-14.8-5.957V19.428l.717-.6a8.617,8.617,0,0,1,5.529-2.012h3.595a5.586,5.586,0,0,0,3.975-1.647Zm5.8,1.3A1.492,1.492,0,0,1,52.4,17.121v3.793a1.492,1.492,0,0,1-1.491,1.491H49.416V15.63Zm-.169-6.452V13.87h-2.2a.88.88,0,0,0-.88.88v.662l-1.44-2.774V5.317h.661a3.866,3.866,0,0,1,3.862,3.862ZM38.34,1.76h3.438a2.679,2.679,0,0,1,2.676,2.676v8.052l-1.435,1.435a3.837,3.837,0,0,1-2.731,1.131H36.694a10.381,10.381,0,0,0-6.245,2.095v-2.4a.88.88,0,0,0-.88-.88h-2.2V12.735A10.987,10.987,0,0,1,38.34,1.76ZM36.13,43.771a.763.763,0,0,1-1.4-.063L32.153,36.9l1.929-.514a5.043,5.043,0,0,0,3.65,4.078Zm7.243-.063a.763.763,0,0,1-1.4.063l-1.6-3.3a5.043,5.043,0,0,0,3.65-4.078l1.929.514Z" transform="translate(0 0)"/>
        <path id="Trazado_1046840" data-name="Trazado 1046840" d="M102.468,363.879a3.251,3.251,0,1,0-3.251,3.251A3.255,3.255,0,0,0,102.468,363.879Zm-4.742,0a1.491,1.491,0,1,1,1.491,1.491A1.492,1.492,0,0,1,97.726,363.879Z" transform="translate(-84.704 -318.307)"/>
        <path id="Trazado_1046841" data-name="Trazado 1046841" d="M92.517,115.713a.88.88,0,0,0-1.246-1.244,3.144,3.144,0,0,1-4.452,0,.88.88,0,0,0-1.246,1.244,4.9,4.9,0,0,0,6.943,0Z" transform="translate(-75.304 -100.808)"/>
        <path id="Trazado_1046842" data-name="Trazado 1046842" d="M64.967,41.321a7.993,7.993,0,1,0-7.993,7.993A8,8,0,0,0,64.967,41.321Zm-14.226,0a6.233,6.233,0,1,1,6.233,6.233A6.24,6.24,0,0,1,50.741,41.321Z" transform="translate(-43.233 -29.417)"/>
        <circle id="Elipse_14212" data-name="Elipse 14212" cx="1.185" cy="1.185" r="1.185" transform="translate(9.828 8.94)"/>
        <circle id="Elipse_14213" data-name="Elipse 14213" cx="1.185" cy="1.185" r="1.185" transform="translate(15.283 8.94)"/>
      </g>
    </g>
  </g>
</svg>
