<svg xmlns="http://www.w3.org/2000/svg" xmlns:xlink="http://www.w3.org/1999/xlink" width="118" height="118" viewBox="0 0 118 118">
  <defs>
    <filter id="Trazado_982547" x="0" y="0" width="118" height="118" filterUnits="userSpaceOnUse">
      <feOffset dy="3" input="SourceAlpha"/>
      <feGaussianBlur stdDeviation="3" result="blur"/>
      <feFlood flood-opacity="0.161"/>
      <feComposite operator="in" in2="blur"/>
      <feComposite in="SourceGraphic"/>
    </filter>
  </defs>
  <g id="Grupo_1201136" data-name="Grupo 1201136" transform="translate(-899 -7817.866)">
    <g id="Grupo_1183659" data-name="Grupo 1183659" transform="translate(11 6436.866)">
      <g id="Grupo_1182318" data-name="Grupo 1182318" transform="translate(-11 -8277.328)">
        <g id="Grupo_1176358" data-name="Grupo 1176358" transform="translate(908 9664.328)">
          <g id="Grupo_1172970" data-name="Grupo 1172970" transform="translate(0)">
            <g id="Grupo_1171971" data-name="Grupo 1171971" transform="translate(0)">
              <g id="Grupo_1167337" data-name="Grupo 1167337">
                <g id="Grupo_1166720" data-name="Grupo 1166720">
                  <g id="Grupo_1164305" data-name="Grupo 1164305">
                    <g id="Grupo_1163948" data-name="Grupo 1163948">
                      <g id="Grupo_1158168" data-name="Grupo 1158168">
                        <g id="Grupo_1152576" data-name="Grupo 1152576">
                          <g id="Grupo_1148633" data-name="Grupo 1148633">
                            <g id="Grupo_1148525" data-name="Grupo 1148525">
                              <g transform="matrix(1, 0, 0, 1, -9, -6)" filter="url(#Trazado_982547)">
                                <g id="Trazado_982547-2" data-name="Trazado 982547" transform="translate(9 6)" fill="#f2f7f5">
                                  <path d="M 50 98.5 C 43.45188522338867 98.5 37.10042953491211 97.21787261962891 31.12207221984863 94.68923950195312 C 25.34691429138184 92.24655914306641 20.15995788574219 88.74932861328125 15.70532894134521 84.29468536376953 C 11.2506856918335 79.84004211425781 7.753442764282227 74.65309906005859 5.310757160186768 68.87794494628906 C 2.782128572463989 62.89958572387695 1.5 56.54813003540039 1.5 50 C 1.5 43.45188522338867 2.782128572463989 37.10042953491211 5.310757160186768 31.12207221984863 C 7.753442764282227 25.34691429138184 11.2506856918335 20.15997123718262 15.70532894134521 15.70532894134521 C 20.15997123718262 11.2506856918335 25.34691429138184 7.753442764282227 31.12207221984863 5.310757160186768 C 37.10042953491211 2.782128572463989 43.45188522338867 1.5 50 1.5 C 56.54813003540039 1.5 62.89958572387695 2.782128572463989 68.87794494628906 5.310757160186768 C 74.65309906005859 7.753442764282227 79.84004211425781 11.2506856918335 84.29468536376953 15.70532894134521 C 88.74932861328125 20.15995788574219 92.24655914306641 25.34691429138184 94.68923950195312 31.12207221984863 C 97.21787261962891 37.10042953491211 98.5 43.45188522338867 98.5 50 C 98.5 56.54813003540039 97.21787261962891 62.89958572387695 94.68923950195312 68.87794494628906 C 92.24655914306641 74.65309906005859 88.74932861328125 79.84004211425781 84.29468536376953 84.29468536376953 C 79.84004211425781 88.74932861328125 74.65309906005859 92.24655914306641 68.87794494628906 94.68923950195312 C 62.89958572387695 97.21787261962891 56.54813003540039 98.5 50 98.5 Z" stroke="none"/>
                                  <path d="M 50 3 C 43.65372467041016 3 37.49886322021484 4.242263793945312 31.70639801025391 6.6922607421875 C 26.11003112792969 9.059326171875 21.08335113525391 12.44861602783203 16.76598358154297 16.76598358154297 C 12.44861602783203 21.08335113525391 9.059326171875 26.11003112792969 6.6922607421875 31.70639801025391 C 4.242263793945312 37.49886322021484 3 43.65372467041016 3 50 C 3 56.34629058837891 4.242263793945312 62.50115203857422 6.6922607421875 68.29361724853516 C 9.059326171875 73.88998413085938 12.44861602783203 78.91666412353516 16.76598358154297 83.23403167724609 C 21.08335113525391 87.55138397216797 26.11003112792969 90.940673828125 31.70639801025391 93.3077392578125 C 37.49886322021484 95.75773620605469 43.65372467041016 97 50 97 C 56.34629058837891 97 62.50115203857422 95.75773620605469 68.29361724853516 93.3077392578125 C 73.88998413085938 90.940673828125 78.91666412353516 87.55138397216797 83.23403167724609 83.23403167724609 C 87.55138397216797 78.91666412353516 90.940673828125 73.88998413085938 93.3077392578125 68.29361724853516 C 95.75773620605469 62.50115203857422 97 56.34629058837891 97 50 C 97 43.65372467041016 95.75773620605469 37.49886322021484 93.3077392578125 31.70639801025391 C 90.940673828125 26.11003112792969 87.55138397216797 21.08335113525391 83.23403167724609 16.76598358154297 C 78.91666412353516 12.44861602783203 73.88998413085938 9.059326171875 68.29361724853516 6.6922607421875 C 62.50115203857422 4.242263793945312 56.34629058837891 3 50 3 M 50 0 C 77.6142578125 0 100 22.38577270507812 100 50 C 100 77.6142578125 77.6142578125 100 50 100 C 22.38577270507812 100 0 77.6142578125 0 50 C 0 22.38577270507812 22.38577270507812 0 50 0 Z" stroke="none" fill="#4a665c"/>
                                </g>
                              </g>
                            </g>
                          </g>
                        </g>
                      </g>
                    </g>
                  </g>
                </g>
              </g>
            </g>
          </g>
        </g>
      </g>
    </g>
    <g id="consumo" transform="translate(922.826 7839.192)">
      <g id="Grupo_1201134" data-name="Grupo 1201134" transform="translate(2.086 2.086)">
        <g id="Grupo_1201124" data-name="Grupo 1201124" transform="translate(21.725 36.933)">
          <path id="Trazado_1046843" data-name="Trazado 1046843" d="M56.76,38.173V49.035a2.179,2.179,0,0,1-2.173,2.173H22V36Z" transform="translate(-22 -36)" fill="#ff826e"/>
        </g>
        <g id="Grupo_1201125" data-name="Grupo 1201125" transform="translate(21.725 32.588)">
          <path id="Trazado_1046844" data-name="Trazado 1046844" d="M56.76,34.173v4.345L22,36.345V32l4.345.272,6.518.413,4.345.261,6.518.413,4.345.272,6.518.413Z" transform="translate(-22 -32)" fill="#fc6e51"/>
        </g>
        <g id="Grupo_1201126" data-name="Grupo 1201126" transform="translate(47.795 21.725)">
          <path id="Trazado_1046845" data-name="Trazado 1046845" d="M52.518,22V34.9L46,34.492V22Z" transform="translate(-46 -22)" fill="#b4dd7f"/>
        </g>
        <g id="Grupo_1201127" data-name="Grupo 1201127" transform="translate(36.933 13.035)">
          <path id="Trazado_1046846" data-name="Trazado 1046846" d="M42.518,14V34.91L36,34.5V14Z" transform="translate(-36 -14)" fill="#b4dd7f"/>
        </g>
        <g id="Grupo_1201128" data-name="Grupo 1201128" transform="translate(26.07 17.38)">
          <path id="Trazado_1046847" data-name="Trazado 1046847" d="M32.518,18V33.892L26,33.479V18Z" transform="translate(-26 -18)" fill="#b4dd7f"/>
        </g>
        <g id="Grupo_1201129" data-name="Grupo 1201129" transform="translate(10.863 19.553)">
          <path id="Trazado_1046848" data-name="Trazado 1046848" d="M22.863,22.173v2.173h-8.69A2.188,2.188,0,0,1,12,22.173,2.179,2.179,0,0,1,14.173,20H20.69A2.179,2.179,0,0,1,22.863,22.173Z" transform="translate(-12 -20)" fill="#ccd1d9"/>
        </g>
        <g id="Grupo_1201130" data-name="Grupo 1201130" transform="translate(48.881 56.485)">
          <ellipse id="Elipse_14214" data-name="Elipse 14214" cx="4.5" cy="4" rx="4.5" ry="4" transform="translate(0.032 0.429)" fill="#969faa"/>
        </g>
        <g id="Grupo_1201131" data-name="Grupo 1201131" transform="translate(21.725 56.485)">
          <ellipse id="Elipse_14215" data-name="Elipse 14215" cx="4.5" cy="4" rx="4.5" ry="4" transform="translate(0.189 0.429)" fill="#969faa"/>
        </g>
        <g id="Grupo_1201132" data-name="Grupo 1201132" transform="translate(0 32.588)">
          <ellipse id="Elipse_14216" data-name="Elipse 14216" cx="11" cy="10.5" rx="11" ry="10.5" transform="translate(-0.086 0.326)" fill="#fcd770"/>
        </g>
        <g id="Grupo_1201133" data-name="Grupo 1201133" transform="translate(20.226 0)">
          <path id="Trazado_1046849" data-name="Trazado 1046849" d="M65.569,23.725v6.518h-6.8a19,19,0,0,0,.119-5.779A18.469,18.469,0,0,0,27.507,13.949H22.119l-1.5-2.325,4.606-4.606,2.411,1.195a22.572,22.572,0,0,1,8.82-3.65L37.327,2h6.518l.869,2.564a22.572,22.572,0,0,1,8.82,3.65l2.411-1.195,4.606,4.606-1.195,2.411a22.572,22.572,0,0,1,3.65,8.82Z" transform="translate(-20.62 -2)" fill="#fcd770"/>
        </g>
      </g>
      <g id="Grupo_1201135" data-name="Grupo 1201135" transform="translate(1 1)">
        <path id="Trazado_1046850" data-name="Trazado 1046850" d="M11.259,39.345h2.173a1.087,1.087,0,0,1,1.086,1.086H16.69a3.263,3.263,0,0,0-3.259-3.259V35H11.259v2.173a3.259,3.259,0,0,0,0,6.518h2.173a1.086,1.086,0,0,1,0,2.173H11.259a1.087,1.087,0,0,1-1.086-1.086H8a3.263,3.263,0,0,0,3.259,3.259v2.173h2.173V48.035a3.259,3.259,0,1,0,0-6.518H11.259a1.086,1.086,0,1,1,0-2.173Z" transform="translate(-0.396 1.933)"/>
        <circle id="Elipse_14217" data-name="Elipse 14217" cx="1" cy="1" r="1" transform="translate(26 61)"/>
        <path id="Trazado_1046851" data-name="Trazado 1046851" d="M56.4,56.56v-.11H25.984A1.087,1.087,0,0,1,24.9,55.364V54.278H56.4a3.263,3.263,0,0,0,3.259-3.259V34.791l-2.173-.136V21.69H48.8V34.112l-2.173-.136V13h-8.69V33.433L35.76,33.3V17.345H27.07v15.41L24.9,32.619V22.776a3.263,3.263,0,0,0-3.259-3.259H15.121a3.259,3.259,0,1,0,0,6.518h7.6V37.652a11.949,11.949,0,1,0,0,13.7v4.014a3.25,3.25,0,0,0,1.532,2.753,5.442,5.442,0,1,0,8.216.506H50.995a5.381,5.381,0,0,0-1.113,3.259A5.431,5.431,0,1,0,56.4,56.56ZM57.485,44.5H49.149l1.08-3.778,7.256.453Zm-10.6,0h-11.4l-1.367-4.785,13.882.868Zm-.621,2.173-1.552,5.431H37.664l-1.552-5.431ZM35.406,52.105H24.9V46.674h8.957Zm20.993,0H46.977l1.552-5.431h8.956v4.345A1.087,1.087,0,0,1,56.4,52.105ZM50.968,23.863h4.345V34.52l-4.345-.272Zm-10.863-8.69H44.45V33.841l-4.345-.272ZM29.243,19.518h4.345V33.162l-4.345-.272ZM57.485,36.831V39L24.9,36.963V34.795ZM15.121,23.863a1.086,1.086,0,1,1,0-2.173h6.518a1.088,1.088,0,0,1,1.086,1.086v1.086ZM24.9,39.14l6.928.433L33.234,44.5H24.9ZM12.949,54.278A9.776,9.776,0,1,1,22.725,44.5,9.787,9.787,0,0,1,12.949,54.278Zm18.466,7.6a3.259,3.259,0,1,1-3.259-3.259A3.263,3.263,0,0,1,31.415,61.881Zm23.9,3.259a3.259,3.259,0,1,1,3.259-3.259A3.263,3.263,0,0,1,55.313,65.14Z" transform="translate(-1 0.035)"/>
        <circle id="Elipse_14218" data-name="Elipse 14218" cx="1" cy="1" r="1" transform="translate(53 61)"/>
        <path id="Trazado_1046852" data-name="Trazado 1046852" d="M64.06,22.119a23.6,23.6,0,0,0-3.339-8.076l1.264-2.552L56.274,5.78,53.722,7.044A23.6,23.6,0,0,0,45.646,3.7L44.735,1H36.656l-.912,2.706a23.615,23.615,0,0,0-8.076,3.339L25.118,5.78l-5.781,5.781,2.3,3.561h6.428l.318-.319A17.381,17.381,0,0,1,57.918,24.69a17.806,17.806,0,0,1-.112,5.449l-.227,1.276h9.186V23.031Zm.533,7.124H60.129a20.037,20.037,0,0,0-.058-4.837,19.553,19.553,0,0,0-32.9-11.457H22.821l-.707-1.093L25.55,8.419l2.292,1.135.526-.364a21.478,21.478,0,0,1,8.4-3.473L37.4,5.6l.82-2.43h4.957l.82,2.43.629.115a21.478,21.478,0,0,1,8.4,3.473l.526.364L55.84,8.419l3.505,3.505-1.135,2.292.364.526a21.487,21.487,0,0,1,3.473,8.4l.115.629,2.431.82Z" transform="translate(0.582 -1)"/>
      </g>
    </g>
  </g>
</svg>
