<svg xmlns="http://www.w3.org/2000/svg" xmlns:xlink="http://www.w3.org/1999/xlink" width="118" height="118" viewBox="0 0 118 118">
  <defs>
    <filter id="Trazado_982547" x="0" y="0" width="118" height="118" filterUnits="userSpaceOnUse">
      <feOffset dy="3" input="SourceAlpha"/>
      <feGaussianBlur stdDeviation="3" result="blur"/>
      <feFlood flood-opacity="0.161"/>
      <feComposite operator="in" in2="blur"/>
      <feComposite in="SourceGraphic"/>
    </filter>
  </defs>
  <g id="Grupo_1201306" data-name="Grupo 1201306" transform="translate(-584 -1496.809)">
    <g id="Grupo_1201302" data-name="Grupo 1201302" transform="translate(0 -6321.385)">
      <g id="Grupo_1183658" data-name="Grupo 1183658" transform="translate(11 6436.866)">
        <g id="Grupo_1182317" data-name="Grupo 1182317" transform="translate(-11 -8277)">
          <g id="Grupo_1176357" data-name="Grupo 1176357" transform="translate(593 9664.328)">
            <g id="Grupo_1172970" data-name="Grupo 1172970" transform="translate(0)">
              <g id="Grupo_1171971" data-name="Grupo 1171971" transform="translate(0)">
                <g id="Grupo_1167337" data-name="Grupo 1167337">
                  <g id="Grupo_1166720" data-name="Grupo 1166720">
                    <g id="Grupo_1164305" data-name="Grupo 1164305">
                      <g id="Grupo_1163948" data-name="Grupo 1163948">
                        <g id="Grupo_1158168" data-name="Grupo 1158168">
                          <g id="Grupo_1152576" data-name="Grupo 1152576">
                            <g id="Grupo_1148633" data-name="Grupo 1148633">
                              <g id="Grupo_1148525" data-name="Grupo 1148525">
                                <g transform="matrix(1, 0, 0, 1, -9, -6)" filter="url(#Trazado_982547)">
                                  <g id="Trazado_982547-2" data-name="Trazado 982547" transform="translate(9 6)" fill="#f2f7f5">
                                    <path d="M 50 98.5 C 43.45188522338867 98.5 37.10042953491211 97.21787261962891 31.12207221984863 94.68923950195312 C 25.34691429138184 92.24655914306641 20.15995788574219 88.74932861328125 15.70532894134521 84.29468536376953 C 11.2506856918335 79.84004211425781 7.753442764282227 74.65309906005859 5.310757160186768 68.87794494628906 C 2.782128572463989 62.89958572387695 1.5 56.54813003540039 1.5 50 C 1.5 43.45188522338867 2.782128572463989 37.10042953491211 5.310757160186768 31.12207221984863 C 7.753442764282227 25.34691429138184 11.2506856918335 20.15997123718262 15.70532894134521 15.70532894134521 C 20.15997123718262 11.2506856918335 25.34691429138184 7.753442764282227 31.12207221984863 5.310757160186768 C 37.10042953491211 2.782128572463989 43.45188522338867 1.5 50 1.5 C 56.54813003540039 1.5 62.89958572387695 2.782128572463989 68.87794494628906 5.310757160186768 C 74.65309906005859 7.753442764282227 79.84004211425781 11.2506856918335 84.29468536376953 15.70532894134521 C 88.74932861328125 20.15995788574219 92.24655914306641 25.34691429138184 94.68923950195312 31.12207221984863 C 97.21787261962891 37.10042953491211 98.5 43.45188522338867 98.5 50 C 98.5 56.54813003540039 97.21787261962891 62.89958572387695 94.68923950195312 68.87794494628906 C 92.24655914306641 74.65309906005859 88.74932861328125 79.84004211425781 84.29468536376953 84.29468536376953 C 79.84004211425781 88.74932861328125 74.65309906005859 92.24655914306641 68.87794494628906 94.68923950195312 C 62.89958572387695 97.21787261962891 56.54813003540039 98.5 50 98.5 Z" stroke="none"/>
                                    <path d="M 50 3 C 43.65372467041016 3 37.49886322021484 4.242263793945312 31.70639801025391 6.6922607421875 C 26.11003112792969 9.059326171875 21.08335113525391 12.44861602783203 16.76598358154297 16.76598358154297 C 12.44861602783203 21.08335113525391 9.059326171875 26.11003112792969 6.6922607421875 31.70639801025391 C 4.242263793945312 37.49886322021484 3 43.65372467041016 3 50 C 3 56.34629058837891 4.242263793945312 62.50115203857422 6.6922607421875 68.29361724853516 C 9.059326171875 73.88998413085938 12.44861602783203 78.91666412353516 16.76598358154297 83.23403167724609 C 21.08335113525391 87.55138397216797 26.11003112792969 90.940673828125 31.70639801025391 93.3077392578125 C 37.49886322021484 95.75773620605469 43.65372467041016 97 50 97 C 56.34629058837891 97 62.50115203857422 95.75773620605469 68.29361724853516 93.3077392578125 C 73.88998413085938 90.940673828125 78.91666412353516 87.55138397216797 83.23403167724609 83.23403167724609 C 87.55138397216797 78.91666412353516 90.940673828125 73.88998413085938 93.3077392578125 68.29361724853516 C 95.75773620605469 62.50115203857422 97 56.34629058837891 97 50 C 97 43.65372467041016 95.75773620605469 37.49886322021484 93.3077392578125 31.70639801025391 C 90.940673828125 26.11003112792969 87.55138397216797 21.08335113525391 83.23403167724609 16.76598358154297 C 78.91666412353516 12.44861602783203 73.88998413085938 9.059326171875 68.29361724853516 6.6922607421875 C 62.50115203857422 4.242263793945312 56.34629058837891 3 50 3 M 50 0 C 77.6142578125 0 100 22.38577270507812 100 50 C 100 77.6142578125 77.6142578125 100 50 100 C 22.38577270507812 100 0 77.6142578125 0 50 C 0 22.38577270507812 22.38577270507812 0 50 0 Z" stroke="none" fill="#4a665c"/>
                                  </g>
                                </g>
                              </g>
                            </g>
                          </g>
                        </g>
                      </g>
                    </g>
                  </g>
                </g>
              </g>
            </g>
          </g>
        </g>
      </g>
    </g>
    <path id="consumidor_1_" data-name="consumidor (1)" d="M116.325,73.138h-9.041a4.869,4.869,0,1,1-8.974,0H98.2a5.559,5.559,0,0,1-1.811-10.815l-5.67-23.487a.211.211,0,0,0-.22-.169H87.1a1.488,1.488,0,1,1,0-2.976h3.4a3.175,3.175,0,0,1,3.1,2.447l1.618,6.7h34.272a1.49,1.49,0,0,1,1.383,2.037l-4.365,14.153a5.573,5.573,0,0,1-5.366,3.965H98.2a2.584,2.584,0,1,0,0,5.168h22.616a4.865,4.865,0,1,1-4.487,2.975ZM111.547,16a6.554,6.554,0,1,1-6.554,6.554A6.554,6.554,0,0,1,111.547,16ZM99.9,42.006h23.284a1.062,1.062,0,0,0,1.042-1.284,12.965,12.965,0,0,0-25.369,0A1.062,1.062,0,0,0,99.9,42.006ZM102.8,73.049a1.983,1.983,0,1,0,1.983,1.983,1.983,1.983,0,0,0-1.983-1.983Zm18.015,0a1.983,1.983,0,1,0,1.983,1.983,1.983,1.983,0,0,0-1.983-1.983Zm-24-21.61h6.847V47.816H95.935l.875,3.624Zm8.977,0h4.7V47.816h-4.7Zm6.825,0h4.7V47.816h-4.7Zm6.825,0h6.921l1.118-3.624h-8.039Zm6.265,2.13h-6.265v2.6H124.9Zm-8.395,0h-4.7v2.6h4.7Zm-6.825,0h-4.7v2.6h4.7Zm-6.825,0H97.323l.629,2.6h5.7v-2.6ZM124.241,58.3h-4.8v3.715h1.7a2.585,2.585,0,0,0,2.529-1.862Zm-6.934,0h-4.7v3.715h4.7Zm-6.825,0h-4.7v3.715h4.7Zm-6.825,0h-5.19l.9,3.715h4.293Z" transform="translate(534.708 1504.86)" fill="#4a665c" fill-rule="evenodd"/>
  </g>
</svg>
