<svg xmlns="http://www.w3.org/2000/svg" xmlns:xlink="http://www.w3.org/1999/xlink" width="118" height="118" viewBox="0 0 118 118">
  <defs>
    <filter id="Trazado_982547" x="0" y="0" width="118" height="118" filterUnits="userSpaceOnUse">
      <feOffset dy="3" input="SourceAlpha"/>
      <feGaussianBlur stdDeviation="3" result="blur"/>
      <feFlood flood-opacity="0.161"/>
      <feComposite operator="in" in2="blur"/>
      <feComposite in="SourceGraphic"/>
    </filter>
  </defs>
  <g id="Grupo_1201307" data-name="Grupo 1201307" transform="translate(-899 -1496.48)">
    <g id="Grupo_1201303" data-name="Grupo 1201303" transform="translate(0 -6321.385)">
      <g id="Grupo_1183659" data-name="Grupo 1183659" transform="translate(11 6436.866)">
        <g id="Grupo_1182318" data-name="Grupo 1182318" transform="translate(-11 -8277.328)">
          <g id="Grupo_1176358" data-name="Grupo 1176358" transform="translate(908 9664.328)">
            <g id="Grupo_1172970" data-name="Grupo 1172970" transform="translate(0)">
              <g id="Grupo_1171971" data-name="Grupo 1171971" transform="translate(0)">
                <g id="Grupo_1167337" data-name="Grupo 1167337">
                  <g id="Grupo_1166720" data-name="Grupo 1166720">
                    <g id="Grupo_1164305" data-name="Grupo 1164305">
                      <g id="Grupo_1163948" data-name="Grupo 1163948">
                        <g id="Grupo_1158168" data-name="Grupo 1158168">
                          <g id="Grupo_1152576" data-name="Grupo 1152576">
                            <g id="Grupo_1148633" data-name="Grupo 1148633">
                              <g id="Grupo_1148525" data-name="Grupo 1148525">
                                <g transform="matrix(1, 0, 0, 1, -9, -6)" filter="url(#Trazado_982547)">
                                  <g id="Trazado_982547-2" data-name="Trazado 982547" transform="translate(9 6)" fill="#f2f7f5">
                                    <path d="M 50 98.5 C 43.45188522338867 98.5 37.10042953491211 97.21787261962891 31.12207221984863 94.68923950195312 C 25.34691429138184 92.24655914306641 20.15995788574219 88.74932861328125 15.70532894134521 84.29468536376953 C 11.2506856918335 79.84004211425781 7.753442764282227 74.65309906005859 5.310757160186768 68.87794494628906 C 2.782128572463989 62.89958572387695 1.5 56.54813003540039 1.5 50 C 1.5 43.45188522338867 2.782128572463989 37.10042953491211 5.310757160186768 31.12207221984863 C 7.753442764282227 25.34691429138184 11.2506856918335 20.15997123718262 15.70532894134521 15.70532894134521 C 20.15997123718262 11.2506856918335 25.34691429138184 7.753442764282227 31.12207221984863 5.310757160186768 C 37.10042953491211 2.782128572463989 43.45188522338867 1.5 50 1.5 C 56.54813003540039 1.5 62.89958572387695 2.782128572463989 68.87794494628906 5.310757160186768 C 74.65309906005859 7.753442764282227 79.84004211425781 11.2506856918335 84.29468536376953 15.70532894134521 C 88.74932861328125 20.15995788574219 92.24655914306641 25.34691429138184 94.68923950195312 31.12207221984863 C 97.21787261962891 37.10042953491211 98.5 43.45188522338867 98.5 50 C 98.5 56.54813003540039 97.21787261962891 62.89958572387695 94.68923950195312 68.87794494628906 C 92.24655914306641 74.65309906005859 88.74932861328125 79.84004211425781 84.29468536376953 84.29468536376953 C 79.84004211425781 88.74932861328125 74.65309906005859 92.24655914306641 68.87794494628906 94.68923950195312 C 62.89958572387695 97.21787261962891 56.54813003540039 98.5 50 98.5 Z" stroke="none"/>
                                    <path d="M 50 3 C 43.65372467041016 3 37.49886322021484 4.242263793945312 31.70639801025391 6.6922607421875 C 26.11003112792969 9.059326171875 21.08335113525391 12.44861602783203 16.76598358154297 16.76598358154297 C 12.44861602783203 21.08335113525391 9.059326171875 26.11003112792969 6.6922607421875 31.70639801025391 C 4.242263793945312 37.49886322021484 3 43.65372467041016 3 50 C 3 56.34629058837891 4.242263793945312 62.50115203857422 6.6922607421875 68.29361724853516 C 9.059326171875 73.88998413085938 12.44861602783203 78.91666412353516 16.76598358154297 83.23403167724609 C 21.08335113525391 87.55138397216797 26.11003112792969 90.940673828125 31.70639801025391 93.3077392578125 C 37.49886322021484 95.75773620605469 43.65372467041016 97 50 97 C 56.34629058837891 97 62.50115203857422 95.75773620605469 68.29361724853516 93.3077392578125 C 73.88998413085938 90.940673828125 78.91666412353516 87.55138397216797 83.23403167724609 83.23403167724609 C 87.55138397216797 78.91666412353516 90.940673828125 73.88998413085938 93.3077392578125 68.29361724853516 C 95.75773620605469 62.50115203857422 97 56.34629058837891 97 50 C 97 43.65372467041016 95.75773620605469 37.49886322021484 93.3077392578125 31.70639801025391 C 90.940673828125 26.11003112792969 87.55138397216797 21.08335113525391 83.23403167724609 16.76598358154297 C 78.91666412353516 12.44861602783203 73.88998413085938 9.059326171875 68.29361724853516 6.6922607421875 C 62.50115203857422 4.242263793945312 56.34629058837891 3 50 3 M 50 0 C 77.6142578125 0 100 22.38577270507812 100 50 C 100 77.6142578125 77.6142578125 100 50 100 C 22.38577270507812 100 0 77.6142578125 0 50 C 0 22.38577270507812 22.38577270507812 0 50 0 Z" stroke="none" fill="#4a665c"/>
                                  </g>
                                </g>
                              </g>
                            </g>
                          </g>
                        </g>
                      </g>
                    </g>
                  </g>
                </g>
              </g>
            </g>
          </g>
        </g>
      </g>
    </g>
    <path id="la-politica-monetaria_1_" data-name="la-politica-monetaria (1)" d="M66.656,98.671A10.949,10.949,0,1,1,55.707,109.62,10.949,10.949,0,0,1,66.656,98.671ZM70.912,121.5a12.67,12.67,0,0,1-8.513,0,.143.143,0,0,0-.191.124l-.411,5.633a.143.143,0,0,1-.143.133H50.743a1.074,1.074,0,0,0,0,2.147H82.569a1.074,1.074,0,0,0,0-2.147H71.657a.143.143,0,0,1-.143-.133l-.411-5.633A.143.143,0,0,0,70.912,121.5Zm-1.6-24.4L68.27,82.831a.142.142,0,0,1,.1-.147,5.568,5.568,0,0,0,2.6-1.787.143.143,0,0,1,.189-.029c6.111,3.993,14.48,4.8,21.473,2.555a.143.143,0,0,1,.176.19L87.785,95.866a1.068,1.068,0,0,0-.12.495,7.211,7.211,0,1,0,14.421,0,1.067,1.067,0,0,0-.12-.495L95.865,81a1.07,1.07,0,0,0-1.438-.565h0c-6.885,3.185-16.046,2.735-22.322-1.509a.141.141,0,0,1-.058-.154,5.563,5.563,0,1,0-10.781,0,.141.141,0,0,1-.058.154c-6.276,4.245-15.437,4.694-22.322,1.509h0A1.071,1.071,0,0,0,37.447,81l-6.1,14.869a1.068,1.068,0,0,0-.12.495,7.211,7.211,0,0,0,14.421,0,1.067,1.067,0,0,0-.12-.495L40.5,83.614a.143.143,0,0,1,.176-.19c6.993,2.245,15.362,1.438,21.473-2.555a.143.143,0,0,1,.189.029,5.569,5.569,0,0,0,2.6,1.787.142.142,0,0,1,.1.147L64,97.1a.143.143,0,0,0,.171.151,12.739,12.739,0,0,1,4.97,0A.143.143,0,0,0,69.312,97.1ZM69.07,74.977a3.415,3.415,0,1,1-5.829,2.415A3.415,3.415,0,0,1,69.07,74.977ZM34.11,95.287a.143.143,0,0,1-.132-.2L38.3,84.546a.143.143,0,0,1,.265,0l4.326,10.544a.143.143,0,0,1-.132.2Zm65.224-.2a.143.143,0,0,1-.132.2H90.549a.143.143,0,0,1-.132-.2l4.326-10.544a.143.143,0,0,1,.265,0ZM77.356,98.179s0,0,0,.006l.047,4.449a1.069,1.069,0,1,0,2.139-.017l-.01-.922a.143.143,0,0,1,.265-.076,15.387,15.387,0,0,1-2.14,18.755,1.071,1.071,0,1,0,1.535,1.493,17.512,17.512,0,0,0,2.35-21.5.143.143,0,0,1,.16-.214l.773.217a1.071,1.071,0,1,0,.579-2.063l-4.339-1.215h0A1.073,1.073,0,0,0,77.356,98.179ZM53.77,116.623l.01.922a.143.143,0,0,1-.265.076,15.387,15.387,0,0,1,2.14-18.755,1.071,1.071,0,0,0-1.535-1.493,17.513,17.513,0,0,0-2.35,21.5.143.143,0,0,1-.16.213l-.772-.216a1.071,1.071,0,0,0-.579,2.063l4.339,1.216h0a1.068,1.068,0,0,0,1.358-1.094l-.047-4.451a1.07,1.07,0,0,0-2.139.017Zm16.958-11.89a9.237,9.237,0,0,0-2.765-.8c-.155-.021-.124-.194-.124-.333a1.183,1.183,0,1,0-2.366,0c0,.585.039.173-1.214.71h0a4.061,4.061,0,0,0-1.617,1.131,3.009,3.009,0,0,0-.694,1.977,3.432,3.432,0,0,0,2.3,2.905v0a6.648,6.648,0,0,0,2.349.474,3.357,3.357,0,0,1,2.3.779c.43.523-.192.957-.7,1.179h0a6.345,6.345,0,0,1-4.646-.393,1.181,1.181,0,1,0-.971,2.153,9.855,9.855,0,0,0,2.764.8c.154.021.124.191.124.327a1.183,1.183,0,0,0,2.366,0c0-.575-.035-.16,1.277-.714h0a3.441,3.441,0,0,0,2.305-2.919h0a1.166,1.166,0,0,0,0-.152,3.471,3.471,0,0,0-2.31-2.938c-1.685-.7-2.751-.272-3.946-.774h0a2.072,2.072,0,0,1-.715-.5c-.426-.516.225-.955.706-1.154h0l.717-.217a6.951,6.951,0,0,1,3.849.6,1.18,1.18,0,0,0,1.008-2.135Z" transform="translate(891.344 1451.796)" fill="#4a665c" fill-rule="evenodd"/>
  </g>
</svg>
