<svg xmlns="http://www.w3.org/2000/svg" xmlns:xlink="http://www.w3.org/1999/xlink" width="93.934" height="93.934" viewBox="0 0 93.934 93.934">
  <defs>
    <filter id="Trazado_982547" x="0" y="0" width="93.934" height="93.934" filterUnits="userSpaceOnUse">
      <feOffset dy="3" input="SourceAlpha"/>
      <feGaussianBlur stdDeviation="3" result="blur"/>
      <feFlood flood-opacity="0.161"/>
      <feComposite operator="in" in2="blur"/>
      <feComposite in="SourceGraphic"/>
    </filter>
  </defs>
  <g id="Grupo_1183697" data-name="Grupo 1183697" transform="translate(-189.033 -2869)">
    <g id="Grupo_1182347" data-name="Grupo 1182347" transform="translate(0 1089)">
      <g id="Grupo_1176309" data-name="Grupo 1176309" transform="translate(0 -206)">
        <g id="Grupo_1172970" data-name="Grupo 1172970" transform="translate(-1 -9042)">
          <g id="Grupo_1171971" data-name="Grupo 1171971" transform="translate(199.033 11034)">
            <g id="Grupo_1167337" data-name="Grupo 1167337" transform="translate(0)">
              <g id="Grupo_1166720" data-name="Grupo 1166720">
                <g id="Grupo_1164305" data-name="Grupo 1164305">
                  <g id="Grupo_1163948" data-name="Grupo 1163948">
                    <g id="Grupo_1158168" data-name="Grupo 1158168">
                      <g id="Grupo_1152576" data-name="Grupo 1152576">
                        <g id="Grupo_1148633" data-name="Grupo 1148633">
                          <g id="Grupo_1148525" data-name="Grupo 1148525">
                            <g transform="matrix(1, 0, 0, 1, -9, -6)" filter="url(#Trazado_982547)">
                              <g id="Trazado_982547-2" data-name="Trazado 982547" transform="translate(9 6)" fill="#f2f7f5">
                                <path d="M 37.966796875 74.43359375 C 33.04315185546875 74.43359375 28.26757431030273 73.46962738037109 23.77274131774902 71.56847381591797 C 19.43047523498535 69.73184967041016 15.53040790557861 67.10224914550781 12.18087482452393 63.75271987915039 C 8.831341743469238 60.4031867980957 6.201741218566895 56.50312042236328 4.365118980407715 52.16086196899414 C 2.463963508605957 47.66601943969727 1.499996900558472 42.89044189453125 1.499996900558472 37.966796875 C 1.499996900558472 33.04315185546875 2.463963508605957 28.26757431030273 4.365118980407715 23.77274131774902 C 6.201741218566895 19.43047523498535 8.831341743469238 15.53040790557861 12.18087482452393 12.18087482452393 C 15.53040790557861 8.831341743469238 19.43047523498535 6.201741218566895 23.77274131774902 4.365118980407715 C 28.26757431030273 2.463963508605957 33.04315185546875 1.499996900558472 37.966796875 1.499996900558472 C 42.89044189453125 1.499996900558472 47.66601943969727 2.463963508605957 52.16086196899414 4.365118980407715 C 56.50312042236328 6.201741218566895 60.4031867980957 8.831341743469238 63.75271987915039 12.18087482452393 C 67.10224914550781 15.53040790557861 69.73184967041016 19.43047523498535 71.56847381591797 23.77274131774902 C 73.46962738037109 28.26757431030273 74.43359375 33.04315185546875 74.43359375 37.966796875 C 74.43359375 42.89044189453125 73.46962738037109 47.66601943969727 71.56847381591797 52.16086196899414 C 69.73184967041016 56.50313186645508 67.10224914550781 60.4031867980957 63.75271987915039 63.75271987915039 C 60.4031867980957 67.10224914550781 56.50313186645508 69.73184967041016 52.16086196899414 71.56847381591797 C 47.66601943969727 73.46962738037109 42.89044189453125 74.43359375 37.966796875 74.43359375 Z" stroke="none"/>
                                <path d="M 37.966796875 3 C 33.2449836730957 3 28.66600799560547 3.924095153808594 24.35705947875977 5.746635437011719 C 20.19359588623047 7.507637023925781 16.45379638671875 10.02928161621094 13.24153518676758 13.24153518676758 C 10.02927398681641 16.45379638671875 7.507621765136719 20.19359588623047 5.746635437011719 24.35705947875977 C 3.924095153808594 28.66600799560547 3 33.2449836730957 3 37.966796875 C 3 42.6886100769043 3.924095153808594 47.26758575439453 5.746635437011719 51.57653427124023 C 7.507621765136719 55.73999786376953 10.02927398681641 59.47979736328125 13.24153518676758 62.69205856323242 C 16.45379638671875 65.90431976318359 20.19359588623047 68.42597198486328 24.35705947875977 70.18695831298828 C 28.66600799560547 72.00949859619141 33.2449836730957 72.93359375 37.966796875 72.93359375 C 42.6886100769043 72.93359375 47.26758575439453 72.00949859619141 51.57653427124023 70.18695831298828 C 55.73999786376953 68.42597198486328 59.47979736328125 65.90431976318359 62.69205856323242 62.69205856323242 C 65.90431976318359 59.47979736328125 68.42597198486328 55.73999786376953 70.18695831298828 51.57653427124023 C 72.00949859619141 47.26758575439453 72.93359375 42.6886100769043 72.93359375 37.966796875 C 72.93359375 33.2449836730957 72.00949859619141 28.66600799560547 70.18695831298828 24.35705947875977 C 68.42597198486328 20.19359588623047 65.90431976318359 16.45379638671875 62.69205856323242 13.24153518676758 C 59.47979736328125 10.02928161621094 55.73999786376953 7.507637023925781 51.57653427124023 5.746635437011719 C 47.26758575439453 3.924095153808594 42.6886100769043 3 37.966796875 3 M 37.966796875 0 C 58.93528366088867 0 75.93359375 16.99832153320312 75.93359375 37.966796875 C 75.93359375 58.93528366088867 58.93528366088867 75.93359375 37.966796875 75.93359375 C 16.99831008911133 75.93359375 0 58.93528366088867 0 37.966796875 C 0 16.99832153320312 16.99831008911133 0 37.966796875 0 Z" stroke="none" fill="#4a665c"/>
                              </g>
                            </g>
                          </g>
                        </g>
                      </g>
                    </g>
                  </g>
                </g>
              </g>
            </g>
          </g>
        </g>
      </g>
    </g>
    <g id="salud-mental" transform="translate(190.594 2887.965)">
      <g id="Grupo_1183016" data-name="Grupo 1183016" transform="translate(23.344 0.734)">
        <path id="Trazado_1044492" data-name="Trazado 1044492" d="M73.688,23.976c-1.251-8.04-7.7-11.941-14.985-13.466,0,0,.183.438-.013-.033-.525-.111-1.2-.3-1.9-.4-3.4-.467-7.324-.9-10.892.059q-.858.231-1.712.541H44.2a18.083,18.083,0,0,0-2.666,1.218A13.608,13.608,0,0,0,34.3,23.227a11.162,11.162,0,0,1-1.061,3.4c-.211.908.754,1.839,1.139,2.736a1.321,1.321,0,0,1-.065,1.165,10.593,10.593,0,0,1-2.983,3.293c-.695.535-1.224,1.013-1.223,1.845,0,.971.61,1.605,1.915,2.007,2.187.673.147,2.257-.4,2.642a.579.579,0,0,0-.23.337.851.851,0,0,0,.37.9,8.6,8.6,0,0,1,1.038.961.2.2,0,0,1-.022.281,1.4,1.4,0,0,0-.587,1.165.771.771,0,0,0,.529.686,3.247,3.247,0,0,1,.79.381.719.719,0,0,1,.23.89,2.975,2.975,0,0,0-.459,2.469c.459,1.866,2.025,2.557,3.6,2.814a27.87,27.87,0,0,0,5.706-.517c4.1-.556,5.985,2.829,7.194,5.743h0a1.793,1.793,0,0,0,.293.6c.461.628,1.829.71,2.636.473l13.5-3.591A1.969,1.969,0,0,0,67.56,51.3c-1.171-3.155-2.43-7.561-.887-9.342.074-.082.014-.019.172-.177,4.565-4.131,6.307-6.888,6.81-11.128,0,0-.548,0,0,0a27.2,27.2,0,0,0,.033-6.683Z" transform="translate(-30.109 -9.363)" fill="#fed2a4"/>
        <path id="Trazado_1044493" data-name="Trazado 1044493" d="M208.076,37.842a19.012,19.012,0,0,0,2.912-3.774c1.491-2.545,1.788-5.735,1.809-8.856a17.759,17.759,0,0,0-.674-5.178,15.024,15.024,0,0,0-5.461-7.683h0a24.068,24.068,0,0,0-9.6-4.167l0,0c-.524-.111-1.338-.26-2.032-.357a26.008,26.008,0,0,0-11.368.686,27.8,27.8,0,0,1,9.024-.1c.694.1,1.508.246,2.032.357l0,0C202,10.3,208.987,14.611,210.238,22.651a21.62,21.62,0,0,1,.215,3.148c0,1.281-.091,2.524-.2,3.662a13.177,13.177,0,0,1-2.487,6.566,37.055,37.055,0,0,1-2.862,2.838,4.117,4.117,0,0,0-.295.3c-1.6,1.843-1.371,5.435.688,10.983a.5.5,0,0,1-.025.413.5.5,0,0,1-.318.252l-16.321,4.349a2.147,2.147,0,0,0,1.664.889,1.641,1.641,0,0,0,.463-.065l14.559-3.753a1.969,1.969,0,0,0,1.353-2.594c-1.171-3.155-2.5-7.731-.955-9.513l.03-.034c.44-.459.394-.288,2.331-2.251Z" transform="translate(-168.668 -7.511)" fill="#ffbd86"/>
        <g id="Grupo_1183015" data-name="Grupo 1183015" transform="translate(8.082 4.21)">
          <path id="Trazado_1044494" data-name="Trazado 1044494" d="M295.321,256.391l-.368-3.944,9.609,1.52a9.831,9.831,0,0,1-.266,1.562c-.069.324.225.685.081.97a3.834,3.834,0,0,1-6.308.806.2.2,0,0,0-.185-.066,2.887,2.887,0,0,1-.91,0A3.112,3.112,0,0,1,295.321,256.391Z" transform="translate(-277.169 -232.735)" fill="#dc4955"/>
          <path id="Trazado_1044495" data-name="Trazado 1044495" d="M292.531,243.911a3.774,3.774,0,0,1-.323.915,7.336,7.336,0,0,1-1.9.252h0A7.475,7.475,0,0,1,286.444,244a5.7,5.7,0,0,1-3.082.9h-.023c-.072-.061-.5-.163-.554-.227l-1.317-5.168,11.151,2.893A8.75,8.75,0,0,1,292.531,243.911Z" transform="translate(-265 -221.062)" fill="#d82f3c"/>
          <path id="Trazado_1044496" data-name="Trazado 1044496" d="M242.856,257.292l2.387,7.926a.7.7,0,0,1-.778.9l-2-.373a1.569,1.569,0,0,1-1.208-.958l-.354-.45-2.716-6.734Z" transform="translate(-225.946 -237.107)" fill="#df646e"/>
          <path id="Trazado_1044497" data-name="Trazado 1044497" d="M269.819,266.086l-2.388-.378a1.572,1.572,0,0,1-1.208-.958l-.227-.562,2.658.5a.39.39,0,0,0,.446-.5l-2.079-6.988,1.172-.077,2.4,8.059A.7.7,0,0,1,269.819,266.086Z" transform="translate(-251.04 -236.961)" fill="#dc4955"/>
          <path id="Trazado_1044498" data-name="Trazado 1044498" d="M144.176,61.186a4.458,4.458,0,0,0-3.432-5.425.487.487,0,0,1-.365-.328,4.762,4.762,0,0,0-7.29-2.427.484.484,0,0,1-.673-.1,5.624,5.624,0,0,0-8.7-.432.483.483,0,0,1-.552.125,4.282,4.282,0,0,0-5.872,2.856.488.488,0,0,1-.358.355,5.048,5.048,0,0,0-3.373,7.074.485.485,0,0,1-.029.468,4.41,4.41,0,0,0,6.832,5.482h.006a3.361,3.361,0,0,0,2.935,2.835,3.565,3.565,0,0,0,1.4-.056,2.732,2.732,0,0,0,1.845.925,2.982,2.982,0,0,0,2.583-.671,3.536,3.536,0,0,0,1.506.561,3.747,3.747,0,0,0,3.594-1.122h0a5.655,5.655,0,0,0,.589.493,5.778,5.778,0,0,0,2.737.738,5.036,5.036,0,0,0,5.735-4.266,5.291,5.291,0,0,0-.648-3.865.485.485,0,0,1,.07-.589A4.9,4.9,0,0,0,144.176,61.186Z" transform="translate(-112.86 -50.618)" fill="#df646e"/>
          <path id="Trazado_1044499" data-name="Trazado 1044499" d="M346.118,112.875a.485.485,0,0,0-.07.589,5.655,5.655,0,0,1-8.212,7.42,5.738,5.738,0,0,0,6.466-8.422.491.491,0,0,1,.071-.6,4.817,4.817,0,0,0-.021-6.844,4.8,4.8,0,0,1,3.1,5.232,4.733,4.733,0,0,1-1.338,2.623Z" transform="translate(-315.863 -99.707)" fill="#dc4955"/>
          <g id="Grupo_1183014" data-name="Grupo 1183014" transform="translate(5.099 14.25)">
            <path id="Trazado_1044500" data-name="Trazado 1044500" d="M181.057,203.509a4.705,4.705,0,0,1-4.752.3,3.542,3.542,0,0,1-4.622-.359,4.313,4.313,0,0,1-4.867-4.04,3,3,0,0,1-1.741-2.881l1.463.076a1.533,1.533,0,0,0,1.182,1.574.733.733,0,0,1,.563.772,2.847,2.847,0,0,0,3.505,2.991.732.732,0,0,1,.757.27,2.077,2.077,0,0,0,3.151.191.733.733,0,0,1,.934-.1,3.2,3.2,0,0,0,1.291.506c1.548.246,3.33-.179,3.841-1.659Z" transform="translate(-165.07 -196.527)" fill="#dc4955"/>
          </g>
        </g>
        <path id="Trazado_1044501" data-name="Trazado 1044501" d="M217.147,127.922a1.053,1.053,0,0,1-1.487,0l-.489-.293L210.538,123a3.29,3.29,0,0,1-.967-2.409,3.7,3.7,0,0,1,3.7-3.7,3.768,3.768,0,0,1,2.972,1.507.2.2,0,0,0,.317,0,3.68,3.68,0,0,1,2.972-1.506,3.58,3.58,0,0,1,1.789.48,3.876,3.876,0,0,1,1.553,3.491c0,1.1-.658,2.142-1.11,2.219-.51.088.005-.005,0,0Z" transform="translate(-192.044 -106.208)" fill="#dc4955"/>
        <path id="Trazado_1044502" data-name="Trazado 1044502" d="M274.971,124.226a3.68,3.68,0,0,1-.959,2.322l-.016.017-5.114,5.106a1.051,1.051,0,0,1-1.487,0l-.489-.488,5.723-5.79.016-.017a3.681,3.681,0,0,0,.959-2.322,3.805,3.805,0,0,0-.723-2.224A3.827,3.827,0,0,1,274.971,124.226Z" transform="translate(-243.779 -109.763)" fill="#d82f3c"/>
      </g>
      <g id="Grupo_1183017" data-name="Grupo 1183017" transform="translate(22.612)">
        <path id="Trazado_1044503" data-name="Trazado 1044503" d="M61.371,154.872a.732.732,0,0,0-1.4.44c.2.631.43,1.3.686,1.992a1.237,1.237,0,0,1-.849,1.63l-14.559,3.753a1.238,1.238,0,0,1-1.452-.73c-.869-2.14-2.9-7.151-8.076-6.45-.363.049-.725.1-1.081.15a21.089,21.089,0,0,1-4.408.37c-1.738-.285-2.692-1-3-2.266a2.353,2.353,0,0,1,.387-1.936,1.448,1.448,0,0,0-.452-1.85,4.013,4.013,0,0,0-1.009-.486c-.007-.158.067-.4.446-.672a.733.733,0,0,0,.153-1.04,12.258,12.258,0,0,0-1.4-1.356c.607-.431,1.765-1.408,1.615-2.487-.063-.452-.373-1.063-1.494-1.407-1.227-.377-1.4-.852-1.4-1.308s.275-.754.937-1.263a11.4,11.4,0,0,0,3.174-3.514,2.063,2.063,0,0,0,.1-1.813,7.227,7.227,0,0,0-.551-.983c-.3-.483-.62-.982-.547-1.3a3.91,3.91,0,0,1,.273-.664,7.285,7.285,0,0,0,.805-2.851c.032-.486.087-.969.164-1.435a.733.733,0,0,0-1.446-.238c-.085.513-.145,1.044-.18,1.578a5.846,5.846,0,0,1-.667,2.32,4.874,4.874,0,0,0-.376.958,3.207,3.207,0,0,0,.735,2.412,6.107,6.107,0,0,1,.444.779.588.588,0,0,1-.031.517,9.748,9.748,0,0,1-2.791,3.071,3.06,3.06,0,0,0-1.508,2.427c0,1.3.821,2.21,2.432,2.705a1.2,1.2,0,0,1,.47.226,3.207,3.207,0,0,1-1.176,1.188.734.734,0,0,0-.2.2,1.562,1.562,0,0,0,.41,2.139c.244.195.444.372.6.521a1.968,1.968,0,0,0-.14,2.311c.271.368.714.289,1.3.655a3.731,3.731,0,0,0-.5,2.948c.455,1.85,1.865,2.981,4.189,3.361a20.25,20.25,0,0,0,4.849-.365c.354-.05.714-.1,1.074-.149,3.556-.481,5.236,2.382,6.522,5.549a2.71,2.71,0,0,0,2.506,1.683,2.681,2.681,0,0,0,.669-.085l14.559-3.753a2.7,2.7,0,0,0,1.857-3.558C61.785,156.127,61.562,155.48,61.371,154.872Z" transform="translate(-22.612 -114.186)"/>
        <path id="Trazado_1044504" data-name="Trazado 1044504" d="M109.665,4.074A29.051,29.051,0,0,0,94.4,0,22.369,22.369,0,0,0,84.059,2.372a14.8,14.8,0,0,0-6.876,7.149.733.733,0,1,0,1.343.586c2.327-5.331,8.408-8.642,15.87-8.642a27.556,27.556,0,0,1,14.48,3.843,14.5,14.5,0,0,1,7.045,12.708c0,6.651-.874,9.376-6.662,14.614-1.038.939-1.346,2.6-.942,5.089a.732.732,0,0,0,1.446-.235c-.309-1.9-.144-3.2.479-3.768,6.112-5.531,7.144-8.771,7.144-15.7a15.9,15.9,0,0,0-7.72-13.942Z" transform="translate(-71.798)"/>
        <path id="Trazado_1044505" data-name="Trazado 1044505" d="M109.7,66a5.084,5.084,0,0,0,.8.063,5.177,5.177,0,0,0,2.72-.776,4.3,4.3,0,0,0,4.492,2.515,3.522,3.522,0,0,0,.6.482l2.3,5.631a2.314,2.314,0,0,0,1.771,1.4l2.388.378a1.449,1.449,0,0,0,.228.018,1.433,1.433,0,0,0,1.366-1.853l-.852-2.773a3.87,3.87,0,0,0,.891.044,4.5,4.5,0,0,0,2.484,1.268,4.552,4.552,0,0,0,.714.056,4.505,4.505,0,0,0,4.438-3.8c.021-.136.036-.272.045-.409a6.454,6.454,0,0,0,1.073-.632A6.389,6.389,0,0,0,137,59.4a5.494,5.494,0,0,0-2.736-9.089,5.495,5.495,0,0,0-8.173-2.8,6.322,6.322,0,0,0-3.22-2.146.732.732,0,0,0-.4,1.409,4.874,4.874,0,0,1,2.832,2.16.733.733,0,0,0,1.11.168,4.029,4.029,0,0,1,6.57,2.025.733.733,0,0,0,.6.543l.03,0a4.027,4.027,0,0,1,1.98,7.046.733.733,0,0,0-.132.97,4.924,4.924,0,0,1-7,6.725,4.714,4.714,0,0,0,.423-.9.732.732,0,1,0-1.385-.478,3.229,3.229,0,0,1-4.847,1.626.733.733,0,0,0-.934.1,2.077,2.077,0,0,1-3.151-.191.732.732,0,0,0-.757-.27,2.828,2.828,0,0,1-1.114.044,2.857,2.857,0,0,1-2.391-3.035.732.732,0,0,0-.563-.772,1.536,1.536,0,0,1-.5-2.775.732.732,0,0,0-.812-1.219,3,3,0,0,0,.4,5.224,3.638,3.638,0,0,1-2.909.793,3.682,3.682,0,0,1-3.057-4.207,3.639,3.639,0,0,1,.643-1.567.732.732,0,0,0,.049-.777,4.275,4.275,0,0,1-.47-2.733,4.32,4.32,0,0,1,3.5-3.573.733.733,0,0,0,.591-.589,3.549,3.549,0,0,1,5.181-2.482.732.732,0,0,0,.923-.189,4.9,4.9,0,0,1,2.233-1.585.733.733,0,1,0-.481-1.384,6.366,6.366,0,0,0-2.515,1.618,5.015,5.015,0,0,0-6.668,3.276,5.787,5.787,0,0,0-4.21,4.679,5.722,5.722,0,0,0,.431,3.262,5.085,5.085,0,0,0-.653,1.815A5.149,5.149,0,0,0,109.7,66Zm21.7,2.839a6.333,6.333,0,0,0,1.111-.1,3.037,3.037,0,0,1-5.276,1.149.732.732,0,0,0-.709-.252,2.112,2.112,0,0,1-1.569-.3l-.208-.678a4.688,4.688,0,0,0,2.764-1.126,6.353,6.353,0,0,0,2.874,1.228,6.481,6.481,0,0,0,1.013.08Zm-9.073-.679a4.632,4.632,0,0,0,.837.327l1.768,5.754-2.336-.37a.842.842,0,0,1-.644-.511l-1.84-4.513A3.7,3.7,0,0,0,122.329,68.163Z" transform="translate(-97.278 -40.908)"/>
        <path id="Trazado_1044506" data-name="Trazado 1044506" d="M214.157,116.545a.732.732,0,0,0,1.035,1.037c1-1.024,1.846-1.628,2.009-3.677a4.481,4.481,0,0,0-4.434-4.512,4.4,4.4,0,0,0-3.131,1.3,4.394,4.394,0,0,0-3.13-1.3,4.44,4.44,0,0,0-4.435,4.435,4.027,4.027,0,0,0,1.182,2.928l5.122,5.114a1.788,1.788,0,0,0,2.523,0L212.765,120a.733.733,0,0,0-1.035-1.037l-1.868,1.865a.32.32,0,0,1-.452,0l-5.123-5.116a2.594,2.594,0,0,1-.751-1.889,2.964,2.964,0,0,1,5.479-1.574.732.732,0,0,0,1.241,0,2.949,2.949,0,0,1,2.51-1.4,3.051,3.051,0,0,1,2.969,3.048C215.659,115.257,214.875,115.8,214.157,116.545Z" transform="translate(-184.544 -98.709)"/>
      </g>
    </g>
  </g>
</svg>
