<svg xmlns="http://www.w3.org/2000/svg" xmlns:xlink="http://www.w3.org/1999/xlink" width="93.934" height="93.934" viewBox="0 0 93.934 93.934">
  <defs>
    <filter id="Trazado_982547" x="0" y="0" width="93.934" height="93.934" filterUnits="userSpaceOnUse">
      <feOffset dy="3" input="SourceAlpha"/>
      <feGaussianBlur stdDeviation="3" result="blur"/>
      <feFlood flood-opacity="0.161"/>
      <feComposite operator="in" in2="blur"/>
      <feComposite in="SourceGraphic"/>
    </filter>
  </defs>
  <g id="Grupo_1183698" data-name="Grupo 1183698" transform="translate(-609 -2869)">
    <g id="Grupo_1182348" data-name="Grupo 1182348" transform="translate(419.967 1089)">
      <g id="Grupo_1176309" data-name="Grupo 1176309" transform="translate(0 -206)">
        <g id="Grupo_1172970" data-name="Grupo 1172970" transform="translate(-1 -9042)">
          <g id="Grupo_1171971" data-name="Grupo 1171971" transform="translate(199.033 11034)">
            <g id="Grupo_1167337" data-name="Grupo 1167337" transform="translate(0)">
              <g id="Grupo_1166720" data-name="Grupo 1166720">
                <g id="Grupo_1164305" data-name="Grupo 1164305">
                  <g id="Grupo_1163948" data-name="Grupo 1163948">
                    <g id="Grupo_1158168" data-name="Grupo 1158168">
                      <g id="Grupo_1152576" data-name="Grupo 1152576">
                        <g id="Grupo_1148633" data-name="Grupo 1148633">
                          <g id="Grupo_1148525" data-name="Grupo 1148525">
                            <g transform="matrix(1, 0, 0, 1, -9, -6)" filter="url(#Trazado_982547)">
                              <g id="Trazado_982547-2" data-name="Trazado 982547" transform="translate(9 6)" fill="#f2f7f5">
                                <path d="M 37.966796875 74.43359375 C 33.04315185546875 74.43359375 28.26757431030273 73.46962738037109 23.77274131774902 71.56847381591797 C 19.43047523498535 69.73184967041016 15.53040790557861 67.10224914550781 12.18087482452393 63.75271987915039 C 8.831341743469238 60.4031867980957 6.201741218566895 56.50312042236328 4.365118980407715 52.16086196899414 C 2.463963508605957 47.66601943969727 1.499996900558472 42.89044189453125 1.499996900558472 37.966796875 C 1.499996900558472 33.04315185546875 2.463963508605957 28.26757431030273 4.365118980407715 23.77274131774902 C 6.201741218566895 19.43047523498535 8.831341743469238 15.53040790557861 12.18087482452393 12.18087482452393 C 15.53040790557861 8.831341743469238 19.43047523498535 6.201741218566895 23.77274131774902 4.365118980407715 C 28.26757431030273 2.463963508605957 33.04315185546875 1.499996900558472 37.966796875 1.499996900558472 C 42.89044189453125 1.499996900558472 47.66601943969727 2.463963508605957 52.16086196899414 4.365118980407715 C 56.50312042236328 6.201741218566895 60.4031867980957 8.831341743469238 63.75271987915039 12.18087482452393 C 67.10224914550781 15.53040790557861 69.73184967041016 19.43047523498535 71.56847381591797 23.77274131774902 C 73.46962738037109 28.26757431030273 74.43359375 33.04315185546875 74.43359375 37.966796875 C 74.43359375 42.89044189453125 73.46962738037109 47.66601943969727 71.56847381591797 52.16086196899414 C 69.73184967041016 56.50313186645508 67.10224914550781 60.4031867980957 63.75271987915039 63.75271987915039 C 60.4031867980957 67.10224914550781 56.50313186645508 69.73184967041016 52.16086196899414 71.56847381591797 C 47.66601943969727 73.46962738037109 42.89044189453125 74.43359375 37.966796875 74.43359375 Z" stroke="none"/>
                                <path d="M 37.966796875 3 C 33.2449836730957 3 28.66600799560547 3.924095153808594 24.35705947875977 5.746635437011719 C 20.19359588623047 7.507637023925781 16.45379638671875 10.02928161621094 13.24153518676758 13.24153518676758 C 10.02927398681641 16.45379638671875 7.507621765136719 20.19359588623047 5.746635437011719 24.35705947875977 C 3.924095153808594 28.66600799560547 3 33.2449836730957 3 37.966796875 C 3 42.6886100769043 3.924095153808594 47.26758575439453 5.746635437011719 51.57653427124023 C 7.507621765136719 55.73999786376953 10.02927398681641 59.47979736328125 13.24153518676758 62.69205856323242 C 16.45379638671875 65.90431976318359 20.19359588623047 68.42597198486328 24.35705947875977 70.18695831298828 C 28.66600799560547 72.00949859619141 33.2449836730957 72.93359375 37.966796875 72.93359375 C 42.6886100769043 72.93359375 47.26758575439453 72.00949859619141 51.57653427124023 70.18695831298828 C 55.73999786376953 68.42597198486328 59.47979736328125 65.90431976318359 62.69205856323242 62.69205856323242 C 65.90431976318359 59.47979736328125 68.42597198486328 55.73999786376953 70.18695831298828 51.57653427124023 C 72.00949859619141 47.26758575439453 72.93359375 42.6886100769043 72.93359375 37.966796875 C 72.93359375 33.2449836730957 72.00949859619141 28.66600799560547 70.18695831298828 24.35705947875977 C 68.42597198486328 20.19359588623047 65.90431976318359 16.45379638671875 62.69205856323242 13.24153518676758 C 59.47979736328125 10.02928161621094 55.73999786376953 7.507637023925781 51.57653427124023 5.746635437011719 C 47.26758575439453 3.924095153808594 42.6886100769043 3 37.966796875 3 M 37.966796875 0 C 58.93528366088867 0 75.93359375 16.99832153320312 75.93359375 37.966796875 C 75.93359375 58.93528366088867 58.93528366088867 75.93359375 37.966796875 75.93359375 C 16.99831008911133 75.93359375 0 58.93528366088867 0 37.966796875 C 0 16.99832153320312 16.99831008911133 0 37.966796875 0 Z" stroke="none" fill="#4a665c"/>
                              </g>
                            </g>
                          </g>
                        </g>
                      </g>
                    </g>
                  </g>
                </g>
              </g>
            </g>
          </g>
        </g>
      </g>
    </g>
    <g id="liderazgo_2_" data-name="liderazgo (2)" transform="translate(630 2887)">
      <g id="Grupo_1183021" data-name="Grupo 1183021" transform="translate(0.82 0.82)">
        <g id="Grupo_1183019" data-name="Grupo 1183019" transform="translate(16.671 14.523)">
          <path id="Trazado_1044507" data-name="Trazado 1044507" d="M205.683,180.807a1.71,1.71,0,0,1-1.71-1.709v-5.072a1.709,1.709,0,1,1,3.419,0V179.1A1.71,1.71,0,0,1,205.683,180.807Z" transform="translate(-200.554 -169.994)" fill="#f4b184"/>
          <path id="Trazado_1044508" data-name="Trazado 1044508" d="M172.329,193.7a1.709,1.709,0,0,1-1.709-1.709v-2.739a1.709,1.709,0,1,1,3.419,0v2.739A1.71,1.71,0,0,1,172.329,193.7Z" transform="translate(-170.62 -183.659)" fill="#f4b184"/>
          <path id="Trazado_1044509" data-name="Trazado 1044509" d="M240.744,170.759a1.71,1.71,0,0,1-3.419,0v-7.252a1.71,1.71,0,0,1,3.419,0Z" transform="translate(-230.487 -160.554)" fill="#f4b184"/>
          <path id="Trazado_1044510" data-name="Trazado 1044510" d="M272.386,161.1a1.71,1.71,0,0,1-1.71-1.71v-8.009a1.709,1.709,0,1,1,3.419,0v8.009A1.709,1.709,0,0,1,272.386,161.1Z" transform="translate(-260.42 -149.667)" fill="#f4b184"/>
        </g>
        <path id="Trazado_1044511" data-name="Trazado 1044511" d="M213.166,172.316a1.7,1.7,0,0,0-.855.231,1.707,1.707,0,0,1,.855,1.479V179.1a1.707,1.707,0,0,1-.855,1.479,1.707,1.707,0,0,0,2.564-1.479v-5.072A1.71,1.71,0,0,0,213.166,172.316Z" transform="translate(-191.367 -155.472)" fill="#eaa678"/>
        <path id="Trazado_1044512" data-name="Trazado 1044512" d="M179.813,187.542a1.7,1.7,0,0,0-.855.231,1.707,1.707,0,0,1,.855,1.479v2.739a1.707,1.707,0,0,1-.855,1.479,1.707,1.707,0,0,0,2.564-1.479v-2.739A1.709,1.709,0,0,0,179.813,187.542Z" transform="translate(-161.433 -169.137)" fill="#eaa678"/>
        <path id="Trazado_1044513" data-name="Trazado 1044513" d="M246.518,161.8a1.7,1.7,0,0,0-.855.231,1.707,1.707,0,0,1,.855,1.479v7.252a1.708,1.708,0,0,1-.855,1.479,1.707,1.707,0,0,0,2.564-1.479v-7.252A1.71,1.71,0,0,0,246.518,161.8Z" transform="translate(-221.3 -146.031)" fill="#eaa678"/>
        <path id="Trazado_1044514" data-name="Trazado 1044514" d="M279.87,149.667a1.7,1.7,0,0,0-.855.231,1.707,1.707,0,0,1,.855,1.479v8.009a1.707,1.707,0,0,1-.855,1.479,1.707,1.707,0,0,0,2.564-1.479v-8.009A1.709,1.709,0,0,0,279.87,149.667Z" transform="translate(-251.233 -135.144)" fill="#eaa678"/>
        <path id="Trazado_1044515" data-name="Trazado 1044515" d="M185.18,199.99h-5.7a.924.924,0,0,0-.906.94,2.738,2.738,0,0,0,.056.531,2.482,2.482,0,0,0,1.888,1.946l.359.077,3.419.73v.335a1.71,1.71,0,1,1-3.419,0v.486a1.709,1.709,0,1,1-3.419,0v-1.1a1.71,1.71,0,0,1-3.419,0v-.773a1.709,1.709,0,1,1-3.419,0v5.287a11.8,11.8,0,0,0,2.287,6.74,3.418,3.418,0,0,1,.8,2.194v2.562a15.359,15.359,0,0,0,10.588.274v-2.854a2.276,2.276,0,0,1,.54-1.474,11.844,11.844,0,0,0,2.7-5.276C188.384,205.624,188.829,199.99,185.18,199.99Z" transform="translate(-153.95 -180.309)" fill="#ffc89f"/>
        <path id="Trazado_1044516" data-name="Trazado 1044516" d="M250.145,203.871a2.446,2.446,0,0,1-1.667-1.309.955.955,0,0,0-.278.677,2.508,2.508,0,0,0,1.945,2.477l3.914.836a1.874,1.874,0,0,0-1.456-2.158Z" transform="translate(-223.577 -182.617)" fill="#f7bc94"/>
        <g id="Grupo_1183020" data-name="Grupo 1183020" transform="translate(19.758 37.793)">
          <path id="Trazado_1044517" data-name="Trazado 1044517" d="M200.742,376.664v1.845a15.359,15.359,0,0,0,10.588.274v-1.845a15.359,15.359,0,0,1-10.588-.274Z" transform="translate(-200.742 -376.664)" fill="#f7bc94"/>
        </g>
        <path id="Trazado_1044518" data-name="Trazado 1044518" d="M57.537,30.329l-4.3-.646a20.051,20.051,0,0,0-3.161-7.627l2.583-3.5a1.538,1.538,0,0,0-.15-2l-2.225-2.225a1.538,1.538,0,0,0-2-.15l-3.5,2.583a20.05,20.05,0,0,0-7.627-3.161l-.646-4.3A1.538,1.538,0,0,0,35,8H31.85a1.538,1.538,0,0,0-1.521,1.309l-.646,4.3a20.051,20.051,0,0,0-7.627,3.161l-3.5-2.583a1.538,1.538,0,0,0-2,.15l-2.225,2.225a1.538,1.538,0,0,0-.15,2l2.583,3.5a20.05,20.05,0,0,0-3.161,7.627l-4.3.646A1.538,1.538,0,0,0,8,31.85V35a1.538,1.538,0,0,0,1.309,1.521l4.3.646a20.05,20.05,0,0,0,3.161,7.627l-2.583,3.5a1.538,1.538,0,0,0,.15,2l2.225,2.225a1.538,1.538,0,0,0,2,.15l3.5-2.583a20.05,20.05,0,0,0,7.627,3.161l.646,4.3a1.538,1.538,0,0,0,1.521,1.309H35a1.538,1.538,0,0,0,1.521-1.309l.646-4.3a20.05,20.05,0,0,0,7.627-3.161l3.5,2.583a1.538,1.538,0,0,0,2-.15l2.225-2.225a1.538,1.538,0,0,0,.15-2l-2.583-3.5a20.052,20.052,0,0,0,3.161-7.627l4.3-.646A1.538,1.538,0,0,0,58.846,35V31.85a1.537,1.537,0,0,0-1.309-1.521ZM33.423,48.722a15.3,15.3,0,1,1,15.3-15.3,15.3,15.3,0,0,1-15.3,15.3Z" transform="translate(-8 -8)" fill="#ff4755"/>
        <path id="Trazado_1044519" data-name="Trazado 1044519" d="M122.063,281.221a15.3,15.3,0,0,0,15.3-15.3c0-.31-.01-.617-.029-.923a15.3,15.3,0,0,1-30.54,0c-.018.305-.028.613-.028.923A15.3,15.3,0,0,0,122.063,281.221Z" transform="translate(-96.64 -238.654)" fill="#fc2b3a"/>
      </g>
      <g id="Grupo_1183022" data-name="Grupo 1183022" transform="translate(0 0)">
        <path id="Trazado_1044520" data-name="Trazado 1044520" d="M100.341,110.687a.771.771,0,0,0-.93.567,16.091,16.091,0,1,0,1.077-3.053.77.77,0,1,0,1.394.657,14.56,14.56,0,1,1,18.879,19.593v-1.737a1.511,1.511,0,0,1,.358-.978A12.605,12.605,0,0,0,124,120.08a.77.77,0,0,0-1.519-.258,11.065,11.065,0,0,1-2.532,4.917,3.053,3.053,0,0,0-.725,1.976v2.294a14.563,14.563,0,0,1-9.068-.244v-2.031a4.2,4.2,0,0,0-.983-2.693,11.12,11.12,0,0,1-2.111-6.259v-3a2.476,2.476,0,0,0,2.269-.2,2.48,2.48,0,0,0,3.288.856,2.481,2.481,0,0,0,3.546,1.033,9.28,9.28,0,0,0-2.617,3.612.77.77,0,0,0,1.426.584,7.775,7.775,0,0,1,4.865-4.5.77.77,0,0,0,.557-.553l.287-1.1.007-.026.18-.691c0-.017.007-.034.011-.051s0-.008,0-.012a.77.77,0,0,0-.593-.914l-.136-.029-3.426-.732h0l-.36-.077a1.748,1.748,0,0,1-1.339-1.729.16.16,0,0,1,.137-.172h5.712a1.642,1.642,0,0,1,1.314.531c.818.911,1.059,3,.715,6.213a.77.77,0,0,0,.684.848.782.782,0,0,0,.083,0,.771.771,0,0,0,.765-.688c.4-3.768.054-6.122-1.1-7.407a3.163,3.163,0,0,0-2.461-1.042h-.114v-2.686a2.483,2.483,0,0,0-4.773-.961A2.48,2.48,0,0,0,112.624,106a2.481,2.481,0,0,0-3.582,1.484,2.483,2.483,0,0,0-3.524,2.255v2.744c0,.022,0,.044,0,.065s0,.022,0,.033v5.2a12.513,12.513,0,0,0,2.471,7.249,2.656,2.656,0,0,1,.623,1.7v1.375a14.575,14.575,0,0,1-7.7-16.491.771.771,0,0,0-.568-.93Zm17.712,3.225,1.125.24a.943.943,0,0,1-1.843-.278v-.115Zm-2.258-.494v.943a.943.943,0,0,1-1.885,0v-2.48A3.241,3.241,0,0,0,115.795,113.418Zm1.541-7.569a.943.943,0,0,1,1.885,0v2.686h-1.885Zm-3.426,1.246a.943.943,0,0,1,1.885,0v1.44h-.631a1.658,1.658,0,0,0-1.254.579Zm-3.426,1.08a.943.943,0,1,1,1.885,0v5.082a.943.943,0,1,1-1.885,0Zm-3.426,1.564A.944.944,0,0,1,108,108.8a.967.967,0,0,1,.942.944v2.742h0a.942.942,0,1,1-1.885,0Z" transform="translate(-88.814 -88.814)"/>
        <path id="Trazado_1044521" data-name="Trazado 1044521" d="M50.519,22.382l-3.772-.567a20.72,20.72,0,0,0-2.875-6.937l2.267-3.069A2.3,2.3,0,0,0,45.914,8.8L43.685,6.572a2.3,2.3,0,0,0-3.007-.225L37.609,8.615a21.029,21.029,0,0,0-1.9-1.092.77.77,0,0,0-.7,1.375A19.513,19.513,0,0,1,37.2,10.191a.77.77,0,0,0,.892-.016l3.5-2.588a.766.766,0,0,1,1,.075L44.825,9.89a.766.766,0,0,1,.075,1l-2.588,3.5a.77.77,0,0,0-.016.892,19.221,19.221,0,0,1,3.046,7.349.77.77,0,0,0,.643.62l4.306.647a.766.766,0,0,1,.656.762v3.152a.766.766,0,0,1-.656.762l-4.306.647a.77.77,0,0,0-.643.62A19.224,19.224,0,0,1,42.3,37.2a.77.77,0,0,0,.016.893l2.588,3.5a.766.766,0,0,1-.075,1L42.6,44.825a.766.766,0,0,1-1,.075l-3.5-2.588A.77.77,0,0,0,37.2,42.3a19.221,19.221,0,0,1-7.349,3.046.77.77,0,0,0-.62.643l-.647,4.306a.766.766,0,0,1-.762.656H24.667a.766.766,0,0,1-.762-.656l-.647-4.306a.77.77,0,0,0-.62-.643A19.222,19.222,0,0,1,15.289,42.3a.77.77,0,0,0-.892.016l-3.5,2.588a.765.765,0,0,1-1-.075L7.662,42.6a.766.766,0,0,1-.075-1l2.588-3.5a.77.77,0,0,0,.016-.893,19.222,19.222,0,0,1-3.045-7.349.771.771,0,0,0-.643-.62L2.2,28.581a.766.766,0,0,1-.656-.762V24.667a.765.765,0,0,1,.656-.762L6.5,23.258a.77.77,0,0,0,.643-.62,19.22,19.22,0,0,1,3.045-7.349.77.77,0,0,0-.016-.892l-2.588-3.5a.766.766,0,0,1,.075-1L9.89,7.661a.766.766,0,0,1,1-.075l3.5,2.588a.771.771,0,0,0,.892.016,19.221,19.221,0,0,1,7.349-3.046.77.77,0,0,0,.62-.643L23.906,2.2a.766.766,0,0,1,.762-.656H27.82a.766.766,0,0,1,.762.656L29.229,6.5a.77.77,0,0,0,.62.643,19.394,19.394,0,0,1,2.423.619A.77.77,0,0,0,32.749,6.3a20.96,20.96,0,0,0-2.077-.56L30.1,1.967A2.3,2.3,0,0,0,27.819,0H24.667a2.3,2.3,0,0,0-2.285,1.968L21.815,5.74a20.723,20.723,0,0,0-6.937,2.875L11.808,6.347A2.3,2.3,0,0,0,8.8,6.572L6.572,8.8a2.3,2.3,0,0,0-.225,3.007l2.267,3.069A20.719,20.719,0,0,0,5.74,21.815l-3.772.567A2.3,2.3,0,0,0,0,24.667v3.152A2.3,2.3,0,0,0,1.968,30.1l3.772.567a20.718,20.718,0,0,0,2.875,6.937L6.347,40.678a2.3,2.3,0,0,0,.225,3.007L8.8,45.914a2.3,2.3,0,0,0,3.007.225l3.069-2.267a20.723,20.723,0,0,0,6.937,2.875l.567,3.772a2.3,2.3,0,0,0,2.285,1.967h3.152A2.3,2.3,0,0,0,30.1,50.519l.567-3.772a20.72,20.72,0,0,0,6.937-2.875l3.069,2.267a2.3,2.3,0,0,0,3.007-.225l2.229-2.229a2.3,2.3,0,0,0,.225-3.007l-2.267-3.069a20.723,20.723,0,0,0,2.875-6.937l3.772-.567a2.3,2.3,0,0,0,1.967-2.285V24.667a2.3,2.3,0,0,0-1.968-2.285Z" transform="translate(0 0)"/>
      </g>
    </g>
  </g>
</svg>
