<svg xmlns="http://www.w3.org/2000/svg" xmlns:xlink="http://www.w3.org/1999/xlink" width="93.934" height="93.934" viewBox="0 0 93.934 93.934">
  <defs>
    <filter id="Trazado_982547" x="0" y="0" width="93.934" height="93.934" filterUnits="userSpaceOnUse">
      <feOffset dy="3" input="SourceAlpha"/>
      <feGaussianBlur stdDeviation="3" result="blur"/>
      <feFlood flood-opacity="0.161"/>
      <feComposite operator="in" in2="blur"/>
      <feComposite in="SourceGraphic"/>
    </filter>
  </defs>
  <g id="Grupo_1183699" data-name="Grupo 1183699" transform="translate(-1029.033 -2869)">
    <g id="Grupo_1182349" data-name="Grupo 1182349" transform="translate(840 1089)">
      <g id="Grupo_1176309" data-name="Grupo 1176309" transform="translate(0 -206)">
        <g id="Grupo_1172970" data-name="Grupo 1172970" transform="translate(-1 -9042)">
          <g id="Grupo_1171971" data-name="Grupo 1171971" transform="translate(199.033 11034)">
            <g id="Grupo_1167337" data-name="Grupo 1167337" transform="translate(0)">
              <g id="Grupo_1166720" data-name="Grupo 1166720">
                <g id="Grupo_1164305" data-name="Grupo 1164305">
                  <g id="Grupo_1163948" data-name="Grupo 1163948">
                    <g id="Grupo_1158168" data-name="Grupo 1158168">
                      <g id="Grupo_1152576" data-name="Grupo 1152576">
                        <g id="Grupo_1148633" data-name="Grupo 1148633">
                          <g id="Grupo_1148525" data-name="Grupo 1148525">
                            <g transform="matrix(1, 0, 0, 1, -9, -6)" filter="url(#Trazado_982547)">
                              <g id="Trazado_982547-2" data-name="Trazado 982547" transform="translate(9 6)" fill="#f2f7f5">
                                <path d="M 37.966796875 74.43359375 C 33.04315185546875 74.43359375 28.26757431030273 73.46962738037109 23.77274131774902 71.56847381591797 C 19.43047523498535 69.73184967041016 15.53040790557861 67.10224914550781 12.18087482452393 63.75271987915039 C 8.831341743469238 60.4031867980957 6.201741218566895 56.50312042236328 4.365118980407715 52.16086196899414 C 2.463963508605957 47.66601943969727 1.499996900558472 42.89044189453125 1.499996900558472 37.966796875 C 1.499996900558472 33.04315185546875 2.463963508605957 28.26757431030273 4.365118980407715 23.77274131774902 C 6.201741218566895 19.43047523498535 8.831341743469238 15.53040790557861 12.18087482452393 12.18087482452393 C 15.53040790557861 8.831341743469238 19.43047523498535 6.201741218566895 23.77274131774902 4.365118980407715 C 28.26757431030273 2.463963508605957 33.04315185546875 1.499996900558472 37.966796875 1.499996900558472 C 42.89044189453125 1.499996900558472 47.66601943969727 2.463963508605957 52.16086196899414 4.365118980407715 C 56.50312042236328 6.201741218566895 60.4031867980957 8.831341743469238 63.75271987915039 12.18087482452393 C 67.10224914550781 15.53040790557861 69.73184967041016 19.43047523498535 71.56847381591797 23.77274131774902 C 73.46962738037109 28.26757431030273 74.43359375 33.04315185546875 74.43359375 37.966796875 C 74.43359375 42.89044189453125 73.46962738037109 47.66601943969727 71.56847381591797 52.16086196899414 C 69.73184967041016 56.50313186645508 67.10224914550781 60.4031867980957 63.75271987915039 63.75271987915039 C 60.4031867980957 67.10224914550781 56.50313186645508 69.73184967041016 52.16086196899414 71.56847381591797 C 47.66601943969727 73.46962738037109 42.89044189453125 74.43359375 37.966796875 74.43359375 Z" stroke="none"/>
                                <path d="M 37.966796875 3 C 33.2449836730957 3 28.66600799560547 3.924095153808594 24.35705947875977 5.746635437011719 C 20.19359588623047 7.507637023925781 16.45379638671875 10.02928161621094 13.24153518676758 13.24153518676758 C 10.02927398681641 16.45379638671875 7.507621765136719 20.19359588623047 5.746635437011719 24.35705947875977 C 3.924095153808594 28.66600799560547 3 33.2449836730957 3 37.966796875 C 3 42.6886100769043 3.924095153808594 47.26758575439453 5.746635437011719 51.57653427124023 C 7.507621765136719 55.73999786376953 10.02927398681641 59.47979736328125 13.24153518676758 62.69205856323242 C 16.45379638671875 65.90431976318359 20.19359588623047 68.42597198486328 24.35705947875977 70.18695831298828 C 28.66600799560547 72.00949859619141 33.2449836730957 72.93359375 37.966796875 72.93359375 C 42.6886100769043 72.93359375 47.26758575439453 72.00949859619141 51.57653427124023 70.18695831298828 C 55.73999786376953 68.42597198486328 59.47979736328125 65.90431976318359 62.69205856323242 62.69205856323242 C 65.90431976318359 59.47979736328125 68.42597198486328 55.73999786376953 70.18695831298828 51.57653427124023 C 72.00949859619141 47.26758575439453 72.93359375 42.6886100769043 72.93359375 37.966796875 C 72.93359375 33.2449836730957 72.00949859619141 28.66600799560547 70.18695831298828 24.35705947875977 C 68.42597198486328 20.19359588623047 65.90431976318359 16.45379638671875 62.69205856323242 13.24153518676758 C 59.47979736328125 10.02928161621094 55.73999786376953 7.507637023925781 51.57653427124023 5.746635437011719 C 47.26758575439453 3.924095153808594 42.6886100769043 3 37.966796875 3 M 37.966796875 0 C 58.93528366088867 0 75.93359375 16.99832153320312 75.93359375 37.966796875 C 75.93359375 58.93528366088867 58.93528366088867 75.93359375 37.966796875 75.93359375 C 16.99831008911133 75.93359375 0 58.93528366088867 0 37.966796875 C 0 16.99832153320312 16.99831008911133 0 37.966796875 0 Z" stroke="none" fill="#4a665c"/>
                              </g>
                            </g>
                          </g>
                        </g>
                      </g>
                    </g>
                  </g>
                </g>
              </g>
            </g>
          </g>
        </g>
      </g>
    </g>
    <g id="discusion" transform="translate(1052.803 2889.771)">
      <g id="Grupo_1183025" data-name="Grupo 1183025" transform="translate(0.68 0.68)">
        <g id="Grupo_1183024" data-name="Grupo 1183024">
          <path id="Trazado_1044522" data-name="Trazado 1044522" d="M19.309,430.852H8.048a.549.549,0,0,1-.54-.643l.891-5.1a1.921,1.921,0,0,1,1.893-1.591h6.774a1.921,1.921,0,0,1,1.893,1.591l.891,5.1A.548.548,0,0,1,19.309,430.852Z" transform="translate(-7.499 -385.82)" fill="#ffe177"/>
          <path id="Trazado_1044523" data-name="Trazado 1044523" d="M107.673,430.209l-.891-5.1a1.921,1.921,0,0,0-1.893-1.591h-1.812a1.921,1.921,0,0,1,1.893,1.591l.891,5.1a.549.549,0,0,1-.54.643h1.812A.548.548,0,0,0,107.673,430.209Z" transform="translate(-94.417 -385.82)" fill="#ffc344"/>
          <path id="Trazado_1044524" data-name="Trazado 1044524" d="M61.339,381.549a1.929,1.929,0,0,1-1.929-1.929V374.3h3.857v5.323A1.929,1.929,0,0,1,61.339,381.549Z" transform="translate(-54.707 -341.064)" fill="#f6a96c"/>
          <path id="Trazado_1044525" data-name="Trazado 1044525" d="M41.375,320.839a3.966,3.966,0,0,1-.906-.015,3.919,3.919,0,0,1-3.011-3.812v-1.555c0-1.852,1.285-2.5,3.011-2.906.291-.069.594-.921.906-.921a3.765,3.765,0,0,1,3.827,3.827v1.555A3.765,3.765,0,0,1,41.375,320.839Z" transform="translate(-34.743 -284.074)" fill="#fed2a4"/>
          <path id="Trazado_1044526" data-name="Trazado 1044526" d="M71.6,320.63a3.927,3.927,0,0,0-.906.106c1.524.361,2.7.705,2.96,2.267a3.94,3.94,0,0,1,.052.638V325.2a3.918,3.918,0,0,1-3.012,3.811,3.917,3.917,0,0,0,4.824-3.811v-1.555a3.9,3.9,0,0,0-.354-1.63C74.546,320.662,73.183,320.63,71.6,320.63Z" transform="translate(-64.969 -292.258)" fill="#ffbd86"/>
          <path id="Trazado_1044527" data-name="Trazado 1044527" d="M44.289,313.622c-.618-1.35-1.332-2.2-2.914-2.2a3.966,3.966,0,0,0-.906.015,3.919,3.919,0,0,0-3.011,3.812s2.3,1.406,5.971-.638C43.908,314.347,43.764,314.019,44.289,313.622Z" transform="translate(-34.743 -283.87)" fill="#a79ba7"/>
          <path id="Trazado_1044528" data-name="Trazado 1044528" d="M71.6,310.63a3.922,3.922,0,0,0-.906.106,3.921,3.921,0,0,1,2.959,3.172,12.994,12.994,0,0,0,1.51-.991A3.917,3.917,0,0,0,71.6,310.63Z" transform="translate(-64.969 -283.164)" fill="#918291"/>
          <path id="Trazado_1044529" data-name="Trazado 1044529" d="M369.919,430.852H358.658a.549.549,0,0,1-.54-.643l.891-5.1a1.921,1.921,0,0,1,1.893-1.591h6.774a1.921,1.921,0,0,1,1.893,1.591l.891,5.1A.549.549,0,0,1,369.919,430.852Z" transform="translate(-326.342 -385.82)" fill="#cb97e7"/>
          <path id="Trazado_1044530" data-name="Trazado 1044530" d="M458.283,430.209l-.891-5.1a1.921,1.921,0,0,0-1.893-1.591h-1.812a1.921,1.921,0,0,1,1.893,1.591l.891,5.1a.549.549,0,0,1-.54.643h1.812A.549.549,0,0,0,458.283,430.209Z" transform="translate(-413.259 -385.82)" fill="#af66da"/>
          <path id="Trazado_1044531" data-name="Trazado 1044531" d="M411.949,381.549a1.929,1.929,0,0,1-1.929-1.929V374.3h3.857v5.323A1.929,1.929,0,0,1,411.949,381.549Z" transform="translate(-373.549 -341.064)" fill="#f6a96c"/>
          <path id="Trazado_1044532" data-name="Trazado 1044532" d="M391.985,320.839a3.966,3.966,0,0,1-.906-.015,3.919,3.919,0,0,1-3.011-3.812v-1.555c0-1.852,1.285-2.5,3.011-2.906.291-.069.594-.921.906-.921a3.765,3.765,0,0,1,3.827,3.827v1.555A3.765,3.765,0,0,1,391.985,320.839Z" transform="translate(-353.585 -284.074)" fill="#fed2a4"/>
          <path id="Trazado_1044533" data-name="Trazado 1044533" d="M422.211,320.63a3.927,3.927,0,0,0-.906.106c1.524.361,2.7.705,2.96,2.267a3.939,3.939,0,0,1,.052.638V325.2a3.918,3.918,0,0,1-3.012,3.811,3.917,3.917,0,0,0,4.824-3.811v-1.555a3.9,3.9,0,0,0-.354-1.63C425.156,320.662,423.793,320.63,422.211,320.63Z" transform="translate(-383.811 -292.258)" fill="#ffbd86"/>
          <path id="Trazado_1044534" data-name="Trazado 1044534" d="M394.9,313.622c-.618-1.35-1.332-2.2-2.914-2.2a3.966,3.966,0,0,0-.906.015,3.919,3.919,0,0,0-3.011,3.812s2.3,1.406,5.971-.638C394.518,314.347,394.374,314.019,394.9,313.622Z" transform="translate(-353.585 -283.87)" fill="#a79ba7"/>
          <path id="Trazado_1044535" data-name="Trazado 1044535" d="M422.211,310.63a3.922,3.922,0,0,0-.906.106,3.921,3.921,0,0,1,2.959,3.172,13,13,0,0,0,1.51-.991A3.917,3.917,0,0,0,422.211,310.63Z" transform="translate(-383.811 -283.164)" fill="#918291"/>
          <path id="Trazado_1044536" data-name="Trazado 1044536" d="M19.309,127.722H8.048a.549.549,0,0,1-.54-.643l.891-5.1a1.921,1.921,0,0,1,1.893-1.591h6.774a1.921,1.921,0,0,1,1.893,1.591l.891,5.1A.548.548,0,0,1,19.309,127.722Z" transform="translate(-7.499 -110.156)" fill="#fe73c5"/>
          <path id="Trazado_1044537" data-name="Trazado 1044537" d="M107.673,127.08l-.891-5.1a1.921,1.921,0,0,0-1.893-1.591h-1.812a1.921,1.921,0,0,1,1.893,1.591l.891,5.1a.549.549,0,0,1-.54.643h1.812A.549.549,0,0,0,107.673,127.08Z" transform="translate(-94.417 -110.157)" fill="#fe2aa8"/>
          <path id="Trazado_1044538" data-name="Trazado 1044538" d="M61.339,78.42a1.929,1.929,0,0,1-1.929-1.929V71.169h3.857v5.323A1.928,1.928,0,0,1,61.339,78.42Z" transform="translate(-54.707 -65.4)" fill="#f6a96c"/>
          <path id="Trazado_1044539" data-name="Trazado 1044539" d="M41.375,17.709a3.965,3.965,0,0,1-.906-.015,3.919,3.919,0,0,1-3.011-3.812V12.327c0-1.852,1.285-2.5,3.011-2.906.291-.069.594-.921.906-.921A3.765,3.765,0,0,1,45.2,12.327v1.555a3.765,3.765,0,0,1-3.827,3.827Z" transform="translate(-34.743 -8.409)" fill="#fed2a4"/>
          <path id="Trazado_1044540" data-name="Trazado 1044540" d="M71.6,17.5a3.928,3.928,0,0,0-.906.106c1.524.361,2.7.705,2.96,2.267a3.939,3.939,0,0,1,.052.638v1.555a3.918,3.918,0,0,1-3.012,3.811,3.917,3.917,0,0,0,4.824-3.811V20.512a3.9,3.9,0,0,0-.354-1.63C74.546,17.532,73.183,17.5,71.6,17.5Z" transform="translate(-64.969 -16.594)" fill="#ffbd86"/>
          <path id="Trazado_1044541" data-name="Trazado 1044541" d="M44.289,10.493c-.618-1.35-1.332-2.2-2.914-2.2a3.965,3.965,0,0,0-.906.015,3.919,3.919,0,0,0-3.011,3.812s2.3,1.406,5.971-.638C43.908,11.218,43.764,10.89,44.289,10.493Z" transform="translate(-34.743 -8.206)" fill="#a79ba7"/>
          <path id="Trazado_1044542" data-name="Trazado 1044542" d="M71.6,7.5a3.928,3.928,0,0,0-.906.106,3.921,3.921,0,0,1,2.959,3.173,13.007,13.007,0,0,0,1.51-.991A3.917,3.917,0,0,0,71.6,7.5Z" transform="translate(-64.969 -7.5)" fill="#918291"/>
          <path id="Trazado_1044543" data-name="Trazado 1044543" d="M369.919,127.722H358.658a.549.549,0,0,1-.54-.643l.891-5.1a1.921,1.921,0,0,1,1.893-1.591h6.774a1.921,1.921,0,0,1,1.893,1.591l.891,5.1A.549.549,0,0,1,369.919,127.722Z" transform="translate(-326.342 -110.156)" fill="#62dbfb"/>
          <path id="Trazado_1044544" data-name="Trazado 1044544" d="M458.283,127.08l-.891-5.1a1.921,1.921,0,0,0-1.893-1.591h-1.812a1.921,1.921,0,0,1,1.893,1.591l.891,5.1a.549.549,0,0,1-.54.643h1.812A.549.549,0,0,0,458.283,127.08Z" transform="translate(-413.259 -110.157)" fill="#01c0fa"/>
          <path id="Trazado_1044545" data-name="Trazado 1044545" d="M411.949,78.42a1.929,1.929,0,0,1-1.929-1.929V71.169h3.857v5.323A1.929,1.929,0,0,1,411.949,78.42Z" transform="translate(-373.549 -65.4)" fill="#f6a96c"/>
          <path id="Trazado_1044546" data-name="Trazado 1044546" d="M391.985,17.709a3.965,3.965,0,0,1-.906-.015,3.919,3.919,0,0,1-3.011-3.812V12.327c0-1.852,1.285-2.5,3.011-2.906.291-.069.594-.921.906-.921a3.765,3.765,0,0,1,3.827,3.827v1.555a3.765,3.765,0,0,1-3.827,3.827Z" transform="translate(-353.585 -8.409)" fill="#fed2a4"/>
          <path id="Trazado_1044547" data-name="Trazado 1044547" d="M422.211,17.5a3.928,3.928,0,0,0-.906.106c1.524.361,2.7.705,2.96,2.267a3.938,3.938,0,0,1,.052.638v1.555a3.918,3.918,0,0,1-3.012,3.811,3.917,3.917,0,0,0,4.824-3.811V20.512a3.9,3.9,0,0,0-.354-1.63C425.156,17.532,423.793,17.5,422.211,17.5Z" transform="translate(-383.811 -16.594)" fill="#ffbd86"/>
          <path id="Trazado_1044548" data-name="Trazado 1044548" d="M394.9,10.493c-.618-1.35-1.332-2.2-2.914-2.2a3.965,3.965,0,0,0-.906.015,3.919,3.919,0,0,0-3.011,3.812s2.3,1.406,5.971-.638C394.518,11.218,394.374,10.89,394.9,10.493Z" transform="translate(-353.585 -8.206)" fill="#a79ba7"/>
          <path id="Trazado_1044549" data-name="Trazado 1044549" d="M422.211,7.5a3.928,3.928,0,0,0-.906.106,3.921,3.921,0,0,1,2.959,3.173,13.008,13.008,0,0,0,1.51-.991A3.917,3.917,0,0,0,422.211,7.5Z" transform="translate(-383.811 -7.5)" fill="#918291"/>
          <path id="Trazado_1044550" data-name="Trazado 1044550" d="M194.655,173.884c0-3.685-2.074-6.583-5.756-6.6a6.634,6.634,0,0,0-2.432,12.838.908.908,0,0,1,.461.392l.586,1.015.967,1.013a.453.453,0,0,0,.785,0l.647-2.028a.9.9,0,0,1,.459-.392A6.689,6.689,0,0,0,194.655,173.884Z" transform="translate(-166.357 -152.799)" fill="#bbec6c"/>
          <path id="Trazado_1044551" data-name="Trazado 1044551" d="M242.385,166.4a6.632,6.632,0,0,0-1.377.14,6.689,6.689,0,0,1,1.037,12.789.905.905,0,0,0-.459.392L241,180.736l.967,1.674a.453.453,0,0,0,.785,0l1.553-2.689a.905.905,0,0,1,.459-.392,6.688,6.688,0,0,0-2.378-12.929Z" transform="translate(-219.843 -152.003)" fill="#97d729"/>
        </g>
      </g>
      <g id="Grupo_1183026" data-name="Grupo 1183026" transform="translate(0.001)">
        <path id="Trazado_1044552" data-name="Trazado 1044552" d="M45.482,39.847a2.6,2.6,0,0,0-2.562-2.154H41.688V37.4a4.6,4.6,0,0,0,1.989-3.783V32.063A4.6,4.6,0,0,0,39.633,27.5a17.087,17.087,0,0,0,.009-8.575h5.522a1.228,1.228,0,0,0,1.21-1.439l-.356-2.037a.68.68,0,0,0-1.339.234l.329,1.884H33.152l.864-4.951a1.239,1.239,0,0,1,1.223-1.028h1.232v.184a2.608,2.608,0,0,0,5.216,0v-.184H42.92a1.24,1.24,0,0,1,1.223,1.028.68.68,0,1,0,1.339-.234,2.6,2.6,0,0,0-2.562-2.154H41.688V9.935a4.6,4.6,0,0,0,1.989-3.783V4.6a4.6,4.6,0,0,0-9.194,0V6.152a4.6,4.6,0,0,0,1.989,3.783v.293H35.24a2.6,2.6,0,0,0-.888.156,16.987,16.987,0,0,0-22.31,0,2.6,2.6,0,0,0-.888-.156H9.92V9.935a4.6,4.6,0,0,0,1.989-3.783V4.6a4.6,4.6,0,1,0-9.194,0V6.152A4.6,4.6,0,0,0,4.7,9.935v.293H3.472A2.6,2.6,0,0,0,.91,12.382l-.891,5.1a1.228,1.228,0,0,0,1.21,1.439H6.75A17.086,17.086,0,0,0,6.759,27.5a4.6,4.6,0,0,0-4.044,4.563v1.555A4.6,4.6,0,0,0,4.7,37.4v.293H3.472A2.6,2.6,0,0,0,.91,39.847l-.891,5.1a1.228,1.228,0,0,0,1.21,1.439H13.4a1.228,1.228,0,0,0,1.21-1.439l-.891-5.1a2.6,2.6,0,0,0-2.562-2.154H9.92V37.4A4.625,4.625,0,0,0,11.5,35.514a16.93,16.93,0,0,0,10.122,4.6l.063,0a.68.68,0,0,0,.061-1.356,15.583,15.583,0,0,1-9.852-4.77c.01-.122.016-.245.016-.37V32.063a4.6,4.6,0,0,0-3.727-4.514,15.725,15.725,0,0,1-.024-8.624H13.4a1.228,1.228,0,0,0,1.21-1.439l-.891-5.1A2.6,2.6,0,0,0,13.18,11.2a15.627,15.627,0,0,1,20.033,0,2.6,2.6,0,0,0-.535,1.183l-.891,5.1A1.228,1.228,0,0,0,33,18.925h5.237a15.724,15.724,0,0,1-.024,8.624,4.6,4.6,0,0,0-3.727,4.514v1.555c0,.124.006.248.016.37a15.592,15.592,0,0,1-9.811,4.766.68.68,0,0,0,.063,1.356c.021,0,.043,0,.065,0a16.942,16.942,0,0,0,10.077-4.594A4.626,4.626,0,0,0,36.472,37.4v.293H35.24a2.6,2.6,0,0,0-2.562,2.154l-.891,5.1A1.228,1.228,0,0,0,33,46.391H45.163a1.228,1.228,0,0,0,1.21-1.439ZM40.329,11.771a1.249,1.249,0,0,1-2.5,0v-1.2a4.573,4.573,0,0,0,2.5,0ZM39.08,1.359a3.237,3.237,0,0,1,2.673,1.413c-2.985,2.061-5.079,1.681-5.882,1.4A3.242,3.242,0,0,1,39.08,1.359ZM35.842,5.575a5.964,5.964,0,0,0,1.46.176,9.032,9.032,0,0,0,4.971-1.69,3.244,3.244,0,0,1,.045.537V6.152a3.238,3.238,0,0,1-6.476,0V5.575ZM8.561,39.237a1.249,1.249,0,1,1-2.5,0v-1.2a4.573,4.573,0,0,0,2.5,0Zm2.591-.184a1.239,1.239,0,0,1,1.223,1.028l.864,4.951H1.385l.864-4.951a1.24,1.24,0,0,1,1.223-1.028H4.7v.184a2.608,2.608,0,1,0,5.216,0v-.184h1.232Zm-.6-5.435a3.238,3.238,0,1,1-6.476,0V33.04a5.964,5.964,0,0,0,1.46.176,9.031,9.031,0,0,0,4.97-1.69,3.244,3.244,0,0,1,.045.537Zm-.565-3.38C7,32.3,4.906,31.919,4.1,31.637a3.236,3.236,0,0,1,5.882-1.4ZM6.063,10.576a4.573,4.573,0,0,0,2.5,0v1.2a1.249,1.249,0,0,1-2.5,0ZM7.312,1.359A3.237,3.237,0,0,1,9.985,2.772C7,4.833,4.906,4.454,4.1,4.171A3.242,3.242,0,0,1,7.312,1.359ZM4.074,5.575a5.964,5.964,0,0,0,1.46.176,9.032,9.032,0,0,0,4.971-1.69,3.244,3.244,0,0,1,.045.537V6.152a3.238,3.238,0,0,1-6.476,0V5.575ZM1.385,17.566l.864-4.951a1.24,1.24,0,0,1,1.223-1.028H4.7v.184a2.608,2.608,0,1,0,5.216,0v-.184h1.232a1.239,1.239,0,0,1,1.223,1.028l.864,4.951ZM37.831,38.041a4.573,4.573,0,0,0,2.5,0v1.2a1.249,1.249,0,1,1-2.5,0Zm1.249-9.217a3.237,3.237,0,0,1,2.673,1.413c-2.984,2.061-5.079,1.681-5.882,1.4A3.242,3.242,0,0,1,39.08,28.825ZM35.842,33.04a5.964,5.964,0,0,0,1.46.176,9.031,9.031,0,0,0,4.971-1.69,3.244,3.244,0,0,1,.045.537v1.555a3.238,3.238,0,0,1-6.476,0ZM33.152,45.032l.864-4.951a1.239,1.239,0,0,1,1.223-1.028h1.232v.184a2.608,2.608,0,0,0,5.216,0v-.184H42.92a1.24,1.24,0,0,1,1.223,1.028l.864,4.951Z" transform="translate(-0.001)"/>
        <path id="Trazado_1044553" data-name="Trazado 1044553" d="M220.635,233.4a.68.68,0,1,0-.68.68A.68.68,0,0,0,220.635,233.4Z" transform="translate(-199.408 -211.63)"/>
        <path id="Trazado_1044554" data-name="Trazado 1044554" d="M249.859,233.4a.68.68,0,1,0-.68.68A.68.68,0,0,0,249.859,233.4Z" transform="translate(-225.984 -211.63)"/>
        <path id="Trazado_1044555" data-name="Trazado 1044555" d="M278.4,234.075a.68.68,0,1,0-.68-.68A.68.68,0,0,0,278.4,234.075Z" transform="translate(-252.56 -211.63)"/>
        <path id="Trazado_1044556" data-name="Trazado 1044556" d="M186.1,173.242a.226.226,0,0,1,.115-.1,7.368,7.368,0,0,0-2.62-14.243h-.028a7.427,7.427,0,0,0-7.183,5.723.68.68,0,0,0,1.324.3,6.058,6.058,0,0,1,5.858-4.669h.022a6.008,6.008,0,0,1,2.136,11.615,1.589,1.589,0,0,0-.8.686l-1.356,2.349-1.357-2.35a1.593,1.593,0,0,0-.8-.687,5.988,5.988,0,0,1-3.712-4.332.68.68,0,0,0-1.328.287,7.343,7.343,0,0,0,4.552,5.313.23.23,0,0,1,.117.1l1.553,2.689a1.121,1.121,0,0,0,.981.566h0a1.121,1.121,0,0,0,.981-.566Z" transform="translate(-160.368 -144.504)"/>
      </g>
    </g>
  </g>
</svg>
