<svg xmlns="http://www.w3.org/2000/svg" xmlns:xlink="http://www.w3.org/1999/xlink" width="203" height="210" viewBox="0 0 203 210">
  <defs>
    <clipPath id="clip-path">
      <rect id="Rect치ngulo_416384" data-name="Rect치ngulo 416384" width="203" height="210" transform="translate(300 4559)" fill="#fff" stroke="#707070" stroke-width="1" opacity="0.8"/>
    </clipPath>
  </defs>
  <g id="Enmascarar_grupo_1183030" data-name="Enmascarar grupo 1183030" transform="translate(-300 -4559)" clip-path="url(#clip-path)">
    <g id="Grupo_1201231" data-name="Grupo 1201231" transform="translate(221.803 4370.512)">
      <path id="Trazado_1047167" data-name="Trazado 1047167" d="M162.318,345.4c12.345,1.833,24.4,11.075,23.347,18.176s-11.916,11.373-24.263,9.541-21.5-9.075-20.445-16.176S149.972,343.567,162.318,345.4Z" transform="translate(0.118 0.311)" fill="#f4e9ed"/>
      <path id="Trazado_1047168" data-name="Trazado 1047168" d="M160.983,230.024c9.512-4.684,22.892-3.053,26.063,3.387s-1.97,15.459-11.483,20.142-19.795,3.259-22.966-3.181S151.471,234.707,160.983,230.024Z" transform="translate(0.14 0.069)" fill="#f4e9ed"/>
      <g id="Grupo_1201230" data-name="Grupo 1201230" transform="translate(83.197 193.585)">
        <path id="Trazado_1047169" data-name="Trazado 1047169" d="M265.317,350.513a53.691,53.691,0,0,1-3.673,5.519c-14.382,18.89-43.335,20.551-57.858,3.421-14.481-17.072-44.329-27.043-74.119-10.965-29.769,16.1-51.59-28.072-45.422-55.885,7.135-32.162,35.081-40.854,60.408-35.012,25.329,5.862,39.087,7.519,49.342-6.849,9.86-13.865,25.606-16.346,36.859-13.63,13.638,3.293,28.365,18.949,34.708,39.607a247.589,247.589,0,0,1,6.92,33C274.039,321.626,273.319,336.809,265.317,350.513Z" transform="translate(-83.197 -193.498)" fill="#f4e9ed"/>
        <g id="Grupo_1201229" data-name="Grupo 1201229" transform="translate(37.542)">
          <rect id="Rect치ngulo_416383" data-name="Rect치ngulo 416383" width="7.676" height="5.757" transform="translate(6.346 83.274) rotate(-3.124)" fill="#c97d6b"/>
          <g id="XMLID_00000057846670846556524080000018222784504281207193_" transform="translate(5.185)">
            <path id="XMLID_00000120520335535161628240000001594955285707878533_" d="M141.3,195.516l.223,14.3c-3.311,12.308-11.457,18.137-14.623,29.907-3.745,13.923,3.639,20.994,3.639,20.994s.5,15.526.364,23.289c-.329,18.923-3.232,32.9-2.859,56.715,0,0-.368,17.81,7.738,17.683,7.635-.119,9.971-3.262,9.971-3.262a9.734,9.734,0,0,0,16.691-.261s2.433,3.068,10.069,2.949c8.107-.126,7.182-17.917,7.182-17.917-.373-23.816-3.713-37.7-4.633-56.6-.378-7.755-.364-23.289-.364-23.289s7.162-7.3,2.984-21.1c-3.532-11.666-11.857-17.236-15.551-29.435l-.223-14.3-10.3.161Z" transform="translate(-125.837 -193.582)" fill="#97c4d7"/>
            <path id="XMLID_00000068656582253841865390000007229935357088946824_" d="M156.616,195.274l.223,14.3a68.523,68.523,0,0,0,1.786,8.133c.687,2.43,1.443,4.646,2.2,6.846s1.5,4.381,2.18,6.745a64.049,64.049,0,0,1,1.737,7.832,56.176,56.176,0,0,1,.712,9.127,41.6,41.6,0,0,1-.549,6.6,28.035,28.035,0,0,1-.958,4,11.976,11.976,0,0,1-.509,1.346s.116,15.532.364,23.289c.3,9.453.892,17.657,1.452,26.474s1.094,18.245,1.281,30.153c0,0,.149,4.449-.2,8.905a31.086,31.086,0,0,1-.981,6.136,7.14,7.14,0,0,1-.6,1.31,17.442,17.442,0,0,0,7.691,1.362c8.107-.127,7.182-17.917,7.182-17.917-.372-23.816-3.713-37.7-4.633-56.6-.378-7.755-.364-23.289-.364-23.289s7.162-7.3,2.983-21.1c-3.532-11.666-11.857-17.237-15.551-29.436l-.223-14.3Z" transform="translate(-125.773 -193.582)" fill="#85bad0"/>
            <path id="XMLID_00000085930332093674689730000014715658637927036322_" d="M141.3,195.514l.223,14.3c-3.311,12.308-11.457,18.137-14.624,29.907-3.745,13.923,3.639,20.993,3.639,20.993s.5,15.526.364,23.289c-.329,18.922-3.232,32.9-2.859,56.715,0,0-.368,17.81,7.738,17.683a17.424,17.424,0,0,0,7.642-1.6,7.137,7.137,0,0,1-.634-1.291,31.057,31.057,0,0,1-1.172-6.1c-.489-4.443-.479-8.9-.479-8.9-.186-11.907.05-21.349.336-30.179s.618-17.048.624-26.506c.005-7.761-.364-23.289-.364-23.289a12.131,12.131,0,0,1-.55-1.33,27.919,27.919,0,0,1-1.08-3.97,41.711,41.711,0,0,1-.758-6.574,56.15,56.15,0,0,1,.427-9.145,64.128,64.128,0,0,1,1.493-7.882c.6-2.384,1.285-4.587,1.969-6.81s1.371-4.461,1.981-6.912a68.374,68.374,0,0,0,1.531-8.185l-.223-14.3Z" transform="translate(-125.837 -193.581)" fill="#bedbe9"/>
            <path id="XMLID_00000031165366995652949130000006973114906553629592_" d="M130.531,260.578s.026,1.85.033,2.081l44.158-.69c0-.231-.033-2.081-.033-2.081Zm.135,8.661c.019.745.012,1.243.032,2.081l44.158-.69c-.007-.838-.028-1.337-.032-2.081Zm.135,8.662c.011.912.026,1.212.032,2.079l44.158-.69c-.023-.866-.014-1.167-.033-2.079Zm-.256,13.358c-.033.637-.053,1.3-.09,1.928,10.122.509,17.962,2.881,25.118,4.207,6.806,1.261,13.259,1.129,20.387-2.707-.068-.7-.106-1.45-.17-2.154-7,4.111-12.947,4.237-19.822,2.963C149.02,294.209,140.975,291.779,130.546,291.259Zm-.826,12.733c-.053.638-.1,1.283-.155,1.924,10.665.375,18.8,2.877,26.208,4.25,7.15,1.325,13.915,1.089,21.483-3.367-.081-.709-.157-1.414-.238-2.119-7.464,4.753-13.641,4.924-20.85,3.589C148.993,306.939,140.663,304.386,129.72,303.992Zm-.936,12.721c-.045.636-.085,1.281-.127,1.927,11.236.221,19.643,2.883,27.316,4.3,7.473,1.384,14.519,1.1,22.512-3.985-.067-.728-.138-1.431-.208-2.144-7.962,5.47-14.356,5.63-21.909,4.232C148.942,319.672,140.312,316.953,128.784,316.713Zm7.416,13.971a37.231,37.231,0,0,0-8.03.96c-.012.665-.022,1.341-.031,2.022,7.924-1.93,15.962-.546,24.428.753,8.492,1.3,17.437,2.23,26.827-.944-.027-.67-.059-1.321-.091-1.976-9.1,3.26-17.761,2.336-26.4,1.011-4.455-.683-8.9-1.456-13.356-1.726Q137.876,330.681,136.2,330.684Z" transform="translate(-125.832 -193.449)" fill="#77b2cb"/>
            <g id="XMLID_00000048480051226958574690000004311970926201315748_" transform="translate(14.013)">
              <path id="XMLID_00000166660982043483545890000016507760631692525981_" d="M141.437,204.282l20.54-.322a1.376,1.376,0,1,1,.042,2.7l-20.54.321a1.375,1.375,0,1,1-.042-2.7Z" transform="translate(-139.821 -193.564)" fill="#103bd7"/>
              <path id="XMLID_00000000214621855289209100000017969481903821342882_" d="M151.8,193.589a56.422,56.422,0,0,0-5.8.352c-3.426.4-5.53,1.078-5.52,1.774h.03a.506.506,0,0,0-.027.168l.118,7.547,22.187-.347-.118-7.547a.559.559,0,0,0-.032-.167h.029c-.012-.7-2.136-1.307-5.573-1.6C155.481,193.629,153.662,193.568,151.8,193.589Z" transform="translate(-139.82 -193.585)" fill="#103bd7"/>
              <path id="XMLID_00000078017460956831020020000011400576957770501762_" d="M151.662,193.592c.169,0,.338,0,.506.006s.347.014.517.026.342.027.509.045.33.039.49.063.317.052.47.082l.211.044c.148.033.292.068.43.106s.271.079.4.123.247.088.362.136.22.1.321.15a3.129,3.129,0,0,1,.278.162,2.292,2.292,0,0,1,.232.171,1.659,1.659,0,0,1,.183.181,1.17,1.17,0,0,1,.133.186.852.852,0,0,1,.081.191.763.763,0,0,1,.031.193H156.8a1.017,1.017,0,0,1,.018.167l.118,7.547,5.831-.091-.118-7.547a.527.527,0,0,0-.032-.167h.029c-.012-.7-2.136-1.307-5.573-1.6-1.611-.138-3.431-.2-5.29-.178Z" transform="translate(-139.797 -193.585)" fill="#172b94"/>
              <path id="XMLID_00000136372133387794140150000016901436044386636168_" d="M151.542,193.594c-1.947.03-3.859.149-5.543.347-3.426.4-5.53,1.078-5.52,1.774h.03a.506.506,0,0,0-.027.168l.118,7.547,5.831-.091-.118-7.547a1.157,1.157,0,0,1,.012-.168h-.015a.7.7,0,0,1,.006-.091.821.821,0,0,1,.049-.2,1.1,1.1,0,0,1,.1-.192,1.346,1.346,0,0,1,.151-.189,1.882,1.882,0,0,1,.2-.182,2.459,2.459,0,0,1,.248-.174c.09-.057.188-.112.293-.165s.216-.105.335-.155.243-.1.374-.142.268-.087.41-.127.289-.078.44-.113c.072-.017.144-.033.218-.048.155-.032.315-.061.477-.088s.329-.05.5-.07.339-.038.511-.052.346-.025.521-.033Z" transform="translate(-139.82 -193.585)" fill="#2752ef"/>
            </g>
          </g>
          <path id="Trazado_1047170" data-name="Trazado 1047170" d="M265.174,350.446c-23.937-5.376-64.5-14.18-71.717-13.665l-.841.046c-.68.037-1.322.052-1.943.066h-.02c-8.765.117-11.17-2.4-11.17-2.4l-1.41-14.414-.13-1.278-.767-7.786v-.02l-.32-3.274v-.02l-1.318-13.476-.143-1.518v-.02l-.849-8.565-.055-.639a28.977,28.977,0,0,1-16.515-3.613c-6.157-3.577-6.119-9.14-2.642-9.429,1.939-.146,7.324-.762,12.259-1.171,3.978-.3,7.287-.338,8.614.051,7.389,2.266,11.7,5.162,13.83,8.116,1.5,2.086,1.822,6.524,3.79,12.057,1.849,5.178,2.316,9.327,8.253,12.194h.02c.392.2.8.378,1.255.554.061.017.122.033.2.049,11.352,2.431,51.3,5.909,68.784,7.363C274.012,321.543,273.176,336.742,265.174,350.446Z" transform="translate(-120.596 -193.43)" fill="#faab7f"/>
          <path id="Trazado_1047171" data-name="Trazado 1047171" d="M130.6,264.6a12.172,12.172,0,0,1,1.3,3.388c.159,1.358,1.7,9.217-2.754,10.571s-6.76-4.926-6.643-9.032S126.926,263.822,130.6,264.6Z" transform="translate(-120.659 -193.44)" fill="#faab7f"/>
          <path id="Trazado_1047172" data-name="Trazado 1047172" d="M122.877,270.021c.116-4.057,4.326-5.661,7.97-4.943-.143-.285-.249-.475-.249-.475-3.673-.782-7.983.821-8.1,4.926a12.286,12.286,0,0,0,2.332,7.584A12.762,12.762,0,0,1,122.877,270.021Z" transform="translate(-120.659 -193.44)" fill="#e08870"/>
          <path id="Trazado_1047173" data-name="Trazado 1047173" d="M133.214,282.669c-2.317-1.753-5.063-3.567-5.063-3.567s-.128-.169-.338-.4a3.884,3.884,0,0,1-2.636-1.236,1.4,1.4,0,0,0-.356.107c-3.919,1.752-5.611,9.872-2.669,12.1s7.243,4.387,10.328,3.023S135.529,284.421,133.214,282.669Z" transform="translate(-120.662 -193.413)" fill="#faab7f"/>
          <path id="Trazado_1047174" data-name="Trazado 1047174" d="M125.254,278.568c.325-.154.772.135.989.277a17.14,17.14,0,0,0,2.429,1.21s2.747,1.815,5.063,3.567a2.922,2.922,0,0,1,.579.625,3.691,3.691,0,0,0-1.1-1.579c-2.316-1.753-5.063-3.566-5.063-3.566s-.128-.169-.338-.4a3.885,3.885,0,0,1-2.636-1.236,1.4,1.4,0,0,0-.356.107c-3.648,1.63-5.362,8.778-3.208,11.557-1.15-2.909.16-8.087,2.881-10.1A3.779,3.779,0,0,1,125.254,278.568Z" transform="translate(-120.662 -193.413)" fill="#e08870"/>
          <path id="Trazado_1047175" data-name="Trazado 1047175" d="M131,293.04a11.175,11.175,0,0,1-6.382-1.759c-1.454.641-2.753,2.9-2.915,6.23-.18,3.725,3.791,6.07,5.819,6.856s5.338,1.566,6.642-.363,1.575-7.516-.485-8.877A16,16,0,0,1,131,293.04Z" transform="translate(-120.66 -193.384)" fill="#faab7f"/>
          <path id="Trazado_1047176" data-name="Trazado 1047176" d="M122.194,298.68c.162-3.334,1.461-5.588,2.915-6.23a11.168,11.168,0,0,0,6.382,1.759,15.984,15.984,0,0,0,2.679,2.087,2.388,2.388,0,0,1,.686.738,3.312,3.312,0,0,0-1.177-1.907A15.983,15.983,0,0,1,131,293.04a11.175,11.175,0,0,1-6.382-1.759c-1.454.641-2.753,2.9-2.915,6.23a5.072,5.072,0,0,0,.707,2.784A4.876,4.876,0,0,1,122.194,298.68Z" transform="translate(-120.66 -193.384)" fill="#e08870"/>
          <path id="Trazado_1047177" data-name="Trazado 1047177" d="M131.761,305.157a10.684,10.684,0,0,1-4.239-.816,12.3,12.3,0,0,1-1.637-.8c-3.389,1.269-4.244,5.2-3.347,8.051.931,2.96,6.828,5.392,9.753,3.823s2.879-6.154,1.951-7.666A9.279,9.279,0,0,0,131.761,305.157Z" transform="translate(-120.659 -193.359)" fill="#faab7f"/>
          <path id="Trazado_1047178" data-name="Trazado 1047178" d="M126.191,304.469a12.42,12.42,0,0,0,1.637.8,10.687,10.687,0,0,0,4.239.816,9.241,9.241,0,0,1,2.481,2.6c.033.054.055.137.085.2a3.839,3.839,0,0,0-.392-1.121,9.239,9.239,0,0,0-2.481-2.6,10.682,10.682,0,0,1-4.239-.816,12.3,12.3,0,0,1-1.637-.8c-3.389,1.269-4.244,5.2-3.347,8.05a3.213,3.213,0,0,0,.21.5C122.054,309.291,122.962,305.676,126.191,304.469Z" transform="translate(-120.659 -193.359)" fill="#e08870"/>
          <path id="Trazado_1047179" data-name="Trazado 1047179" d="M129,291.55l-2-1.126c-.422-.237-.477-.937-.124-1.562l1.994-4.737c.353-.625.98-.94,1.4-.7a15.934,15.934,0,0,1,2,1.249c.819.633,1.418,1.957.975,4.332S130.05,292.142,129,291.55Z" transform="translate(-120.65 -193.401)" fill="#f4bea4"/>
          <path id="Trazado_1047180" data-name="Trazado 1047180" d="M129.5,303.839l-2-1.126c-.421-.237-.477-.937-.124-1.562l1.994-4.737c.353-.625.98-.94,1.4-.7a15.936,15.936,0,0,1,2,1.249c.819.633,1.418,1.957.975,4.332S130.551,304.431,129.5,303.839Z" transform="translate(-120.649 -193.375)" fill="#f4bea4"/>
          <path id="Trazado_1047181" data-name="Trazado 1047181" d="M129.1,314.435l-1.835-1.034c-.387-.218-.438-.861-.114-1.435l1.831-4.349c.324-.574.9-.863,1.287-.644a14.643,14.643,0,0,1,1.839,1.146c.752.581,1.3,1.8.895,3.978A3.079,3.079,0,0,1,129.1,314.435Z" transform="translate(-120.649 -193.352)" fill="#f4bea4"/>
          <path id="Trazado_1047182" data-name="Trazado 1047182" d="M124.349,274.463l-.5-2.036c-.155-.413.19-.815.707-1.12s3.458-1.888,3.458-1.888a.957.957,0,0,1,1.272.374,16.294,16.294,0,0,1,.678,2.04c.215.916-.061,2.162-1.55,3.484A2.732,2.732,0,0,1,124.349,274.463Z" transform="translate(-120.656 -193.429)" fill="#f4bea4"/>
          <path id="Trazado_1047183" data-name="Trazado 1047183" d="M163.231,273.109c-5.5.642-7.912-2.658-7.912-2.658,1.939-.146,7.324-.762,12.259-1.171l.579,2.611S168.755,272.447,163.231,273.109Z" transform="translate(-120.591 -193.43)" fill="#f4bea4"/>
          <path id="Trazado_1047184" data-name="Trazado 1047184" d="M183.987,317.616a20.06,20.06,0,0,1-6.867-6.67v-.02l-.32-3.274A35.357,35.357,0,0,0,183.987,317.616Z" transform="translate(-120.547 -193.351)" fill="#e08870"/>
          <path id="Trazado_1047185" data-name="Trazado 1047185" d="M182.141,281.2c-1.85,2.148-4.818,2.933-7.649,2.907l-.055-.639A36.659,36.659,0,0,0,182.141,281.2Z" transform="translate(-120.552 -193.405)" fill="#e08870"/>
          <path id="Trazado_1047186" data-name="Trazado 1047186" d="M181.264,317.383a15.672,15.672,0,0,0-3.25,2.606l-.13-1.278A5.089,5.089,0,0,1,181.264,317.383Z" transform="translate(-120.545 -193.331)" fill="#e08870"/>
          <path id="Trazado_1047187" data-name="Trazado 1047187" d="M192.531,336.723c-.68.037-1.322.052-1.943.066,3.415-2.153,5.221-6.206,6.17-10.152.18-.733.32-1.5.559-2.259C197.876,328.744,196.166,334.2,192.531,336.723Z" transform="translate(-120.519 -193.317)" fill="#e08870"/>
          <path id="Trazado_1047188" data-name="Trazado 1047188" d="M199.887,315.252c2.814-3.967,3.811-9.24,2.106-13.623.393.2.8.378,1.255.554.061.017.122.033.2.049C205,306.683,203.7,312.374,199.887,315.252Z" transform="translate(-120.5 -193.363)" fill="#e08870"/>
          <path id="Trazado_1047189" data-name="Trazado 1047189" d="M179.59,296.25a8.9,8.9,0,0,1-4.106-2.063l-.143-1.517C176.693,293.921,178.082,295.089,179.59,296.25Z" transform="translate(-120.55 -193.382)" fill="#e08870"/>
        </g>
      </g>
    </g>
  </g>
</svg>
