<svg xmlns="http://www.w3.org/2000/svg" xmlns:xlink="http://www.w3.org/1999/xlink" width="93.656" height="93.656" viewBox="0 0 93.656 93.656">
  <defs>
    <filter id="Trazado_982547" x="0" y="0" width="93.656" height="93.656" filterUnits="userSpaceOnUse">
      <feOffset dy="3" input="SourceAlpha"/>
      <feGaussianBlur stdDeviation="3" result="blur"/>
      <feFlood flood-opacity="0.161"/>
      <feComposite operator="in" in2="blur"/>
      <feComposite in="SourceGraphic"/>
    </filter>
  </defs>
  <g id="Grupo_1201166" data-name="Grupo 1201166" transform="translate(-183.461 -621.939)">
    <g id="Grupo_1183674" data-name="Grupo 1183674" transform="translate(-11 -235.188)">
      <g id="Grupo_1182352" data-name="Grupo 1182352" transform="translate(0 -1625.054)">
        <g id="Grupo_1181671" data-name="Grupo 1181671" transform="translate(-0.539 1249.182)">
          <g id="Grupo_1180314" data-name="Grupo 1180314" transform="translate(-5.461 -6557)">
            <g id="Grupo_1174894" data-name="Grupo 1174894" transform="translate(11.291 2507.168)">
              <g id="Grupo_1172067" data-name="Grupo 1172067" transform="translate(198.17 5288.832)">
                <g id="Grupo_1164308" data-name="Grupo 1164308" transform="translate(0 0)">
                  <g id="Grupo_1163948" data-name="Grupo 1163948" transform="translate(0)">
                    <g id="Grupo_1158168" data-name="Grupo 1158168" transform="translate(0)">
                      <g id="Grupo_1152576" data-name="Grupo 1152576">
                        <g id="Grupo_1148633" data-name="Grupo 1148633">
                          <g id="Grupo_1148525" data-name="Grupo 1148525">
                            <g transform="matrix(1, 0, 0, 1, -9, -6)" filter="url(#Trazado_982547)">
                              <g id="Trazado_982547-2" data-name="Trazado 982547" transform="translate(9 6)" fill="#f2f7f5">
                                <path d="M 37.8281364440918 74.15627288818359 C 32.92320251464844 74.15627288818359 28.16579246520996 73.19596862792969 23.68804740905762 71.30204772949219 C 19.36230278015137 69.47240447998047 15.47705841064453 66.85280609130859 12.1402702331543 63.51601409912109 C 8.803469657897949 60.17921447753906 6.1838698387146 56.29397964477539 4.354236602783203 51.96822357177734 C 2.460303068161011 47.49048233032227 1.500003099441528 42.73307037353516 1.500003099441528 37.8281364440918 C 1.500003099441528 32.92321395874023 2.460303068161011 28.16579246520996 4.354236602783203 23.68804740905762 C 6.1838698387146 19.36230278015137 8.803469657897949 15.47706985473633 12.1402702331543 12.1402702331543 C 15.47706985473633 8.803469657897949 19.36230278015137 6.1838698387146 23.68804740905762 4.354236602783203 C 28.16579246520996 2.460303068161011 32.92321395874023 1.500003099441528 37.8281364440918 1.500003099441528 C 42.73307037353516 1.500003099441528 47.49048233032227 2.460303068161011 51.96822357177734 4.354236602783203 C 56.29397964477539 6.1838698387146 60.17921447753906 8.803469657897949 63.51601409912109 12.1402702331543 C 66.85280609130859 15.47705841064453 69.47240447998047 19.36230278015137 71.30204772949219 23.68804740905762 C 73.19596862792969 28.16579246520996 74.15627288818359 32.92320251464844 74.15627288818359 37.8281364440918 C 74.15627288818359 42.73307037353516 73.19596862792969 47.49048233032227 71.30204772949219 51.96822357177734 C 69.47240447998047 56.29397964477539 66.85280609130859 60.17921447753906 63.51601409912109 63.51601409912109 C 60.17921447753906 66.85280609130859 56.29397964477539 69.47240447998047 51.96822357177734 71.30204772949219 C 47.49048233032227 73.19596862792969 42.73307037353516 74.15627288818359 37.8281364440918 74.15627288818359 Z" stroke="none"/>
                                <path d="M 37.8281364440918 3 C 33.12504959106445 3 28.56423568725586 3.920433044433594 24.27237319946289 5.735733032226562 C 20.12542343139648 7.48974609375 16.40044784545898 10.00139617919922 13.20092391967773 13.20092391967773 C 10.00139617919922 16.40044784545898 7.48974609375 20.12542343139648 5.735733032226562 24.27237319946289 C 3.920433044433594 28.56423568725586 3 33.12504959106445 3 37.8281364440918 C 3 42.53122329711914 3.920433044433594 47.09203720092773 5.735733032226562 51.3838996887207 C 7.48974609375 55.53084945678711 10.00139617919922 59.25582122802734 13.20092391967773 62.45534896850586 C 16.40044784545898 65.65487670898438 20.12542343139648 68.16652679443359 24.27237319946289 69.92053985595703 C 28.56423568725586 71.73583984375 33.12504959106445 72.65627288818359 37.8281364440918 72.65627288818359 C 42.53122329711914 72.65627288818359 47.09203720092773 71.73583984375 51.3838996887207 69.92053985595703 C 55.53084945678711 68.16652679443359 59.25582122802734 65.65487670898438 62.45534896850586 62.45534896850586 C 65.65487670898438 59.25582122802734 68.16652679443359 55.53084945678711 69.92053985595703 51.3838996887207 C 71.73583984375 47.09203720092773 72.65627288818359 42.53122329711914 72.65627288818359 37.8281364440918 C 72.65627288818359 33.12504959106445 71.73583984375 28.56423568725586 69.92053985595703 24.27237319946289 C 68.16652679443359 20.12542343139648 65.65487670898438 16.40044784545898 62.45534896850586 13.20092391967773 C 59.25582122802734 10.00139617919922 55.53084945678711 7.48974609375 51.3838996887207 5.735733032226562 C 47.09203720092773 3.920433044433594 42.53122329711914 3 37.8281364440918 3 M 37.8281364440918 0 C 58.72003555297852 0 75.65627288818359 16.93623733520508 75.65627288818359 37.8281364440918 C 75.65627288818359 58.72003555297852 58.72003555297852 75.65627288818359 37.8281364440918 75.65627288818359 C 16.93623733520508 75.65627288818359 0 58.72003555297852 0 37.8281364440918 C 0 16.93623733520508 16.93623733520508 0 37.8281364440918 0 Z" stroke="none" fill="#4a665c"/>
                              </g>
                            </g>
                          </g>
                        </g>
                      </g>
                    </g>
                  </g>
                </g>
              </g>
            </g>
          </g>
        </g>
      </g>
    </g>
    <g id="analisis_2_" data-name="analisis (2)" transform="translate(207.112 636.858)">
      <g id="Grupo_1201164" data-name="Grupo 1201164" transform="translate(0.679 7.237)">
        <g id="Grupo_1201162" data-name="Grupo 1201162" transform="translate(0 0)">
          <path id="Trazado_1047040" data-name="Trazado 1047040" d="M7.5,48.857V76.871a1.242,1.242,0,0,0,1.242,1.242h36.6a1.242,1.242,0,0,0,1.242-1.242V48.857a1.242,1.242,0,0,0-1.242-1.242H8.742A1.242,1.242,0,0,0,7.5,48.857Z" transform="translate(-7.5 -44.577)" fill="#ebeef2"/>
          <path id="Trazado_1047041" data-name="Trazado 1047041" d="M402.937,47.616h-2.248a1.242,1.242,0,0,1,1.242,1.242V76.872a1.242,1.242,0,0,1-1.242,1.242h2.248a1.242,1.242,0,0,0,1.242-1.242V48.858A1.242,1.242,0,0,0,402.937,47.616Z" transform="translate(-365.091 -44.578)" fill="#d1d6de"/>
          <g id="Grupo_1201161" data-name="Grupo 1201161" transform="translate(8.611 6.926)">
            <g id="Grupo_1201157" data-name="Grupo 1201157" transform="translate(0 8.707)">
              <circle id="Elipse_14226" data-name="Elipse 14226" cx="1.584" cy="1.584" r="1.584" fill="#5c9cee"/>
            </g>
            <g id="Grupo_1201158" data-name="Grupo 1201158" transform="translate(6.232 5.168)">
              <circle id="Elipse_14227" data-name="Elipse 14227" cx="1.584" cy="1.584" r="1.584" fill="#f2df33"/>
            </g>
            <g id="Grupo_1201159" data-name="Grupo 1201159" transform="translate(12.464 8.707)">
              <circle id="Elipse_14228" data-name="Elipse 14228" cx="1.584" cy="1.584" r="1.584" fill="#ed5575"/>
            </g>
            <g id="Grupo_1201160" data-name="Grupo 1201160" transform="translate(18.697)">
              <circle id="Elipse_14229" data-name="Elipse 14229" cx="1.584" cy="1.584" r="1.584" fill="#9fd479"/>
            </g>
          </g>
          <path id="Trazado_1047042" data-name="Trazado 1047042" d="M80.428,386.638v-2.173h25.883v2.173a.865.865,0,0,1-.865.865H81.293A.865.865,0,0,1,80.428,386.638Z" transform="translate(-73.825 -350.929)" fill="#f2df33"/>
          <path id="Trazado_1047043" data-name="Trazado 1047043" d="M333.372,384.465v2.173a.865.865,0,0,1-.865.865h2.2a.865.865,0,0,0,.865-.865v-2.173Z" transform="translate(-303.082 -350.929)" fill="#fcab29"/>
          <path id="Trazado_1047044" data-name="Trazado 1047044" d="M189.243,17.1V15.082a1.025,1.025,0,0,1,1.025-1.025h4.13a1.025,1.025,0,0,1,1.025,1.025V17.1h-6.179Z" transform="translate(-172.788 -14.057)" fill="#f2df33"/>
          <path id="Trazado_1047045" data-name="Trazado 1047045" d="M223.967,14.058h-2.211a1.025,1.025,0,0,1,1.025,1.025V17.1h2.211V15.083A1.025,1.025,0,0,0,223.967,14.058Z" transform="translate(-202.358 -14.058)" fill="#fcab29"/>
          <rect id="Rectángulo_416371" data-name="Rectángulo 416371" width="2.755" height="6" transform="translate(8.819 23.632)" fill="#48cfb7"/>
          <rect id="Rectángulo_416372" data-name="Rectángulo 416372" width="2.755" height="9.47" transform="translate(15.051 20.162)" fill="#48cfb7"/>
          <rect id="Rectángulo_416373" data-name="Rectángulo 416373" width="2.755" height="6" transform="translate(21.283 23.632)" fill="#48cfb7"/>
          <rect id="Rectángulo_416374" data-name="Rectángulo 416374" width="2.755" height="12.176" transform="translate(27.515 17.456)" fill="#48cfb7"/>
        </g>
        <g id="Grupo_1201163" data-name="Grupo 1201163" transform="translate(26.755 12.485)">
          <path id="Trazado_1047046" data-name="Trazado 1047046" d="M409.456,292.963l5.055,8.755a1.9,1.9,0,0,0,2.6.7h0a1.9,1.9,0,0,0,.7-2.6l-5.055-8.755Z" transform="translate(-399.819 -278.467)" fill="#ed5575"/>
          <path id="Trazado_1047047" data-name="Trazado 1047047" d="M412.751,291.06l-3.295,1.9,1.97,3.413a10.361,10.361,0,0,0,3.295-1.9Z" transform="translate(-399.819 -278.466)" fill="#cc3a60"/>
          <circle id="Elipse_14230" data-name="Elipse 14230" cx="8.196" cy="8.196" r="8.196" fill="#f2df33"/>
          <circle id="Elipse_14231" data-name="Elipse 14231" cx="5.768" cy="5.768" r="5.768" transform="translate(2.428 2.428)" fill="#5c9cee"/>
        </g>
      </g>
      <g id="Grupo_1201165" data-name="Grupo 1201165" transform="translate(0 6.558)">
        <path id="Trazado_1047048" data-name="Trazado 1047048" d="M116.078,87.588a2.266,2.266,0,1,0-1.808-.9l-3.719,5.2a2.257,2.257,0,0,0-2.245.495l-2.479-1.407a2.263,2.263,0,1,0-4.425,0l-2.479,1.407a2.26,2.26,0,1,0,.672,1.18l2.479-1.407a2.258,2.258,0,0,0,3.081,0l2.479,1.407a2.264,2.264,0,1,0,4.021-.884l3.719-5.2A2.256,2.256,0,0,0,116.078,87.588Zm0-3.169a.905.905,0,1,1-.905.905A.906.906,0,0,1,116.078,84.419Zm-18.7,10.518a.905.905,0,1,1,.905-.905A.906.906,0,0,1,97.381,94.937Zm6.232-3.539a.905.905,0,1,1,.905-.905A.906.906,0,0,1,103.613,91.4Zm6.232,3.539a.905.905,0,1,1,.905-.905A.906.906,0,0,1,109.846,94.937Z" transform="translate(-86.506 -76.135)"/>
        <path id="Trazado_1047049" data-name="Trazado 1047049" d="M37.917,70.613h-36a.563.563,0,0,1-.563-.563V42.037a.563.563,0,0,1,.563-.563h3.2a.679.679,0,0,0,0-1.358h-3.2A1.923,1.923,0,0,0,0,42.037V70.051a1.923,1.923,0,0,0,1.921,1.921H6.6v1.494A1.546,1.546,0,0,0,8.147,75.01h6.8l-3.2,6.247a.679.679,0,1,0,1.209.619l3.517-6.866h7.508l3.517,6.866a.679.679,0,1,0,1.209-.619L25.5,75.01h6.8a1.546,1.546,0,0,0,1.544-1.544V71.972h4.073a.679.679,0,0,0,0-1.358Zm-5.431,2.852a.186.186,0,0,1-.186.186H8.147a.186.186,0,0,1-.186-.186V71.972H32.486Z" transform="translate(0 -37.078)"/>
        <path id="Trazado_1047050" data-name="Trazado 1047050" d="M79.75,10.954h30.688a.563.563,0,0,1,.563.563v6.456a.679.679,0,0,0,1.358,0V11.517A1.923,1.923,0,0,0,110.438,9.6H95.9V8.262a1.706,1.706,0,0,0-1.7-1.7H90.07a1.706,1.706,0,0,0-1.7,1.7V9.6H79.75a.679.679,0,1,0,0,1.358Zm9.975-2.693a.346.346,0,0,1,.346-.345H94.2a.346.346,0,0,1,.346.345V9.6H89.725V8.262Z" transform="translate(-71.912 -6.558)"/>
        <path id="Trazado_1047051" data-name="Trazado 1047051" d="M98.081,267.576a.679.679,0,0,0-.679.679v6a.679.679,0,0,0,.679.679h2.755a.679.679,0,0,0,.679-.679v-6a.679.679,0,0,0-.679-.679Zm2.076,6h-1.4v-4.642h1.4Z" transform="translate(-88.583 -243.944)"/>
        <path id="Trazado_1047052" data-name="Trazado 1047052" d="M166.916,229.248a.679.679,0,0,0-.679.679v9.47a.679.679,0,0,0,.679.679h2.755a.679.679,0,0,0,.679-.679v-9.47a.679.679,0,0,0-.679-.679Zm2.076,9.47h-1.4v-8.112h1.4Z" transform="translate(-151.186 -209.086)"/>
        <path id="Trazado_1047053" data-name="Trazado 1047053" d="M235.752,267.576a.679.679,0,0,0-.679.679v6a.679.679,0,0,0,.679.679h2.755a.679.679,0,0,0,.679-.679v-6a.679.679,0,0,0-.679-.679Zm2.076,6h-1.4v-4.642h1.4Z" transform="translate(-213.79 -243.944)"/>
        <path id="Trazado_1047054" data-name="Trazado 1047054" d="M304.588,311.832a.679.679,0,0,0-.679.679V314.5a.679.679,0,0,0,.679.679h2.755a.679.679,0,1,0,0-1.358h-2.076v-1.314A.679.679,0,0,0,304.588,311.832Z" transform="translate(-276.394 -284.193)"/>
        <path id="Trazado_1047055" data-name="Trazado 1047055" d="M314.785,166.162l-3.9-6.747a8.88,8.88,0,1,0-8.78,2.506,8.925,8.925,0,0,0,2.311.306,8.764,8.764,0,0,0,2-.231l3.895,6.748a2.581,2.581,0,1,0,4.471-2.581Zm-12.324-5.553a7.517,7.517,0,1,1,5.7-.751A7.469,7.469,0,0,1,302.461,160.609Zm10.7,7.9a1.224,1.224,0,0,1-1.671-.447l-3.747-6.492a8.913,8.913,0,0,0,2.117-1.224l3.748,6.492a1.222,1.222,0,0,1-.447,1.671Z" transform="translate(-268.776 -131.988)"/>
        <path id="Trazado_1047056" data-name="Trazado 1047056" d="M334.907,179.6a6.426,6.426,0,0,0-.322-4.655.679.679,0,1,0-1.229.579,5.086,5.086,0,1,1-1.533-1.895.679.679,0,1,0,.819-1.083,6.448,6.448,0,1,0,2.264,7.054Z" transform="translate(-293.12 -156.332)"/>
      </g>
    </g>
  </g>
</svg>
