<svg xmlns="http://www.w3.org/2000/svg" xmlns:xlink="http://www.w3.org/1999/xlink" width="93.656" height="93.656" viewBox="0 0 93.656 93.656">
  <defs>
    <filter id="Trazado_982547" x="0" y="0" width="93.656" height="93.656" filterUnits="userSpaceOnUse">
      <feOffset dy="3" input="SourceAlpha"/>
      <feGaussianBlur stdDeviation="3" result="blur"/>
      <feFlood flood-opacity="0.161"/>
      <feComposite operator="in" in2="blur"/>
      <feComposite in="SourceGraphic"/>
    </filter>
  </defs>
  <g id="Grupo_1201168" data-name="Grupo 1201168" transform="translate(-815.461 -621.939)">
    <g id="Grupo_1183676" data-name="Grupo 1183676" transform="translate(-11 -235.188)">
      <g id="Grupo_1182353" data-name="Grupo 1182353" transform="translate(0 -1625.054)">
        <g id="Grupo_1181676" data-name="Grupo 1181676" transform="translate(-0.539 1249.182)">
          <g id="Grupo_1180315" data-name="Grupo 1180315" transform="translate(-3.461 -6557)">
            <g id="Grupo_1180312" data-name="Grupo 1180312">
              <g id="Grupo_1174895" data-name="Grupo 1174895" transform="translate(641.291 2507.168)">
                <g id="Grupo_1172067" data-name="Grupo 1172067" transform="translate(198.17 5288.832)">
                  <g id="Grupo_1164308" data-name="Grupo 1164308" transform="translate(0 0)">
                    <g id="Grupo_1163948" data-name="Grupo 1163948" transform="translate(0)">
                      <g id="Grupo_1158168" data-name="Grupo 1158168" transform="translate(0)">
                        <g id="Grupo_1152576" data-name="Grupo 1152576">
                          <g id="Grupo_1148633" data-name="Grupo 1148633">
                            <g id="Grupo_1148525" data-name="Grupo 1148525">
                              <g transform="matrix(1, 0, 0, 1, -9, -6)" filter="url(#Trazado_982547)">
                                <g id="Trazado_982547-2" data-name="Trazado 982547" transform="translate(9 6)" fill="#f2f7f5">
                                  <path d="M 37.8281364440918 74.15627288818359 C 32.92320251464844 74.15627288818359 28.16579246520996 73.19596862792969 23.68804740905762 71.30204772949219 C 19.36230278015137 69.47240447998047 15.47705841064453 66.85280609130859 12.1402702331543 63.51601409912109 C 8.803469657897949 60.17921447753906 6.1838698387146 56.29397964477539 4.354236602783203 51.96822357177734 C 2.460303068161011 47.49048233032227 1.500003099441528 42.73307037353516 1.500003099441528 37.8281364440918 C 1.500003099441528 32.92321395874023 2.460303068161011 28.16579246520996 4.354236602783203 23.68804740905762 C 6.1838698387146 19.36230278015137 8.803469657897949 15.47706985473633 12.1402702331543 12.1402702331543 C 15.47706985473633 8.803469657897949 19.36230278015137 6.1838698387146 23.68804740905762 4.354236602783203 C 28.16579246520996 2.460303068161011 32.92321395874023 1.500003099441528 37.8281364440918 1.500003099441528 C 42.73307037353516 1.500003099441528 47.49048233032227 2.460303068161011 51.96822357177734 4.354236602783203 C 56.29397964477539 6.1838698387146 60.17921447753906 8.803469657897949 63.51601409912109 12.1402702331543 C 66.85280609130859 15.47705841064453 69.47240447998047 19.36230278015137 71.30204772949219 23.68804740905762 C 73.19596862792969 28.16579246520996 74.15627288818359 32.92320251464844 74.15627288818359 37.8281364440918 C 74.15627288818359 42.73307037353516 73.19596862792969 47.49048233032227 71.30204772949219 51.96822357177734 C 69.47240447998047 56.29397964477539 66.85280609130859 60.17921447753906 63.51601409912109 63.51601409912109 C 60.17921447753906 66.85280609130859 56.29397964477539 69.47240447998047 51.96822357177734 71.30204772949219 C 47.49048233032227 73.19596862792969 42.73307037353516 74.15627288818359 37.8281364440918 74.15627288818359 Z" stroke="none"/>
                                  <path d="M 37.8281364440918 3 C 33.12504959106445 3 28.56423568725586 3.920433044433594 24.27237319946289 5.735733032226562 C 20.12542343139648 7.48974609375 16.40044784545898 10.00139617919922 13.20092391967773 13.20092391967773 C 10.00139617919922 16.40044784545898 7.48974609375 20.12542343139648 5.735733032226562 24.27237319946289 C 3.920433044433594 28.56423568725586 3 33.12504959106445 3 37.8281364440918 C 3 42.53122329711914 3.920433044433594 47.09203720092773 5.735733032226562 51.3838996887207 C 7.48974609375 55.53084945678711 10.00139617919922 59.25582122802734 13.20092391967773 62.45534896850586 C 16.40044784545898 65.65487670898438 20.12542343139648 68.16652679443359 24.27237319946289 69.92053985595703 C 28.56423568725586 71.73583984375 33.12504959106445 72.65627288818359 37.8281364440918 72.65627288818359 C 42.53122329711914 72.65627288818359 47.09203720092773 71.73583984375 51.3838996887207 69.92053985595703 C 55.53084945678711 68.16652679443359 59.25582122802734 65.65487670898438 62.45534896850586 62.45534896850586 C 65.65487670898438 59.25582122802734 68.16652679443359 55.53084945678711 69.92053985595703 51.3838996887207 C 71.73583984375 47.09203720092773 72.65627288818359 42.53122329711914 72.65627288818359 37.8281364440918 C 72.65627288818359 33.12504959106445 71.73583984375 28.56423568725586 69.92053985595703 24.27237319946289 C 68.16652679443359 20.12542343139648 65.65487670898438 16.40044784545898 62.45534896850586 13.20092391967773 C 59.25582122802734 10.00139617919922 55.53084945678711 7.48974609375 51.3838996887207 5.735733032226562 C 47.09203720092773 3.920433044433594 42.53122329711914 3 37.8281364440918 3 M 37.8281364440918 0 C 58.72003555297852 0 75.65627288818359 16.93623733520508 75.65627288818359 37.8281364440918 C 75.65627288818359 58.72003555297852 58.72003555297852 75.65627288818359 37.8281364440918 75.65627288818359 C 16.93623733520508 75.65627288818359 0 58.72003555297852 0 37.8281364440918 C 0 16.93623733520508 16.93623733520508 0 37.8281364440918 0 Z" stroke="none" fill="#4a665c"/>
                                </g>
                              </g>
                            </g>
                          </g>
                        </g>
                      </g>
                    </g>
                  </g>
                </g>
              </g>
            </g>
          </g>
        </g>
      </g>
    </g>
    <g id="identificar_1_" data-name="identificar (1)" transform="translate(838.592 640.702)">
      <path id="Trazado_1047057" data-name="Trazado 1047057" d="M131.727,7.5a16.615,16.615,0,0,0-13.716,25.692,1.08,1.08,0,0,1-.138,1.356L112.226,40.2l3.614,3.614,5.647-5.647a1.08,1.08,0,0,1,1.355-.138A16.613,16.613,0,1,0,131.727,7.5Z" transform="translate(-101.837 -6.806)" fill="#c5d3dd"/>
      <circle id="Elipse_14232" data-name="Elipse 14232" cx="12.779" cy="12.779" r="12.779" transform="translate(17.308 4.528)" fill="#f9f7f8"/>
      <path id="Trazado_1047058" data-name="Trazado 1047058" d="M255.433,55.065a12.783,12.783,0,0,1-11.267,22.569,12.781,12.781,0,1,0,11.267-22.569Z" transform="translate(-221.564 -49.968)" fill="#dff6fd"/>
      <path id="Trazado_1047059" data-name="Trazado 1047059" d="M256.411,104.139l-7,12.123h14Z" transform="translate(-226.325 -94.499)" fill="#fdb441"/>
      <path id="Trazado_1047060" data-name="Trazado 1047060" d="M23.269,339.149l-5.285-5.285a.1.1,0,0,0-.137,0L7.528,344.184a.1.1,0,0,0-.028.069v5.381h5.381a.1.1,0,0,0,.069-.028l10.319-10.319A.1.1,0,0,0,23.269,339.149Z" transform="translate(-6.805 -302.935)" fill="#7a6d79"/>
      <g id="Grupo_1201167" data-name="Grupo 1201167" transform="translate(3.299 2.281)">
        <path id="Trazado_1047061" data-name="Trazado 1047061" d="M48.6,107.417l-3.711-.961a1.278,1.278,0,1,1,.641-2.474l3.711.961a1.278,1.278,0,0,1-.641,2.474Z" transform="translate(-43.158 -96.6)" fill="#fe646f"/>
        <path id="Trazado_1047062" data-name="Trazado 1047062" d="M40.81,190.064l-3.827.234a1.278,1.278,0,1,1-.156-2.551l3.827-.234a1.278,1.278,0,0,1,.156,2.551Z" transform="translate(-35.628 -172.435)" fill="#fe646f"/>
        <path id="Trazado_1047063" data-name="Trazado 1047063" d="M83.659,26.9,80.427,24.84a1.278,1.278,0,0,0-1.375,2.155l3.232,2.062A1.278,1.278,0,0,0,83.659,26.9Z" transform="translate(-74.497 -24.639)" fill="#fe646f"/>
      </g>
      <path id="Trazado_1047064" data-name="Trazado 1047064" d="M78.419,356.711l-6.228-6.228a.114.114,0,0,1,0-.161l2.02-2.021a.114.114,0,0,1,.161,0L80.6,354.53a.114.114,0,0,1,0,.161l-2.02,2.02A.114.114,0,0,1,78.419,356.711Z" transform="translate(-65.477 -316.031)" fill="#c5d3dd"/>
      <path id="Trazado_1047065" data-name="Trazado 1047065" d="M192.946,68.363A13.473,13.473,0,1,0,179.473,54.89,13.488,13.488,0,0,0,192.946,68.363Zm0-25.558A12.085,12.085,0,1,1,180.861,54.89,12.1,12.1,0,0,1,192.946,42.805Z" transform="translate(-162.859 -37.583)"/>
      <path id="Trazado_1047066" data-name="Trazado 1047066" d="M242.607,110.151h14a.694.694,0,0,0,.6-1.041l-1.255-2.174a.694.694,0,0,0-1.2.694l.654,1.133H243.81l5.8-10.041,3.491,6.047a.694.694,0,0,0,1.2-.694l-4.092-7.088a.694.694,0,0,0-1.2,0l-7,12.123a.694.694,0,0,0,.6,1.041Z" transform="translate(-219.52 -87.694)"/>
      <path id="Trazado_1047067" data-name="Trazado 1047067" d="M318.917,152.556a.694.694,0,1,0-1.388,0v1.908a.694.694,0,1,0,1.388,0Z" transform="translate(-288.136 -137.805)"/>
      <circle id="Elipse_14233" data-name="Elipse 14233" cx="0.694" cy="0.694" r="0.694" transform="translate(29.391 18.464)"/>
      <path id="Trazado_1047068" data-name="Trazado 1047068" d="M37.906,100.319l3.711.961a1.972,1.972,0,1,0,.989-3.818L38.894,96.5a1.972,1.972,0,1,0-.989,3.818Zm-.071-2.055a.583.583,0,0,1,.711-.419l3.711.961a.584.584,0,1,1-.293,1.13l-3.711-.961a.584.584,0,0,1-.419-.711Z" transform="translate(-33.055 -87.511)"/>
      <path id="Trazado_1047069" data-name="Trazado 1047069" d="M30.22,184.184l3.827-.234h0a1.972,1.972,0,0,0-.241-3.937l-3.827.234a1.972,1.972,0,1,0,.241,3.937Zm-.558-2.355a.58.58,0,0,1,.4-.2l3.827-.234a.584.584,0,0,1,.071,1.165l-3.827.234A.584.584,0,0,1,29.663,181.829Z" transform="translate(-25.523 -163.347)"/>
      <path id="Trazado_1047070" data-name="Trazado 1047070" d="M71.868,20.78,75.1,22.843a1.972,1.972,0,1,0,2.122-3.325L73.99,17.455a1.972,1.972,0,0,0-2.122,3.325Zm.569-1.977a.585.585,0,0,1,.806-.178l3.232,2.062a.584.584,0,1,1-.628.984L72.615,19.61A.583.583,0,0,1,72.437,18.8Z" transform="translate(-64.387 -15.559)"/>
      <path id="Trazado_1047071" data-name="Trazado 1047071" d="M42.325,5.069a17.342,17.342,0,0,0-23.051-1.3.694.694,0,1,0,.866,1.085A15.931,15.931,0,0,1,46,17.5,15.921,15.921,0,0,1,21.386,30.639a1.782,1.782,0,0,0-2.226.228l-3.53,3.53L13,31.765l3.53-3.53a1.782,1.782,0,0,0,.228-2.226A15.962,15.962,0,0,1,17.9,7.044a.694.694,0,1,0-1.062-.894,17.353,17.353,0,0,0-1.242,20.618.383.383,0,0,1-.048.485l-3.53,3.53-.345-.345a.793.793,0,0,0-1.119,0L9.291,31.7a.808.808,0,0,0-1.049.081L6.222,33.8a.808.808,0,0,0-.081,1.049L.232,40.758A.786.786,0,0,0,0,41.317V46.7a.694.694,0,0,0,.694.694H6.077a.786.786,0,0,0,.559-.232l5.909-5.909a.808.808,0,0,0,1.049-.081l2.02-2.02A.808.808,0,0,0,15.7,38.1l1.26-1.26a.791.791,0,0,0,0-1.119l-.344-.344,3.53-3.53a.383.383,0,0,1,.484-.047,17.308,17.308,0,0,0,21.7-26.732ZM11.111,31.843l4.44,4.44-.831.831-4.44-4.44Zm1.911,7.936-.824-.825a.694.694,0,0,0-.982.982l.341.341L5.829,46H1.389v-4.44l5.727-5.727,1.806,1.806a.694.694,0,0,0,.982-.982l-2.29-2.29,1.2-1.2,5.408,5.408Z"/>
    </g>
  </g>
</svg>
