<svg xmlns="http://www.w3.org/2000/svg" xmlns:xlink="http://www.w3.org/1999/xlink" width="295" height="199" viewBox="0 0 295 199">
  <defs>
    <clipPath id="clip-path">
      <rect id="Rectángulo_416370" data-name="Rectángulo 416370" width="295" height="199" transform="translate(180 1685)" fill="#fff" stroke="#707070" stroke-width="1" opacity="0.84"/>
    </clipPath>
  </defs>
  <g id="Enmascarar_grupo_1183027" data-name="Enmascarar grupo 1183027" transform="translate(-180 -1685)" clip-path="url(#clip-path)">
    <g id="Grupo_1201148" data-name="Grupo 1201148" transform="translate(-889.713 -296.532)">
      <path id="Trazado_1046867" data-name="Trazado 1046867" d="M1378.328,1196.155s1-79.594-70.953-64.1c0,0-23.367,7.557-42.288-18.32-12.294-16.813-46.835-29.413-78.511,17.193-15.473,22.765-42.852,26.316-42.852,26.316s-71.159-1.235-27.581,90.48c63.691,134.045,139.155,42.359,139.155,42.359s19.328-28.078,67.974-27.307C1359.528,1263.355,1378.712,1225.682,1378.328,1196.155Z" transform="translate(-23.304 936.053)" fill="#fff" opacity="0.73"/>
      <g id="Grupo_1201147" data-name="Grupo 1201147" transform="translate(1083.328 1985.238)">
        <path id="Trazado_1046868" data-name="Trazado 1046868" d="M1827.767,1522.961s-.354-.027-1.006-.053-1.6-.053-2.789-.053a84.243,84.243,0,0,0-10.725.69.224.224,0,1,1-.058-.444,84.788,84.788,0,0,1,10.783-.694c2.385,0,3.823.108,3.828.108h0a.219.219,0,0,1,.156.086c4.6-1.323,7.338-2.491,7.21-3.223-.261-1.486-12.251-.638-27.232,1.871a9.219,9.219,0,0,0-1.81-1.894c-.015.019-.019.044-.041.057l-2.114,1.337c0,.024,0,.041,0,.071a6.418,6.418,0,0,1-1.04,3.369c-.942,1.477-2.732,3.033-6.052,3.891a.224.224,0,0,1-.112-.434c3.232-.839,4.9-2.32,5.786-3.7a5.976,5.976,0,0,0,.97-3.129l0-.133,0-.041a.222.222,0,0,1,.1-.208l2.222-1.406h0a.223.223,0,0,1,.3.066c4.731-3.132,7.7-5.935,7.13-6.963-.769-1.385-7.665.973-15.4,5.268l-1.262.739-.1-.127-25.192,14.48c1.135,1.867,2.053,3.906,2.963,5.8a68.039,68.039,0,0,1,4.571,12.2c.375,1.437.68,2.887.942,4.346l-7.466,5.91h0l32.211-25.5.778-.136c14.381-2.522,25.816-5.83,25.542-7.391-.1-.6-1.909-.85-4.9-.8,0,.012.01.02.009.031a.224.224,0,0,1-.25.194l-.051,0c-.038,0-.1-.008-.18-.012-.166-.009-.426-.018-.8-.018a92.9,92.9,0,0,0-13.106,1.346.224.224,0,0,1-.068-.443,93.283,93.283,0,0,1,13.174-1.351,9.941,9.941,0,0,1,1.086.04h0a.211.211,0,0,1,.171.164c4.775-1.367,7.676-2.615,7.536-3.409-.112-.636-2.152-.884-5.5-.783.005.023.023.041.021.065A.219.219,0,0,1,1827.767,1522.961Z" transform="translate(-1553.785 -1404.053)" fill="#f2935a"/>
        <path id="Trazado_1046869" data-name="Trazado 1046869" d="M1844.114,1530.03h0l-2.222,1.406a.222.222,0,0,0-.1.208l0,.041,0,.132a5.974,5.974,0,0,1-.97,3.128c-.882,1.378-2.553,2.859-5.786,3.7a.224.224,0,1,0,.112.434c3.32-.858,5.11-2.413,6.051-3.891a6.419,6.419,0,0,0,1.04-3.369c0-.031,0-.047,0-.071l2.114-1.337c.022-.014.025-.039.041-.057a.213.213,0,0,0,.029-.251s0,0-.005,0A.227.227,0,0,0,1844.114,1530.03Z" transform="translate(-1592.054 -1415.048)" fill="#74160d"/>
        <path id="Trazado_1046870" data-name="Trazado 1046870" d="M1886.343,1549.341h0a10.159,10.159,0,0,0-1.087-.04,93.245,93.245,0,0,0-13.173,1.351.224.224,0,0,0,.068.443,92.8,92.8,0,0,1,13.106-1.346c.374,0,.635.01.8.018.083,0,.142.009.18.013l.051,0a.225.225,0,0,0,.25-.194c0-.012-.009-.02-.009-.032a.2.2,0,0,0-.015-.054A.208.208,0,0,0,1886.343,1549.341Z" transform="translate(-1614.351 -1426.673)" fill="#74160d"/>
        <path id="Trazado_1046871" data-name="Trazado 1046871" d="M1890.883,1538.666h0s-1.443-.108-3.828-.108a84.76,84.76,0,0,0-10.783.694.224.224,0,1,0,.058.444,84.376,84.376,0,0,1,10.725-.69c1.185,0,2.136.027,2.788.054s1,.053,1.006.053a.224.224,0,0,0,.24-.207c0-.025-.016-.042-.021-.065a.225.225,0,0,0-.029-.088A.221.221,0,0,0,1890.883,1538.666Z" transform="translate(-1616.87 -1420.203)" fill="#74160d"/>
        <path id="Trazado_1046872" data-name="Trazado 1046872" d="M1751.843,1581.834l.009,0c.162.339.324.678.492,1.032.958,2.019,1.806,3.817,2.521,5.449l-.013-.009c.287.656.549,1.281.791,1.885h.009c.05.124.086.235.133.357.164.419.318.828.456,1.225.049.14.1.282.146.42l7.466-5.91c-.263-1.458-.567-2.909-.942-4.345a68,68,0,0,0-4.571-12.2c-.91-1.9-1.828-3.935-2.964-5.8h0l-10.532,6.054C1746.9,1572.009,1748.959,1575.8,1751.843,1581.834Z" transform="translate(-1537.839 -1435.483)" fill="#c66c3d"/>
        <path id="Trazado_1046873" data-name="Trazado 1046873" d="M1306.014,1339.245c4.969-4.332,17.724-7.817,34.334-9.5a.212.212,0,0,1,.107-.224.223.223,0,0,1,.3.1l.037.074c1.569-.156,3.178-.292,4.811-.415v0c2.908-.44,5.707-.766,8.392-1l2.756-13.43a13.979,13.979,0,0,1-4.739-9.4H1352l-.007-.186c-.011-.168-.013-.338-.018-.507l-.172-4.716-.007.007c-2.377,1.761-6.361.414-8.9-3.011-2.307-3.112-2.618-6.863-.873-8.844-3.766-6.3-11.826-9.063-19.38-6.192a17.68,17.68,0,0,0-8.033,6.145l-.005-.012c-2.438,3.2-5.207,2.756-6.116,2.5l-.153-.046c-.1-.034-.157-.058-.157-.058v.012a16.628,16.628,0,0,0-12.217.855c-8.325,3.91-12.245,13.557-8.757,21.547a14.823,14.823,0,0,0,2.228,3.574l-.016.009s3.4,3.547.57,10.844c-.034.087-.047.172-.074.258a15.663,15.663,0,0,0,.459,11.152,14.8,14.8,0,0,0,7.516,7.591A37.848,37.848,0,0,1,1306.014,1339.245Z" transform="translate(-1261.471 -1265.01)" fill="#383851"/>
        <path id="Trazado_1046874" data-name="Trazado 1046874" d="M1423.866,1701.836a107.6,107.6,0,0,1-17.875,2.607,184.207,184.207,0,0,1-37.459-1.64,158.973,158.973,0,0,1-32.659-7.98c-4.469-1.655-9.4-3.46-14.076-5.716a197.272,197.272,0,0,0-24.2,94.714q0,4.669.123,9.262h136.385q.118-4.595.123-9.262c0-43.011-7.593-81.583-19.607-107.789l-.038.013A176.2,176.2,0,0,1,1423.866,1701.836Z" transform="translate(-1268.498 -1502.994)" fill="#383851"/>
        <path id="Trazado_1046875" data-name="Trazado 1046875" d="M1405.13,1702.821a184.193,184.193,0,0,0,37.46,1.64,107.572,107.572,0,0,0,17.875-2.608,176.483,176.483,0,0,0-9.281-25.789c-8.651,3.037-24.979,5.029-43.7,4.926-17.105-.094-32.194-1.915-41.246-4.617-2.724,3.975-5.36,8.228-7.872,12.739l.029.013c4.678,2.256,9.607,4.062,14.076,5.717A159.179,159.179,0,0,0,1405.13,1702.821Z" transform="translate(-1305.093 -1503.012)" fill="#1f1e34"/>
        <path id="Trazado_1046876" data-name="Trazado 1046876" d="M1496.96,1428.209a5.286,5.286,0,0,1,.761,1.538h1.451a3.91,3.91,0,0,1,1.815.461c1.058-.87,2.219-1.889,3.444-3.065a63.211,63.211,0,0,0,14.971-22.3c-1.289-.172-2.6-.335-3.942-.484A61.164,61.164,0,0,1,1496.96,1428.209Z" transform="translate(-1388.558 -1339.384)" fill="#ab98c9"/>
        <path id="Trazado_1046877" data-name="Trazado 1046877" d="M1424.259,1403.781c.295.549.737,1.348,1.326,2.339a85.675,85.675,0,0,0,5.276,7.837c1,1.327,2.118,2.718,3.331,4.135a8.805,8.805,0,0,1,3.643-.171,10.518,10.518,0,0,1,2.179.538c-8.448-8.578-11.329-15.816-11.349-15.866-1.634.122-3.242.259-4.811.414C1423.913,1403.125,1424.044,1403.384,1424.259,1403.781Z" transform="translate(-1344.532 -1338.322)" fill="#ab98c9"/>
        <path id="Trazado_1046878" data-name="Trazado 1046878" d="M1388.028,1512.883c-.826,2.177-1.829,4.615-3.007,7.12,2.646-2.864,5.179-5.375,7.412-7.375v-.74a10.445,10.445,0,0,1-3.959.976C1388.326,1512.875,1388.175,1512.879,1388.028,1512.883Z" transform="translate(-1321.146 -1404.141)" fill="#ab98c9"/>
        <path id="Trazado_1046879" data-name="Trazado 1046879" d="M1466.036,1463.064a6.013,6.013,0,0,1-2.11,1.963h4.726c-.871-.684-1.72-1.379-2.538-2.086C1466.088,1462.981,1466.068,1463.025,1466.036,1463.064Z" transform="translate(-1368.665 -1374.665)" fill="#ab98c9"/>
        <path id="Trazado_1046880" data-name="Trazado 1046880" d="M1458.88,1449.436q1.1,1.128,2.291,2.248c.993-1.108,2.08-1.674,2.635-1.285.6.421.37,1.8-.484,3.233.967.839,1.971,1.665,3.013,2.468h2.563c-.11-.08-.221-.149-.331-.235-2.528-1.961-3.908-4.415-3.082-5.479a1.1,1.1,0,0,1,.251-.2q-1.213-1.038-2.317-2.067C1463.176,1449.106,1461.235,1449.655,1458.88,1449.436Z" transform="translate(-1365.625 -1365.738)" fill="#ab98c9"/>
        <path id="Trazado_1046881" data-name="Trazado 1046881" d="M1467.532,1369.625a13.891,13.891,0,0,1-7.1-3.28l-2.383,11.608c4.22.533,8.691-1.758,11.253-4.727a11.09,11.09,0,0,0,2.059-3.572A13.9,13.9,0,0,1,1467.532,1369.625Z" transform="translate(-1365.124 -1316.493)" fill="#c66c3d"/>
        <path id="Trazado_1046882" data-name="Trazado 1046882" d="M1469.829,1309.406a4.767,4.767,0,1,0,1.4,3.37A4.754,4.754,0,0,0,1469.829,1309.406Zm-4.061,3.011c.075-.692.444-1.22.826-1.179s.63.636.555,1.328-.445,1.22-.826,1.179S1465.692,1313.11,1465.768,1312.418Z" transform="translate(-1367.318 -1281.362)" fill="#f2935a"/>
        <path id="Trazado_1046883" data-name="Trazado 1046883" d="M1497.583,1320.886a4.766,4.766,0,1,0-3.371-1.4A4.751,4.751,0,0,0,1497.583,1320.886Zm-1.094-4.61c.148-.68.571-1.165.946-1.084s.558.7.411,1.379-.571,1.166-.946,1.085S1496.342,1316.956,1496.489,1316.276Z" transform="translate(-1386.062 -1283.376)" fill="#f2935a"/>
        <path id="Trazado_1046884" data-name="Trazado 1046884" d="M1472.471,1318.632c.381.041.75-.487.826-1.179s-.173-1.287-.555-1.328-.75.486-.826,1.179S1472.089,1318.592,1472.471,1318.632Z" transform="translate(-1373.468 -1286.248)" fill="#74160d"/>
        <path id="Trazado_1046885" data-name="Trazado 1046885" d="M1468.7,1301.406c2.169,0,3.959.887,3.959-.2s-1.759-1.973-3.927-1.973-3.928.884-3.928,1.973S1466.533,1301.406,1468.7,1301.406Z" transform="translate(-1369.193 -1276.075)" fill="#2f313e"/>
        <path id="Trazado_1046886" data-name="Trazado 1046886" d="M1502.382,1323.457c.376.082.8-.4.946-1.085s-.035-1.3-.41-1.379-.8.4-.946,1.084S1502.009,1323.374,1502.382,1323.457Z" transform="translate(-1391.546 -1289.176)" fill="#74160d"/>
        <path id="Trazado_1046887" data-name="Trazado 1046887" d="M1504.163,1304.875c2.034.755,3.4,2.21,3.782,1.188s-.961-2.462-3-3.217-3.989-.541-4.369.481S1502.131,1304.116,1504.163,1304.875Z" transform="translate(-1390.709 -1277.981)" fill="#2f313e"/>
        <path id="Trazado_1046888" data-name="Trazado 1046888" d="M1483.414,1333.058c.159-.4.318-.721.318-.722a.224.224,0,0,0-.4-.2h0s-.167.338-.333.753a4.079,4.079,0,0,0-.341,1.275.621.621,0,0,0,.083.336.4.4,0,0,0,.348.184,1.422,1.422,0,0,0,.755-.35c.047.12.1.26.176.407a2.65,2.65,0,0,0,.31.505.678.678,0,0,0,.5.291.478.478,0,0,0,.295-.106,1.668,1.668,0,0,0,.446-.9l.032.02a1.44,1.44,0,0,0,.662.215.551.551,0,0,0,.441-.2.885.885,0,0,0,.16-.567,5.777,5.777,0,0,0-.455-1.844.224.224,0,1,0-.419.156,5.462,5.462,0,0,1,.426,1.687.475.475,0,0,1-.06.286l-.093.034a1.055,1.055,0,0,1-.44-.157l-.187-.117-.07-.051-.215-.033-.142.165a3.013,3.013,0,0,1-.263.826l-.1.127-.019.012-.043-.02a1.757,1.757,0,0,1-.421-.644c-.063-.138-.114-.27-.149-.367s-.054-.155-.054-.155l-.15-.146-.205.041a1.944,1.944,0,0,1-.7.433l-.006-.068A3.937,3.937,0,0,1,1483.414,1333.058Z" transform="translate(-1379.943 -1295.818)" fill="#74160d"/>
        <path id="Trazado_1046889" data-name="Trazado 1046889" d="M1484.6,1352.574a3.884,3.884,0,0,1-5.488-.2.224.224,0,0,0-.328.3h0a4.331,4.331,0,0,0,6.121.227.224.224,0,0,0-.3-.328Z" transform="translate(-1377.577 -1308.034)" fill="#74160d"/>
        <path id="Trazado_1046890" data-name="Trazado 1046890" d="M1465.774,1306.88a5.215,5.215,0,1,0,5.081,6.373,3.375,3.375,0,0,1,.831-.121,2.136,2.136,0,0,1,1.011.232,1.525,1.525,0,0,1,.237.154l.012.01a5.212,5.212,0,1,0,.016-.527,2.533,2.533,0,0,0-1.276-.318,3.708,3.708,0,0,0-.747.093,5.18,5.18,0,0,0-5.165-5.9Zm9.014,3.174a4.767,4.767,0,1,1-1.4,3.371A4.755,4.755,0,0,1,1474.788,1310.054Zm-5.64,5.41a4.767,4.767,0,1,1,1.4-3.371A4.75,4.75,0,0,1,1469.148,1315.464Z" transform="translate(-1366.636 -1280.682)" fill="#74160d"/>
        <path id="Trazado_1046891" data-name="Trazado 1046891" d="M1243.359,1518.93c-8.278-2.486-13.055-10.945-10.667-18.9a14.642,14.642,0,0,1,6.957-8.58c-.826-.979-1.173-1.923-.8-2.5.59-.907,2.747-.551,4.9.765l2.235-1.715c-.373-3.132.382-5.79,1.705-5.957.917-.116,1.868.994,2.5,2.728l14.259-10.94c-1.108-.359-1.826-.921-1.87-1.6-.085-1.3,2.349-2.517,5.436-2.719a12.563,12.563,0,0,1,2.021.028l1.2-.918h0l1.491-1.144a10.794,10.794,0,0,1-.57-1.864c-.556-2.623-.112-4.94.994-5.174s2.45,1.7,3.007,4.326c.005.024.006.047.011.071l.254-.194h0l9.968-7.647c.292-.329.584-.656.874-.977,1.423-2.895,2.617-5.748,3.576-8.265-2.658-.013-4.74-.847-4.815-2.013-.085-1.3,2.349-2.517,5.435-2.719.366-.024.723-.031,1.072-.026.3-.914.549-1.705.735-2.321.3-.978.444-1.533.444-1.535h0a.224.224,0,0,1,.433.116s-.388,1.449-1.146,3.758a8.681,8.681,0,0,1,2.73.543v-3.891c-.047-.177-.09-.357-.13-.54a7.6,7.6,0,0,1,.13-4.3v-1.513a3.947,3.947,0,0,1,3.947-3.947h18.834c-.567-.541-.2-2.135.872-3.667.1-.145.207-.276.313-.408q-1.412-1.327-2.705-2.67c-2.563-.4-4.493-1.578-4.34-2.669.059-.423.423-.771.994-1.022a81.154,81.154,0,0,1-10.321-15.119h0c-.012-.025,0-.05,0-.076-16.61,1.685-29.366,5.169-34.334,9.5a37.793,37.793,0,0,0-8.126,7.115,55.614,55.614,0,0,0-5.29,7.132h0l-.01.017a65.308,65.308,0,0,0-3.236,5.811c-10.8,20.748-25.077,59.782-25.631,61.3q-.248.523-.474,1.062c-4.529,10.9-.106,23.106,9.881,27.254,8.854,3.678,19.1-.213,24.472-8.739a14.584,14.584,0,0,1-1.637,1.008A15.734,15.734,0,0,1,1243.359,1518.93Zm6.849-68.549c-1.614-2.141-2.193-4.428-1.291-5.108s2.941.505,4.556,2.646,2.193,4.427,1.291,5.107S1251.823,1452.525,1250.208,1450.381Zm3.858-6.177c-1.918.338-3.587-.043-3.729-.85s1.3-1.735,3.214-2.073,3.587.043,3.73.85S1255.984,1443.865,1254.067,1444.2Zm19.419-12.948c-1.118-.157-1.722-2.437-1.351-5.092s1.58-4.681,2.7-4.525,1.723,2.437,1.351,5.092S1274.6,1431.411,1273.486,1431.255Zm5.323-17.725c1.961-2.529,4.415-3.908,5.479-3.082s.338,3.545-1.624,6.073-4.416,3.909-5.48,3.083S1276.847,1416.06,1278.809,1413.53Zm4.161,11.8c-.471.671-2.144.311-3.738-.806s-2.507-2.567-2.036-3.239,2.145-.31,3.739.807S1283.443,1424.66,1282.969,1425.329Zm-8.29-15.4a8.67,8.67,0,0,1,1.478,3.474c.557,2.624.112,4.94-.992,5.174s-2.451-1.7-3.007-4.325a9.646,9.646,0,0,1-.185-3.012A29.993,29.993,0,0,1,1274.68,1409.931Zm-12.1,10.939c-.085-1.3,2.349-2.518,5.436-2.72s5.66.689,5.744,1.989-2.349,2.517-5.436,2.719S1262.671,1422.17,1262.583,1420.87Zm-11.734,15.366c.367,3.124-.388,5.771-1.708,5.938a1.344,1.344,0,0,1-.99-.327C1249.063,1439.9,1249.966,1438.018,1250.849,1436.236Zm-4.057,8.568a1.05,1.05,0,0,1,.31.163c.98.859.12,3.441-1.921,5.767a12.212,12.212,0,0,1-1.736,1.632C1244.556,1449.792,1245.678,1447.258,1246.791,1444.8Zm-21.949,63.832c1.137.478,2.212,2.641,2.553,5.347a13.281,13.281,0,0,1,.1,1.553A20.638,20.638,0,0,1,1224.842,1508.635Zm8.107,12.605a18.14,18.14,0,0,1-2.608-2.127c1.819-.268,3.367.106,3.5.881C1233.915,1520.41,1233.561,1520.855,1232.949,1521.241Z" transform="translate(-1224.44 -1339.018)" fill="#ab98c9"/>
        <path id="Trazado_1046892" data-name="Trazado 1046892" d="M1709.588,1703.52c-.233.091-.467.182-.7.262C1709.119,1703.7,1709.354,1703.611,1709.588,1703.52Z" transform="translate(-1516.185 -1519.547)" fill="#ab98c9"/>
        <path id="Trazado_1046893" data-name="Trazado 1046893" d="M1703.68,1705.32q-.431.106-.866.191C1703.1,1705.455,1703.393,1705.391,1703.68,1705.32Z" transform="translate(-1512.528 -1520.631)" fill="#ab98c9"/>
        <path id="Trazado_1046894" data-name="Trazado 1046894" d="M1706.7,1704.54c-.232.073-.463.142-.7.205C1706.235,1704.683,1706.466,1704.612,1706.7,1704.54Z" transform="translate(-1514.447 -1520.161)" fill="#ab98c9"/>
        <path id="Trazado_1046895" data-name="Trazado 1046895" d="M1713.381,1702.1c-.117.057-.238.107-.356.162C1713.142,1702.208,1713.262,1702.156,1713.381,1702.1Z" transform="translate(-1518.677 -1518.692)" fill="#ab98c9"/>
        <path id="Trazado_1046896" data-name="Trazado 1046896" d="M1700.456,1705.92c-.388.071-.776.129-1.165.174C1699.681,1706.051,1700.066,1705.992,1700.456,1705.92Z" transform="translate(-1510.406 -1520.992)" fill="#ab98c9"/>
        <path id="Trazado_1046897" data-name="Trazado 1046897" d="M1251.206,1624.23a14.644,14.644,0,0,0-6.958,8.58c-2.388,7.951,2.388,16.411,10.667,18.9a15.733,15.733,0,0,0,15.575-3.717,14.834,14.834,0,0,1-18.246-22.738A8.685,8.685,0,0,1,1251.206,1624.23Z" transform="translate(-1235.999 -1471.797)" fill="#74160d"/>
        <path id="Trazado_1046898" data-name="Trazado 1046898" d="M1444.264,1266.656c.225.3.426.617.613.931a12.1,12.1,0,0,1,1.753-6.013s.9,5.049,15.325-3.507c0,0,1.2,8.52,14.525,0,0,0,1.173,5.491-.7,13.951.225-.2.458-.389.7-.572a10.936,10.936,0,0,1,1.757-1.059,20.873,20.873,0,0,0,1.937-8.022,20.121,20.121,0,1,0-40.2-1.579,21.283,21.283,0,0,0,.057,2.528A9.783,9.783,0,0,1,1444.264,1266.656Z" transform="translate(-1354.23 -1241.018)" fill="#2f313e"/>
        <path id="Trazado_1046899" data-name="Trazado 1046899" d="M1426.13,1298.838c2.538,3.425,6.522,4.773,8.9,3.011l.008-.006.172,4.716c0,.169.007.339.018.507l.007.186.013,0a13.979,13.979,0,0,0,4.74,9.4l-2.757,13.43c-2.685.239-5.483.564-8.392,1l0,0c.02.05,2.9,7.288,11.348,15.866q1.093,1.11,2.312,2.244,1.1,1.027,2.317,2.066a79.872,79.872,0,0,0,6.955,5.317s.495-.312,1.337-.939a61.16,61.16,0,0,0,18.5-23.852h0a77.981,77.981,0,0,0-11.16-1.723l-2.621-12.984a13.918,13.918,0,0,0,4.621-6.635l.016,0,1.477-4.31,0,0c1.761,2.376,5.965,2.246,9.39-.293s4.773-6.522,3.011-8.9c-1.468-1.981-4.635-2.213-7.632-.766a10.872,10.872,0,0,0-1.757,1.059c-.247.183-.48.375-.7.572,1.877-8.46.7-13.951.7-13.951-13.324,8.52-14.525,0-14.525,0-14.428,8.556-15.325,3.507-15.325,3.507a12.1,12.1,0,0,0-1.753,6.013,11.029,11.029,0,0,0-.613-.932,9.777,9.777,0,0,0-4.232-3.343,4.813,4.813,0,0,0-4.667.332,3.8,3.8,0,0,0-.58.546C1423.512,1291.977,1423.823,1295.728,1426.13,1298.838Zm23.628-.012a2.536,2.536,0,0,1,1.276.317,5.217,5.217,0,1,1-.016.527l-.012-.01a1.476,1.476,0,0,0-.237-.153,2.141,2.141,0,0,0-1.011-.233,3.34,3.34,0,0,0-.831.121,5.687,5.687,0,1,1,.084-.477A3.61,3.61,0,0,1,1449.758,1298.826Zm-1.19,5.983.205-.041.15.146s.019.058.054.156.087.229.149.366a1.766,1.766,0,0,0,.421.644l.043.02.019-.012.1-.126a3.026,3.026,0,0,0,.263-.826l.142-.165.215.033.071.051.186.117a1.049,1.049,0,0,0,.44.156l.093-.033a.468.468,0,0,0,.061-.286,5.47,5.47,0,0,0-.426-1.687.224.224,0,1,1,.419-.156,5.787,5.787,0,0,1,.454,1.844.881.881,0,0,1-.16.567.551.551,0,0,1-.441.2,1.444,1.444,0,0,1-.661-.215l-.032-.02a1.664,1.664,0,0,1-.447.9.472.472,0,0,1-.294.106.678.678,0,0,1-.5-.291,2.627,2.627,0,0,1-.31-.505c-.072-.147-.129-.287-.176-.407a1.426,1.426,0,0,1-.755.35.4.4,0,0,1-.347-.185.619.619,0,0,1-.082-.336,4.054,4.054,0,0,1,.341-1.275c.166-.415.331-.75.333-.753h0a.224.224,0,0,1,.4.2s-.159.324-.319.722a3.8,3.8,0,0,0-.309,1.108l.005.068A1.9,1.9,0,0,0,1448.568,1304.809Zm3.465,6.885a4.332,4.332,0,0,1-6.121-.227h0a.224.224,0,1,1,.329-.305,3.883,3.883,0,0,0,5.488.2.224.224,0,1,1,.3.328Zm-3.15,11.866c-2.562,2.969-7.032,5.26-11.253,4.727l2.383-11.607a13.848,13.848,0,0,0,10.929,3.309A11.15,11.15,0,0,1,1448.883,1323.56Zm23.481-26.512a3.1,3.1,0,0,1,2.585,1.125,2.694,2.694,0,0,1,.508,1.632,4.357,4.357,0,0,1-.374,1.689h0a.224.224,0,0,1-.412-.176,3.92,3.92,0,0,0,.338-1.513,2.254,2.254,0,0,0-.421-1.365,2.656,2.656,0,0,0-2.226-.944,5.346,5.346,0,0,0-1.247.178,7.017,7.017,0,0,1,.715,3.233,10.081,10.081,0,0,1-1,4.247.224.224,0,1,1-.407-.188,9.641,9.641,0,0,0,.957-4.059,6.531,6.531,0,0,0-.692-3.079l-.018-.031a7.755,7.755,0,0,0-2.243,1.156,6.02,6.02,0,0,0-2.7,4.377,2.244,2.244,0,0,0,.421,1.365.224.224,0,1,1-.359.267,2.688,2.688,0,0,1-.509-1.632,6.443,6.443,0,0,1,2.883-4.737A7.331,7.331,0,0,1,1472.363,1297.048Zm-17.784-4.881c.38-1.022,2.336-1.237,4.369-.481s3.374,2.2,3,3.217-1.748-.433-3.782-1.188S1454.2,1293.19,1454.579,1292.168Zm-10.334-2.188c2.169,0,3.927.884,3.927,1.973s-1.79.2-3.959.2-3.9.887-3.9-.2S1442.077,1289.98,1444.245,1289.98Zm-17.427,1.042a2.693,2.693,0,0,1,1.632-.509,6.446,6.446,0,0,1,4.738,2.882,7.313,7.313,0,0,1,1.543,4.2,3.1,3.1,0,0,1-1.124,2.585.224.224,0,1,1-.267-.359,2.655,2.655,0,0,0,.943-2.226,6.876,6.876,0,0,0-1.455-3.932,7.737,7.737,0,0,0-1.806-1.762l-.009.008-.059.058c-.052.052-.129.132-.22.241a6.158,6.158,0,0,0-.679.992,8.321,8.321,0,0,0-1,4.1,11.017,11.017,0,0,0,.11,1.54.224.224,0,1,1-.444.062,11.537,11.537,0,0,1-.114-1.6,7.951,7.951,0,0,1,2.028-5.648,4.384,4.384,0,0,0-2.19-.686,2.244,2.244,0,0,0-1.365.421,2.647,2.647,0,0,0-.943,2.223,4.781,4.781,0,0,0,.028.506h0a.224.224,0,1,1-.445.048,5.174,5.174,0,0,1-.031-.554A3.088,3.088,0,0,1,1426.818,1291.022Z" transform="translate(-1344.705 -1266.824)" fill="#f2935a"/>
        <path id="Trazado_1046900" data-name="Trazado 1046900" d="M1428.05,1303.659a5.27,5.27,0,0,0,.03.554.224.224,0,0,0,.446-.048h0a4.69,4.69,0,0,1-.028-.506,2.649,2.649,0,0,1,.943-2.223,2.245,2.245,0,0,1,1.365-.421,4.383,4.383,0,0,1,2.19.686,7.957,7.957,0,0,0-2.027,5.648,11.584,11.584,0,0,0,.114,1.6.224.224,0,1,0,.444-.062,11.048,11.048,0,0,1-.11-1.54,8.327,8.327,0,0,1,1-4.1,6.219,6.219,0,0,1,.679-.992c.091-.108.168-.188.219-.24l.059-.058.009-.009a7.758,7.758,0,0,1,1.805,1.762,6.879,6.879,0,0,1,1.456,3.932,2.657,2.657,0,0,1-.943,2.226.224.224,0,1,0,.267.359,3.1,3.1,0,0,0,1.124-2.585,7.307,7.307,0,0,0-1.543-4.2,6.443,6.443,0,0,0-4.737-2.883,2.691,2.691,0,0,0-1.632.509A3.074,3.074,0,0,0,1428.05,1303.659Z" transform="translate(-1347.059 -1276.88)" fill="#74160d"/>
        <path id="Trazado_1046901" data-name="Trazado 1046901" d="M1527.56,1323.281a2.694,2.694,0,0,0,.509,1.633.224.224,0,0,0,.36-.267,2.24,2.24,0,0,1-.421-1.365,6.02,6.02,0,0,1,2.7-4.377,7.745,7.745,0,0,1,2.243-1.155l.018.031a6.531,6.531,0,0,1,.693,3.08,9.634,9.634,0,0,1-.958,4.059.224.224,0,1,0,.407.188,10.085,10.085,0,0,0,1-4.246,7.014,7.014,0,0,0-.715-3.233,5.353,5.353,0,0,1,1.247-.178,2.655,2.655,0,0,1,2.225.944,2.252,2.252,0,0,1,.421,1.365,3.912,3.912,0,0,1-.339,1.513.224.224,0,1,0,.412.176h0a4.351,4.351,0,0,0,.374-1.689,2.7,2.7,0,0,0-.509-1.632,3.1,3.1,0,0,0-2.585-1.125,7.31,7.31,0,0,0-4.2,1.544A6.451,6.451,0,0,0,1527.56,1323.281Z" transform="translate(-1406.986 -1286.776)" fill="#74160d"/>
        <path id="Trazado_1046902" data-name="Trazado 1046902" d="M1739.75,1575.57c.164.071.325.151.486.241C1740.073,1575.721,1739.913,1575.642,1739.75,1575.57Z" transform="translate(-1534.771 -1442.493)" fill="#ab98c9"/>
        <path id="Trazado_1046903" data-name="Trazado 1046903" d="M1736.61,1574.65a5.052,5.052,0,0,1,.577.126A5.186,5.186,0,0,0,1736.61,1574.65Z" transform="translate(-1532.88 -1441.939)" fill="#ab98c9"/>
        <path id="Trazado_1046904" data-name="Trazado 1046904" d="M1741.27,1576.35c.151.089.3.184.448.29C1741.568,1576.533,1741.417,1576.442,1741.27,1576.35Z" transform="translate(-1535.687 -1442.963)" fill="#ab98c9"/>
        <path id="Trazado_1046905" data-name="Trazado 1046905" d="M1738.2,1575.01a5.023,5.023,0,0,1,.528.186A4.433,4.433,0,0,0,1738.2,1575.01Z" transform="translate(-1533.838 -1442.156)" fill="#ab98c9"/>
        <path id="Trazado_1046906" data-name="Trazado 1046906" d="M1512.5,1498.139c-.234-1.1,1.7-2.451,4.325-3.007a10.856,10.856,0,0,1,1.688-.219c-.242-.6-.5-1.229-.791-1.885-.256-.172-.515-.348-.769-.547-2.528-1.961-3.909-4.415-3.083-5.479a1.307,1.307,0,0,1,.844-.443c-2.884-6.028-4.94-9.823-7-11.849-.124-.121-.248-.231-.371-.34a11.09,11.09,0,0,1-1.2-.1,8.414,8.414,0,0,1-3.689-1.32,6.233,6.233,0,0,1,1.969-.036c-2.105-.325-4.582.618-8.085,2.461a.214.214,0,0,1-.033.262s-.055.051-.158.155-.25.261-.429.465a14.112,14.112,0,0,0-1.307,1.769,11.884,11.884,0,0,0-1.9,6.257l0,.147a.224.224,0,1,1-.448.011l0-.158a13.3,13.3,0,0,1,3.936-8.976h0c.021-.02.05-.018.075-.028q-.271-.69-.55-1.393a11.369,11.369,0,0,1-1.3.358c-2.623.555-4.94.111-5.173-.993s1.7-2.451,4.326-3.007c.22-.047.435-.077.65-.11q-.63-1.57-1.281-3.178c-2.033-1.828-3.063-3.891-2.325-4.842a1.05,1.05,0,0,1,.257-.206c-3.11-7.512-6.444-15.195-9.621-21.807a10.3,10.3,0,0,1-2.122,3.551c-2.04,2.325-4.488,3.516-5.467,2.657s-.12-3.442,1.921-5.768c1.518-1.73,3.26-2.828,4.456-2.925-.547-1.1-1.088-2.173-1.62-3.195a65.291,65.291,0,0,0-3.233-5.808l-.01-.016h0c-4.82-7.673-10.705-13.3-16.391-15.839-5.589-2.981-14.967-5.457-26.6-7.038,0,.012.006.025,0,.037a63.518,63.518,0,0,1-18.442,25.505,3.939,3.939,0,0,1,1.714,3.251v10.095a10.465,10.465,0,0,1,2.183.078c2.655.372,4.68,1.58,4.524,2.7s-2.436,1.723-5.092,1.351a10.967,10.967,0,0,1-1.615-.351V1485.8a3.947,3.947,0,0,1-3.946,3.947h-26.9a9.923,9.923,0,0,1-2.051,4.224c-1.962,2.528-4.416,3.909-5.48,3.082s-.337-3.545,1.625-6.073a13.368,13.368,0,0,1,1.084-1.233h-3.657c-.131,0-.256-.026-.384-.039a11.269,11.269,0,0,1,.307,1.144c.557,2.623.112,4.94-.993,5.174s-2.451-1.7-3.007-4.326c-.427-2.015-.26-3.839.339-4.687a3.907,3.907,0,0,1-.21-1.213v-8.818l-5.049,5.578h0l-4.417,4.88h0l-11.447,12.649c1.132,5.217,1.918,8.178,1.918,8.178h.011c.5,1.949,3.7,3.767,8.837,5.3,9.052,2.7,24.14,4.523,41.246,4.617,18.721.1,35.049-1.89,43.7-4.926l.038-.013c4.14-1.459,6.519-3.156,6.529-4.979a149.281,149.281,0,0,0,4.252-16.779c-.009,0-.016,0-.024,0a.224.224,0,0,1-.149-.28s.053-.172.146-.5.228-.819.388-1.445c.322-1.253.75-3.06,1.178-5.275a91.185,91.185,0,0,0,1.714-17c0-9.541-1.841-20.045-8.173-27.845a.224.224,0,0,1,.348-.283c6.429,7.927,8.272,18.534,8.272,28.128a93.137,93.137,0,0,1-3.446,24.358h0c-.011.035-.041.054-.065.078,3.057,6.366,6.361,12.874,9.911,19.383l.053-.022q.188.52.4,1.036c3.808,9.164,12.728,14.491,21.406,13.5a1.125,1.125,0,0,1-.521-.685c-.235-1.1,1.7-2.45,4.325-3.007,2.277-.483,4.32-.209,4.973.594q-.773.417-1.49.759a41.311,41.311,0,0,0,4.345-2.451c-.585-.53-.221-2.136.859-3.678,1.117-1.595,2.567-2.505,3.239-2.036.634.445.338,1.964-.639,3.475,13.471-8.835,16.9-12.656,15.05-19.8a10.591,10.591,0,0,1-2.049.65C1515.048,1499.686,1512.733,1499.241,1512.5,1498.139Zm-35.955,6c-2.248-1.462-3.571-3.414-2.956-4.36s2.937-.53,5.184.933,3.572,3.414,2.957,4.36S1478.79,1505.6,1476.543,1504.141Zm-6.177-11.87c1.614,2.141,2.193,4.427,1.291,5.107s-2.942-.5-4.555-2.646-2.193-4.427-1.292-5.107S1468.755,1490.131,1470.365,1492.272Zm5.028-.354c2.04-2.326,4.488-3.515,5.468-2.656s.119,3.441-1.921,5.766-4.488,3.515-5.467,2.656S1473.357,1494.245,1475.393,1491.918Zm23.219-17.665a19.458,19.458,0,0,1,2.657-1.026,8.573,8.573,0,0,1,1.569,4.85c.2,3.088-.689,5.66-1.989,5.744s-2.517-2.349-2.719-5.436A10.292,10.292,0,0,1,1498.612,1474.252Zm-25.024-25.848c.615-.947,2.937-.529,5.185.932s3.572,3.414,2.957,4.36-2.937.529-5.185-.931S1472.971,1449.351,1473.587,1448.4Zm.99,6.146c.4,3.176-.358,5.886-1.695,6.055s-2.745-2.268-3.146-5.443.358-5.886,1.694-6.055S1474.18,1451.372,1474.578,1454.55Zm-8.071-7.474c1.917-.338,3.586.043,3.729.85s-1.3,1.735-3.214,2.073-3.587-.043-3.729-.85S1464.59,1447.414,1466.507,1447.076Zm-.7-8.823c.9-.68,2.942.505,4.556,2.646s2.193,4.427,1.291,5.107-2.941-.5-4.555-2.645S1464.908,1438.933,1465.811,1438.253Zm-14.674-8.588c.4,3.175-.358,5.886-1.695,6.054s-2.745-2.268-3.147-5.443.359-5.886,1.7-6.054S1450.739,1426.491,1451.137,1429.665Zm-29.614,75.2c-1.118,1.594-2.567,2.505-3.239,2.035s-.309-2.145.807-3.738,2.567-2.506,3.238-2.036S1422.64,1503.27,1421.522,1504.865Zm-.764-12.61c-.2-3.087.689-5.66,1.989-5.744s2.517,2.349,2.719,5.436-.687,5.659-1.987,5.745S1420.962,1495.342,1420.758,1492.256Zm8.6,3.83c2.623-.556,4.94-.111,5.173.993s-1.7,2.451-4.325,3.007-4.94.113-5.173-.993S1426.741,1496.643,1429.363,1496.086Zm.72-44.722c2.53,1.961,3.909,4.415,3.083,5.479s-3.546.338-6.074-1.624-3.908-4.416-3.083-5.48S1427.556,1449.4,1430.082,1451.364Zm-.72-6.651c2.623-.557,4.94-.112,5.173.993s-1.7,2.45-4.325,3.007-4.94.111-5.173-.993S1426.741,1445.27,1429.363,1444.713Zm10.489,30.927c-.142-.808,1.3-1.736,3.214-2.073s3.587.043,3.729.851-1.3,1.735-3.214,2.073S1439.995,1476.448,1439.852,1475.641Zm9.59,11.452c-1.337.169-2.745-2.268-3.147-5.443s.359-5.886,1.7-6.056,2.746,2.268,3.146,5.444S1450.779,1486.925,1449.442,1487.092Zm-1.225-14.6c-.9.68-2.941-.505-4.556-2.646s-2.193-4.428-1.291-5.107,2.941.5,4.556,2.646S1449.12,1471.818,1448.217,1472.494Zm-4.555-54.018c-1.614-2.142-2.193-4.428-1.291-5.108s2.941.5,4.556,2.645,2.193,4.428,1.291,5.108S1445.277,1420.616,1443.663,1418.476Zm3.134,4.567c.142.807-1.3,1.736-3.214,2.073s-3.587-.043-3.73-.85,1.3-1.736,3.215-2.074S1446.654,1422.235,1446.8,1423.042Zm5.159-7.383c2.04-2.327,4.488-3.516,5.467-2.657s.12,3.441-1.921,5.767-4.488,3.514-5.467,2.655S1449.916,1417.987,1451.956,1415.66Zm-31.2,25.223c-.2-3.087.689-5.659,1.989-5.744s2.517,2.348,2.719,5.436-.687,5.659-1.987,5.745S1420.962,1443.969,1420.758,1440.883Zm-1.667,10.9c1.117-1.594,2.567-2.506,3.238-2.035s.311,2.144-.806,3.738-2.567,2.506-3.239,2.036S1417.974,1453.381,1419.092,1451.786Zm-6.73,45.625c.157-1.118,2.436-1.723,5.092-1.351s4.681,1.58,4.524,2.7-2.437,1.724-5.092,1.351S1412.2,1498.533,1412.361,1497.411Zm-35.454,1.32c.471-.671,2.144-.31,3.739.807s2.506,2.567,2.035,3.239-2.144.31-3.738-.807S1376.438,1499.4,1376.907,1498.731Zm-9.177-3.134c3.088-.2,5.66.688,5.745,1.988s-2.349,2.518-5.436,2.72-5.659-.689-5.744-1.988S1364.644,1495.8,1367.731,1495.6Zm5.466,13.107c-1.119-.157-1.723-2.436-1.351-5.092s1.58-4.681,2.7-4.525,1.722,2.437,1.351,5.091S1374.314,1508.859,1373.2,1508.7Zm24.1,9.38c-.043-2.784.808-5,2.013-5.08,1.262-.083,2.444,2.211,2.7,5.171Q1399.616,1518.152,1397.294,1518.083Zm29.8-11.492c-2.529-1.962-3.908-4.416-3.083-5.48s3.545-.337,6.073,1.624,3.909,4.416,3.082,5.48S1429.621,1508.553,1427.091,1506.592Zm26.011-27.335c-2.248-1.462-3.571-3.414-2.956-4.36s2.937-.53,5.185.933,3.572,3.413,2.957,4.36S1455.349,1480.716,1453.1,1479.256Zm4.32-14.877c.98.859.12,3.441-1.921,5.767s-4.488,3.515-5.467,2.656-.12-3.441,1.92-5.767S1456.443,1463.52,1457.422,1464.379Zm.867-35.565c-.616.947-2.937.53-5.185-.932s-3.571-3.413-2.956-4.36,2.937-.529,5.185.932S1458.9,1427.867,1458.289,1428.814Zm5,71.708c-.143-.807,1.3-1.735,3.215-2.073s3.586.043,3.729.85-1.3,1.736-3.214,2.074S1463.436,1501.329,1463.293,1500.521Zm9.59,11.456c-1.337.169-2.745-2.269-3.146-5.443s.358-5.885,1.694-6.054,2.745,2.269,3.146,5.444S1474.22,1511.81,1472.883,1511.978Zm20.629,6.993c-2.528-1.962-3.909-4.415-3.083-5.48s3.546-.338,6.074,1.624,3.908,4.416,3.082,5.48S1496.038,1520.931,1493.512,1518.97Z" transform="translate(-1300.709 -1340.208)" fill="#ab98c9"/>
        <path id="Trazado_1046907" data-name="Trazado 1046907" d="M1742.76,1577.36c.139.1.277.213.415.333C1743.039,1577.575,1742.9,1577.464,1742.76,1577.36Z" transform="translate(-1536.584 -1443.571)" fill="#ab98c9"/>
        <path id="Trazado_1046908" data-name="Trazado 1046908" d="M1773.97,1635.33q.188.576.339,1.122C1774.209,1636.086,1774.1,1635.716,1773.97,1635.33Z" transform="translate(-1555.38 -1478.482)" fill="#ab98c9"/>
        <path id="Trazado_1046909" data-name="Trazado 1046909" d="M1715.5,1700.53q-.677.322-1.3.576C1714.618,1700.936,1715.051,1700.745,1715.5,1700.53Z" transform="translate(-1519.385 -1517.747)" fill="#ab98c9"/>
        <path id="Trazado_1046910" data-name="Trazado 1046910" d="M1772.8,1632.055c-.14-.4-.293-.806-.457-1.225C1772.509,1631.252,1772.66,1631.661,1772.8,1632.055Z" transform="translate(-1554.399 -1475.772)" fill="#ab98c9"/>
        <path id="Trazado_1046911" data-name="Trazado 1046911" d="M1356.3,1429.386c1.065.826,3.518-.555,5.48-3.083s2.689-5.248,1.624-6.073-3.518.554-5.479,3.082S1355.231,1428.562,1356.3,1429.386Z" transform="translate(-1303.552 -1348.799)" fill="#fbfbfb"/>
        <path id="Trazado_1046912" data-name="Trazado 1046912" d="M1360.623,1448.127c-1.594-1.117-3.268-1.479-3.738-.808s.441,2.122,2.036,3.239,3.268,1.478,3.738.806S1362.218,1449.245,1360.623,1448.127Z" transform="translate(-1304.127 -1365.054)" fill="#fbfbfb"/>
        <path id="Trazado_1046913" data-name="Trazado 1046913" d="M1348.224,1453.8c.372-2.655-.233-4.935-1.351-5.092s-2.326,1.87-2.7,4.525.233,4.935,1.351,5.092S1347.854,1456.455,1348.224,1453.8Z" transform="translate(-1296.481 -1366.087)" fill="#fbfbfb"/>
        <path id="Trazado_1046914" data-name="Trazado 1046914" d="M1344.05,1423.616c.557,2.623,1.9,4.56,3.007,4.325s1.55-2.55.993-5.174a8.668,8.668,0,0,0-1.479-3.474c-.99.422-1.888.861-2.707,1.31A9.766,9.766,0,0,0,1344.05,1423.616Z" transform="translate(-1296.333 -1348.379)" fill="#fbfbfb"/>
        <path id="Trazado_1046915" data-name="Trazado 1046915" d="M1326.082,1444.62c3.087-.2,5.521-1.42,5.436-2.719s-2.656-2.19-5.744-1.989-5.521,1.42-5.436,2.72S1322.995,1444.819,1326.082,1444.62Z" transform="translate(-1282.191 -1360.78)" fill="#fbfbfb"/>
        <path id="Trazado_1046916" data-name="Trazado 1046916" d="M1478.2,1458.99c.109.085.22.154.33.235h5.891a5.274,5.274,0,0,0-.762-1.537c-.842.627-1.336.939-1.336.939a80.045,80.045,0,0,1-6.955-5.317,1.106,1.106,0,0,0-.251.2C1474.3,1454.575,1475.677,1457.029,1478.2,1458.99Z" transform="translate(-1375.262 -1368.865)" fill="#fbfbfb"/>
        <path id="Trazado_1046917" data-name="Trazado 1046917" d="M1463.828,1460.053c.029-.041.051-.082.079-.123-.758-.655-1.486-1.32-2.2-1.988-.105.132-.212.264-.313.408-1.073,1.532-1.439,3.125-.872,3.667h1.194A6.013,6.013,0,0,0,1463.828,1460.053Z" transform="translate(-1366.456 -1371.654)" fill="#fbfbfb"/>
        <path id="Trazado_1046918" data-name="Trazado 1046918" d="M1467.27,1453.664c-.556-.389-1.643.177-2.635,1.284.7.655,1.411,1.307,2.151,1.949C1467.64,1455.47,1467.871,1454.086,1467.27,1453.664Z" transform="translate(-1369.091 -1369.004)" fill="#fbfbfb"/>
        <path id="Trazado_1046919" data-name="Trazado 1046919" d="M1446.187,1442.973c-.153,1.092,1.777,2.267,4.34,2.669-1.193-1.237-2.308-2.474-3.346-3.691C1446.609,1442.2,1446.247,1442.547,1446.187,1442.973Z" transform="translate(-1357.976 -1362.024)" fill="#fbfbfb"/>
        <path id="Trazado_1046920" data-name="Trazado 1046920" d="M1449.84,1441.13c1.11,1.3,2.309,2.613,3.594,3.928,2.356.221,4.3-.328,4.54-1.317q-1.219-1.134-2.312-2.244a10.512,10.512,0,0,0-2.179-.538A8.913,8.913,0,0,0,1449.84,1441.13Z" transform="translate(-1360.181 -1361.363)" fill="#fbfbfb"/>
        <path id="Trazado_1046921" data-name="Trazado 1046921" d="M1591.971,1452.217c-1.337.169-2.1,2.88-1.7,6.054s1.81,5.612,3.147,5.443,2.1-2.879,1.694-6.054S1593.308,1452.046,1591.971,1452.217Z" transform="translate(-1444.69 -1368.202)" fill="#fbfbfb"/>
        <path id="Trazado_1046922" data-name="Trazado 1046922" d="M1574.226,1449.015c.143.806,1.812,1.188,3.729.85s3.356-1.266,3.214-2.074-1.812-1.188-3.729-.85S1574.087,1448.207,1574.226,1449.015Z" transform="translate(-1435.083 -1364.955)" fill="#fbfbfb"/>
        <path id="Trazado_1046923" data-name="Trazado 1046923" d="M1585.773,1432.4c.9-.68.323-2.966-1.291-5.107s-3.654-3.325-4.556-2.645-.323,2.966,1.291,5.107S1584.875,1433.083,1585.773,1432.4Z" transform="translate(-1438.266 -1351.49)" fill="#fbfbfb"/>
        <path id="Trazado_1046924" data-name="Trazado 1046924" d="M1605.073,1450.631c-2.248-1.461-4.57-1.879-5.185-.932s.708,2.9,2.956,4.361,4.569,1.879,5.185.932S1607.324,1452.091,1605.073,1450.631Z" transform="translate(-1450.452 -1366.385)" fill="#fbfbfb"/>
        <path id="Trazado_1046925" data-name="Trazado 1046925" d="M1604.69,1429.376c2.04-2.326,2.9-4.908,1.92-5.768s-3.427.33-5.467,2.656-2.9,4.908-1.921,5.766S1602.65,1431.7,1604.69,1429.376Z" transform="translate(-1449.899 -1350.81)" fill="#fbfbfb"/>
        <path id="Trazado_1046926" data-name="Trazado 1046926" d="M1285.041,1491.36c1.32-.166,2.075-2.813,1.708-5.937-.885,1.78-1.788,3.659-2.7,5.611A1.345,1.345,0,0,0,1285.041,1491.36Z" transform="translate(-1260.339 -1388.204)" fill="#fbfbfb"/>
        <path id="Trazado_1046927" data-name="Trazado 1046927" d="M1292.75,1497.916c-1.917.337-3.356,1.265-3.214,2.072s1.812,1.188,3.73.851,3.356-1.266,3.214-2.073S1294.667,1497.582,1292.75,1497.916Z" transform="translate(-1263.636 -1395.655)" fill="#fbfbfb"/>
        <path id="Trazado_1046928" data-name="Trazado 1046928" d="M1289.888,1510.5c-1.615-2.141-3.655-3.325-4.556-2.646s-.323,2.967,1.291,5.108,3.655,3.325,4.556,2.645S1291.5,1512.644,1289.888,1510.5Z" transform="translate(-1260.855 -1401.6)" fill="#fbfbfb"/>
        <path id="Trazado_1046929" data-name="Trazado 1046929" d="M1273.952,1512.892c2.041-2.325,2.9-4.907,1.921-5.767a1.05,1.05,0,0,0-.31-.163c-1.115,2.452-2.235,4.989-3.346,7.562A12.356,12.356,0,0,0,1273.952,1512.892Z" transform="translate(-1253.212 -1401.176)" fill="#fbfbfb"/>
        <path id="Trazado_1046930" data-name="Trazado 1046930" d="M1403.106,1481.91a7.591,7.591,0,0,0-.129,4.3c.039.184.083.364.129.541Z" transform="translate(-1331.816 -1386.089)" fill="#fbfbfb"/>
        <path id="Trazado_1046931" data-name="Trazado 1046931" d="M1393.035,1507.2a10.443,10.443,0,0,0,3.959-.976v-3.2a8.678,8.678,0,0,0-2.73-.543c-.436,1.328-1,2.943-1.675,4.735C1392.733,1507.217,1392.884,1507.213,1393.035,1507.2Z" transform="translate(-1325.703 -1398.48)" fill="#fbfbfb"/>
        <path id="Trazado_1046932" data-name="Trazado 1046932" d="M1385.766,1502.437c-.349-.005-.706,0-1.071.026-3.087.2-5.52,1.419-5.436,2.719.076,1.167,2.158,2,4.815,2.013C1384.759,1505.4,1385.324,1503.778,1385.766,1502.437Z" transform="translate(-1317.674 -1398.449)" fill="#fbfbfb"/>
        <path id="Trazado_1046933" data-name="Trazado 1046933" d="M1534.048,1515.637c-.826,1.065.554,3.518,3.082,5.48s5.248,2.689,6.074,1.624-.554-3.518-3.083-5.479S1534.875,1514.571,1534.048,1515.637Z" transform="translate(-1410.749 -1406.104)" fill="#fbfbfb"/>
        <path id="Trazado_1046934" data-name="Trazado 1046934" d="M1522.745,1519.953c1.117-1.594,1.479-3.268.807-3.738s-2.121.441-3.238,2.035-1.479,3.268-.808,3.739S1521.628,1521.548,1522.745,1519.953Z" transform="translate(-1401.933 -1406.673)" fill="#fbfbfb"/>
        <path id="Trazado_1046935" data-name="Trazado 1046935" d="M1514.055,1507.574c2.655.371,4.935-.233,5.091-1.351s-1.869-2.326-4.524-2.7a10.475,10.475,0,0,0-2.183-.078v3.777A11.113,11.113,0,0,0,1514.055,1507.574Z" transform="translate(-1397.88 -1399.043)" fill="#fbfbfb"/>
        <path id="Trazado_1046936" data-name="Trazado 1046936" d="M1542.139,1507.381c2.624-.557,4.56-1.9,4.325-3.007s-2.55-1.549-5.173-.993-4.56,1.9-4.326,3.007S1539.518,1507.934,1542.139,1507.381Z" transform="translate(-1412.639 -1398.875)" fill="#fbfbfb"/>
        <path id="Trazado_1046937" data-name="Trazado 1046937" d="M1528.918,1490.851c1.3-.086,2.19-2.657,1.988-5.744s-1.42-5.522-2.719-5.436-2.19,2.656-1.989,5.743S1527.618,1490.934,1528.918,1490.851Z" transform="translate(-1406.148 -1384.739)" fill="#fbfbfb"/>
        <path id="Trazado_1046938" data-name="Trazado 1046938" d="M1650.9,1514.768c-1.337.169-2.1,2.88-1.695,6.055s1.809,5.612,3.146,5.443,2.095-2.879,1.695-6.055S1652.239,1514.6,1650.9,1514.768Z" transform="translate(-1480.18 -1405.871)" fill="#fbfbfb"/>
        <path id="Trazado_1046939" data-name="Trazado 1046939" d="M1633.155,1511.566c.142.808,1.811,1.188,3.729.85s3.356-1.266,3.214-2.073-1.812-1.188-3.729-.85S1633.012,1510.758,1633.155,1511.566Z" transform="translate(-1470.572 -1402.625)" fill="#fbfbfb"/>
        <path id="Trazado_1046940" data-name="Trazado 1046940" d="M1644.7,1494.963c.9-.68.323-2.966-1.291-5.107s-3.654-3.325-4.556-2.646-.323,2.967,1.292,5.108S1643.8,1495.643,1644.7,1494.963Z" transform="translate(-1473.754 -1389.165)" fill="#fbfbfb"/>
        <path id="Trazado_1046941" data-name="Trazado 1046941" d="M1661.776,1516.611c2.249,1.461,4.57,1.879,5.186.932s-.709-2.9-2.957-4.36-4.57-1.879-5.184-.932S1659.528,1515.151,1661.776,1516.611Z" transform="translate(-1485.942 -1404.055)" fill="#fbfbfb"/>
        <path id="Trazado_1046942" data-name="Trazado 1046942" d="M1660.07,1488.831c-2.04,2.326-2.9,4.908-1.921,5.767s3.427-.331,5.467-2.656a10.3,10.3,0,0,0,2.122-3.551l0-.007q-.61-1.267-1.21-2.479h0C1663.332,1486,1661.589,1487.1,1660.07,1488.831Z" transform="translate(-1485.386 -1388.495)" fill="#fbfbfb"/>
        <path id="Trazado_1046943" data-name="Trazado 1046943" d="M1348.041,1550.592c-.557-2.624-1.9-4.56-3.007-4.326s-1.55,2.551-.993,5.174a10.784,10.784,0,0,0,.57,1.864l3.442-2.641C1348.049,1550.639,1348.045,1550.615,1348.041,1550.592Z" transform="translate(-1296.322 -1424.833)" fill="#fbfbfb"/>
        <path id="Trazado_1046944" data-name="Trazado 1046944" d="M1325.767,1569.06c-3.087.2-5.521,1.42-5.436,2.719.044.675.761,1.237,1.869,1.6l5.588-4.287A13.061,13.061,0,0,0,1325.767,1569.06Z" transform="translate(-1282.187 -1438.557)" fill="#fbfbfb"/>
        <path id="Trazado_1046945" data-name="Trazado 1046945" d="M1591.971,1581.367c-1.337.169-2.1,2.88-1.7,6.055s1.81,5.612,3.147,5.443,2.1-2.88,1.694-6.055S1593.308,1581.2,1591.971,1581.367Z" transform="translate(-1444.69 -1445.979)" fill="#fbfbfb"/>
        <path id="Trazado_1046946" data-name="Trazado 1046946" d="M1577.958,1579.008c1.917-.338,3.356-1.265,3.214-2.073s-1.812-1.188-3.73-.85-3.356,1.265-3.214,2.073S1576.042,1579.346,1577.958,1579.008Z" transform="translate(-1435.085 -1442.728)" fill="#fbfbfb"/>
        <path id="Trazado_1046947" data-name="Trazado 1046947" d="M1584.489,1556.444c-1.615-2.141-3.654-3.326-4.556-2.645s-.323,2.966,1.292,5.107,3.654,3.325,4.556,2.646S1586.1,1558.588,1584.489,1556.444Z" transform="translate(-1438.269 -1429.266)" fill="#fbfbfb"/>
        <path id="Trazado_1046948" data-name="Trazado 1046948" d="M1605.073,1579.781c-2.248-1.462-4.57-1.88-5.185-.933s.708,2.9,2.956,4.36,4.569,1.878,5.185.932S1607.324,1581.24,1605.073,1579.781Z" transform="translate(-1450.452 -1444.161)" fill="#fbfbfb"/>
        <path id="Trazado_1046949" data-name="Trazado 1046949" d="M1599.228,1561.174c.979.859,3.427-.331,5.467-2.656s2.9-4.908,1.92-5.767-3.427.33-5.467,2.656S1598.25,1560.315,1599.228,1561.174Z" transform="translate(-1449.902 -1428.582)" fill="#fbfbfb"/>
        <path id="Trazado_1046950" data-name="Trazado 1046950" d="M1703.349,1552.02l.012.011q-1.016-2.5-2.074-5.064l-.006,0a1.047,1.047,0,0,0-.257.206C1700.287,1548.13,1701.317,1550.19,1703.349,1552.02Z" transform="translate(-1511.307 -1425.267)" fill="#fbfbfb"/>
        <path id="Trazado_1046951" data-name="Trazado 1046951" d="M1731.62,1574.582a8.421,8.421,0,0,0,3.689,1.319,11.167,11.167,0,0,0,1.2.1h.006c-.016-.014-.032-.024-.048-.038-.138-.119-.276-.229-.414-.333-.049-.037-.1-.076-.148-.111-.148-.105-.3-.2-.448-.29l-.118-.07c-.161-.09-.323-.17-.486-.241-.029-.013-.058-.026-.088-.038a5,5,0,0,0-.528-.186l-.055-.016a4.985,4.985,0,0,0-.577-.126l-.017,0A6.166,6.166,0,0,0,1731.62,1574.582Z" transform="translate(-1529.875 -1441.839)" fill="#fbfbfb"/>
        <path id="Trazado_1046952" data-name="Trazado 1046952" d="M1697.911,1570.769c.233,1.1,2.55,1.549,5.173.993a11.415,11.415,0,0,0,1.3-.358l.007,0q-.728-1.843-1.493-3.752l-.008,0c-.215.033-.429.063-.65.11C1699.613,1568.319,1697.676,1569.663,1697.911,1570.769Z" transform="translate(-1509.563 -1437.724)" fill="#fbfbfb"/>
        <path id="Trazado_1046953" data-name="Trazado 1046953" d="M1723.421,1586.021c1.3-.085,2.191-2.657,1.989-5.744a8.574,8.574,0,0,0-1.569-4.85,19.516,19.516,0,0,0-2.657,1.026,10.318,10.318,0,0,0-.482,4.132C1720.9,1583.67,1722.12,1586.1,1723.421,1586.021Z" transform="translate(-1523.283 -1442.407)" fill="#fbfbfb"/>
        <path id="Trazado_1046954" data-name="Trazado 1046954" d="M1280.165,1600.578c-1.323.167-2.078,2.825-1.7,5.957l4.209-3.229C1282.035,1601.572,1281.084,1600.462,1280.165,1600.578Z" transform="translate(-1256.915 -1457.548)" fill="#fbfbfb"/>
        <path id="Trazado_1046955" data-name="Trazado 1046955" d="M1260.434,1617.2c-.373.574-.025,1.517.8,2.5a8.786,8.786,0,0,0,1.039,1.021,14.846,14.846,0,0,1,2.916-2.64l.149-.114C1263.179,1616.644,1261.023,1616.29,1260.434,1617.2Z" transform="translate(-1246.027 -1467.258)" fill="#fbfbfb"/>
        <path id="Trazado_1046956" data-name="Trazado 1046956" d="M1417.938,1616.949a13.354,13.354,0,0,0-1.084,1.233c-1.961,2.528-2.689,5.247-1.625,6.073s3.518-.554,5.48-3.082a9.926,9.926,0,0,0,2.051-4.224h-4.823Z" transform="translate(-1339.043 -1467.412)" fill="#fbfbfb"/>
        <path id="Trazado_1046957" data-name="Trazado 1046957" d="M1417.843,1642.267c1.594,1.117,3.268,1.479,3.738.807s-.441-2.122-2.035-3.239-3.269-1.478-3.739-.807S1416.252,1641.154,1417.843,1642.267Z" transform="translate(-1339.612 -1480.506)" fill="#fbfbfb"/>
        <path id="Trazado_1046958" data-name="Trazado 1046958" d="M1407.154,1645.509c.371-2.655-.233-4.935-1.351-5.092s-2.326,1.869-2.7,4.525.233,4.935,1.351,5.092S1406.784,1648.166,1407.154,1645.509Z" transform="translate(-1331.97 -1481.54)" fill="#fbfbfb"/>
        <path id="Trazado_1046959" data-name="Trazado 1046959" d="M1403.315,1610.08c-.6.848-.767,2.672-.339,4.687.556,2.623,1.9,4.559,3.007,4.326s1.549-2.551.993-5.174a11.292,11.292,0,0,0-.307-1.144A3.921,3.921,0,0,1,1403.315,1610.08Z" transform="translate(-1331.814 -1463.275)" fill="#fbfbfb"/>
        <path id="Trazado_1046960" data-name="Trazado 1046960" d="M1385.01,1636.32c3.087-.2,5.521-1.42,5.436-2.72s-2.657-2.19-5.745-1.988-5.52,1.42-5.436,2.72S1381.919,1636.523,1385.01,1636.32Z" transform="translate(-1317.678 -1476.225)" fill="#fbfbfb"/>
        <path id="Trazado_1046961" data-name="Trazado 1046961" d="M1543.206,1651.892c.826-1.065-.554-3.519-3.083-5.48s-5.247-2.689-6.073-1.624.554,3.519,3.082,5.48S1542.382,1652.954,1543.206,1651.892Z" transform="translate(-1410.75 -1483.882)" fill="#fbfbfb"/>
        <path id="Trazado_1046962" data-name="Trazado 1046962" d="M1520.317,1647.4c-1.117,1.594-1.479,3.268-.808,3.738s2.122-.441,3.239-2.035,1.479-3.268.806-3.739S1521.435,1645.806,1520.317,1647.4Z" transform="translate(-1401.935 -1484.45)" fill="#fbfbfb"/>
        <path id="Trazado_1046963" data-name="Trazado 1046963" d="M1509.638,1636.714c2.655.373,4.935-.233,5.091-1.351s-1.869-2.326-4.524-2.7-4.935.233-5.092,1.351S1506.984,1636.34,1509.638,1636.714Z" transform="translate(-1393.463 -1476.811)" fill="#fbfbfb"/>
        <path id="Trazado_1046964" data-name="Trazado 1046964" d="M1542.139,1636.532c2.624-.556,4.56-1.9,4.325-3.006s-2.55-1.549-5.173-.993-4.56,1.9-4.326,3.007S1539.518,1637.089,1542.139,1636.532Z" transform="translate(-1412.639 -1476.653)" fill="#fbfbfb"/>
        <path id="Trazado_1046965" data-name="Trazado 1046965" d="M1530.9,1614.258c-.2-3.086-1.42-5.52-2.719-5.436s-2.191,2.657-1.989,5.744,1.42,5.521,2.72,5.436S1531.1,1617.344,1530.9,1614.258Z" transform="translate(-1406.144 -1462.516)" fill="#fbfbfb"/>
        <path id="Trazado_1046966" data-name="Trazado 1046966" d="M1654.05,1649.367c-.4-3.175-1.809-5.612-3.146-5.443s-2.1,2.879-1.695,6.054,1.809,5.612,3.146,5.443S1654.451,1652.541,1654.05,1649.367Z" transform="translate(-1480.181 -1483.652)" fill="#fbfbfb"/>
        <path id="Trazado_1046967" data-name="Trazado 1046967" d="M1636.89,1641.567c1.917-.338,3.356-1.266,3.215-2.074s-1.812-1.188-3.729-.851-3.357,1.266-3.214,2.073S1634.973,1641.9,1636.89,1641.567Z" transform="translate(-1470.576 -1480.402)" fill="#fbfbfb"/>
        <path id="Trazado_1046968" data-name="Trazado 1046968" d="M1638.856,1616.36c-.9.68-.323,2.967,1.292,5.107s3.654,3.325,4.555,2.646.323-2.967-1.291-5.108S1639.759,1615.679,1638.856,1616.36Z" transform="translate(-1473.755 -1466.941)" fill="#fbfbfb"/>
        <path id="Trazado_1046969" data-name="Trazado 1046969" d="M1664,1642.341c-2.248-1.462-4.57-1.88-5.185-.933s.709,2.9,2.956,4.36,4.57,1.879,5.186.932S1666.25,1643.8,1664,1642.341Z" transform="translate(-1485.942 -1481.836)" fill="#fbfbfb"/>
        <path id="Trazado_1046970" data-name="Trazado 1046970" d="M1663.62,1621.077c2.04-2.326,2.9-4.907,1.921-5.767s-3.428.33-5.468,2.656-2.9,4.907-1.921,5.766S1661.58,1623.4,1663.62,1621.077Z" transform="translate(-1485.388 -1466.257)" fill="#fbfbfb"/>
        <path id="Trazado_1046971" data-name="Trazado 1046971" d="M1761.292,1609.958c-.168-.355-.33-.693-.492-1.032l-.008,0a1.308,1.308,0,0,0-.844.444c-.826,1.065.555,3.518,3.083,5.479.255.2.513.375.769.547l.013.009C1763.1,1613.776,1762.251,1611.978,1761.292,1609.958Z" transform="translate(-1546.791 -1462.58)" fill="#fbfbfb"/>
        <path id="Trazado_1046972" data-name="Trazado 1046972" d="M1763.452,1631.515c-.139-.4-.293-.807-.456-1.225-.048-.122-.084-.233-.133-.357h-.009a10.919,10.919,0,0,0-1.688.219c-2.623.557-4.56,1.9-4.325,3.007s2.55,1.549,5.173.993a10.629,10.629,0,0,0,2.049-.65l.008,0c-.025-.1-.063-.2-.09-.3q-.15-.546-.339-1.122c-.016-.049-.027-.094-.044-.144h0C1763.551,1631.8,1763.5,1631.658,1763.452,1631.515Z" transform="translate(-1545.052 -1475.231)" fill="#fbfbfb"/>
        <path id="Trazado_1046973" data-name="Trazado 1046973" d="M1225.45,1667.43a20.576,20.576,0,0,0,2.657,6.9,13.206,13.206,0,0,0-.1-1.553C1227.665,1670.072,1226.588,1667.908,1225.45,1667.43Z" transform="translate(-1225.048 -1497.813)" fill="#fbfbfb"/>
        <path id="Trazado_1046974" data-name="Trazado 1046974" d="M1239.27,1693.641a18.149,18.149,0,0,0,2.608,2.127c.616-.383.968-.829.894-1.246C1242.635,1693.748,1241.088,1693.374,1239.27,1693.641Z" transform="translate(-1233.371 -1513.546)" fill="#fbfbfb"/>
        <path id="Trazado_1046975" data-name="Trazado 1046975" d="M1469.26,1675.417c-1.2.078-2.056,2.3-2.013,5.081q2.324.067,4.711.09C1471.7,1677.628,1470.521,1675.333,1469.26,1675.417Z" transform="translate(-1370.663 -1502.621)" fill="#fbfbfb"/>
        <path id="Trazado_1046976" data-name="Trazado 1046976" d="M1710.186,1683c.826-1.065-.553-3.518-3.082-5.48s-5.249-2.689-6.074-1.624.555,3.518,3.083,5.479S1709.358,1684.069,1710.186,1683Z" transform="translate(-1511.309 -1502.618)" fill="#fbfbfb"/>
        <path id="Trazado_1046977" data-name="Trazado 1046977" d="M1732.175,1679.773c-.672-.47-2.122.441-3.239,2.036-1.081,1.542-1.445,3.148-.86,3.678l0,0,.159-.1c1.164-.747,2.251-1.453,3.293-2.136l.005-.009C1732.513,1681.734,1732.807,1680.214,1732.175,1679.773Z" transform="translate(-1527.574 -1505.172)" fill="#fbfbfb"/>
        <path id="Trazado_1046978" data-name="Trazado 1046978" d="M1702.232,1696.72c-2.624.557-4.56,1.9-4.325,3.007a1.125,1.125,0,0,0,.521.685h0l.014,0q.583-.067,1.165-.174c.079-.014.158-.033.236-.048q.434-.084.865-.191c.134-.033.269-.069.4-.105.233-.063.465-.133.7-.205.15-.047.3-.093.45-.145.235-.081.468-.171.7-.262.118-.046.237-.084.355-.133.2-.084.394-.178.59-.268.118-.054.24-.105.356-.162l.06-.027.051-.023q.628-.255,1.3-.577l.038-.017q.718-.342,1.49-.759C1706.556,1696.513,1704.511,1696.239,1702.232,1696.72Z" transform="translate(-1509.561 -1515.309)" fill="#fbfbfb"/>
        <path id="Trazado_1046979" data-name="Trazado 1046979" d="M1709.441,1580.588a13.3,13.3,0,0,0-3.936,8.976v.159a.224.224,0,1,0,.448-.012v-.147a11.886,11.886,0,0,1,1.9-6.257,14,14,0,0,1,1.307-1.769c.178-.2.326-.36.429-.465s.158-.155.158-.155a.214.214,0,0,0,.033-.262c-.009-.017-.006-.039-.02-.054a.211.211,0,0,0-.24-.041c-.029.012-.057.008-.076.028Z" transform="translate(-1514.148 -1445.486)" fill="#74160d"/>
        <path id="Trazado_1046980" data-name="Trazado 1046980" d="M1611.63,1541.374a93.151,93.151,0,0,0,3.446-24.358c0-9.594-1.844-20.2-8.273-28.128a.224.224,0,1,0-.348.283c6.332,7.8,8.173,18.3,8.173,27.845a91.186,91.186,0,0,1-1.714,17c-.429,2.215-.857,4.022-1.178,5.275-.161.626-.294,1.114-.388,1.444s-.146.5-.146.5a.224.224,0,0,0,.149.28c.008,0,.015,0,.024,0a.206.206,0,0,0,.191-.068c.024-.023.056-.042.064-.078Z" transform="translate(-1454.469 -1390.241)" fill="#74160d"/>
        <path id="Trazado_1046981" data-name="Trazado 1046981" d="M1383.438,1508.226c1.177-2.5,2.18-4.943,3.007-7.12.68-1.793,1.239-3.407,1.675-4.735.758-2.309,1.145-3.755,1.146-3.758a.224.224,0,0,0-.432-.116h0s-.149.556-.444,1.535c-.186.616-.434,1.407-.735,2.321-.442,1.341-1.006,2.961-1.691,4.758-.96,2.517-2.154,5.37-3.576,8.265C1382.738,1508.99,1383.088,1508.6,1383.438,1508.226Z" transform="translate(-1319.559 -1392.365)" fill="#74160d"/>
        <path id="Trazado_1046982" data-name="Trazado 1046982" d="M1510.526,1427.558c-1.225,1.176-2.386,2.195-3.444,3.065a3.916,3.916,0,0,1,.418.235,63.523,63.523,0,0,0,18.441-25.505c0-.012,0-.024,0-.037a.218.218,0,0,0-.126-.254.223.223,0,0,0-.29.126l-.028.069A63.2,63.2,0,0,1,1510.526,1427.558Z" transform="translate(-1394.653 -1339.8)" fill="#74160d"/>
        <path id="Trazado_1046983" data-name="Trazado 1046983" d="M1441.307,1426.921c.818.708,1.667,1.4,2.538,2.087h.719q-1.563-1.206-3.013-2.469c-.741-.642-1.454-1.293-2.152-1.949q-1.188-1.117-2.291-2.248c-1.286-1.315-2.484-2.632-3.594-3.928-1.213-1.417-2.328-2.807-3.331-4.135a85.616,85.616,0,0,1-5.276-7.837c-.589-.992-1.031-1.79-1.326-2.339-.213-.4-.345-.656-.4-.774l-.037-.075a.224.224,0,0,0-.3-.1.212.212,0,0,0-.107.224c0,.026-.007.052,0,.076h0a81.19,81.19,0,0,0,10.321,15.119c1.038,1.217,2.153,2.453,3.346,3.691q1.292,1.34,2.706,2.67C1439.824,1425.6,1440.552,1426.264,1441.307,1426.921Z" transform="translate(-1343.856 -1338.645)" fill="#74160d"/>
        <path id="Trazado_1046984" data-name="Trazado 1046984" d="M1489.021,1481.5a2.849,2.849,0,0,0-2.846,2.846v5.1a2.846,2.846,0,1,0,5.692,0v-5.1A2.849,2.849,0,0,0,1489.021,1481.5Zm0,9.057a1.681,1.681,0,1,1,1.681-1.681A1.681,1.681,0,0,1,1489.021,1490.557Zm0-4.384a1.681,1.681,0,1,1,1.681-1.681A1.681,1.681,0,0,1,1489.021,1486.174Z" transform="translate(-1382.063 -1385.842)" fill="#383851"/>
        <path id="Trazado_1046985" data-name="Trazado 1046985" d="M1442.983,1468.18h-35.377a3.947,3.947,0,0,0-3.947,3.947v14.178c4.075-3.65,7.143-5.6,8.02-4.833.981.854-1.021,4.89-4.839,10.273,7.353.368,12.853,1.837,12.853,3.595,0,1.141-2.313,2.16-5.943,2.836,0,0,0,0,0,0a.211.211,0,0,1-.076.091c4.715.558,7.984,1.753,7.984,3.143,0,.928-1.464,1.768-3.835,2.392a.214.214,0,0,1,.007.132l0,0c1.622.568,2.585,1.263,2.585,2.013,0,.923-1.449,1.759-3.8,2.382l.063.03h0a.224.224,0,0,1,.089.3c-.014.026-.042.034-.064.052,1.236.519,1.958,1.124,1.958,1.772,0,1.921-6.242,3.479-13.943,3.479h-.5l-.562.622v8.818a4,4,0,0,0,3.563,3.908c.128.012.253.039.385.039h35.378a3.947,3.947,0,0,0,3.947-3.947v-51.284a3.939,3.939,0,0,0-1.714-3.25,3.873,3.873,0,0,0-.418-.234A3.928,3.928,0,0,0,1442.983,1468.18Zm-.362,13.246a3.294,3.294,0,1,1-6.588,0v-5.1a3.294,3.294,0,1,1,6.588,0Z" transform="translate(-1332.369 -1377.82)" fill="#383851"/>
        <path id="Trazado_1046986" data-name="Trazado 1046986" d="M1488.343,1480.37a3.294,3.294,0,0,0-3.294,3.294v5.1a3.294,3.294,0,1,0,6.588,0v-5.1A3.3,3.3,0,0,0,1488.343,1480.37Zm2.848,8.4a2.846,2.846,0,0,1-5.692,0v-5.1a2.846,2.846,0,0,1,5.692,0Z" transform="translate(-1381.385 -1385.161)" fill="#fff"/>
        <path id="Trazado_1046987" data-name="Trazado 1046987" d="M1490.786,1484.79a1.681,1.681,0,1,0,1.681,1.681A1.681,1.681,0,0,0,1490.786,1484.79Z" transform="translate(-1383.827 -1387.823)" fill="#fff"/>
        <path id="Trazado_1046988" data-name="Trazado 1046988" d="M1490.786,1495.82a1.681,1.681,0,1,0,1.681,1.682A1.682,1.682,0,0,0,1490.786,1495.82Z" transform="translate(-1383.827 -1394.465)" fill="#fff"/>
        <path id="Trazado_1046989" data-name="Trazado 1046989" d="M1300.887,1579.1c-.052,0-.1.008-.157.008a5.415,5.415,0,0,1-5.329-6.44l-4.953-5.806-1.2.918-5.587,4.287-14.259,10.94-4.209,3.229-2.235,1.715-.148.114a14.846,14.846,0,0,0,15.329,25.377,14.666,14.666,0,0,0,1.637-1.008,14.976,14.976,0,0,0,1.476-1.193l12.772-14.112,11.447-12.649Z" transform="translate(-1243.651 -1437.251)" fill="#f2935a"/>
        <path id="Trazado_1046990" data-name="Trazado 1046990" d="M1375.488,1533.85c7.7,0,13.943-1.558,13.943-3.479,0-.648-.722-1.252-1.957-1.772a.212.212,0,0,1-.24.038h0l-.025-.012-.123-.051a5.619,5.619,0,0,0-.587-.179,18.677,18.677,0,0,0-2.931-.453.224.224,0,0,1,.04-.446,12.773,12.773,0,0,1,3.78.719c2.348-.623,3.8-1.459,3.8-2.382,0-.751-.963-1.445-2.585-2.013a.223.223,0,0,1-.284.134s-.133-.047-.383-.124-.615-.182-1.069-.3a23.921,23.921,0,0,0-3.615-.617.224.224,0,0,1,.04-.446,23.343,23.343,0,0,1,5.177,1.061h0a.211.211,0,0,1,.129.154c2.371-.624,3.835-1.464,3.835-2.392,0-1.389-3.269-2.585-7.984-3.143a.211.211,0,0,1-.2.056l-.019-.005-.085-.021c-.082-.018-.216-.045-.418-.077-.4-.064-1.081-.149-2.154-.23a.224.224,0,1,1,.034-.447,15.372,15.372,0,0,1,2.777.353h0a.224.224,0,0,1,.146.278c3.63-.676,5.943-1.7,5.943-2.836,0-1.759-5.5-3.227-12.853-3.595,3.818-5.383,5.82-9.419,4.839-10.273-.877-.764-3.945,1.183-8.02,4.833-2.233,2-4.766,4.511-7.412,7.375q-.523.565-1.052,1.151c-.291.321-.582.648-.874.976l-9.967,7.647,4.6,5.4c.162-.015.326-.025.493-.025a5.408,5.408,0,0,1,5.254,6.763l3.907,4.581,5.049-5.578.563-.621h.5Z" transform="translate(-1303.141 -1397.697)" fill="#f2935a"/>
        <path id="Trazado_1046991" data-name="Trazado 1046991" d="M1430.732,1555.742h0a23.322,23.322,0,0,0-5.177-1.061.224.224,0,0,0-.04.446,23.9,23.9,0,0,1,3.615.617c.455.114.819.219,1.069.3s.382.124.383.124a.223.223,0,0,0,.284-.134l0,0a.262.262,0,0,0-.136-.286Z" transform="translate(-1345.409 -1429.912)" fill="#74160d"/>
        <path id="Trazado_1046992" data-name="Trazado 1046992" d="M1426.361,1567.318a.224.224,0,0,0-.04.446,18.734,18.734,0,0,1,2.931.453,5.5,5.5,0,0,1,.587.18l.123.05.025.012h0a.211.211,0,0,0,.24-.037c.021-.018.05-.026.064-.052a.225.225,0,0,0-.09-.3h0l-.062-.03A12.66,12.66,0,0,0,1426.361,1567.318Z" transform="translate(-1345.894 -1437.523)" fill="#74160d"/>
        <path id="Trazado_1046993" data-name="Trazado 1046993" d="M1424.09,1542.355h0a15.422,15.422,0,0,0-2.777-.353.224.224,0,1,0-.033.447c1.072.081,1.748.166,2.153.23.2.032.337.059.419.077l.086.021.019.005a.277.277,0,0,0,.281-.147s0,0,0,0A.224.224,0,0,0,1424.09,1542.355Z" transform="translate(-1342.856 -1422.277)" fill="#74160d"/>
        <path id="Trazado_1046994" data-name="Trazado 1046994" d="M1368.33,1591.449l4.588,5.378h0l4.417-4.88h0l-3.907-4.581A5.419,5.419,0,0,1,1368.33,1591.449Z" transform="translate(-1311.094 -1449.597)" fill="#74160d"/>
        <path id="Trazado_1046995" data-name="Trazado 1046995" d="M1351.881,1562.261l-4.6-5.4h0l-.253.194-3.442,2.64-1.491,1.144h0l4.953,5.806A5.419,5.419,0,0,1,1351.881,1562.261Z" transform="translate(-1295.293 -1431.229)" fill="#74160d"/>
        <path id="Trazado_1046996" data-name="Trazado 1046996" d="M1364.97,1577.13a5.407,5.407,0,0,0-5.254-6.763c-.166,0-.331.01-.493.025a5.426,5.426,0,0,0,.493,10.829c.054,0,.1-.006.157-.008A5.418,5.418,0,0,0,1364.97,1577.13Z" transform="translate(-1302.638 -1439.36)" fill="#fff"/>
      </g>
    </g>
  </g>
</svg>
