<svg xmlns="http://www.w3.org/2000/svg" xmlns:xlink="http://www.w3.org/1999/xlink" width="118" height="118" viewBox="0 0 118 118">
  <defs>
    <filter id="Trazado_982547" x="0" y="0" width="118" height="118" filterUnits="userSpaceOnUse">
      <feOffset dy="3" input="SourceAlpha"/>
      <feGaussianBlur stdDeviation="3" result="blur"/>
      <feFlood flood-opacity="0.161"/>
      <feComposite operator="in" in2="blur"/>
      <feComposite in="SourceGraphic"/>
    </filter>
  </defs>
  <g id="Grupo_1201308" data-name="Grupo 1201308" transform="translate(-1214 -1496.809)">
    <g id="Grupo_1201304" data-name="Grupo 1201304" transform="translate(0 -6321.385)">
      <g id="Grupo_1183660" data-name="Grupo 1183660" transform="translate(11 6436.866)">
        <g id="Grupo_1182319" data-name="Grupo 1182319" transform="translate(-11 -8277)">
          <g id="Grupo_1176359" data-name="Grupo 1176359" transform="translate(1223 9664.328)">
            <g id="Grupo_1172970" data-name="Grupo 1172970" transform="translate(0)">
              <g id="Grupo_1171971" data-name="Grupo 1171971" transform="translate(0)">
                <g id="Grupo_1167337" data-name="Grupo 1167337">
                  <g id="Grupo_1166720" data-name="Grupo 1166720">
                    <g id="Grupo_1164305" data-name="Grupo 1164305">
                      <g id="Grupo_1163948" data-name="Grupo 1163948">
                        <g id="Grupo_1158168" data-name="Grupo 1158168">
                          <g id="Grupo_1152576" data-name="Grupo 1152576">
                            <g id="Grupo_1148633" data-name="Grupo 1148633">
                              <g id="Grupo_1148525" data-name="Grupo 1148525">
                                <g transform="matrix(1, 0, 0, 1, -9, -6)" filter="url(#Trazado_982547)">
                                  <g id="Trazado_982547-2" data-name="Trazado 982547" transform="translate(9 6)" fill="#f2f7f5">
                                    <path d="M 50 98.5 C 43.45188522338867 98.5 37.10042953491211 97.21787261962891 31.12207221984863 94.68923950195312 C 25.34691429138184 92.24655914306641 20.15995788574219 88.74932861328125 15.70532894134521 84.29468536376953 C 11.2506856918335 79.84004211425781 7.753442764282227 74.65309906005859 5.310757160186768 68.87794494628906 C 2.782128572463989 62.89958572387695 1.5 56.54813003540039 1.5 50 C 1.5 43.45188522338867 2.782128572463989 37.10042953491211 5.310757160186768 31.12207221984863 C 7.753442764282227 25.34691429138184 11.2506856918335 20.15997123718262 15.70532894134521 15.70532894134521 C 20.15997123718262 11.2506856918335 25.34691429138184 7.753442764282227 31.12207221984863 5.310757160186768 C 37.10042953491211 2.782128572463989 43.45188522338867 1.5 50 1.5 C 56.54813003540039 1.5 62.89958572387695 2.782128572463989 68.87794494628906 5.310757160186768 C 74.65309906005859 7.753442764282227 79.84004211425781 11.2506856918335 84.29468536376953 15.70532894134521 C 88.74932861328125 20.15995788574219 92.24655914306641 25.34691429138184 94.68923950195312 31.12207221984863 C 97.21787261962891 37.10042953491211 98.5 43.45188522338867 98.5 50 C 98.5 56.54813003540039 97.21787261962891 62.89958572387695 94.68923950195312 68.87794494628906 C 92.24655914306641 74.65309906005859 88.74932861328125 79.84004211425781 84.29468536376953 84.29468536376953 C 79.84004211425781 88.74932861328125 74.65309906005859 92.24655914306641 68.87794494628906 94.68923950195312 C 62.89958572387695 97.21787261962891 56.54813003540039 98.5 50 98.5 Z" stroke="none"/>
                                    <path d="M 50 3 C 43.65372467041016 3 37.49886322021484 4.242263793945312 31.70639801025391 6.6922607421875 C 26.11003112792969 9.059326171875 21.08335113525391 12.44861602783203 16.76598358154297 16.76598358154297 C 12.44861602783203 21.08335113525391 9.059326171875 26.11003112792969 6.6922607421875 31.70639801025391 C 4.242263793945312 37.49886322021484 3 43.65372467041016 3 50 C 3 56.34629058837891 4.242263793945312 62.50115203857422 6.6922607421875 68.29361724853516 C 9.059326171875 73.88998413085938 12.44861602783203 78.91666412353516 16.76598358154297 83.23403167724609 C 21.08335113525391 87.55138397216797 26.11003112792969 90.940673828125 31.70639801025391 93.3077392578125 C 37.49886322021484 95.75773620605469 43.65372467041016 97 50 97 C 56.34629058837891 97 62.50115203857422 95.75773620605469 68.29361724853516 93.3077392578125 C 73.88998413085938 90.940673828125 78.91666412353516 87.55138397216797 83.23403167724609 83.23403167724609 C 87.55138397216797 78.91666412353516 90.940673828125 73.88998413085938 93.3077392578125 68.29361724853516 C 95.75773620605469 62.50115203857422 97 56.34629058837891 97 50 C 97 43.65372467041016 95.75773620605469 37.49886322021484 93.3077392578125 31.70639801025391 C 90.940673828125 26.11003112792969 87.55138397216797 21.08335113525391 83.23403167724609 16.76598358154297 C 78.91666412353516 12.44861602783203 73.88998413085938 9.059326171875 68.29361724853516 6.6922607421875 C 62.50115203857422 4.242263793945312 56.34629058837891 3 50 3 M 50 0 C 77.6142578125 0 100 22.38577270507812 100 50 C 100 77.6142578125 77.6142578125 100 50 100 C 22.38577270507812 100 0 77.6142578125 0 50 C 0 22.38577270507812 22.38577270507812 0 50 0 Z" stroke="none" fill="#4a665c"/>
                                  </g>
                                </g>
                              </g>
                            </g>
                          </g>
                        </g>
                      </g>
                    </g>
                  </g>
                </g>
              </g>
            </g>
          </g>
        </g>
      </g>
    </g>
    <path id="estadisticas_1_" data-name="estadisticas (1)" d="M33.554,20.325a1.119,1.119,0,0,1-1.4-1.748L42.3,10.466a1.119,1.119,0,0,1,1.225-.113h0l11.53,6.164L66.185,7.427l-1.879-.173a1.12,1.12,0,1,1,.2-2.231l4.686.431a1.121,1.121,0,0,1,.976,1.422h0l-1.32,4.594a1.123,1.123,0,0,1-2.161-.615l.356-1.24L55.891,18.726h0a1.121,1.121,0,0,1-1.234.119L43.118,12.675ZM29.862,30.718H36.38a.563.563,0,0,1,.562.562v18.9a.563.563,0,0,1-.562.562H29.862a.563.563,0,0,1-.562-.562V31.28A.563.563,0,0,1,29.862,30.718Zm11.745-9.493h6.518a.563.563,0,0,1,.562.562v28.4a.563.563,0,0,1-.562.562H41.608a.563.563,0,0,1-.562-.562v-28.4A.563.563,0,0,1,41.608,21.225ZM54.187,50.747h-.272a1.127,1.127,0,0,1-1.124-1.124V26.935a1.127,1.127,0,0,1,1.124-1.124h5.394a1.127,1.127,0,0,1,1.124,1.124V37.667a14.212,14.212,0,0,0-6.3,11.817c0,.426.02.847.056,1.263Zm17.991-14.97V17.241a1.127,1.127,0,0,0-1.124-1.124H65.66a1.127,1.127,0,0,0-1.124,1.124V35.777a14.3,14.3,0,0,1,7.642,0Zm-2.7,1.782a11.98,11.98,0,0,1,10.8,10.8h-10.8Zm10.8,13.049a11.924,11.924,0,0,1-2.7,6.513l-6.513-6.513Zm-4.288,8.1-8.761-8.761V37.559a11.978,11.978,0,1,0,8.761,21.152Z" transform="translate(1218.209 1519.569)" fill="#4a665c" fill-rule="evenodd"/>
  </g>
</svg>
