<svg xmlns="http://www.w3.org/2000/svg" xmlns:xlink="http://www.w3.org/1999/xlink" width="400" height="227" viewBox="0 0 400 227">
  <defs>
    <clipPath id="clip-path">
      <rect id="Rectángulo_415992" data-name="Rectángulo 415992" width="400" height="227" transform="translate(915 1001)" fill="#fff" stroke="#707070" stroke-width="1" opacity="0.75"/>
    </clipPath>
    <clipPath id="clip-path-2">
      <rect id="Rectángulo_415991" data-name="Rectángulo 415991" width="319.228" height="205.037" fill="none"/>
    </clipPath>
    <clipPath id="clip-path-4">
      <rect id="Rectángulo_415981" data-name="Rectángulo 415981" width="13.228" height="70.085" fill="none"/>
    </clipPath>
    <clipPath id="clip-path-5">
      <rect id="Rectángulo_415982" data-name="Rectángulo 415982" width="68.667" height="59.937" fill="none"/>
    </clipPath>
    <clipPath id="clip-path-6">
      <rect id="Rectángulo_415983" data-name="Rectángulo 415983" width="16.424" height="10.124" fill="none"/>
    </clipPath>
    <clipPath id="clip-path-7">
      <rect id="Rectángulo_415984" data-name="Rectángulo 415984" width="65.945" height="39.467" fill="none"/>
    </clipPath>
    <clipPath id="clip-path-8">
      <rect id="Rectángulo_415985" data-name="Rectángulo 415985" width="21.109" height="58.901" fill="none"/>
    </clipPath>
    <clipPath id="clip-path-9">
      <rect id="Rectángulo_415986" data-name="Rectángulo 415986" width="9.241" height="22.033" fill="none"/>
    </clipPath>
    <clipPath id="clip-path-10">
      <rect id="Rectángulo_415987" data-name="Rectángulo 415987" width="27.632" height="13.458" fill="none"/>
    </clipPath>
    <clipPath id="clip-path-11">
      <rect id="Rectángulo_415988" data-name="Rectángulo 415988" width="44.531" height="34.202" fill="none"/>
    </clipPath>
    <clipPath id="clip-path-12">
      <rect id="Rectángulo_415989" data-name="Rectángulo 415989" width="81.004" height="53.882" fill="none"/>
    </clipPath>
  </defs>
  <g id="Enmascarar_grupo_1183016" data-name="Enmascarar grupo 1183016" transform="translate(-915 -1001)" clip-path="url(#clip-path)">
    <g id="Grupo_1183731" data-name="Grupo 1183731" transform="translate(946 1023.214)">
      <g id="Grupo_1183730" data-name="Grupo 1183730" transform="translate(0 -3)" clip-path="url(#clip-path-2)">
        <g id="Grupo_1183729" data-name="Grupo 1183729">
          <g id="Grupo_1183728" data-name="Grupo 1183728" clip-path="url(#clip-path-2)">
            <path id="Trazado_1045517" data-name="Trazado 1045517" d="M274.754,61.006s15.319-14.386,25.467,0,7.548,48.876-23.794,43.949V97.612s16.969-.633,21.009-12.675c3.678-10.963-1.232-30.327-21.009-18.169-18.371,11.288-1.672-5.762-1.672-5.762" transform="translate(-73.948 -15.08)" fill="#6fc9d8"/>
            <path id="Trazado_1045518" data-name="Trazado 1045518" d="M273.3,130.635a2.78,2.78,0,0,0,2.64-3.51c-.594-3.362-.031-5.043,2.568-7.3s2.728-4.351,1.872-6.732,4.075-4.55,2.061-6.733c-3.214-3.486-1.851-5.314-.122-6.731,1.947-1.594,2.542-5.014-.319-4.945s-4.857,4.707-4.964,6.726-.454,3.928-3.574,5.024-4.021,2.615-4.494,5.279.083,2.623-2.591,5.828Z" transform="translate(-73.554 -26.143)" fill="#48a2e5"/>
            <path id="Trazado_1045519" data-name="Trazado 1045519" d="M274,36.736s-.007.077-.017.193c.343-.091.017-.193.017-.193" transform="translate(-75.653 -10.144)" fill="#9ae3f4"/>
            <path id="Trazado_1045520" data-name="Trazado 1045520" d="M252.892,50.283c-2.6-5.061-2.761-12.547-2.629-16.551a2.354,2.354,0,0,0-2.356-2.446c-1.915.009-5.162-.071-10.619-.337-15.6-.758-19.709-8.342-28.331-14.029-.116-.075-.231-.15-.345-.222-5.05-3.17-10.827,2.448-8.149,7.775,7.171,14.266-4.8,36.351-5.438,37.512-.02.037-.039.072-.057.11C176.287,99.753,204.852,117,204.852,117h.177c0,1.6,10.034,2.9,22.415,2.9s22.415-1.3,22.415-2.9h.57c32.029-25.778,6.161-59.519,2.464-66.719" transform="translate(-52.086 -4.357)" fill="#9ae3f4"/>
            <path id="Trazado_1045521" data-name="Trazado 1045521" d="M256.114,142.174c0,1.6-10.035,2.9-22.415,2.9s-22.415-1.3-22.415-2.9,10.035-2.9,22.415-2.9,22.415,1.3,22.415,2.9" transform="translate(-58.341 -38.458)" fill="#f4e0cb"/>
            <path id="Trazado_1045522" data-name="Trazado 1045522" d="M202.2,95.849s-4.453,22.93,6.321,34.333h44.83s9.607-10.878,6.32-34.333Z" transform="translate(-55.582 -26.466)" fill="#f4e0cb"/>
            <path id="Trazado_1045523" data-name="Trazado 1045523" d="M260.022,94.432c0,2.051-12.864,3.713-28.735,3.713s-28.736-1.663-28.736-3.713,12.865-3.713,28.736-3.713,28.735,1.663,28.735,3.713" transform="translate(-55.93 -25.05)" fill="#f9ece1"/>
            <g id="Grupo_1183703" data-name="Grupo 1183703" transform="translate(152.898 19.547)" opacity="0.5" style="mix-blend-mode: overlay;isolation: isolate">
              <g id="Grupo_1183702" data-name="Grupo 1183702">
                <g id="Grupo_1183701" data-name="Grupo 1183701" clip-path="url(#clip-path-4)">
                  <path id="Trazado_1045524" data-name="Trazado 1045524" d="M211.327,27.4c-1.378-1.817,11.09,2.5,12.519,15.324.948,8.5.053,35.486.445,41.97.392,6.513.472,13.438-4.991,12.264s-7.268-8.14-5.284-17.537,9.955-35.352-2.689-52.022" transform="translate(-211.222 -27.003)" fill="#fff"/>
                </g>
              </g>
            </g>
            <g id="Grupo_1183706" data-name="Grupo 1183706" transform="translate(145.506 55.605)" opacity="0.37" style="mix-blend-mode: overlay;isolation: isolate">
              <g id="Grupo_1183705" data-name="Grupo 1183705">
                <g id="Grupo_1183704" data-name="Grupo 1183704" clip-path="url(#clip-path-5)">
                  <path id="Trazado_1045525" data-name="Trazado 1045525" d="M208.27,133.857h.177c0,1.6,10.035,2.9,22.415,2.9s22.415-1.3,22.415-2.9h.57c24.114-19.409,15.408-43.33,8.057-57.041-1.765,18.717-12.008,50.206-60.894,50.542a34.036,34.036,0,0,0,7.26,6.5" transform="translate(-201.01 -76.816)"/>
                </g>
              </g>
            </g>
            <path id="Trazado_1045526" data-name="Trazado 1045526" d="M158.821,65.33c.888-1.022,2.332-2.781,5.4-.877s11.316.524,13.311-6.5,7.158-4.733,8.875-11.033c1.782-6.533-7.279-12.683-13.28-7.475-2.329,2.021-1.44,6.353-5.739,6.907-6.93.894-10.918,6.477-9.962,10.744.947,4.235-1.632,8.431-6.584,12.987l1.032,1.8s5.9-5.342,6.946-6.554" transform="translate(-41.651 -10.352)" fill="#898910"/>
            <path id="Trazado_1045527" data-name="Trazado 1045527" d="M153.316,75.256a81.023,81.023,0,0,1,6.444-9.1c5.106-6.6,15.919-10.475,16.028-10.514l.083.235c-.109.038-10.853,3.888-15.914,10.432a81.6,81.6,0,0,0-6.423,9.06Z" transform="translate(-42.335 -15.365)" fill="#afaf14"/>
            <path id="Trazado_1045528" data-name="Trazado 1045528" d="M180.716,57a2.04,2.04,0,0,1-.86-1.026c-.5-1.43,1.076-3.027,1.144-3.093l.176.175c-.015.015-1.532,1.554-1.084,2.837.317.91,1.538,1.495,3.631,1.739l-.029.247A7.025,7.025,0,0,1,180.716,57" transform="translate(-49.636 -14.602)" fill="#afaf14"/>
            <path id="Trazado_1045529" data-name="Trazado 1045529" d="M177.11,58.738a2.04,2.04,0,0,1-.86-1.026c-.5-1.43,1.076-3.027,1.144-3.094l.176.176c-.015.015-1.532,1.555-1.084,2.837.317.911,1.538,1.495,3.63,1.739l-.029.247a7.018,7.018,0,0,1-2.977-.878" transform="translate(-48.641 -15.081)" fill="#afaf14"/>
            <path id="Trazado_1045530" data-name="Trazado 1045530" d="M173.232,60.48a2.042,2.042,0,0,1-.861-1.027c-.5-1.428,1.078-3.026,1.144-3.093l.176.176c-.015.016-1.532,1.555-1.084,2.836.318.91,1.538,1.495,3.63,1.739l-.029.248a7.031,7.031,0,0,1-2.977-.878" transform="translate(-47.57 -15.562)" fill="#afaf14"/>
            <path id="Trazado_1045531" data-name="Trazado 1045531" d="M169.831,62.794a2.042,2.042,0,0,1-.861-1.027c-.5-1.428,1.077-3.026,1.144-3.092l.176.175c-.015.016-1.532,1.555-1.085,2.836.318.911,1.537,1.495,3.631,1.739l-.029.247a7.028,7.028,0,0,1-2.977-.878" transform="translate(-46.63 -16.201)" fill="#afaf14"/>
            <path id="Trazado_1045532" data-name="Trazado 1045532" d="M165.994,65.2a1.769,1.769,0,0,1-.482-.459c-.876-1.234.192-3.206.237-3.29l.219.12c-.011.019-1.039,1.92-.253,3.027.557.783,1.894,1.008,3.971.659l.041.245c-1.732.291-2.983.19-3.734-.3" transform="translate(-45.607 -16.967)" fill="#afaf14"/>
            <path id="Trazado_1045533" data-name="Trazado 1045533" d="M163.349,67.98a1.784,1.784,0,0,1-.486-.464c-.872-1.238.2-3.206.248-3.289l.219.121c-.011.019-1.045,1.916-.263,3.025.555.788,1.891,1.015,3.969.672l.041.247a5.456,5.456,0,0,1-3.727-.311" transform="translate(-44.877 -17.735)" fill="#afaf14"/>
            <path id="Trazado_1045534" data-name="Trazado 1045534" d="M159.628,68.075c-1.128-.749-3.059-1.954-1.566-5.242s-.94-11.289-8.167-12.361-5.616-6.487-12.085-7.379c-6.708-.924-11.638,8.854-5.7,14.134,2.3,2.049,6.486.608,7.591,4.8,1.78,6.757,7.831,9.992,11.94,8.494,4.077-1.485,8.571.531,13.728,4.854l1.656-1.255s-6.058-5.159-7.4-6.044" transform="translate(-35.745 -11.882)" fill="#989b10"/>
            <path id="Trazado_1045535" data-name="Trazado 1045535" d="M170.449,77.651a81.036,81.036,0,0,1-9.851-5.217C153.393,68.222,148.156,58,148.1,57.9l.222-.113c.052.1,5.255,10.261,12.4,14.435a81.475,81.475,0,0,0,9.813,5.2Z" transform="translate(-40.895 -15.955)" fill="#afaf14"/>
            <path id="Trazado_1045536" data-name="Trazado 1045536" d="M149.857,59.644a2.045,2.045,0,0,1-.907.985c-1.353.678-3.14-.678-3.215-.735l.151-.2c.017.013,1.739,1.318,2.953.709.861-.431,1.283-1.718,1.256-3.825l.249,0a7.027,7.027,0,0,1-.487,3.066" transform="translate(-40.241 -15.623)" fill="#afaf14"/>
            <path id="Trazado_1045537" data-name="Trazado 1045537" d="M152.044,63a2.045,2.045,0,0,1-.907.985c-1.353.678-3.14-.678-3.215-.735l.151-.2c.017.013,1.739,1.318,2.953.709.862-.433,1.284-1.718,1.256-3.825l.249,0A7.027,7.027,0,0,1,152.044,63" transform="translate(-40.845 -16.548)" fill="#afaf14"/>
            <path id="Trazado_1045538" data-name="Trazado 1045538" d="M154.272,66.617a2.04,2.04,0,0,1-.907.986c-1.353.677-3.14-.678-3.215-.736l.151-.2c.018.013,1.739,1.318,2.953.71.861-.433,1.284-1.718,1.257-3.825l.248,0a7.024,7.024,0,0,1-.486,3.065" transform="translate(-41.46 -17.548)" fill="#afaf14"/>
            <path id="Trazado_1045539" data-name="Trazado 1045539" d="M157,69.692a2.04,2.04,0,0,1-.907.986c-1.353.677-3.14-.678-3.215-.736l.151-.2c.018.013,1.739,1.318,2.953.71.863-.432,1.284-1.718,1.257-3.825l.248,0A7.023,7.023,0,0,1,157,69.692" transform="translate(-42.215 -18.397)" fill="#afaf14"/>
            <path id="Trazado_1045540" data-name="Trazado 1045540" d="M159.916,73a1.8,1.8,0,0,1-.393.537c-1.112,1.028-3.2.224-3.294.189l.091-.232c.02.009,2.037.783,3.034-.14.705-.653.755-2.008.142-4.023l.237-.073A5.443,5.443,0,0,1,159.916,73" transform="translate(-43.139 -19.123)" fill="#afaf14"/>
            <path id="Trazado_1045541" data-name="Trazado 1045541" d="M163.016,75.261a1.765,1.765,0,0,1-.4.543c-1.115,1.024-3.205.213-3.294.178l.092-.232c.02.009,2.034.79,3.034-.13.709-.652.762-2.006.154-4.022l.239-.073a5.454,5.454,0,0,1,.172,3.736" transform="translate(-43.994 -19.75)" fill="#afaf14"/>
            <path id="Trazado_1045542" data-name="Trazado 1045542" d="M147.747,68.8c-1.706-.342-4.591-.833-4.419-5.473s-6.2-8.263-14.746-12.164c-6.4-2.922-11.5-3.3-15.872.887-3.384,3.247-4.359,8.983-1.147,11.3s2.106,8.794,9.542,7.974c8.929-.985,9.158,12.672,18.336,4.278,4.113-3.763,10.448-3.548,18.69-.919l1.356-2.306S149.766,69.2,147.747,68.8" transform="translate(-30.264 -13.512)" fill="#afaf14"/>
            <path id="Trazado_1045543" data-name="Trazado 1045543" d="M161.1,75.645c-.035,0-3.667-.1-14.163-2.145-10.527-2.05-21.218-12.225-21.325-12.328l.221-.231c.107.1,10.731,10.214,21.165,12.244,10.459,2.036,14.074,2.14,14.109,2.141Z" transform="translate(-34.686 -16.827)" fill="#989b10"/>
            <path id="Trazado_1045544" data-name="Trazado 1045544" d="M129,61.837a2.619,2.619,0,0,1-.682,1.579c-1.353,1.4-4.1.512-4.211.473l.1-.3c.027.008,2.669.86,3.882-.394.863-.889.828-2.628-.1-5.172l.3-.109A9.023,9.023,0,0,1,129,61.837" transform="translate(-34.27 -15.991)" fill="#989b10"/>
            <path id="Trazado_1045545" data-name="Trazado 1045545" d="M133.077,64.973a2.624,2.624,0,0,1-.682,1.58c-1.353,1.4-4.1.511-4.212.473l.1-.3c.027.008,2.67.86,3.883-.394.861-.891.828-2.628-.1-5.172l.3-.109a9.023,9.023,0,0,1,.711,3.925" transform="translate(-35.395 -16.857)" fill="#989b10"/>
            <path id="Trazado_1045546" data-name="Trazado 1045546" d="M137.317,68.418A2.626,2.626,0,0,1,136.635,70c-1.354,1.4-4.1.51-4.212.472l.1-.3c.027.007,2.669.859,3.882-.392.861-.891.828-2.629-.1-5.173l.3-.109a9.031,9.031,0,0,1,.711,3.923" transform="translate(-36.566 -17.809)" fill="#989b10"/>
            <path id="Trazado_1045547" data-name="Trazado 1045547" d="M141.936,70.988a2.624,2.624,0,0,1-.682,1.581c-1.353,1.4-4.1.51-4.212.473l.1-.3c.027.008,2.669.86,3.882-.393.863-.89.828-2.628-.1-5.171l.3-.109a9.031,9.031,0,0,1,.711,3.923" transform="translate(-37.841 -18.518)" fill="#989b10"/>
            <path id="Trazado_1045548" data-name="Trazado 1045548" d="M147.056,73.939a2.273,2.273,0,0,1-.248.818c-.911,1.718-3.791,1.632-3.914,1.628l.012-.321c.027,0,2.8.085,3.619-1.457.578-1.092.064-2.757-1.537-4.94l.258-.189c1.334,1.82,1.939,3.315,1.809,4.461" transform="translate(-39.457 -19.185)" fill="#989b10"/>
            <path id="Trazado_1045549" data-name="Trazado 1045549" d="M151.777,75.368a2.285,2.285,0,0,1-.252.827c-.917,1.716-3.8,1.619-3.918,1.614l.012-.32c.028,0,2.8.093,3.624-1.446.583-1.092.073-2.757-1.521-4.944l.259-.189c1.324,1.82,1.926,3.315,1.8,4.458" transform="translate(-40.758 -19.58)" fill="#989b10"/>
            <path id="Trazado_1045550" data-name="Trazado 1045550" d="M93.276,93.715s-9.266,52.491,51.713,50.513c56.214-1.824,48.9-50.513,48.9-50.513Z" transform="translate(-25.617 -25.877)" fill="#ff8d92"/>
            <path id="Trazado_1045551" data-name="Trazado 1045551" d="M194.084,90.931c0,4.031-22.524,7.3-50.308,7.3s-50.308-3.268-50.308-7.3,22.524-7.3,50.308-7.3,50.308,3.267,50.308,7.3" transform="translate(-25.809 -23.093)" fill="#ffa6ad"/>
            <path id="Trazado_1045552" data-name="Trazado 1045552" d="M191.607,92.107c0,2.708-20.219,4.9-45.158,4.9s-45.158-2.2-45.158-4.9,20.218-4.9,45.158-4.9,45.158,2.2,45.158,4.9" transform="translate(-27.969 -24.079)" fill="#afaf14"/>
            <path id="Trazado_1045553" data-name="Trazado 1045553" d="M190.992,77.544s.456-6.258,5.246-6.258,5.7,1.824,9.807,1.14,5.473-4.148,7.982-2.986,7.3,10.626,2.053,14.446-15.381,4.729-17.875,3.25-11.318-1.738-7.213-9.593" transform="translate(-52.442 -19.109)" fill="#b06e56"/>
            <path id="Trazado_1045554" data-name="Trazado 1045554" d="M110.3,80.054s.456-6.258,5.246-6.258,5.7,1.825,9.807,1.14,5.474-4.148,7.982-2.986,7.3,10.626,2.053,14.447S120,91.125,117.509,89.647s-11.318-1.739-7.213-9.593" transform="translate(-30.159 -19.802)" fill="#b06e56"/>
            <path id="Trazado_1045555" data-name="Trazado 1045555" d="M163.619,90.318s.979-7.564,3.877-7.488,5.474,7.906,7.754,7.3,7.755-10.643,11.176-9.275,1.433,4.255,4.365,5.548,8.863-4.56,13.2-3.572,6.35,6.642,4.592,8.16c-5.018,4.332-47.925,8.337-44.96-.672" transform="translate(-45.139 -22.29)" fill="#989b10"/>
            <path id="Trazado_1045556" data-name="Trazado 1045556" d="M180.753,83.488a16.713,16.713,0,0,0,5.569-9.468c-.444-3.717-5.22-.969-7.459-.358-4.3,1.176-3.142-6.977-6.507-8.2s-11.821-1.585-13.52,1.865,1.714,11.4-2.661,9.638-8.5-4.043-13.844-5.771-10.527-6.641-10.372-3.168c.124,2.841,5.142,9.488,3.045,13.552,15.332,5.637,25.42,6.079,31.68,6.985,8.412,1.218,10.876-2.481,14.068-5.074" transform="translate(-36.437 -17.837)" fill="#898910"/>
            <path id="Trazado_1045557" data-name="Trazado 1045557" d="M107.848,80.955s-2.941-6.656,1.368-8.211,9.249-5.017,12.265-2.052,3.893,11.295,6.977,11.631,2.88-6.864,7.67-6.4,6.386,5.028,14.368,7.993,7.129-2.959,11.434-3.874,14.679,7.491,13.2,10.684-28.984,1.857-35.7,1.4-30.693-5.739-31.578-11.175" transform="translate(-29.509 -19.199)" fill="#afaf14"/>
            <path id="Trazado_1045558" data-name="Trazado 1045558" d="M99.557,86.132S91.5,69.34,96.84,67.827c3.637-1.03,2.707,5.534,8.458,6.191s3.979-10.068,7.682-8.244,2.106,17.105,8.492,18.36,19.152-.354,20.067,4.9-39.8.821-41.982-2.9" transform="translate(-26.235 -18.104)" fill="#989b10"/>
            <path id="Trazado_1045559" data-name="Trazado 1045559" d="M112.855,96.032s-.87-6.549,2.549-5.029,4.2,5.543,7.687,4.9,15.366-2.05,17.961,0,12.786,2.6,12.786,2.6-16.163,1.954-40.983-2.468" transform="translate(-31.135 -25.065)" fill="#b06e56"/>
            <path id="Trazado_1045560" data-name="Trazado 1045560" d="M148.9,146.527c44.9-1.456,49.359-31.92,49.21-44.484-11.99,24.8-31.323,47.423-91.186,30.552,7.373,8.356,20.127,14.641,41.975,13.932" transform="translate(-29.523 -28.177)" fill="#dd6876"/>
            <path id="Trazado_1045561" data-name="Trazado 1045561" d="M171.849,84.258c1.506-1.381,3.87-4.042,8.137-.669s13.366,8.128,17.548-2.06S212.121,76.347,212.7,66.52c.391-6.659-10.009-7.256-14.429-5.823s-8.577-1.965-13.95,1.744-7.515,6.054-10.547,11.9-2.6,8.3-10.794,14.279l2.814.309s4.282-3.041,6.056-4.675" transform="translate(-45.003 -16.584)" fill="#afaf14"/>
            <path id="Trazado_1045562" data-name="Trazado 1045562" d="M166.528,92.449c.022-.028,2.355-2.819,10.469-9.8,8.14-7,22.769-9.1,22.915-9.116l.045.317c-.147.02-14.683,2.1-22.75,9.043-8.086,6.959-10.41,9.735-10.432,9.762Z" transform="translate(-45.983 -20.304)" fill="#989b10"/>
            <path id="Trazado_1045563" data-name="Trazado 1045563" d="M207.438,74.421a2.622,2.622,0,0,1-.819-1.516c-.258-1.93,2.138-3.537,2.24-3.6l.176.266c-.022.017-2.332,1.565-2.1,3.3.164,1.229,1.552,2.28,4.128,3.129l-.1.3a9.036,9.036,0,0,1-3.526-1.875" transform="translate(-57.048 -19.136)" fill="#989b10"/>
            <path id="Trazado_1045564" data-name="Trazado 1045564" d="M202.445,75.68a2.622,2.622,0,0,1-.819-1.516c-.259-1.93,2.138-3.537,2.24-3.6l.176.266c-.022.017-2.332,1.565-2.1,3.3.165,1.229,1.552,2.281,4.128,3.129l-.1.3a9.026,9.026,0,0,1-3.526-1.875" transform="translate(-55.669 -19.483)" fill="#989b10"/>
            <path id="Trazado_1045565" data-name="Trazado 1045565" d="M197.108,76.875a2.628,2.628,0,0,1-.82-1.517c-.258-1.929,2.139-3.536,2.241-3.6l.176.266c-.023.016-2.332,1.565-2.1,3.3.166,1.228,1.553,2.28,4.128,3.129l-.1.3a9.046,9.046,0,0,1-3.525-1.874" transform="translate(-54.195 -19.813)" fill="#989b10"/>
            <path id="Trazado_1045566" data-name="Trazado 1045566" d="M192.223,78.913A2.628,2.628,0,0,1,191.4,77.4c-.258-1.929,2.139-3.536,2.242-3.6l.175.266c-.022.016-2.332,1.565-2.1,3.3.165,1.231,1.552,2.281,4.127,3.129l-.1.3a9.031,9.031,0,0,1-3.525-1.874" transform="translate(-52.846 -20.376)" fill="#989b10"/>
            <path id="Trazado_1045567" data-name="Trazado 1045567" d="M186.8,80.887a2.294,2.294,0,0,1-.489-.7c-.785-1.781,1.069-3.991,1.148-4.086l.245.208c-.019.02-1.805,2.151-1.1,3.749.5,1.131,2.127,1.76,4.835,1.855l-.011.321c-2.258-.08-3.808-.531-4.628-1.344" transform="translate(-51.392 -21.013)" fill="#989b10"/>
            <path id="Trazado_1045568" data-name="Trazado 1045568" d="M182.748,83.713a2.281,2.281,0,0,1-.493-.711c-.78-1.784,1.081-3.988,1.161-4.081l.244.209c-.019.02-1.811,2.145-1.111,3.745.5,1.136,2.121,1.767,4.828,1.87l-.012.321c-2.252-.088-3.8-.542-4.618-1.354" transform="translate(-50.273 -21.792)" fill="#989b10"/>
            <path id="Trazado_1045569" data-name="Trazado 1045569" d="M79.647,44.524S66.954,40.016,59.01,46.755c-9.2,7.807-13.666,41.272,10.317,44.335l6.005-5.3S56.26,84.026,60.168,65.9,72.4,47.309,79.647,50.657Z" transform="translate(-14.255 -11.887)" fill="#6fc9d8"/>
            <path id="Trazado_1045570" data-name="Trazado 1045570" d="M120.754,103.861c-4.109-9.8-17.853-26.937-20.5-37.227-2.865-11.141-1.674-46.012-1.674-46.012H79.31S80.5,55.492,77.636,66.633c-2.643,10.291-16.391,27.429-20.494,37.227-7.918,18.895,26.462,20.723,31.914,20.892h.012c.457.018.735.021.735.021v-.036c5.375-.174,38.86-2.005,30.952-20.877" transform="translate(-15.453 -5.694)" fill="#9ae3f4"/>
            <path id="Trazado_1045571" data-name="Trazado 1045571" d="M90.058,2.8c3.558-1.767,16.172-5.3,15.893,0s1.4,18.924-3.187,21.677c-2.558,1.535-11.847,3.594-12.276-5.971S86.111,4.758,90.058,2.8" transform="translate(-24.387 0)" fill="#a3552f"/>
            <path id="Trazado_1045572" data-name="Trazado 1045572" d="M116.1,123.481c-8.616,8.869-32.545,8.06-44.288,2.329-.267-.134-.518-.252-.753-.385-.017,0-.017,0-.035-.019-7.153-3.916-6.03-9.964-2.38-16.365,2.732-4.773,6.35-9.712,8.878-14.619A69.461,69.461,0,0,0,85.231,63h4.235l3.582.017,3.8.014c-1.321,10.486,3.974,23.071,8.21,30.054,12.463,20.522,14.614,26.72,11.038,30.4" transform="translate(-18.16 -17.395)" fill="#ffc23b"/>
            <path id="Trazado_1045573" data-name="Trazado 1045573" d="M104.274,62.511c0,.83-2.6,1.5-5.811,1.5s-5.808-.672-5.808-1.5,2.6-1.506,5.808-1.506,5.811.672,5.811,1.506" transform="translate(-25.585 -16.845)" fill="#f7941d"/>
            <g id="Grupo_1183709" data-name="Grupo 1183709" transform="translate(65.214 11.895)" opacity="0.2" style="mix-blend-mode: overlay;isolation: isolate">
              <g id="Grupo_1183708" data-name="Grupo 1183708">
                <g id="Grupo_1183707" data-name="Grupo 1183707" clip-path="url(#clip-path-6)">
                  <path id="Trazado_1045574" data-name="Trazado 1045574" d="M90.09,16.433a29.175,29.175,0,0,1,.886,6.608,10.5,10.5,0,0,0,.581,3.138,49.228,49.228,0,0,0,13.84-.237,30.254,30.254,0,0,0,1.118-9.159Z" transform="translate(-90.09 -16.433)"/>
                </g>
              </g>
            </g>
            <path id="Trazado_1045575" data-name="Trazado 1045575" d="M85.2,16.058c-.809.658-1.81,5.073,1.254,5.354s14.079,1.212,23.843-1.173c1.016-.249,2.092-2.507,0-4.181s-22.682-1.973-25.1,0" transform="translate(-23.298 -4.056)" fill="#6fc9d8"/>
            <g id="Grupo_1183712" data-name="Grupo 1183712" transform="translate(40.51 79.591)" opacity="0.3" style="mix-blend-mode: overlay;isolation: isolate">
              <g id="Grupo_1183711" data-name="Grupo 1183711">
                <g id="Grupo_1183710" data-name="Grupo 1183710" clip-path="url(#clip-path-7)">
                  <path id="Trazado_1045576" data-name="Trazado 1045576" d="M120.754,128.527c-2.036-4.948-6.581-11.73-10.886-18.575C103.764,124.18,85.58,132.8,68.493,132.8c-3.556,0-8.975-.884-10.931-5.195-.139.3-.3.625-.42.922C49.224,147.422,83.6,149.25,89.056,149.419c0,0,40.086-.5,31.7-20.892" transform="translate(-55.963 -109.952)"/>
                </g>
              </g>
            </g>
            <g id="Grupo_1183715" data-name="Grupo 1183715" transform="translate(50.523 34.92)" opacity="0.4" style="mix-blend-mode: overlay;isolation: isolate">
              <g id="Grupo_1183714" data-name="Grupo 1183714">
                <g id="Grupo_1183713" data-name="Grupo 1183713" clip-path="url(#clip-path-8)">
                  <path id="Trazado_1045577" data-name="Trazado 1045577" d="M85.137,52.542c0-6.708,5.971-5.144,5.58,1.76s2.715,43.933-6.773,50.048-16.871,1.375-13.18-6.4,14.373-6.039,14.373-45.4" transform="translate(-69.795 -48.241)" fill="#fef098"/>
                </g>
              </g>
            </g>
            <path id="Trazado_1045578" data-name="Trazado 1045578" d="M171.86,159.134a1.619,1.619,0,0,1-.612.88c-.432.236.843.1.843.1l.494.183.55.063s-.045-.07.349.041a7.158,7.158,0,0,0,1.2.139l.426-.174.485-.248.95.111.965-.442.3.033a1.464,1.464,0,0,1-.712-1.317Z" transform="translate(-47.261 -43.767)" fill="#a3552f"/>
            <path id="Trazado_1045579" data-name="Trazado 1045579" d="M167.732,110.687c-.35-4.149,3.147,7.1,9.973,13.34,5.011,4.578,14.94,17.265-4.8,21.786-5.317,1.217-19.272.129-17.237-11.363,1.13-6.373,12.888-14.013,12.066-23.762" transform="translate(-42.928 -30.316)" fill="#ccd8ee"/>
            <path id="Trazado_1045580" data-name="Trazado 1045580" d="M174.844,120.325s5.053,5.842,7.991,10.242,4.808,10.333-1.763,14.811c0,0,6.934-6.2-6.228-25.053" transform="translate(-48.279 -33.225)" fill="#fff"/>
            <g id="Grupo_1183718" data-name="Grupo 1183718" transform="translate(115.197 90.12)" opacity="0.3" style="mix-blend-mode: overlay;isolation: isolate">
              <g id="Grupo_1183717" data-name="Grupo 1183717">
                <g id="Grupo_1183716" data-name="Grupo 1183716" clip-path="url(#clip-path-9)">
                  <path id="Trazado_1045581" data-name="Trazado 1045581" d="M168.381,124.5s-3.616,5.137-6.2,9.007-5.622,8.441.722,13.027c0,0-6.967-5.242,5.478-22.034" transform="translate(-159.14 -124.497)"/>
                </g>
              </g>
            </g>
            <path id="Trazado_1045582" data-name="Trazado 1045582" d="M173.159,126.322s4.114,12.412-.587,22.05c0,0,6.345-8.812.587-22.05" transform="translate(-47.652 -34.881)" fill="#fff"/>
            <g id="Grupo_1183721" data-name="Grupo 1183721" transform="translate(114.116 102.427)" opacity="0.3" style="mix-blend-mode: overlay;isolation: isolate">
              <g id="Grupo_1183720" data-name="Grupo 1183720">
                <g id="Grupo_1183719" data-name="Grupo 1183719" clip-path="url(#clip-path-10)">
                  <path id="Trazado_1045583" data-name="Trazado 1045583" d="M165.924,151.978a22.346,22.346,0,0,1-8.278-1.574c3.513,4.708,11.98,5.053,15.859,4.164,11.557-2.646,12.941-8.091,11.1-13.07a21.434,21.434,0,0,1-18.681,10.479" transform="translate(-157.646 -141.499)"/>
                </g>
              </g>
            </g>
            <path id="Trazado_1045584" data-name="Trazado 1045584" d="M168.324,124.5s-4.445,5.137-7.028,9.007-4.229,9.088,1.55,13.027c0,0-8.612-4.586,5.478-22.034" transform="translate(-43.886 -34.377)" fill="#fff"/>
            <path id="Trazado_1045585" data-name="Trazado 1045585" d="M130.5,136.926s-.125-9.2-6.969-6.968-18.619,19.353-50.814,17.191c0,0,10.2,11.523,39.255,3.9S130.5,136.926,130.5,136.926" transform="translate(-20.08 -35.788)" fill="#d32f47"/>
            <path id="Trazado_1045586" data-name="Trazado 1045586" d="M72.719,147.148c32.2,2.163,43.965-14.96,50.814-17.191s6.969,6.968,6.969,6.968a3.82,3.82,0,0,1,.453.345c-2.868,2.722-9.264,5.979-22.418,9.428-15.741,4.128-26.863,3.574-34.34,1.725a10.61,10.61,0,0,1-1.48-1.275" transform="translate(-20.08 -35.788)" fill="#ee4759"/>
            <path id="Trazado_1045587" data-name="Trazado 1045587" d="M156.927,121.53s1.066,7.148-1.548,9.7-1.949-1.568-1.949-1.568,3.672-3.577.772-11.168c-.512-1.333,2.725,3.035,2.725,3.035" transform="translate(-42.346 -32.65)" fill="#989b10"/>
            <path id="Trazado_1045588" data-name="Trazado 1045588" d="M152.723,134.124s.877,4.514-.676,6.551-2.011-3.483-4.022-2.955-4.607-4.147-2.2-5.545-1.989-2.044-2.078-2.636c-.224-1.5,3.312-.653,6.892.323s1.773,3.433,1.773,3.433Z" transform="translate(-39.689 -35.543)" fill="#989b10"/>
            <path id="Trazado_1045589" data-name="Trazado 1045589" d="M204.289,114.633s3.523-7.6,9.567-3.927,8.776,8.73,18.152,9.086,16.771,2.119,19.619,10.751c2.723,8.24.987,19.216-17.348,18.663-15.566-.469-34.778-19.176-29.99-34.573" transform="translate(-56.204 -30.292)" fill="#b187cc"/>
            <g id="Grupo_1183724" data-name="Grupo 1183724" transform="translate(147.354 84.732)" opacity="0.3" style="mix-blend-mode: overlay;isolation: isolate">
              <g id="Grupo_1183723" data-name="Grupo 1183723">
                <g id="Grupo_1183722" data-name="Grupo 1183722" clip-path="url(#clip-path-11)">
                  <path id="Trazado_1045590" data-name="Trazado 1045590" d="M234.285,151.235c6.525.2,10.941-1.071,13.809-3.152-28.568,7.724-40.216-21.825-43.9-31.03-4.35,15.321,14.656,33.717,30.091,34.182" transform="translate(-203.563 -117.053)"/>
                </g>
              </g>
            </g>
            <path id="Trazado_1045591" data-name="Trazado 1045591" d="M202.967,107.692s-6.157-4.757-4.69-8.05c0,0,1.4.657,1.86-.395s1.812,6.888,3.979,6.4Z" transform="translate(-54.687 -27.378)" fill="#b06e56"/>
            <path id="Trazado_1045592" data-name="Trazado 1045592" d="M205.4,106.27c-1.947,1.065-5.409,3.428-4.081,8.144,2.009,7.134.219,6.976-.3,9.411-.678,3.206,3.867-2.4,6.623-7.051,3.129-5.286,3.269,6.125,3.375,7.177s2.92-7.168,2.469-9.676,3.766,1.117,8.046-.79c0,0-2.375.567-7.6-5-1.929-2.059-5.687-3.773-8.54-2.209" transform="translate(-55.488 -29.176)" fill="#989b10"/>
            <path id="Trazado_1045593" data-name="Trazado 1045593" d="M301.1,70.48s-.645,6.957-1.291,19-6.227,27.279-5.02,36.9c1.007,7.994,3.845,14.157,16.659,14.744s23.637-6.954,36.959-3.755c15.744,3.781,31.177,2.061,28.59-12.246s5.526-22.762-3.7-43.568l-5-11.276Z" transform="translate(-81.352 -19.406)" fill="#a3552f"/>
            <path id="Trazado_1045594" data-name="Trazado 1045594" d="M300.072,64.234s-1.65,4.143-3.155,19.411c-1.1,11.2,5.456,3.152,18.381,10.332,10.849,6.025,19.047-7.748,28.348-5.6s18.6,5.6,22.588,2.584,3.77-13.486,8.2-13.486c2.622,0,1.484-6.98-.936-13.243Z" transform="translate(-81.954 -17.737)" fill="#7a2c0a"/>
            <path id="Trazado_1045595" data-name="Trazado 1045595" d="M374.907,62.479c0,4.493-16.557,8.139-36.982,8.139s-36.983-3.645-36.983-8.139,16.557-8.141,36.983-8.141,36.982,3.645,36.982,8.141" transform="translate(-83.098 -15.004)" fill="#a3552f"/>
            <path id="Trazado_1045596" data-name="Trazado 1045596" d="M373.335,62.415c0,3.863-15.686,6.993-35.03,6.993s-35.028-3.13-35.028-6.993,15.681-6.989,35.028-6.989,35.03,3.13,35.03,6.989" transform="translate(-83.743 -15.305)" fill="#7a2c0a"/>
            <path id="Trazado_1045597" data-name="Trazado 1045597" d="M372.277,63.019c0,3.671-14.919,6.65-33.321,6.65s-33.322-2.978-33.322-6.65,14.918-6.651,33.322-6.651,33.321,2.977,33.321,6.651" transform="translate(-84.394 -15.565)" fill="#f3daa1"/>
            <path id="Trazado_1045598" data-name="Trazado 1045598" d="M305.645,60.491s1.366-5.9,4.811-6.905,4.641-.222,7.893-.148,4.112-1.8,9.39,0,11.515-.961,14.154-.695,8.776-5.389,12.485-4.951c5.479.645,7.914,3.081,10.744,5.5s2.958,3.457,4.987,4.208,1.949,1.035,1.8,1.646c-.431,1.772-14.127,13.345-55.246,5.381-4.354-.843-11.019-3.114-11.019-4.034" transform="translate(-84.397 -13.19)" fill="#f3daa1"/>
            <g id="Grupo_1183727" data-name="Grupo 1183727" transform="translate(215.482 67.869)" opacity="0.5">
              <g id="Grupo_1183726" data-name="Grupo 1183726">
                <g id="Grupo_1183725" data-name="Grupo 1183725" clip-path="url(#clip-path-12)">
                  <path id="Trazado_1045599" data-name="Trazado 1045599" d="M312.293,147.607c12.815.586,23.637-6.953,36.959-3.755,15.744,3.781,31.177,2.061,28.59-12.246-2.338-12.923,4.049-21.07-1.487-37.849-5.278,16.119-22.515,43.616-78.675,46.566,2.121,4.116,6.22,6.9,14.613,7.284" transform="translate(-297.679 -93.758)" fill="#7a2c0a"/>
                </g>
              </g>
            </g>
            <path id="Trazado_1045600" data-name="Trazado 1045600" d="M319.228,253.856c0,4.588-71.46,8.318-159.615,8.318S0,258.444,0,253.856s71.462-8.322,159.613-8.322,159.615,3.723,159.615,8.322" transform="translate(0 -67.798)" fill="#ffecd9"/>
            <path id="Trazado_1045601" data-name="Trazado 1045601" d="M321.469,141.853S301.65,138.8,311.26,116.675l3.265-10.883s27.635,15.466,6.944,36.061" transform="translate(-85.221 -29.212)" fill="#84840c"/>
            <path id="Trazado_1045602" data-name="Trazado 1045602" d="M325.307,144.437s-10.726-16.939,12.26-24.243l10.346-4.7s6.516,30.985-22.607,28.94" transform="translate(-89.136 -31.892)" fill="#bbce36"/>
            <path id="Trazado_1045603" data-name="Trazado 1045603" d="M313.924,147.869s-11.128,19.762-30.72.778l-10.219-7.79s27.378-23.093,40.939,7.012" transform="translate(-75.378 -36.557)" fill="#989b10"/>
            <path id="Trazado_1045604" data-name="Trazado 1045604" d="M324.975,153.169s3.976-9.37-8.143-11.134l-5.567-1.5s-.711,16.056,13.709,12.634" transform="translate(-85.947 -38.805)" fill="#84840c"/>
            <path id="Trazado_1045605" data-name="Trazado 1045605" d="M323.106,156.212s-4.443-9.156-13.741-1.189l-4.788,3.209s11.63,11.093,18.528-2.02" transform="translate(-84.102 -41.907)" fill="#bbce36"/>
            <path id="Trazado_1045606" data-name="Trazado 1045606" d="M327.5,151.41s11.5.481,8.545-13.047l-.63-6.493s-17.28,5.647-7.916,19.54" transform="translate(-89.664 -36.413)" fill="#989b10"/>
            <path id="Trazado_1045607" data-name="Trazado 1045607" d="M255.545,191.583H144.8l-7.755-14.093H264.933Z" transform="translate(-37.843 -49.01)" fill="#a9c0d3"/>
            <path id="Trazado_1045608" data-name="Trazado 1045608" d="M298.091,167.25c-70.668,6.362-152.281,9.118-244.759,1.035-6.445-.563-18.144-12.466-18.144-12.466H313.911s-8.77,10.8-15.82,11.431" transform="translate(-9.716 -43.026)" fill="#817489"/>
            <path id="Trazado_1045609" data-name="Trazado 1045609" d="M221.359,178.354c-44.811,6.227-125.37,19.154-125.37,19.154l-4.576,14.226L62.6,196.2,24.257,235.383H86.719a26.9,26.9,0,0,1,17.932-12.868c20.82-4.264,60.642,19.9,90.8,3.131,43.674-24.278,78.451-35.14,76.67-45.55s-13.479-6.922-50.766-1.742" transform="translate(-6.698 -47.87)" fill="#fe947c"/>
            <path id="Trazado_1045610" data-name="Trazado 1045610" d="M220.169,184.067s-2.851,18.5-34.508,21.39-70.421,24.278-92.7,11.269c-24.885-14.528,98.608-28.507,127.208-32.659" transform="translate(-24.76 -50.826)" fill="#e56f5c"/>
            <path id="Trazado_1045611" data-name="Trazado 1045611" d="M75.675,195.961s30.943-32.089,65.71-26.884c27.355,4.095,36.544,7.8,54.375,3.471s21.384,17.174-1.787,20.516c-21.81,3.146-118.3,44.515-118.3,2.9" transform="translate(-20.896 -46.529)" fill="#fe947c"/>
            <path id="Trazado_1045612" data-name="Trazado 1045612" d="M330.551,235.065a18.007,18.007,0,1,1-35.63-5.242c1.446-9.839,10.385-15.2,20.224-13.757s16.853,9.16,15.405,19" transform="translate(-81.382 -59.597)" fill="#cd4248"/>
            <path id="Trazado_1045613" data-name="Trazado 1045613" d="M329.814,230.62c-.028.26-.035.515-.074.777a19.5,19.5,0,0,1-34.15,9.813,18,18,0,0,0,35.2-2.062,16.086,16.086,0,0,0-.974-8.528" transform="translate(-81.62 -63.68)" fill="#ba3842"/>
            <path id="Trazado_1045614" data-name="Trazado 1045614" d="M310.282,229.707c-.288,1.958-2.538,3.247-5.024,2.882s-4.27-2.251-3.982-4.206,2.537-3.247,5.024-2.882,4.27,2.249,3.982,4.206" transform="translate(-83.182 -62.25)" fill="#ba3842"/>
            <path id="Trazado_1045615" data-name="Trazado 1045615" d="M313.436,217.914s-4.006,1.954-4.215,6.034c0,0,3.055-3.465,5.139-4.332s-1.854,4.62.214,7.859c0,0,1.561-6.62,3.425-7.324a5.637,5.637,0,0,1,4.034,4.508,5.594,5.594,0,0,0-1.893-5.758s3.309-2.95,8.2.565c0,0-5.754-5.244-9.869-2.547,0,0-.227-3.776-4.555-3.63,0,0,2.485,1.735,2.04,3.431,0,0-2.67-3.133-8.344-1.815,0,0,6.1.618,5.82,3.009" transform="translate(-84.941 -58.893)" fill="#afaf14"/>
            <path id="Trazado_1045616" data-name="Trazado 1045616" d="M320.3,257.36c7.176-7.669,34.98-.248,36.162.074l-.48,1.312c-.281-.077-28.047-7.495-34.571-.523Z" transform="translate(-88.443 -70.108)" fill="#afaf14"/>
            <path id="Trazado_1045617" data-name="Trazado 1045617" d="M360.377,263.861c-1.181,1.878-6.007,1.792-8.022,4.593s1.671,2.006,2.411,1.409-.059,2.469,1.085,1.954,1.3-1.155,1.927-.941-.355,2.007,1.083,1.518.185-2.6,1.84-2.558c.659.016-.237,4.227,2.543,5.991s1.957-.775,1.193-1.661,1.674.491,2.081-.945-2.408-1.267-1.8-1.831c1.308-1.214-1.6-1.671-.45-2.623s1.561,2.886,3.537,2.083-4.01-4.886-.334-3.935c1.621.414,4.252,2,4.61.951.54-1.577-2.008-1.755-2.963-1.723s-2.155-1.55-.933-2.166-.73-.717-2.9-.507-3.012-.576-3.405-1.543-1.33-3.352-1.33-3.352l-1.4.437s1.929,3.739,1.228,4.849" transform="translate(-97.13 -71.399)" fill="#afaf14"/>
            <path id="Trazado_1045618" data-name="Trazado 1045618" d="M363.663,259.334c.3,2.1-3.7,4.761-3.469,8.033s2.709.577,2.916-.3,1.6,1.909,2.194.873.283-1.616.935-1.8,1.06,1.72,1.907.533-1.591-2.079-.214-2.985c.552-.36,2.643,3.349,6.095,3.118s1.077-1.7-.143-1.939,1.7-.575,1.071-1.894-2.814.4-2.7-.379c.251-1.661-2.43-.362-2.125-1.735s3.207,1.312,4.284-.418-6.555-1.443-2.916-2.8c1.6-.6,4.812-.891,4.4-1.883-.622-1.5-2.817-.2-3.577.364s-2.8.043-2.216-1.115-1.076-.135-2.712,1.257-2.844,1.263-3.814.754-.607-.324-.607-.324l-1.222.853s1.73.548,1.905,1.79" transform="translate(-99.456 -70.275)" fill="#7a770c"/>
            <path id="Trazado_1045619" data-name="Trazado 1045619" d="M359.986,258.491c1.015,1.364-.866,4.5.554,6.7s2.19-.473,2-1.148,1.9.807,1.931-.1-.41-1.216-.009-1.556,1.428.856,1.59-.243-1.952-.932-1.3-2c.263-.429,3.2,1.47,5.619.193s.132-1.527-.845-1.3,1.011-.948.049-1.661-1.891,1.186-2.1.609c-.452-1.236-1.9.533-2.208-.517s2.834-.13,2.949-1.676-5.312,1.116-3.189-1.006c.932-.934,3.155-2.172,2.473-2.732-1.023-.838-2.12.775-2.457,1.411s-2.013.937-2.034-.056-.834.256-1.488,1.748a2.434,2.434,0,0,1-2.484,1.756c-.9-.041-1.1-1.306-1.1-1.306l-3.063-.505s4.51,2.593,5.111,3.4" transform="translate(-97.99 -69.532)" fill="#afaf14"/>
            <path id="Trazado_1045620" data-name="Trazado 1045620" d="M321.967,246.721c15.738-3.863,25.267-20.1,25.362-20.259l1.307.6c-.4.691-9.953,16.956-26.348,20.981Z" transform="translate(-88.904 -62.532)" fill="#89890e"/>
            <path id="Trazado_1045621" data-name="Trazado 1045621" d="M321.134,261.395c12.364-15.01,43.382-13.746,44.7-13.685l-.144,1.364c-.313-.015-31.523-1.286-43.382,13.112Z" transform="translate(-88.674 -68.385)" fill="#89890e"/>
            <path id="Trazado_1045622" data-name="Trazado 1045622" d="M320.743,249.693c14-4.858,21.252-22.629,21.325-22.809l1.393.418c-.3.757-7.584,18.578-22.25,23.666Z" transform="translate(-88.566 -62.649)" fill="#afaf14"/>
            <path id="Trazado_1045623" data-name="Trazado 1045623" d="M366.846,252.353c-.62,2.075-5.362,3.15-6.534,6.3s2.2,1.509,2.757.762.644,2.369,1.615,1.606.942-1.414,1.618-1.36.221,2,1.49,1.188-.559-2.523,1.071-2.88c.651-.144.97,4.086,4.187,5.1s1.7-1.207.7-1.87,1.774.068,1.763-1.4-2.712-.633-2.274-1.317c.932-1.468-2.041-1.206-1.187-2.39s2.346,2.377,4.047,1.136-5.308-3.695-1.443-3.671c1.7.007,4.725.882,4.777-.2.078-1.632-2.463-1.191-3.387-.931s-2.545-.963-1.527-1.842-.919-.51-2.982.214-3.108.169-3.765-.657-2.256-2.874-2.256-2.874l-1.244.75s2.949,3.1,2.578,4.329" transform="translate(-99.423 -68.279)" fill="#afaf14"/>
            <path id="Trazado_1045624" data-name="Trazado 1045624" d="M368.487,246.9c.884,1.927-2.266,5.427-1.107,8.49s2.812-.1,2.764-.982,2.109,1.433,2.394.3-.182-1.608.4-1.941,1.526,1.385,2.017.051-2.146-1.6-1.057-2.795c.435-.475,3.533,2.558,6.841,1.512s.571-1.878-.688-1.815,1.491-.956.505-2.062-2.636,1.055-2.743.284c-.227-1.642-2.477.238-2.57-1.144s3.509.479,4.068-1.425-6.817.194-3.649-1.974c1.4-.958,4.453-2,3.77-2.853-1.035-1.283-2.809.486-3.391,1.206s-2.724.712-2.483-.531-1.091.13-2.294,1.846-2.421,1.889-3.513,1.635l-.687-.16-.95,1.1s1.848.109,2.371,1.251" transform="translate(-101.094 -66.296)" fill="#89890e"/>
            <path id="Trazado_1045625" data-name="Trazado 1045625" d="M364.095,247.022c1.378,1.055.431,4.5,2.445,6.255s2.005-.978,1.631-1.576,2.085.313,1.86-.562-.748-1.06-.452-1.482,1.64.473,1.484-.612-2.172-.42-1.837-1.6c.136-.471,3.544.636,5.546-1.163s-.3-1.487-1.194-1.037.717-1.145-.423-1.595-1.512,1.584-1.883,1.084c-.793-1.068-1.708.964-2.306.036s2.734-.8,2.407-2.3-4.875,2.338-3.405-.193c.646-1.115,2.468-2.827,1.641-3.2-1.239-.555-1.852,1.247-2,1.936s-1.7,1.376-2.006.434-.743.442-.958,2.022a2.31,2.31,0,0,1-1.929,2.27c-.889.175-1.446-.982-1.446-.982l-3.137.254s5.146,1.392,5.962,2.012" transform="translate(-98.89 -65.986)" fill="#7a770c"/>
            <path id="Trazado_1045626" data-name="Trazado 1045626" d="M384.293,249.155c-.22,2.124-4.721,3.937-5.287,7.206s2.476,1.121,2.885.3,1.087,2.212,1.907,1.308.664-1.532,1.344-1.587.6,1.917,1.706.919-1.034-2.375.515-2.984c.618-.246,1.741,3.836,5.129,4.311s1.451-1.451.333-1.939,1.776-.219,1.486-1.65-2.814-.18-2.51-.919c.648-1.585-2.255-.852-1.632-2.146s2.781,1.945,4.235.461-5.973-2.756-2.133-3.355c1.692-.264,4.857.106,4.7-.958-.234-1.608-2.673-.769-3.539-.366s-2.711-.529-1.868-1.552-1.006-.352-2.917.684-3.053.668-3.863-.035S382,244.406,382,244.406l-1.092.937s3.518,2.555,3.384,3.813" transform="translate(-104.634 -67.487)" fill="#989b10"/>
            <path id="Trazado_1045627" data-name="Trazado 1045627" d="M384.393,243.133c1.247,1.738-1.215,5.664.518,8.467s2.773-.547,2.557-1.4,2.367,1.061,2.434-.089-.488-1.541.029-1.96,1.778,1.108,2.012-.273-2.434-1.218-1.581-2.561c.342-.532,3.994,1.932,7.079.377s.21-1.926-1.03-1.661,1.3-1.173.111-2.1-2.417,1.455-2.67.719c-.538-1.57-2.413.63-2.767-.705s3.572-.1,3.765-2.044-6.73,1.283-4-1.342c1.2-1.161,4.038-2.671,3.2-3.39-1.274-1.09-2.7.926-3.139,1.721s-2.568,1.131-2.566-.119-1.058.3-1.923,2.17-2.045,2.233-3.176,2.16-.713-.048-.713-.048l-.733,1.231s1.854-.189,2.591.842" transform="translate(-105.426 -64.851)" fill="#89890e"/>
            <path id="Trazado_1045628" data-name="Trazado 1045628" d="M380.6,244.049c1.569.806,1.285,4.324,3.618,5.711s1.8-1.275,1.32-1.8,2.129-.03,1.739-.847-.943-.915-.73-1.375,1.716.2,1.355-.837-2.236-.059-2.127-1.265c.046-.483,3.64.049,5.285-2.028s-.586-1.4-1.384-.819.5-1.234-.724-1.49-1.2,1.789-1.662,1.362c-.991-.916-1.512,1.216-2.281.405s2.56-1.223,1.951-2.636-4.4,3.064-3.418.355c.429-1.19,1.912-3.155,1.021-3.384-1.336-.345-1.6,1.514-1.617,2.211s-1.427,1.616-1.905.746-.655.552-.568,2.129a2.213,2.213,0,0,1-1.482,2.526c-.85.315-1.621-.725-1.621-.725l-1.722,1.291s4.028-.009,4.956.469" transform="translate(-103.727 -64.989)" fill="#afaf14"/>
            <path id="Trazado_1045629" data-name="Trazado 1045629" d="M324.473,258.894c12.069-17.062,43.448-13.869,44.777-13.722l-.24,1.354c-.318-.032-31.765-3.233-43.3,13.076Z" transform="translate(-89.596 -67.608)" fill="#afaf14"/>
            <path id="Trazado_1045630" data-name="Trazado 1045630" d="M320.887,250.148c12.365-15.009,43.382-13.746,44.7-13.684l-.144,1.362c-.313-.012-31.521-1.284-43.382,13.115Z" transform="translate(-88.605 -65.28)" fill="#989b10"/>
            <path id="Trazado_1045631" data-name="Trazado 1045631" d="M376.351,227.153c-1.155-1.8-5.984-1.358-7.963-4.016s1.7-2.127,2.434-1.582-.026-2.464,1.112-2.036,1.284,1.063,1.915.8-.328-1.983,1.1-1.6.148,2.589,1.805,2.426c.661-.063-.179-4.211,2.628-6.179s1.949.633,1.171,1.577,1.681-.614,2.07.793-2.427,1.443-1.823,1.964c1.291,1.118-1.626,1.786-.489,2.656s1.6-3,3.567-2.339-4.081,5.179-.39,3.962c1.629-.534,4.284-2.306,4.626-1.289.518,1.538-2.033,1.9-2.989,1.94s-2.177,1.705-.964,2.234-.741.772-2.911.72-3.021.794-3.428,1.791-1.378,3.449-1.378,3.449l-1.394-.334s1.983-3.882,1.3-4.94" transform="translate(-101.562 -59.161)" fill="#afaf14"/>
            <path id="Trazado_1045632" data-name="Trazado 1045632" d="M379.581,233.081c.326-2.117-3.637-4.5-3.356-7.785s2.717-.776,2.91.086,1.632-2.025,2.21-1.032.26,1.6.911,1.736,1.083-1.8,1.915-.674-1.622,2.2-.256,3c.546.319,2.69-3.543,6.141-3.562s1.055,1.621-.17,1.95,1.688.454,1.043,1.816-2.809-.194-2.7.575c.228,1.644-2.436.54-2.15,1.889s3.228-1.541,4.278.109-6.578,1.92-2.956,3.016c1.6.485,4.8.541,4.381,1.565-.645,1.549-2.822.4-3.574-.106s-2.8.16-2.233,1.276-1.079.213-2.7-1.059-2.826-1.058-3.8-.478-.614.368-.614.368l-1.21-.765s1.739-.675,1.931-1.93" transform="translate(-103.882 -61.756)" fill="#89890e"/>
            <path id="Trazado_1045633" data-name="Trazado 1045633" d="M376.206,234.112c1.033-1.436-.806-4.441.649-6.74s2.182.315,1.987,1,1.912-.944,1.931-.037-.428,1.244-.031,1.558,1.442-.961,1.587.128-1.966,1.072-1.325,2.1c.255.41,3.221-1.7,5.624-.6s.111,1.519-.864,1.362,1,.874.027,1.658-1.876-1.05-2.1-.456c-.471,1.268-1.9-.4-2.217.677s2.834-.076,2.929,1.461-5.3-.73-3.207,1.239c.92.867,3.126,1.944,2.437,2.553-1.036.914-2.112-.621-2.438-1.233s-2-.792-2.036.2-.831-.195-1.466-1.639a2.2,2.2,0,0,0-2.46-1.579c-.9.108-1.12,1.388-1.12,1.388L372,236.786s3.6-1.828,4.209-2.674" transform="translate(-102.718 -62.527)" fill="#989b10"/>
            <path id="Trazado_1045634" data-name="Trazado 1045634" d="M316.051,241.771l.688-1.241c17.064,7.432,44.309-7.919,44.583-8.075l.743,1.152c-1.144.652-28.222,15.909-46.014,8.164" transform="translate(-87.27 -64.187)" fill="#afaf14"/>
            <path id="Trazado_1045635" data-name="Trazado 1045635" d="M319.788,249.609l-.186-1.346c26.673-4.206,40.229-13.981,40.363-14.079l.9,1.051c-.136.1-13.971,10.1-41.073,14.375" transform="translate(-88.251 -64.664)" fill="#7a770c"/>
            <path id="Trazado_1045636" data-name="Trazado 1045636" d="M317.525,244.642l.177-1.364c19.112,1.29,39.123-21.67,39.324-21.9l1.151.818c-.838.971-20.737,23.792-40.652,22.448" transform="translate(-87.677 -61.128)" fill="#89890e"/>
            <path id="Trazado_1045637" data-name="Trazado 1045637" d="M321.754,256.693c18.89-15.726,41.864-16.131,42.093-16.134l-.051,1.367c-.225,0-22.635.413-41.07,15.76Z" transform="translate(-88.845 -66.425)" fill="#989b10"/>
            <path id="Trazado_1045638" data-name="Trazado 1045638" d="M365.574,231.081c1.492,1.564-.4,5.728,1.733,8.278s2.688-.876,2.349-1.691,2.518.76,2.419-.381-.707-1.458-.25-1.942,1.931.884,1.965-.5-2.607-.906-1.947-2.33c.262-.569,4.262,1.417,7.116-.491s-.067-1.92-1.265-1.513,1.131-1.309-.2-2.075-2.2,1.726-2.554,1.034c-.76-1.481-2.316.912-2.867-.36s3.553-.528,3.462-2.471-6.522,2.083-4.174-.839c1.032-1.287,3.642-3.118,2.7-3.727-1.422-.919-2.557,1.239-2.88,2.08s-2.4,1.425-2.576.188-1.012.428-1.607,2.374-1.716,2.448-2.858,2.512-3.947.2-3.947.2l-.072,1.341s4.568-.605,5.449.322" transform="translate(-99.44 -61.257)" fill="#afaf14"/>
            <path id="Trazado_1045639" data-name="Trazado 1045639" d="M362.154,227.667c2.266.342,3.518,4.575,6.97,5.31s1.606-2.187.782-2.615,2.563-.844,1.717-1.658-1.556-.707-1.506-1.325,2.166-.426,1.262-1.5-2.734.787-3.151-.669c-.166-.582,4.43-1.334,5.481-4.4s-1.346-1.422-2.049-.431.042-1.635-1.548-1.469-.638,2.556-1.4,2.23c-1.617-.692-1.281,2-2.578,1.346s2.544-2.409,1.168-3.836-3.934,5.274-3.973,1.729c-.02-1.564.88-4.433-.294-4.361-1.781.107-1.256,2.387-.958,3.207s-1,2.442-1.975,1.6-.539.894.28,2.712.24,2.83-.646,3.525-.56.436-.56.436l.421,1.3a3.379,3.379,0,0,1,2.555-1.139" transform="translate(-99.162 -59.648)" fill="#7a770c"/>
            <path id="Trazado_1045640" data-name="Trazado 1045640" d="M360.164,231.02c1.779-.49,4.308,2.043,7.1,1.438s.33-2.038-.433-2.067,1.538-1.419.615-1.707-1.405.009-1.6-.436,1.414-1,.345-1.45-1.689,1.427-2.547.553c-.344-.353,2.705-2.355,2.3-4.82s-1.522-.554-1.653.358-.6-1.147-1.69-.518.514,1.982-.159,2c-1.441.043-.162,1.805-1.357,1.77s.924-2.5-.623-3.039-.835,4.929-2.227,2.481c-.613-1.077-1.056-3.36-1.887-2.929-1.247.647.005,2.062.535,2.535s.211,2.017-.817,1.75-.048.8,1.241,1.792,1.258,1.889.881,2.66-1.755.581-1.755.581l-1.148,2.416s3.839-3.074,4.889-3.366" transform="translate(-98.101 -61.111)" fill="#89890e"/>
            <path id="Trazado_1045641" data-name="Trazado 1045641" d="M368.273,217.243c1.493,1.562-.4,5.727,1.734,8.278s2.686-.875,2.347-1.691,2.519.76,2.42-.379-.708-1.461-.25-1.943,1.931.881,1.965-.507-2.606-.9-1.945-2.329c.263-.569,4.261,1.417,7.115-.491s-.066-1.92-1.266-1.511,1.131-1.313-.194-2.078-2.2,1.727-2.556,1.034c-.758-1.482-2.316.913-2.867-.359s3.552-.529,3.462-2.473-6.523,2.082-4.175-.838c1.032-1.288,3.643-3.118,2.7-3.727-1.423-.921-2.558,1.239-2.88,2.078s-2.4,1.426-2.576.19-1.014.428-1.607,2.374-1.718,2.449-2.859,2.512-3.947.2-3.947.2l-.072,1.341s4.567-.6,5.449.322" transform="translate(-100.185 -57.436)" fill="#afaf14"/>
            <path id="Trazado_1045642" data-name="Trazado 1045642" d="M364.851,213.827c2.266.342,3.518,4.576,6.972,5.311s1.607-2.187.781-2.616,2.563-.843,1.716-1.656-1.556-.708-1.5-1.327,2.167-.428,1.262-1.5-2.733.786-3.152-.671c-.164-.581,4.431-1.333,5.483-4.395s-1.347-1.422-2.049-.434.041-1.633-1.551-1.47-.639,2.557-1.4,2.232c-1.614-.692-1.28,2.005-2.578,1.347s2.544-2.409,1.168-3.836-3.933,5.274-3.973,1.729c-.021-1.564.88-4.434-.294-4.362-1.781.11-1.257,2.388-.959,3.209s-1,2.442-1.975,1.6-.54.9.28,2.714.24,2.83-.646,3.525-.56.438-.56.438l.422,1.3a3.385,3.385,0,0,1,2.554-1.141" transform="translate(-99.907 -55.826)" fill="#89890e"/>
            <path id="Trazado_1045643" data-name="Trazado 1045643" d="M363,217.183c1.779-.492,4.308,2.041,7.1,1.435s.329-2.036-.434-2.065,1.537-1.419.615-1.707-1.4.009-1.6-.439,1.414-1,.342-1.447-1.687,1.426-2.544.552c-.344-.353,2.705-2.355,2.295-4.822s-1.522-.552-1.653.36-.6-1.147-1.69-.517.515,1.981-.158,2c-1.441.041-.163,1.8-1.357,1.769s.925-2.5-.622-3.039-.835,4.929-2.227,2.481c-.612-1.077-1.057-3.359-1.886-2.929-1.246.647,0,2.062.534,2.535s.214,2.017-.815,1.75-.05.8,1.241,1.792,1.257,1.889.881,2.66-1.755.581-1.755.581L359,220.125s2.945-2.651,4-2.942" transform="translate(-98.98 -57.29)" fill="#afaf14"/>
            <path id="Trazado_1045644" data-name="Trazado 1045644" d="M355.085,226.06c1.849,1.2.992,5.609,3.71,7.635s2.435-1.393,1.905-2.112,2.665.22,2.292-.861-1.051-1.262-.718-1.822,2.117.456,1.815-.89-2.787-.341-2.48-1.85c.12-.6,4.54.5,6.89-1.924s-.528-1.842-1.61-1.2.8-1.5-.7-1.963-1.753,2.114-2.269,1.518c-1.105-1.275-2.06,1.351-2.909.237s3.373-1.235,2.812-3.092-5.925,3.34-4.316.043c.707-1.454,2.836-3.752,1.761-4.148-1.622-.6-2.219,1.717-2.334,2.594s-2.017,1.863-2.492.709-.895.617-1.008,2.618-1.1,2.712-2.207,3.006-3.844.994-3.844.994l.253,1.307s4.355-1.514,5.446-.8" transform="translate(-96.475 -59.515)" fill="#afaf14"/>
            <path id="Trazado_1045645" data-name="Trazado 1045645" d="M350.767,224.189c2.316-.132,4.573,3.7,8.152,3.7s1.055-2.437.138-2.683,2.321-1.338,1.292-1.946-1.706-.365-1.8-.976,2.032-.851.881-1.707-2.5,1.315-3.269,0c-.3-.526,4.045-2.189,4.339-5.359s-1.668-1.1-2.12,0-.358-1.588-1.884-1.1-.012,2.6-.838,2.438c-1.759-.341-.775,2.194-2.214,1.823s1.926-2.842.223-3.939-2.6,5.891-3.5,2.478c-.4-1.5-.2-4.456-1.346-4.149-1.726.468-.66,2.56-.168,3.29s-.4,2.561-1.556,1.952-.316.974.929,2.56.92,2.683.215,3.534-.446.535-.446.535l.731,1.169a3.261,3.261,0,0,1,2.241-1.618" transform="translate(-95.69 -58.745)" fill="#89890e"/>
            <path id="Trazado_1045646" data-name="Trazado 1045646" d="M349.4,227.362c1.634-.836,4.738,1.09,7.341-.062s-.167-2.03-.925-1.905,1.172-1.68.193-1.771-1.382.295-1.688-.1,1.153-1.248-.011-1.468-1.317,1.723-2.375,1.055c-.423-.271,2.1-2.826,1.1-5.123s-1.634-.221-1.543.686-.865-.985-1.79-.154.985,1.805.327,1.96c-1.408.332.277,1.776-.91,1.983s.308-2.6-1.349-2.807.37,4.93-1.594,2.85c-.864-.915-1.852-3.028-2.565-2.441-1.072.878.5,1.989,1.139,2.337s.7,1.9-.381,1.855.143.779,1.654,1.477,1.7,1.565,1.511,2.384-1.588.919-1.588.919l-1.029,2.767s3.521-3.949,4.485-4.445" transform="translate(-94.778 -59.905)" fill="#afaf14"/>
            <path id="Trazado_1045647" data-name="Trazado 1045647" d="M339.044,253.5c7.761-2.81,23.346-.1,24,.022l-.345,1.341c-.158-.027-15.82-2.754-23.17-.093Z" transform="translate(-93.619 -69.649)" fill="#7a770c"/>
            <path id="Trazado_1045648" data-name="Trazado 1045648" d="M340.99,252.183a12.987,12.987,0,0,1-5.3-8.039l.837-.181a12.423,12.423,0,0,0,4.965,7.564Z" transform="translate(-92.692 -67.365)" fill="#faa413"/>
            <path id="Trazado_1045649" data-name="Trazado 1045649" d="M338.265,253.024a12.431,12.431,0,0,1-.179-10.485l.777.289c-.023.049-2.355,5.022.172,9.832Z" transform="translate(-93.053 -66.971)" fill="#f07500"/>
            <path id="Trazado_1045650" data-name="Trazado 1045650" d="M338.707,253.225a16.538,16.538,0,0,1-5.847-7.812l.809-.281a16.075,16.075,0,0,0,5.551,7.446Z" transform="translate(-91.912 -67.687)" fill="#faa413"/>
            <path id="Trazado_1045651" data-name="Trazado 1045651" d="M342.9,252.215a2.3,2.3,0,0,1-.944-.793c-3.378-6.133-2.051-9.566-1.992-9.709l.8.242c-.014.031-1.233,3.289,1.96,9.089a2.609,2.609,0,0,0,1.7.811l-.04.782a3.446,3.446,0,0,1-1.48-.422" transform="translate(-93.788 -66.743)" fill="#f07500"/>
          </g>
        </g>
      </g>
    </g>
  </g>
</svg>
