<svg xmlns="http://www.w3.org/2000/svg" xmlns:xlink="http://www.w3.org/1999/xlink" width="93.656" height="93.656" viewBox="0 0 93.656 93.656">
  <defs>
    <filter id="Trazado_982547" x="0" y="0" width="93.656" height="93.656" filterUnits="userSpaceOnUse">
      <feOffset dy="3" input="SourceAlpha"/>
      <feGaussianBlur stdDeviation="3" result="blur"/>
      <feFlood flood-opacity="0.161"/>
      <feComposite operator="in" in2="blur"/>
      <feComposite in="SourceGraphic"/>
    </filter>
  </defs>
  <g id="Grupo_1201150" data-name="Grupo 1201150" transform="translate(-183 -492.172)">
    <g id="Grupo_1201149" data-name="Grupo 1201149">
      <g id="Grupo_1183673" data-name="Grupo 1183673" transform="translate(-11 -235.188)">
        <g id="Grupo_1182350" data-name="Grupo 1182350" transform="translate(0 -1607.64)">
          <g id="Grupo_1181616" data-name="Grupo 1181616" transform="translate(-1 1254)">
            <g id="Grupo_1180309" data-name="Grupo 1180309" transform="translate(-5.461 -6709)">
              <g id="Grupo_1174894" data-name="Grupo 1174894" transform="translate(11.291 2507.168)">
                <g id="Grupo_1172067" data-name="Grupo 1172067" transform="translate(198.17 5288.832)">
                  <g id="Grupo_1164308" data-name="Grupo 1164308" transform="translate(0 0)">
                    <g id="Grupo_1163948" data-name="Grupo 1163948" transform="translate(0)">
                      <g id="Grupo_1158168" data-name="Grupo 1158168" transform="translate(0)">
                        <g id="Grupo_1152576" data-name="Grupo 1152576">
                          <g id="Grupo_1148633" data-name="Grupo 1148633">
                            <g id="Grupo_1148525" data-name="Grupo 1148525">
                              <g transform="matrix(1, 0, 0, 1, -9, -6)" filter="url(#Trazado_982547)">
                                <g id="Trazado_982547-2" data-name="Trazado 982547" transform="translate(9 6)" fill="#f2f7f5">
                                  <path d="M 37.8281364440918 74.15627288818359 C 32.92320251464844 74.15627288818359 28.16579246520996 73.19596862792969 23.68804740905762 71.30204772949219 C 19.36230278015137 69.47240447998047 15.47705841064453 66.85280609130859 12.1402702331543 63.51601409912109 C 8.803469657897949 60.17921447753906 6.1838698387146 56.29397964477539 4.354236602783203 51.96822357177734 C 2.460303068161011 47.49048233032227 1.500003099441528 42.73307037353516 1.500003099441528 37.8281364440918 C 1.500003099441528 32.92321395874023 2.460303068161011 28.16579246520996 4.354236602783203 23.68804740905762 C 6.1838698387146 19.36230278015137 8.803469657897949 15.47706985473633 12.1402702331543 12.1402702331543 C 15.47706985473633 8.803469657897949 19.36230278015137 6.1838698387146 23.68804740905762 4.354236602783203 C 28.16579246520996 2.460303068161011 32.92321395874023 1.500003099441528 37.8281364440918 1.500003099441528 C 42.73307037353516 1.500003099441528 47.49048233032227 2.460303068161011 51.96822357177734 4.354236602783203 C 56.29397964477539 6.1838698387146 60.17921447753906 8.803469657897949 63.51601409912109 12.1402702331543 C 66.85280609130859 15.47705841064453 69.47240447998047 19.36230278015137 71.30204772949219 23.68804740905762 C 73.19596862792969 28.16579246520996 74.15627288818359 32.92320251464844 74.15627288818359 37.8281364440918 C 74.15627288818359 42.73307037353516 73.19596862792969 47.49048233032227 71.30204772949219 51.96822357177734 C 69.47240447998047 56.29397964477539 66.85280609130859 60.17921447753906 63.51601409912109 63.51601409912109 C 60.17921447753906 66.85280609130859 56.29397964477539 69.47240447998047 51.96822357177734 71.30204772949219 C 47.49048233032227 73.19596862792969 42.73307037353516 74.15627288818359 37.8281364440918 74.15627288818359 Z" stroke="none"/>
                                  <path d="M 37.8281364440918 3 C 33.12504959106445 3 28.56423568725586 3.920433044433594 24.27237319946289 5.735733032226562 C 20.12542343139648 7.48974609375 16.40044784545898 10.00139617919922 13.20092391967773 13.20092391967773 C 10.00139617919922 16.40044784545898 7.48974609375 20.12542343139648 5.735733032226562 24.27237319946289 C 3.920433044433594 28.56423568725586 3 33.12504959106445 3 37.8281364440918 C 3 42.53122329711914 3.920433044433594 47.09203720092773 5.735733032226562 51.3838996887207 C 7.48974609375 55.53084945678711 10.00139617919922 59.25582122802734 13.20092391967773 62.45534896850586 C 16.40044784545898 65.65487670898438 20.12542343139648 68.16652679443359 24.27237319946289 69.92053985595703 C 28.56423568725586 71.73583984375 33.12504959106445 72.65627288818359 37.8281364440918 72.65627288818359 C 42.53122329711914 72.65627288818359 47.09203720092773 71.73583984375 51.3838996887207 69.92053985595703 C 55.53084945678711 68.16652679443359 59.25582122802734 65.65487670898438 62.45534896850586 62.45534896850586 C 65.65487670898438 59.25582122802734 68.16652679443359 55.53084945678711 69.92053985595703 51.3838996887207 C 71.73583984375 47.09203720092773 72.65627288818359 42.53122329711914 72.65627288818359 37.8281364440918 C 72.65627288818359 33.12504959106445 71.73583984375 28.56423568725586 69.92053985595703 24.27237319946289 C 68.16652679443359 20.12542343139648 65.65487670898438 16.40044784545898 62.45534896850586 13.20092391967773 C 59.25582122802734 10.00139617919922 55.53084945678711 7.48974609375 51.3838996887207 5.735733032226562 C 47.09203720092773 3.920433044433594 42.53122329711914 3 37.8281364440918 3 M 37.8281364440918 0 C 58.72003555297852 0 75.65627288818359 16.93623733520508 75.65627288818359 37.8281364440918 C 75.65627288818359 58.72003555297852 58.72003555297852 75.65627288818359 37.8281364440918 75.65627288818359 C 16.93623733520508 75.65627288818359 0 58.72003555297852 0 37.8281364440918 C 0 16.93623733520508 16.93623733520508 0 37.8281364440918 0 Z" stroke="none" fill="#4a665c"/>
                                </g>
                              </g>
                            </g>
                          </g>
                        </g>
                      </g>
                    </g>
                  </g>
                </g>
              </g>
            </g>
          </g>
        </g>
      </g>
    </g>
    <g id="internacional" transform="translate(190.472 509.976)">
      <circle id="Elipse_14219" data-name="Elipse 14219" cx="23.702" cy="23.702" r="23.702" transform="translate(16.116 3.883)" fill="#b3d8fb"/>
      <path id="Trazado_1046997" data-name="Trazado 1046997" d="M215.945,38.2a23.814,23.814,0,0,0-4.533.435,23.7,23.7,0,0,1,0,46.534A23.7,23.7,0,1,0,215.945,38.2Z" transform="translate(-176.127 -34.317)" fill="#89c6fc"/>
      <path id="Trazado_1046998" data-name="Trazado 1046998" d="M161.959,200.805l-2.558,3.614a3.862,3.862,0,0,0,.921,5.384l.65.46a3.862,3.862,0,0,1,1.628,3.294l-.375,10.189a2.421,2.421,0,0,0,3.8,2.077l7.008-4.869a10.645,10.645,0,0,0,2.614-2.591l4.516-6.379a3.048,3.048,0,0,0-.727-4.249l-11.285-7.989A4.442,4.442,0,0,0,161.959,200.805Z" transform="translate(-128.765 -178.707)" fill="#05e29a"/>
      <path id="Trazado_1046999" data-name="Trazado 1046999" d="M99.581,41.015a1.958,1.958,0,0,1-.248-2.215,23.563,23.563,0,0,0-11.176,3.736l-3.321,3.321A4.589,4.589,0,0,0,83.492,49.1v3.7a1.19,1.19,0,0,0,1.869.978l2.729-1.895a5.3,5.3,0,0,1,3.023-.946h3.512a4.338,4.338,0,0,0,3.068-1.271l3.466-3.466a2.383,2.383,0,0,0,.111-3.251Z" transform="translate(-61.21 -34.856)" fill="#05e29a"/>
      <path id="Trazado_1047000" data-name="Trazado 1047000" d="M396.217,97.214l-1.357,4.722a8.175,8.175,0,0,0,.4,5.607l1.481,3.3a4.164,4.164,0,0,0,6.122,1.749l1.1-.739A23.653,23.653,0,0,0,396.217,97.214Z" transform="translate(-340.641 -87.332)" fill="#1dd08d"/>
      <path id="Trazado_1047001" data-name="Trazado 1047001" d="M400.095,80.364c-.151,3.61-2.9,6.766-4.259,8.111a1.056,1.056,0,0,1-1.487,0c-1.4-1.382-4.266-4.682-4.266-8.419a5.01,5.01,0,0,1,5.065-5.009A5.067,5.067,0,0,1,400.095,80.364Z" transform="translate(-336.634 -67.417)" fill="#fc6b55"/>
      <path id="Trazado_1047002" data-name="Trazado 1047002" d="M419.3,75.35a5.15,5.15,0,0,1,1.268,3.608c-.147,3.516-2.76,6.6-4.15,8a18.979,18.979,0,0,0,1.589,1.789,1.056,1.056,0,0,0,1.487,0c1.357-1.345,4.108-4.5,4.259-8.111A5.08,5.08,0,0,0,419.3,75.35Z" transform="translate(-360.292 -67.69)" fill="#fc534e"/>
      <circle id="Elipse_14220" data-name="Elipse 14220" cx="2.451" cy="2.451" r="2.451" transform="translate(56.007 10.375)" fill="#e5ecf1"/>
      <path id="Trazado_1047003" data-name="Trazado 1047003" d="M424.746,102.518a2.451,2.451,0,0,1-2.181,4.163,2.451,2.451,0,1,0,2.181-4.163Z" transform="translate(-365.815 -92.096)" fill="#c2d0da"/>
      <path id="Trazado_1047004" data-name="Trazado 1047004" d="M245.113,158.956c-.151,3.61-2.9,6.766-4.259,8.111a1.056,1.056,0,0,1-1.487,0c-1.4-1.382-4.266-4.682-4.266-8.419a5.01,5.01,0,0,1,5.065-5.009A5.067,5.067,0,0,1,245.113,158.956Z" transform="translate(-197.407 -138.021)" fill="#fc6b55"/>
      <path id="Trazado_1047005" data-name="Trazado 1047005" d="M264.317,153.943a5.149,5.149,0,0,1,1.268,3.608c-.147,3.516-2.76,6.6-4.15,8a18.985,18.985,0,0,0,1.589,1.789,1.056,1.056,0,0,0,1.487,0c1.357-1.345,4.108-4.5,4.259-8.111A5.08,5.08,0,0,0,264.317,153.943Z" transform="translate(-221.065 -138.294)" fill="#fc534e"/>
      <circle id="Elipse_14221" data-name="Elipse 14221" cx="2.451" cy="2.451" r="2.451" transform="translate(40.252 18.365)" fill="#e5ecf1"/>
      <path id="Trazado_1047006" data-name="Trazado 1047006" d="M269.763,181.112a2.451,2.451,0,0,1-2.181,4.163,2.451,2.451,0,1,0,2.181-4.163Z" transform="translate(-226.587 -162.701)" fill="#c2d0da"/>
      <path id="Trazado_1047007" data-name="Trazado 1047007" d="M168.7,274.566c-.151,3.61-2.9,6.766-4.259,8.111a1.056,1.056,0,0,1-1.487,0c-1.4-1.382-4.266-4.682-4.266-8.419a5.01,5.01,0,0,1,5.065-5.009,5.066,5.066,0,0,1,4.948,5.317Z" transform="translate(-128.764 -241.878)" fill="#fc6b55"/>
      <path id="Trazado_1047008" data-name="Trazado 1047008" d="M187.907,269.553a5.15,5.15,0,0,1,1.268,3.608c-.147,3.516-2.76,6.6-4.15,8a18.981,18.981,0,0,0,1.589,1.789,1.056,1.056,0,0,0,1.487,0c1.357-1.345,4.108-4.5,4.259-8.111A5.08,5.08,0,0,0,187.907,269.553Z" transform="translate(-152.422 -242.151)" fill="#fc534e"/>
      <circle id="Elipse_14222" data-name="Elipse 14222" cx="2.451" cy="2.451" r="2.451" transform="translate(32.484 30.117)" fill="#e5ecf1"/>
      <path id="Trazado_1047009" data-name="Trazado 1047009" d="M193.354,296.721a2.451,2.451,0,0,1-2.181,4.163,2.451,2.451,0,1,0,2.181-4.163Z" transform="translate(-157.945 -266.558)" fill="#c2d0da"/>
      <path id="Trazado_1047010" data-name="Trazado 1047010" d="M59.824,12.807c-.151,3.61-2.9,6.766-4.259,8.111a1.056,1.056,0,0,1-1.487,0c-1.4-1.382-4.266-4.682-4.266-8.419A5.01,5.01,0,0,1,54.876,7.49,5.066,5.066,0,0,1,59.824,12.807Z" transform="translate(-30.953 -6.729)" fill="#fc6b55"/>
      <path id="Trazado_1047011" data-name="Trazado 1047011" d="M79.027,7.793A5.149,5.149,0,0,1,80.295,11.4c-.147,3.516-2.76,6.6-4.15,8a18.98,18.98,0,0,0,1.589,1.789,1.056,1.056,0,0,0,1.487,0c1.357-1.345,4.108-4.5,4.259-8.111a5.08,5.08,0,0,0-4.454-5.287Z" transform="translate(-54.61 -7.001)" fill="#fc534e"/>
      <circle id="Elipse_14223" data-name="Elipse 14223" cx="2.451" cy="2.451" r="2.451" transform="translate(21.416 3.508)" fill="#e5ecf1"/>
      <path id="Trazado_1047012" data-name="Trazado 1047012" d="M84.474,34.962a2.451,2.451,0,0,1-2.181,4.163,2.451,2.451,0,1,0,2.181-4.163Z" transform="translate(-60.133 -31.408)" fill="#c2d0da"/>
      <path id="Trazado_1047013" data-name="Trazado 1047013" d="M62.436,18.253a10.987,10.987,0,0,0,1.786-5.275,5.947,5.947,0,0,0-1.616-4.32,5.674,5.674,0,0,0-4.084-1.79h-.064a5.723,5.723,0,0,0-3.7,1.344A24.477,24.477,0,0,0,29.612,5.35a5.947,5.947,0,0,0-1.6-3.56A5.674,5.674,0,0,0,23.931,0h-.064A5.771,5.771,0,0,0,18.1,5.771,11.56,11.56,0,0,0,20.6,12.442a24.382,24.382,0,0,0-3.632,6.377.761.761,0,1,0,1.422.546,22.85,22.85,0,0,1,3.156-5.657,5.354,5.354,0,0,0-.03.539v3.7a1.95,1.95,0,0,0,3.064,1.6l2.729-1.895a4.518,4.518,0,0,1,2.588-.81h3.512A5.067,5.067,0,0,0,37.02,15.35l3.466-3.466a3.154,3.154,0,0,0,.146-4.29L38.944,5.659a1.2,1.2,0,0,1-.277-.983c.383-.019.767-.031,1.151-.031a23,23,0,0,1,13.9,4.694,5.725,5.725,0,0,0-1.036,3.3,9.225,9.225,0,0,0,.535,3.023,8.927,8.927,0,0,0,.7,4.862l1.481,3.3a4.926,4.926,0,0,0,7.241,2.07l.047-.032q.063.857.064,1.726A22.94,22.94,0,1,1,17.482,22.33.761.761,0,1,0,16,21.982a24.581,24.581,0,0,0-.645,5.6,24.463,24.463,0,1,0,47.081-9.332ZM20.88,2.751a4.218,4.218,0,0,1,2.987-1.228h.047a4.163,4.163,0,0,1,3,1.316,4.417,4.417,0,0,1,1.2,3.208c-.142,3.393-2.868,6.446-4.034,7.6a.3.3,0,0,1-.416,0c-1.215-1.2-4.041-4.382-4.041-7.879A4.218,4.218,0,0,1,20.88,2.751ZM37.8,6.66,39.484,8.6a1.626,1.626,0,0,1-.076,2.213l-3.466,3.466a3.553,3.553,0,0,1-2.529,1.048H29.9A6.034,6.034,0,0,0,26.445,16.4L23.716,18.3a.429.429,0,0,1-.673-.352V15.059a1.824,1.824,0,0,0,2.1-.328c1.468-1.455,3.865-4.285,4.387-7.655a22.96,22.96,0,0,1,7.6-2.272A2.725,2.725,0,0,0,37.8,6.66ZM58.458,8.39H58.5a4.163,4.163,0,0,1,3,1.316,4.417,4.417,0,0,1,1.2,3.208c-.142,3.393-2.868,6.446-4.034,7.6a.3.3,0,0,1-.416,0c-1.215-1.2-4.041-4.382-4.041-7.879A4.248,4.248,0,0,1,58.458,8.39ZM61.8,24.627a3.4,3.4,0,0,1-5-1.43l-1.481-3.3a7.439,7.439,0,0,1-.331-.885,19.479,19.479,0,0,0,2.2,2.584,1.824,1.824,0,0,0,2.559,0,19.937,19.937,0,0,0,1.647-1.849,22.668,22.668,0,0,1,1.119,4.4Z" transform="translate(0 0)"/>
      <path id="Trazado_1047014" data-name="Trazado 1047014" d="M410.974,101a3.213,3.213,0,1,0-3.213-3.213A3.216,3.216,0,0,0,410.974,101Zm0-4.9a1.69,1.69,0,1,1-1.69,1.69A1.692,1.692,0,0,1,410.974,96.1Z" transform="translate(-352.516 -84.961)"/>
      <path id="Trazado_1047015" data-name="Trazado 1047015" d="M168.875,147.941a5.674,5.674,0,0,0-4.084-1.79h-.064a5.775,5.775,0,0,0-5.654,4.609,5.211,5.211,0,0,0-4.476,2.193l-2.558,3.614a4.615,4.615,0,0,0-.352,4.759,5.753,5.753,0,0,0-.5,2.349c0,3.354,2.056,6.305,3.7,8.13l-.166,4.5a3.184,3.184,0,0,0,5,2.73l7.008-4.869a11.372,11.372,0,0,0,2.8-2.777l2.116-2.988a.761.761,0,0,0-1.243-.88l-2.116,2.989a9.854,9.854,0,0,1-2.427,2.406l-7.008,4.869a1.659,1.659,0,0,1-2.6-1.424l.124-3.3a1.816,1.816,0,0,0,1.87-.425c1.607-1.592,4.326-4.829,4.484-8.62a5.948,5.948,0,0,0-1.617-4.32,5.733,5.733,0,0,0-8.206-.122c-.051.051-.1.1-.15.156a3.1,3.1,0,0,1,.53-2.281l2.558-3.614a3.688,3.688,0,0,1,3.124-1.551c.164,3.769,2.858,6.99,4.484,8.6a1.824,1.824,0,0,0,2.559,0,19.343,19.343,0,0,0,2.3-2.735l3.951,2.8a2.287,2.287,0,0,1,.545,3.188l-.555.785a.761.761,0,1,0,1.243.88l.555-.785a3.81,3.81,0,0,0-.908-5.31l-4.028-2.851a10.505,10.505,0,0,0,1.383-4.588,5.946,5.946,0,0,0-1.616-4.32ZM156.96,159.425h.047a4.163,4.163,0,0,1,3,1.316,4.417,4.417,0,0,1,1.2,3.208c-.142,3.393-2.869,6.446-4.035,7.6a.3.3,0,0,1-.415,0c-1.215-1.2-4.041-4.381-4.041-7.878a4.248,4.248,0,0,1,4.248-4.248Zm7.976.374a.3.3,0,0,1-.416,0c-1.215-1.2-4.041-4.382-4.041-7.879a4.248,4.248,0,0,1,4.248-4.248h.047a4.163,4.163,0,0,1,3,1.316,4.417,4.417,0,0,1,1.2,3.208C168.829,155.59,166.1,158.643,164.936,159.8Z" transform="translate(-122.025 -131.293)"/>
      <path id="Trazado_1047016" data-name="Trazado 1047016" d="M258.442,175.62a.761.761,0,0,0-.761.761,1.688,1.688,0,1,1-1.354-1.657.761.761,0,0,0,.3-1.493,3.213,3.213,0,1,0,2.577,3.15A.761.761,0,0,0,258.442,175.62Z" transform="translate(-213.288 -155.565)"/>
      <path id="Trazado_1047017" data-name="Trazado 1047017" d="M179.581,295.2a3.213,3.213,0,1,0-3.213-3.213A3.216,3.216,0,0,0,179.581,295.2Zm0-4.9a1.69,1.69,0,1,1-1.69,1.69A1.692,1.692,0,0,1,179.581,290.3Z" transform="translate(-144.645 -259.422)"/>
      <path id="Trazado_1047018" data-name="Trazado 1047018" d="M73.913,30.231A3.213,3.213,0,1,0,70.7,33.443a3.216,3.216,0,0,0,3.213-3.212Zm-4.9,0a1.69,1.69,0,1,1,1.69,1.69,1.692,1.692,0,0,1-1.69-1.69Z" transform="translate(-46.833 -24.271)"/>
    </g>
  </g>
</svg>
