<svg xmlns="http://www.w3.org/2000/svg" xmlns:xlink="http://www.w3.org/1999/xlink" width="103" height="103" viewBox="0 0 103 103">
  <defs>
    <filter id="Trazado_978624" x="0" y="0" width="103" height="103" filterUnits="userSpaceOnUse">
      <feOffset dy="3" input="SourceAlpha"/>
      <feGaussianBlur stdDeviation="3" result="blur"/>
      <feFlood flood-opacity="0.161"/>
      <feComposite operator="in" in2="blur"/>
      <feComposite in="SourceGraphic"/>
    </filter>
  </defs>
  <g id="Grupo_1183928" data-name="Grupo 1183928" transform="translate(-191 -313)">
    <g id="Grupo_1182731" data-name="Grupo 1182731">
      <g id="Grupo_1179559" data-name="Grupo 1179559" transform="translate(200 319)">
        <g id="Grupo_1144531" data-name="Grupo 1144531">
          <g transform="matrix(1, 0, 0, 1, -9, -6)" filter="url(#Trazado_978624)">
            <g id="Trazado_978624-2" data-name="Trazado 978624" transform="translate(9 6)" fill="#fdf6ea">
              <path d="M 42.5 83.5 C 36.96437835693359 83.5 31.59512901306152 82.41617584228516 26.54141235351562 80.27863311767578 C 21.65934181213379 78.21369171142578 17.27447128295898 75.25723266601562 13.50862312316895 71.49137878417969 C 9.742764472961426 67.72553253173828 6.786305904388428 63.34066009521484 4.721364498138428 58.45858764648438 C 2.583823442459106 53.40486907958984 1.5 48.03562164306641 1.5 42.5 C 1.5 36.96437835693359 2.583823442459106 31.59512901306152 4.721364498138428 26.54141235351562 C 6.786305904388428 21.65934181213379 9.742764472961426 17.27447128295898 13.50862312316895 13.50862312316895 C 17.27447128295898 9.742764472961426 21.65934181213379 6.786305904388428 26.54141235351562 4.721364498138428 C 31.59512901306152 2.583823442459106 36.96437835693359 1.5 42.5 1.5 C 48.03562164306641 1.5 53.40486907958984 2.583823442459106 58.45858764648438 4.721364498138428 C 63.34066009521484 6.786305904388428 67.72553253173828 9.742764472961426 71.49137878417969 13.50862312316895 C 75.25723266601562 17.27447128295898 78.21369171142578 21.65934181213379 80.27863311767578 26.54141235351562 C 82.41617584228516 31.59512901306152 83.5 36.96437835693359 83.5 42.5 C 83.5 48.03562164306641 82.41617584228516 53.40486907958984 80.27863311767578 58.45858764648438 C 78.21369171142578 63.34066009521484 75.25723266601562 67.72553253173828 71.49137878417969 71.49137878417969 C 67.72553253173828 75.25723266601562 63.34066009521484 78.21369171142578 58.45858764648438 80.27863311767578 C 53.40486907958984 82.41617584228516 48.03562164306641 83.5 42.5 83.5 Z" stroke="none"/>
              <path d="M 42.5 3 C 37.16621398925781 3 31.99356079101562 4.043960571289062 27.125732421875 6.102882385253906 C 22.42246627807617 8.092185974121094 18.19785308837891 10.94070434570312 14.56928253173828 14.56928253173828 C 10.94070434570312 18.19785308837891 8.092185974121094 22.42246627807617 6.102882385253906 27.125732421875 C 4.043960571289062 31.99356079101562 3 37.16621398925781 3 42.5 C 3 47.83378601074219 4.043960571289062 53.00643920898438 6.102882385253906 57.87425231933594 C 8.092185974121094 62.57753372192383 10.94070434570312 66.80213165283203 14.56928253173828 70.43071746826172 C 18.19786834716797 74.05929565429688 22.42246627807617 76.90781402587891 27.125732421875 78.89711761474609 C 31.99356079101562 80.95603942871094 37.16621398925781 82 42.5 82 C 47.83378601074219 82 53.00642395019531 80.95603942871094 57.87425231933594 78.89711761474609 C 62.57753372192383 76.90781402587891 66.80213165283203 74.05929565429688 70.43071746826172 70.43071746826172 C 74.05929565429688 66.80213165283203 76.90781402587891 62.57753372192383 78.89711761474609 57.87425231933594 C 80.95603942871094 53.00642395019531 82 47.83378601074219 82 42.5 C 82 37.16621398925781 80.95603942871094 31.99356079101562 78.89711761474609 27.125732421875 C 76.90781402587891 22.42246627807617 74.05929565429688 18.19786834716797 70.43071746826172 14.56928253173828 C 66.80213165283203 10.94070434570312 62.57753372192383 8.092185974121094 57.87425231933594 6.102882385253906 C 53.00643920898438 4.043960571289062 47.83378601074219 3 42.5 3 M 42.5 0 C 65.97209167480469 0 85 19.02789306640625 85 42.5 C 85 65.97209167480469 65.97209167480469 85 42.5 85 C 19.02789306640625 85 0 65.97209167480469 0 42.5 C 0 19.02789306640625 19.02789306640625 0 42.5 0 Z" stroke="none" fill="#edae3b"/>
            </g>
          </g>
        </g>
      </g>
    </g>
    <g id="ocurrencia" transform="translate(210.075 334.341)">
      <g id="Grupo_1183926" data-name="Grupo 1183926" transform="translate(15.463 1.061)">
        <path id="Trazado_1046140" data-name="Trazado 1046140" d="M211.454,448.2a5.708,5.708,0,0,1-11.415,0Z" transform="translate(-189.013 -401.715)" fill="#8aa8bd"/>
        <path id="Trazado_1046141" data-name="Trazado 1046141" d="M129.582,26.733A16.733,16.733,0,0,0,113.079,10a16.913,16.913,0,0,0-16.96,16.469,16.673,16.673,0,0,0,4.424,11.6,12.691,12.691,0,0,1,3.4,8.593h17.823a12.65,12.65,0,0,1,3.383-8.579A16.671,16.671,0,0,0,129.582,26.733Z" transform="translate(-96.117 -10)" fill="#a0e5a5"/>
        <g id="Grupo_1183925" data-name="Grupo 1183925" transform="translate(6.111 36.662)">
          <path id="Trazado_1046142" data-name="Trazado 1046142" d="M172.507,360.486H156.178a2.457,2.457,0,1,1,0-4.914h16.329a2.457,2.457,0,0,1,0,4.914Z" transform="translate(-153.721 -355.572)" fill="#ffcd69"/>
          <path id="Trazado_1046143" data-name="Trazado 1046143" d="M172.507,406.8H156.178a2.457,2.457,0,0,1,0-4.914h16.329a2.457,2.457,0,0,1,0,4.914Z" transform="translate(-153.721 -396.974)" fill="#ffcd69"/>
        </g>
      </g>
      <g id="Grupo_1183927" data-name="Grupo 1183927" transform="translate(5.891 0)">
        <path id="Trazado_1046144" data-name="Trazado 1046144" d="M117.928,8.593a1.061,1.061,0,0,0-.4,1.447,15.679,15.679,0,0,1-2.108,18.383,13.7,13.7,0,0,0-3.623,8.238H96.017a13.763,13.763,0,0,0-3.635-8.252A15.726,15.726,0,0,1,104.125,2.123a15.5,15.5,0,0,1,7.033,1.771,1.061,1.061,0,1,0,.983-1.88A17.648,17.648,0,0,0,91.564,5.081a17.666,17.666,0,0,0-.741,24.767,11.632,11.632,0,0,1,3.1,7.323,3.513,3.513,0,0,0-.693,5.465,3.515,3.515,0,0,0,2.514,5.975h1.48a6.769,6.769,0,0,0,13.37,0h1.48a3.515,3.515,0,0,0,2.514-5.975,3.513,3.513,0,0,0-.693-5.465,11.578,11.578,0,0,1,3.088-7.308,17.8,17.8,0,0,0,2.392-20.874,1.061,1.061,0,0,0-1.447-.4Zm-5.854,30.191a1.4,1.4,0,0,1,0,2.792H95.745a1.4,1.4,0,1,1,0-2.792ZM103.91,52.2a4.655,4.655,0,0,1-4.525-3.586h9.049A4.655,4.655,0,0,1,103.91,52.2Zm8.165-5.708H95.745a1.4,1.4,0,1,1,0-2.792h16.329a1.4,1.4,0,0,1,0,2.792Z" transform="translate(-77.605 0)"/>
        <path id="Trazado_1046145" data-name="Trazado 1046145" d="M207.557,93.46a3.2,3.2,0,0,1,3.386,2.975,1.061,1.061,0,1,0,2.122,0,5.225,5.225,0,0,0-4.447-5V90.72a1.061,1.061,0,1,0-2.122,0v.714a5.225,5.225,0,0,0-4.447,5,5.32,5.32,0,0,0,5.508,5.1,3,3,0,1,1-3.386,2.975,1.061,1.061,0,1,0-2.122,0,5.225,5.225,0,0,0,4.447,5v.5a1.061,1.061,0,1,0,2.122,0v-.5a5.225,5.225,0,0,0,4.447-5,5.32,5.32,0,0,0-5.508-5.1,3,3,0,1,1,0-5.95Z" transform="translate(-181.239 -80.147)"/>
        <path id="Trazado_1046146" data-name="Trazado 1046146" d="M447.576,157.722h-4.7a1.061,1.061,0,0,0,0,2.122h4.7a1.061,1.061,0,1,0,0-2.122Z" transform="translate(-395.568 -140.989)"/>
        <path id="Trazado_1046147" data-name="Trazado 1046147" d="M436.9,72.844a1.059,1.059,0,0,0,.379-.071l4.157-1.593a1.061,1.061,0,0,0-.759-1.981l-4.157,1.593a1.061,1.061,0,0,0,.38,2.052Z" transform="translate(-390.223 -61.795)"/>
        <path id="Trazado_1046148" data-name="Trazado 1046148" d="M441.434,232.956l-4.157-1.593a1.061,1.061,0,1,0-.759,1.981l4.157,1.593a1.061,1.061,0,1,0,.759-1.981Z" transform="translate(-390.223 -206.755)"/>
        <path id="Trazado_1046149" data-name="Trazado 1046149" d="M12.712,158.783a1.061,1.061,0,0,0-1.061-1.061h-4.7a1.061,1.061,0,1,0,0,2.122h4.7A1.061,1.061,0,0,0,12.712,158.783Z" transform="translate(-5.891 -140.989)"/>
        <path id="Trazado_1046150" data-name="Trazado 1046150" d="M22.577,70.794,18.42,69.2a1.061,1.061,0,1,0-.759,1.981l4.157,1.593a1.061,1.061,0,1,0,.759-1.981Z" transform="translate(-15.803 -61.797)"/>
        <path id="Trazado_1046151" data-name="Trazado 1046151" d="M21.817,231.363l-4.157,1.593a1.061,1.061,0,1,0,.759,1.981l4.157-1.593a1.061,1.061,0,1,0-.759-1.981Z" transform="translate(-15.802 -206.755)"/>
        <circle id="Elipse_14182" data-name="Elipse 14182" cx="1.061" cy="1.061" r="1.061" transform="translate(36.854 4.688)"/>
      </g>
    </g>
  </g>
</svg>
