<svg xmlns="http://www.w3.org/2000/svg" xmlns:xlink="http://www.w3.org/1999/xlink" width="190" height="140" viewBox="0 0 190 140">
  <defs>
    <clipPath id="clip-path">
      <rect id="Rectángulo_416379" data-name="Rectángulo 416379" width="190" height="140" transform="translate(-6.452 21.717)" fill="#fff" stroke="#707070" stroke-width="1"/>
    </clipPath>
  </defs>
  <g id="Enmascarar_grupo_1183029" data-name="Enmascarar grupo 1183029" transform="translate(6.452 -21.717)" clip-path="url(#clip-path)">
    <g id="caja" transform="translate(24.361 46.506)">
      <path id="Trazado_1047078" data-name="Trazado 1047078" d="M97.52,0c-39.4,0-67.688,21.659-67.688,78.7S60.7,155.14,100.1,155.14s65.1-32.155,65.1-89.2S136.922,0,97.52,0Z" transform="translate(-29.832 0)" fill="#eeeaf0"/>
      <path id="Trazado_1047079" data-name="Trazado 1047079" d="M183.717,271.31a42.528,42.528,0,0,1,8.353.6h14.575l.018.035c.292.56.6,1.094.909,1.608,2.075,3.427,4.494,5.774,6.178,6.037v5.472a19.791,19.791,0,0,1-11.165,3.432c-.42,0-.832-.031-1.246-.056a19.833,19.833,0,0,1-15.976-9.889c-.5.024-1,.042-1.508.051-7.558.141-13.716-1.379-13.753-3.393s6.059-3.761,13.617-3.9Z" transform="translate(-126.583 -192.503)" fill="#9e3b0a"/>
      <path id="Trazado_1047080" data-name="Trazado 1047080" d="M282.5,125.711h-31.09v51H282.5Z" transform="translate(-223.287 -96.714)" fill="#f8b372"/>
      <path id="Trazado_1047081" data-name="Trazado 1047081" d="M153.555,125.711H102.308v51h51.247Z" transform="translate(-43.09 -96.714)" fill="#f8b372"/>
      <path id="Trazado_1047082" data-name="Trazado 1047082" d="M172.149,200.265H161.786v25.5h10.363Z" transform="translate(-82.126 -145.766)" fill="#facfb0"/>
      <path id="Trazado_1047083" data-name="Trazado 1047083" d="M278.438,263.058c1.33-.142,2.688-.282,4.065-.429V266.8h-31.09v-3.086A158.7,158.7,0,0,0,278.438,263.058Z" transform="translate(-223.285 -186.798)" fill="#db8e53"/>
      <path id="Trazado_1047084" data-name="Trazado 1047084" d="M131.282,164.576c9.23-6.132,14.8-16.661,17.48-27.142a61.959,61.959,0,0,0,1.751-11.721h3.042v51H102.308v-4.169C112.206,171.487,123.068,170.032,131.282,164.576Z" transform="translate(-43.09 -96.715)" fill="#db8e53"/>
      <path id="Trazado_1047085" data-name="Trazado 1047085" d="M165.253,207.563a31.756,31.756,0,0,1-3.468,1.762v-9.059h10.363v1.252A26.022,26.022,0,0,1,165.253,207.563Z" transform="translate(-82.125 -145.767)" fill="#facfb0"/>
      <path id="Trazado_1047086" data-name="Trazado 1047086" d="M170.317,236.8c.629-.418,1.237-.86,1.832-1.316v13.456H161.785v-8.042A37.166,37.166,0,0,0,170.317,236.8Z" transform="translate(-82.125 -168.935)" fill="#f2b78f"/>
      <path id="Trazado_1047087" data-name="Trazado 1047087" d="M251.146,125.166v51a.3.3,0,0,1-.589,0v-51a.3.3,0,0,1,.589,0Z" transform="translate(-191.633 -96.169)" fill="#010735"/>
      <path id="Trazado_1047088" data-name="Trazado 1047088" d="M299.183,84.31a.7.7,0,0,1,.6.64c.18,2.571.715,4.435,1.347,4.435s1.167-1.864,1.347-4.435a.7.7,0,0,1,.6-.64c1.5-.227,2.541-.708,2.541-1.266s-1.038-1.039-2.541-1.266a.7.7,0,0,1-.6-.64c-.18-2.571-.715-4.435-1.347-4.435s-1.167,1.864-1.347,4.435a.7.7,0,0,1-.6.64c-1.5.227-2.541.708-2.541,1.266S297.68,84.083,299.183,84.31Z" transform="translate(-261.945 -64.47)" fill="#fff"/>
      <path id="Trazado_1047089" data-name="Trazado 1047089" d="M322.653,117.6a1.129,1.129,0,0,1,.966,1.031c.29,4.138,1.151,7.139,2.169,7.139s1.878-3,2.168-7.139a1.129,1.129,0,0,1,.966-1.031c2.42-.366,4.09-1.14,4.09-2.038s-1.67-1.673-4.09-2.038a1.13,1.13,0,0,1-.966-1.031c-.29-4.138-1.151-7.139-2.168-7.139s-1.878,3-2.169,7.139a1.129,1.129,0,0,1-.966,1.031c-2.42.365-4.09,1.14-4.09,2.038S320.234,117.237,322.653,117.6Z" transform="translate(-296.874 -83.323)" fill="#fff"/>
      <path id="Trazado_1047090" data-name="Trazado 1047090" d="M99.191,277.788v-5.472a1.564,1.564,0,0,0,.976-.118c1.8-.929,1.1-5.806-1.557-10.893-.191-.366-.389-.721-.589-1.068h0l29.806,45.114a55.641,55.641,0,0,1-35.076,20.3l-3.619-25.072L86.78,281.163c.413.026.826.056,1.246.056A19.792,19.792,0,0,0,99.191,277.788Z" transform="translate(-12.026 -185.223)" fill="#9e3b0a"/>
      <path id="Trazado_1047091" data-name="Trazado 1047091" d="M165.356,241.059c1.667-.862,4.895,1.981,7.473,6.46.2.348.4.7.589,1.068,2.656,5.087,3.353,9.964,1.557,10.893a1.566,1.566,0,0,1-.976.118c-1.684-.264-4.1-2.61-6.178-6.037-.311-.514-.617-1.049-.909-1.608l-.018-.035c-2.641-5.074-3.331-9.931-1.539-10.858Z" transform="translate(-86.833 -172.505)" fill="#9e3b0a"/>
      <path id="Trazado_1047092" data-name="Trazado 1047092" d="M185.183,244.419a15.642,15.642,0,0,1-2.5.688c-.3-2.012-.045-3.587.865-4.058,1.04-.538,2.64.316,4.359,2.161,0,0-1.6.8-2.727,1.21Z" transform="translate(-105.028 -172.495)" fill="#c1571d"/>
      <g id="Grupo_1201187" data-name="Grupo 1201187" transform="translate(43.662 70.855)">
        <path id="Trazado_1047093" data-name="Trazado 1047093" d="M188.427,248.364a2.619,2.619,0,0,1-.914,2.133,2.681,2.681,0,0,1-2.339.536c-.368-.09-.212-.655.156-.565a2.013,2.013,0,0,0,2.507-2.1c-.022-.377.567-.376.589,0Z" transform="translate(-150.035 -248.082)" fill="#010735"/>
        <path id="Trazado_1047094" data-name="Trazado 1047094" d="M287.987,283.347a2.986,2.986,0,0,0-3.335-1.159.293.293,0,0,1-.157-.565,3.59,3.59,0,0,1,4,1.428c.213.313-.3.607-.509.3Z" transform="translate(-284.289 -270.05)" fill="#010735"/>
      </g>
    </g>
  </g>
</svg>
