<svg xmlns="http://www.w3.org/2000/svg" xmlns:xlink="http://www.w3.org/1999/xlink" width="118" height="118" viewBox="0 0 118 118">
  <defs>
    <filter id="Trazado_982547" x="0" y="0" width="118" height="118" filterUnits="userSpaceOnUse">
      <feOffset dy="3" input="SourceAlpha"/>
      <feGaussianBlur stdDeviation="3" result="blur"/>
      <feFlood flood-opacity="0.161"/>
      <feComposite operator="in" in2="blur"/>
      <feComposite in="SourceGraphic"/>
    </filter>
  </defs>
  <g id="Grupo_1201192" data-name="Grupo 1201192" transform="translate(-321 -3400.857)">
    <g id="Grupo_1183732" data-name="Grupo 1183732" transform="translate(330 3406.857)">
      <g id="Grupo_1182316" data-name="Grupo 1182316">
        <g id="Grupo_1176356" data-name="Grupo 1176356">
          <g id="Grupo_1172970" data-name="Grupo 1172970" transform="translate(0)">
            <g id="Grupo_1171971" data-name="Grupo 1171971">
              <g id="Grupo_1167337" data-name="Grupo 1167337">
                <g id="Grupo_1166720" data-name="Grupo 1166720">
                  <g id="Grupo_1164305" data-name="Grupo 1164305">
                    <g id="Grupo_1163948" data-name="Grupo 1163948">
                      <g id="Grupo_1158168" data-name="Grupo 1158168">
                        <g id="Grupo_1152576" data-name="Grupo 1152576">
                          <g id="Grupo_1148633" data-name="Grupo 1148633">
                            <g id="Grupo_1148525" data-name="Grupo 1148525">
                              <g transform="matrix(1, 0, 0, 1, -9, -6)" filter="url(#Trazado_982547)">
                                <g id="Trazado_982547-2" data-name="Trazado 982547" transform="translate(9 6)" fill="#f2f7f5">
                                  <path d="M 50 98.5 C 43.45188522338867 98.5 37.10042953491211 97.21787261962891 31.12207221984863 94.68923950195312 C 25.34691429138184 92.24655914306641 20.15995788574219 88.74932861328125 15.70532894134521 84.29468536376953 C 11.2506856918335 79.84004211425781 7.753442764282227 74.65309906005859 5.310757160186768 68.87794494628906 C 2.782128572463989 62.89958572387695 1.5 56.54813003540039 1.5 50 C 1.5 43.45188522338867 2.782128572463989 37.10042953491211 5.310757160186768 31.12207221984863 C 7.753442764282227 25.34691429138184 11.2506856918335 20.15997123718262 15.70532894134521 15.70532894134521 C 20.15997123718262 11.2506856918335 25.34691429138184 7.753442764282227 31.12207221984863 5.310757160186768 C 37.10042953491211 2.782128572463989 43.45188522338867 1.5 50 1.5 C 56.54813003540039 1.5 62.89958572387695 2.782128572463989 68.87794494628906 5.310757160186768 C 74.65309906005859 7.753442764282227 79.84004211425781 11.2506856918335 84.29468536376953 15.70532894134521 C 88.74932861328125 20.15995788574219 92.24655914306641 25.34691429138184 94.68923950195312 31.12207221984863 C 97.21787261962891 37.10042953491211 98.5 43.45188522338867 98.5 50 C 98.5 56.54813003540039 97.21787261962891 62.89958572387695 94.68923950195312 68.87794494628906 C 92.24655914306641 74.65309906005859 88.74932861328125 79.84004211425781 84.29468536376953 84.29468536376953 C 79.84004211425781 88.74932861328125 74.65309906005859 92.24655914306641 68.87794494628906 94.68923950195312 C 62.89958572387695 97.21787261962891 56.54813003540039 98.5 50 98.5 Z" stroke="none"/>
                                  <path d="M 50 3 C 43.65372467041016 3 37.49886322021484 4.242263793945312 31.70639801025391 6.6922607421875 C 26.11003112792969 9.059326171875 21.08335113525391 12.44861602783203 16.76598358154297 16.76598358154297 C 12.44861602783203 21.08335113525391 9.059326171875 26.11003112792969 6.6922607421875 31.70639801025391 C 4.242263793945312 37.49886322021484 3 43.65372467041016 3 50 C 3 56.34629058837891 4.242263793945312 62.50115203857422 6.6922607421875 68.29361724853516 C 9.059326171875 73.88998413085938 12.44861602783203 78.91666412353516 16.76598358154297 83.23403167724609 C 21.08335113525391 87.55138397216797 26.11003112792969 90.940673828125 31.70639801025391 93.3077392578125 C 37.49886322021484 95.75773620605469 43.65372467041016 97 50 97 C 56.34629058837891 97 62.50115203857422 95.75773620605469 68.29361724853516 93.3077392578125 C 73.88998413085938 90.940673828125 78.91666412353516 87.55138397216797 83.23403167724609 83.23403167724609 C 87.55138397216797 78.91666412353516 90.940673828125 73.88998413085938 93.3077392578125 68.29361724853516 C 95.75773620605469 62.50115203857422 97 56.34629058837891 97 50 C 97 43.65372467041016 95.75773620605469 37.49886322021484 93.3077392578125 31.70639801025391 C 90.940673828125 26.11003112792969 87.55138397216797 21.08335113525391 83.23403167724609 16.76598358154297 C 78.91666412353516 12.44861602783203 73.88998413085938 9.059326171875 68.29361724853516 6.6922607421875 C 62.50115203857422 4.242263793945312 56.34629058837891 3 50 3 M 50 0 C 77.6142578125 0 100 22.38577270507812 100 50 C 100 77.6142578125 77.6142578125 100 50 100 C 22.38577270507812 100 0 77.6142578125 0 50 C 0 22.38577270507812 22.38577270507812 0 50 0 Z" stroke="none" fill="#4a665c"/>
                                </g>
                              </g>
                            </g>
                          </g>
                        </g>
                      </g>
                    </g>
                  </g>
                </g>
              </g>
            </g>
          </g>
        </g>
      </g>
    </g>
    <g id="libre-de-impuestos" transform="translate(344.725 3423.795)">
      <g id="Grupo_1201188" data-name="Grupo 1201188" transform="translate(1.887 1.361)">
        <path id="Trazado_1047095" data-name="Trazado 1047095" d="M60.03,34.753a24.642,24.642,0,0,1-2.148,10.1l-6.014-.4-7.038,7.038.4,5.938a24.757,24.757,0,1,1,14.8-22.67Z" transform="translate(-10.526 -10)" fill="#ff933d"/>
      </g>
      <g id="Grupo_1201189" data-name="Grupo 1201189" transform="translate(8.054 7.528)">
        <circle id="Elipse_14234" data-name="Elipse 14234" cx="18.585" cy="18.585" r="18.585" fill="#ffbe8c"/>
      </g>
      <g id="Grupo_1201190" data-name="Grupo 1201190" transform="translate(36.191 35.808)">
        <path id="Trazado_1047096" data-name="Trazado 1047096" d="M269.64,263.128l-3.519,3.519-3.519,3.519.727,10.78,13.391,13.391a4.32,4.32,0,0,0,6.11,0l5.491-5.491,5.491-5.491a4.32,4.32,0,0,0,0-6.11L280.42,263.854Z" transform="translate(-262.602 -263.128)" fill="#f9f5f3"/>
      </g>
      <g id="Grupo_1201191" data-name="Grupo 1201191" transform="translate(0.526 0)">
        <path id="Trazado_1047097" data-name="Trazado 1047097" d="M145.144,95.46H143.9V93.54a1.361,1.361,0,1,0-2.722,0V95.46h-1.245a5.256,5.256,0,0,0-5.25,5.25V102a5.256,5.256,0,0,0,5.25,5.25h5.213a2.531,2.531,0,0,1,2.529,2.529v1.009a2.531,2.531,0,0,1-2.529,2.529h-5.213a2.531,2.531,0,0,1-2.528-2.529,1.361,1.361,0,1,0-2.722,0,5.256,5.256,0,0,0,5.25,5.25h1.245v1.921a1.361,1.361,0,0,0,2.722,0v-1.921h1.245a5.256,5.256,0,0,0,5.25-5.25v-1.009a5.256,5.256,0,0,0-5.25-5.25h-5.212A2.531,2.531,0,0,1,137.4,102v-1.287a2.531,2.531,0,0,1,2.528-2.529h5.213a2.531,2.531,0,0,1,2.529,2.529v.122a1.361,1.361,0,1,0,2.722,0v-.122a5.256,5.256,0,0,0-5.25-5.25Z" transform="translate(-116.424 -79.635)"/>
        <path id="Trazado_1047098" data-name="Trazado 1047098" d="M73.169,48.963,59.778,35.573a1.361,1.361,0,0,0-.871-.4l-2.894-.2A26.118,26.118,0,1,0,6.134,19.674a1.361,1.361,0,1,0,2.638.669,23.4,23.4,0,1,1,44.4,14.447l-3.655-.246a19.95,19.95,0,1,0-9.791,9.713l.246,3.646A23.418,23.418,0,0,1,8.77,31.876a1.361,1.361,0,1,0-2.638.668,26.14,26.14,0,0,0,34.034,18.19l.2,2.983a1.361,1.361,0,0,0,.4.871L54.153,67.979a5.688,5.688,0,0,0,8.034,0L73.169,57a5.688,5.688,0,0,0,0-8.034ZM14.222,26.113A17.224,17.224,0,1,1,44.666,37.142l-1.423-1.423a1.361,1.361,0,1,0-1.925,1.925l1.444,1.444A17.215,17.215,0,0,1,14.222,26.113Zm57.022,28.96L60.263,66.054a2.962,2.962,0,0,1-4.185,0l-13.03-13.03-.65-9.654,2.324-2.324.929.929a1.361,1.361,0,0,0,1.925-1.925l-.929-.929,1.915-1.915,9.653.651,13.029,13.03A2.963,2.963,0,0,1,71.244,55.073Z" transform="translate(-5.333 0)"/>
        <path id="Trazado_1047099" data-name="Trazado 1047099" d="M315.737,314.581a5.339,5.339,0,1,0-7.551-7.551l-.727.727a5.339,5.339,0,0,0,7.551,7.551Zm-1.925-1.925-.727.727a2.618,2.618,0,0,1-3.7-3.7l.727-.727a2.618,2.618,0,0,1,3.7,3.7Z" transform="translate(-264.341 -263.914)"/>
        <path id="Trazado_1047100" data-name="Trazado 1047100" d="M401.073,367.665a1.36,1.36,0,1,0,.736-1.777A1.373,1.373,0,0,0,401.073,367.665Z" transform="translate(-346.476 -316.007)"/>
        <path id="Trazado_1047101" data-name="Trazado 1047101" d="M402.077,429.308a1.36,1.36,0,1,0-.527,1.669A1.375,1.375,0,0,0,402.077,429.308Z" transform="translate(-345.169 -370.159)"/>
        <path id="Trazado_1047102" data-name="Trazado 1047102" d="M377.917,396.826h-8.736a1.361,1.361,0,0,0,0,2.722h8.736a1.361,1.361,0,1,0,0-2.722Z" transform="translate(-317.836 -342.823)"/>
        <path id="Trazado_1047103" data-name="Trazado 1047103" d="M1.622,184.687a1.372,1.372,0,0,0,1.362-2.139,1.361,1.361,0,1,0-1.362,2.139Z" transform="translate(-0.526 -157.238)"/>
      </g>
    </g>
  </g>
</svg>
