<svg xmlns="http://www.w3.org/2000/svg" xmlns:xlink="http://www.w3.org/1999/xlink" width="118" height="118" viewBox="0 0 118 118">
  <defs>
    <filter id="Trazado_982547" x="0" y="0" width="118" height="118" filterUnits="userSpaceOnUse">
      <feOffset dy="3" input="SourceAlpha"/>
      <feGaussianBlur stdDeviation="3" result="blur"/>
      <feFlood flood-opacity="0.161"/>
      <feComposite operator="in" in2="blur"/>
      <feComposite in="SourceGraphic"/>
    </filter>
  </defs>
  <g id="Grupo_1201210" data-name="Grupo 1201210" transform="translate(-741 -3400.857)">
    <g id="Grupo_1183733" data-name="Grupo 1183733" transform="translate(750 3406.857)">
      <g id="Grupo_1182316" data-name="Grupo 1182316">
        <g id="Grupo_1176356" data-name="Grupo 1176356">
          <g id="Grupo_1172970" data-name="Grupo 1172970" transform="translate(0)">
            <g id="Grupo_1171971" data-name="Grupo 1171971">
              <g id="Grupo_1167337" data-name="Grupo 1167337">
                <g id="Grupo_1166720" data-name="Grupo 1166720">
                  <g id="Grupo_1164305" data-name="Grupo 1164305">
                    <g id="Grupo_1163948" data-name="Grupo 1163948">
                      <g id="Grupo_1158168" data-name="Grupo 1158168">
                        <g id="Grupo_1152576" data-name="Grupo 1152576">
                          <g id="Grupo_1148633" data-name="Grupo 1148633">
                            <g id="Grupo_1148525" data-name="Grupo 1148525">
                              <g transform="matrix(1, 0, 0, 1, -9, -6)" filter="url(#Trazado_982547)">
                                <g id="Trazado_982547-2" data-name="Trazado 982547" transform="translate(9 6)" fill="#f2f7f5">
                                  <path d="M 50 98.5 C 43.45188522338867 98.5 37.10042953491211 97.21787261962891 31.12207221984863 94.68923950195312 C 25.34691429138184 92.24655914306641 20.15995788574219 88.74932861328125 15.70532894134521 84.29468536376953 C 11.2506856918335 79.84004211425781 7.753442764282227 74.65309906005859 5.310757160186768 68.87794494628906 C 2.782128572463989 62.89958572387695 1.5 56.54813003540039 1.5 50 C 1.5 43.45188522338867 2.782128572463989 37.10042953491211 5.310757160186768 31.12207221984863 C 7.753442764282227 25.34691429138184 11.2506856918335 20.15997123718262 15.70532894134521 15.70532894134521 C 20.15997123718262 11.2506856918335 25.34691429138184 7.753442764282227 31.12207221984863 5.310757160186768 C 37.10042953491211 2.782128572463989 43.45188522338867 1.5 50 1.5 C 56.54813003540039 1.5 62.89958572387695 2.782128572463989 68.87794494628906 5.310757160186768 C 74.65309906005859 7.753442764282227 79.84004211425781 11.2506856918335 84.29468536376953 15.70532894134521 C 88.74932861328125 20.15995788574219 92.24655914306641 25.34691429138184 94.68923950195312 31.12207221984863 C 97.21787261962891 37.10042953491211 98.5 43.45188522338867 98.5 50 C 98.5 56.54813003540039 97.21787261962891 62.89958572387695 94.68923950195312 68.87794494628906 C 92.24655914306641 74.65309906005859 88.74932861328125 79.84004211425781 84.29468536376953 84.29468536376953 C 79.84004211425781 88.74932861328125 74.65309906005859 92.24655914306641 68.87794494628906 94.68923950195312 C 62.89958572387695 97.21787261962891 56.54813003540039 98.5 50 98.5 Z" stroke="none"/>
                                  <path d="M 50 3 C 43.65372467041016 3 37.49886322021484 4.242263793945312 31.70639801025391 6.6922607421875 C 26.11003112792969 9.059326171875 21.08335113525391 12.44861602783203 16.76598358154297 16.76598358154297 C 12.44861602783203 21.08335113525391 9.059326171875 26.11003112792969 6.6922607421875 31.70639801025391 C 4.242263793945312 37.49886322021484 3 43.65372467041016 3 50 C 3 56.34629058837891 4.242263793945312 62.50115203857422 6.6922607421875 68.29361724853516 C 9.059326171875 73.88998413085938 12.44861602783203 78.91666412353516 16.76598358154297 83.23403167724609 C 21.08335113525391 87.55138397216797 26.11003112792969 90.940673828125 31.70639801025391 93.3077392578125 C 37.49886322021484 95.75773620605469 43.65372467041016 97 50 97 C 56.34629058837891 97 62.50115203857422 95.75773620605469 68.29361724853516 93.3077392578125 C 73.88998413085938 90.940673828125 78.91666412353516 87.55138397216797 83.23403167724609 83.23403167724609 C 87.55138397216797 78.91666412353516 90.940673828125 73.88998413085938 93.3077392578125 68.29361724853516 C 95.75773620605469 62.50115203857422 97 56.34629058837891 97 50 C 97 43.65372467041016 95.75773620605469 37.49886322021484 93.3077392578125 31.70639801025391 C 90.940673828125 26.11003112792969 87.55138397216797 21.08335113525391 83.23403167724609 16.76598358154297 C 78.91666412353516 12.44861602783203 73.88998413085938 9.059326171875 68.29361724853516 6.6922607421875 C 62.50115203857422 4.242263793945312 56.34629058837891 3 50 3 M 50 0 C 77.6142578125 0 100 22.38577270507812 100 50 C 100 77.6142578125 77.6142578125 100 50 100 C 22.38577270507812 100 0 77.6142578125 0 50 C 0 22.38577270507812 22.38577270507812 0 50 0 Z" stroke="none" fill="#4a665c"/>
                                </g>
                              </g>
                            </g>
                          </g>
                        </g>
                      </g>
                    </g>
                  </g>
                </g>
              </g>
            </g>
          </g>
        </g>
      </g>
    </g>
    <g id="ambientalismo" transform="translate(738.093 3422.097)">
      <g id="Grupo_1201209" data-name="Grupo 1201209" transform="translate(34.429 3.437)">
        <g id="Grupo_1201202" data-name="Grupo 1201202" transform="translate(1.058 1.815)">
          <g id="Grupo_1201201" data-name="Grupo 1201201">
            <g id="Grupo_1201200" data-name="Grupo 1201200">
              <g id="Grupo_1201199" data-name="Grupo 1201199">
                <g id="Grupo_1201198" data-name="Grupo 1201198">
                  <g id="Grupo_1201197" data-name="Grupo 1201197">
                    <g id="Grupo_1201196" data-name="Grupo 1201196">
                      <g id="Grupo_1201193" data-name="Grupo 1201193" transform="translate(31.26 37.373)">
                        <path id="Trazado_1047104" data-name="Trazado 1047104" d="M291.653,323.249q2.922,1.4,5.846,2.8l6.994-7.815a2.595,2.595,0,0,0-3.716-3.616Z" transform="translate(-291.653 -313.913)" fill="#f89f8e"/>
                      </g>
                      <g id="Grupo_1201194" data-name="Grupo 1201194" transform="translate(35.51 39.936)">
                        <path id="Trazado_1047105" data-name="Trazado 1047105" d="M322.951,341.609q2.853,1.539,5.708,3.074l7.351-7.48a2.595,2.595,0,0,0-3.543-3.785Z" transform="translate(-322.951 -332.79)" fill="#fdb0a0"/>
                      </g>
                      <g id="Grupo_1201195" data-name="Grupo 1201195">
                        <circle id="Elipse_14235" data-name="Elipse 14235" cx="22.913" cy="22.913" r="22.913" transform="translate(1.449 0.001)" fill="#64b9fc"/>
                        <path id="Trazado_1047106" data-name="Trazado 1047106" d="M249.263,61.608a22.914,22.914,0,0,1-22.913,22.914c-.769,0-1.53-.037-2.28-.112a22.916,22.916,0,0,0,0-45.6c.749-.075,1.511-.112,2.28-.112a22.914,22.914,0,0,1,22.913,22.914Z" transform="translate(-201.988 -38.694)" fill="#31a7fb"/>
                        <path id="Trazado_1047107" data-name="Trazado 1047107" d="M176.986,62.49a22.8,22.8,0,0,1-4.1,13.077l-6.7-2.232a1.358,1.358,0,0,0-1.571.553l-1.44,2.238a1.358,1.358,0,0,1-.568.5l-3.894,1.816a1.358,1.358,0,0,1-1.355-.12l-4.8-3.374a1.358,1.358,0,0,1-.463-1.655l.716-1.637a1.358,1.358,0,0,1,.914-.773l5.221-1.311a1.358,1.358,0,0,0,.878-.7l1.766-3.447a1.358,1.358,0,0,0-.05-1.328l-1.9-3.107a1.358,1.358,0,0,0-1.159-.65h-1.507a1.358,1.358,0,0,0-1.143.624l-2.632,4.1a1.358,1.358,0,0,1-1.537.566l-2.128-.645a1.358,1.358,0,0,0-1.363.348l-1.2,1.22a1.358,1.358,0,0,1-1.718.181L142.6,64.978a1.358,1.358,0,0,1-.508-.619l-1.557-3.812a1.358,1.358,0,0,1,.091-1.209l2.387-4a1.358,1.358,0,0,1,1.591-.594l4.036,1.331a1.358,1.358,0,0,0,1.047-.082l6.345-3.269a1.358,1.358,0,0,0,.733-1.3l-.192-2.823a1.358,1.358,0,0,0-.638-1.061l-1.38-.858a1.358,1.358,0,0,1-.5-1.748l2.54-5.217A22.916,22.916,0,0,1,176.986,62.49Z" transform="translate(-129.711 -39.576)" fill="#99d53b"/>
                        <path id="Trazado_1047108" data-name="Trazado 1047108" d="M277.189,62.488a22.8,22.8,0,0,1-4.1,13.077l-3.749-1.249a22.925,22.925,0,0,0-12.959-33.754l.413-.849a22.916,22.916,0,0,1,20.391,22.775Z" transform="translate(-229.914 -39.575)" fill="#8dc637"/>
                        <path id="Trazado_1047109" data-name="Trazado 1047109" d="M362.309,154.434a22.884,22.884,0,0,1-1.321,7.686c-2.361-.617-6.817-2.991-6.013-8.55a8.955,8.955,0,0,1,5.542-7.414.68.68,0,0,1,.23-.05A22.838,22.838,0,0,1,362.309,154.434Z" transform="translate(-315.033 -131.519)" fill="#8dc637"/>
                        <path id="Trazado_1047110" data-name="Trazado 1047110" d="M98.9,275.213a2.943,2.943,0,0,0-2.96.745c-.686.647-1.369,1.551-2.267,2.276a22.972,22.972,0,0,1-6.552-8.426A7.137,7.137,0,0,1,92.3,268.76,8.95,8.95,0,0,1,99.71,274.3.678.678,0,0,1,98.9,275.213Z" transform="translate(-83.636 -237.436)" fill="#31a7fb"/>
                        <path id="Trazado_1047111" data-name="Trazado 1047111" d="M106.921,61.011a8.964,8.964,0,0,1-8.639-1.987,22.989,22.989,0,0,1,11.139-9.133q.52.063,1.07.143a2.419,2.419,0,0,1,.552.147,2.369,2.369,0,0,1,1.464,1.813C112.891,54.32,112.523,59.6,106.921,61.011Z" transform="translate(-93.28 -48.371)" fill="#31a7fb"/>
                        <path id="Trazado_1047112" data-name="Trazado 1047112" d="M116.9,345.67a2.6,2.6,0,0,0-3.2-.914l-8.814,3.908a3.458,3.458,0,0,0-3.418-2.938H94.012a13.6,13.6,0,0,1-4.319-.7L83.4,342.916a5.635,5.635,0,0,0-3.363-.067l-4.086,1.189a5.634,5.634,0,0,0-3.425,2.811,11.508,11.508,0,0,1-3.956,4.352l-7.123,4.613,8.793,8.793,9.177-7.015,17.7,1.19a5.348,5.348,0,0,0,2.926-.644L116,349.4a2.6,2.6,0,0,0,.9-3.734Z" transform="translate(-61.448 -301.352)" fill="#ffcec0"/>
                        <path id="Trazado_1047113" data-name="Trazado 1047113" d="M154.313,361.754l-15.957,8.733a5.352,5.352,0,0,1-2.925.645l-17.7-1.19-9.176,7.015-2.772-2.772,9.581-7.323a.955.955,0,0,1,.643-.194l17.341,1.166a5.355,5.355,0,0,0,2.926-.644l15.956-8.733a2.582,2.582,0,0,0,1.243-1.54,2.594,2.594,0,0,1,.84,4.838Z" transform="translate(-99.763 -313.703)" fill="#fdb0a0"/>
                      </g>
                    </g>
                  </g>
                </g>
              </g>
            </g>
          </g>
        </g>
        <g id="Grupo_1201204" data-name="Grupo 1201204" transform="translate(0 30.285)">
          <g id="Grupo_1201203" data-name="Grupo 1201203">
            <path id="Trazado_1047114" data-name="Trazado 1047114" d="M54.378,256.894a2.372,2.372,0,0,1-.663-2.234c.531-2.3,2.881-7.039,8.6-6.211a8.951,8.951,0,0,1,7.414,5.543.678.678,0,0,1-.807.909,2.944,2.944,0,0,0-2.96.745c-1.979,1.864-3.917,5.865-11.128,1.594A2.434,2.434,0,0,1,54.378,256.894Z" transform="translate(-53.654 -248.353)" fill="#99d53b"/>
            <path id="Trazado_1047115" data-name="Trazado 1047115" d="M68.924,274.222a2.946,2.946,0,0,0-2.961.744c-1.978,1.865-3.915,5.866-11.127,1.594a2.383,2.383,0,0,1-1.162-2.323c6.842,3.842,8.739-.029,10.677-1.854a2.942,2.942,0,0,1,2.961-.744.678.678,0,0,0,.807-.91l-.008-.02a9.025,9.025,0,0,1,1.62,2.6A.677.677,0,0,1,68.924,274.222Z" transform="translate(-53.658 -267.673)" fill="#8dc637"/>
          </g>
        </g>
        <g id="Grupo_1201206" data-name="Grupo 1201206" transform="translate(4.82)">
          <g id="Grupo_1201205" data-name="Grupo 1201205">
            <path id="Trazado_1047116" data-name="Trazado 1047116" d="M102.432,25.68a2.372,2.372,0,0,1,1.464,1.813c.384,2.327.016,7.605-5.586,9.017a8.951,8.951,0,0,1-8.966-2.3.678.678,0,0,1,.4-1.148A2.944,2.944,0,0,0,92.2,31.244c1.12-2.477,1.388-6.915,9.683-5.711A2.417,2.417,0,0,1,102.432,25.68Z" transform="translate(-89.148 -25.33)" fill="#a3e440"/>
            <path id="Trazado_1047117" data-name="Trazado 1047117" d="M107.441,36.838a9.035,9.035,0,0,1-7.727-1.25,9.879,9.879,0,0,0,4.64-.128c5.6-1.412,5.971-6.691,5.586-9.018a2.384,2.384,0,0,0-.25-.733c.416.034.856.083,1.322.151a2.507,2.507,0,0,1,.552.147,2.372,2.372,0,0,1,1.462,1.814C113.411,30.149,113.044,35.426,107.441,36.838Z" transform="translate(-98.279 -25.658)" fill="#8dc637"/>
          </g>
        </g>
        <g id="Grupo_1201208" data-name="Grupo 1201208" transform="translate(42.94 13.773)">
          <g id="Grupo_1201207" data-name="Grupo 1201207">
            <path id="Trazado_1047118" data-name="Trazado 1047118" d="M378.411,142.155a2.372,2.372,0,0,1-2.234.663c-2.3-.531-7.039-2.881-6.211-8.6a8.951,8.951,0,0,1,5.543-7.414.678.678,0,0,1,.909.807,2.944,2.944,0,0,0,.745,2.96c1.864,1.979,5.865,3.917,1.594,11.128A2.43,2.43,0,0,1,378.411,142.155Z" transform="translate(-369.87 -126.754)" fill="#a3e440"/>
            <path id="Trazado_1047119" data-name="Trazado 1047119" d="M395.74,127.613a2.946,2.946,0,0,0,.744,2.961c1.865,1.978,5.866,3.915,1.594,11.127a2.383,2.383,0,0,1-2.322,1.162c3.842-6.842-.029-8.739-1.854-10.677a2.942,2.942,0,0,1-.744-2.961.678.678,0,0,0-.91-.807l-.02.008a9.024,9.024,0,0,1,2.6-1.62A.678.678,0,0,1,395.74,127.613Z" transform="translate(-389.191 -126.754)" fill="#99d53b"/>
          </g>
        </g>
      </g>
      <path id="Trazado_1047120" data-name="Trazado 1047120" d="M91.782,49a3.612,3.612,0,0,0-4.453-1.273l-1.566.694a3.609,3.609,0,0,0-4.605-4.091,3.6,3.6,0,0,0-1.362-2.019,3.663,3.663,0,0,0-.44-.276,23.948,23.948,0,0,0,3.67-7.877c.144.041.286.079.423.111a3.333,3.333,0,0,0,.75.085,3.4,3.4,0,0,0,.688-.071,16.506,16.506,0,0,0,2.327,1.9,1.018,1.018,0,0,0,1.143-1.686,14.55,14.55,0,0,1-1.623-1.274,3.472,3.472,0,0,0,.4-.544c4.118-6.952,1.075-9.742-.938-11.588-.291-.267-.565-.518-.791-.758a1.938,1.938,0,0,1-.506-1.985,1.7,1.7,0,0,0-2.275-2.027,10.235,10.235,0,0,0-1.546.793A23.984,23.984,0,0,0,78.023,12.6a1.018,1.018,0,0,0-1.546,1.326,21.932,21.932,0,0,1,2.966,4.468,10.343,10.343,0,0,0-2.985,6.14,10.078,10.078,0,0,0-.1,1.325,1.018,1.018,0,0,0,1.006,1.03h.012a1.018,1.018,0,0,0,1.018-1.006,8.051,8.051,0,0,1,.084-1.057A7.924,7.924,0,0,1,82.8,18.472a3.974,3.974,0,0,0,1.12,3.255c.276.293.578.57.9.862,1.887,1.73,3.838,3.519.562,9.048-.018.031-.039.06-.06.089a13.13,13.13,0,0,1-2.844-7.971,1.018,1.018,0,1,0-2.036.042A15.29,15.29,0,0,0,82.99,32a7.735,7.735,0,0,1-3.429-2.441,1.018,1.018,0,1,0-1.621,1.234,9.423,9.423,0,0,0,3.175,2.6A21.873,21.873,0,0,1,78.25,40.03l-5.963-1.986a2.374,2.374,0,0,0-2.749.969L68.1,41.251a.34.34,0,0,1-.142.124L64.062,43.19a.339.339,0,0,1-.339-.03l-4.8-3.374a.341.341,0,0,1-.116-.414l.716-1.637a.342.342,0,0,1,.229-.193l5.221-1.311a2.376,2.376,0,0,0,1.537-1.221l1.766-3.447a2.389,2.389,0,0,0-.087-2.323l-1.9-3.107A2.391,2.391,0,0,0,64.261,25H62.754a2.367,2.367,0,0,0-2,1.093l-2.632,4.1a.34.34,0,0,1-.384.141l-2.128-.645a2.369,2.369,0,0,0-2.385.609l-1.2,1.22a.34.34,0,0,1-.43.045L48.942,29.8a.339.339,0,0,1-.127-.155l-1.557-3.813a.341.341,0,0,1,.023-.3l2.387-4a.337.337,0,0,1,.4-.149L54.1,22.714a2.39,2.39,0,0,0,1.832-.144L62.28,19.3a2.374,2.374,0,0,0,1.283-2.274L63.37,14.2a2.382,2.382,0,0,0-1.117-1.857l-1.38-.858a.339.339,0,0,1-.126-.437l2.222-4.564A21.633,21.633,0,0,1,73.35,10.927a1.018,1.018,0,1,0,1.257-1.6A23.692,23.692,0,0,0,59.85,4.234a24.085,24.085,0,0,0-5.033.531,3.393,3.393,0,0,0-.35-.665,16.485,16.485,0,0,0,.871-2.877A1.018,1.018,0,1,0,53.344.808a14.54,14.54,0,0,1-.56,1.986,3.457,3.457,0,0,0-.656-.162c-8-1.161-9.417,2.715-10.358,5.28-.136.37-.264.72-.4,1.02a1.938,1.938,0,0,1-1.643,1.224A1.7,1.7,0,0,0,38.72,13.03a10.217,10.217,0,0,0,1.591,1.314,23.693,23.693,0,0,0-4.392,13.822,23.976,23.976,0,0,0,.839,6.3A10.1,10.1,0,0,0,33.5,39.8a3.364,3.364,0,0,0-.013,1.437,16.5,16.5,0,0,0-1.9,2.328,1.018,1.018,0,1,0,1.686,1.143,14.565,14.565,0,0,1,1.274-1.623,3.455,3.455,0,0,0,.544.4,12.188,12.188,0,0,0,6.077,2.045,6,6,0,0,0,1.91-.3A24.008,24.008,0,0,0,47.1,48.418a6.643,6.643,0,0,0-1.438,1.86,10.51,10.51,0,0,1-3.606,3.967l-7.123,4.613a1.018,1.018,0,1,0,1.107,1.71l7.123-4.613a12.547,12.547,0,0,0,4.306-4.737,4.637,4.637,0,0,1,2.806-2.3l4.086-1.189a4.593,4.593,0,0,1,2.755.055l6.292,2.107a14.6,14.6,0,0,0,4.642.756h7.457a2.439,2.439,0,0,1,0,4.877H66.525a20.506,20.506,0,0,0-4.787.567,1.018,1.018,0,1,0,.476,1.98,18.478,18.478,0,0,1,4.311-.511h8.984a4.48,4.48,0,0,0,4.472-4.348l8.173-3.624a1.575,1.575,0,0,1,1.943.555,1.576,1.576,0,0,1-.547,2.268L73.593,61.142a4.312,4.312,0,0,1-2.369.522l-17.7-1.19a1.019,1.019,0,0,0-.687.207L43.662,67.7A1.018,1.018,0,1,0,44.9,69.315l8.872-6.782L71.088,63.7a6.366,6.366,0,0,0,3.483-.767L90.528,54.2A3.613,3.613,0,0,0,91.782,49ZM83.2,46.558a1.576,1.576,0,0,1,.132,2.33l-1.042,1.06-.015.017-2.72,1.206a4.506,4.506,0,0,0-1.582-1.823l3.207-2.76a1.575,1.575,0,0,1,2.02-.03ZM78.588,43.95a1.571,1.571,0,0,1,.59,1.673l-3.473,2.989c-.065,0-.131-.005-.2-.005H72.3a24.091,24.091,0,0,0,5.636-4.765c.042-.048.081-.1.123-.146a1.566,1.566,0,0,1,.532.254ZM43.227,9.77c.166-.367.307-.751.456-1.158.881-2.4,1.793-4.888,8.153-3.965.036.005.07.014.1.021a13.131,13.131,0,0,1-6.288,5.665,1.018,1.018,0,1,0,.814,1.867,15.29,15.29,0,0,0,6.616-5.48,8.2,8.2,0,0,1-.573,3.339,6,6,0,0,1-4.347,3.569,7.924,7.924,0,0,1-7.518-1.585A3.974,3.974,0,0,0,43.227,9.77ZM57.764,45.849a6.623,6.623,0,0,0-3.971-.079l-4.086,1.189a6.6,6.6,0,0,0-.68.24,21.947,21.947,0,0,1-4.074-2.991,13.8,13.8,0,0,0,1.723-1.661c.267-.291.518-.565.758-.791a1.939,1.939,0,0,1,1.985-.506,1.7,1.7,0,0,0,2.027-2.275A9.709,9.709,0,0,0,46.5,33.76a1.018,1.018,0,0,0-.86,1.847,7.644,7.644,0,0,1,3.651,3.547,3.969,3.969,0,0,0-3.253,1.12c-.294.276-.57.578-.862.9-1.73,1.887-3.519,3.838-9.049.562-.031-.018-.059-.039-.088-.059a13.132,13.132,0,0,1,7.971-2.844,1.018,1.018,0,0,0-.02-2.037h-.021a15.291,15.291,0,0,0-8.207,2.55,6.526,6.526,0,0,1,5.907-4.6,1.018,1.018,0,0,0-.019-2.037h-.019a7.959,7.959,0,0,0-3.053.646,21.972,21.972,0,0,1-.621-5.186A21.677,21.677,0,0,1,42.131,15.3a9.726,9.726,0,0,0,3.617.68,11.89,11.89,0,0,0,2.912-.377,8.039,8.039,0,0,0,5.729-4.761,10.1,10.1,0,0,0,.73-4.059,22.034,22.034,0,0,1,4.73-.514q.477,0,.951.02l-1.884,3.87A2.37,2.37,0,0,0,59.8,13.22l1.38.858a.341.341,0,0,1,.159.265l.192,2.823a.34.34,0,0,1-.183.325L55,20.759a.341.341,0,0,1-.262.021L50.7,19.449a2.363,2.363,0,0,0-2.785,1.04l-2.387,4a2.388,2.388,0,0,0-.159,2.116l1.557,3.812a2.369,2.369,0,0,0,.889,1.083l2.655,1.757a2.381,2.381,0,0,0,3.007-.317l1.2-1.22a.338.338,0,0,1,.341-.087l2.128.645a2.387,2.387,0,0,0,2.689-.99l2.632-4.1a.338.338,0,0,1,.286-.156h1.507a.342.342,0,0,1,.29.162l1.9,3.107a.341.341,0,0,1,.013.332L64.7,34.082a.34.34,0,0,1-.22.174l-5.221,1.311a2.392,2.392,0,0,0-1.6,1.353l-.715,1.637a2.384,2.384,0,0,0,.811,2.9l4.8,3.373a2.381,2.381,0,0,0,2.371.21l3.895-1.816a2.373,2.373,0,0,0,.993-.868l1.44-2.238a.34.34,0,0,1,.393-.138l5.365,1.787c-.2.252-.4.5-.613.743A22,22,0,0,1,67.728,48.6a12.556,12.556,0,0,1-3.671-.645Z" transform="translate(0 0)"/>
    </g>
  </g>
</svg>
