<svg xmlns="http://www.w3.org/2000/svg" xmlns:xlink="http://www.w3.org/1999/xlink" width="118" height="118" viewBox="0 0 118 118">
  <defs>
    <filter id="Trazado_982547" x="0" y="0" width="118" height="118" filterUnits="userSpaceOnUse">
      <feOffset dy="3" input="SourceAlpha"/>
      <feGaussianBlur stdDeviation="3" result="blur"/>
      <feFlood flood-opacity="0.161"/>
      <feComposite operator="in" in2="blur"/>
      <feComposite in="SourceGraphic"/>
    </filter>
  </defs>
  <g id="Grupo_1201217" data-name="Grupo 1201217" transform="translate(-1161 -3400.857)">
    <g id="Grupo_1183734" data-name="Grupo 1183734" transform="translate(1170 3406.857)">
      <g id="Grupo_1182316" data-name="Grupo 1182316">
        <g id="Grupo_1176356" data-name="Grupo 1176356">
          <g id="Grupo_1172970" data-name="Grupo 1172970" transform="translate(0)">
            <g id="Grupo_1171971" data-name="Grupo 1171971">
              <g id="Grupo_1167337" data-name="Grupo 1167337">
                <g id="Grupo_1166720" data-name="Grupo 1166720">
                  <g id="Grupo_1164305" data-name="Grupo 1164305">
                    <g id="Grupo_1163948" data-name="Grupo 1163948">
                      <g id="Grupo_1158168" data-name="Grupo 1158168">
                        <g id="Grupo_1152576" data-name="Grupo 1152576">
                          <g id="Grupo_1148633" data-name="Grupo 1148633">
                            <g id="Grupo_1148525" data-name="Grupo 1148525">
                              <g transform="matrix(1, 0, 0, 1, -9, -6)" filter="url(#Trazado_982547)">
                                <g id="Trazado_982547-2" data-name="Trazado 982547" transform="translate(9 6)" fill="#f2f7f5">
                                  <path d="M 50 98.5 C 43.45188522338867 98.5 37.10042953491211 97.21787261962891 31.12207221984863 94.68923950195312 C 25.34691429138184 92.24655914306641 20.15995788574219 88.74932861328125 15.70532894134521 84.29468536376953 C 11.2506856918335 79.84004211425781 7.753442764282227 74.65309906005859 5.310757160186768 68.87794494628906 C 2.782128572463989 62.89958572387695 1.5 56.54813003540039 1.5 50 C 1.5 43.45188522338867 2.782128572463989 37.10042953491211 5.310757160186768 31.12207221984863 C 7.753442764282227 25.34691429138184 11.2506856918335 20.15997123718262 15.70532894134521 15.70532894134521 C 20.15997123718262 11.2506856918335 25.34691429138184 7.753442764282227 31.12207221984863 5.310757160186768 C 37.10042953491211 2.782128572463989 43.45188522338867 1.5 50 1.5 C 56.54813003540039 1.5 62.89958572387695 2.782128572463989 68.87794494628906 5.310757160186768 C 74.65309906005859 7.753442764282227 79.84004211425781 11.2506856918335 84.29468536376953 15.70532894134521 C 88.74932861328125 20.15995788574219 92.24655914306641 25.34691429138184 94.68923950195312 31.12207221984863 C 97.21787261962891 37.10042953491211 98.5 43.45188522338867 98.5 50 C 98.5 56.54813003540039 97.21787261962891 62.89958572387695 94.68923950195312 68.87794494628906 C 92.24655914306641 74.65309906005859 88.74932861328125 79.84004211425781 84.29468536376953 84.29468536376953 C 79.84004211425781 88.74932861328125 74.65309906005859 92.24655914306641 68.87794494628906 94.68923950195312 C 62.89958572387695 97.21787261962891 56.54813003540039 98.5 50 98.5 Z" stroke="none"/>
                                  <path d="M 50 3 C 43.65372467041016 3 37.49886322021484 4.242263793945312 31.70639801025391 6.6922607421875 C 26.11003112792969 9.059326171875 21.08335113525391 12.44861602783203 16.76598358154297 16.76598358154297 C 12.44861602783203 21.08335113525391 9.059326171875 26.11003112792969 6.6922607421875 31.70639801025391 C 4.242263793945312 37.49886322021484 3 43.65372467041016 3 50 C 3 56.34629058837891 4.242263793945312 62.50115203857422 6.6922607421875 68.29361724853516 C 9.059326171875 73.88998413085938 12.44861602783203 78.91666412353516 16.76598358154297 83.23403167724609 C 21.08335113525391 87.55138397216797 26.11003112792969 90.940673828125 31.70639801025391 93.3077392578125 C 37.49886322021484 95.75773620605469 43.65372467041016 97 50 97 C 56.34629058837891 97 62.50115203857422 95.75773620605469 68.29361724853516 93.3077392578125 C 73.88998413085938 90.940673828125 78.91666412353516 87.55138397216797 83.23403167724609 83.23403167724609 C 87.55138397216797 78.91666412353516 90.940673828125 73.88998413085938 93.3077392578125 68.29361724853516 C 95.75773620605469 62.50115203857422 97 56.34629058837891 97 50 C 97 43.65372467041016 95.75773620605469 37.49886322021484 93.3077392578125 31.70639801025391 C 90.940673828125 26.11003112792969 87.55138397216797 21.08335113525391 83.23403167724609 16.76598358154297 C 78.91666412353516 12.44861602783203 73.88998413085938 9.059326171875 68.29361724853516 6.6922607421875 C 62.50115203857422 4.242263793945312 56.34629058837891 3 50 3 M 50 0 C 77.6142578125 0 100 22.38577270507812 100 50 C 100 77.6142578125 77.6142578125 100 50 100 C 22.38577270507812 100 0 77.6142578125 0 50 C 0 22.38577270507812 22.38577270507812 0 50 0 Z" stroke="none" fill="#4a665c"/>
                                </g>
                              </g>
                            </g>
                          </g>
                        </g>
                      </g>
                    </g>
                  </g>
                </g>
              </g>
            </g>
          </g>
        </g>
      </g>
    </g>
    <g id="la-politica-monetaria" transform="translate(1190.022 3419.764)">
      <g id="Grupo_1201216" data-name="Grupo 1201216" transform="translate(0 6.061)">
        <g id="Grupo_1201211" data-name="Grupo 1201211" transform="translate(37.554 0.931)">
          <path id="Trazado_1047121" data-name="Trazado 1047121" d="M327.551,28.055v-3.9l-3.182-.8a9.684,9.684,0,0,0-.8-1.931l1.687-2.811L322.5,15.856l-2.811,1.687a9.7,9.7,0,0,0-1.931-.8l-.8-3.182h-3.9l-.8,3.182a9.691,9.691,0,0,0-1.931.8l-2.811-1.687-2.759,2.759,1.687,2.811a9.694,9.694,0,0,0-.8,1.931l-3.182.8v3.9l3.182.8a9.68,9.68,0,0,0,.8,1.931l-1.687,2.811,2.759,2.759,2.811-1.687a9.7,9.7,0,0,0,1.931.8l.8,3.182h3.9l.8-3.182a9.69,9.69,0,0,0,1.931-.8l2.811,1.687,2.759-2.759-1.687-2.811a9.7,9.7,0,0,0,.8-1.931ZM315.009,23.6A2.508,2.508,0,1,1,312.5,26.1,2.508,2.508,0,0,1,315.009,23.6Z" transform="translate(-302.467 -13.562)" fill="#528fd8"/>
          <path id="Trazado_1047122" data-name="Trazado 1047122" d="M314.507,107.447h-.488l-11.553-6.739v3.673l3.182.8a9.68,9.68,0,0,0,.8,1.931l-1.687,2.811,2.759,2.759,2.811-1.687a9.7,9.7,0,0,0,1.931.8l.8,3.182h3.9l.8-3.182a9.74,9.74,0,0,0,1.42-.54A4.774,4.774,0,0,0,314.507,107.447Z" transform="translate(-302.467 -89.888)" fill="#0573ce"/>
        </g>
        <g id="Grupo_1201214" data-name="Grupo 1201214" transform="translate(0.931 13.473)">
          <g id="Grupo_1201212" data-name="Grupo 1201212" transform="translate(12.04 0)">
            <path id="Trazado_1047123" data-name="Trazado 1047123" d="M187.309,215.594h17.057v17.057H187.309Z" transform="translate(-177.025 -203.052)" fill="#ffd15b"/>
            <path id="Trazado_1047124" data-name="Trazado 1047124" d="M204.367,296.894a6.787,6.787,0,0,0-1-.075h-8.2l-.9-.728a13.639,13.639,0,0,0-6.958-2.937v7.427h17.057v-3.688Z" transform="translate(-177.026 -270.982)" fill="#ffc344"/>
            <path id="Trazado_1047125" data-name="Trazado 1047125" d="M141.1,189.052H105.479a1,1,0,0,1-1-1v-1.756a1,1,0,0,1,1-1H141.1a1,1,0,0,1,1,1v1.756A1,1,0,0,1,141.1,189.052Z" transform="translate(-104.476 -176.511)" fill="#c5d3dd"/>
            <path id="Trazado_1047126" data-name="Trazado 1047126" d="M372.9,185.289h-3.763a1,1,0,0,1,1,1v1.756a1,1,0,0,1-1,1H372.9a1,1,0,0,0,1-1v-1.756A1,1,0,0,0,372.9,185.289Z" transform="translate(-336.278 -176.51)" fill="#b6c4cf"/>
            <path id="Trazado_1047127" data-name="Trazado 1047127" d="M166.874,359H132.76v-6.02h32.609a1.505,1.505,0,0,1,1.505,1.505Z" transform="translate(-129.248 -323.376)" fill="#c5d3dd"/>
            <path id="Trazado_1047128" data-name="Trazado 1047128" d="M162.318,355.233a6.72,6.72,0,0,0-.667-2.258H132.76V359h29.558Z" transform="translate(-129.248 -323.376)" fill="#b6c4cf"/>
            <path id="Trazado_1047129" data-name="Trazado 1047129" d="M324.691,215.594h6.773v17.057h-6.773Z" transform="translate(-297.35 -203.052)" fill="#8d9ca8"/>
            <path id="Trazado_1047130" data-name="Trazado 1047130" d="M324.691,215.594h6.773v17.057h-6.773Z" transform="translate(-297.35 -203.052)" fill="#8d9ca8"/>
            <path id="Trazado_1047131" data-name="Trazado 1047131" d="M324.691,323.274v3.688h5.061A6.79,6.79,0,0,0,324.691,323.274Z" transform="translate(-297.35 -297.363)" fill="#7a8c98"/>
            <path id="Trazado_1047132" data-name="Trazado 1047132" d="M0,0H6.773V17.057H0Z" transform="translate(10.284 29.599) rotate(180)" fill="#8d9ca8"/>
            <path id="Trazado_1047133" data-name="Trazado 1047133" d="M139.533,292.463a13.439,13.439,0,0,0-6.773.929v6.5h6.773Z" transform="translate(-129.248 -270.291)" fill="#7a8c98"/>
            <path id="Trazado_1047134" data-name="Trazado 1047134" d="M157.288,123.357H124.679l14.758-8.608a1.254,1.254,0,0,1,.632-.171h1.83a1.254,1.254,0,0,1,.632.171Z" transform="translate(-122.171 -114.578)" fill="#8d9ca8"/>
            <path id="Trazado_1047135" data-name="Trazado 1047135" d="M244.61,156.866a1.881,1.881,0,0,0-3.762,0v1.881h3.763v-1.881Z" transform="translate(-223.916 -149.968)" fill="#596c76"/>
            <path id="Trazado_1047136" data-name="Trazado 1047136" d="M239.853,114.749a1.254,1.254,0,0,0-.632-.171h-1.83a1.254,1.254,0,0,0-.632.171l-.961.561,13.8,8.048h5.017Z" transform="translate(-219.492 -114.578)" fill="#7a8c98"/>
          </g>
          <g id="Grupo_1201213" data-name="Grupo 1201213" transform="translate(0 25.276)">
            <path id="Trazado_1047137" data-name="Trazado 1047137" d="M72.15,352.975h4.515v16.054H72.15Z" transform="translate(-64.123 -348.652)" fill="#dff6fd"/>
            <path id="Trazado_1047138" data-name="Trazado 1047138" d="M156.8,319.036a3.01,3.01,0,0,0-4.257,0l-9.462,9.462h-8.728a3.01,3.01,0,1,0,0-6.02h-9.532l-1.934-1.568a9.831,9.831,0,0,0-12.284-.08l-2.087,1.648v16.054l18.167,1.139a10.033,10.033,0,0,0,3.589-.427l14.114-4.359a5.017,5.017,0,0,0,2.067-1.246L156.8,323.293A3.01,3.01,0,0,0,156.8,319.036Z" transform="translate(-95.976 -318.154)" fill="#fed2a4"/>
            <path id="Trazado_1047139" data-name="Trazado 1047139" d="M284.007,319.036a3.01,3.01,0,0,0-4.257,0l-9.462,9.462h-1.8a36.845,36.845,0,0,1-3.017,3.413,33.7,33.7,0,0,1-11.719,7.751l.135.008a10.032,10.032,0,0,0,3.589-.427l14.114-4.359a5.015,5.015,0,0,0,2.067-1.246l10.346-10.346A3.01,3.01,0,0,0,284.007,319.036Z" transform="translate(-223.182 -318.154)" fill="#ffbd86"/>
            <path id="Trazado_1047140" data-name="Trazado 1047140" d="M7.5,336.812h8.027v20.067H7.5Z" transform="translate(-7.5 -334.495)" fill="#62dbfb"/>
            <path id="Trazado_1047141" data-name="Trazado 1047141" d="M45.886,336.812h3.261v20.067H45.886Z" transform="translate(-41.12 -334.495)" fill="#01d0fb"/>
          </g>
        </g>
        <g id="Grupo_1201215" data-name="Grupo 1201215" transform="translate(0)">
          <path id="Trazado_1047142" data-name="Trazado 1047142" d="M62.863,22.389a.931.931,0,0,0,.705-.9v-3.9a.931.931,0,0,0-.705-.9l-2.68-.671a10.709,10.709,0,0,0-.462-1.118l1.421-2.367A.931.931,0,0,0,61,11.387L58.243,8.628a.931.931,0,0,0-1.138-.14l-2.367,1.42a10.631,10.631,0,0,0-1.118-.462l-.67-2.679a.931.931,0,0,0-.9-.705h-3.9a.931.931,0,0,0-.9.705l-.67,2.679a10.633,10.633,0,0,0-1.118.462l-2.367-1.42a.931.931,0,0,0-1.138.14l-2.759,2.759a.931.931,0,0,0-.14,1.138l1.421,2.367a10.74,10.74,0,0,0-.462,1.118l-2.68.671a.931.931,0,0,0-.705.9v2.963L33.8,18.9a2.187,2.187,0,0,0-1.1-.3h-1.83a2.188,2.188,0,0,0-1.1.3l-14.54,8.482H13.975a1.937,1.937,0,0,0-1.934,1.934v1.756a1.937,1.937,0,0,0,1.934,1.934h1.577V46.338c-.193.133-.384.27-.569.416L13.15,48.2H9.889V47.126a.931.931,0,0,0-.931-.931H.931A.931.931,0,0,0,0,47.126V52.98a.931.931,0,1,0,1.862,0V48.057H8.027V66.262H1.862V57.326a.931.931,0,1,0-1.862,0v9.868a.931.931,0,0,0,.931.931H8.958a.931.931,0,0,0,.931-.931V66.118h3.555l18.138,1.137q.346.022.692.022a10.92,10.92,0,0,0,3.23-.488L49.618,62.43a5.971,5.971,0,0,0,2.451-1.477L62.415,50.607a3.941,3.941,0,1,0-5.574-5.574l-5.329,5.329a2.439,2.439,0,0,0-2.419-2.16H48.017V42.778a.931.931,0,0,0-1.862,0V44.44h-4.91V36.77h4.91v1.662a.931.931,0,1,0,1.862,0V33.007h4.03a.931.931,0,0,0,.9-.705l.67-2.679a10.623,10.623,0,0,0,1.118-.462l2.367,1.42a.931.931,0,0,0,1.138-.14L61,27.681a.931.931,0,0,0,.14-1.138l-1.42-2.367a10.637,10.637,0,0,0,.462-1.118ZM12.542,64.256H9.889V50.064h2.653ZM58.158,46.35a2.079,2.079,0,1,1,2.94,2.94L50.752,59.636a4.1,4.1,0,0,1-1.683,1.015L34.954,65.009A9.075,9.075,0,0,1,31.7,65.4L14.4,64.312V49.584l1.733-1.368A8.938,8.938,0,0,1,21.646,46.3h.011a8.928,8.928,0,0,1,5.6,1.987l1.934,1.568a.931.931,0,0,0,.587.208h9.532a2.079,2.079,0,1,1,0,4.158H28.523a.931.931,0,0,0-.658.273l-1.317,1.317a.931.931,0,1,0,1.317,1.317l1.044-1.044H48.037a.931.931,0,0,0,.658-.273ZM22.325,36.77v7.669h-4.91V36.77Zm-4.91-1.862v-1.9h4.91v1.9Zm6.773,9.839V33.007H39.382V48.2l-.072,0h-9.2l-1.677-1.36a10.79,10.79,0,0,0-4.243-2.1Zm24.905,5.318a.574.574,0,0,1,.574.574v1.569l-2.015,2.015H42.657a3.932,3.932,0,0,0,0-4.158ZM46.154,46.3v1.9h-4.91V46.3Zm0-11.394h-4.91v-1.9h4.91Zm3.511-3.835a.07.07,0,0,1-.072.072H13.975a.07.07,0,0,1-.072-.072V29.317a.071.071,0,0,1,.072-.072h8.131a.931.931,0,0,0,0-1.862H18.924l11.782-6.873a.324.324,0,0,1,.163-.044H32.7a.324.324,0,0,1,.163.044l11.782,6.873H34.6v-.95a2.812,2.812,0,1,0-5.625,0v.95h-2.52a.931.931,0,0,0,0,1.862H49.594a.071.071,0,0,1,.072.072Zm-16.931-4.64v.95h-1.9v-.95a.95.95,0,1,1,1.9,0Zm26.5-5.055a.931.931,0,0,0-.668.642,8.773,8.773,0,0,1-.722,1.746.931.931,0,0,0,.018.926l1.313,2.187L57.44,28.61,55.253,27.3a.931.931,0,0,0-.926-.018A8.763,8.763,0,0,1,52.581,28a.931.931,0,0,0-.642.668l-.411,1.644v-1a1.937,1.937,0,0,0-1.934-1.934H48.341l-5.921-3.454a.928.928,0,0,0-.068-.163,8.766,8.766,0,0,1-.722-1.746.931.931,0,0,0-.668-.642l-2.476-.619V18.311l2.477-.62a.931.931,0,0,0,.667-.641,8.835,8.835,0,0,1,.722-1.747.931.931,0,0,0-.019-.926L41.02,12.19l1.731-1.731,2.187,1.313a.931.931,0,0,0,.926.018,8.767,8.767,0,0,1,1.746-.722.931.931,0,0,0,.642-.668l.619-2.476H51.32l.619,2.476a.931.931,0,0,0,.642.668,8.767,8.767,0,0,1,1.746.722.931.931,0,0,0,.926-.018l2.187-1.313,1.731,1.731-1.313,2.187a.931.931,0,0,0-.019.926,8.831,8.831,0,0,1,.722,1.747.931.931,0,0,0,.667.641l2.477.62v2.448Z" transform="translate(0 -6.061)"/>
          <path id="Trazado_1047143" data-name="Trazado 1047143" d="M379.22,86.875a3.44,3.44,0,1,0,3.44,3.44A3.444,3.444,0,0,0,379.22,86.875Zm0,5.017a1.577,1.577,0,1,1,1.577-1.577A1.579,1.579,0,0,1,379.22,91.892Z" transform="translate(-329.124 -76.841)"/>
          <circle id="Elipse_14236" data-name="Elipse 14236" cx="0.931" cy="0.931" r="0.931" transform="translate(4.013 44.148)"/>
          <circle id="Elipse_14237" data-name="Elipse 14237" cx="0.931" cy="0.931" r="0.931" transform="translate(4.013 48.161)"/>
        </g>
      </g>
      <path id="Trazado_1047144" data-name="Trazado 1047144" d="M234.052,239.028c-.141-.068-.276-.13-.408-.189v-2.095a3.586,3.586,0,0,1,.619.348.931.931,0,0,0,1.132-1.479,5.373,5.373,0,0,0-1.751-.834v-.342a.931.931,0,1,0-1.862,0v.291c-.047.011-.095.022-.142.036a2.713,2.713,0,0,0-1.981,2.149,2.574,2.574,0,0,0,1.037,2.572,6.11,6.11,0,0,0,1.086.578v3.094a2.5,2.5,0,0,1-.812-.392.931.931,0,0,0-1.02,1.558,3.973,3.973,0,0,0,1.831.718v.354a.931.931,0,0,0,1.862,0v-.437a3.23,3.23,0,0,0,2.388-2.382A3.134,3.134,0,0,0,234.052,239.028Zm-2.283-1.065a.733.733,0,0,1-.276-.733.821.821,0,0,1,.288-.493v1.233Zm2.445,4.206a1.307,1.307,0,0,1-.571.785v-2.012A1.179,1.179,0,0,1,234.215,242.169Z" transform="translate(-201.031 -199.206)"/>
    </g>
  </g>
</svg>
