<svg xmlns="http://www.w3.org/2000/svg" xmlns:xlink="http://www.w3.org/1999/xlink" width="206" height="200" viewBox="0 0 206 200">
  <defs>
    <clipPath id="clip-path">
      <rect id="Rectángulo_416293" data-name="Rectángulo 416293" width="206" height="200" transform="translate(-11 -12)" fill="#fff" stroke="#707070" stroke-width="1" opacity="0.75"/>
    </clipPath>
  </defs>
  <g id="Enmascarar_grupo_1183023" data-name="Enmascarar grupo 1183023" transform="translate(11 12)" clip-path="url(#clip-path)">
    <g id="Grupo_1200807" data-name="Grupo 1200807" transform="translate(7.673 4.086)">
      <g id="Grupo_1200805" data-name="Grupo 1200805" transform="translate(-7.555 46.116)" opacity="0.69">
        <path id="Trazado_1046609" data-name="Trazado 1046609" d="M371.107,1194.415s8.015,52.068-40.571,48.564c0,0-16.012-2.792-26.019,15.916-6.5,12.155-27.973,23.605-53.04-4.008-12.245-13.488-30.515-13.284-30.515-13.284s-46.519,7.389-26.441-56.744c29.345-93.732,87.276-40.625,87.276-40.625s15.262,16.613,47.07,11.61C352.573,1152.116,368.628,1175.029,371.107,1194.415Z" transform="translate(-189.491 -1129.248)" fill="#e6f1ed"/>
      </g>
      <g id="Grupo_1200806" data-name="Grupo 1200806" transform="translate(-7.555 -12.707)">
        <path id="Trazado_1046610" data-name="Trazado 1046610" d="M541.9,1279.01c2.377,3.565,8.787,3.466,14.315-.22s8.083-9.566,5.706-13.131-8.787-3.466-14.315.22S539.526,1275.442,541.9,1279.01Z" transform="translate(-454.244 -1248.767)" fill="#320e0f"/>
        <path id="Trazado_1046611" data-name="Trazado 1046611" d="M556.487,1254.095c4.021,1.481,9.141-2.375,11.436-8.611s.9-12.491-3.124-13.972-9.143,2.376-11.438,8.612S552.465,1252.615,556.487,1254.095Z" transform="translate(-465.499 -1231.195)" fill="#320e0f"/>
        <path id="Trazado_1046612" data-name="Trazado 1046612" d="M639.507,1273.981c-1.779,2.914-7.8,2.482-13.439-.963s-8.774-8.6-7-11.514,7.8-2.483,13.439.962S641.286,1271.071,639.507,1273.981Z" transform="translate(-566.21 -1246.849)" fill="#320e0f"/>
        <path id="Trazado_1046613" data-name="Trazado 1046613" d="M562.31,1792.741c2.28-78.765-2.944-136.434-2.944-136.434l-48.374,1.287c-4.01,33.19-3.3,86.724-1.339,135.147Z" transform="translate(-439.549 -1465.708)" fill="#6997b2"/>
        <path id="Trazado_1046614" data-name="Trazado 1046614" d="M651.837,1793.331c20.167-72.893,28.613-126.839,28.613-126.839l-48.1-9.116c-12.469,32.495-25.288,87.137-35.377,135.955Z" transform="translate(-596.968 -1466.298)" fill="#6997b2"/>
        <path id="Trazado_1046615" data-name="Trazado 1046615" d="M598.946,1687.545a358.633,358.633,0,0,1-43.127,6.541,276.827,276.827,0,0,1-43.075.4c-.326-.022-.654-.047-.982-.07,4.01-14.232,8.087-27.1,12.128-37.628l35.423,6.712c.2-2.029.412-4,.641-5.9l48.374-1.287s.952,10.524,1.867,28.71Q604.586,1686.36,598.946,1687.545Z" transform="translate(-488.513 -1465.708)" fill="#48788e"/>
        <path id="Trazado_1046616" data-name="Trazado 1046616" d="M603.125,1749.7a451.441,451.441,0,0,0,11.944-74.186.247.247,0,0,1,.493.035,451.839,451.839,0,0,1-11.955,74.264.247.247,0,1,1-.482-.113Z" transform="translate(-534.838 -1476.177)" fill="#74160d"/>
        <path id="Trazado_1046617" data-name="Trazado 1046617" d="M692.114,1682.022a31.865,31.865,0,0,1-5.532,11.892c-4.5,6.168-12.508,12.793-26.412,14.617a.247.247,0,0,1-.065-.49c13.772-1.813,21.633-8.342,26.077-14.418a34,34,0,0,0,4.39-8.131c.4-1.083.668-1.975.831-2.595.081-.31.138-.552.173-.715s.05-.246.051-.246a.247.247,0,0,1,.487.087Z" transform="translate(-636.847 -1479.734)" fill="#74160d"/>
        <path id="Trazado_1046618" data-name="Trazado 1046618" d="M510.861,1671.752s-.007.146-.007.429a36.286,36.286,0,0,0,15.811,29.164.247.247,0,0,1-.279.409,36.778,36.778,0,0,1-16.026-29.572c0-.291.007-.448.007-.451a.247.247,0,0,1,.258-.236.249.249,0,0,1,.236.258Z" transform="translate(-404.459 -1474.086)" fill="#74160d"/>
        <path id="Trazado_1046619" data-name="Trazado 1046619" d="M523.392,1727.383s.58,23.14.58,49.065c0,19.884-.34,41.4-1.548,55.393a.248.248,0,1,1-.493-.042c1.206-13.957,1.547-35.474,1.547-55.35,0-12.959-.145-25.222-.29-34.247-.073-4.511-.145-8.214-.2-10.787s-.091-4.015-.091-4.019a.248.248,0,0,1,.241-.253.245.245,0,0,1,.254.241Z" transform="translate(-406.847 -1504.784)" fill="#74160d"/>
        <path id="Trazado_1046620" data-name="Trazado 1046620" d="M738.08,1738.282l-21.364,99.571a.247.247,0,1,1-.484-.1l21.364-99.57a.247.247,0,0,1,.484.1" transform="translate(-708.073 -1510.765)" fill="#74160d"/>
        <path id="Trazado_1046621" data-name="Trazado 1046621" d="M428.541,1510.007h0c3.972-3.907,5.11-9.482,3.224-13.806l.008.007-.021-.039a9.892,9.892,0,0,0-.859-1.55c-3.3-5.771-37.956-51.189-55.92-59.562a10.266,10.266,0,0,0-3.34-1.406l-.012-.005,0,0a13,13,0,0,0-11.833,3.676h0c-4.981,4.9-5.522,12.426-1.207,16.813l53.124,56.793C416.024,1515.32,423.56,1514.9,428.541,1510.007Z" transform="translate(-240.986 -1342.725)" fill="#f7b7aa"/>
        <path id="Trazado_1046622" data-name="Trazado 1046622" d="M435.133,1487.591l-31.3-33.457c-4.315-4.388-3.774-11.915,1.207-16.813a13,13,0,0,1,11.833-3.677l0,0,.013.005a10.258,10.258,0,0,1,3.34,1.406c10.048,4.683,25.307,20.948,37.391,35.391C452.559,1479.584,447.294,1485.188,435.133,1487.591Z" transform="translate(-286.238 -1342.723)" fill="#d28779"/>
        <path id="Trazado_1046623" data-name="Trazado 1046623" d="M593.6,1417.116c.38,8.867-22.6,17.052-51.328,18.283s-52.323-4.96-52.7-13.827,22.6-17.053,51.328-18.283S593.22,1408.252,593.6,1417.116Z" transform="translate(-461.968 -1326.045)" fill="#df5a43"/>
        <path id="Trazado_1046624" data-name="Trazado 1046624" d="M593.531,1417.116c.38,8.867-22.6,17.052-51.328,18.283s-52.324-4.96-52.7-13.827,22.6-17.052,51.327-18.283S593.151,1408.248,593.531,1417.116Z" transform="translate(-461.868 -1326.045)" fill="#df5a43"/>
        <path id="Trazado_1046625" data-name="Trazado 1046625" d="M598.847,1637.572c.259,6.043-21.578,11.886-48.774,13.051s-49.452-2.79-49.71-8.833,21.578-11.886,48.773-13.051S598.588,1631.528,598.847,1637.572Z" transform="translate(-472.053 -1450.388)" fill="#df5a43"/>
        <path id="Trazado_1046626" data-name="Trazado 1046626" d="M491.987,1438.777s-9.552,60.677.806,95.071l98.388-3.417s7.941-45.651,4.838-96.111Z" transform="translate(-464.386 -1343.249)" fill="#df5a43"/>
        <path id="Trazado_1046627" data-name="Trazado 1046627" d="M471.446,1445.966c9.425,8.427,22.162,9.555,28.451,2.521s3.747-19.567-5.677-27.993-22.162-9.555-28.451-2.522S462.023,1437.542,471.446,1445.966Z" transform="translate(-359.497 -1331.684)" fill="#df5a43"/>
        <path id="Trazado_1046628" data-name="Trazado 1046628" d="M417.386,1511.411c2.487,2.223,9.6-1.677,15.889-8.71s9.371-14.538,6.885-16.761-9.6,1.676-15.889,8.71S414.9,1509.188,417.386,1511.411Z" transform="translate(-276.636 -1371.38)" fill="#df5a43"/>
        <path id="Trazado_1046629" data-name="Trazado 1046629" d="M418.445,1445.972l20.706-25.648c11.731,6.708,34.483,29.766,34.483,29.766l-22.774,25.472C426.532,1456.346,418.445,1445.972,418.445,1445.972Z" transform="translate(-310.111 -1335.528)" fill="#df5a43"/>
        <path id="Trazado_1046630" data-name="Trazado 1046630" d="M675.523,1534.553h0c-5.431-1.246-9.321-5.4-9.979-10.072l0,.011,0-.044a10.037,10.037,0,0,1-.08-1.77c-.215-6.644,5.512-63.488,16.428-80.03a10.268,10.268,0,0,1,2.107-2.947l.009-.01v0a13.005,13.005,0,0,1,12-3.067h0c6.81,1.562,11.213,7.691,9.837,13.689l-15.5,76.207C688.968,1532.522,682.332,1536.118,675.523,1534.553Z" transform="translate(-653.314 -1344.32)" fill="#f7b7aa"/>
        <path id="Trazado_1046631" data-name="Trazado 1046631" d="M694.053,1436.631h0a13,13,0,0,0-12,3.068v0l-.008.01a10.261,10.261,0,0,0-2.107,2.947c-7.085,10.737-11.98,38.443-14.488,58.39,4.536,4.725,10.224,8.051,15.79,11.621a65.191,65.191,0,0,0,8.94,5.1l13.715-67.44C705.266,1444.321,700.862,1438.192,694.053,1436.631Z" transform="translate(-651.362 -1344.323)" fill="#d28779"/>
        <path id="Trazado_1046632" data-name="Trazado 1046632" d="M695.036,1451.675c-2.959,12.291-12.8,20.463-21.968,18.254s-14.21-13.962-11.251-26.253,12.8-20.463,21.968-18.254S698,1439.385,695.036,1451.675Z" transform="translate(-641.097 -1338.141)" fill="#df5a43"/>
        <path id="Trazado_1046633" data-name="Trazado 1046633" d="M716.175,1554.527c-.781,3.243-8.85,4.081-18.023,1.872s-15.977-6.628-15.2-9.871,8.849-4.08,18.023-1.872S716.956,1551.286,716.175,1554.527Z" transform="translate(-671.279 -1403.435)" fill="#df5a43"/>
        <path id="Trazado_1046634" data-name="Trazado 1046634" d="M704.149,1461.322,672.531,1452C666.7,1464.19,661.1,1496.1,661.1,1496.1l33.219,8C703.4,1474.453,704.149,1461.322,704.149,1461.322Z" transform="translate(-649.419 -1353.002)" fill="#df5a43"/>
        <path id="Trazado_1046635" data-name="Trazado 1046635" d="M599.185,1358.48l-17.6.754-3.055,21.794,25.5-1.094Z" transform="translate(-512.278 -1301.412)" fill="#f7b7aa"/>
        <path id="Trazado_1046636" data-name="Trazado 1046636" d="M613.626,1370.072c2.33-3.293,2.79-7.175,2.56-11.051l-11.814.506-2.323,16.584C606.506,1376.547,611.086,1373.664,613.626,1370.072Z" transform="translate(-535.034 -1301.71)" fill="#d28779"/>
        <path id="Trazado_1046637" data-name="Trazado 1046637" d="M600.378,1278.658a19.785,19.785,0,1,1-17.608-21.746A19.785,19.785,0,0,1,600.378,1278.658Z" transform="translate(-500.841 -1245.321)" fill="#f7b7aa"/>
        <path id="Trazado_1046638" data-name="Trazado 1046638" d="M605.537,1323.914a16.375,16.375,0,1,1-14.573-18A16.375,16.375,0,0,1,605.537,1323.914Z" transform="translate(-511.344 -1272.365)" fill="#f7b7aa"/>
        <path id="Trazado_1046639" data-name="Trazado 1046639" d="M562.179,1302.97l1.56,19.669,32.031,2.381,5.4-18.261Z" transform="translate(-502.086 -1270.79)" fill="#f7b7aa"/>
        <path id="Trazado_1046640" data-name="Trazado 1046640" d="M655.952,1314.194c-2.693,2.181-7.424.8-10.566-3.079s-3.507-8.8-.814-10.976,7.424-.8,10.566,3.079S658.645,1312.01,655.952,1314.194Z" transform="translate(-594.809 -1268.657)" fill="#f7b7aa"/>
        <path id="Trazado_1046641" data-name="Trazado 1046641" d="M648.133,1308.307a5.9,5.9,0,0,1-.068-.879,3.526,3.526,0,0,1,1.185-2.834,3.2,3.2,0,0,1,2.049-.678,7.665,7.665,0,0,1,5.5,3.135,8.387,8.387,0,0,1,2.019,5.063,3.523,3.523,0,0,1-1.186,2.836.247.247,0,1,1-.312-.384,3.032,3.032,0,0,0,1-2.452,7.911,7.911,0,0,0-1.91-4.752,7.2,7.2,0,0,0-5.12-2.951,2.7,2.7,0,0,0-1.737.568,3.035,3.035,0,0,0-1,2.45,5.414,5.414,0,0,0,.062.806.247.247,0,1,1-.489.073Z" transform="translate(-598.25 -1271.311)" fill="#74160d"/>
        <path id="Trazado_1046642" data-name="Trazado 1046642" d="M660.737,1306.655l-.018.018a8.534,8.534,0,0,0-2.033,5.913,12.849,12.849,0,0,0,.217,2.3.247.247,0,1,1-.487.088,13.325,13.325,0,0,1-.224-2.391,8.91,8.91,0,0,1,2.205-6.289.247.247,0,1,1,.34.359Z" transform="translate(-604.782 -1272.587)" fill="#74160d"/>
        <path id="Trazado_1046643" data-name="Trazado 1046643" d="M538.212,1324.518c2.18,2.693,7.094,2.33,10.976-.813s5.259-7.874,3.079-10.567-7.1-2.329-10.976.813S536.031,1321.828,538.212,1324.518Z" transform="translate(-443.011 -1275.404)" fill="#f7b7aa"/>
        <path id="Trazado_1046644" data-name="Trazado 1046644" d="M552.4,1320.948a4.72,4.72,0,0,0,.324-1.643,2.7,2.7,0,0,0-.567-1.737,3.036,3.036,0,0,0-2.451-1,7.913,7.913,0,0,0-4.753,1.909A7.2,7.2,0,0,0,542,1323.6a2.705,2.705,0,0,0,.567,1.737.247.247,0,1,1-.385.31,3.2,3.2,0,0,1-.676-2.047,7.67,7.67,0,0,1,3.134-5.505,8.4,8.4,0,0,1,5.064-2.019,3.525,3.525,0,0,1,2.835,1.186,3.189,3.189,0,0,1,.677,2.048,5.209,5.209,0,0,1-.356,1.817.247.247,0,0,1-.463-.174Z" transform="translate(-444.87 -1278.017)" fill="#74160d"/>
        <path id="Trazado_1046645" data-name="Trazado 1046645" d="M551.288,1317.377a8.09,8.09,0,0,1,1.1,4.318,11.983,11.983,0,0,1-.965,4.585.247.247,0,0,1-.457-.188,11.488,11.488,0,0,0,.928-4.4,8.657,8.657,0,0,0-.511-2.994,6.3,6.3,0,0,0-.348-.786l-.112-.2-.038-.06a.247.247,0,0,1,.408-.28Z" transform="translate(-448.219 -1278.678)" fill="#74160d"/>
        <path id="Trazado_1046646" data-name="Trazado 1046646" d="M565.985,1291.787s-10.015-8.75-3.827-20.638C562.158,1271.145,571.434,1279.1,565.985,1291.787Z" transform="translate(-467.706 -1253.236)" fill="#320e0f"/>
        <path id="Trazado_1046647" data-name="Trazado 1046647" d="M629.679,1284.411s11.615-6.475,8.035-19.391C637.714,1265.02,626.987,1270.867,629.679,1284.411Z" transform="translate(-569.388 -1249.855)" fill="#320e0f"/>
        <path id="Trazado_1046648" data-name="Trazado 1046648" d="M622.4,1319.73c.053-.814.459-1.45.907-1.421s.769.712.716,1.526-.459,1.45-.908,1.421S622.347,1320.546,622.4,1319.73Z" transform="translate(-551.946 -1279.251)" fill="#74160d"/>
        <path id="Trazado_1046649" data-name="Trazado 1046649" d="M614.311,1310.776c-.054-1.275,1.96-2.4,4.5-2.506s4.642.837,4.7,2.112-2.086.327-4.624.436S614.366,1312.049,614.311,1310.776Z" transform="translate(-547.8 -1273.708)" fill="#320e0f"/>
        <path id="Trazado_1046650" data-name="Trazado 1046650" d="M590.928,1323.331c.139-.8.609-1.394,1.052-1.318s.69.79.551,1.594-.611,1.393-1.053,1.317S590.789,1324.134,590.928,1323.331Z" transform="translate(-506.362 -1281.292)" fill="#74160d"/>
        <path id="Trazado_1046651" data-name="Trazado 1046651" d="M579.942,1311.924c.393-1.215,2.672-1.565,5.09-.782s4.059,2.4,3.666,3.616-2.068-.42-4.486-1.2S579.549,1313.139,579.942,1311.924Z" transform="translate(-497.621 -1275.068)" fill="#320e0f"/>
        <path id="Trazado_1046652" data-name="Trazado 1046652" d="M604.287,1334.538s-.163.371-.326.832a4.839,4.839,0,0,0-.319,1.313.358.358,0,0,0,.022.154l-.034.02.018-.032.015.012-.034.02.018-.032-.024.042.012-.047.012.005-.024.042.012-.047h0a.622.622,0,0,0,.256-.107,4.037,4.037,0,0,0,.574-.445l.225-.056.172.155s.033.089.092.227a5.2,5.2,0,0,0,.4.767,1.577,1.577,0,0,0,.238.294l.129.077.029-.015a2.147,2.147,0,0,0,.382-1.145l.148-.189.239.026.082.054a1.77,1.77,0,0,0,.743.294l.129-.042a.45.45,0,0,0,.067-.3,5.968,5.968,0,0,0-.587-2.018.247.247,0,1,1,.455-.193,6.313,6.313,0,0,1,.626,2.211.912.912,0,0,1-.191.622.65.65,0,0,1-.5.209,1.746,1.746,0,0,1-.753-.224,3.368,3.368,0,0,1-.359-.215l.143-.2.244.039a3.907,3.907,0,0,1-.321,1.142.952.952,0,0,1-.239.309.538.538,0,0,1-.339.125.806.806,0,0,1-.576-.322,5.289,5.289,0,0,1-.743-1.366l.232-.085.165.184a4.508,4.508,0,0,1-.649.5,1.029,1.029,0,0,1-.512.178.456.456,0,0,1-.4-.228.8.8,0,0,1-.089-.4,5.154,5.154,0,0,1,.347-1.478c.17-.479.338-.862.339-.866a.248.248,0,0,1,.454.2Z" transform="translate(-527.321 -1287.939)" fill="#74160d"/>
        <path id="Trazado_1046653" data-name="Trazado 1046653" d="M599.9,1353.207a2.15,2.15,0,1,1-2.208-2.529A2.4,2.4,0,0,1,599.9,1353.207Z" transform="translate(-515.851 -1297.107)" fill="#74160d"/>
        <path id="Trazado_1046654" data-name="Trazado 1046654" d="M559.044,1235.223c3.343-5.477,14.651-4.666,25.255,1.809s16.491,16.163,13.147,21.638-14.651,4.666-25.256-1.809S555.7,1240.7,559.044,1235.223Z" transform="translate(-497.478 -1231.414)" fill="#320e0f"/>
        <path id="Trazado_1046655" data-name="Trazado 1046655" d="M542.453,1445.264c-8.378.341-16.766.268-25.148.1-23.9-.466-47.8-.952-71.7-.736.152-.433.3-.858.46-1.271a29.6,29.6,0,0,1,1.606-3.847l.006-.013h0a25.048,25.048,0,0,1,6.544-8.254,14.938,14.938,0,0,1,1.672-1.554q2.19,0,4.38-.006c16.959.014,33.915.329,50.869.71,8.383.188,16.768.366,25.152.208,7.778-.147,15.53-.708,23.286-1.261,5.2,3.913,11.179,9.193,16.316,13.956-2.647.068-5.295.164-7.943.32C559.452,1444.125,550.967,1444.919,542.453,1445.264Z" transform="translate(-424.553 -1340.505)" fill="#f1897d"/>
        <path id="Trazado_1046656" data-name="Trazado 1046656" d="M428.779,1531.962s.853-4.853,2.236-11.489c12.559-.38,25.115-.853,37.664-1.5,14.964-.773,29.909-1.828,44.9-1.939,14.857-.112,29.709.4,44.564.527,5.953.051,11.91.035,17.863-.1-.7.911-1.455,1.825-2.266,2.732-6.289,7.034-13.4,10.934-15.889,8.71-3.192-2.521-6.1-4.885-8.748-7.1q-.212,5.413-.523,10.464c-9.247-.153-18.491-.363-27.739-.4-15.128-.066-30.195.727-45.293,1.577s-30.219,1.449-45.339,1.9C429.066,1534.168,428.528,1533,428.779,1531.962Z" transform="translate(-417.088 -1388.869)" fill="#f1897d"/>
        <path id="Trazado_1046657" data-name="Trazado 1046657" d="M581.947,1601.328c5.694-.252,11.39-.507,17.086-.716-.652,6.167-1.307,11.236-1.825,14.908q-3.448.132-6.9.279-42.871,1.839-85.736,3.781l-8.239.363a125.358,125.358,0,0,1-2.332-14.735l46.053-2.032Q561,1602.254,581.947,1601.328Z" transform="translate(-469.387 -1434.984)" fill="#f1897d"/>
        <path id="Trazado_1046658" data-name="Trazado 1046658" d="M579.525,1402.2h-.031a162.22,162.22,0,0,0-18.007,2.239c3.017,8.345,11.158,13.639,20.493,13.239a20.86,20.86,0,0,0,19.127-15.015A162.77,162.77,0,0,0,579.525,1402.2Z" transform="translate(-501.717 -1325.444)" fill="#f7b7aa"/>
        <path id="Trazado_1046659" data-name="Trazado 1046659" d="M554.294,1405.6a23.547,23.547,0,0,0,22.458,16.535q.511,0,1.025-.022a23.543,23.543,0,0,0,22-18.538.247.247,0,1,1,.483.1,24.038,24.038,0,0,1-22.462,18.927q-.524.023-1.046.022a24.041,24.041,0,0,1-22.93-16.883.247.247,0,0,1,.472-.147Z" transform="translate(-497.433 -1326.181)" fill="#74160d"/>
        <path id="Trazado_1046660" data-name="Trazado 1046660" d="M651.269,1498.77l-50.674,44.53,3.626,22.534H618.2l47.57-55.331Z" transform="translate(-583.91 -1378.803)" fill="#f7b7aa"/>
        <path id="Trazado_1046661" data-name="Trazado 1046661" d="M607.043,1480.108a12.3,12.3,0,1,1-12.491,12.111A12.3,12.3,0,0,1,607.043,1480.108Z" transform="translate(-534.589 -1368.507)" fill="#f7b7aa"/>
        <path id="Trazado_1046662" data-name="Trazado 1046662" d="M632.232,1465.038l0,.145,7.671.119,0-.146c.29-18.779-1.193-34.028-3.312-34.06S632.521,1446.261,632.232,1465.038Z" transform="translate(-572.266 -1341.47)" fill="#f7b7aa"/>
        <path id="Trazado_1046663" data-name="Trazado 1046663" d="M616.688,1477.361v.066l7.67.119,0-.066c.131-8.489-1.48-15.4-3.6-15.43S616.818,1468.869,616.688,1477.361Z" transform="translate(-549.727 -1358.546)" fill="#f7b7aa"/>
        <path id="Trazado_1046664" data-name="Trazado 1046664" d="M605.575,1480.589v.065l7.671.119,0-.065c.13-8.49-1.481-15.4-3.6-15.431S605.706,1472.1,605.575,1480.589Z" transform="translate(-533.631 -1360.326)" fill="#f7b7aa"/>
        <path id="Trazado_1046665" data-name="Trazado 1046665" d="M594.479,1485.07v.066l7.642,2,.03-1.944c.131-8.49-1.48-15.4-3.6-15.431S594.61,1476.578,594.479,1485.07Z" transform="translate(-517.561 -1362.798)" fill="#f7b7aa"/>
        <path id="Trazado_1046666" data-name="Trazado 1046666" d="M620.034,1471.859s-.054.146-.144.42a26.194,26.194,0,0,0-1.087,5.149.247.247,0,1,1-.492-.052,25.761,25.761,0,0,1,1.258-5.69.248.248,0,0,1,.464.173Z" transform="translate(-546.136 -1363.773)" fill="#74160d"/>
        <path id="Trazado_1046667" data-name="Trazado 1046667" d="M608.12,1474.636l0,0a12.994,12.994,0,0,0-.828,4.03.248.248,0,0,1-.492-.052,12.6,12.6,0,0,1,.891-4.224.247.247,0,0,1,.431.243Z" transform="translate(-529.076 -1365.286)" fill="#74160d"/>
        <path id="Trazado_1046668" data-name="Trazado 1046668" d="M637.388,1436.587a7.18,7.18,0,0,0,.061,1.056c.639.016,1.278.048,1.917.081a7.063,7.063,0,0,0,.1-1.1c.024-1.558-.421-2.83-.995-2.839S637.412,1435.027,637.388,1436.587Z" transform="translate(-574.106 -1342.952)" fill="#fbd7d2"/>
        <path id="Trazado_1046669" data-name="Trazado 1046669" d="M356.589,1405.17l14.628,80.658L399.553,1482l-24.406-76.2Z" transform="translate(-208.296 -1327.169)" fill="#f7b7aa"/>
        <path id="Trazado_1046670" data-name="Trazado 1046670" d="M428.066,1387.647a9.961,9.961,0,1,1-11.455-8.2A9.96,9.96,0,0,1,428.066,1387.647Z" transform="translate(-260.12 -1312.904)" fill="#f7b7aa"/>
        <path id="Trazado_1046671" data-name="Trazado 1046671" d="M349.267,1380.221l-.131.039,1.757,5.958.131-.038c16.9-4.984,30.208-10.358,29.723-12S366.167,1375.24,349.267,1380.221Z" transform="translate(-186.162 -1309.806)" fill="#f7b7aa"/>
        <path id="Trazado_1046672" data-name="Trazado 1046672" d="M352.16,1389.51l-.117.036,1.756,5.957.118-.034c15.161-4.471,27.058-9.428,26.572-11.074S367.321,1385.04,352.16,1389.51Z" transform="translate(-187.209 -1315.414)" fill="#f7b7aa"/>
        <path id="Trazado_1046673" data-name="Trazado 1046673" d="M358.891,1400.45l-.118.036-1.6,6.947,3.473-1.024c15.161-4.471,27.057-9.428,26.572-11.074S374.052,1395.98,358.891,1400.45Z" transform="translate(-196.241 -1321.448)" fill="#f7b7aa"/>
        <path id="Trazado_1046674" data-name="Trazado 1046674" d="M428.859,1381.771a6.431,6.431,0,1,1-8.18-3.975A6.431,6.431,0,0,1,428.859,1381.771Z" transform="translate(-264.752 -1311.871)" fill="#f7b7aa"/>
        <path id="Trazado_1046675" data-name="Trazado 1046675" d="M406.025,1370.534l-2.63,1.971,6.179,3.128.061-.042c7.8-5.566,13.315-11.211,12.318-12.607S413.824,1364.97,406.025,1370.534Z" transform="translate(-251.797 -1303.723)" fill="#f7b7aa"/>
        <path id="Trazado_1046676" data-name="Trazado 1046676" d="M427.9,1382.259l-2.219,1.784-.155-.193.242-.05a4.678,4.678,0,0,1,.067.854,7.227,7.227,0,0,1-1.121,3.815,10.958,10.958,0,0,1-5.656,4.24.247.247,0,1,1-.178-.462,10.466,10.466,0,0,0,5.413-4.041,6.737,6.737,0,0,0,1.047-3.554,5.041,5.041,0,0,0-.03-.562l-.02-.147-.008-.045a.248.248,0,0,1,.087-.243l2.219-1.784a.247.247,0,1,1,.309.386Z" transform="translate(-264.587 -1314.286)" fill="#74160d"/>
        <path id="Trazado_1046677" data-name="Trazado 1046677" d="M384.5,1395.422c-.1,0-3.576.025-15.048,3.139a.247.247,0,0,1-.13-.477c11.5-3.119,15-3.155,15.178-3.156a.247.247,0,1,1,0,.494Z" transform="translate(-199.111 -1321.518)" fill="#74160d"/>
        <path id="Trazado_1046678" data-name="Trazado 1046678" d="M381.264,1384.792s-.427.016-1.209.075a89.514,89.514,0,0,0-14.339,2.329.247.247,0,0,1-.118-.48,86.224,86.224,0,0,1,15.647-2.417.247.247,0,1,1,.019.494Z" transform="translate(-194.2 -1315.654)" fill="#74160d"/>
      </g>
    </g>
  </g>
</svg>
