<svg xmlns="http://www.w3.org/2000/svg" xmlns:xlink="http://www.w3.org/1999/xlink" width="93.934" height="93.934" viewBox="0 0 93.934 93.934">
  <defs>
    <filter id="Trazado_982547" x="0" y="0" width="93.934" height="93.934" filterUnits="userSpaceOnUse">
      <feOffset dy="3" input="SourceAlpha"/>
      <feGaussianBlur stdDeviation="3" result="blur"/>
      <feFlood flood-opacity="0.161"/>
      <feComposite operator="in" in2="blur"/>
      <feComposite in="SourceGraphic"/>
    </filter>
  </defs>
  <g id="Grupo_1201330" data-name="Grupo 1201330" transform="translate(-189.033 -4233.5)">
    <g id="Grupo_1201325" data-name="Grupo 1201325" transform="translate(0 1364.5)">
      <g id="Grupo_1182347" data-name="Grupo 1182347" transform="translate(0 1089)">
        <g id="Grupo_1176309" data-name="Grupo 1176309" transform="translate(0 -206)">
          <g id="Grupo_1172970" data-name="Grupo 1172970" transform="translate(-1 -9042)">
            <g id="Grupo_1171971" data-name="Grupo 1171971" transform="translate(199.033 11034)">
              <g id="Grupo_1167337" data-name="Grupo 1167337" transform="translate(0)">
                <g id="Grupo_1166720" data-name="Grupo 1166720">
                  <g id="Grupo_1164305" data-name="Grupo 1164305">
                    <g id="Grupo_1163948" data-name="Grupo 1163948">
                      <g id="Grupo_1158168" data-name="Grupo 1158168">
                        <g id="Grupo_1152576" data-name="Grupo 1152576">
                          <g id="Grupo_1148633" data-name="Grupo 1148633">
                            <g id="Grupo_1148525" data-name="Grupo 1148525">
                              <g transform="matrix(1, 0, 0, 1, -9, -6)" filter="url(#Trazado_982547)">
                                <g id="Trazado_982547-2" data-name="Trazado 982547" transform="translate(9 6)" fill="#f2f7f5">
                                  <path d="M 37.966796875 74.43359375 C 33.04315185546875 74.43359375 28.26757431030273 73.46962738037109 23.77274131774902 71.56847381591797 C 19.43047523498535 69.73184967041016 15.53040790557861 67.10224914550781 12.18087482452393 63.75271987915039 C 8.831341743469238 60.4031867980957 6.201741218566895 56.50312042236328 4.365118980407715 52.16086196899414 C 2.463963508605957 47.66601943969727 1.499996900558472 42.89044189453125 1.499996900558472 37.966796875 C 1.499996900558472 33.04315185546875 2.463963508605957 28.26757431030273 4.365118980407715 23.77274131774902 C 6.201741218566895 19.43047523498535 8.831341743469238 15.53040790557861 12.18087482452393 12.18087482452393 C 15.53040790557861 8.831341743469238 19.43047523498535 6.201741218566895 23.77274131774902 4.365118980407715 C 28.26757431030273 2.463963508605957 33.04315185546875 1.499996900558472 37.966796875 1.499996900558472 C 42.89044189453125 1.499996900558472 47.66601943969727 2.463963508605957 52.16086196899414 4.365118980407715 C 56.50312042236328 6.201741218566895 60.4031867980957 8.831341743469238 63.75271987915039 12.18087482452393 C 67.10224914550781 15.53040790557861 69.73184967041016 19.43047523498535 71.56847381591797 23.77274131774902 C 73.46962738037109 28.26757431030273 74.43359375 33.04315185546875 74.43359375 37.966796875 C 74.43359375 42.89044189453125 73.46962738037109 47.66601943969727 71.56847381591797 52.16086196899414 C 69.73184967041016 56.50313186645508 67.10224914550781 60.4031867980957 63.75271987915039 63.75271987915039 C 60.4031867980957 67.10224914550781 56.50313186645508 69.73184967041016 52.16086196899414 71.56847381591797 C 47.66601943969727 73.46962738037109 42.89044189453125 74.43359375 37.966796875 74.43359375 Z" stroke="none"/>
                                  <path d="M 37.966796875 3 C 33.2449836730957 3 28.66600799560547 3.924095153808594 24.35705947875977 5.746635437011719 C 20.19359588623047 7.507637023925781 16.45379638671875 10.02928161621094 13.24153518676758 13.24153518676758 C 10.02927398681641 16.45379638671875 7.507621765136719 20.19359588623047 5.746635437011719 24.35705947875977 C 3.924095153808594 28.66600799560547 3 33.2449836730957 3 37.966796875 C 3 42.6886100769043 3.924095153808594 47.26758575439453 5.746635437011719 51.57653427124023 C 7.507621765136719 55.73999786376953 10.02927398681641 59.47979736328125 13.24153518676758 62.69205856323242 C 16.45379638671875 65.90431976318359 20.19359588623047 68.42597198486328 24.35705947875977 70.18695831298828 C 28.66600799560547 72.00949859619141 33.2449836730957 72.93359375 37.966796875 72.93359375 C 42.6886100769043 72.93359375 47.26758575439453 72.00949859619141 51.57653427124023 70.18695831298828 C 55.73999786376953 68.42597198486328 59.47979736328125 65.90431976318359 62.69205856323242 62.69205856323242 C 65.90431976318359 59.47979736328125 68.42597198486328 55.73999786376953 70.18695831298828 51.57653427124023 C 72.00949859619141 47.26758575439453 72.93359375 42.6886100769043 72.93359375 37.966796875 C 72.93359375 33.2449836730957 72.00949859619141 28.66600799560547 70.18695831298828 24.35705947875977 C 68.42597198486328 20.19359588623047 65.90431976318359 16.45379638671875 62.69205856323242 13.24153518676758 C 59.47979736328125 10.02928161621094 55.73999786376953 7.507637023925781 51.57653427124023 5.746635437011719 C 47.26758575439453 3.924095153808594 42.6886100769043 3 37.966796875 3 M 37.966796875 0 C 58.93528366088867 0 75.93359375 16.99832153320312 75.93359375 37.966796875 C 75.93359375 58.93528366088867 58.93528366088867 75.93359375 37.966796875 75.93359375 C 16.99831008911133 75.93359375 0 58.93528366088867 0 37.966796875 C 0 16.99832153320312 16.99831008911133 0 37.966796875 0 Z" stroke="none" fill="#4a665c"/>
                                </g>
                              </g>
                            </g>
                          </g>
                        </g>
                      </g>
                    </g>
                  </g>
                </g>
              </g>
            </g>
          </g>
        </g>
      </g>
    </g>
    <g id="bombilla-ecologica" transform="translate(145.074 4253.044)">
      <g id="Grupo_1201329" data-name="Grupo 1201329" transform="translate(73.828)">
        <g id="Icons_1_" transform="translate(0)">
          <g id="Grupo_1201328" data-name="Grupo 1201328">
            <path id="Trazado_1048010" data-name="Trazado 1048010" d="M90.928,0a17.119,17.119,0,0,0-17.1,17.1,16.88,16.88,0,0,0,3.66,10.546,65.1,65.1,0,0,1,4.939,7.231l.032.054v3.239a8.442,8.442,0,0,0,4.579,7.476,3.96,3.96,0,0,0,7.773,0,8.441,8.441,0,0,0,4.579-7.476V34.935l.035-.06a64.4,64.4,0,0,1,4.939-7.23,16.886,16.886,0,0,0,3.66-10.547A17.117,17.117,0,0,0,90.928,0Zm0,43.369a5.194,5.194,0,0,1-4.335-2.339h8.67A5.192,5.192,0,0,1,90.924,43.369Zm-5.2-5.6V35.682h10.4v2.083ZM101.8,25.625a67.7,67.7,0,0,0-4.711,6.792H84.761a68.465,68.465,0,0,0-4.71-6.793A13.65,13.65,0,0,1,77.093,17.1a13.833,13.833,0,1,1,27.666,0A13.656,13.656,0,0,1,101.8,25.625Z" transform="translate(-73.828)" fill="#4a665c"/>
            <path id="Trazado_1048011" data-name="Trazado 1048011" d="M180.359,89.507c-2.828,2.829-3.187,5.459-2.072,7.447a.169.169,0,0,0,.121.088.178.178,0,0,0,.147-.038l7.386-6.283a.463.463,0,0,1,.652.654l-4.91,5.772-2.375,2.736a22.617,22.617,0,0,0-2.8,4.721.5.5,0,0,0,.413.669l2.524.251a.494.494,0,0,0,.531-.6,7.653,7.653,0,0,1,.92-5.657c1.916.776,4.329.269,6.909-2.313,3.428-3.427,5.121-9.9,3.788-11.237C190.346,84.469,183.787,86.079,180.359,89.507Z" transform="translate(-166.294 -76.834)" fill="#4a665c"/>
          </g>
        </g>
      </g>
    </g>
  </g>
</svg>
