<svg xmlns="http://www.w3.org/2000/svg" xmlns:xlink="http://www.w3.org/1999/xlink" width="113" height="113" viewBox="0 0 113 113">
  <defs>
    <filter id="Trazado_982547" x="0" y="0" width="113" height="113" filterUnits="userSpaceOnUse">
      <feOffset dy="3" input="SourceAlpha"/>
      <feGaussianBlur stdDeviation="3" result="blur"/>
      <feFlood flood-opacity="0.161"/>
      <feComposite operator="in" in2="blur"/>
      <feComposite in="SourceGraphic"/>
    </filter>
  </defs>
  <g id="Grupo_1201090" data-name="Grupo 1201090" transform="translate(-141.004 -7433.151)">
    <g id="Grupo_1183656" data-name="Grupo 1183656" transform="translate(-54.996 6255.105)">
      <g id="Grupo_1182567" data-name="Grupo 1182567" transform="translate(0 -7689.955)">
        <g id="Grupo_1180298" data-name="Grupo 1180298" transform="translate(22 3193)">
          <g id="Grupo_1173622" data-name="Grupo 1173622" transform="translate(-22 3581)">
            <g id="Grupo_1172087" data-name="Grupo 1172087" transform="translate(205 2100)">
              <g id="Grupo_1171485" data-name="Grupo 1171485">
                <g id="Grupo_1167519" data-name="Grupo 1167519" transform="translate(0)">
                  <g id="Grupo_1166845" data-name="Grupo 1166845">
                    <g id="Grupo_1166720" data-name="Grupo 1166720">
                      <g id="Grupo_1164305" data-name="Grupo 1164305">
                        <g id="Grupo_1163948" data-name="Grupo 1163948">
                          <g id="Grupo_1158168" data-name="Grupo 1158168">
                            <g id="Grupo_1152576" data-name="Grupo 1152576">
                              <g id="Grupo_1148633" data-name="Grupo 1148633">
                                <g id="Grupo_1148525" data-name="Grupo 1148525">
                                  <g transform="matrix(1, 0, 0, 1, -9, -6)" filter="url(#Trazado_982547)">
                                    <g id="Trazado_982547-2" data-name="Trazado 982547" transform="translate(9 6)" fill="#f2f7f5">
                                      <path d="M 47.5 93.5 C 41.28937149047852 93.5 35.26533508300781 92.28397369384766 29.59518623352051 89.88570404052734 C 24.11771965026855 87.56893157958984 19.19813346862793 84.25196075439453 14.97309303283691 80.02691650390625 C 10.74804019927979 75.80186462402344 7.431066513061523 70.88229370117188 5.114293098449707 65.40481567382812 C 2.716026782989502 59.73468017578125 1.5 53.71062850952148 1.5 47.5 C 1.5 41.28937149047852 2.716026782989502 35.26533508300781 5.114293098449707 29.59518623352051 C 7.431066513061523 24.11771965026855 10.74804019927979 19.19813346862793 14.97309303283691 14.97309303283691 C 19.19813346862793 10.74804019927979 24.11771965026855 7.431066513061523 29.59518623352051 5.114293098449707 C 35.26533508300781 2.716026782989502 41.28937149047852 1.5 47.5 1.5 C 53.71062850952148 1.5 59.73468017578125 2.716026782989502 65.40481567382812 5.114293098449707 C 70.88229370117188 7.431066513061523 75.80186462402344 10.74804019927979 80.02691650390625 14.97309303283691 C 84.25196075439453 19.19813346862793 87.56893157958984 24.11771965026855 89.88570404052734 29.59518623352051 C 92.28397369384766 35.26533508300781 93.5 41.28937149047852 93.5 47.5 C 93.5 53.71062850952148 92.28397369384766 59.73468017578125 89.88570404052734 65.40481567382812 C 87.56893157958984 70.88229370117188 84.25196075439453 75.80186462402344 80.02691650390625 80.02691650390625 C 75.80186462402344 84.25196075439453 70.88229370117188 87.56893157958984 65.40481567382812 89.88570404052734 C 59.73468017578125 92.28397369384766 53.71062850952148 93.5 47.5 93.5 Z" stroke="none"/>
                                      <path d="M 47.5 3 C 41.49121475219727 3 35.66376876831055 4.176155090332031 30.17950439453125 6.495796203613281 C 24.88084411621094 8.736953735351562 20.12152099609375 11.94598388671875 16.03375244140625 16.03375244140625 C 11.94598388671875 20.12152099609375 8.736953735351562 24.88084411621094 6.495796203613281 30.17950439453125 C 4.176155090332031 35.66376876831055 3 41.49121475219727 3 47.5 C 3 53.50878524780273 4.176155090332031 59.33623123168945 6.495796203613281 64.82049560546875 C 8.736953735351562 70.11915588378906 11.94598388671875 74.87847900390625 16.03375244140625 78.96624755859375 C 20.12152099609375 83.05401611328125 24.88084411621094 86.26304626464844 30.17950439453125 88.50419616699219 C 35.66376876831055 90.82384490966797 41.49121475219727 92 47.5 92 C 53.50878524780273 92 59.33623123168945 90.82384490966797 64.82049560546875 88.50419616699219 C 70.11915588378906 86.26304626464844 74.87847900390625 83.05401611328125 78.96624755859375 78.96624755859375 C 83.05401611328125 74.87847900390625 86.26304626464844 70.11915588378906 88.50419616699219 64.82049560546875 C 90.82384490966797 59.33623123168945 92 53.50878524780273 92 47.5 C 92 41.49121475219727 90.82384490966797 35.66376876831055 88.50419616699219 30.17950439453125 C 86.26304626464844 24.88084411621094 83.05401611328125 20.12152099609375 78.96624755859375 16.03375244140625 C 74.87847900390625 11.94598388671875 70.11915588378906 8.736953735351562 64.82049560546875 6.495796203613281 C 59.33623123168945 4.176155090332031 53.50878524780273 3 47.5 3 M 47.5 0 C 73.7335205078125 0 95 21.2664794921875 95 47.5 C 95 73.7335205078125 73.7335205078125 95 47.5 95 C 21.2664794921875 95 0 73.7335205078125 0 47.5 C 0 21.2664794921875 21.2664794921875 0 47.5 0 Z" stroke="none" fill="#88bba9"/>
                                    </g>
                                  </g>
                                </g>
                              </g>
                            </g>
                          </g>
                        </g>
                      </g>
                    </g>
                  </g>
                </g>
              </g>
            </g>
          </g>
        </g>
      </g>
    </g>
    <g id="apreton-de-manos_1_" data-name="apreton-de-manos (1)" transform="translate(161.06 7370.125)">
      <g id="Grupo_1201088" data-name="Grupo 1201088" transform="translate(1.067 99.125)">
        <g id="Grupo_1201083" data-name="Grupo 1201083" transform="translate(16.812 0.979)">
          <path id="Trazado_1046795" data-name="Trazado 1046795" d="M167.261,131.354l-1.852-15.041-3.47.427v0l-6.727-3.786a4.054,4.054,0,0,0-2.361-.5l-10.621.982a4.053,4.053,0,0,0-3.131,2l-7.486,12.885a1.781,1.781,0,0,0,.911,2.56l.306.116a6.641,6.641,0,0,0,1.8.4l-.949.826-1.9,1.653-5.4,4.6a2.306,2.306,0,0,0-.224,3.254l.548.627a2.964,2.964,0,0,0,4.18.285l2.063,2.366a2.958,2.958,0,0,0,4.18.285l2.061,2.366a2.965,2.965,0,0,0,4.183.287l1.12.968a2.965,2.965,0,0,0,4.183.287l1.522-1.328,12.8-9.967.014-.013,5.049,0Z" transform="translate(-125.598 -112.431)" fill="#f29f5c"/>
          <path id="Trazado_1046796" data-name="Trazado 1046796" d="M161.787,260.058l-.014.013-12.8,9.967-1.522,1.328a2.965,2.965,0,0,1-4.183-.287l-1.12-.968a2.965,2.965,0,0,1-4.183-.287l-2.061-2.366a2.958,2.958,0,0,1-4.18-.285l-2.063-2.366a2.963,2.963,0,0,1-3.67.175,2.305,2.305,0,0,0,.183,2.788l.548.627a2.964,2.964,0,0,0,4.18.285l2.063,2.366a2.958,2.958,0,0,0,4.18.285l2.061,2.366a2.965,2.965,0,0,0,4.183.287l1.12.968a2.965,2.965,0,0,0,4.183.287l1.522-1.328,12.8-9.967.014-.013,5.049,0-.559-4.538Z" transform="translate(-125.608 -238.469)" fill="#d37d42"/>
        </g>
        <g id="Grupo_1201084" data-name="Grupo 1201084" transform="translate(9.855 1.573)">
          <path id="Trazado_1046797" data-name="Trazado 1046797" d="M122.193,144.11l-6.857-5.912-1.907-1.643-1.364-1.175-5.866-5.057.677-5.767a3.98,3.98,0,0,0-2.891-4.3L91.2,116.717a2.959,2.959,0,0,0-3.423,1.5l-1.608,3.139-6.9-.469L77.5,135.942l-.768,6.541,6.719.447.014.013,14.037,12.1,1.53,1.32a2.965,2.965,0,0,0,4.181-.31l2.047-2.375a2.965,2.965,0,0,0,4.181-.31l2.047-2.378a2.958,2.958,0,0,0,4.179-.309l2.05-2.377a2.964,2.964,0,0,0,4.179-.309l.544-.63A2.306,2.306,0,0,0,122.193,144.11Z" transform="translate(-76.727 -116.61)" fill="#f9c295"/>
          <path id="Trazado_1046798" data-name="Trazado 1046798" d="M250.964,298.932l-2.089-1.8a2.448,2.448,0,0,1-.1,3.07l-.578.669a3.146,3.146,0,0,1-4.436.328l-2.176,2.524a3.141,3.141,0,0,1-4.436.328l-2.174,2.524a3.147,3.147,0,0,1-4.439.329l-2.173,2.522a3.125,3.125,0,0,1-1.491.961l.925.8a2.965,2.965,0,0,0,4.181-.31l2.047-2.375a2.965,2.965,0,0,0,4.181-.31l2.047-2.378a2.958,2.958,0,0,0,4.179-.309l2.05-2.377a2.964,2.964,0,0,0,4.179-.309l.544-.63A2.306,2.306,0,0,0,250.964,298.932Z" transform="translate(-205.497 -271.432)" fill="#e59f6a"/>
        </g>
        <g id="Grupo_1201086" data-name="Grupo 1201086" transform="translate(15.572 26.825)">
          <g id="Grupo_1201085" data-name="Grupo 1201085">
            <path id="Trazado_1046799" data-name="Trazado 1046799" d="M118.239,295.041l-.813,1.074a2.656,2.656,0,0,0,.514,3.721h0a2.656,2.656,0,0,0,3.721-.514l.813-1.074a2.656,2.656,0,0,0-.514-3.721h0A2.656,2.656,0,0,0,118.239,295.041Z" transform="translate(-116.887 -293.988)" fill="#f29f5c"/>
            <path id="Trazado_1046800" data-name="Trazado 1046800" d="M148.708,310.907l-1.532,2.022a2.657,2.657,0,0,0,.514,3.721h0a2.656,2.656,0,0,0,3.721-.514l1.532-2.023a2.656,2.656,0,0,0-.514-3.721h0A2.656,2.656,0,0,0,148.708,310.907Z" transform="translate(-142.402 -307.595)" fill="#f29f5c"/>
            <path id="Trazado_1046801" data-name="Trazado 1046801" d="M179.012,328.282l-2.087,2.756a2.656,2.656,0,0,0,.514,3.721h0a2.656,2.656,0,0,0,3.721-.514l2.087-2.756a2.656,2.656,0,0,0-.514-3.721h0A2.656,2.656,0,0,0,179.012,328.282Z" transform="translate(-167.916 -322.497)" fill="#f29f5c"/>
            <path id="Trazado_1046802" data-name="Trazado 1046802" d="M208.883,349.689l-2.209,2.916a2.656,2.656,0,0,0,.514,3.721h0a2.656,2.656,0,0,0,3.721-.514l2.209-2.916a2.656,2.656,0,0,0-.514-3.721h0A2.656,2.656,0,0,0,208.883,349.689Z" transform="translate(-193.43 -340.856)" fill="#f29f5c"/>
          </g>
        </g>
        <path id="Trazado_1046803" data-name="Trazado 1046803" d="M196.743,116.738l-6.727-3.786a4.054,4.054,0,0,0-2.361-.5l-10.621.982a4.053,4.053,0,0,0-3.131,2l-7.486,12.885a1.781,1.781,0,0,0,.911,2.56l.306.116a6.656,6.656,0,0,0,7.63-2.171l2.868-3.733s6.894,7.983,14.485-1.34" transform="translate(-143.587 -111.453)" fill="#f29f5c"/>
        <path id="Trazado_1046804" data-name="Trazado 1046804" d="M415.225,105.557l3.518,28.579-8.227,1.013a2.837,2.837,0,0,1-3.162-2.469l-2.825-22.949A2.837,2.837,0,0,1,407,106.57Z" transform="translate(-347.99 -105.557)" fill="#5c9cee"/>
        <path id="Trazado_1046805" data-name="Trazado 1046805" d="M425.188,276.317a3.11,3.11,0,0,1-3.413-2.4l.388,3.155a2.836,2.836,0,0,0,3.162,2.469l8.227-1.013-.393-3.194Z" transform="translate(-362.798 -249.95)" fill="#3580d3"/>
        <path id="Trazado_1046806" data-name="Trazado 1046806" d="M11.019,105.557,7.5,134.136l8.227,1.013a2.837,2.837,0,0,0,3.162-2.469l2.825-22.949a2.837,2.837,0,0,0-2.469-3.162Z" transform="translate(-7.501 -105.557)" fill="#ed5575"/>
        <path id="Trazado_1046807" data-name="Trazado 1046807" d="M15.921,280.65,7.9,279.663l-.4,3.271,8.227,1.013a2.837,2.837,0,0,0,3.162-2.469l.3-2.424A3.332,3.332,0,0,1,15.921,280.65Z" transform="translate(-7.501 -254.355)" fill="#cc3a60"/>
        <g id="Grupo_1201087" data-name="Grupo 1201087" transform="translate(3.586 21.809)">
          <circle id="Elipse_14203" data-name="Elipse 14203" cx="2.064" cy="2.064" r="2.064" transform="translate(59.338)" fill="#ebeef2"/>
          <circle id="Elipse_14204" data-name="Elipse 14204" cx="2.064" cy="2.064" r="2.064" fill="#ebeef2"/>
        </g>
      </g>
      <g id="Grupo_1201089" data-name="Grupo 1201089" transform="translate(-0.001 98.057)">
        <path id="Trazado_1046808" data-name="Trazado 1046808" d="M36.458,133.418a3.715,3.715,0,0,0-2.932-.69,3.722,3.722,0,0,0-4.182-3.078,3.763,3.763,0,0,0-.709.169,3.719,3.719,0,0,0-4.994-2.394,3.725,3.725,0,0,0-6.132-1.486l-3.908-.26L16,106.221l4.292.292.073,0a1.068,1.068,0,0,0,.95-.581L22.92,102.8a1.9,1.9,0,0,1,2.188-.96l2.389.661a1.068,1.068,0,1,0,.569-2.058l-2.388-.66a4.043,4.043,0,0,0-4.657,2.044l-1.288,2.513-3.474-.236.082-.669a3.909,3.909,0,0,0-3.4-4.352L4.716,98.066a1.068,1.068,0,1,0-.261,2.119l8.227,1.013a1.769,1.769,0,0,1,1.539,1.972L11.4,126.118a1.772,1.772,0,0,1-1.972,1.539L1.2,126.645a1.068,1.068,0,0,0-.261,2.119l8.227,1.013a3.9,3.9,0,0,0,3.9-1.993l2.924.194a3.725,3.725,0,0,0,3.3,5.427,3.8,3.8,0,0,0,.517-.036l.033-.005c0,.011,0,.022,0,.033a3.721,3.721,0,0,0,3.685,3.213,3.759,3.759,0,0,0,.548-.042,3.716,3.716,0,0,0,3.687,3.249,3.75,3.75,0,0,0,.547-.041c0,.012,0,.024,0,.036a3.726,3.726,0,0,0,3.681,3.215,3.794,3.794,0,0,0,.517-.036,3.7,3.7,0,0,0,2.459-1.441l2.209-2.916A3.728,3.728,0,0,0,36.458,133.418Zm-16.945-2.163a1.589,1.589,0,0,1-1.484-2.533l.813-1.074a1.589,1.589,0,0,1,2.533,1.918l-.813,1.074A1.579,1.579,0,0,1,19.513,131.254Zm3.059,2.9a1.588,1.588,0,0,1-.307-2.226l.813-1.074h0l.718-.948a1.589,1.589,0,0,1,2.533,1.918L24.8,133.847A1.59,1.59,0,0,1,22.572,134.154Zm4.235,3.207a1.589,1.589,0,0,1-.308-2.225h0l1.532-2.023h0l.556-.734a1.589,1.589,0,0,1,2.533,1.917l-2.088,2.757h0A1.59,1.59,0,0,1,26.807,137.362Zm8.669-.016-2.209,2.916a1.589,1.589,0,1,1-2.533-1.918l2.088-2.756h0l.12-.158a1.589,1.589,0,1,1,2.533,1.918Z" transform="translate(0.001 -98.057)"/>
        <path id="Trazado_1046809" data-name="Trazado 1046809" d="M208.969,127.574a1.068,1.068,0,0,0-1.19-.929l-8.227,1.013a1.77,1.77,0,0,1-1.972-1.54l-.084-.685h0l-.019-.159-2.721-22.105A1.769,1.769,0,0,1,196.3,101.2l8.227-1.013a1.068,1.068,0,0,0-.261-2.119l-8.227,1.013a3.909,3.909,0,0,0-3.425,3.976l-2.075.255-6.424-3.615a5.1,5.1,0,0,0-2.982-.637h-.006l-1.934.179a1.068,1.068,0,1,0,.2,2.126l1.939-.179a2.972,2.972,0,0,1,1.739.371l6.661,3.748a1.068,1.068,0,0,0,.719.169l2.41-.3,1.767,14.356.611,4.965-3.843,0a1.067,1.067,0,0,0-.7.26l-.3.231-9.649-8.316a12.952,12.952,0,0,0,6.272-4.581,1.068,1.068,0,1,0-1.656-1.348c-2.2,2.7-4.506,4.086-6.865,4.127-3.436.065-5.961-2.785-5.984-2.811a1.068,1.068,0,0,0-1.655.047l-2.868,3.733a5.556,5.556,0,0,1-6.406,1.823l-.306-.116a.713.713,0,0,1-.365-1.025l7.486-12.885a2.99,2.99,0,0,1,2.306-1.473l4.432-.41a1.068,1.068,0,0,0-.2-2.126l-4.432.41a5.13,5.13,0,0,0-3.956,2.526l-7.486,12.885a2.848,2.848,0,0,0,1.456,4.1l.306.116a7.778,7.778,0,0,0,2.752.506,7.679,7.679,0,0,0,6.1-3.025l2.14-2.785a10.544,10.544,0,0,0,6.017,2.632l13.944,12.018a1.239,1.239,0,0,1,.13,1.747l-.543.63a1.9,1.9,0,0,1-2.675.2,1.068,1.068,0,0,0-.14-.1l-3.62-3.121a1.068,1.068,0,0,0-1.394,1.617l2.941,2.536-1.342,1.557a1.892,1.892,0,0,1-2.674.2l-.016-.012-3.363-2.9a1.068,1.068,0,1,0-1.394,1.617l2.57,2.216-1.35,1.568a1.9,1.9,0,0,1-1.661.646,1.068,1.068,0,1,0-.249,2.121,4.032,4.032,0,0,0,3.528-1.373l1.443-1.676a4.029,4.029,0,0,0,4.783-1.01l1.445-1.677a4.041,4.041,0,0,0,4.783-1.007l.544-.631a3.374,3.374,0,0,0-.354-4.758l-.876-.755,3.2,0a3.9,3.9,0,0,0,4.311,3.145l8.227-1.013A1.068,1.068,0,0,0,208.969,127.574Z" transform="translate(-136.088 -98.058)"/>
        <path id="Trazado_1046810" data-name="Trazado 1046810" d="M445.136,251.249a3.132,3.132,0,1,0,3.132,3.132A3.135,3.135,0,0,0,445.136,251.249Zm0,4.128a1,1,0,1,1,1-1A1,1,0,0,1,445.136,255.377Z" transform="translate(-379.08 -229.441)"/>
        <path id="Trazado_1046811" data-name="Trazado 1046811" d="M31.456,254.381a3.132,3.132,0,1,0-3.132,3.132A3.135,3.135,0,0,0,31.456,254.381Zm-4.128,0a1,1,0,1,1,1,1A1,1,0,0,1,27.328,254.381Z" transform="translate(-21.606 -229.44)"/>
      </g>
    </g>
  </g>
</svg>
