<svg xmlns="http://www.w3.org/2000/svg" xmlns:xlink="http://www.w3.org/1999/xlink" width="118" height="118" viewBox="0 0 118 118">
  <defs>
    <filter id="Trazado_982547" x="0" y="0" width="118" height="118" filterUnits="userSpaceOnUse">
      <feOffset dy="3" input="SourceAlpha"/>
      <feGaussianBlur stdDeviation="3" result="blur"/>
      <feFlood flood-opacity="0.161"/>
      <feComposite operator="in" in2="blur"/>
      <feComposite in="SourceGraphic"/>
    </filter>
  </defs>
  <g id="Grupo_1201095" data-name="Grupo 1201095" transform="translate(-269 -7818)">
    <g id="Grupo_1183657" data-name="Grupo 1183657" transform="translate(11 6437)">
      <g id="Grupo_1182316" data-name="Grupo 1182316" transform="translate(-11 -8277.328)">
        <g id="Grupo_1176356" data-name="Grupo 1176356" transform="translate(278 9664.328)">
          <g id="Grupo_1172970" data-name="Grupo 1172970" transform="translate(0)">
            <g id="Grupo_1171971" data-name="Grupo 1171971">
              <g id="Grupo_1167337" data-name="Grupo 1167337">
                <g id="Grupo_1166720" data-name="Grupo 1166720">
                  <g id="Grupo_1164305" data-name="Grupo 1164305">
                    <g id="Grupo_1163948" data-name="Grupo 1163948">
                      <g id="Grupo_1158168" data-name="Grupo 1158168">
                        <g id="Grupo_1152576" data-name="Grupo 1152576">
                          <g id="Grupo_1148633" data-name="Grupo 1148633">
                            <g id="Grupo_1148525" data-name="Grupo 1148525">
                              <g transform="matrix(1, 0, 0, 1, -9, -6)" filter="url(#Trazado_982547)">
                                <g id="Trazado_982547-2" data-name="Trazado 982547" transform="translate(9 6)" fill="#f2f7f5">
                                  <path d="M 50 98.5 C 43.45188522338867 98.5 37.10042953491211 97.21787261962891 31.12207221984863 94.68923950195312 C 25.34691429138184 92.24655914306641 20.15995788574219 88.74932861328125 15.70532894134521 84.29468536376953 C 11.2506856918335 79.84004211425781 7.753442764282227 74.65309906005859 5.310757160186768 68.87794494628906 C 2.782128572463989 62.89958572387695 1.5 56.54813003540039 1.5 50 C 1.5 43.45188522338867 2.782128572463989 37.10042953491211 5.310757160186768 31.12207221984863 C 7.753442764282227 25.34691429138184 11.2506856918335 20.15997123718262 15.70532894134521 15.70532894134521 C 20.15997123718262 11.2506856918335 25.34691429138184 7.753442764282227 31.12207221984863 5.310757160186768 C 37.10042953491211 2.782128572463989 43.45188522338867 1.5 50 1.5 C 56.54813003540039 1.5 62.89958572387695 2.782128572463989 68.87794494628906 5.310757160186768 C 74.65309906005859 7.753442764282227 79.84004211425781 11.2506856918335 84.29468536376953 15.70532894134521 C 88.74932861328125 20.15995788574219 92.24655914306641 25.34691429138184 94.68923950195312 31.12207221984863 C 97.21787261962891 37.10042953491211 98.5 43.45188522338867 98.5 50 C 98.5 56.54813003540039 97.21787261962891 62.89958572387695 94.68923950195312 68.87794494628906 C 92.24655914306641 74.65309906005859 88.74932861328125 79.84004211425781 84.29468536376953 84.29468536376953 C 79.84004211425781 88.74932861328125 74.65309906005859 92.24655914306641 68.87794494628906 94.68923950195312 C 62.89958572387695 97.21787261962891 56.54813003540039 98.5 50 98.5 Z" stroke="none"/>
                                  <path d="M 50 3 C 43.65372467041016 3 37.49886322021484 4.242263793945312 31.70639801025391 6.6922607421875 C 26.11003112792969 9.059326171875 21.08335113525391 12.44861602783203 16.76598358154297 16.76598358154297 C 12.44861602783203 21.08335113525391 9.059326171875 26.11003112792969 6.6922607421875 31.70639801025391 C 4.242263793945312 37.49886322021484 3 43.65372467041016 3 50 C 3 56.34629058837891 4.242263793945312 62.50115203857422 6.6922607421875 68.29361724853516 C 9.059326171875 73.88998413085938 12.44861602783203 78.91666412353516 16.76598358154297 83.23403167724609 C 21.08335113525391 87.55138397216797 26.11003112792969 90.940673828125 31.70639801025391 93.3077392578125 C 37.49886322021484 95.75773620605469 43.65372467041016 97 50 97 C 56.34629058837891 97 62.50115203857422 95.75773620605469 68.29361724853516 93.3077392578125 C 73.88998413085938 90.940673828125 78.91666412353516 87.55138397216797 83.23403167724609 83.23403167724609 C 87.55138397216797 78.91666412353516 90.940673828125 73.88998413085938 93.3077392578125 68.29361724853516 C 95.75773620605469 62.50115203857422 97 56.34629058837891 97 50 C 97 43.65372467041016 95.75773620605469 37.49886322021484 93.3077392578125 31.70639801025391 C 90.940673828125 26.11003112792969 87.55138397216797 21.08335113525391 83.23403167724609 16.76598358154297 C 78.91666412353516 12.44861602783203 73.88998413085938 9.059326171875 68.29361724853516 6.6922607421875 C 62.50115203857422 4.242263793945312 56.34629058837891 3 50 3 M 50 0 C 77.6142578125 0 100 22.38577270507812 100 50 C 100 77.6142578125 77.6142578125 100 50 100 C 22.38577270507812 100 0 77.6142578125 0 50 C 0 22.38577270507812 22.38577270507812 0 50 0 Z" stroke="none" fill="#4a665c"/>
                                </g>
                              </g>
                            </g>
                          </g>
                        </g>
                      </g>
                    </g>
                  </g>
                </g>
              </g>
            </g>
          </g>
        </g>
      </g>
    </g>
    <g id="proyeccion_1_" data-name="proyeccion (1)" transform="translate(296.975 7843)">
      <g id="Grupo_1201093" data-name="Grupo 1201093" transform="translate(1.055 1.031)">
        <g id="Grupo_1201091" data-name="Grupo 1201091" transform="translate(15.463)">
          <path id="Trazado_1046812" data-name="Trazado 1046812" d="M238.958,357.4h4.123v15.461a2.062,2.062,0,1,1-4.123,0V357.4Z" transform="translate(-226.591 -315.14)" fill="#795548"/>
          <path id="Trazado_1046813" data-name="Trazado 1046813" d="M149.253,365.933l-8.839,15.461a2.06,2.06,0,1,1-3.566-2.061l7.653-13.4h4.752Z" transform="translate(-136.571 -322.642)" fill="#795548"/>
          <path id="Trazado_1046814" data-name="Trazado 1046814" d="M275.242,365.933l7.653,13.4a2.06,2.06,0,1,1-3.566,2.061l-8.839-15.461Z" transform="translate(-254.314 -322.642)" fill="#795548"/>
          <path id="Trazado_1046815" data-name="Trazado 1046815" d="M221.891,11.657a4.123,4.123,0,0,1,8.246,0v2.062h-8.246V11.657Z" transform="translate(-211.585 -7.534)" fill="#795548"/>
        </g>
        <path id="Trazado_1046816" data-name="Trazado 1046816" d="M46.706,41.667H10.62a2.068,2.068,0,0,0-2.062,2.062V80.835A2.068,2.068,0,0,0,10.62,82.9h55.66a2.068,2.068,0,0,0,2.062-2.062V43.729a2.068,2.068,0,0,0-2.062-2.062Z" transform="translate(-8.557 -37.544)" fill="#607d8b"/>
        <path id="Trazado_1046817" data-name="Trazado 1046817" d="M44.729,41.667H10.509a2.016,2.016,0,0,0-1.955,2.062V80.835A2.016,2.016,0,0,0,10.509,82.9H63.29a2.016,2.016,0,0,0,1.955-2.062V43.729a2.016,2.016,0,0,0-1.955-2.062Z" transform="translate(-8.554 -37.544)" fill="#cfd8dc"/>
        <g id="Grupo_1201092" data-name="Grupo 1201092" transform="translate(9.277 22.676)">
          <circle id="Elipse_14205" data-name="Elipse 14205" cx="3.092" cy="3.092" r="3.092" transform="translate(0 7.215)" fill="#e91e63"/>
          <circle id="Elipse_14206" data-name="Elipse 14206" cx="3.092" cy="3.092" r="3.092" transform="translate(9.277)" fill="#e91e63"/>
          <circle id="Elipse_14207" data-name="Elipse 14207" cx="3.092" cy="3.092" r="3.092" transform="translate(18.553 7.215)" fill="#e91e63"/>
        </g>
        <circle id="Elipse_14208" data-name="Elipse 14208" cx="10.307" cy="10.307" r="10.307" transform="translate(34.015 2.061)" fill="#558b30"/>
        <ellipse id="Elipse_14209" data-name="Elipse 14209" cx="8.761" cy="10.307" rx="8.761" ry="10.307" transform="translate(34.015 2.061)" fill="#8bc34a"/>
      </g>
      <g id="Grupo_1201094" data-name="Grupo 1201094" transform="translate(0.025)">
        <path id="Trazado_1046818" data-name="Trazado 1046818" d="M58.777,4.123h-6.9a11.273,11.273,0,0,0-13,0H36a5.154,5.154,0,0,0-10.1,0H3.117A3.1,3.1,0,0,0,.025,7.215V44.322a3.1,3.1,0,0,0,3.092,3.092H21.555l-5.655,9.8A3.091,3.091,0,0,0,21.255,60.3l6.6-11.44v9.894a3.092,3.092,0,0,0,6.184,0V48.858l6.6,11.438a3.091,3.091,0,1,0,5.354-3.09l-5.653-9.792H58.777a3.1,3.1,0,0,0,3.092-3.092V7.215A3.1,3.1,0,0,0,58.777,4.123ZM54.654,13.4a9.277,9.277,0,1,1-9.277-9.277A9.277,9.277,0,0,1,54.654,13.4ZM30.947,2.062a3.087,3.087,0,0,1,2.9,2.062h-5.8A3.087,3.087,0,0,1,30.947,2.062ZM19.468,59.27a1.029,1.029,0,1,1-1.781-1.033l6.248-10.823h2.372Zm12.51-.517a1.031,1.031,0,0,1-2.061,0V47.414h2.062V58.752ZM44.2,58.234a1.029,1.029,0,1,1-1.78,1.034L35.587,47.414h2.372Zm15.6-13.912a1.031,1.031,0,0,1-1.031,1.031H3.117a1.031,1.031,0,0,1-1.031-1.031V7.215A1.031,1.031,0,0,1,3.117,6.184H36.638a11.308,11.308,0,0,0,1.727,16.107l-5.085,7.83a3.954,3.954,0,0,0-3.807.64l-2.989-2.33a4.123,4.123,0,1,0-7.565,0l-2.989,2.33a4.083,4.083,0,0,0-2.5-.871,4.133,4.133,0,1,0,3.783,2.49l2.989-2.33a4.037,4.037,0,0,0,5.01,0l2.989,2.33a4.126,4.126,0,1,0,6.815-1.138l5.08-7.822A11.33,11.33,0,0,0,54.117,6.185h4.66a1.031,1.031,0,0,1,1.031,1.031V44.322ZM31.978,31.953a2.062,2.062,0,1,1-2.062,2.062A2.061,2.061,0,0,1,31.978,31.953ZM20.64,26.8A2.062,2.062,0,1,1,22.7,28.861,2.061,2.061,0,0,1,20.64,26.8Zm-5.154,7.215a2.062,2.062,0,1,1-2.062-2.062A2.061,2.061,0,0,1,15.486,34.014Z" transform="translate(-0.025)"/>
        <path id="Trazado_1046819" data-name="Trazado 1046819" d="M93.2,107.722H44.753V77.831a1.031,1.031,0,1,0-2.061,0v30.922a1.03,1.03,0,0,0,1.031,1.031H93.2a1.031,1.031,0,1,0,0-2.061Z" transform="translate(-37.538 -67.523)"/>
        <path id="Trazado_1046820" data-name="Trazado 1046820" d="M343.42,60.889a1.031,1.031,0,1,0-2.061,0,3.66,3.66,0,0,0,3.092,3.379V64.6a1.031,1.031,0,0,0,2.061,0v-.331a3.393,3.393,0,0,0,0-6.76v-2.8a1.464,1.464,0,0,1,1.031,1.236,1.031,1.031,0,1,0,2.061,0,3.66,3.66,0,0,0-3.092-3.379v-.331a1.031,1.031,0,1,0-2.061,0v.331a3.393,3.393,0,0,0,0,6.76v2.8A1.464,1.464,0,0,1,343.42,60.889Zm4.123,0a1.464,1.464,0,0,1-1.031,1.236V59.653A1.465,1.465,0,0,1,347.543,60.889Zm-4.123-4.948a1.464,1.464,0,0,1,1.031-1.236v2.472A1.465,1.465,0,0,1,343.42,55.941Z" transform="translate(-300.128 -45.016)"/>
      </g>
    </g>
  </g>
</svg>
