<svg xmlns="http://www.w3.org/2000/svg" xmlns:xlink="http://www.w3.org/1999/xlink" width="518" height="293.778" viewBox="0 0 518 293.778">
  <defs>
    <clipPath id="clip-path">
      <rect id="Rectángulo_416385" data-name="Rectángulo 416385" width="518" height="282" transform="translate(915 4916)" fill="#fff" stroke="#707070" stroke-width="1" opacity="0.86"/>
    </clipPath>
  </defs>
  <g id="Grupo_1201258" data-name="Grupo 1201258" transform="translate(-915 -4916)">
    <g id="Enmascarar_grupo_1183031" data-name="Enmascarar grupo 1183031" clip-path="url(#clip-path)">
      <g id="OBJECTS" transform="translate(966.461 4921.849)">
        <path id="Trazado_1047190" data-name="Trazado 1047190" d="M491.772,448.362c-8.467,30.589-23.452,58.916-38.333,86.963-5.726,10.8-11.557,21.715-17.889,32.257H119.475a185.3,185.3,0,0,1-12.058-21.7,136.937,136.937,0,0,1-12.56-72.7c2.857-26.379,13.365-51.313,18.321-77.377,7.417-38.951,2.262-79.022.886-118.649s1.679-81.436,23.149-114.765c19.359-30.065,51.814-49.785,85.855-60.747,27.662-8.921,58.531-12.5,85.389-1.353,29.295,12.163,49.237,39.8,63.383,68.2s24.234,58.986,41.96,85.3c23.674,35.126,60.374,61.739,76.164,101.051C501.8,384.291,500.251,417.773,491.772,448.362Z" transform="translate(-75.463 -83.958)" fill="#fdf6ea"/>
        <g id="Grupo_1201240" data-name="Grupo 1201240" transform="translate(0 0)">
          <g id="Grupo_1201232" data-name="Grupo 1201232" transform="translate(119.384)">
            <path id="Trazado_1047191" data-name="Trazado 1047191" d="M181.48,169.967a13.443,13.443,0,0,0,2.2,3.419c.954,1.256,2.854-.222,2.166-1.628-1.837-3.753-1.439-9.318.45-12.968,1.908-3.686,5.225-6.167,8.52-8.281,2.617-1.679,5.316-3.23,7.846-5.057-.717,1-1.452,1.99-2.215,2.961-1.973,2.514-4.366,4.869-5.983,7.67a20.908,20.908,0,0,0-3.009,8.607c-.268,3.256.619,6.437,1.31,9.573.669,3.043.765,5.574-.924,8.265-1.58,2.517-2.981,5.129-4.63,7.6-2.215,3.318-4.286,6.477-4.325,10.717-.028,3.031,1.1,5.91,1.531,8.855a70.513,70.513,0,0,1,15.3-1.453c.838.022,1.675.062,2.512.1q.119-1.987.407-3.97a44.489,44.489,0,0,1,1.822-7.4.668.668,0,0,1,1.3.231c0,2.439.131,4.878.244,7.313.063,1.357.183,2.716.332,4.071,1.557.1,3.115.2,4.673.269.1-1.294.243-2.584.465-3.864.047-.267.5-.381.532-.05a22.929,22.929,0,0,0,.8,3.979c2.849.1,5.7.152,8.551.113q2.466-.033,4.932-.149,1.3-.063,2.606-.153c.435-.03.871-.062,1.306-.1.2-.016.4-.031.594-.049a2.274,2.274,0,0,1,.267,0,21.385,21.385,0,0,0,2.357-.259q1.188-.126,2.372-.28,2.475-.322,4.932-.783a95.522,95.522,0,0,0,9.738-2.353c1.2-.359,2.429-.6,3.644-.911q.005-.374,0-.756-.026-2.661-.087-5.32c-.613-27.107-3.6-54.134-2.079-81.282.19-3.4-.954-6.68-4.706-6.269-3.439.377-6.86.978-10.3,1.381a110.986,110.986,0,0,1-21.325.687,2.217,2.217,0,0,0-2.374,2.24,1.9,1.9,0,0,0-.68.353c-1.724,1.448-1.825,4.982-2.208,7.122a52.725,52.725,0,0,1-1.829,7.467,22.9,22.9,0,0,1-7.742,11.106c-6.83,5.318-15.669,8.3-19.137,17.355a17.937,17.937,0,0,0-1.057,8.188A13.906,13.906,0,0,0,181.48,169.967Z" transform="translate(-180.491 -81.129)" fill="#754a34"/>
            <path id="Trazado_1047192" data-name="Trazado 1047192" d="M332.472,178.621a19,19,0,0,0-5.1-9.193c-2.834-2.721-6.268-4.025-9.907-5.146s-6.767-2.517-9.046-5.838a38.229,38.229,0,0,1-4.7-10.814c-2.369-8.32-2.992-17-4.8-25.448-.25-1.179-.533-2.392-.838-3.6-1.508-5.815-3.82-11.789-7.889-15.961-.079-.147-.17-.3-.261-.442a1.414,1.414,0,0,0-.725-.578c.125-1.564-1.405-3.321-3.208-2.414l-6.076,3.06-.7.351-1.349.68-2.289,1.157c-.159.079-.317.159-.476.226-.862.43-1.746.839-2.641,1.258-.42.192-.839.4-1.258.6a28.069,28.069,0,0,0-4.467,2.562q-.306.2-.612.442c-2.9,2.267-3.4,5.759-3.775,9.284-.351,3.23-.521,6.484-.624,9.726-.023.828-.045,1.655-.057,2.483q-.033,1.921-.068,3.843c-.034,2.7-.068,5.4-.136,8.082-.012,0,0,.012,0,.012-.068,2.7-.17,5.373-.351,8.06v.012c-.079,1.338-.192,2.652-.317,3.99-.2,2.085-.442,4.16-.737,6.223-.668,4.738-1.564,9.454-2.664,14.1-.046.17-.091.341-.136.521-.17.7-.341,1.395-.521,2.1a.32.32,0,0,1-.023.1c-.079.306-.159.612-.25.918-.25,1.02-.533,2.029-.828,3.038-1.2,4.3-2.608,8.535-4.183,12.707q-1.48,3.962-3.174,7.822a2.391,2.391,0,0,0,1.225,3.434c4.716,1.576,9.5,3.276,14.328,4.636.771-.182,1.553-.374,2.324-.521a.041.041,0,0,1,.034-.012c.022,0,.034-.012.057-.012.34-.068.68-.147,1.02-.216.261-.068.521-.125.783-.182,0,0,.012.012.012,0,.918-.2,1.825-.42,2.732-.612.793-.182,1.576-.351,2.369-.51.341-.068.68-.136,1.02-.192a1.885,1.885,0,0,0,.068-.272c.385-1.972.7-3.967,1.031-5.951a16.065,16.065,0,0,1,.963,5.759.833.833,0,0,0,.022.147c.521-.057,1.043-.113,1.564-.159.068-.012.283-.022.454-.034a.021.021,0,0,1,.034,0,.477.477,0,0,0,.057-.012h.034a.507.507,0,0,1,.091-.012c.182-.012.363-.034.545-.056.3-.023.578-.057.862-.079q3.674-.39,7.311-.929c1.031-.159,2.063-.341,3.1-.521.147-4.149.329-8.3.476-12.457.136,3.82.113,7.663.079,11.528a1.816,1.816,0,0,0,.182.8c3.639-.658,7.255-1.429,10.905-2.051a53.4,53.4,0,0,1,14.827-.85,2.027,2.027,0,0,0,.068-.3,31.688,31.688,0,0,0,.25-4.523,16.6,16.6,0,0,0,3.979-15.586,14.21,14.21,0,0,0-5.146-7.651c-2.426-1.916-5.1-3.446-7.515-5.4-2.743-2.222-4.138-5.033-5.079-8.468-.454-1.666-.907-3.333-1.36-4.988a21.947,21.947,0,0,0,6.314,9.08c2.981,2.437,6.7,3.2,10.225,4.376a15.35,15.35,0,0,1,7.8,5.634c4.467,6.177,3.458,15.473-1.859,20.8-.511.51.1,1.553.737,1.1A17.987,17.987,0,0,0,332.472,178.621Zm-17.276.907a14.569,14.569,0,0,1,1.7,13.5,28.37,28.37,0,0,0-.918-5.418c-1.326-4.693-3.843-8.763-6.381-12.8-.283-.464-.578-.929-.862-1.394A29.484,29.484,0,0,1,315.2,179.529Zm-16.527-36.953c.091.658.192,1.326.307,1.984-.113-.555-.227-1.122-.329-1.678-1.088-5.69-1.7-11.46-2.313-17.219-.045-.442-.091-.884-.136-1.315C297.309,130.378,297.763,136.511,298.669,142.575Z" transform="translate(-169.271 -83.026)" fill="#754a34"/>
            <path id="Trazado_1047193" data-name="Trazado 1047193" d="M305.838,120.846c-.034-.226-.079-.454-.125-.68-2.46-12.764-9.544-24.518-21.628-30.107-11.959-5.543-25.925-5.406-38.745-3.8-7.118.9-13.987,2.857-20.053,6.756-5.418,3.468-10.168,7.685-13.081,13.523A46.333,46.333,0,0,0,208.59,117.2c-.907,4.013-1.813,8.014-2.55,12.061-.2,1.111-.408,2.233-.612,3.343a.067.067,0,0,1-.012.045v.023c-1.043,5.735-2.051,11.494-2.743,17.275v.012c-.182,1.44-.341,2.891-.465,4.342a5.245,5.245,0,0,0-.884,2.97c-.012,0,0,.012,0,.012a3.315,3.315,0,0,0,.068.658,3.807,3.807,0,0,0,3.106,2.913,10.47,10.47,0,0,0,1.712.3c1.1.1,2.21.1,3.129.147.771.045,1.553.079,2.323.113q1.055.068,2.108.1c.408.034.816.057,1.235.068q3.793.2,7.584.363,4.982.255,9.986.454c1.587.068,3.174.125,4.76.182,3.367.136,6.744.25,10.123.363.442.023.884.034,1.326.045q1.7.068,3.4.1c1.111.045,2.233.079,3.344.113,4.092.125,8.2.192,12.287.306,2.505.057,5,.136,7.493.261l2.539.136a97.058,97.058,0,0,1,9.772,1.02c1.881.283,3.752.658,5.588,1.1.578.136,1.134.283,1.7.442a50.43,50.43,0,0,1,5.634,1.882c.25.091.487.182.725.283a1.862,1.862,0,0,0,1.326.057,2.683,2.683,0,0,0,1.746-2.222c.022-.283.057-.555.079-.838.68-6.813,1.462-13.636,1.984-20.471a2.7,2.7,0,0,0,.023-.306c.046-.6.091-1.213.136-1.813A89.543,89.543,0,0,0,305.838,120.846Z" transform="translate(-177.029 -85.293)" fill="#754a34"/>
          </g>
          <path id="Trazado_1047194" data-name="Trazado 1047194" d="M291.579,206c-1.111.079-2.3.17-3.525.2q-1.224.068-2.483.034c-.329,0-.668-.012-1-.023-4.523-.216-9.011-1.383-11.381-5.282a.011.011,0,0,1-.012-.012c-.034-.046-.057-.091-.091-.136-.079-.136-.159-.272-.238-.42a3.374,3.374,0,0,1-.216-.454.1.1,0,0,1-.034-.079,3.411,3.411,0,0,1-.159-.363,3.7,3.7,0,0,1-.17-.454c-.057-.159-.1-.306-.147-.464a5.509,5.509,0,0,1-.216-.737v-.034c-.068-.3-.136-.589-.192-.884a25.177,25.177,0,0,1-.374-2.868c-.226-2.527-.351-5.079-.43-7.618-.057-1.825-.079-3.639-.068-5.464v-.012c0-.714.012-1.429.023-2.142.012-.8.022-1.609.056-2.4,0-.216.012-.442.022-.658.057-1.734.137-3.468.261-5.2a2.263,2.263,0,0,0-2.822-2.176c-.34.136-.692.272-1.043.4-.238.091-.476.182-.714.261-.476.17-.941.329-1.405.476-.7.226-1.417.43-2.131.624-.521.136-1.043.261-1.576.386-.862.2-1.723.374-2.6.521-.43.079-.872.147-1.3.2s-.873.125-1.315.17c-.363.045-.714.079-1.076.113-.624.057-1.258.1-1.882.136l-.987.034c-.43.012-.873.023-1.315.023q-1.5,0-2.992-.1c-.317-.023-.624-.034-.941-.068a.87.87,0,0,1-.182-.023c-.374-.034-.748-.068-1.122-.113s-.737-.079-1.1-.136c-.872-.113-1.734-.26-2.608-.442-.487-.091-.987-.192-1.474-.317s-.987-.226-1.474-.363a2.038,2.038,0,0,0-2.448,1.088,1.716,1.716,0,0,0-.737.226c-.136.1-.272.216-.408.317a1.821,1.821,0,0,0-.487.862,5.985,5.985,0,0,0-.386,1.881,6.41,6.41,0,0,0,.182,1.916,2.066,2.066,0,0,0,.555.907c.012.057.012.113.023.17.068.4.136.793.182,1.191.1.714.159,1.44.192,2.166v.057q.035.68.034,1.36c0,.51-.012,1.02-.046,1.53-.022.408-.045.816-.091,1.225a.1.1,0,0,1-.012.079c-.022.272-.057.555-.091.828a.021.021,0,0,1,0,.034c-.034.306-.068.6-.125.9q-.119.749-.272,1.5a24.418,24.418,0,0,1-.646,2.562c-.034.125-.079.261-.113.386-.3.975-.646,1.927-1.032,2.868a31.163,31.163,0,0,1-2.051,4.126v.012a25.313,25.313,0,0,1-3.672,4.818,24.737,24.737,0,0,1-3.956,3.344,27.3,27.3,0,0,1-9.714,4.138.041.041,0,0,0-.034.012,1.84,1.84,0,0,0-1.27,2.233c.068.17.136.339.2.51.872,2.188,1.871,4.308,2.913,6.4.873,1.746,1.768,3.48,2.641,5.226q1.48,2.958,2.812,5.973,1.48,3.264,2.766,6.6c.692,1.78,1.349,3.593,2.063,5.373a5.644,5.644,0,0,0,4.16,3.593,21.607,21.607,0,0,0,3.343.464c.6.045,1.191.079,1.78.136l.454.034,6.767.612c9.011.828,18.035,1.542,27.058,2.289.25.023.487.045.737.057,1.825.159,3.65.317,5.464.442a14.365,14.365,0,0,0,1.847.012,8.015,8.015,0,0,0,1.643-.26,5.191,5.191,0,0,0,2.12-1.145,8.754,8.754,0,0,0,2.211-4.455q.9-3.248,1.7-6.506c.862-3.492,1.621-7.005,2.38-10.519.3-1.417.6-2.834.907-4.251.057-.25.113-.51.182-.759.125-.567.261-1.145.4-1.712.363-1.542.737-3.072,1.133-4.6.329-1.27.646-2.539,1-3.8a7.917,7.917,0,0,1,.487-1.292,23.366,23.366,0,0,1,1.405-2.313A2,2,0,0,0,291.579,206Z" transform="translate(-55.764 -71.508)" fill="#e5b296"/>
          <path id="Trazado_1047195" data-name="Trazado 1047195" d="M270.217,200.919a74.266,74.266,0,0,1-14.793.43c-8.74-.555-17.786-2.245-24.96-7.176a30.135,30.135,0,0,0,2.018-16.674c-.012-.057-.012-.113-.023-.17a2.066,2.066,0,0,1-.555-.907,6.484,6.484,0,0,1-.182-1.916,5.985,5.985,0,0,1,.386-1.881,1.821,1.821,0,0,1,.487-.862c.136-.1.272-.216.408-.317a1.68,1.68,0,0,1,.737-.226,2.037,2.037,0,0,1,2.449-1.088,46.471,46.471,0,0,0,29.234-1.78,2.263,2.263,0,0,1,2.822,2.176q-.527,7.94-.3,15.881c.079,2.539.2,5.089.43,7.618a16.7,16.7,0,0,0,1.508,6.337A5.46,5.46,0,0,0,270.217,200.919Z" transform="translate(-52.801 -71.508)" fill="#a96c60"/>
          <path id="Trazado_1047196" data-name="Trazado 1047196" d="M330.2,232.307a5.411,5.411,0,0,0-.488-.658,14.512,14.512,0,0,0-4.273-3.038c-.442-.25-.884-.487-1.338-.737-1.36-.737-2.743-1.462-4.138-2.142-3.729-1.837-7.56-3.48-11.426-4.988q-2.687-1.055-5.406-2-4.251-1.48-8.569-2.7c-.341-.1-.68-.192-1.031-.3q-2.687-.749-5.406-1.395c-1.076-.261-2.166-.51-3.254-.749-1.53-.341-3.06-.646-4.6-.941-.341-.068-.692-.136-1.043-.192-.454-.079-.918-.17-1.371-.25a157.9,157.9,0,0,0-41.283-1.678c-.329.022-.658.057-.987.091-.136.012-.283.023-.42.045-1.02.1-2.029.2-3.05.329q-5.85.7-11.619,1.825c-1.553.306-3.106.634-4.647,1-1.564.351-3.117.737-4.671,1.145-2.426.646-4.942,1.315-7.436,2.1a41.657,41.657,0,0,0-12.99,6.212c-.182.125-.374.272-.555.42-.283.226-.555.464-.828.714a15.508,15.508,0,0,0-3.967,5.644,1.56,1.56,0,0,0-.465,1.349c-.057.216-.125.42-.182.624a2.107,2.107,0,0,0,.953,2.335c1.179,4.273,2.335,8.559,3.434,12.854q1.242,4.762,2.426,9.544a.039.039,0,0,0,.012.034c1,4.035,1.972,8.105,2.9,12.163a.086.086,0,0,0,.012.057q1.6,6.938,3.083,13.908c.306,1.371.6,2.755.884,4.126q2.619,12.479,4.919,25.051c1.893,10.372,3.571,20.789,4.9,31.252.283,2.2.545,4.387.793,6.586.828,7.232,1.5,14.475,1.938,21.73.136,2.369.2,4.727.216,7.1.012,2-.42,4.625.487,6.484a3.613,3.613,0,0,0,1.78,1.757,8.508,8.508,0,0,0,2.731.6c.363.034.737.057,1.1.091q3.605.339,7.2.578,7.312.511,14.633.612a291.011,291.011,0,0,0,40.366-2.166q.714-.068,1.429-.17c.386-.045.759-.091,1.145-.147.034,0,.079-.012.113-.012q3.588-.476,7.152-1.031c1.95-.306,3.967-.6,5.577-1.837l.136-.1a7.049,7.049,0,0,0,2.176-3.446c.192-.521.341-1.043.5-1.576.034-.125.068-.238.1-.363.669-2.3,1.3-4.613,1.927-6.926,2.176-7.98,4.273-15.983,6.348-24l1.054-4.081q6.7-26.049,12.661-52.268c.283-1.213.567-2.426.839-3.638q3.2-14.01,6.155-28.089.936-4.387,1.837-8.8a.139.139,0,0,0,.012-.068c.2-.975.4-1.962.6-2.936.091-.454.181-.9.272-1.338.068-.306.125-.624.192-.929.317-1.609.668-3.208.975-4.818.125-.634.226-1.28.329-1.916A8.46,8.46,0,0,0,330.2,232.307Z" transform="translate(-60.409 -64.583)" fill="#e5b296"/>
          <path id="Trazado_1047197" data-name="Trazado 1047197" d="M296.532,264.655c-.064-1.963-.195-3.924-.368-5.88-1.418-16.012-6.5-31.392-11.366-46.618-1.41-4.414-2.785-8.841-4.232-13.243-.033-.1-.069-.2-.1-.3A43.671,43.671,0,0,1,276.1,196.8a54.518,54.518,0,0,1-5.775-3.227c-.063-.015-.126-.034-.189-.049.351,18.564.36,37.2-3.289,55.445-.21.071-.418.139-.618.2q-2.311.668-4.647,1.245-4.671,1.155-9.423,1.942a146.5,146.5,0,0,1-19.124,1.718,2.041,2.041,0,0,0-2,2.39,1.935,1.935,0,0,0,.55,2.729c.288.192.583.376.872.566a13.725,13.725,0,0,0,3.7,3.831,68.933,68.933,0,0,0,7.359,4.631,93.921,93.921,0,0,0,16.366,7.192,1.737,1.737,0,0,0,1.225.479,131.353,131.353,0,0,0,24.129-2.413c1.942-.373,3.879-.783,5.8-1.25,1.906-.463,3.721-1.057,4.722-2.889A8.942,8.942,0,0,0,296.532,264.655Z" transform="translate(-52.762 -67.304)" fill="#a96c60"/>
          <path id="Trazado_1047198" data-name="Trazado 1047198" d="M357.743,534.063H281.217q-4.013-20.217-8.864-40.138-2.176-8.825-4.546-17.558c-1.031-3.809-2.176-7.584-3.208-11.415l-4.489,2.755a214.686,214.686,0,0,0-.987,21.549c-.057,10.565.386,21.117.862,31.672q.289,6.563.533,13.137H183.392c-2.721-15.608-5.192-31.274-7.039-47.008A382.05,382.05,0,0,1,173.36,443.1c0-3.979.079-7.957.272-11.936.192-3.809.5-7.618.975-11.393a125,125,0,0,1,2.675-14.566,143.007,143.007,0,0,1,7.356-21.515c.3-.692.589-1.371.9-2.063.454-1.043.929-2.075,1.405-3.106,1.474-3.2,3.038-6.337,4.671-9.454.374-.737.759-1.462,1.157-2.2,4.376-8.195,9.181-16.175,14-24.122q2.108-3.469,4.183-6.938c.2-.34.42-.692.624-1.043,6.416-10.735,12.616-21.571,18.171-32.827a1.629,1.629,0,0,1,1.677-.884,2.181,2.181,0,0,1,1.167.454q6.037-1.106,12.095-2.051c.862-.125,1.712-.25,2.562-.374,3.5-.533,7.017-1.009,10.531-1.451q6.478-.833,12.979-1.485,3.315-.339,6.643-.612l1.156-.1c.714-.068,1.439-.125,2.166-.17.057,0,.1-.012.159-.012a7.99,7.99,0,0,1,1.508.091,1.5,1.5,0,0,1,2.063.272c1.36,1.485,2.709,2.992,4,4.546,2.142,2.551,4.16,5.214,6.053,7.957a147.66,147.66,0,0,1,13.5,24.87l.136.306c1.27,2.9,2.46,5.838,3.593,8.773a276.792,276.792,0,0,1,8.569,26.684c.216.771.42,1.553.634,2.323,1.564,5.86,3.038,11.755,4.5,17.661q3.145,12.651,6.3,25.3,2.755,11,5.452,22.013c.578,2.335,1.156,4.681,1.723,7.017,4.522,18.579,9.114,37.146,12.923,55.884,1.9,9.352,3.616,18.737,5.022,28.18C357.164,529.178,357.584,531.6,357.743,534.063Z" transform="translate(-62.292 -50.432)" fill="#413432"/>
          <path id="Trazado_1047199" data-name="Trazado 1047199" d="M195.679,519.53h-3.99q-.562-2.636-1.088-5.271a534.633,534.633,0,0,1-8.967-66.958c-.4-5.475-.8-10.984-1.076-16.482-.283-5.611-.442-11.234-.341-16.845.034-2.018.1-4.081.226-6.144.487-8.444,1.916-17.082,6.064-24.393,1.1-1.927,4.523-.646,3.684,1.5a77,77,0,0,0-4.681,16.777c-.386,2.505-.624,5.022-.783,7.55-.192,3.174-.261,6.359-.3,9.533q-.086,6.513.034,13a403.922,403.922,0,0,0,4.6,53.458Q191.724,502.509,195.679,519.53Z" transform="translate(-61.157 -35.899)" fill="#7b5f5c"/>
          <path id="Trazado_1047200" data-name="Trazado 1047200" d="M283,510.472h-3.945q-5.083-19.043-10.145-38.11c-1.553-5.815-2.992-11.686-4.875-17.411a71.844,71.844,0,0,0-3.117-7.98c-.624-1.326-1.292-2.641-2.029-3.91a17.932,17.932,0,0,1-2-3.876c-.363-1.292,1.292-2.834,2.505-1.916,2.562,1.95,4,5.5,5.293,8.4a84.335,84.335,0,0,1,3.434,9.227c1.871,5.973,3.367,12.073,4.964,18.125q2.568,9.675,5.123,19.338Q280.612,501.421,283,510.472Z" transform="translate(-48.418 -26.842)" fill="#7b5f5c"/>
          <path id="Trazado_1047201" data-name="Trazado 1047201" d="M328.834,240.8c-.192.034-.385.079-.578.113q-10.473,2.194-21.072,3.706c-.51.079-1.031.147-1.553.216-1.054.159-2.131.3-3.2.43q-9.25,1.207-18.567,1.859c-.521.046-1.043.079-1.564.113-1.395.1-2.788.182-4.183.261a340.79,340.79,0,0,1-37.589-.012c-.646-.034-1.28-.079-1.916-.113-.147-.012-.3-.022-.442-.022q-10.422-.663-20.8-1.938c-.748-.091-1.5-.192-2.245-.283-1.791-.238-3.571-.487-5.362-.749q-4.268-.63-8.513-1.371c-2.981-.5-5.951-1.054-8.921-1.633-.759-.147-1.508-.3-2.255-.454-.363-.068-.714-.147-1.076-.216.5,1.9.987,3.82,1.462,5.735,0,.022.012.034.012.057q1.531,6.019,2.947,12.061a.036.036,0,0,1,.012.023q2.006,8.468,3.82,16.958v.012c.363,1.655.714,3.321,1.066,4.988,1.734,8.3,3.4,16.618,4.909,24.972.012.012,0,.012,0,.012,1.9,10.394,3.571,20.834,4.909,31.319.3,2.313.578,4.636.838,6.948.8,7.107,1.462,14.226,1.893,21.367.136,2.369.2,4.727.216,7.1.012,2-.42,4.625.487,6.484,1.088,2.245,3.446,2.255,5.611,2.449q3.605.339,7.2.578,7.125.493,14.272.612a293.828,293.828,0,0,0,39.924-2.063c.487-.057.975-.113,1.462-.181.363-.034.737-.079,1.1-.137.306-.034.624-.068.929-.113q3.588-.476,7.152-1.031a15.378,15.378,0,0,0,4.477-1.157,5.966,5.966,0,0,0,2.833-2.823,10.813,10.813,0,0,0,.658-1.621c.181-.567.351-1.145.521-1.724.669-2.3,1.3-4.613,1.927-6.926,2.029-7.414,3.979-14.849,5.906-22.285.5-1.927,1-3.866,1.5-5.793q6.462-25.113,12.231-50.4.645-2.755,1.27-5.509,3.2-14.01,6.155-28.089c.363-1.734.725-3.468,1.088-5.214a.041.041,0,0,0,.012-.034c.442-2.188.9-4.364,1.349-6.552Z" transform="translate(-59.692 -59.463)" fill="#413432"/>
          <path id="Trazado_1047202" data-name="Trazado 1047202" d="M328.025,441.026q-1.837-6.682-3.843-13.319a1.327,1.327,0,0,0-.057-.2c-5.521-18.307-11.189-36.591-17.548-54.626-1.576-4.443-3.242-8.853-4.784-13.307-1.5-4.3-2.664-8.672-2.4-13.262.261-4.636,1.633-9.193,2.731-13.693q1.734-7.107,3.514-14.215,1.989-7.907,3.991-15.8c.159-.612.306-1.225.464-1.837-.012-.012-.012-.012.012-.022q3.18-12.583,6.314-25.187a.042.042,0,0,0,.012-.034c.454-1.859.907-3.718,1.36-5.565a.222.222,0,0,0,.034-.125c.658-2.721,1.315-5.43,1.972-8.151,1.054-4.364,1.7-8.842.283-13.194a1.092,1.092,0,0,0-.057-.182c-.317-.918-.68-1.813-1.076-2.687v-.022c-.442-.975-.929-1.916-1.44-2.856-.408-.771-.839-1.542-1.28-2.3-.737-1.3-1.485-2.608-2.188-3.922q-1.6-3.009-3.151-6.076c-3.083-6.132-5.963-12.39-8.411-18.771q-2.194-5.713-4.069-11.573c.624-2.006-2.267-3.6-3.854-2.051-.884.442-1.78.873-2.7,1.292-.42.057-.8.091-1.054.136q-1.581.289-3.2.442c-.624.068-1.258.125-1.881.159-2.573.17-5.452.476-8.014-.136h-.012a8.791,8.791,0,0,1-2.006-.714c-.216-.1-.42-.216-.634-.306h-.012c-1.145-.567-2.3-1.088-3.379-1.734a.011.011,0,0,0-.012-.012c-.012,0-.012-.012-.022-.012a.085.085,0,0,1-.045-.023c-1.258-.759-2-2.12-3.492-2.539a3.042,3.042,0,0,0-1.462-.034,2.906,2.906,0,0,0-2.018,1.633c-.034.079-.057.147-.091.226-.012.045-.022.1-.034.147a2.261,2.261,0,0,0-.046,1.032,2.078,2.078,0,0,0,0,.589c.079.464.147.929.216,1.394a.042.042,0,0,1,.012.034v.034c.068.487.147.963.216,1.451.216,1.429.442,2.846.658,4.274.51,3.287,1.02,6.574,1.508,9.861,1.53,10.2,2.947,20.449,3.763,30.719.238,2.947.43,5.906.555,8.853.022.408.045.8.057,1.213a115.886,115.886,0,0,1-.317,14.441q-.187,2.159-.476,4.285c-.43,3.389-1,6.756-1.52,10.134-1.371,8.989-2.517,18.024-3.333,27.08-.068.612-.113,1.213-.17,1.825-1.678,19.292-2.063,38.687-.113,57.969.533,5.384,1.224,10.735,2.041,16.062.068.442.136.884.192,1.315.567,3.571,1.179,7.118,1.837,10.666,1.734,9.363,3.809,18.67,6.064,27.919q1.8,7.4,3.741,14.748c1.122,4.3,2.267,8.569,3.423,12.854q.936,3.434,1.871,6.869c.51,1.893.85,4.409,2.766,5.441,2.041,1.111,4.183.057,6.132-.714,2.131-.85,4.251-1.724,6.359-2.641A183.46,183.46,0,0,0,322.1,452.755c.668-.4,1.315-.8,1.972-1.213,1.746-1.1,3.525-2.289,4.273-4.308C329.113,445.186,328.58,443.055,328.025,441.026Z" transform="translate(-47.196 -67.145)" fill="#cc4645"/>
          <path id="Trazado_1047203" data-name="Trazado 1047203" d="M372.262,317.109c-.3-6.439-2.97-12.39-5.951-18-.555-1.043-1.111-2.075-1.666-3.117-4.376-8.151-8.83-16.232-12.923-24.508q-1.989-3.98-3.843-8.048c-1.031-2.279-2.029-4.556-3-6.858a210.3,210.3,0,0,1-10.315-30.584v-.034c-.045-.2-.1-.4-.147-.6-.476-1.962-.918-3.945-1.405-5.906-.022-.113-.057-.238-.091-.351a38.114,38.114,0,0,0-4.138-10.8c-3.23-5.305-8.762-8.4-14.532-10.259a59.727,59.727,0,0,0-9.533-2.176,22.274,22.274,0,0,0-9.635,1.066c-2.562.8-5,1.916-7.538,2.777-.521.192-1.043.363-1.576.51a35.379,35.379,0,0,1-6.631,1.314c-.8.079-1.6.136-2.392.136a9.009,9.009,0,0,1-.941.012h-.046A36.708,36.708,0,0,1,266.5,200.1a1.419,1.419,0,0,0-1.678.793,1.551,1.551,0,0,0-.192.737c0,.012-.012.022,0,.034s-.012.012,0,.022v.2a1.077,1.077,0,0,0,.216.543,2.141,2.141,0,0,0-.17.363c-.012.034-.022.057-.034.091v.068a1.508,1.508,0,0,0,0,.975V204a1.174,1.174,0,0,0,.226.442,1.768,1.768,0,0,0,.216.283c.136.147.272.3.4.442a132.646,132.646,0,0,1,9.363,11.551q2.244,3.145,4.318,6.4,3.231,5.084,5.951,10.463c.521,1.02,1.02,2.041,1.508,3.083v.012c0,.012.012.012.012.023.975,2.018,1.871,4.069,2.743,6.144.828,1.96,1.621,3.944,2.38,5.928.454,1.179.884,2.358,1.315,3.537.545,1.474,1.066,2.959,1.576,4.455,1.3,3.741,2.539,7.5,3.763,11.268q4.081,12.548,8.151,25.108c.057.159.1.306.147.464.952,2.925,1.9,5.86,2.856,8.785.091.283.192.578.283.862.136.408.261.827.4,1.235.091.272.182.555.272.828,3.412,10.531,6.756,22.07,15.291,29.7a26.366,26.366,0,0,0,14.589,6.9h.012c.465.057.929.091,1.395.113a17.787,17.787,0,0,0,6.008-.783c1.837-.182,3.65-.442,5.43-.737,5.815-.963,11.12-3.264,14.724-8.093A24.016,24.016,0,0,0,372.262,317.109Z" transform="translate(-47.134 -66.943)" fill="#cc4645"/>
          <path id="Trazado_1047204" data-name="Trazado 1047204" d="M246.826,315.593q-.136-3.638-.3-7.277c-.476-11.12-.884-22.251-1.643-33.36q-.561-8.094-1.179-16.2c-.113-1.429-.226-2.846-.351-4.273a4.645,4.645,0,0,0-.045-.567v-.012c-.306-3.945-.646-7.9-1.009-11.845-.884-9.816-1.9-19.61-3.117-29.381-.17-1.417-.351-2.822-.533-4.239-.363-2.777-.725-5.565-1.066-8.355a2.384,2.384,0,0,0-1.213-1.893,2.195,2.195,0,0,0-2.041,0c-3.355,1.542-6.688,3.1-10.043,4.636a.011.011,0,0,0-.012.012c-.079.034-.147.068-.226.1q-7.482,3.451-14.94,6.926a2.242,2.242,0,0,0-1.134,1.96q-.1,3.621-.216,7.243c-.351,10.361-.9,20.721-1.768,31.048-.907,10.893-2.2,21.753-4,32.532v.012c-.125.759-.25,1.518-.4,2.267-.125.783-.261,1.576-.408,2.358-.386,2.1-.771,4.194-1.167,6.292v.057c-.442,2.255-.884,4.5-1.326,6.756a.021.021,0,0,0,0,.034c-.1.487-.192.952-.3,1.439a2.037,2.037,0,0,0-.125.476c-.012.113-.023.226-.034.351-.012.079-.034.17-.045.25,0,0-.012,0,0,.012-.341,1.655-.658,3.3-.987,4.964v.012c-.045.182-.079.351-.113.533a2.172,2.172,0,0,0,.669,2.108c-.012.476-.012.941-.012,1.417V312c0,5.894.42,11.789.42,17.683,0,1.054-.012,2.1-.057,3.151,0,.261-.012.533-.023.794a61.419,61.419,0,0,1-2.414,15.156,84.763,84.763,0,0,1-5.906,14.09q-6.852,13.3-12.481,27.183a263.43,263.43,0,0,0-10.009,28.769q-1.581,5.764-2.868,11.585c-1.633,7.265-2.925,14.611-3.922,22a2.228,2.228,0,0,0,1.53,2.63q6.7,2.262,13.478,4.194c2.766.793,5.543,1.553,8.331,2.255,1.3.341,2.6.669,3.91.975,1.813.442,3.639.862,5.464,1.27q7.77,1.718,15.632,3.026c2.664.454,5.339.85,8.014,1.225,2.335.317,5.373,1.235,7.594.1,2.085-1.076,2.641-3.343,3.185-5.441.68-2.652,1.326-5.317,1.972-7.98.533-2.222,1.076-4.433,1.621-6.654q1.139-4.676,2.267-9.352c2.528-10.576,4.9-21.2,6.938-31.886q1.513-7.924,2.743-15.881c.068-.464.147-.941.216-1.405.125-.783.238-1.564.363-2.346.624-4.16,1.2-8.309,1.757-12.481a246.406,246.406,0,0,0,1.95-32.952C247.438,333,247.178,324.3,246.826,315.593Z" transform="translate(-64.435 -66.571)" fill="#cc4645"/>
          <path id="Trazado_1047205" data-name="Trazado 1047205" d="M237.868,213.687a29.109,29.109,0,0,1-1.812-4.421c-.962-2.871-1.794-5.753-2.528-8.677a40.492,40.492,0,0,1-6.661,1.841,26.992,26.992,0,0,1-8.411.25c-3.233-.42-6.334-1.539-9.5-2.266-1.432-.328-2.9-.423-4.346-.641a44.569,44.569,0,0,0-5.23-.658,21.14,21.14,0,0,0-8.563,1.425c-5.6,2.265-9.241,7.33-11.327,12.82-2.436,6.411-3.611,13.424-4.924,20.133-1.354,6.921-2.555,13.872-3.829,20.808-2.506,13.653-5,27.326-9.267,40.564-2.138,6.633-5.036,12.977-7.027,19.659-1.738,5.83-2.68,11.654-.595,17.551a18.356,18.356,0,0,0,4.374,7.163,21.121,21.121,0,0,0,8.387,4.679,33.085,33.085,0,0,0,17.14.9,22.226,22.226,0,0,0,7.866-3.608,33.48,33.48,0,0,0,6.166-6.362c3.886-4.816,6.555-10.628,9.008-16.272a115.445,115.445,0,0,0,6.619-19.614c1.432-6.105,2.425-12.3,3.314-18.506.914-6.372,1.718-12.762,2.77-19.113a140.364,140.364,0,0,1,4.007-18.6,73.182,73.182,0,0,1,7.868-17.047,87.865,87.865,0,0,0,6.606-11.817C237.937,213.809,237.9,213.748,237.868,213.687Z" transform="translate(-65.733 -66.378)" fill="#cc4645"/>
          <path id="Trazado_1047206" data-name="Trazado 1047206" d="M294.923,156.529c-3.556,7.939-10.934,12.362-16.48,9.878s-7.157-10.933-3.6-18.873,10.934-12.362,16.48-9.878S298.479,148.591,294.923,156.529Z" transform="translate(-45.739 -76.705)" fill="#e5b296"/>
          <path id="Trazado_1047207" data-name="Trazado 1047207" d="M214.927,167.8c1.892,8.777,6.336,17.2,13.566,22.137,6.247,4.265,14.042,5.635,21.492,6.064,10.2.588,21.416-.683,29.359-7.284,9.577-7.959,12.172-21.551,13.987-34.849,1.427-10.454,2.8-21.932-.111-32.816C287.65,100.2,266.06,86.777,245.9,91.969,212.528,100.565,209.309,141.73,214.927,167.8Z" transform="translate(-55.753 -84.369)" fill="#e5b296"/>
          <path id="Trazado_1047208" data-name="Trazado 1047208" d="M295.4,129.434c-.4-.741-.816-1.48-1.219-2.219-.064-.643-.1-1.277-.169-1.908A2.143,2.143,0,0,0,292,123.334c-2.829-4.919-5.831-9.732-9.1-14.364a2.1,2.1,0,0,0-.232-.334q-1.044-1.483-2.119-2.929c-.282-.386-.575-.76-.867-1.134-.841-1.09-1.7-2.168-2.6-3.209a52.514,52.514,0,0,0-15.033-12.486,1.669,1.669,0,0,0-2.247.47,16.922,16.922,0,0,0-2.124.038c-.442.026-.882.072-1.322.1a2,2,0,0,0-1.249.023,2.8,2.8,0,0,0-.262.124c-.485.051-.969.1-1.453.177-1.371.192-2.75.443-4.1.749-.771.166-1.53.343-2.286.553s-1.513.409-2.267.643a2.21,2.21,0,0,0-1.328,2.783,2.149,2.149,0,0,0,1.8,1.42,2.635,2.635,0,0,0,.982-.092c.145-.045.3-.082.444-.127h.012c1.011-.288,2.024-.554,3.052-.776,1.107-.239,2.226-.445,3.35-.606.6-.083,1.193-.155,1.79-.227a91.507,91.507,0,0,0,9.668,15.136,89.514,89.514,0,0,0,18.3,17.6c.992.725,2.016,1.415,3.039,2.092.236,8.636.8,17.256,1.342,25.879q.236,3.682.472,7.376.226,3.548.45,7.106v.012q.474,7.4.961,14.8c.161,2.5,4.142,2.774,4.442.213q1.223-10.184,1.646-20.415c.051-1.027.092-2.055.11-3.08v-.012c.087-2.248.129-4.492.136-6.744.049-7.113-.187-14.236-.727-21.323a1.721,1.721,0,0,0,.79-.907A2.5,2.5,0,0,0,295.4,129.434Z" transform="translate(-50.669 -84.738)" fill="#754a34"/>
          <path id="Trazado_1047209" data-name="Trazado 1047209" d="M259.821,91.31a2.443,2.443,0,0,0-.216-.567,2.346,2.346,0,0,0-1.984-1.179,56.38,56.38,0,0,0-18.034,2.992h-.012c-1.451.487-2.879,1.043-4.285,1.655-.012,0-.022.012-.034.023a52.643,52.643,0,0,0-5.214,2.562,55.26,55.26,0,0,0-11.54,8.615c-3.038,2.959-5.6,6.415-6.427,10.576a14.86,14.86,0,0,0-.226,1.633c0,.079.012.147.012.216a48.649,48.649,0,0,0-.634,5.555c-.091,1.02-.182,2.041-.25,3.061-.068.884-.136,1.768-.182,2.652-.057.6-.091,1.213-.125,1.825-.091,1.667-.17,3.333-.226,5-.045.987-.079,1.984-.113,2.97a2.176,2.176,0,0,0-1.405,2.041v.034a2.438,2.438,0,0,0,1.314,2.04c-.022.816-.045,1.643-.057,2.459q-.086,7.618.216,15.224.255,7.226.828,14.453c.136,1.722,2.766,1.768,2.709,0-.079-2.493-.136-4.965-.17-7.459v-.012c-.034-2.267-.034-4.534-.022-6.813q.033-7.7.374-15.394c.045-.884.1-1.768.147-2.653A51.918,51.918,0,0,0,238.6,132.286a53.707,53.707,0,0,0,8.422-8.173,58.492,58.492,0,0,0,9.272-15.507,48.648,48.648,0,0,0,3.355-13.444c.113-1.111.192-2.222.226-3.343A1.942,1.942,0,0,0,259.821,91.31Z" transform="translate(-56.38 -84.583)" fill="#754a34"/>
          <g id="Grupo_1201234" data-name="Grupo 1201234" transform="translate(164.18 35.162)">
            <path id="Trazado_1047210" data-name="Trazado 1047210" d="M251.376,158.971c-1.68-.506-3.359-.538-5.065-.9-.427-.09-.853-.266-1.279-.331l-.08-.013c.3-.518.477-1.292.77-1.8,1.584-2.764,3.194-5.24,4.006-8.372,1.623-6.259.683-12.512-.122-18.8-.146-1.138-1.858-1.223-1.841,0,.089,7.067-.057,14.944-3.424,21.337-1.411,2.68-5.211,6.568-3.311,9.805.942,1.606,3.039,2.055,4.739,2.334a8.119,8.119,0,0,0,5.928-.813A1.347,1.347,0,0,0,251.376,158.971Z" transform="translate(-215.312 -113.379)" fill="#a96c60"/>
            <path id="Trazado_1047211" data-name="Trazado 1047211" d="M266.978,142.859c0,3.6-1.873,6.513-4.184,6.513s-4.184-2.917-4.184-6.513,1.873-6.513,4.184-6.513S266.978,139.263,266.978,142.859Z" transform="translate(-212.303 -111.97)" fill="#413432"/>
            <path id="Trazado_1047212" data-name="Trazado 1047212" d="M238.833,142.859c0,3.6-1.873,6.513-4.184,6.513s-4.184-2.917-4.184-6.513,1.873-6.513,4.184-6.513S238.833,139.263,238.833,142.859Z" transform="translate(-216.981 -111.97)" fill="#413432"/>
            <path id="Trazado_1047213" data-name="Trazado 1047213" d="M271.952,124.385c-3.866.192-7.833,3.038-11.676,1.553a5.534,5.534,0,0,1-.828-.385,1.575,1.575,0,0,0-1.5-.079,1.339,1.339,0,0,0-1.167,1.746,8.145,8.145,0,0,0,2.12,4.1,5.547,5.547,0,0,0,1.247.941,6.84,6.84,0,0,0,4.047.771c2.041-.216,3.9-1.009,5.894-1.394a12.041,12.041,0,0,1,6.53.5c.862.4,2.21.079,2.392-.9C279.7,127.378,276.191,124.17,271.952,124.385Z" transform="translate(-212.615 -113.959)" fill="#413432"/>
            <path id="Trazado_1047214" data-name="Trazado 1047214" d="M242.767,115.76a1.292,1.292,0,0,0-1.937.285c-1.25,1.773-4.4,1.022-6.156.83a16.854,16.854,0,0,0-6.962.605c-4.213,1.348-7.032,4.516-8.7,8.512-.452,1.086.541,2.386,1.725,1.725,1.1-.616,2.019-1.513,3.15-2.1a9.291,9.291,0,0,1,3.676-.926c2.507-.171,4.994.2,7.5.227,2.216.021,4.513-.388,6.114-2.043s2.075-3.818,2.281-6.047A1.08,1.08,0,0,0,242.767,115.76Z" transform="translate(-218.902 -115.444)" fill="#413432"/>
            <g id="Grupo_1201233" data-name="Grupo 1201233" transform="translate(20.808 52.49)">
              <path id="Trazado_1047215" data-name="Trazado 1047215" d="M260.08,166.081a16.877,16.877,0,0,0-4.89-4.223,13.82,13.82,0,0,0-6.611-1.394,16.088,16.088,0,0,0-6.243,1.586,23.236,23.236,0,0,0-5.239,4.011.673.673,0,0,0-.086.415,1.143,1.143,0,0,0,.68,1.1,16.451,16.451,0,0,0,5.244,1.346c1.833.279,3.663.584,5.513.738a28.873,28.873,0,0,0,5.36-.034c1.653-.169,3.963-.345,5.335-1.339a2.031,2.031,0,0,0,.185-.173A1.212,1.212,0,0,0,260.08,166.081Z" transform="translate(-236.701 -160.454)" fill="#a62e2e"/>
              <path id="Trazado_1047216" data-name="Trazado 1047216" d="M259.954,165.8a19.035,19.035,0,0,0-11.429-3.208,22.286,22.286,0,0,0-8.806,1.845c-.96.417-1.78,1.053-2.718,1.487-.524.241-.166,1.082.378.927a23.125,23.125,0,0,1,2.961-.406c.88-.127,1.755-.264,2.639-.364a51.249,51.249,0,0,1,5.361-.419,28.364,28.364,0,0,1,10.643,1.848A.984.984,0,0,0,259.954,165.8Z" transform="translate(-236.745 -160.099)" fill="#413432"/>
            </g>
          </g>
          <path id="Trazado_1047217" data-name="Trazado 1047217" d="M282.472,153.263c0,2.936-3.72,5.317-8.31,5.317s-8.31-2.38-8.31-5.317,3.72-5.316,8.31-5.316S282.472,150.326,282.472,153.263Z" transform="translate(-46.92 -74.88)" fill="#d6938b"/>
          <path id="Trazado_1047218" data-name="Trazado 1047218" d="M232.973,153.263c0,2.936-3.72,5.317-8.31,5.317s-8.31-2.38-8.31-5.317,3.721-5.316,8.31-5.316S232.973,150.326,232.973,153.263Z" transform="translate(-55.146 -74.88)" fill="#d6938b"/>
          <g id="Grupo_1201236" data-name="Grupo 1201236" transform="translate(0 106.746)">
            <g id="Grupo_1201235" data-name="Grupo 1201235">
              <path id="Trazado_1047219" data-name="Trazado 1047219" d="M200.49,296.907c-.941-6.869-4.205-13.058-7.56-19.078-.816-1.451-1.633-2.891-2.426-4.33q-3.061-5.559-5.939-11.211v-.012c-.543-1.076-1.088-2.154-1.633-3.242q-2.5-5.033-4.9-10.134c-1.213-2.6-2.4-5.192-3.548-7.81-.714-1.609-1.417-3.242-2.1-4.874-.464-1.078-.907-2.166-1.349-3.264-.147-.363-.283-.737-.442-1.1-1-2.527-2.006-5.067-3.1-7.56-1.962-4.421-4.512-8.91-8.2-11.9l-.012-.012a17.709,17.709,0,0,0-2.358-1.621c-.226-.555-.476-1.088-.737-1.609a21.3,21.3,0,0,0-1.451-2.471,22.524,22.524,0,0,0-4.035-4.58,24.4,24.4,0,0,0-9.692-5.055c-3.967-1.088-8.071-1.5-12.061-2.493a22.342,22.342,0,0,1-9.76-5.406c-1.258-1.122-2.449-2.346-3.627-3.548-1.349-1.383-2.709-2.777-4.16-4.058-2.732-2.392-6.427-5.067-10.259-4.671-3.5.363-6.371,4.285-4.149,7.515a8.058,8.058,0,0,0,.907,1.054.325.325,0,0,0-.022.113c-.012,0,0,.012,0,.012a20.294,20.294,0,0,0,.034,4.625q.17,5.491.4,10.961c.012.374.034.737.045,1.1-.272-.159-.545-.329-.8-.51-.612-.385-1.213-.793-1.791-1.225-2.812-2.12-4.818-5.067-7.685-7.107-2.664-1.9-6.472-2.721-9.295-.714a1.386,1.386,0,0,0-.3,2.142c1.179,1.462,2.041,3.139,3.141,4.659a44.346,44.346,0,0,0,3.343,4.1,54.791,54.791,0,0,0,8.365,7.243c3.242,2.346,6.619,4.477,10,6.609,1.326.838,2.63,1.689,3.934,2.55.317.2.634.42.963.624a27.321,27.321,0,0,0,3.775,2.233c.839.68,1.689,1.338,2.528,2.006,2.573,2.063,5.293,4,8.615,4.591a85.576,85.576,0,0,0,10.519.748c3.9.192,7.81.306,11.71.567,4.954,13.217,6.28,27.579,8.841,41.42.023.137.057.283.079.42.872,4.636,1.837,9.272,2.959,13.864q1.427,5.951,3.254,11.789c1.36,4.318,2.812,8.626,4.455,12.843a27.945,27.945,0,0,0,2.471,5.158,10.658,10.658,0,0,0,4.013,3.82c3.741,1.96,8.615,1.553,12.661.987a18.883,18.883,0,0,0,10.644-4.76,17.885,17.885,0,0,0,3.31-4.364v-.023a23.328,23.328,0,0,0,2.652-10.349A26.355,26.355,0,0,0,200.49,296.907Z" transform="translate(-78.12 -176.826)" fill="#e5b296"/>
              <path id="Trazado_1047220" data-name="Trazado 1047220" d="M149.774,208.813a17.321,17.321,0,0,0-13.812,6.106c-1.937.09-3.874.2-5.811.281a3.358,3.358,0,0,1-2.387-.727,14.116,14.116,0,0,1-1.878-1.57,14.82,14.82,0,0,1-2.929-4.043,14.492,14.492,0,0,1-1.03-4.218c-.4-2.79-.721-5.682-2.856-7.739a6.323,6.323,0,0,0-5.565-1.664,8.733,8.733,0,0,0-5.078-4.419,3.3,3.3,0,0,0-3.38.37,2.156,2.156,0,0,0-.279.369,14.175,14.175,0,0,0-2.14-4.605c-1.4-1.921-5.929-5.577-7.706-2.074-.738,1.457-.44,3.429-.416,5q.051,3.4.17,6.794.234,6.579.835,13.137c.111,1.226,2.041,1.233,1.923,0-.668-7.047-1.054-14.125-1.031-21.2a11.005,11.005,0,0,1,.075-2.183c.187-.886.709-.928,1.494-.6a7.226,7.226,0,0,1,3.11,2.748c1.782,2.734,1.58,5.941,2.722,8.871a.764.764,0,0,0,.285.346c-.138,5.528-.493,11.045-.623,16.575a1.1,1.1,0,0,0,2.19,0c.157-5.232-.017-10.475.185-15.7.049-1.256.113-2.512.17-3.769.041-.9-.012-2.338,1.243-2.09a6.023,6.023,0,0,1,2.541,1.348,8.831,8.831,0,0,1,1.63,2.055,1.179,1.179,0,0,0-.483,1.241c.2.746.54,1.44.693,2.2.138.686.233,1.382.344,2.074.234,1.454.471,2.906.68,4.365.42,2.932.645,5.881,1.039,8.813a5.5,5.5,0,0,0,1.12,3.008,29.07,29.07,0,0,0,3.008,2.582c2.233,1.948,4.413,3.956,6.609,5.944.76.689,1.89-.426,1.134-1.134-2.012-1.88-4.039-3.746-6.02-5.658-.9-.872-1.805-1.763-2.654-2.692-.866-.948-.9-2.025-1.15-3.236-.546-2.674-1.1-5.338-1.555-8.029-.233-1.383-.44-2.77-.648-4.156-.1-.659-.209-1.318-.29-1.979a11.416,11.416,0,0,1-.033-1.669,4.921,4.921,0,0,1,3.705-.336,4.393,4.393,0,0,1,2.682,3.635c.631,3.164.1,6.428,1.691,9.38a13.181,13.181,0,0,0,3.438,3.733c1.234,1.018,2.529,2.622,4.148,2.954a12.8,12.8,0,0,0,2.739.058c1.125-.016,2.25-.043,3.375-.072.959-.024,1.82.135,2.49-.627a24.365,24.365,0,0,1,1.755-1.9,14.317,14.317,0,0,1,10.526-3.644C151.213,211.143,151.218,208.872,149.774,208.813Z" transform="translate(-75.41 -175.73)" fill="#a96c60"/>
              <path id="Trazado_1047221" data-name="Trazado 1047221" d="M149.487,223.092c-1.01-.057-1.99-.356-2.994-.49-.977-.131-1.956-.279-2.936-.372-.947-.09-1.9-.178-2.847-.219-1.019-.043-2.065-.159-3.083-.11a1.409,1.409,0,0,0,0,2.816c.978.068,1.985-.021,2.966-.043s1.978-.089,2.966-.163c.949-.071,1.9-.191,2.847-.3,1.032-.121,2.047-.4,3.083-.437A.34.34,0,0,0,149.487,223.092Z" transform="translate(-68.456 -169.337)" fill="#a96c60"/>
              <path id="Trazado_1047222" data-name="Trazado 1047222" d="M189.907,287.1a41,41,0,0,0-4.007-10.932c-1.778-3.569-3.847-6.98-5.9-10.392-4.22-7-8.5-13.978-12.18-21.282-3.746-7.426-6.951-15.078-10.165-22.744-2.645-6.309-5.831-13.6-12.835-15.984-.769-.262-1.312,1.02-.545,1.339,5.794,2.4,8.524,8.574,10.793,13.994,1.487,3.549,2.97,7.083,4.631,10.556q2.622,5.482,5.342,10.921c3.581,7.163,7.136,14.4,11.17,21.318,3.867,6.638,8.144,13.122,10.621,20.449a38.564,38.564,0,0,1,1.576,5.627,32.024,32.024,0,0,1,.451,5.964,22.043,22.043,0,0,1-3.067,11.088c-.4.661.611,1.217,1.036.588a22.457,22.457,0,0,0,3.576-9.782A35.332,35.332,0,0,0,189.907,287.1Z" transform="translate(-67.188 -172.022)" fill="#a96c60"/>
            </g>
            <path id="Trazado_1047223" data-name="Trazado 1047223" d="M195.209,332.769c-21.242,16.108-37.419,18.817-60.486-55.1q-1.8-5.8-3.684-12.265l45.613-15.552s4.6,6.143,10.032,15.224C198.5,284.787,214.23,318.351,195.209,332.769Z" transform="translate(-69.325 -164.69)" fill="#cc4645"/>
            <path id="Trazado_1047224" data-name="Trazado 1047224" d="M186.684,265.075l-51.962,12.594q-1.8-5.8-3.684-12.265l45.613-15.552S181.254,255.995,186.684,265.075Z" transform="translate(-69.325 -164.69)" fill="#a62e2e"/>
            <path id="Trazado_1047225" data-name="Trazado 1047225" d="M195.072,290.909c-4.3-9.043-9.207-17.864-14.326-26.466-2.949-4.956-6.008-9.837-9.225-14.624-.673-1-2.278-.124-1.648.936,4.914,8.279,9.675,16.651,14.146,25.178,2.217,4.227,4.3,8.524,6.369,12.823a88.3,88.3,0,0,1,5.318,12.835,31.968,31.968,0,0,1,1.156,15.432c-.216,1.09,1.46,1.958,1.936.788C202.462,308.812,199.018,299.2,195.072,290.909Z" transform="translate(-62.895 -164.768)" fill="#a62e2e"/>
          </g>
          <g id="Grupo_1201238" data-name="Grupo 1201238" transform="translate(270.386 81.035)">
            <g id="Grupo_1201237" data-name="Grupo 1201237" transform="translate(5.657)">
              <path id="Trazado_1047226" data-name="Trazado 1047226" d="M399.871,162.766c-3.4-1-6.8,1.054-8.751,3.787-2.085,2.925-3.038,6.45-5.055,9.431-.42.612-.862,1.2-1.326,1.78-.192.26-.408.51-.612.759-.1-.363-.216-.714-.317-1.076-1.076-3.583-2.154-7.152-3.264-10.723a21.638,21.638,0,0,0-1.508-4.5c-.022-.034-.034-.068-.057-.1a7.865,7.865,0,0,0,.521-1.326c1.066-3.854-3.016-6.7-6.518-5.872-3.831.884-6.518,4.7-8.355,7.923-.975,1.712-1.825,3.514-2.675,5.305-.737,1.553-1.485,3.129-2.324,4.636a22.869,22.869,0,0,1-7.64,8.468c-3.525,2.289-7.356,4.047-10.826,6.427a24.814,24.814,0,0,0-7.685,8.117,23.063,23.063,0,0,0-2.38,5.759,24.768,24.768,0,0,0-.578,2.868c-.079.6-.147,1.2-.17,1.813A16.934,16.934,0,0,0,328.6,208.6v.012c-2.562,4.114-3.548,9.295-3.956,14.226-.1,1.145-.181,2.279-.238,3.423-.1,1.633-.181,3.276-.25,4.919-.022.4-.045.8-.056,1.2-.068,1.213-.136,2.4-.216,3.616-.125,1.8-.25,3.6-.408,5.4q-.357,4.37-.838,8.728-.714,6.665-1.609,13.307c-.658,4.885-1.394,9.76-2.244,14.623a1.9,1.9,0,0,1-.046.238c-1.474,8.422-3.525,17.162-1.825,25.709a27.036,27.036,0,0,0,1.315,4.591,23.935,23.935,0,0,0,6.008,9.114c0,.012,0,.012.012.023a18.246,18.246,0,0,0,4.647,3.117,19.32,19.32,0,0,0,11.88,1.066c4.092-.8,8.932-2.029,11.9-5.169,2.755-2.913,3.139-7.017,3.288-10.836.045-1.031.068-2.063.079-3.106.079-3.593.046-7.2-.057-10.792-.125-4.58-.43-9.159-.873-13.716s-1.043-9.068-1.712-13.58c-.068-.464-.136-.918-.216-1.383-2.131-13.773-5.4-27.635-5.022-41.59,3.684-1.553,7.424-2.959,11.131-4.443a86.908,86.908,0,0,0,9.918-4.229c3-1.667,5-4.443,6.8-7.3.589-.929,1.179-1.847,1.768-2.777a28.7,28.7,0,0,0,2.913-3.423c.25-.306.476-.612.725-.918.963-1.27,1.95-2.517,2.947-3.775,2.562-3.185,5.113-6.371,7.459-9.714a54.735,54.735,0,0,0,5.679-9.782,46.32,46.32,0,0,0,1.871-5.078c.555-1.837.828-3.752,1.485-5.543A1.423,1.423,0,0,0,399.871,162.766Z" transform="translate(-314.583 -154.779)" fill="#e5b296"/>
              <path id="Trazado_1047227" data-name="Trazado 1047227" d="M331.9,202.942a17.7,17.7,0,0,1,15.382,1.307c1.9-.557,3.811-1.094,5.711-1.662a3.435,3.435,0,0,0,2.065-1.5,14.364,14.364,0,0,0,1.293-2.142,15.147,15.147,0,0,0,1.487-4.884,14.8,14.8,0,0,0-.408-4.42c-.542-2.829-1.193-5.732.187-8.43a6.467,6.467,0,0,1,4.825-3.46,8.932,8.932,0,0,1,3.438-5.96,3.376,3.376,0,0,1,3.39-.767,2.231,2.231,0,0,1,.392.262,14.493,14.493,0,0,1,.536-5.164c.714-2.323,3.875-7.363,6.759-4.568,1.2,1.162,1.566,3.169,2.065,4.693q1.081,3.3,2.1,6.624,1.963,6.437,3.564,12.976c.3,1.222-1.562,1.869-1.859.64-1.7-7.035-3.681-14-6.06-20.84a11.154,11.154,0,0,0-.8-2.085c-.475-.8-.994-.661-1.643-.08a7.384,7.384,0,0,0-2.092,3.691c-.814,3.236.448,6.267.321,9.48a.778.778,0,0,1-.16.429c1.973,5.3,4.152,10.512,6.117,15.815.5,1.355-1.608,2.076-2.118.729-1.893-5.005-3.467-10.131-5.4-15.116-.465-1.2-.945-2.391-1.418-3.586-.338-.854-.766-2.265-1.9-1.606a6.164,6.164,0,0,0-2.007,2.148,9.013,9.013,0,0,0-.892,2.529,1.2,1.2,0,0,1,.879,1.039c.054.788-.043,1.572.062,2.356.1.709.234,1.413.357,2.118.258,1.483.512,2.967.794,4.446.57,2.973,1.333,5.9,1.928,8.865a5.629,5.629,0,0,1-.082,3.279,29.636,29.636,0,0,1-2.049,3.5c-1.51,2.625-2.95,5.291-4.411,7.945-.506.919-1.969.218-1.473-.718,1.319-2.486,2.657-4.965,3.937-7.472.584-1.145,1.159-2.3,1.67-3.485.522-1.2.2-2.257.034-3.51-.363-2.766-.711-5.525-1.169-8.279-.234-1.415-.5-2.823-.756-4.233-.124-.671-.237-1.343-.378-2.009a11.571,11.571,0,0,0-.524-1.625,5.029,5.029,0,0,0-3.693.908,4.491,4.491,0,0,0-1.383,4.406c.443,3.268,2.042,6.247,1.486,9.629a13.5,13.5,0,0,1-2.08,4.752c-.854,1.395-1.573,3.376-3.026,4.236a13.13,13.13,0,0,1-2.629.968q-1.639.537-3.286,1.053c-.934.3-1.714.736-2.616.222a24.434,24.434,0,0,0-2.329-1.253,14.633,14.633,0,0,0-11.388-.02C331.283,205.673,330.521,203.48,331.9,202.942Z" transform="translate(-312.107 -153.79)" fill="#a96c60"/>
              <path id="Trazado_1047228" data-name="Trazado 1047228" d="M332.2,216.7c.957-.391,1.805-1.005,2.73-1.469.9-.451,1.8-.92,2.715-1.336.885-.4,1.774-.8,2.679-1.159.971-.381,1.943-.84,2.945-1.132a1.44,1.44,0,0,1,.936,2.722c-.924.391-1.925.64-2.881.945s-1.942.573-2.92.829c-.942.247-1.9.448-2.851.655-1.038.226-2.112.294-3.127.6A.348.348,0,0,1,332.2,216.7Z" transform="translate(-311.974 -145.347)" fill="#a96c60"/>
              <path id="Trazado_1047229" data-name="Trazado 1047229" d="M315.156,292.049a41.96,41.96,0,0,1,.236-11.9c.532-4.042,1.4-8.027,2.25-12.01,1.751-8.17,3.563-16.337,4.693-24.623,1.15-8.425,1.7-16.887,2.258-25.366.457-6.98,1.113-15.085,7.088-19.72.657-.508,1.608.55.971,1.113-4.8,4.245-5.385,11.123-5.777,17.119-.257,3.924-.513,7.836-.963,11.744q-.71,6.172-1.53,12.334c-1.079,8.116-2.108,16.288-3.7,24.322-1.529,7.7-3.506,15.394-3.462,23.3a39.48,39.48,0,0,0,.349,5.963,32.8,32.8,0,0,0,1.548,5.915,22.521,22.521,0,0,0,6.654,9.7c.608.506-.187,1.38-.806.913a22.96,22.96,0,0,1-6.711-8.265A36.178,36.178,0,0,1,315.156,292.049Z" transform="translate(-314.824 -147.547)" fill="#a96c60"/>
            </g>
            <path id="Trazado_1047230" data-name="Trazado 1047230" d="M329.76,332.4c-23.646-7.765-18.341-47.5-13.387-69.577,2-8.842,3.934-14.861,3.934-14.861l48.187-.147q.392,7.94.567,15.008C370.942,338.072,354.835,340.633,329.76,332.4Z" transform="translate(-309.617 -139.316)" fill="#cc4645"/>
            <path id="Trazado_1047231" data-name="Trazado 1047231" d="M368.454,262.827H315.768c2-8.842,3.934-14.861,3.934-14.861l48.187-.147Q368.277,255.759,368.454,262.827Z" transform="translate(-309.01 -139.317)" fill="#a62e2e"/>
            <path id="Trazado_1047232" data-name="Trazado 1047232" d="M310.506,294.836c1.123-9.95,2.891-19.887,4.932-29.688,1.176-5.646,2.479-11.256,3.963-16.829.31-1.166,2.113-.858,1.864.349-1.952,9.427-3.728,18.892-5.181,28.412-.721,4.72-1.287,9.458-1.848,14.2a88.427,88.427,0,0,0-.851,13.867,31.959,31.959,0,0,0,3.93,14.968c.56.961-.743,2.327-1.574,1.375C309.346,314.17,309.475,303.963,310.506,294.836Z" transform="translate(-309.973 -139.355)" fill="#a62e2e"/>
          </g>
          <path id="Trazado_1047233" data-name="Trazado 1047233" d="M241.466,315.95c-.034-.567-.057-1.145-.079-1.712q-1.189-26.2-3.458-52.324-.271-3.3-.578-6.585c-.034-.42-.079-.839-.125-1.258q-.493-5.577-1.066-11.143c-.17-1.8-.351-3.593-.533-5.4-.714-7.017-1.417-14.056-2.483-21.038-.159-1.054-.329-2.131-.476-3.219-.862-6.268-1.405-13.047-.545-19.169v-.012c.113-.975-2.3-.374-2.38-.363a14.14,14.14,0,0,0-4.534,1.111l-.012.012c-3.854,1.667-6.847,4.942-9.023,8.728a.23.23,0,0,0-.046.091,29.75,29.75,0,0,0-1.383,2.743c-.068.136-.136.283-.192.42a24.608,24.608,0,0,0-.872,2.324,43.285,43.285,0,0,0-1.734,7.4c-.125.816-.238,1.633-.341,2.46-.567,4.433-1,8.876-1.52,13.307-.624,5.26-1.3,10.519-1.95,15.779-.147,1.156,1.2,1.927,2.176,1.689.828-.2,1.633-.408,2.459-.612h.012c3.48-.872,6.972-1.734,10.474-2.483-2.687,2.006-5.4,4-8.151,5.928-.3.2-.6.408-.918.624a27.393,27.393,0,0,0-2.7,1.962,7.776,7.776,0,0,0-1.553,1.746c-1.213,1.916-.487,3.945.238,5.884v.012c.1.272.2.555.306.828,3.458,9.522,6.45,19.191,9.092,28.973q3.383,12.532,6.064,25.267c2.4,11.415,4.364,22.932,5.86,34.482,1.474,11.449,2.55,22.932,2.9,34.472,0,.034.012.057.012.091a.205.205,0,0,1-.023.079.79.79,0,0,0,.816.975.6.6,0,0,0,.624-.147c1.95-1.621,3.174-14.09,3.809-18.613.85-5.973,1.553-11.924,1.9-17.944A349.384,349.384,0,0,0,241.466,315.95Z" transform="translate(-56.514 -67.303)" fill="#a62e2e"/>
          <path id="Trazado_1047234" data-name="Trazado 1047234" d="M294.921,252.635a6.409,6.409,0,0,0-2.868-3.321c-.17-.113-.351-.216-.533-.317-.737-.42-1.5-.85-2.267-1.292a44.616,44.616,0,0,1-9.261-6.541,64.218,64.218,0,0,1,8.3,1.8c.464.125.929.272,1.383.42.9.283,1.791.6,2.675.941,1.27.487,2.244-.941,2.041-2.041-1.236-6.756-2.267-13.886-4.239-20.642a51.62,51.62,0,0,0-4.636-11.268c-.6-1.043-1.247-2.1-1.95-3.129a48.613,48.613,0,0,0-3.843-5.079.73.73,0,0,1-.091-.1c-.543-.624-1.11-1.225-1.689-1.8h-.012a29.979,29.979,0,0,0-9.59-6.756,22.581,22.581,0,0,0-2.426-.872c-1.247-.374-2.517-.057-2.335,1.11v.034c.045.25.091.5.125.759.136.793.272,1.609.4,2.437.306,1.984.578,4.013.828,6.076v.034c0,.012.012.022,0,.034s0,.012.012.022c.012.057.022.125.034.192.068.545.136,1.088.192,1.643.4,3.423.749,6.9,1.076,10.394.669,7.232,1.27,14.464,2.063,21.141.4,3.333.783,6.676,1.1,10.032.272,2.891.5,5.8.634,8.706.045.612.068,1.224.091,1.837a117.707,117.707,0,0,1-1,18.194c-.057.545-.125,1.076-.192,1.621-1.474,11.9-3.934,23.657-5.248,35.57-.136,1.156-.25,2.3-.351,3.458-1.213,13.489-.226,27.013.624,40.49q.408,6.5.8,12.99a54.924,54.924,0,0,0,.578,10.905c.057.4.136.783.192,1.167.17,2.3.408,4.591.771,6.847.068.442.136.873.226,1.3a47.547,47.547,0,0,0,2.731,9.772.067.067,0,0,0,.012.046c.034.079.057.159.091.238a.7.7,0,0,0,.43.442,1.061,1.061,0,0,0,1.371-1.179c-.725-3.185-1.462-6.4-2.063-9.635-.079-.43-.159-.873-.238-1.3-.363-2.131-.658-4.262-.838-6.415a77.142,77.142,0,0,1,.3-17.185c1.587-11.143,5.464-21.741,9.057-32.351q1.174-3.434,2.255-6.9A413.361,413.361,0,0,0,293.688,265c.408-2.562.906-5.124,1.258-7.7q.136-.9.238-1.8A6.345,6.345,0,0,0,294.921,252.635Z" transform="translate(-47.431 -67.478)" fill="#a62e2e"/>
          <path id="Trazado_1047235" data-name="Trazado 1047235" d="M260.959,291.284a30.833,30.833,0,0,0-10.125.133c-1.666.269-3.313.6-4.949,1.018a28.93,28.93,0,0,0-4.651,1.708.892.892,0,0,0,.437,1.656c3.213-.239,6.39-.693,9.6-1,3.25-.311,6.479-.6,9.689-1.22A1.2,1.2,0,0,0,260.959,291.284Z" transform="translate(-51.084 -51.117)" fill="#7b5f5c"/>
          <path id="Trazado_1047236" data-name="Trazado 1047236" d="M255.63,296.855a7.975,7.975,0,0,0-1.613-.169,11.334,11.334,0,0,0-1.516.018c-.59.069-1.17.157-1.752.274-.5.1-.978.289-1.464.433a1.393,1.393,0,0,0,.353,2.736c.484-.009.977.018,1.46-.026a17.86,17.86,0,0,0,1.811-.254,11.025,11.025,0,0,0,1.406-.428,8.328,8.328,0,0,0,1.565-.662A1.057,1.057,0,0,0,255.63,296.855Z" transform="translate(-49.843 -50.163)" fill="#7b5f5c"/>
          <g id="Grupo_1201239" data-name="Grupo 1201239" transform="translate(134.12 6.119)">
            <path id="Trazado_1047237" data-name="Trazado 1047237" d="M251.9,94.038a64.681,64.681,0,0,1-8.773,13.873,34.8,34.8,0,0,1-11.457,9.435.9.9,0,0,0,.668,1.643,27.748,27.748,0,0,0,12.846-9.019c3.734-4.63,5.782-9.966,7.838-15.474C253.26,93.853,252.188,93.41,251.9,94.038Z" transform="translate(-186.795 -90.009)" fill="#a06f52"/>
            <path id="Trazado_1047238" data-name="Trazado 1047238" d="M248.63,97.548c-2.36,3.242-5.783,5.972-8.975,8.37a106.9,106.9,0,0,1-10.02,6.545c-7.268,4.276-14.506,8.332-20.447,14.427-.79.811.385,1.939,1.227,1.227,6.581-5.56,14.553-9.363,21.863-13.845a69.292,69.292,0,0,0,9.836-7.047,40.042,40.042,0,0,0,7.424-9.16C249.9,97.483,249.017,97.016,248.63,97.548Z" transform="translate(-190.5 -89.414)" fill="#a06f52"/>
            <path id="Trazado_1047239" data-name="Trazado 1047239" d="M219.692,125.966c-3.925,1.948-7.661,4.185-10.581,7.516-3.124,3.563-4.37,7.936-6.014,12.274a66.706,66.706,0,0,1-3.207,7.234,24.7,24.7,0,0,0-2.657,6.2c-.939,4.523.683,8.99,1.029,13.479a15.666,15.666,0,0,1-1.1,7.667,41.612,41.612,0,0,1-3.948,6.66c-.384.563.519,1.263.963.734,2.718-3.238,5.522-6.664,6.56-10.86,1.1-4.442-.4-8.821-.859-13.236a18.488,18.488,0,0,1,.365-6.725,41.561,41.561,0,0,1,2.773-7.106c1.037-2.2,2.2-4.338,3.382-6.465,1.157-2.085,2.244-4.258,3.557-6.25,2.683-4.07,6.661-7.225,10.148-10.574C220.4,126.232,220.031,125.8,219.692,125.966Z" transform="translate(-193.127 -84.658)" fill="#a06f52"/>
            <path id="Trazado_1047240" data-name="Trazado 1047240" d="M206.938,147.67c.253-.651-.835-1.1-1.139-.463a28.59,28.59,0,0,0-3.143,9.8,22.558,22.558,0,0,0,1.36,10.315.948.948,0,0,0,1.833-.48,44.844,44.844,0,0,1-.583-9.663A31,31,0,0,1,206.938,147.67Z" transform="translate(-191.561 -81.172)" fill="#a06f52"/>
            <path id="Trazado_1047241" data-name="Trazado 1047241" d="M236.647,90.755a31.819,31.819,0,0,1-6.294,5.113c-1.144.73-2.318,1.371-3.513,2.014a30.845,30.845,0,0,0-3.618,1.983.822.822,0,0,0,.4,1.523,11.135,11.135,0,0,0,4.274-1.2,20.133,20.133,0,0,0,3.769-2.226,21.584,21.584,0,0,0,3.322-2.83c1-1.11,1.951-2.272,2.843-3.473C238.342,90.976,237.216,90.138,236.647,90.755Z" transform="translate(-188.187 -90.54)" fill="#a06f52"/>
            <path id="Trazado_1047242" data-name="Trazado 1047242" d="M279.438,114a24.844,24.844,0,0,1-2.938-1.9c-.128-.092-.259-.183-.388-.274l-.078-.054-.022-.019c-.232-.18-.458-.366-.682-.557-.449-.384-.877-.792-1.315-1.186-.887-.8-1.658-1.707-2.528-2.518a18.171,18.171,0,0,1-2.377-2.589c-.511-.7-1.684-.086-1.2.682.667,1.064,1.191,2.176,1.754,3.3a20.265,20.265,0,0,0,2.286,3.31,12.909,12.909,0,0,0,6.437,4.4A1.414,1.414,0,0,0,279.438,114Z" transform="translate(-180.717 -88.203)" fill="#a06f52"/>
            <path id="Trazado_1047243" data-name="Trazado 1047243" d="M285.9,108.044a28.714,28.714,0,0,1-10.413-3.974,42.238,42.238,0,0,1-8.736-7.628c-.548-.615-1.679.217-1.173.893,2.524,3.368,5.041,6.72,8.419,9.291,3.25,2.475,7.419,4.36,11.573,3.98C286.928,110.481,287.461,108.333,285.9,108.044Z" transform="translate(-181.107 -89.594)" fill="#a06f52"/>
            <path id="Trazado_1047244" data-name="Trazado 1047244" d="M292.064,160.931a47.994,47.994,0,0,1-5.483-15.414,78.73,78.73,0,0,1-.821-8.392c-.15-2.764-.4-5.534-.376-8.3.009-.97-1.413-.943-1.488,0-.218,2.772-.631,5.517-.68,8.3a57.059,57.059,0,0,0,.441,8.251,44.929,44.929,0,0,0,4.605,14.8c4.743,9.344,12.652,18.432,10.446,29.652a.736.736,0,0,0,1.423.373C303.172,179.851,296.821,169.646,292.064,160.931Z" transform="translate(-178.155 -84.296)" fill="#a06f52"/>
            <path id="Trazado_1047245" data-name="Trazado 1047245" d="M292.824,176.344a38.705,38.705,0,0,0-2.1-6.944c-.885-2.236-2.229-4.282-3.318-6.429-.236-.463-.9-.066-.694.394a35.3,35.3,0,0,1,1.916,6.834,68.343,68.343,0,0,1,1.152,6.78c.575,4.495.423,9,.732,13.5a1.032,1.032,0,0,0,2.021.26C294,186.187,293.711,180.985,292.824,176.344Z" transform="translate(-177.579 -78.536)" fill="#a06f52"/>
            <path id="Trazado_1047246" data-name="Trazado 1047246" d="M276.718,175.831a20.615,20.615,0,0,0-1.2,6.4,17.5,17.5,0,0,0,.248,3.218c.192,1.1.688,2.1.829,3.2.077.6.978.647.974,0a16.816,16.816,0,0,1,.556-3.082c.187-1.055.309-2.146.414-3.212.205-2.084.226-4.162.254-6.254A1.058,1.058,0,0,0,276.718,175.831Z" transform="translate(-179.434 -76.489)" fill="#a06f52"/>
            <path id="Trazado_1047247" data-name="Trazado 1047247" d="M213.394,177.556a43.752,43.752,0,0,0-.776,14.737.931.931,0,0,0,1.86,0c.05-2.428.146-4.857.232-7.284s.086-4.841.183-7.261A.765.765,0,0,0,213.394,177.556Z" transform="translate(-189.935 -76.17)" fill="#a06f52"/>
            <path id="Trazado_1047248" data-name="Trazado 1047248" d="M218.172,178.264c-.174.676-.353,1.343-.466,2.033-.124.753-.212,1.508-.3,2.266-.16,1.382-.269,2.758-.368,4.146a1.1,1.1,0,0,0,2.161.279,47.2,47.2,0,0,0,1.4-8.411A1.236,1.236,0,0,0,218.172,178.264Z" transform="translate(-189.153 -76.107)" fill="#a06f52"/>
          </g>
          <path id="Trazado_1047249" data-name="Trazado 1047249" d="M317.727,233.52c.093-.659-.879-.954-1.029-.269-1.4,6.443-3.157,12.838-4.778,19.257.506-7.474.784-14.963.769-22.454-.014-6.956-.493-13.833-.887-20.772a.585.585,0,0,0-1.169,0c.036,6.088-.306,12.195-.5,18.28-.195,6-.442,12-.841,17.994q-1.207,18.089-3.4,36.1c-.409,3.377-.9,6.742-1.352,10.114-.436,3.289-1.225,6.779-1.155,10.1.009.438.7.7.894.237a48.4,48.4,0,0,0,2.22-8.681c.616-2.883,1.113-5.793,1.608-8.7.8-4.679,1.541-9.374,2.129-14.085C314.546,258.757,315.973,245.955,317.727,233.52Z" transform="translate(-40.683 -64.78)" fill="#a62e2e"/>
          <path id="Trazado_1047250" data-name="Trazado 1047250" d="M194.833,271.487c-.911-13.435-1.478-26.948-2.934-40.336-.77-7.067-1.518-14.114-4.184-20.769-.173-.431-.849-.287-.72.189a91.53,91.53,0,0,1,2.981,19c.357,6.545.748,13.079,1.229,19.615l1.455,19.778c-.352-1.676-.711-3.35-1.1-5.019-.918-3.943-1.9-7.861-3-11.758-1.123-3.988-2.571-7.878-3.8-11.835a.621.621,0,0,0-1.2.315c1.009,3.927,1.691,7.915,2.6,11.865s1.817,7.887,2.7,11.837,1.752,7.9,2.616,11.847c.412,1.885.8,3.773,1.228,5.654a32.286,32.286,0,0,0,1.256,4.75q.1,1.324.195,2.648.841,11.442,1.876,22.863c.078.862,1.409.887,1.363,0C196.7,298.573,195.751,285.032,194.833,271.487Z" transform="translate(-60.599 -64.546)" fill="#a62e2e"/>
          <path id="Trazado_1047251" data-name="Trazado 1047251" d="M188.007,407.268q-2.159-.68-4.285-1.429-3.52-1.225-6.972-2.6-4.268-1.7-8.456-3.639c-1.3-.6-2.6-1.224-3.876-1.859-1.633,7.265-2.925,14.611-3.922,22a2.228,2.228,0,0,0,1.53,2.63q6.7,2.262,13.478,4.194c2.766.793,5.543,1.553,8.331,2.255,1.3.341,2.6.669,3.91.975,1.813.442,3.639.862,5.464,1.27q7.77,1.718,15.632,3.026c2.664.454,5.339.85,8.014,1.224,2.335.317,5.373,1.235,7.594.1,2.085-1.076,2.641-3.344,3.185-5.441.68-2.652,1.326-5.317,1.972-7.98.533-2.222,1.076-4.433,1.621-6.654A181.621,181.621,0,0,1,188.007,407.268Zm157.256.521q-1.837-6.682-3.843-13.319c-2.505,1.043-5.01,2.051-7.538,3.038q-7.09,2.738-14.316,5.146c-7.55,2.505-15.212,4.715-22.954,6.575,1.122,4.3,2.267,8.569,3.423,12.854q.936,3.434,1.871,6.869c.51,1.893.85,4.409,2.766,5.441,2.041,1.111,4.183.057,6.132-.714,2.131-.85,4.251-1.724,6.359-2.641a183.467,183.467,0,0,0,22.172-11.517c.668-.4,1.315-.8,1.972-1.213,1.746-1.1,3.525-2.289,4.273-4.308C346.351,411.949,345.818,409.818,345.263,407.789Z" transform="translate(-64.435 -33.909)" fill="#a62e2e"/>
          <path id="Trazado_1047252" data-name="Trazado 1047252" d="M306.855,358.3c-4.205,1.531-8.432,3-12.61,4.6a38.045,38.045,0,0,1-5.8,2.044c-1.866.381-2.822-.153-3.577-1.886a19,19,0,0,0-1.277-2.6,17.7,17.7,0,0,1-1.668-2.191c.057-.26,1.37-.669,1.833-.862l3.22-1.341c4.208-1.749,8.353-3.634,12.551-5.406.816-.345.247-1.757-.589-1.448-5.2,1.921-10.433,3.739-15.622,5.686-1.724.647-4.964,1.149-4.855,3.572.056,1.228,1,1.978,1.672,2.9a13.759,13.759,0,0,1,1.588,2.985c.837,2.047,2.1,3.66,4.412,3.986,2.1.3,4.122-.493,6.022-1.3,5.191-2.21,10.329-4.524,15.484-6.815C308.71,359.745,307.967,357.9,306.855,358.3Z" transform="translate(-44.825 -41.437)" fill="#a62e2e"/>
          <path id="Trazado_1047253" data-name="Trazado 1047253" d="M216.424,363.474a124.037,124.037,0,0,1-32.739-9.632c-1.288-.585-2.407,1.3-1.1,1.941a121.254,121.254,0,0,0,31.484,10.381q-.577,1.954-1.129,3.916c-.247.876-.5,1.75-.739,2.627-.2.728-.327,2.12-.911,2.665-.934.871-3.086-.15-4.09-.464-1.861-.581-3.73-1.129-5.6-1.669q-5.479-1.578-11.011-2.982c-2.8-.713-5.826-1.447-7.9-3.591-1.108-1.146-3.25.377-2.29,1.745,2.139,3.046,5.39,4.3,8.851,5.282,4.416,1.25,8.888,2.336,13.351,3.408,2,.479,4.026,1.019,6.063,1.3a5.364,5.364,0,0,0,4.564-1.094c1.313-1.275,1.674-3.489,2.2-5.165.714-2.258,1.437-4.512,2.1-6.787A1.55,1.55,0,0,0,216.424,363.474Z" transform="translate(-61.163 -40.679)" fill="#a62e2e"/>
        </g>
        <g id="Grupo_1201244" data-name="Grupo 1201244" transform="translate(86.25 8.569)">
          <g id="Grupo_1201241" data-name="Grupo 1201241" transform="translate(184.669 22.833)">
            <path id="Trazado_1047254" data-name="Trazado 1047254" d="M325.4,121.777c.608-3.654-.7-7.988-4.555-9.183a9.732,9.732,0,0,0-9.966,3.155,2.137,2.137,0,0,0,.363,2.969,2.158,2.158,0,0,0,2.969-.363c1.321-1.459,4.575-2.87,6.324-1.353,1.812,1.572,1.314,5.37-.3,6.888a3.983,3.983,0,0,1-2.949.94,3.977,3.977,0,0,0-3.859,2.463,23.792,23.792,0,0,0-.932,5.089,16.262,16.262,0,0,0-.244,5.792,1.625,1.625,0,0,0,3.08.463,18.548,18.548,0,0,0,1.5-6.429,17.331,17.331,0,0,0,.407-3.17.758.758,0,0,1,.014-.127c.3-.026.7-.061.75-.064A8.1,8.1,0,0,0,325.4,121.777Z" transform="translate(-310.43 -112.219)" fill="#977677"/>
            <path id="Trazado_1047255" data-name="Trazado 1047255" d="M315.051,141.118a1.55,1.55,0,0,0,.152-.776,1.028,1.028,0,0,0-.042-.461,1.633,1.633,0,0,0-.317-.851,1.606,1.606,0,0,0-.612-.486,2.321,2.321,0,0,0-1.3-.3l-.538.134a2.059,2.059,0,0,0-.865.647.946.946,0,0,0-.112.143,2.091,2.091,0,0,0-.419.971c0,.181-.008.36-.012.541a2.1,2.1,0,0,0,.409,1.031,1.562,1.562,0,0,0,.609.521,1.586,1.586,0,0,0,.742.283,1.545,1.545,0,0,0,.812-.056,1.573,1.573,0,0,0,.759-.342,2.089,2.089,0,0,0,.658-.838,1.037,1.037,0,0,1,.066-.141A.214.214,0,0,0,315.051,141.118Z" transform="translate(-310.338 -107.897)" fill="#977677"/>
          </g>
          <g id="Grupo_1201242" data-name="Grupo 1201242" transform="translate(0 61.323)">
            <path id="Trazado_1047256" data-name="Trazado 1047256" d="M171.451,157.592c.787-4.728-.911-10.337-5.894-11.882-4.71-1.461-9.713.515-12.9,4.082a2.765,2.765,0,0,0,.47,3.843,2.794,2.794,0,0,0,3.843-.469c1.71-1.888,5.921-3.713,8.183-1.752,2.346,2.034,1.7,6.949-.384,8.913a5.154,5.154,0,0,1-3.816,1.216,5.146,5.146,0,0,0-4.994,3.187c-.8,2-.878,4.472-1.206,6.587a21.052,21.052,0,0,0-.316,7.5,2.1,2.1,0,0,0,3.985.6c1.352-2.612,1.57-5.429,1.938-8.32a22.42,22.42,0,0,0,.527-4.1,1.076,1.076,0,0,1,.018-.164c.383-.033.9-.079.97-.083C166.947,166.5,170.641,162.452,171.451,157.592Z" transform="translate(-152.079 -145.224)" fill="#977677"/>
            <path id="Trazado_1047257" data-name="Trazado 1047257" d="M158.06,182.62a2.008,2.008,0,0,0,.2-1,1.316,1.316,0,0,0-.055-.595,2.107,2.107,0,0,0-.411-1.1,2.074,2.074,0,0,0-.792-.63,1.99,1.99,0,0,0-.665-.279,2.012,2.012,0,0,0-1.022-.11l-.7.174a2.662,2.662,0,0,0-1.12.837,1.132,1.132,0,0,0-.146.187,2.715,2.715,0,0,0-.542,1.257c0,.233-.01.466-.015.7a2.72,2.72,0,0,0,.529,1.334,3.017,3.017,0,0,0,1.749,1.041,2.019,2.019,0,0,0,1.051-.072,2.039,2.039,0,0,0,.982-.442,2.69,2.69,0,0,0,.85-1.085,1.179,1.179,0,0,1,.086-.182C158.048,182.639,158.054,182.629,158.06,182.62Z" transform="translate(-151.96 -139.63)" fill="#977677"/>
          </g>
          <g id="Grupo_1201243" data-name="Grupo 1201243" transform="translate(33.261)">
            <path id="Trazado_1047258" data-name="Trazado 1047258" d="M193.047,94.872a7.319,7.319,0,0,0-6.342-2.162c-3.124.426-4.911,2.643-6,5.434-.676,1.729,2.219,2.912,3.03,1.233a4.873,4.873,0,0,1,2.255-2.668,3.94,3.94,0,0,1,2.526-.087,2.829,2.829,0,0,1,2.019,3.579,2.872,2.872,0,0,1-.5,1.179c-.064.092-.1.143-.114.17-.052.061-.1.122-.16.18s-.423.366-.388.359c-.45.3-.959.485-1.4.8a3.3,3.3,0,0,0-1.464,2.644,10.65,10.65,0,0,0,.478,2.584q.278,1.21.555,2.42c.4,1.76.582,3.935,1.918,5.264a1.943,1.943,0,0,0,3.216-.871c.519-1.576-.171-3.32-.555-4.861-.082-.329-.624-2.776-.924-3.9.084-.051.168-.1.246-.155a6.96,6.96,0,0,0,1.486-1.273,7.9,7.9,0,0,0,1.682-3.227A7.294,7.294,0,0,0,193.047,94.872Z" transform="translate(-180.6 -92.641)" fill="#977677"/>
            <path id="Trazado_1047259" data-name="Trazado 1047259" d="M193.707,117.142a2.459,2.459,0,0,0-.644-1.122c-.035-.033-.071-.065-.106-.1l-.054-.049-.027-.024-.012-.011a2.456,2.456,0,0,0-1.117-.641q-.313-.045-.629-.08a2.741,2.741,0,0,0-1.74.721l-.4.525a2.467,2.467,0,0,0-.321,1.215q.035.315.08.629a2.45,2.45,0,0,0,.641,1.117l.01.012.024.027.049.052c.033.035.065.071.1.106a2.541,2.541,0,0,0,3.5,0l.4-.527a2.467,2.467,0,0,0,.322-1.222Q193.748,117.456,193.707,117.142Z" transform="translate(-179.261 -88.905)" fill="#977677"/>
          </g>
        </g>
      </g>
    </g>
    <path id="Trazado_1047293" data-name="Trazado 1047293" d="M193.539,330.611c-20.689,15.688-36.445,18.327-58.912-53.668Q132.872,271.3,131.039,265l44.426-15.148s4.482,5.984,9.771,14.827C196.741,283.878,212.065,316.569,193.539,330.611Z" transform="translate(899.149 4870.109)" fill="#cc4645"/>
  </g>
</svg>
