<svg xmlns="http://www.w3.org/2000/svg" xmlns:xlink="http://www.w3.org/1999/xlink" width="93.656" height="93.656" viewBox="0 0 93.656 93.656">
  <defs>
    <filter id="Trazado_982547" x="0" y="0" width="93.656" height="93.656" filterUnits="userSpaceOnUse">
      <feOffset dy="3" input="SourceAlpha"/>
      <feGaussianBlur stdDeviation="3" result="blur"/>
      <feFlood flood-opacity="0.161"/>
      <feComposite operator="in" in2="blur"/>
      <feComposite in="SourceGraphic"/>
    </filter>
  </defs>
  <g id="Grupo_1201156" data-name="Grupo 1201156" transform="translate(-815.461 -492.172)">
    <g id="Grupo_1183675" data-name="Grupo 1183675" transform="translate(-11 -235.188)">
      <g id="Grupo_1182351" data-name="Grupo 1182351" transform="translate(0 -1607.235)">
        <g id="Grupo_1181638" data-name="Grupo 1181638" transform="translate(-0.539 1253.596)">
          <g id="Grupo_1180313" data-name="Grupo 1180313" transform="translate(-3.461 -6709)">
            <g id="Grupo_1180312" data-name="Grupo 1180312">
              <g id="Grupo_1174895" data-name="Grupo 1174895" transform="translate(641.291 2507.168)">
                <g id="Grupo_1172067" data-name="Grupo 1172067" transform="translate(198.17 5288.832)">
                  <g id="Grupo_1164308" data-name="Grupo 1164308" transform="translate(0 0)">
                    <g id="Grupo_1163948" data-name="Grupo 1163948" transform="translate(0)">
                      <g id="Grupo_1158168" data-name="Grupo 1158168" transform="translate(0)">
                        <g id="Grupo_1152576" data-name="Grupo 1152576">
                          <g id="Grupo_1148633" data-name="Grupo 1148633">
                            <g id="Grupo_1148525" data-name="Grupo 1148525">
                              <g transform="matrix(1, 0, 0, 1, -9, -6)" filter="url(#Trazado_982547)">
                                <g id="Trazado_982547-2" data-name="Trazado 982547" transform="translate(9 6)" fill="#f2f7f5">
                                  <path d="M 37.8281364440918 74.15627288818359 C 32.92320251464844 74.15627288818359 28.16579246520996 73.19596862792969 23.68804740905762 71.30204772949219 C 19.36230278015137 69.47240447998047 15.47705841064453 66.85280609130859 12.1402702331543 63.51601409912109 C 8.803469657897949 60.17921447753906 6.1838698387146 56.29397964477539 4.354236602783203 51.96822357177734 C 2.460303068161011 47.49048233032227 1.500003099441528 42.73307037353516 1.500003099441528 37.8281364440918 C 1.500003099441528 32.92321395874023 2.460303068161011 28.16579246520996 4.354236602783203 23.68804740905762 C 6.1838698387146 19.36230278015137 8.803469657897949 15.47706985473633 12.1402702331543 12.1402702331543 C 15.47706985473633 8.803469657897949 19.36230278015137 6.1838698387146 23.68804740905762 4.354236602783203 C 28.16579246520996 2.460303068161011 32.92321395874023 1.500003099441528 37.8281364440918 1.500003099441528 C 42.73307037353516 1.500003099441528 47.49048233032227 2.460303068161011 51.96822357177734 4.354236602783203 C 56.29397964477539 6.1838698387146 60.17921447753906 8.803469657897949 63.51601409912109 12.1402702331543 C 66.85280609130859 15.47705841064453 69.47240447998047 19.36230278015137 71.30204772949219 23.68804740905762 C 73.19596862792969 28.16579246520996 74.15627288818359 32.92320251464844 74.15627288818359 37.8281364440918 C 74.15627288818359 42.73307037353516 73.19596862792969 47.49048233032227 71.30204772949219 51.96822357177734 C 69.47240447998047 56.29397964477539 66.85280609130859 60.17921447753906 63.51601409912109 63.51601409912109 C 60.17921447753906 66.85280609130859 56.29397964477539 69.47240447998047 51.96822357177734 71.30204772949219 C 47.49048233032227 73.19596862792969 42.73307037353516 74.15627288818359 37.8281364440918 74.15627288818359 Z" stroke="none"/>
                                  <path d="M 37.8281364440918 3 C 33.12504959106445 3 28.56423568725586 3.920433044433594 24.27237319946289 5.735733032226562 C 20.12542343139648 7.48974609375 16.40044784545898 10.00139617919922 13.20092391967773 13.20092391967773 C 10.00139617919922 16.40044784545898 7.48974609375 20.12542343139648 5.735733032226562 24.27237319946289 C 3.920433044433594 28.56423568725586 3 33.12504959106445 3 37.8281364440918 C 3 42.53122329711914 3.920433044433594 47.09203720092773 5.735733032226562 51.3838996887207 C 7.48974609375 55.53084945678711 10.00139617919922 59.25582122802734 13.20092391967773 62.45534896850586 C 16.40044784545898 65.65487670898438 20.12542343139648 68.16652679443359 24.27237319946289 69.92053985595703 C 28.56423568725586 71.73583984375 33.12504959106445 72.65627288818359 37.8281364440918 72.65627288818359 C 42.53122329711914 72.65627288818359 47.09203720092773 71.73583984375 51.3838996887207 69.92053985595703 C 55.53084945678711 68.16652679443359 59.25582122802734 65.65487670898438 62.45534896850586 62.45534896850586 C 65.65487670898438 59.25582122802734 68.16652679443359 55.53084945678711 69.92053985595703 51.3838996887207 C 71.73583984375 47.09203720092773 72.65627288818359 42.53122329711914 72.65627288818359 37.8281364440918 C 72.65627288818359 33.12504959106445 71.73583984375 28.56423568725586 69.92053985595703 24.27237319946289 C 68.16652679443359 20.12542343139648 65.65487670898438 16.40044784545898 62.45534896850586 13.20092391967773 C 59.25582122802734 10.00139617919922 55.53084945678711 7.48974609375 51.3838996887207 5.735733032226562 C 47.09203720092773 3.920433044433594 42.53122329711914 3 37.8281364440918 3 M 37.8281364440918 0 C 58.72003555297852 0 75.65627288818359 16.93623733520508 75.65627288818359 37.8281364440918 C 75.65627288818359 58.72003555297852 58.72003555297852 75.65627288818359 37.8281364440918 75.65627288818359 C 16.93623733520508 75.65627288818359 0 58.72003555297852 0 37.8281364440918 C 0 16.93623733520508 16.93623733520508 0 37.8281364440918 0 Z" stroke="none" fill="#4a665c"/>
                                </g>
                              </g>
                            </g>
                          </g>
                        </g>
                      </g>
                    </g>
                  </g>
                </g>
              </g>
            </g>
          </g>
        </g>
      </g>
    </g>
    <g id="analizar" transform="translate(838.965 512.676)">
      <g id="Grupo_1201154" data-name="Grupo 1201154" transform="translate(0)">
        <g id="Grupo_1201152" data-name="Grupo 1201152">
          <path id="Trazado_1047019" data-name="Trazado 1047019" d="M139.364,47.8h-26.99V8.51A1.011,1.011,0,0,1,113.385,7.5h25.979a1.011,1.011,0,0,1,1.011,1.011V46.79a1.011,1.011,0,0,1-1.011,1.011Z" transform="translate(-102.135 -6.816)" fill="#ffea76"/>
          <path id="Trazado_1047020" data-name="Trazado 1047020" d="M388,7.5h-2.066a1.011,1.011,0,0,1,1.011,1.011v38.28a1.011,1.011,0,0,1-1.011,1.011H388a1.011,1.011,0,0,0,1.011-1.011V8.511A1.011,1.011,0,0,0,388,7.5Z" transform="translate(-350.771 -6.817)" fill="#ffe54c"/>
          <path id="Trazado_1047021" data-name="Trazado 1047021" d="M87.158,63.563,85.3,62.154H63.3a1.011,1.011,0,0,0-1.011,1.011v38.28a1.011,1.011,0,0,0,1.011,1.011H89.283a1.011,1.011,0,0,0,1.011-1.011V67.3l-2.437-.622Z" transform="translate(-56.617 -56.491)" fill="#faf7f8"/>
          <g id="Grupo_1201151" data-name="Grupo 1201151">
            <path id="Trazado_1047022" data-name="Trazado 1047022" fill="#dedbee"/>
            <path id="Trazado_1047023" data-name="Trazado 1047023" d="M336.757,147.494a1.011,1.011,0,0,1-1.011,1.011h2.076a1.011,1.011,0,0,0,1.011-1.011V113.349l-2.076-.53Z" transform="translate(-305.156 -102.54)" fill="#dedbee"/>
          </g>
          <path id="Trazado_1047024" data-name="Trazado 1047024" d="M310.739,62.154a5.061,5.061,0,0,1-.328,4.815.706.706,0,0,0,.48,1.016c1.987.411,3.651.268,4.844-.685v-.948a4.2,4.2,0,0,0-4.2-4.2Z" transform="translate(-282.057 -56.491)" fill="#d2cfe9"/>
        </g>
        <circle id="Elipse_14224" data-name="Elipse 14224" cx="7.312" cy="7.312" r="7.312" transform="translate(14.793 19.895)" fill="#64caff"/>
        <path id="Trazado_1047025" data-name="Trazado 1047025" d="M232.01,218.361a7.374,7.374,0,0,0-1.063.078,7.312,7.312,0,0,1,0,14.469,7.312,7.312,0,1,0,1.063-14.547Z" transform="translate(-209.905 -198.466)" fill="#00b8ff"/>
        <circle id="Elipse_14225" data-name="Elipse 14225" cx="4.719" cy="4.719" r="4.719" transform="translate(17.386 22.488)" fill="#b8e3ff"/>
        <path id="Trazado_1047026" data-name="Trazado 1047026" d="M233.311,246.821a4.747,4.747,0,0,0-.933.093,4.72,4.72,0,0,1,0,9.253,4.72,4.72,0,1,0,.933-9.346Z" transform="translate(-211.206 -224.333)" fill="#a2dbff"/>
        <g id="Grupo_1201153" data-name="Grupo 1201153" transform="translate(40.892 17.093)">
          <path id="Trazado_1047027" data-name="Trazado 1047027" d="M453.411,191.652h-4.129a.473.473,0,0,1-.473-.473v-3.1a.473.473,0,0,1,.473-.473h4.129a.473.473,0,0,1,.473.473v3.1A.473.473,0,0,1,453.411,191.652Z" transform="translate(-448.81 -187.61)" fill="#ff7383"/>
          <path id="Trazado_1047028" data-name="Trazado 1047028" d="M483.3,187.608h-1.6a.473.473,0,0,1,.472.473v3.1a.473.473,0,0,1-.472.473h1.6a.473.473,0,0,0,.473-.473v-3.1A.473.473,0,0,0,483.3,187.608Z" transform="translate(-478.702 -187.608)" fill="#ff546a"/>
        </g>
        <path id="Trazado_1047029" data-name="Trazado 1047029" d="M14.835,375.373H7.972A.473.473,0,0,1,7.5,374.9v-3.1a.473.473,0,0,1,.473-.473h6.862a.473.473,0,0,1,.473.473v3.1A.472.472,0,0,1,14.835,375.373Z" transform="translate(-6.817 -337.499)" fill="#ff7383"/>
        <path id="Trazado_1047030" data-name="Trazado 1047030" d="M71.995,371.33h-1.6a.472.472,0,0,1,.473.473v3.1a.473.473,0,0,1-.473.473h1.6a.473.473,0,0,0,.473-.473v-3.1A.473.473,0,0,0,71.995,371.33Z" transform="translate(-63.977 -337.498)" fill="#ff546a"/>
        <path id="Trazado_1047031" data-name="Trazado 1047031" d="M405.067,371.329h-8.975a.473.473,0,0,0-.473.473v3.1a.473.473,0,0,0,.473.473h8.975a.473.473,0,0,0,.473-.473v-3.1A.473.473,0,0,0,405.067,371.329Z" transform="translate(-359.574 -337.497)" fill="#ff7383"/>
        <path id="Trazado_1047032" data-name="Trazado 1047032" d="M483.3,375.372h-1.6a.473.473,0,0,0,.472-.473v-3.1a.473.473,0,0,0-.472-.473h1.6a.473.473,0,0,1,.473.473v3.1A.473.473,0,0,1,483.3,375.372Z" transform="translate(-437.811 -337.498)" fill="#ff546a"/>
      </g>
      <g id="Grupo_1201155" data-name="Grupo 1201155" transform="translate(0 0)">
        <path id="Trazado_1047033" data-name="Trazado 1047033" d="M41.364,21.819h4.129a1.157,1.157,0,0,0,1.156-1.156v-3.1a1.157,1.157,0,0,0-1.156-1.156H41.364a1.157,1.157,0,0,0-1.156,1.156v.865H38.923V6.252a.683.683,0,1,0-1.367,0V18.431h-3.2V9.861A4.887,4.887,0,0,0,29.479,4.98H10.922V1.695a.328.328,0,0,1,.328-.328H37.228a.328.328,0,0,1,.328.328V3.61a.683.683,0,1,0,1.367,0V1.695A1.7,1.7,0,0,0,37.228,0H11.25A1.7,1.7,0,0,0,9.555,1.695V4.98H6.687A1.7,1.7,0,0,0,4.992,6.674V33.149H1.156A1.157,1.157,0,0,0,0,34.3v3.1a1.157,1.157,0,0,0,1.156,1.156H4.992v6.4a1.7,1.7,0,0,0,1.695,1.695H10.28a.683.683,0,0,0,0-1.367H6.687a.328.328,0,0,1-.328-.328v-6.4H8.018A1.157,1.157,0,0,0,9.174,37.4v-.865H14.8a1.58,1.58,0,0,0,1.255-.625l1.572-2.084a7.981,7.981,0,0,0,9.171-.15l1.685,2.233a1.58,1.58,0,0,0,1.255.625h3.256v8.417a.328.328,0,0,1-.328.328H12.922a.683.683,0,1,0,0,1.367H32.666a1.7,1.7,0,0,0,1.695-1.695V41.669h2.868a1.7,1.7,0,0,0,1.695-1.695V38.558h6.57A1.157,1.157,0,0,0,46.649,37.4V34.3a1.157,1.157,0,0,0-1.156-1.156h-6.57V19.8h1.285v.865a1.157,1.157,0,0,0,1.156,1.156ZM32.994,9.861v.6a5.329,5.329,0,0,1-4.022.366c-.005,0-.007,0-.011-.009a.028.028,0,0,1,0-.027,6.131,6.131,0,0,0,.715-4.437A3.519,3.519,0,0,1,32.994,9.861ZM7.807,37.191H1.367V34.515H7.807Zm7.155-2.1a.207.207,0,0,1-.164.082H9.174V34.3a1.157,1.157,0,0,0-1.156-1.156H6.359V6.674a.328.328,0,0,1,.328-.328H28.24a4.563,4.563,0,0,1-.495,3.82,1.387,1.387,0,0,0-.017,1.24,1.372,1.372,0,0,0,.966.757,10.313,10.313,0,0,0,2.08.233,5.775,5.775,0,0,0,2.219-.4v6.435H29.117a1.58,1.58,0,0,0-1.255.625l-1.2,1.586a7.985,7.985,0,0,0-9.57.335.683.683,0,1,0,.857,1.065,6.62,6.62,0,0,1,7.889-.308l-.739.98a5.4,5.4,0,0,0-6.961,8.161l-.748.991a6.621,6.621,0,0,1-1.011-8,.683.683,0,0,0-1.179-.691,7.986,7.986,0,0,0,1.36,9.795Zm11.281-4.412a5.393,5.393,0,0,0-.109-7.063l.75-.994A6.617,6.617,0,0,1,27,31.675Zm-1.459-1.934a.683.683,0,1,0-1.091.823l.718.952a4.029,4.029,0,0,1-4.4.142l.826-1.095a.683.683,0,1,0-1.091-.823l-.769,1.019a4.034,4.034,0,0,1,5.3-5.954l-1.2,1.6a.683.683,0,1,0,1.091.823l1.127-1.493a4.028,4.028,0,0,1,.1,4.814Zm-2.68,5.095a6.591,6.591,0,0,1-3.655-1.1l.74-.981a5.393,5.393,0,0,0,6.045-.146l.739.979a6.593,6.593,0,0,1-3.869,1.249Zm7.633,1.334a.207.207,0,0,1-.164-.082l-1.741-2.307a7.983,7.983,0,0,0-.116-11.264l1.236-1.638a.207.207,0,0,1,.164-.082h3.877V35.17H29.738Zm7.819,4.8a.328.328,0,0,1-.328.328H34.36V36.537h1V37.4a1.157,1.157,0,0,0,1.156,1.156h1.039Zm7.726-2.783H36.728V34.515h8.554Zm-7.726-4.042H36.518A1.157,1.157,0,0,0,35.362,34.3v.865h-1V19.8h3.2Zm4.018-15.372h3.707v2.675H41.575Z" transform="translate(0 0)"/>
        <path id="Trazado_1047034" data-name="Trazado 1047034" d="M100.436,94.968h13a.683.683,0,0,0,0-1.367h-13a.683.683,0,0,0,0,1.367Z" transform="translate(-90.664 -85.073)"/>
        <path id="Trazado_1047035" data-name="Trazado 1047035" d="M100.436,127.6h13a.683.683,0,0,0,0-1.367h-13a.683.683,0,0,0,0,1.367Z" transform="translate(-90.664 -114.73)"/>
        <path id="Trazado_1047036" data-name="Trazado 1047036" d="M100.436,160.229h13a.683.683,0,1,0,0-1.367h-13a.683.683,0,1,0,0,1.367Z" transform="translate(-90.664 -144.388)"/>
        <path id="Trazado_1047037" data-name="Trazado 1047037" d="M108.467,192.175a.683.683,0,0,0-.683-.683h-7.347a.683.683,0,0,0,0,1.367h7.347A.683.683,0,0,0,108.467,192.175Z" transform="translate(-90.664 -174.045)"/>
        <path id="Trazado_1047038" data-name="Trazado 1047038" d="M100.436,430.885h7.347a.683.683,0,1,0,0-1.367h-7.347a.683.683,0,1,0,0,1.367Z" transform="translate(-90.664 -390.384)"/>
        <path id="Trazado_1047039" data-name="Trazado 1047039" d="M100.436,460.371h7.347a.683.683,0,0,0,0-1.367h-7.347a.683.683,0,0,0,0,1.367Z" transform="translate(-90.664 -417.184)"/>
      </g>
    </g>
  </g>
</svg>
