<svg xmlns="http://www.w3.org/2000/svg" xmlns:xlink="http://www.w3.org/1999/xlink" width="400" height="320" viewBox="0 0 400 320">
  <defs>
    <clipPath id="clip-path">
      <rect id="Rectángulo_416102" data-name="Rectángulo 416102" width="400" height="320" transform="translate(180 763)" fill="#fff" stroke="#707070" stroke-width="1" opacity="0.68"/>
    </clipPath>
  </defs>
  <g id="Enmascarar_grupo_1183021" data-name="Enmascarar grupo 1183021" transform="translate(-180 -763)" clip-path="url(#clip-path)">
    <g id="Grupo_1184139" data-name="Grupo 1184139" transform="translate(4061.804 -3228.963)">
      <g id="Grupo_1184138" data-name="Grupo 1184138" transform="translate(-3881.804 4001.743)">
        <g id="Grupo_1183930" data-name="Grupo 1183930" transform="translate(29.581 2.973)" opacity="0.75">
          <path id="Trazado_1046164" data-name="Trazado 1046164" d="M677.75,640.963c25.041-59.82,11.852-148.81-48.725-181.732S498.308,484.4,472.8,537s-38.677,122.4-63.7,144.786S388.032,745,456.51,745,630.341,754.217,677.75,640.963Z" transform="translate(-394.999 -449.626)" fill="#cfe3dc" opacity="0.9"/>
        </g>
        <g id="Grupo_1183954" data-name="Grupo 1183954" transform="translate(0 189.946)">
          <g id="Grupo_1183931" data-name="Grupo 1183931" transform="translate(18.146 20.942)">
            <path id="Trazado_1046165" data-name="Trazado 1046165" d="M375.295,1657.687a5.6,5.6,0,0,0-1.079.382c-8.435-26.857-26.1-79.283-40.318-96.013l1.8-1.53c14.705,17.306,32.429,70.047,40.849,96.994A7.4,7.4,0,0,0,375.295,1657.687Z" transform="translate(-333.898 -1560.527)" fill="#a0ac76"/>
          </g>
          <g id="Grupo_1183933" data-name="Grupo 1183933" transform="translate(0.788)">
            <g id="Grupo_1183932" data-name="Grupo 1183932">
              <path id="Trazado_1046166" data-name="Trazado 1046166" d="M243.651,1448.638c-3.706-.115-2.746,3.3-.606,7.256s7.062,4.808,10.087,8.2,2.613,6.447,5.192,8.536,6.534,4.115,5.487,1.735-2.734-1.861-3.388-5.307-3.248-11.88-6.173-13.705S247.242,1448.748,243.651,1448.638Z" transform="translate(-241.153 -1448.635)" fill="#a0ac76"/>
            </g>
          </g>
          <g id="Grupo_1183935" data-name="Grupo 1183935" transform="translate(25.24 2.836)">
            <g id="Grupo_1183934" data-name="Grupo 1183934">
              <path id="Trazado_1046167" data-name="Trazado 1046167" d="M376.7,1464.6c-2.342-2.27-3.739.519-4.691,4.361s1.746,7.31,1.7,11.308-2.118,5.74-1.678,8.626,1.813,6.546,2.541,4.378-.676-2.83.939-5.459,4.923-9.651,4.1-12.57S378.97,1466.806,376.7,1464.6Z" transform="translate(-371.805 -1463.788)" fill="#a0ac76"/>
            </g>
          </g>
          <g id="Grupo_1183937" data-name="Grupo 1183937" transform="translate(0 24.971)">
            <g id="Grupo_1183936" data-name="Grupo 1183936">
              <path id="Trazado_1046168" data-name="Trazado 1046168" d="M237.22,1585.017c-1.234-3.019,1.874-3.277,5.794-2.731s6.135,4.342,9.861,5.791,6.116.171,8.631,1.654,5.4,4.119,3.117,3.989-2.375-1.681-5.416-1.16-10.79.977-13.193-.873S238.416,1587.944,237.22,1585.017Z" transform="translate(-236.946 -1582.057)" fill="#a0ac76"/>
            </g>
          </g>
          <g id="Grupo_1183939" data-name="Grupo 1183939" transform="translate(35.42 24.229)">
            <g id="Grupo_1183938" data-name="Grupo 1183938">
              <path id="Trazado_1046169" data-name="Trazado 1046169" d="M432.978,1579.047c-2.135-2.465-3.771.191-5.054,3.935s1.1,7.434.71,11.413-2.612,5.534-2.425,8.447,1.234,6.679,2.149,4.583-.426-2.878,1.413-5.356,5.747-9.184,5.183-12.164S435.047,1581.437,432.978,1579.047Z" transform="translate(-426.198 -1578.09)" fill="#a0ac76"/>
            </g>
          </g>
          <g id="Grupo_1183941" data-name="Grupo 1183941" transform="translate(10.157 44.035)">
            <g id="Grupo_1183940" data-name="Grupo 1183940">
              <path id="Trazado_1046170" data-name="Trazado 1046170" d="M291.39,1686.642c-.966-3.115,2.153-3.1,6.01-2.214s5.732,4.861,9.318,6.63,6.078.7,8.454,2.4,5.02,4.575,2.757,4.246-2.219-1.882-5.294-1.629-10.834.031-13.067-2.022S292.326,1689.661,291.39,1686.642Z" transform="translate(-291.212 -1683.914)" fill="#a0ac76"/>
            </g>
          </g>
          <g id="Grupo_1183943" data-name="Grupo 1183943" transform="translate(44.501 46.415)">
            <g id="Grupo_1183942" data-name="Grupo 1183942">
              <path id="Trazado_1046171" data-name="Trazado 1046171" d="M481.5,1697.587c-2.135-2.465-3.771.191-5.054,3.935s1.1,7.434.71,11.414-2.612,5.533-2.425,8.447,1.234,6.679,2.149,4.583-.426-2.878,1.412-5.356,5.747-9.184,5.183-12.164S483.566,1699.977,481.5,1697.587Z" transform="translate(-474.717 -1696.63)" fill="#a0ac76"/>
            </g>
          </g>
          <g id="Grupo_1183945" data-name="Grupo 1183945" transform="translate(19.237 66.222)">
            <g id="Grupo_1183944" data-name="Grupo 1183944">
              <path id="Trazado_1046172" data-name="Trazado 1046172" d="M339.909,1805.192c-.966-3.115,2.153-3.1,6.01-2.214s5.732,4.861,9.318,6.63,6.078.7,8.454,2.4,5.02,4.575,2.757,4.245-2.219-1.882-5.294-1.629-10.834.031-13.067-2.022S340.845,1808.211,339.909,1805.192Z" transform="translate(-339.731 -1802.464)" fill="#a0ac76"/>
            </g>
          </g>
          <g id="Grupo_1183947" data-name="Grupo 1183947" transform="translate(51.739 68.285)">
            <g id="Grupo_1183946" data-name="Grupo 1183946">
              <path id="Trazado_1046173" data-name="Trazado 1046173" d="M522.732,1814.62c-1.853-2.684-3.769-.222-5.453,3.359s.283,7.51-.54,11.423-3.2,5.215-3.333,8.132.5,6.774,1.636,4.791-.109-2.907,1.989-5.17,6.715-8.5,6.48-11.526S524.528,1817.222,522.732,1814.62Z" transform="translate(-513.389 -1813.485)" fill="#a0ac76"/>
            </g>
          </g>
          <g id="Grupo_1183949" data-name="Grupo 1183949" transform="translate(27.557 87.802)">
            <g id="Grupo_1183948" data-name="Grupo 1183948">
              <path id="Trazado_1046174" data-name="Trazado 1046174" d="M384.361,1920.492c-.966-3.115,2.153-3.1,6.01-2.214s5.732,4.861,9.318,6.63,6.078.7,8.454,2.4,5.02,4.576,2.757,4.245-2.219-1.882-5.294-1.629-10.834.031-13.067-2.022S385.3,1923.511,384.361,1920.492Z" transform="translate(-384.184 -1917.764)" fill="#a0ac76"/>
            </g>
          </g>
          <g id="Grupo_1183951" data-name="Grupo 1183951" transform="translate(58.926 96.848)">
            <g id="Grupo_1183950" data-name="Grupo 1183950">
              <path id="Trazado_1046175" data-name="Trazado 1046175" d="M559.794,1975.636c.168,2.372-3.485,7.24-5.143,9a3.567,3.567,0,0,0-1.127,2.559,7.455,7.455,0,0,0-1.12.156c-.165.037-.329.094-.494.149a14.1,14.1,0,0,1-.1-2.585c.12-2.286,1.99-3.295,2.657-6.358s-.856-6.155.485-8.954,2.855-4.719,4.294-2.605C560.637,1969.048,559.626,1973.265,559.794,1975.636Z" transform="translate(-551.789 -1966.1)" fill="#a0ac76"/>
            </g>
          </g>
          <g id="Grupo_1183953" data-name="Grupo 1183953" transform="translate(39.969 108.162)">
            <g id="Grupo_1183952" data-name="Grupo 1183952">
              <path id="Trazado_1046176" data-name="Trazado 1046176" d="M454.989,2026.921c2.8.643,4.155,3.524,6.754,4.806s4.406.511,6.128,1.74c1.394,1,2.882,2.532,2.542,2.962-.112.02-.226.034-.335.059-.061.014-.122.039-.183.055-.011,0-.014,0-.025,0-1.641-.239-1.608-1.364-3.838-1.18s-7.853.022-9.471-1.465-5.249-3.184-5.927-5.373C449.932,2026.267,452.193,2026.277,454.989,2026.921Z" transform="translate(-450.504 -2026.548)" fill="#a0ac76"/>
            </g>
          </g>
        </g>
        <g id="Grupo_1183964" data-name="Grupo 1183964" transform="translate(333.463 61.92)">
          <g id="Grupo_1183961" data-name="Grupo 1183961">
            <g id="Grupo_1183960" data-name="Grupo 1183960">
              <path id="Trazado_1046179" data-name="Trazado 1046179" d="M2030.384,776.71h-11.338a.394.394,0,0,1-.394-.394V764.977a.394.394,0,0,1,.394-.394h11.338a.394.394,0,0,1,.395.394v11.339A.4.4,0,0,1,2030.384,776.71Zm-10.945-.789h10.55v-10.55h-10.55Z" transform="translate(-2018.651 -764.583)" fill="#fdf6ea"/>
            </g>
          </g>
          <g id="Grupo_1183963" data-name="Grupo 1183963" transform="translate(1.745 1.745)">
            <g id="Grupo_1183962" data-name="Grupo 1183962">
              <path id="Trazado_1046180" data-name="Trazado 1046180" d="M2031.468,781.769a.4.4,0,0,1-.287-.124l-3.1-3.3a.395.395,0,1,1,.575-.541l2.781,2.955,5.048-6.7a.394.394,0,0,1,.63.474l-5.33,7.074a.393.393,0,0,1-.293.156Z" transform="translate(-2027.972 -773.907)" fill="#fdf6ea"/>
            </g>
          </g>
        </g>
        <g id="Grupo_1183967" data-name="Grupo 1183967" transform="translate(9.748 275.114)">
          <g id="Grupo_1183966" data-name="Grupo 1183966">
            <g id="Grupo_1183965" data-name="Grupo 1183965">
              <path id="Trazado_1046181" data-name="Trazado 1046181" d="M298.4,1914.958a.35.35,0,0,1-.154-.037l-3.3-1.736-3.3,1.736a.333.333,0,0,1-.346-.026.326.326,0,0,1-.131-.321l.629-3.676-2.669-2.6a.327.327,0,0,1,.182-.559l3.69-.536,1.65-3.344a.342.342,0,0,1,.59,0l1.65,3.344,3.69.536a.327.327,0,0,1,.182.559l-2.669,2.6.629,3.676a.326.326,0,0,1-.131.321A.32.32,0,0,1,298.4,1914.958Zm-3.454-2.472a.347.347,0,0,1,.154.037l2.864,1.506-.547-3.189a.321.321,0,0,1,.095-.29l2.317-2.259-3.2-.466a.329.329,0,0,1-.249-.18l-1.432-2.9-1.432,2.9a.329.329,0,0,1-.249.18l-3.2.466,2.317,2.259a.321.321,0,0,1,.095.29l-.547,3.189,2.864-1.506A.351.351,0,0,1,294.946,1912.486Z" transform="translate(-289.028 -1903.687)" fill="#e0b894"/>
            </g>
          </g>
        </g>
        <g id="Grupo_1183970" data-name="Grupo 1183970" transform="translate(285.19 93.292)">
          <g id="Grupo_1183969" data-name="Grupo 1183969">
            <g id="Grupo_1183968" data-name="Grupo 1183968">
              <path id="Trazado_1046182" data-name="Trazado 1046182" d="M1770.1,943.475a.35.35,0,0,1-.154-.037l-3.3-1.736-3.3,1.736a.333.333,0,0,1-.347-.026.326.326,0,0,1-.131-.321l.629-3.676-2.669-2.6a.327.327,0,0,1,.182-.559l3.69-.536,1.65-3.344a.342.342,0,0,1,.59,0l1.65,3.344,3.69.536a.327.327,0,0,1,.182.559l-2.669,2.6.629,3.676a.326.326,0,0,1-.131.321A.316.316,0,0,1,1770.1,943.475ZM1766.643,941a.351.351,0,0,1,.154.037l2.864,1.506-.547-3.19a.322.322,0,0,1,.095-.29l2.317-2.259-3.2-.466a.329.329,0,0,1-.249-.18l-1.432-2.9-1.432,2.9a.329.329,0,0,1-.249.18l-3.2.466,2.317,2.259a.322.322,0,0,1,.095.29l-.547,3.19,2.864-1.506A.353.353,0,0,1,1766.643,941Z" transform="translate(-1760.726 -932.203)" fill="#e0b894"/>
            </g>
          </g>
        </g>
        <g id="Grupo_1184054" data-name="Grupo 1184054" transform="translate(1.634 -9.995)">
          <g id="Grupo_1183971" data-name="Grupo 1183971" transform="translate(103.298 76.66)">
            <path id="Trazado_1046183" data-name="Trazado 1046183" d="M841.952,867.827c-2.545.436-4,.727-4.436,1.891a35.355,35.355,0,0,0-.654,5.673l6.909,2.763,33.018-2.836-1.527-6.545-4.654-1.964Z" transform="translate(-836.861 -866.809)" fill="#251d1b"/>
          </g>
          <g id="Grupo_1183972" data-name="Grupo 1183972" transform="translate(68.098 267.205)">
            <path id="Trazado_1046184" data-name="Trazado 1046184" d="M660.785,1834.851l-.873,41.89,122.181.583-1.454-41.6L685.8,1824.67Z" transform="translate(-659.912 -1824.67)" fill="#e0b894"/>
          </g>
          <g id="Grupo_1183973" data-name="Grupo 1183973" transform="translate(122.061 275.203)">
            <path id="Trazado_1046185" data-name="Trazado 1046185" d="M944.42,1909.386a.437.437,0,0,0,.436-.436V1869.1a.436.436,0,0,0-.285-.409l-10.181-3.782a.439.439,0,0,0-.476.117l-2.618,2.91a.435.435,0,0,0-.112.3l.581,40.726a.436.436,0,0,0,.436.43h.006a.437.437,0,0,0,.43-.443l-.579-40.554,2.305-2.562,9.619,3.573v39.551A.436.436,0,0,0,944.42,1909.386Z" transform="translate(-931.185 -1864.877)" fill="#251d1b"/>
          </g>
          <g id="Grupo_1183974" data-name="Grupo 1183974" transform="translate(159.297 283.641)">
            <path id="Trazado_1046186" data-name="Trazado 1046186" d="M1148.478,1935.51a.436.436,0,0,0,.073-.866c-.2-.036-20.234-3.741-29.34-27.073a.436.436,0,0,0-.813.317c9.292,23.807,29.8,27.581,30.005,27.615A.387.387,0,0,0,1148.478,1935.51Z" transform="translate(-1118.368 -1907.292)" fill="#251d1b"/>
          </g>
          <g id="Grupo_1183975" data-name="Grupo 1183975" transform="translate(68.243 277.531)">
            <path id="Trazado_1046187" data-name="Trazado 1046187" d="M661.078,1906.543a.383.383,0,0,0,.074-.007c.294-.05,29.448-5.282,30.907-29.494a.437.437,0,0,0-.409-.462.444.444,0,0,0-.462.411c-1.417,23.526-29.9,28.636-30.183,28.685a.436.436,0,0,0,.073.866Z" transform="translate(-660.642 -1876.581)" fill="#251d1b"/>
          </g>
          <g id="Grupo_1183976" data-name="Grupo 1183976" transform="translate(31.354 143.134)">
            <path id="Trazado_1046188" data-name="Trazado 1046188" d="M478.452,1294.271c9.917,0,23.457-4.452,31.646-25.661,4.075-10.553,6.544-23.819,9.4-39.182,1.276-6.854,2.594-13.941,4.138-21.2l-34.147-7.254c-1.635,7.694-2.995,15-4.31,22.07-2.64,14.187-6.256,33.615-9.979,37.573a5.222,5.222,0,0,1,3.25-1.251v34.909Z" transform="translate(-475.202 -1200.97)" fill="#ff946e"/>
          </g>
          <g id="Grupo_1183977" data-name="Grupo 1183977" transform="translate(14.722 82.941)">
            <path id="Trazado_1046189" data-name="Trazado 1046189" d="M481.236,899.312c-36.136,7.3-50.13,17.59-60.419,29.938s-25.93,60.916-29.223,66.678c0,0,14.817,5.351,27.165,7s24.7,2.058,24.7,2.058l.412,96.724s20.991.823,36.632,2.881,22.226-1.235,22.226-1.235l2.058-10.7,2.469,10.29s7.409,3.293,12.759,3.7,33.339-3.7,39.1-3.293,9.055.411,9.055.411l-4.116-110.307,40.336-1.646s-15.229-65.855-45.275-79.025-44.04-14.406-44.04-14.406Z" transform="translate(-391.594 -898.38)" fill="#adb9eb"/>
          </g>
          <g id="Grupo_1183990" data-name="Grupo 1183990" transform="translate(44.401 102.805)">
            <g id="Grupo_1183979" data-name="Grupo 1183979">
              <g id="Grupo_1183978" data-name="Grupo 1183978">
                <path id="Trazado_1046190" data-name="Trazado 1046190" d="M550.773,1021.32a10.567,10.567,0,0,1-6.518-8.329,7.1,7.1,0,0,0-.561-2.263,4.945,4.945,0,0,0-2.906-2.024,67.983,67.983,0,0,1,10.921-10.468c2.242,3.011,3.792,6.76,7.232,8.072,2.329.888,5.126.43,7.194,1.821,1.505,1.013,2.273,2.779,3.2,4.337a18.951,18.951,0,0,0,9.813,8.061c2.3.821,4.808,1.214,6.834,2.583s3.382,4.218,2.086,6.29a4.6,4.6,0,0,1-1.812,1.572c-3.91,2.041-8.715.1-12.323-2.442s-7.005-5.772-11.343-6.571C558.692,1021.239,554.519,1022.621,550.773,1021.32Z" transform="translate(-540.788 -998.236)" fill="#3f5299"/>
              </g>
            </g>
            <g id="Grupo_1183981" data-name="Grupo 1183981" transform="translate(85.776 44.879)">
              <g id="Grupo_1183980" data-name="Grupo 1183980">
                <path id="Trazado_1046191" data-name="Trazado 1046191" d="M998.638,1235.478c-1.591-1.07-3.743-.717-5.535-1.4-3.442-1.312-4.419-5.8-7.314-8.078a11.421,11.421,0,0,0-5.549-2c-2.673-.379-5.853-.213-7.437,1.973a5.409,5.409,0,0,0,.283,6.113,10.528,10.528,0,0,0,5.331,3.586c1.121.385,2.394.765,2.956,1.809a5.466,5.466,0,0,1,.432,1.741,8.129,8.129,0,0,0,5.014,6.407c2.882,1,6.092-.062,9.093.49,3.337.615,5.951,3.1,8.727,5.055s6.472,3.449,9.48,1.879a3.542,3.542,0,0,0,1.394-1.209c1-1.594-.046-3.786-1.6-4.839s-3.486-1.355-5.257-1.987a14.579,14.579,0,0,1-7.549-6.2C1000.386,1237.617,999.8,1236.258,998.638,1235.478Z" transform="translate(-971.982 -1223.839)" fill="#3f5299"/>
              </g>
            </g>
            <g id="Grupo_1183983" data-name="Grupo 1183983" transform="translate(29.388 127.608)">
              <g id="Grupo_1183982" data-name="Grupo 1183982">
                <path id="Trazado_1046192" data-name="Trazado 1046192" d="M715.175,1651.358c-1.591-1.07-3.743-.718-5.535-1.4-3.442-1.313-4.419-5.8-7.314-8.078a11.42,11.42,0,0,0-5.549-2c-2.673-.379-5.853-.213-7.437,1.973a5.409,5.409,0,0,0,.283,6.113,10.529,10.529,0,0,0,5.331,3.586c1.121.385,2.394.765,2.956,1.809a5.466,5.466,0,0,1,.432,1.741,8.129,8.129,0,0,0,5.014,6.407c2.882,1,6.092-.062,9.093.49,3.337.615,5.951,3.1,8.727,5.055s6.472,3.449,9.48,1.879a3.542,3.542,0,0,0,1.394-1.209c1-1.594-.046-3.786-1.6-4.839s-3.486-1.355-5.257-1.987a14.579,14.579,0,0,1-7.549-6.2C716.923,1653.5,716.333,1652.138,715.175,1651.358Z" transform="translate(-688.519 -1639.718)" fill="#3f5299"/>
              </g>
            </g>
            <g id="Grupo_1183985" data-name="Grupo 1183985" transform="translate(120.898 2.583)">
              <g id="Grupo_1183984" data-name="Grupo 1183984">
                <path id="Trazado_1046193" data-name="Trazado 1046193" d="M1159.274,1011.429a14.846,14.846,0,0,1,7.214,2.6c3.762,2.961,5.033,8.794,9.507,10.5,2.329.888,5.127.43,7.194,1.821,1.505,1.013,2.273,2.779,3.2,4.337a18.956,18.956,0,0,0,8.987,7.725c1.872,3.869,3.575,7.774,5.11,11.578-3.241.3-6.723-1.287-9.5-3.239-3.608-2.537-7.006-5.772-11.343-6.571-3.9-.718-8.073.663-11.819-.638a10.567,10.567,0,0,1-6.518-8.329,7.115,7.115,0,0,0-.561-2.263c-.731-1.356-2.386-1.851-3.843-2.351a13.687,13.687,0,0,1-6.93-4.661c-1.631-2.313-2.029-5.654-.368-7.946C1151.667,1011.153,1155.8,1010.938,1159.274,1011.429Z" transform="translate(-1148.54 -1011.223)" fill="#3f5299"/>
              </g>
            </g>
            <g id="Grupo_1183987" data-name="Grupo 1183987" transform="translate(26.176 61.997)">
              <g id="Grupo_1183986" data-name="Grupo 1183986">
                <path id="Trazado_1046194" data-name="Trazado 1046194" d="M672.423,1318.112a9.254,9.254,0,0,1,15.938-5.332c1.848,1.964,2.818,4.708,4.952,6.356,3.282,2.534,7.989,1.605,11.989,2.7a12.005,12.005,0,0,1,7.153,5.516c.757,1.312,1.261,2.765,2.109,4.02,2.658,3.932,7.871,4.979,12.518,5.945a12.668,12.668,0,0,1,4.746,1.707c3.065,2.132,3.756,6.3,4.186,10.007a2.116,2.116,0,0,1-.062,1.077,1.925,1.925,0,0,1-1.422.92c-3.233.77-6.633-.244-9.629-1.682s-5.794-3.311-8.925-4.426c-6.546-2.331-14.319-1.286-19.992-5.3-2.894-2.048-4.826-5.157-7.269-7.726a25.3,25.3,0,0,0-8.866-6.015c-2.679-1.076-5.875-1.977-7.037-4.62A6.156,6.156,0,0,1,672.423,1318.112Z" transform="translate(-672.374 -1309.893)" fill="#3f5299"/>
              </g>
            </g>
            <g id="Grupo_1183989" data-name="Grupo 1183989" transform="translate(101.496 124.146)">
              <g id="Grupo_1183988" data-name="Grupo 1183988">
                <path id="Trazado_1046195" data-name="Trazado 1046195" d="M1057.319,1622.766a9.472,9.472,0,0,1,9.675,2.435c1.848,1.964,2.818,4.708,4.952,6.356,3.281,2.534,7.989,1.605,11.989,2.7a12.006,12.006,0,0,1,7.153,5.516c.757,1.312,1.261,2.765,2.109,4.02a9.306,9.306,0,0,0,1.789,1.917l.447,11.976c-.276-.112-.543-.244-.824-.345-6.546-2.331-14.319-1.286-19.993-5.3-2.894-2.047-4.825-5.157-7.269-7.725a25.307,25.307,0,0,0-8.867-6.016c-2.679-1.076-5.875-1.976-7.037-4.62a6.157,6.157,0,0,1-.388-3.144A9.476,9.476,0,0,1,1057.319,1622.766Z" transform="translate(-1051.007 -1622.314)" fill="#3f5299"/>
              </g>
            </g>
          </g>
          <g id="Grupo_1183991" data-name="Grupo 1183991" transform="translate(104.177 82.353)">
            <path id="Trazado_1046196" data-name="Trazado 1046196" d="M843.037,896.271c10.993,4.553,22.685,6.552,33.366-.844a5.411,5.411,0,0,0,1.328.946l1.486.479s-17.728,47.005-19.555,46.7c-1.235-.206-18.382-45.576-18.382-45.576l.187-1.03A9.956,9.956,0,0,0,843.037,896.271Z" transform="translate(-841.281 -895.427)" fill="#fff"/>
          </g>
          <g id="Grupo_1183992" data-name="Grupo 1183992" transform="translate(105.933 57.402)">
            <path id="Trazado_1046197" data-name="Trazado 1046197" d="M850.11,795.793a3.443,3.443,0,0,0,1.962-3.233l.191-8.013,13.451-2.252,15.7-12.3.391,21.138a5.427,5.427,0,0,0,1.675,3.813C872.8,802.345,861.1,800.346,850.11,795.793Z" transform="translate(-850.11 -769.998)" fill="#ff946e"/>
          </g>
          <g id="Grupo_1183993" data-name="Grupo 1183993" transform="translate(89.152 47.455)">
            <path id="Trazado_1046198" data-name="Trazado 1046198" d="M779.617,724.26s-5.5-5.619-10.125-3.958-5.243,11.631-.273,13.569,10.935-1.954,10.935-1.954Z" transform="translate(-765.75 -719.996)" fill="#e9623d"/>
          </g>
          <g id="Grupo_1183994" data-name="Grupo 1183994" transform="translate(90.926 50.659)">
            <path id="Trazado_1046199" data-name="Trazado 1046199" d="M777.243,744.618a.2.2,0,0,0,.072-.389,3.873,3.873,0,0,1-2.078-4.677,3.935,3.935,0,0,1,1.684-2.693c1-.549,2.469-.444,4.923.347a.2.2,0,0,0,.125-.386c-2.606-.841-4.125-.933-5.244-.317a4.851,4.851,0,0,0,.429,8.1A.2.2,0,0,0,777.243,744.618Z" transform="translate(-774.668 -736.104)" fill="#251d1b"/>
          </g>
          <g id="Grupo_1183995" data-name="Grupo 1183995" transform="translate(107.978 65.612)">
            <path id="Trazado_1046200" data-name="Trazado 1046200" d="M860.389,823.8l.109-7.35,13.452.533,5.243-4.107,7.206-1.6C880.611,827.719,864.164,825.283,860.389,823.8Z" transform="translate(-860.389 -811.272)" fill="#251d1b"/>
          </g>
          <g id="Grupo_1183996" data-name="Grupo 1183996" transform="translate(97.667 16.214)">
            <path id="Trazado_1046201" data-name="Trazado 1046201" d="M809.337,577.254c-1.177,3.85-.893,9.474-.007,17.352,1.23,10.939,1.869,25.352,17.17,27.894,6.885,1.144,12.3-1.681,16.179-5.136a26.993,26.993,0,0,0,8.283-15.069l3.208-16.426c2.341-11.637-5.432-20.5-17.143-22.442q-.405-.067-.821-.122C813.292,560.3,809.337,577.254,809.337,577.254Z" transform="translate(-808.556 -562.95)" fill="#ff946e"/>
          </g>
          <g id="Grupo_1183997" data-name="Grupo 1183997" transform="translate(114.136 47.512)">
            <path id="Trazado_1046202" data-name="Trazado 1046202" d="M894.151,731.424a.271.271,0,0,0,.127-.5,5.692,5.692,0,0,1-2.389-4.408c-.052-1.121.461-1.829,1.237-2.9a20.367,20.367,0,0,0,1.845-2.939.271.271,0,0,0-.483-.245,19.905,19.905,0,0,1-1.8,2.866,4.823,4.823,0,0,0-1.34,3.243A6.176,6.176,0,0,0,894,731.385.272.272,0,0,0,894.151,731.424Z" transform="translate(-891.345 -720.281)" fill="#251d1b"/>
          </g>
          <g id="Grupo_1183998" data-name="Grupo 1183998" transform="translate(125.826 45.714)">
            <path id="Trazado_1046203" data-name="Trazado 1046203" d="M950.114,713.623c-.06-1.289.315-2.353.839-2.377s1,1,1.055,2.289-.315,2.353-.839,2.377S950.173,714.912,950.114,713.623Z" transform="translate(-950.107 -711.246)" fill="#251d1b"/>
          </g>
          <g id="Grupo_1183999" data-name="Grupo 1183999" transform="translate(108.006 45.865)">
            <path id="Trazado_1046204" data-name="Trazado 1046204" d="M860.537,714.379c-.06-1.289.315-2.353.838-2.377s1,1,1.055,2.289-.315,2.353-.838,2.377S860.6,715.667,860.537,714.379Z" transform="translate(-860.53 -712.001)" fill="#251d1b"/>
          </g>
          <g id="Grupo_1184000" data-name="Grupo 1184000" transform="translate(123.481 36.464)">
            <path id="Trazado_1046205" data-name="Trazado 1046205" d="M938.329,666.685c.072.453.551.707.978.874a18.177,18.177,0,0,0,6.87,1.244,2.879,2.879,0,0,0,1.217-.21,1.6,1.6,0,0,0,.828-1.8,2.094,2.094,0,0,0-1.134-1.269,6.01,6.01,0,0,0-1.684-.467c-2.147-.369-4.517-.641-6.361.518C938.649,665.828,938.256,666.225,938.329,666.685Z" transform="translate(-938.321 -664.744)" fill="#251d1b"/>
          </g>
          <g id="Grupo_1184001" data-name="Grupo 1184001" transform="translate(103.726 37.313)">
            <path id="Trazado_1046206" data-name="Trazado 1046206" d="M840.768,672.47c1.354.1,3.126-.532,4.113-.507.871.022,2.635.467,2.783-.826a2.293,2.293,0,0,0-1.586-1.779,6.711,6.711,0,0,0-1.929-.294c-1.475-.077-3.812-.255-4.84,1.077a1.279,1.279,0,0,0-.243,1.153A1.725,1.725,0,0,0,840.768,672.47Z" transform="translate(-839.014 -669.011)" fill="#251d1b"/>
          </g>
          <g id="Grupo_1184002" data-name="Grupo 1184002" transform="translate(125.16 50.928)">
            <path id="Trazado_1046207" data-name="Trazado 1046207" d="M949.538,738.565c.127-.006.259-.016.4-.032a.2.2,0,0,0-.047-.4,3.713,3.713,0,0,1-2.786-.625.2.2,0,0,0-.273.3A3.863,3.863,0,0,0,949.538,738.565Z" transform="translate(-946.761 -737.452)" fill="#251d1b"/>
          </g>
          <g id="Grupo_1184003" data-name="Grupo 1184003" transform="translate(108.02 50.395)">
            <path id="Trazado_1046208" data-name="Trazado 1046208" d="M860.812,735.9a4.08,4.08,0,0,0,2.465-.771.2.2,0,0,0-.271-.3,3.79,3.79,0,0,1-2.213.668.2.2,0,0,0,.019.406Z" transform="translate(-860.6 -734.772)" fill="#251d1b"/>
          </g>
          <g id="Grupo_1184004" data-name="Grupo 1184004" transform="translate(117.382 69.795)">
            <path id="Trazado_1046209" data-name="Trazado 1046209" d="M909.464,836.722a.238.238,0,0,0,.16-.07.189.189,0,0,0-.02-.287c-.1-.079-2.442-1.954-1.057-3.748a.19.19,0,0,0-.056-.282.243.243,0,0,0-.315.053c-1.616,2.094,1.1,4.262,1.128,4.284A.24.24,0,0,0,909.464,836.722Z" transform="translate(-907.663 -832.299)" fill="#251d1b"/>
          </g>
          <g id="Grupo_1184005" data-name="Grupo 1184005" transform="translate(114.371 58.834)">
            <path id="Trazado_1046210" data-name="Trazado 1046210" d="M897.6,780.727c2.64-2,4.08-4.822,7.689-2.875s-1.9,8.208-6.441,8.1-6.625-1.921-6.29-3.694S896.558,781.52,897.6,780.727Z" transform="translate(-892.527 -777.197)" fill="#fff"/>
          </g>
          <g id="Grupo_1184006" data-name="Grupo 1184006" transform="translate(134.364 28.277)">
            <path id="Trazado_1046211" data-name="Trazado 1046211" d="M1000.8,643.875l-2.414,1.609s.1-19.51-4.324-21.32,6.838,1.207,6.838,1.207l3.822-1.006s-1.307,14.683-3.218,19.309Z" transform="translate(-993.031 -623.586)" fill="#251d1b"/>
          </g>
          <g id="Grupo_1184007" data-name="Grupo 1184007" transform="translate(95.972 28.218)">
            <path id="Trazado_1046212" data-name="Trazado 1046212" d="M802.695,643.336s.259-11.764,2.773-17.5-.4,0-.4,0l-5.028-.2s.955,14.023,2.363,17.845Z" transform="translate(-800.037 -623.292)" fill="#251d1b"/>
          </g>
          <g id="Grupo_1184008" data-name="Grupo 1184008" transform="translate(121.132 41.315)">
            <path id="Trazado_1046213" data-name="Trazado 1046213" d="M926.511,696.279a7.088,7.088,0,1,1,7.087,7.149A7.128,7.128,0,0,1,926.511,696.279Zm.436,0a6.651,6.651,0,1,0,6.651-6.714A6.69,6.69,0,0,0,926.947,696.279Z" transform="translate(-926.511 -689.129)" fill="#251d1b"/>
          </g>
          <g id="Grupo_1184009" data-name="Grupo 1184009" transform="translate(99.65 41.69)">
            <path id="Trazado_1046214" data-name="Trazado 1046214" d="M818.525,698.164a7.088,7.088,0,1,1,7.087,7.149A7.128,7.128,0,0,1,818.525,698.164Zm.436,0a6.651,6.651,0,1,0,6.651-6.714A6.69,6.69,0,0,0,818.961,698.164Z" transform="translate(-818.525 -691.014)" fill="#251d1b"/>
          </g>
          <g id="Grupo_1184010" data-name="Grupo 1184010" transform="translate(113.419 46.075)">
            <path id="Trazado_1046215" data-name="Trazado 1046215" d="M888.116,715.937c.014-.022,1.371-2.24,3.447-2.425,1.306-.119,2.632.585,3.946,2.081l.327-.286c-1.411-1.609-2.854-2.373-4.314-2.23-2.3.208-3.72,2.536-3.78,2.635Z" transform="translate(-887.742 -713.059)" fill="#251d1b"/>
          </g>
          <g id="Grupo_1184011" data-name="Grupo 1184011" transform="translate(98.117 48.192)">
            <path id="Trazado_1046216" data-name="Trazado 1046216" d="M812.476,724.97a.219.219,0,0,0,.11-.407l-1.439-.837a.219.219,0,0,0-.22.379l1.439.837A.238.238,0,0,0,812.476,724.97Z" transform="translate(-810.819 -723.698)" fill="#251d1b"/>
          </g>
          <g id="Grupo_1184012" data-name="Grupo 1184012" transform="translate(134.87 48.147)">
            <path id="Trazado_1046217" data-name="Trazado 1046217" d="M995.79,724.98a.18.18,0,0,0,.03,0l7.748-1.069a.218.218,0,0,0,.187-.246.224.224,0,0,0-.246-.188l-7.748,1.069a.218.218,0,0,0,.03.435Z" transform="translate(-995.572 -723.476)" fill="#251d1b"/>
          </g>
          <g id="Grupo_1184013" data-name="Grupo 1184013" transform="translate(138.514 46.445)">
            <path id="Trazado_1046218" data-name="Trazado 1046218" d="M1013.89,719.959s4.958-6.1,9.714-4.88,6.3,11.094,1.53,13.485-11.069-.932-11.069-.932Z" transform="translate(-1013.89 -714.917)" fill="#ff946e"/>
          </g>
          <g id="Grupo_1184014" data-name="Grupo 1184014" transform="translate(141.202 50.135)">
            <path id="Trazado_1046219" data-name="Trazado 1046219" d="M1032.956,741.853a.2.2,0,0,0,.088-.025,4.851,4.851,0,0,0-.324-8.1c-1.172-.509-2.676-.276-5.192.8a.2.2,0,1,0,.16.373c2.369-1.016,3.825-1.256,4.869-.8a3.935,3.935,0,0,1,1.926,2.525,3.873,3.873,0,0,1-1.635,4.849.2.2,0,0,0,.108.381Z" transform="translate(-1027.405 -733.467)" fill="#251d1b"/>
          </g>
          <g id="Grupo_1184015" data-name="Grupo 1184015" transform="translate(122.971 76.046)">
            <path id="Trazado_1046220" data-name="Trazado 1046220" d="M950.782,865.266c2.469.411,4.33,3.734,4.12,6.189s-19.143,47.524-19.143,47.524l17.081-13.788.823-19.962,7.2-12.759a10.655,10.655,0,0,1-4.733-4.527,9.407,9.407,0,0,0-5.814-4.219l.052,1.492Z" transform="translate(-935.759 -863.723)" fill="#adb9eb"/>
          </g>
          <g id="Grupo_1184016" data-name="Grupo 1184016" transform="translate(97.658 77.453)">
            <path id="Trazado_1046221" data-name="Trazado 1046221" d="M818.828,871.479s-3.529.273-3.735,1.92-.412,4.733.823,7.2,17.9,44.04,17.9,44.04l-17.9-15.229,1.441-17.493-8.849-13.171s4.528-1.441,4.528-2.744,1.235-4.733,2.744-4.939,3.087-.274,3.087-.274Z" transform="translate(-808.508 -870.792)" fill="#adb9eb"/>
          </g>
          <g id="Grupo_1184017" data-name="Grupo 1184017" transform="translate(123.357 131.757)">
            <path id="Trazado_1046222" data-name="Trazado 1046222" d="M942.526,1284.868h.014a.437.437,0,0,0,.423-.45l-4.39-140.215a.43.43,0,0,0-.45-.423.437.437,0,0,0-.423.45l4.39,140.215A.437.437,0,0,0,942.526,1284.868Z" transform="translate(-937.7 -1143.778)" fill="#251d1b"/>
          </g>
          <g id="Grupo_1184018" data-name="Grupo 1184018" transform="translate(11.194 107.136)">
            <path id="Trazado_1046223" data-name="Trazado 1046223" d="M400.683,1149.311c.3,0,.61-.007.916-.021l-1.549-34.875c7.027-.309,11.492,4.22,12.442,6.335-4.261-9.486-4.641-58.7-2.321-98.721l-34.851-2.02c-.059,1.024-1.453,25.369-1.46,51.569-.015,54.6,5.968,65.231,12.1,71.444A20.539,20.539,0,0,0,400.683,1149.311Z" transform="translate(-373.861 -1020.01)" fill="#ff946e"/>
          </g>
          <g id="Grupo_1184033" data-name="Grupo 1184033" transform="translate(0 51.032)">
            <g id="Grupo_1184019" data-name="Grupo 1184019" transform="translate(3.753 31.014)">
              <path id="Trazado_1046224" data-name="Trazado 1046224" d="M378.693,935.095s8.614-11.881,3.769-24.721c-2.839-7.525-12.9-16.493-12.9-16.493s-32.8,5.6-33.1,12.712,8.245,32.445,8.245,32.445Z" transform="translate(-336.455 -893.881)" fill="#ff946e"/>
            </g>
            <g id="Grupo_1184020" data-name="Grupo 1184020" transform="translate(39.453 23.182)">
              <path id="Trazado_1046225" data-name="Trazado 1046225" d="M521.892,894.254a4.822,4.822,0,0,0,3.591-3.84c2.081-11.729,5.327-25.958,6.942-28.492a4.822,4.822,0,0,0-8.135-5.181c-3.379,5.309-7.209,25.827-8.3,31.988a4.824,4.824,0,0,0,5.9,5.525Z" transform="translate(-515.914 -854.51)" fill="#ff946e"/>
            </g>
            <g id="Grupo_1184021" data-name="Grupo 1184021" transform="translate(21.449)">
              <path id="Trazado_1046226" data-name="Trazado 1046226" d="M440.633,785.081a4.825,4.825,0,0,0,4.438-6.3c-.061-.185-5.985-18.6-8.023-27.659l-2.11-9.379a4.821,4.821,0,1,0-9.407,2.117l2.11,9.379c2.134,9.482,8,27.727,8.251,28.5A4.825,4.825,0,0,0,440.633,785.081Z" transform="translate(-425.412 -737.975)" fill="#ff946e"/>
            </g>
            <g id="Grupo_1184022" data-name="Grupo 1184022" transform="translate(28.68 46.165)">
              <path id="Trazado_1046227" data-name="Trazado 1046227" d="M463.894,993.133a.4.4,0,0,0,.275-.543c-6.034-14.689,6.586-21.506,7.127-21.789a.4.4,0,0,0-.372-.713c-.139.073-13.815,7.431-7.5,22.808A.4.4,0,0,0,463.894,993.133Z" transform="translate(-461.76 -970.042)" fill="#251d1b"/>
            </g>
            <g id="Grupo_1184023" data-name="Grupo 1184023" transform="translate(9.423 35.806)">
              <path id="Trazado_1046228" data-name="Trazado 1046228" d="M365.393,927.813a.433.433,0,0,0,.116-.027c.178-.071,17.823-7.1,24.424-9.031a.4.4,0,0,0-.227-.772c-6.635,1.938-24.317,8.985-24.494,9.056a.4.4,0,0,0,.181.774Z" transform="translate(-364.958 -917.969)" fill="#251d1b"/>
            </g>
            <g id="Grupo_1184032" data-name="Grupo 1184032" transform="translate(0 26.422)">
              <g id="Grupo_1184024" data-name="Grupo 1184024">
                <path id="Trazado_1046229" data-name="Trazado 1046229" d="M338.552,871.069a5.667,5.667,0,0,0-3.738,4.021,5.449,5.449,0,0,0-5.088-.711,5.654,5.654,0,0,0-3.839,4.345,4.5,4.5,0,0,0-.033.812,4.831,4.831,0,0,0-4.781-.824,5.068,5.068,0,0,0-3.441,3.9,3.931,3.931,0,0,0,.135,1.787l4.041,12.7a4.493,4.493,0,0,0,5.914,2.521,5.086,5.086,0,0,0,3.374-3.643,5.2,5.2,0,0,0,6.045,1.722,5.679,5.679,0,0,0,3.751-4.01,5.453,5.453,0,0,0,5.075.7,5.529,5.529,0,0,0,3.771-4.487c-.968-6.288-2.679-10.758-5.347-18.715A13.262,13.262,0,0,0,338.552,871.069Z" transform="translate(-317.588 -870.795)" fill="#e9623d"/>
              </g>
              <g id="Grupo_1184025" data-name="Grupo 1184025" transform="translate(26.749 1.736)">
                <path id="Trazado_1046230" data-name="Trazado 1046230" d="M457.387,896.271a.215.215,0,0,0,.37-.186l-5.3-16.441a.2.2,0,0,0-.255-.108.2.2,0,0,0-.141.245l5.3,16.441A.17.17,0,0,0,457.387,896.271Z" transform="translate(-452.055 -879.524)" fill="#251d1b"/>
              </g>
              <g id="Grupo_1184026" data-name="Grupo 1184026" transform="translate(20.302 12.47)">
                <path id="Trazado_1046231" data-name="Trazado 1046231" d="M422.477,944.021a.2.2,0,0,0,.221.061.206.206,0,0,0,.152-.241l-2.8-10.234a.19.19,0,0,0-.249-.117.206.206,0,0,0-.152.241l2.8,10.234A.162.162,0,0,0,422.477,944.021Z" transform="translate(-419.645 -933.481)" fill="#251d1b"/>
              </g>
              <g id="Grupo_1184027" data-name="Grupo 1184027" transform="translate(8.873 9.336)">
                <path id="Trazado_1046232" data-name="Trazado 1046232" d="M365.256,929.68a.2.2,0,0,0,.219.061.206.206,0,0,0,.154-.239L362.6,917.857a.186.186,0,0,0-.247-.12.206.206,0,0,0-.154.239l3.029,11.645A.143.143,0,0,0,365.256,929.68Z" transform="translate(-362.194 -917.727)" fill="#251d1b"/>
              </g>
              <g id="Grupo_1184028" data-name="Grupo 1184028" transform="translate(12.967 23.33)">
                <path id="Trazado_1046233" data-name="Trazado 1046233" d="M383.143,990.041a.2.2,0,0,0,.209.065.211.211,0,0,0,.166-.233l-.337-1.661a.188.188,0,0,0-.24-.132.211.211,0,0,0-.166.233l.337,1.661A.162.162,0,0,0,383.143,990.041Z" transform="translate(-382.772 -988.073)" fill="#251d1b"/>
              </g>
              <g id="Grupo_1184029" data-name="Grupo 1184029" transform="translate(23.721 15.441)">
                <path id="Trazado_1046234" data-name="Trazado 1046234" d="M436.835,951.139a.182.182,0,0,0,.006.056l.982,3.781a.174.174,0,0,0,.115.122,6.365,6.365,0,0,0,4.647-.4.194.194,0,1,0-.175-.342,6.057,6.057,0,0,1-4.2.406l-.936-3.6c1.793-2.424,4.952-2.377,5.628-2.337l.867,3.119a.2.2,0,0,0,.258.12.214.214,0,0,0,.156-.249l-.9-3.24a.183.183,0,0,0-.162-.131c-.041,0-4.1-.42-6.254,2.6A.2.2,0,0,0,436.835,951.139Z" transform="translate(-436.834 -948.417)" fill="#251d1b"/>
              </g>
              <g id="Grupo_1184030" data-name="Grupo 1184030" transform="translate(14.156 18.365)">
                <path id="Trazado_1046235" data-name="Trazado 1046235" d="M388.752,965.836a.188.188,0,0,0,.006.056l.982,3.781a.174.174,0,0,0,.115.122,6.364,6.364,0,0,0,4.647-.4.193.193,0,1,0-.175-.342,6.058,6.058,0,0,1-4.2.406l-.936-3.6c1.793-2.424,4.952-2.377,5.628-2.337l.867,3.119a.2.2,0,0,0,.258.121.215.215,0,0,0,.156-.249l-.9-3.24a.183.183,0,0,0-.162-.131c-.041,0-4.1-.42-6.254,2.6A.2.2,0,0,0,388.752,965.836Z" transform="translate(-388.751 -963.114)" fill="#251d1b"/>
              </g>
              <g id="Grupo_1184031" data-name="Grupo 1184031" transform="translate(4.556 20.618)">
                <path id="Trazado_1046236" data-name="Trazado 1046236" d="M340.491,977.016a.17.17,0,0,0,.006.053l.93,3.581a.164.164,0,0,0,.109.115,6.027,6.027,0,0,0,4.4-.381.183.183,0,1,0-.166-.324,5.736,5.736,0,0,1-3.973.385l-.887-3.413c1.7-2.3,4.691-2.251,5.331-2.214l.821,2.955a.186.186,0,0,0,.244.114.2.2,0,0,0,.148-.236l-.853-3.068a.173.173,0,0,0-.153-.124c-.039,0-3.884-.4-5.923,2.461A.192.192,0,0,0,340.491,977.016Z" transform="translate(-340.491 -974.439)" fill="#251d1b"/>
              </g>
            </g>
          </g>
          <g id="Grupo_1184034" data-name="Grupo 1184034" transform="translate(66.146 150.445)">
            <path id="Trazado_1046237" data-name="Trazado 1046237" d="M650.536,1277.255a.437.437,0,0,0,.436-.433l.254-38.662a.436.436,0,0,0-.434-.44h0a.437.437,0,0,0-.436.433l-.254,38.662A.42.42,0,0,0,650.536,1277.255Z" transform="translate(-650.1 -1237.72)" fill="#251d1b"/>
          </g>
          <g id="Grupo_1184035" data-name="Grupo 1184035" transform="translate(61.472 152.949)">
            <path id="Trazado_1046238" data-name="Trazado 1046238" d="M631.564,1262.977a.436.436,0,0,0,.222-.811c-.525-.639-2.611-6.394-4.332-11.557a.437.437,0,1,0-.828.276c3.954,11.862,4.57,12.014,4.833,12.078A.392.392,0,0,0,631.564,1262.977Z" transform="translate(-626.604 -1250.312)" fill="#251d1b"/>
          </g>
          <g id="Grupo_1184036" data-name="Grupo 1184036" transform="translate(123.594 84.357)">
            <path id="Trazado_1046239" data-name="Trazado 1046239" d="M939.328,952.1a.442.442,0,0,0,.275-.1L955.625,939a.439.439,0,0,0,.161-.321l.818-19.858,7.151-12.668a.436.436,0,1,0-.76-.429l-7.2,12.76a.443.443,0,0,0-.056.2l-.815,19.766-15.869,12.885a.437.437,0,0,0,.275.775Z" transform="translate(-938.892 -905.499)" fill="#251d1b"/>
          </g>
          <g id="Grupo_1184037" data-name="Grupo 1184037" transform="translate(97.905 86.462)">
            <path id="Trazado_1046240" data-name="Trazado 1046240" d="M830.547,958.155a.437.437,0,0,0,.289-.764l-13.469-11.88,1.422-17.274a.438.438,0,0,0-.077-.286l-8.165-11.683a.437.437,0,0,0-.716.5l8.075,11.553-1.428,17.335a.433.433,0,0,0,.146.363l13.633,12.026A.435.435,0,0,0,830.547,958.155Z" transform="translate(-809.753 -916.082)" fill="#251d1b"/>
          </g>
          <g id="Grupo_1184038" data-name="Grupo 1184038" transform="translate(186.364 151.656)">
            <path id="Trazado_1046241" data-name="Trazado 1046241" d="M1255.192,1263.746h.008a.436.436,0,0,0,.429-.443l-.323-19.063a.462.462,0,0,0-.444-.429.436.436,0,0,0-.429.443l.323,19.063A.437.437,0,0,0,1255.192,1263.746Z" transform="translate(-1254.432 -1243.81)" fill="#251d1b"/>
          </g>
          <g id="Grupo_1184039" data-name="Grupo 1184039" transform="translate(186.365 152.624)">
            <path id="Trazado_1046242" data-name="Trazado 1046242" d="M1254.874,1256.658a.433.433,0,0,0,.36-.191l4.847-7.11a.436.436,0,1,0-.721-.491l-4.847,7.11a.437.437,0,0,0,.115.607A.432.432,0,0,0,1254.874,1256.658Z" transform="translate(-1254.437 -1248.676)" fill="#251d1b"/>
          </g>
          <g id="Grupo_1184040" data-name="Grupo 1184040" transform="translate(189.999 112.881)">
            <path id="Trazado_1046243" data-name="Trazado 1046243" d="M1273.141,1065.513a.437.437,0,0,0,.421-.322c1.424-5.222,6.936-15.557,6.991-15.661a.436.436,0,1,0-.769-.413c-.229.428-5.614,10.527-7.064,15.845a.436.436,0,0,0,.306.535A.486.486,0,0,0,1273.141,1065.513Z" transform="translate(-1272.704 -1048.888)" fill="#251d1b"/>
          </g>
          <g id="Grupo_1184041" data-name="Grupo 1184041" transform="translate(57.433 108.517)">
            <path id="Trazado_1046244" data-name="Trazado 1046244" d="M614.249,1045.758h.034a.436.436,0,0,0,.4-.469c-.245-3.2-7.257-17.485-7.556-18.092a.436.436,0,1,0-.782.385c.072.146,7.236,14.742,7.469,17.775A.434.434,0,0,0,614.249,1045.758Z" transform="translate(-606.301 -1026.952)" fill="#251d1b"/>
          </g>
          <g id="Grupo_1184042" data-name="Grupo 1184042" transform="translate(111.558 87.192)">
            <path id="Trazado_1046245" data-name="Trazado 1046245" d="M888.523,922.6a56.828,56.828,0,0,0,14.659-2,.436.436,0,0,0-.254-.835c-.127.039-12.78,3.808-24,.8a.436.436,0,1,0-.225.842A38.2,38.2,0,0,0,888.523,922.6Z" transform="translate(-878.383 -919.751)" fill="#251d1b"/>
          </g>
          <g id="Grupo_1184043" data-name="Grupo 1184043" transform="translate(126.858 135.774)">
            <circle id="Elipse_14183" data-name="Elipse 14183" cx="1.696" cy="1.696" r="1.696" fill="#251d1b"/>
          </g>
          <g id="Grupo_1184044" data-name="Grupo 1184044" transform="translate(126.346 159.975)">
            <circle id="Elipse_14184" data-name="Elipse 14184" cx="1.696" cy="1.696" r="1.696" transform="translate(0 1.298) rotate(-22.5)" fill="#251d1b"/>
          </g>
          <g id="Grupo_1184045" data-name="Grupo 1184045" transform="translate(132.109 261.15)">
            <circle id="Elipse_14185" data-name="Elipse 14185" cx="1.696" cy="1.696" r="1.696" fill="#251d1b"/>
          </g>
          <g id="Grupo_1184046" data-name="Grupo 1184046" transform="translate(127.472 276.774)">
            <path id="Trazado_1046246" data-name="Trazado 1046246" d="M974.745,1887.493q.933,0,1.9-.073c3.27-.251,8.463-.849,13.96-1.48,8.384-.965,17.883-2.059,19.988-1.8a.436.436,0,1,0,.109-.866c-2.211-.274-11.353.777-20.2,1.793-5.489.631-10.673,1.227-13.927,1.478a28.11,28.11,0,0,1-14.9-3.334l-2.426-10.108a.432.432,0,0,0-.526-.322.437.437,0,0,0-.323.527l2.47,10.291a.44.44,0,0,0,.2.271A28.635,28.635,0,0,0,974.745,1887.493Z" transform="translate(-958.386 -1872.773)" fill="#251d1b"/>
          </g>
          <g id="Grupo_1184047" data-name="Grupo 1184047" transform="translate(70.861 286.401)">
            <path id="Trazado_1046247" data-name="Trazado 1046247" d="M718.751,1924.443a.436.436,0,0,0,.029-.871c-.1-.007-9.75-.661-22.051-1.093-12.281-.431-22.35-1.3-22.45-1.307a.425.425,0,0,0-.472.4.435.435,0,0,0,.4.472c.1.009,10.19.88,22.495,1.311,12.287.431,21.926,1.084,22.022,1.089A.183.183,0,0,0,718.751,1924.443Z" transform="translate(-673.805 -1921.166)" fill="#251d1b"/>
          </g>
          <g id="Grupo_1184048" data-name="Grupo 1184048" transform="translate(46.716 187.06)">
            <path id="Trazado_1046248" data-name="Trazado 1046248" d="M554.607,1438.078c.017,0,.033,0,.05,0a.436.436,0,0,0,.384-.483l-1.745-15.419a.437.437,0,0,0-.868.1l1.745,15.419A.437.437,0,0,0,554.607,1438.078Z" transform="translate(-552.426 -1421.787)" fill="#251d1b"/>
          </g>
          <g id="Grupo_1184049" data-name="Grupo 1184049" transform="translate(16.037 212.513)">
            <path id="Trazado_1046249" data-name="Trazado 1046249" d="M404.156,1550.537c11.19-3.73,20.612,6.147,29.858,17.857a28.773,28.773,0,0,1-12.709,4.961l.013.285c-.306.014-.612.021-.916.021-.466,0-.927-.038-1.389-.07-.688.043-1.366.066-2.025.066v-.308a20.745,20.745,0,0,1-11.31-5.979c-2.683-2.719-5.338-6.286-7.474-14.014A29.921,29.921,0,0,1,404.156,1550.537Z" transform="translate(-398.204 -1549.737)" fill="#e9623d"/>
          </g>
          <g id="Grupo_1184050" data-name="Grupo 1184050" transform="translate(26.848 220.264)">
            <path id="Trazado_1046250" data-name="Trazado 1046250" d="M459.5,1598.665c4.6,0,6.712-1.883,6.811-1.974a.436.436,0,0,0-.588-.644c-.026.022-2.576,2.255-8.167,1.634a4.459,4.459,0,0,1-4.135-4.6c-.011-1.59.733-3.295,2.177-3.475a3.726,3.726,0,0,1,3.9,2.471,1.511,1.511,0,0,1-.868,1.937.436.436,0,1,0,.366.791,2.376,2.376,0,0,0,1.34-2.968,4.562,4.562,0,0,0-4.85-3.1c-1.72.215-2.957,2.044-2.941,4.347a5.345,5.345,0,0,0,4.911,5.465A18.316,18.316,0,0,0,459.5,1598.665Z" transform="translate(-452.55 -1588.7)" fill="#251d1b"/>
          </g>
          <g id="Grupo_1184051" data-name="Grupo 1184051" transform="translate(87.933 3.083)">
            <path id="Trazado_1046251" data-name="Trazado 1046251" d="M817.461,524.7c4.267-.914,3.054-14.254-2.327-15.563s-8.145,1.6-13.382-1.891-4.218-9.745-9.891-10.182-16.873,0-15.418,5.964-2.327,9.891-6.836,8.145-11.345,1.455-9.745,7.273,7.854,10.618,11.054,9.745,7.854-9.455,19.491-9.745S801.17,528.188,817.461,524.7Z" transform="translate(-759.624 -496.937)" fill="#251d1b"/>
          </g>
          <g id="Grupo_1184052" data-name="Grupo 1184052" transform="translate(104.861)">
            <path id="Trazado_1046252" data-name="Trazado 1046252" d="M886.428,500.7c.239-4.3-2.366-6.355-8.709-6.885-1.682-.14-2.986-.172-4.033-.2-2.978-.073-3.686-.092-4.844-2.409a22.336,22.336,0,0,1-.957-2.431c-1.229-3.486-2.77-7.819-8.1-7.288l-1.5.147c-6.494.631-13.211,1.283-13.533,4.081a6.1,6.1,0,0,0,1.7,4.875l.3-.317a5.76,5.76,0,0,1-1.57-4.507c.283-2.448,7.115-3.112,13.143-3.7l1.5-.148c4.991-.481,6.464,3.661,7.642,7a22.537,22.537,0,0,0,.978,2.48c1.276,2.552,2.191,2.576,5.224,2.651,1.041.026,2.339.058,4.008.2,6.127.51,8.535,2.371,8.309,6.424Z" transform="translate(-844.718 -481.441)" fill="#251d1b"/>
          </g>
          <g id="Grupo_1184053" data-name="Grupo 1184053" transform="translate(93.452 16.059)">
            <path id="Trazado_1046253" data-name="Trazado 1046253" d="M795.137,573.83q.169,0,.338-.005c4.675-.135,6.6-4.3,8.306-7.982.2-.443.407-.881.612-1.3.545-1.134,2.252-1.815,4.808-1.921,4.752-.177,11.227,1.65,12.843,4.408,2.114,3.605,3.568,4.006,6.753,4.882.624.171,1.317.361,2.1.6a.217.217,0,1,0,.126-.416c-.787-.239-1.484-.431-2.11-.6-3.16-.869-4.467-1.229-6.492-4.682-1.692-2.886-8.362-4.832-13.237-4.621-2.724.111-4.565.88-5.183,2.165-.2.426-.408.866-.614,1.313-1.649,3.562-3.517,7.6-7.922,7.728-3.167.1-6.211-1.186-7.276-3.034a2.541,2.541,0,0,1,.049-2.743,2.02,2.02,0,0,1,1.558-1.115c.033,0,.067,0,.1,0,1.392,0,2.772,1.7,2.785,1.721a.214.214,0,0,0,.307.034.219.219,0,0,0,.034-.307c-.063-.078-1.527-1.885-3.127-1.885-.042,0-.083,0-.126,0a2.432,2.432,0,0,0-1.9,1.323,2.954,2.954,0,0,0-.056,3.189C788.926,572.516,791.908,573.83,795.137,573.83Z" transform="translate(-787.368 -562.168)" fill="#fff"/>
          </g>
        </g>
        <g id="Grupo_1184063" data-name="Grupo 1184063" transform="translate(174.539 25.626)">
          <g id="Grupo_1184055" data-name="Grupo 1184055" transform="translate(0 0)">
            <circle id="Elipse_14186" data-name="Elipse 14186" cx="11.791" cy="11.791" r="11.791" transform="translate(0 5.587) rotate(-13.704)" fill="#a0ac76"/>
          </g>
          <g id="Grupo_1184056" data-name="Grupo 1184056" transform="translate(33.63 7.531)">
            <path id="Trazado_1046254" data-name="Trazado 1046254" d="M1371.992,614.319h-21.081a1.709,1.709,0,1,1,0-3.419h21.081a1.709,1.709,0,1,1,0,3.419Z" transform="translate(-1349.202 -610.9)" fill="#f7ead7"/>
          </g>
          <g id="Grupo_1184057" data-name="Grupo 1184057" transform="translate(32.916 18.25)">
            <path id="Trazado_1046255" data-name="Trazado 1046255" d="M1402.122,671.591H1347.1a1.709,1.709,0,1,1,0-3.419h55.025a1.709,1.709,0,0,1,0,3.419Z" transform="translate(-1345.388 -668.172)" fill="#f7ead7"/>
          </g>
          <g id="Grupo_1184058" data-name="Grupo 1184058" transform="translate(6.083 7.107)">
            <path id="Trazado_1046256" data-name="Trazado 1046256" d="M1209.093,622.622l-7.073-7.073,2.418-2.417,4.359,4.36,7.028-8.857,2.676,2.123Z" transform="translate(-1202.02 -608.635)" fill="#fff"/>
          </g>
          <g id="Grupo_1184059" data-name="Grupo 1184059" transform="translate(2.31 35.875)">
            <circle id="Elipse_14187" data-name="Elipse 14187" cx="11.791" cy="11.791" r="11.791" transform="translate(0 23.579) rotate(-89.175)" fill="#a0ac76"/>
          </g>
          <g id="Grupo_1184060" data-name="Grupo 1184060" transform="translate(33.63 41.117)">
            <path id="Trazado_1046257" data-name="Trazado 1046257" d="M1371.992,793.768h-21.081a1.709,1.709,0,1,1,0-3.419h21.081a1.709,1.709,0,1,1,0,3.419Z" transform="translate(-1349.202 -790.349)" fill="#f7ead7"/>
          </g>
          <g id="Grupo_1184061" data-name="Grupo 1184061" transform="translate(32.916 51.836)">
            <path id="Trazado_1046258" data-name="Trazado 1046258" d="M1402.122,851.04H1347.1a1.709,1.709,0,1,1,0-3.419h55.025a1.709,1.709,0,0,1,0,3.419Z" transform="translate(-1345.388 -847.621)" fill="#f7ead7"/>
          </g>
          <g id="Grupo_1184062" data-name="Grupo 1184062" transform="translate(6.083 40.693)">
            <path id="Trazado_1046259" data-name="Trazado 1046259" d="M1209.093,802.073,1202.02,795l2.418-2.417,4.359,4.36,7.028-8.858,2.676,2.123Z" transform="translate(-1202.02 -788.084)" fill="#fff"/>
          </g>
        </g>
        <g id="Grupo_1184067" data-name="Grupo 1184067" transform="translate(279.551 16.866)">
          <g id="Grupo_1184064" data-name="Grupo 1184064" transform="translate(0 2.195)">
            <path id="Trazado_1046260" data-name="Trazado 1046260" d="M1743.924,562.242a13.328,13.328,0,1,1,4.948-25.7.23.23,0,0,1,.126.3l-4.748,11.87,12.742.98a.229.229,0,0,1,.209.244A13.374,13.374,0,0,1,1743.924,562.242Zm0-26.2a12.875,12.875,0,1,0,12.806,14.088l-12.823-.987a.238.238,0,0,1-.175-.106.233.233,0,0,1-.018-.206l4.778-11.945A12.732,12.732,0,0,0,1743.924,536.039Z" transform="translate(-1730.596 -535.585)" fill="#fdf6ea"/>
          </g>
          <g id="Grupo_1184065" data-name="Grupo 1184065" transform="translate(17.742)">
            <path id="Trazado_1046261" data-name="Trazado 1046261" d="M1838.667,537.473h-.018l-13.05-1a.237.237,0,0,1-.176-.106.234.234,0,0,1-.018-.206L1830.269,524a.228.228,0,0,1,.3-.126,13.265,13.265,0,0,1,8.378,12.368c0,.351-.025.691-.05,1.022a.23.23,0,0,1-.08.154A.22.22,0,0,1,1838.667,537.473Zm-12.723-1.433,12.515.964c.018-.252.032-.5.032-.762a12.814,12.814,0,0,0-7.884-11.861Z" transform="translate(-1825.39 -523.858)" fill="#fdf6ea"/>
          </g>
          <g id="Grupo_1184066" data-name="Grupo 1184066" transform="translate(2.151 3.458)">
            <path id="Trazado_1046262" data-name="Trazado 1046262" d="M1742.314,561.653a.227.227,0,0,1-.122-.418l10.784-6.92-5.444-11.659a.227.227,0,0,1,.411-.191l5.528,11.838a.228.228,0,0,1-.083.287l-10.951,7.028A.231.231,0,0,1,1742.314,561.653Z" transform="translate(-1742.087 -542.332)" fill="#fdf6ea"/>
          </g>
        </g>
        <g id="Grupo_1184080" data-name="Grupo 1184080" transform="translate(355.23 247.351)">
          <g id="Grupo_1184068" data-name="Grupo 1184068" transform="translate(6.826 10.038)">
            <path id="Trazado_1046263" data-name="Trazado 1046263" d="M2171.43,1859.87c1.5-5.42,2.921-10.84,4.308-16.179l1.331-5.106c1.2-4.609,2.57-9.831,5.254-14.351,3.79-6.377,10.007-11.028,15.492-15.132a.593.593,0,1,1,.711.948c-5.4,4.038-11.517,8.613-15.187,14.79-2.6,4.373-3.942,9.511-5.128,14.044l-1.33,5.1c-1.335,5.142-2.7,10.359-4.141,15.58A5.66,5.66,0,0,0,2171.43,1859.87Z" transform="translate(-2171.43 -1808.984)" fill="#cfe3dc"/>
          </g>
          <g id="Grupo_1184069" data-name="Grupo 1184069" transform="translate(31.479)">
            <path id="Trazado_1046264" data-name="Trazado 1046264" d="M2316.193,1760.154a10.971,10.971,0,0,0-2.019-3.082,4.367,4.367,0,0,0-3.469-1.706,5.286,5.286,0,0,0-2.107.9,11.33,11.33,0,0,0-3.212,2.567,10.21,10.21,0,0,0-1.108,1.98c-.749,1.638-1.427,3.453-1,5.2a2.509,2.509,0,0,0,1.182,1.693,3.472,3.472,0,0,0,1.514.256c1.794.032,3.7.035,5.229-.9a8.9,8.9,0,0,0,1.706-1.481q1.482-1.542,2.869-3.172a2.353,2.353,0,0,0,.646-1.154A2.141,2.141,0,0,0,2316.193,1760.154Z" transform="translate(-2303.148 -1755.35)" fill="#cfe3dc"/>
          </g>
          <g id="Grupo_1184070" data-name="Grupo 1184070" transform="translate(17.758 4.761)">
            <path id="Trazado_1046265" data-name="Trazado 1046265" d="M2237.729,1791.3a3.729,3.729,0,0,0,1.161-4.262l-.553-2.213a6.431,6.431,0,0,0-1.4-3.1c-1.424-1.427-4-1.128-5.454.266a5.874,5.874,0,0,0-1.5,5.465,8.211,8.211,0,0,0,3.325,4.745,3.226,3.226,0,0,0,1.96.743A3.819,3.819,0,0,0,2237.729,1791.3Z" transform="translate(-2229.835 -1780.79)" fill="#cfe3dc"/>
          </g>
          <g id="Grupo_1184071" data-name="Grupo 1184071" transform="translate(9.146 15.16)">
            <path id="Trazado_1046266" data-name="Trazado 1046266" d="M2193.254,1843.532a3.4,3.4,0,0,0-1.109-3.877l-1.478-1.467a5.872,5.872,0,0,0-2.555-1.757,3.7,3.7,0,0,0-4.133,2.785,5.362,5.362,0,0,0,1.413,4.976,7.5,7.5,0,0,0,4.84,2.134,2.942,2.942,0,0,0,1.882-.346A3.485,3.485,0,0,0,2193.254,1843.532Z" transform="translate(-2183.824 -1836.352)" fill="#cfe3dc"/>
          </g>
          <g id="Grupo_1184072" data-name="Grupo 1184072" transform="translate(4.588 25.312)">
            <path id="Trazado_1046267" data-name="Trazado 1046267" d="M2168.042,1899.014a3.4,3.4,0,0,0-.169-4.029l-1.093-1.772a5.87,5.87,0,0,0-2.072-2.307,3.7,3.7,0,0,0-4.671,1.739,5.362,5.362,0,0,0,.207,5.169,7.5,7.5,0,0,0,4.2,3.209,2.946,2.946,0,0,0,1.911.1A3.477,3.477,0,0,0,2168.042,1899.014Z" transform="translate(-2159.467 -1890.592)" fill="#cfe3dc"/>
          </g>
          <g id="Grupo_1184073" data-name="Grupo 1184073" transform="translate(25.856 16.408)">
            <path id="Trazado_1046268" data-name="Trazado 1046268" d="M2283.97,1848.592l-.988,2.523c-.284.726-.65,1.533-1.387,1.787a2.5,2.5,0,0,1-1.6-.148,14.92,14.92,0,0,1-6.414-4.339,1.748,1.748,0,0,1-.465-.816c-.084-.508.259-.981.365-1.486a8.638,8.638,0,0,1,.164-1.309,2.076,2.076,0,0,1,1.068-1,7.617,7.617,0,0,1,8.823,1.542,2.854,2.854,0,0,1,.792,1.377A3.526,3.526,0,0,1,2283.97,1848.592Z" transform="translate(-2273.105 -1843.02)" fill="#cfe3dc"/>
          </g>
          <g id="Grupo_1184074" data-name="Grupo 1184074" transform="translate(19.04 24.251)">
            <path id="Trazado_1046269" data-name="Trazado 1046269" d="M2245.275,1889.327l-.781,1.994c-.225.574-.513,1.212-1.1,1.412a1.976,1.976,0,0,1-1.263-.117,11.791,11.791,0,0,1-5.069-3.429,1.384,1.384,0,0,1-.368-.644c-.066-.4.2-.776.288-1.174a6.784,6.784,0,0,1,.13-1.035,1.638,1.638,0,0,1,.844-.793,6.019,6.019,0,0,1,6.973,1.218,2.253,2.253,0,0,1,.626,1.088A2.793,2.793,0,0,1,2245.275,1889.327Z" transform="translate(-2236.688 -1884.924)" fill="#cfe3dc"/>
          </g>
          <g id="Grupo_1184075" data-name="Grupo 1184075" transform="translate(15.772 32.908)">
            <path id="Trazado_1046270" data-name="Trazado 1046270" d="M2227.909,1933.911q.023,1.071.047,2.141a2.174,2.174,0,0,1-.468,1.725,1.976,1.976,0,0,1-1.211.378,11.79,11.79,0,0,1-6-1.213,1.379,1.379,0,0,1-.587-.453c-.216-.345-.11-.794-.186-1.194a6.815,6.815,0,0,1-.279-1,1.642,1.642,0,0,1,.474-1.057,6.02,6.02,0,0,1,6.9-1.56,2.256,2.256,0,0,1,1,.764A2.785,2.785,0,0,1,2227.909,1933.911Z" transform="translate(-2219.226 -1931.178)" fill="#cfe3dc"/>
          </g>
          <g id="Grupo_1184076" data-name="Grupo 1184076" transform="translate(1.302 36.552)">
            <path id="Trazado_1046271" data-name="Trazado 1046271" d="M2149.2,1961.392a2.122,2.122,0,0,0,1.659-.766,3.5,3.5,0,0,0,.626-3.042,8.543,8.543,0,0,0-1.4-2.879q-.753-1.11-1.595-2.155a5.263,5.263,0,0,0-1.982-1.7,3.377,3.377,0,0,0-3.913,1.363,4.772,4.772,0,0,0-.31,4.306,8.326,8.326,0,0,0,2.779,3.453,5.122,5.122,0,0,0,1.662.926c.473.137.97.162,1.45.274A6.13,6.13,0,0,0,2149.2,1961.392Z" transform="translate(-2141.913 -1950.646)" fill="#cfe3dc"/>
          </g>
          <g id="Grupo_1184077" data-name="Grupo 1184077" transform="translate(12.982 42.278)">
            <path id="Trazado_1046272" data-name="Trazado 1046272" d="M2204.554,1985.356a4.58,4.58,0,0,1,.761-1.109c1.259-1.491,2.826-3.087,4.776-3a3.33,3.33,0,0,1,2.555,1.411,1.018,1.018,0,0,1,.206.486,1.125,1.125,0,0,1-.208.637,16.619,16.619,0,0,1-2.666,3.187c-1.014,1.021-2.161,2.1-3.6,2.216a1.834,1.834,0,0,1-1.93-1.008,2.491,2.491,0,0,1-.1-.672A4.684,4.684,0,0,1,2204.554,1985.356Z" transform="translate(-2204.32 -1981.241)" fill="#cfe3dc"/>
          </g>
          <g id="Grupo_1184078" data-name="Grupo 1184078" transform="translate(0 48.46)">
            <path id="Trazado_1046273" data-name="Trazado 1046273" d="M2143.044,2021.01a5.939,5.939,0,0,0-.808-1.376c-.942-1.484-1.086-3.486-2.418-4.631a3.083,3.083,0,0,0-3.388-.392,2.862,2.862,0,0,0-1.408,3.068,5.4,5.4,0,0,0,1.653,2.417l1.551,1.555a7.349,7.349,0,0,0,1.685,1.383,2.481,2.481,0,0,0,2.107.191A1.9,1.9,0,0,0,2143.044,2021.01Z" transform="translate(-2134.956 -2014.273)" fill="#cfe3dc"/>
          </g>
          <g id="Grupo_1184079" data-name="Grupo 1184079" transform="translate(10.625 52.522)">
            <path id="Trazado_1046274" data-name="Trazado 1046274" d="M2196.314,2036.436a3.166,3.166,0,0,1,2.642-.253,2.5,2.5,0,0,1,.838,2.838,4.232,4.232,0,0,1-.773,1.624c-1.219,1.519-3.415,1.722-5.361,1.8a2.643,2.643,0,0,1-.8-.048,1.621,1.621,0,0,1-1.1-1.3,2.648,2.648,0,0,1,.364-1.725C2192.975,2037.857,2194.7,2037.095,2196.314,2036.436Z" transform="translate(-2191.726 -2035.977)" fill="#cfe3dc"/>
          </g>
        </g>
        <g id="Grupo_1184087" data-name="Grupo 1184087" transform="translate(49.169 15.557)">
          <g id="Grupo_1184081" data-name="Grupo 1184081">
            <path id="Trazado_1046275" data-name="Trazado 1046275" d="M514.714,541.08h-9.962v-.761a10.719,10.719,0,0,0-2.732-6.927,10.05,10.05,0,0,1,5.533-16.3,10.73,10.73,0,0,1,2.18-.228,10.093,10.093,0,0,1,10.081,10.081,9.955,9.955,0,0,1-2.647,6.759,9.685,9.685,0,0,0-2.453,6.6v.769Zm-9.15-.812H513.9a10.473,10.473,0,0,1,2.669-7.111,9.153,9.153,0,0,0,2.431-6.21,9.279,9.279,0,0,0-9.269-9.269,9.748,9.748,0,0,0-2.012.212,9.231,9.231,0,0,0-7.085,7.241,9.108,9.108,0,0,0,2,7.734A11.535,11.535,0,0,1,505.564,540.268Z" transform="translate(-499.655 -516.866)" fill="#fdf6ea"/>
          </g>
          <g id="Grupo_1184082" data-name="Grupo 1184082" transform="translate(3.072 23.402)">
            <path id="Trazado_1046276" data-name="Trazado 1046276" d="M528.864,646.163H517.656a1.59,1.59,0,0,1-1.589-1.589v-1.083a1.59,1.59,0,0,1,1.589-1.589h11.208a1.59,1.59,0,0,1,1.589,1.589v1.083A1.59,1.59,0,0,1,528.864,646.163Zm-11.208-3.449a.778.778,0,0,0-.777.777v1.083a.778.778,0,0,0,.777.777h11.208a.778.778,0,0,0,.777-.777v-1.083a.778.778,0,0,0-.777-.777Z" transform="translate(-516.067 -641.902)" fill="#fdf6ea"/>
          </g>
          <g id="Grupo_1184083" data-name="Grupo 1184083" transform="translate(5.097 26.851)">
            <path id="Trazado_1046277" data-name="Trazado 1046277" d="M532.6,665.569h-1.316a4.4,4.4,0,0,1-4.4-4.4v-.841H537v.841A4.4,4.4,0,0,1,532.6,665.569Zm-4.9-4.426v.028a3.589,3.589,0,0,0,3.585,3.585H532.6a3.589,3.589,0,0,0,3.585-3.585v-.028Z" transform="translate(-526.888 -660.331)" fill="#fdf6ea"/>
          </g>
          <g id="Grupo_1184084" data-name="Grupo 1184084" transform="translate(12.222 12.975)">
            <path id="Trazado_1046278" data-name="Trazado 1046278" d="M565.365,597.282h-.021a.41.41,0,0,1-.384-.438l.825-10.276a.412.412,0,0,1,.436-.373.406.406,0,0,1,.373.436l-.825,10.276A.407.407,0,0,1,565.365,597.282Z" transform="translate(-564.959 -586.194)" fill="#fdf6ea"/>
          </g>
          <g id="Grupo_1184085" data-name="Grupo 1184085" transform="translate(6.447 12.976)">
            <path id="Trazado_1046279" data-name="Trazado 1046279" d="M535.33,597.283a.407.407,0,0,1-.4-.374l-.825-10.276a.406.406,0,0,1,.373-.436.433.433,0,0,1,.436.373l.825,10.276a.406.406,0,0,1-.373.436Z" transform="translate(-534.099 -586.195)" fill="#fdf6ea"/>
          </g>
          <g id="Grupo_1184086" data-name="Grupo 1184086" transform="translate(7.609 13.755)">
            <path id="Trazado_1046280" data-name="Trazado 1046280" d="M542.4,592.69a.4.4,0,0,1-.271-.1l-1.687-1.519a.405.405,0,0,1,.542-.6l1.4,1.256,1.135-1.178a.444.444,0,0,1,.317-.125.408.408,0,0,1,.3.162l1.013,1.349a.407.407,0,1,1-.65.488l-.726-.969-1.077,1.118A.4.4,0,0,1,542.4,592.69Z" transform="translate(-540.31 -590.36)" fill="#fdf6ea"/>
          </g>
        </g>
        <g id="Grupo_1184111" data-name="Grupo 1184111" transform="translate(315.624 161.027)">
          <g id="Grupo_1184088" data-name="Grupo 1184088" transform="translate(10.052 27.213)">
            <path id="Trazado_1046281" data-name="Trazado 1046281" d="M1978.542,1559.893a6.617,6.617,0,0,1,1.328.292c5.988-32.9,19.092-97.312,33.388-119.129l-2.345-1.538c-14.787,22.569-27.912,87.356-33.869,120.363A8.807,8.807,0,0,1,1978.542,1559.893Z" transform="translate(-1977.043 -1439.517)" fill="#a0ac76"/>
          </g>
          <g id="Grupo_1184090" data-name="Grupo 1184090" transform="translate(40.382)">
            <g id="Grupo_1184089" data-name="Grupo 1184089">
              <path id="Trazado_1046282" data-name="Trazado 1046282" d="M2159.194,1294.191c4.352-.681,3.723,3.484,1.783,8.465s-7.618,6.709-10.684,11.154-2.131,7.985-4.863,10.827-7.1,5.814-6.213,2.854,2.949-2.6,3.213-6.756,2.079-14.484,5.259-17.066S2154.977,1294.852,2159.194,1294.191Z" transform="translate(-2139.1 -1294.118)" fill="#a0ac76"/>
            </g>
          </g>
          <g id="Grupo_1184092" data-name="Grupo 1184092" transform="translate(27.449 7.125)">
            <g id="Grupo_1184091" data-name="Grupo 1184091">
              <path id="Trazado_1046283" data-name="Trazado 1046283" d="M2071.909,1333.4c2.427-3.021,4.485.061,6.173,4.45s-.981,8.875-.343,13.582,3.343,6.455,3.25,9.922-1.173,7.984-2.351,5.536.38-3.436-1.911-6.3-7.226-10.652-6.687-14.215S2069.556,1336.323,2071.909,1333.4Z" transform="translate(-2069.998 -1332.189)" fill="#a0ac76"/>
            </g>
          </g>
          <g id="Grupo_1184094" data-name="Grupo 1184094" transform="translate(36.078 29.414)">
            <g id="Grupo_1184093" data-name="Grupo 1184093">
              <path id="Trazado_1046284" data-name="Trazado 1046284" d="M2148.162,1454.42c1.01-3.741-2.692-3.588-7.233-2.366s-6.592,6.022-10.772,8.28-7.186,1.1-9.932,3.221-5.76,5.652-3.088,5.161,2.552-2.331,6.214-2.166,12.864-.438,15.425-2.973S2147.183,1458.047,2148.162,1454.42Z" transform="translate(-2116.1 -1451.279)" fill="#a0ac76"/>
            </g>
          </g>
          <g id="Grupo_1184096" data-name="Grupo 1184096" transform="translate(17.214 34.117)">
            <g id="Grupo_1184095" data-name="Grupo 1184095">
              <path id="Trazado_1046285" data-name="Trazado 1046285" d="M2016.406,1477.786c2.154-3.221,4.473-.331,6.538,3.894s-.2,8.927.844,13.56,3.894,6.139,4.1,9.6-.471,8.056-1.859,5.72.079-3.455-2.454-6.106-8.128-9.98-7.9-13.576S2014.317,1480.905,2016.406,1477.786Z" transform="translate(-2015.311 -1476.408)" fill="#a0ac76"/>
            </g>
          </g>
          <g id="Grupo_1184098" data-name="Grupo 1184098" transform="translate(28.325 53.312)">
            <g id="Grupo_1184097" data-name="Grupo 1184097">
              <path id="Trazado_1046286" data-name="Trazado 1046286" d="M2105.406,1581.893c.68-3.815-3-3.339-7.412-1.725s-6.042,6.575-10.008,9.189-7.061,1.726-9.613,4.076-5.244,6.134-2.625,5.411,2.339-2.545,6-2.7,12.777-1.56,15.107-4.309S2104.747,1585.591,2105.406,1581.893Z" transform="translate(-2074.677 -1578.967)" fill="#a0ac76"/>
            </g>
          </g>
          <g id="Grupo_1184100" data-name="Grupo 1184100" transform="translate(9.776 61.609)">
            <g id="Grupo_1184099" data-name="Grupo 1184099">
              <path id="Trazado_1046287" data-name="Trazado 1046287" d="M1976.664,1624.676c2.154-3.221,4.473-.33,6.538,3.894s-.2,8.926.844,13.56,3.894,6.139,4.1,9.6-.471,8.056-1.859,5.72.079-3.456-2.454-6.106-8.128-9.98-7.9-13.577S1974.576,1627.8,1976.664,1624.676Z" transform="translate(-1975.569 -1623.298)" fill="#a0ac76"/>
            </g>
          </g>
          <g id="Grupo_1184102" data-name="Grupo 1184102" transform="translate(20.889 80.806)">
            <g id="Grupo_1184101" data-name="Grupo 1184101">
              <path id="Trazado_1046288" data-name="Trazado 1046288" d="M2065.675,1728.793c.68-3.815-2.995-3.339-7.411-1.725s-6.042,6.575-10.008,9.189-7.061,1.726-9.612,4.076-5.245,6.134-2.625,5.411,2.339-2.545,6-2.7,12.776-1.56,15.106-4.308S2065.016,1732.491,2065.675,1728.793Z" transform="translate(-2034.947 -1725.867)" fill="#a0ac76"/>
            </g>
          </g>
          <g id="Grupo_1184104" data-name="Grupo 1184104" transform="translate(1.915 88.831)">
            <g id="Grupo_1184103" data-name="Grupo 1184103">
              <path id="Trazado_1046289" data-name="Trazado 1046289" d="M1934.218,1770.341c1.79-3.437,4.411-.817,6.924,3.157s.772,8.9,2.319,13.387,4.541,5.677,5.127,9.1.411,8.06-1.223,5.889-.3-3.443-3.106-5.8-9.169-9.034-9.337-12.633S1932.483,1773.672,1934.218,1770.341Z" transform="translate(-1933.569 -1768.748)" fill="#a0ac76"/>
            </g>
          </g>
          <g id="Grupo_1184106" data-name="Grupo 1184106" transform="translate(14.26 107.472)">
            <g id="Grupo_1184105" data-name="Grupo 1184105">
              <path id="Trazado_1046290" data-name="Trazado 1046290" d="M2030.255,1871.273c.68-3.815-3-3.339-7.412-1.725s-6.041,6.575-10.007,9.189-7.062,1.726-9.613,4.076-5.245,6.134-2.625,5.411,2.339-2.545,6-2.7,12.777-1.56,15.106-4.309S2029.6,1874.969,2030.255,1871.273Z" transform="translate(-1999.527 -1868.347)" fill="#a0ac76"/>
            </g>
          </g>
          <g id="Grupo_1184108" data-name="Grupo 1184108" transform="translate(0 123.34)">
            <g id="Grupo_1184107" data-name="Grupo 1184107">
              <path id="Trazado_1046291" data-name="Trazado 1046291" d="M1924.451,1964.653c.151,2.822,5.175,8.022,7.389,9.856a4.24,4.24,0,0,1,1.705,2.851,8.852,8.852,0,0,1,1.343.019c.2.02.4.062.6.1a16.732,16.732,0,0,0-.257-3.063c-.478-2.677-2.832-3.591-4.069-7.1s.1-7.382-1.89-10.485-4.061-5.143-5.446-2.438C1922.485,1957.01,1924.3,1961.831,1924.451,1964.653Z" transform="translate(-1923.336 -1953.13)" fill="#a0ac76"/>
            </g>
          </g>
          <g id="Grupo_1184110" data-name="Grupo 1184110" transform="translate(11.062 133.216)">
            <g id="Grupo_1184109" data-name="Grupo 1184109">
              <path id="Trazado_1046292" data-name="Trazado 1046292" d="M1999.308,2006.768c-3.2,1.17-4.379,4.766-7.254,6.661s-5.119,1.251-6.968,2.955c-1.5,1.379-3.024,3.409-2.56,3.866.135.007.271.007.4.021.074.008.15.027.224.038.013,0,.017,0,.029,0,1.9-.523,1.7-1.845,4.35-1.957s9.261-1.13,10.95-3.123,5.719-4.527,6.2-7.207C2005.174,2005.252,2002.511,2005.6,1999.308,2006.768Z" transform="translate(-1982.442 -2005.897)" fill="#a0ac76"/>
            </g>
          </g>
        </g>
        <g id="Grupo_1184123" data-name="Grupo 1184123" transform="translate(154.25 91.154)">
          <g id="Grupo_1184117" data-name="Grupo 1184117" transform="translate(0 20.601)">
            <g id="Grupo_1184112" data-name="Grupo 1184112">
              <circle id="Elipse_14188" data-name="Elipse 14188" cx="98.87" cy="98.87" r="98.87" fill="#bf352b"/>
            </g>
            <g id="Grupo_1184113" data-name="Grupo 1184113" transform="translate(25.776 25.776)">
              <circle id="Elipse_14189" data-name="Elipse 14189" cx="73.095" cy="73.095" r="73.095" fill="#fff"/>
            </g>
            <g id="Grupo_1184114" data-name="Grupo 1184114" transform="translate(46.55 46.55)">
              <circle id="Elipse_14190" data-name="Elipse 14190" cx="52.321" cy="52.321" r="52.321" fill="#bf352b"/>
            </g>
            <g id="Grupo_1184115" data-name="Grupo 1184115" transform="translate(66.266 66.266)">
              <circle id="Elipse_14191" data-name="Elipse 14191" cx="32.604" cy="32.604" r="32.604" fill="#fff"/>
            </g>
            <g id="Grupo_1184116" data-name="Grupo 1184116" transform="translate(82.616 82.616)">
              <circle id="Elipse_14192" data-name="Elipse 14192" cx="16.254" cy="16.254" r="16.254" fill="#bf352b"/>
            </g>
          </g>
          <g id="Grupo_1184122" data-name="Grupo 1184122" transform="translate(93.538)">
            <g id="Grupo_1184118" data-name="Grupo 1184118" transform="translate(85.519)">
              <path id="Trazado_1046293" data-name="Trazado 1046293" d="M2018.192,961.628l-.372-17.453,23.022-23.395-2.227,25.251Z" transform="translate(-2017.82 -920.781)" fill="#e0b894"/>
            </g>
            <g id="Grupo_1184119" data-name="Grupo 1184119" transform="translate(85.764 24.218)">
              <path id="Trazado_1046294" data-name="Trazado 1046294" d="M2019.13,1066.571l16.923,4.288,27.973-17.172-25.105-3.507Z" transform="translate(-2019.13 -1050.18)" fill="#e0b894"/>
            </g>
            <g id="Grupo_1184120" data-name="Grupo 1184120" transform="translate(8.233 23.088)">
              <path id="Trazado_1046295" data-name="Trazado 1046295" d="M1607.157,1136.478a2.279,2.279,0,0,0,1.545-.6l95.192-87.782a2.28,2.28,0,0,0-3.091-3.353l-95.192,87.781a2.28,2.28,0,0,0,1.545,3.957Z" transform="translate(-1604.877 -1044.139)" fill="#221a19"/>
            </g>
            <g id="Grupo_1184121" data-name="Grupo 1184121" transform="translate(0 98.494)">
              <path id="Trazado_1046296" data-name="Trazado 1046296" d="M1560.89,1470.347l9.4-23.307,2.631,13.157,12.031,5.639Z" transform="translate(-1560.89 -1447.04)" fill="#ffb77b"/>
            </g>
          </g>
        </g>
        <g id="Grupo_1184133" data-name="Grupo 1184133" transform="translate(225.256 98.612)">
          <g id="Grupo_1184124" data-name="Grupo 1184124">
            <path id="Trazado_1046297" data-name="Trazado 1046297" d="M1440.738,965.624l-.24,16.126c-.041,2.88,2.562,5.306,5.816,5.427a5.653,5.653,0,0,0,5.705-3.6,6.2,6.2,0,0,0,10.71,1.9,6.159,6.159,0,0,0,5.152,2.989,5.641,5.641,0,0,0,5.738-3.684,5.515,5.515,0,0,0,4.646,2.725c2.917.109,5.312-1.893,5.352-4.471l.214-14.457a4.262,4.262,0,0,0-.42-1.9,5.5,5.5,0,0,0-4.795-2.966,5.241,5.241,0,0,0-4.706,2.354,4.9,4.9,0,0,0-.289-.833,6.133,6.133,0,0,0-5.348-3.309,5.912,5.912,0,0,0-5.061,2.333,6.147,6.147,0,0,0-5.142-3,5.653,5.653,0,0,0-5.7,3.592,4.893,4.893,0,0,0-.312-.9,6.133,6.133,0,0,0-5.348-3.309C1443.453,960.514,1440.782,962.748,1440.738,965.624Z" transform="translate(-1440.497 -960.631)" fill="#ff946e"/>
          </g>
          <g id="Grupo_1184125" data-name="Grupo 1184125" transform="translate(11.294 4.013)">
            <path id="Trazado_1046298" data-name="Trazado 1046298" d="M1501.286,1001.076a.233.233,0,0,1-.443-.077l.348-18.734a.211.211,0,0,1,.231-.192.221.221,0,0,1,.223.21l-.348,18.734A.14.14,0,0,1,1501.286,1001.076Z" transform="translate(-1500.844 -982.072)" fill="#3c251d"/>
          </g>
          <g id="Grupo_1184126" data-name="Grupo 1184126" transform="translate(21.702 13.139)">
            <path id="Trazado_1046299" data-name="Trazado 1046299" d="M1557.2,1042.607a.219.219,0,0,1-.21.133.224.224,0,0,1-.233-.2l-.3-11.5a.206.206,0,0,1,.222-.2.224.224,0,0,1,.233.2l.3,11.5A.159.159,0,0,1,1557.2,1042.607Z" transform="translate(-1556.452 -1030.833)" fill="#3c251d"/>
          </g>
          <g id="Grupo_1184127" data-name="Grupo 1184127" transform="translate(32.589 6.304)">
            <path id="Trazado_1046300" data-name="Trazado 1046300" d="M1615.571,1007.627a.218.218,0,0,1-.208.133.224.224,0,0,1-.235-.2l-.505-13.043a.2.2,0,0,1,.219-.2.223.223,0,0,1,.234.2l.505,13.043A.167.167,0,0,1,1615.571,1007.627Z" transform="translate(-1614.623 -994.316)" fill="#3c251d"/>
          </g>
          <g id="Grupo_1184128" data-name="Grupo 1184128" transform="translate(32.724 22.118)">
            <path id="Trazado_1046301" data-name="Trazado 1046301" d="M1615.956,1080.911a.214.214,0,0,1-.2.132.228.228,0,0,1-.246-.19l-.17-1.83a.2.2,0,0,1,.208-.212.229.229,0,0,1,.246.19l.17,1.83A.157.157,0,0,1,1615.956,1080.911Z" transform="translate(-1615.343 -1078.811)" fill="#3c251d"/>
          </g>
          <g id="Grupo_1184129" data-name="Grupo 1184129" transform="translate(1.538 17.132)">
            <path id="Trazado_1046302" data-name="Trazado 1046302" d="M1456.238,1053.329a.206.206,0,0,1,.017.059l.529,4.22a.187.187,0,0,1-.067.168,6.769,6.769,0,0,1-4.837,1.372.231.231,0,0,1-.215-.23.221.221,0,0,1,.254-.185,6.447,6.447,0,0,0,4.384-1.2l-.5-4.022c-2.777-1.777-5.937-.518-6.6-.219l.38,3.5a.208.208,0,0,1-.211.222.238.238,0,0,1-.257-.193l-.395-3.639a.194.194,0,0,1,.11-.195c.04-.02,3.957-2,7.335.245A.216.216,0,0,1,1456.238,1053.329Z" transform="translate(-1448.713 -1052.17)" fill="#3c251d"/>
          </g>
          <g id="Grupo_1184130" data-name="Grupo 1184130" transform="translate(12.812 18.639)">
            <path id="Trazado_1046303" data-name="Trazado 1046303" d="M1516.457,1061.646a.2.2,0,0,1,.011.06l.165,4.234a.188.188,0,0,1-.081.163,6.9,6.9,0,0,1-4.952,1.039.21.21,0,1,1,.074-.41,6.571,6.571,0,0,0,4.484-.894L1516,1061.8c-2.622-1.955-5.888-.916-6.577-.663l.078,3.511a.213.213,0,0,1-.23.206.233.233,0,0,1-.24-.209l-.081-3.647a.2.2,0,0,1,.127-.186c.042-.017,4.127-1.722,7.309.738A.257.257,0,0,1,1516.457,1061.646Z" transform="translate(-1508.951 -1060.222)" fill="#3c251d"/>
          </g>
          <g id="Grupo_1184131" data-name="Grupo 1184131" transform="translate(23.661 18.677)">
            <path id="Trazado_1046304" data-name="Trazado 1046304" d="M1574.427,1061.848a.19.19,0,0,1,.011.06l.165,4.234a.189.189,0,0,1-.081.163,6.9,6.9,0,0,1-4.952,1.039.21.21,0,1,1,.074-.41,6.569,6.569,0,0,0,4.484-.894l-.157-4.035c-2.622-1.955-5.888-.916-6.577-.663l.078,3.511a.213.213,0,0,1-.23.206.233.233,0,0,1-.24-.21l-.081-3.646a.2.2,0,0,1,.127-.187c.042-.017,4.127-1.722,7.309.738A.232.232,0,0,1,1574.427,1061.848Z" transform="translate(-1566.921 -1060.424)" fill="#3c251d"/>
          </g>
          <g id="Grupo_1184132" data-name="Grupo 1184132" transform="translate(34.689 17.935)">
            <path id="Trazado_1046305" data-name="Trazado 1046305" d="M1632.951,1057.805a.2.2,0,0,1,.011.057l.156,4.01a.178.178,0,0,1-.077.154,6.538,6.538,0,0,1-4.691.984.2.2,0,1,1,.07-.388,6.223,6.223,0,0,0,4.247-.846l-.149-3.822c-2.483-1.852-5.577-.867-6.23-.628l.074,3.326a.2.2,0,0,1-.218.2.22.22,0,0,1-.227-.2l-.076-3.454a.188.188,0,0,1,.12-.177c.039-.016,3.909-1.631,6.923.7A.208.208,0,0,1,1632.951,1057.805Z" transform="translate(-1625.841 -1056.457)" fill="#3c251d"/>
          </g>
        </g>
      </g>
    </g>
  </g>
</svg>
