<svg xmlns="http://www.w3.org/2000/svg" xmlns:xlink="http://www.w3.org/1999/xlink" width="118" height="118" viewBox="0 0 118 118">
  <defs>
    <filter id="Trazado_982547" x="0" y="0" width="118" height="118" filterUnits="userSpaceOnUse">
      <feOffset dy="3" input="SourceAlpha"/>
      <feGaussianBlur stdDeviation="3" result="blur"/>
      <feFlood flood-opacity="0.161"/>
      <feComposite operator="in" in2="blur"/>
      <feComposite in="SourceGraphic"/>
    </filter>
  </defs>
  <g id="Grupo_1201146" data-name="Grupo 1201146" transform="translate(-1214 -7818.194)">
    <g id="Grupo_1183660" data-name="Grupo 1183660" transform="translate(11 6436.866)">
      <g id="Grupo_1182319" data-name="Grupo 1182319" transform="translate(-11 -8277)">
        <g id="Grupo_1176359" data-name="Grupo 1176359" transform="translate(1223 9664.328)">
          <g id="Grupo_1172970" data-name="Grupo 1172970" transform="translate(0)">
            <g id="Grupo_1171971" data-name="Grupo 1171971" transform="translate(0)">
              <g id="Grupo_1167337" data-name="Grupo 1167337">
                <g id="Grupo_1166720" data-name="Grupo 1166720">
                  <g id="Grupo_1164305" data-name="Grupo 1164305">
                    <g id="Grupo_1163948" data-name="Grupo 1163948">
                      <g id="Grupo_1158168" data-name="Grupo 1158168">
                        <g id="Grupo_1152576" data-name="Grupo 1152576">
                          <g id="Grupo_1148633" data-name="Grupo 1148633">
                            <g id="Grupo_1148525" data-name="Grupo 1148525">
                              <g transform="matrix(1, 0, 0, 1, -9, -6)" filter="url(#Trazado_982547)">
                                <g id="Trazado_982547-2" data-name="Trazado 982547" transform="translate(9 6)" fill="#f2f7f5">
                                  <path d="M 50 98.5 C 43.45188522338867 98.5 37.10042953491211 97.21787261962891 31.12207221984863 94.68923950195312 C 25.34691429138184 92.24655914306641 20.15995788574219 88.74932861328125 15.70532894134521 84.29468536376953 C 11.2506856918335 79.84004211425781 7.753442764282227 74.65309906005859 5.310757160186768 68.87794494628906 C 2.782128572463989 62.89958572387695 1.5 56.54813003540039 1.5 50 C 1.5 43.45188522338867 2.782128572463989 37.10042953491211 5.310757160186768 31.12207221984863 C 7.753442764282227 25.34691429138184 11.2506856918335 20.15997123718262 15.70532894134521 15.70532894134521 C 20.15997123718262 11.2506856918335 25.34691429138184 7.753442764282227 31.12207221984863 5.310757160186768 C 37.10042953491211 2.782128572463989 43.45188522338867 1.5 50 1.5 C 56.54813003540039 1.5 62.89958572387695 2.782128572463989 68.87794494628906 5.310757160186768 C 74.65309906005859 7.753442764282227 79.84004211425781 11.2506856918335 84.29468536376953 15.70532894134521 C 88.74932861328125 20.15995788574219 92.24655914306641 25.34691429138184 94.68923950195312 31.12207221984863 C 97.21787261962891 37.10042953491211 98.5 43.45188522338867 98.5 50 C 98.5 56.54813003540039 97.21787261962891 62.89958572387695 94.68923950195312 68.87794494628906 C 92.24655914306641 74.65309906005859 88.74932861328125 79.84004211425781 84.29468536376953 84.29468536376953 C 79.84004211425781 88.74932861328125 74.65309906005859 92.24655914306641 68.87794494628906 94.68923950195312 C 62.89958572387695 97.21787261962891 56.54813003540039 98.5 50 98.5 Z" stroke="none"/>
                                  <path d="M 50 3 C 43.65372467041016 3 37.49886322021484 4.242263793945312 31.70639801025391 6.6922607421875 C 26.11003112792969 9.059326171875 21.08335113525391 12.44861602783203 16.76598358154297 16.76598358154297 C 12.44861602783203 21.08335113525391 9.059326171875 26.11003112792969 6.6922607421875 31.70639801025391 C 4.242263793945312 37.49886322021484 3 43.65372467041016 3 50 C 3 56.34629058837891 4.242263793945312 62.50115203857422 6.6922607421875 68.29361724853516 C 9.059326171875 73.88998413085938 12.44861602783203 78.91666412353516 16.76598358154297 83.23403167724609 C 21.08335113525391 87.55138397216797 26.11003112792969 90.940673828125 31.70639801025391 93.3077392578125 C 37.49886322021484 95.75773620605469 43.65372467041016 97 50 97 C 56.34629058837891 97 62.50115203857422 95.75773620605469 68.29361724853516 93.3077392578125 C 73.88998413085938 90.940673828125 78.91666412353516 87.55138397216797 83.23403167724609 83.23403167724609 C 87.55138397216797 78.91666412353516 90.940673828125 73.88998413085938 93.3077392578125 68.29361724853516 C 95.75773620605469 62.50115203857422 97 56.34629058837891 97 50 C 97 43.65372467041016 95.75773620605469 37.49886322021484 93.3077392578125 31.70639801025391 C 90.940673828125 26.11003112792969 87.55138397216797 21.08335113525391 83.23403167724609 16.76598358154297 C 78.91666412353516 12.44861602783203 73.88998413085938 9.059326171875 68.29361724853516 6.6922607421875 C 62.50115203857422 4.242263793945312 56.34629058837891 3 50 3 M 50 0 C 77.6142578125 0 100 22.38577270507812 100 50 C 100 77.6142578125 77.6142578125 100 50 100 C 22.38577270507812 100 0 77.6142578125 0 50 C 0 22.38577270507812 22.38577270507812 0 50 0 Z" stroke="none" fill="#4a665c"/>
                                </g>
                              </g>
                            </g>
                          </g>
                        </g>
                      </g>
                    </g>
                  </g>
                </g>
              </g>
            </g>
          </g>
        </g>
      </g>
    </g>
    <g id="demanda" transform="translate(1241 7842)">
      <g id="Grupo_1201144" data-name="Grupo 1201144">
        <g id="Grupo_1201137" data-name="Grupo 1201137">
          <path id="Trazado_1046853" data-name="Trazado 1046853" d="M39,56V54a2.006,2.006,0,0,1-2-2,2.015,2.015,0,0,1,2-2H38a2.006,2.006,0,0,1-2-2,1.955,1.955,0,0,1,.59-1.41,1.752,1.752,0,0,1,.46-.35L37,46a4.466,4.466,0,0,0-1.49-3.33l-1.95-1.73A15.507,15.507,0,0,1,32,39.36a16.526,16.526,0,0,1-2.55-4.01c-.08-.18-.16-.37-.24-.56L26,38l-6,6-3,3-3-2.5L11,42,8,45,2,51v7H39.34A6.043,6.043,0,0,1,39,56Z" fill="#b4dd7f"/>
        </g>
        <g id="Grupo_1201138" data-name="Grupo 1201138">
          <path id="Trazado_1046854" data-name="Trazado 1046854" d="M19.78,21.63a1.6,1.6,0,0,1,.22.8A1.566,1.566,0,0,1,18.43,24H16V38H10V24H7.57A1.566,1.566,0,0,1,6,22.43a1.6,1.6,0,0,1,.22-.8l5.27-8.77a1.756,1.756,0,0,1,3.02,0Z" fill="#ff826e"/>
        </g>
        <g id="Grupo_1201139" data-name="Grupo 1201139">
          <path id="Trazado_1046855" data-name="Trazado 1046855" d="M33.78,11.63a1.6,1.6,0,0,1,.22.8A1.566,1.566,0,0,1,32.43,14H30v6.67A16.485,16.485,0,0,0,28.01,28H24V14H21.57A1.566,1.566,0,0,1,20,12.43a1.6,1.6,0,0,1,.22-.8l5.27-8.77a1.756,1.756,0,0,1,3.02,0Z" fill="#ff826e"/>
        </g>
        <g id="Grupo_1201140" data-name="Grupo 1201140">
          <path id="Trazado_1046856" data-name="Trazado 1046856" d="M51,56a6,6,0,0,1-6,6,6.029,6.029,0,0,1-5.66-4A6.043,6.043,0,0,1,39,56V54H51Z" fill="#aab2bd"/>
        </g>
        <g id="Grupo_1201141" data-name="Grupo 1201141">
          <path id="Trazado_1046857" data-name="Trazado 1046857" d="M52.2,46.01A2.006,2.006,0,0,1,54,48a2.015,2.015,0,0,1-2,2H38a2.006,2.006,0,0,1-2-2,1.955,1.955,0,0,1,.59-1.41,1.752,1.752,0,0,1,.46-.35A2.028,2.028,0,0,1,38,46H52A1.275,1.275,0,0,1,52.2,46.01Z" fill="#ccd1d9"/>
        </g>
        <g id="Grupo_1201142" data-name="Grupo 1201142">
          <path id="Trazado_1046858" data-name="Trazado 1046858" d="M51,50a2.006,2.006,0,0,1,2,2,2.015,2.015,0,0,1-2,2H39a2.006,2.006,0,0,1-2-2,2.015,2.015,0,0,1,2-2Z" fill="#ccd1d9"/>
        </g>
        <g id="Grupo_1201143" data-name="Grupo 1201143">
          <path id="Trazado_1046859" data-name="Trazado 1046859" d="M52,46H38a2.028,2.028,0,0,0-.95.24L37,46a4.466,4.466,0,0,0-1.49-3.33l-1.95-1.73A15.507,15.507,0,0,1,32,39.36a16.526,16.526,0,0,1-2.55-4.01c-.08-.18-.16-.37-.24-.56A16.691,16.691,0,0,1,28,28.56c0-.19,0-.38.01-.56A16.557,16.557,0,0,1,44.56,12h.88a16.561,16.561,0,0,1,11,28.94l-1.95,1.73A4.466,4.466,0,0,0,53,46l-.8.01A1.275,1.275,0,0,0,52,46Z" fill="#ffeaa7"/>
        </g>
      </g>
      <g id="Grupo_1201145" data-name="Grupo 1201145">
        <path id="Trazado_1046860" data-name="Trazado 1046860" d="M45.438,11h-.875A17.535,17.535,0,0,0,31,17.418V15h1.434a2.565,2.565,0,0,0,2.2-3.886L29.372,2.343a2.766,2.766,0,0,0-4.744,0l-5.262,8.77A2.566,2.566,0,0,0,21.566,15H23V29h4.023a17.525,17.525,0,0,0,1.041,5.522L16.938,45.647l-6-5L1,50.586V59H38.685A6.994,6.994,0,0,0,52,56V54.816a2.959,2.959,0,0,0,1.6-4.287,2.976,2.976,0,0,0,.423-4.731,3.447,3.447,0,0,1,1.138-2.38l1.946-1.729A17.563,17.563,0,0,0,45.438,11ZM21.566,13a.565.565,0,0,1-.485-.857l5.262-8.771a.8.8,0,0,1,1.314,0l5.262,8.771a.565.565,0,0,1-.485.857H29v7.453A17.41,17.41,0,0,0,27.079,27H25V13ZM31,39.68V57H27V38.414l1.921-1.921A17.586,17.586,0,0,0,31,39.68ZM25,57H21V44.414l4-4Zm-7.938-8.647L19,46.414V57H15V46.635Zm-6-5L13,44.968V57H9V45.414ZM3,51.414l4-4V57H3ZM33,57V41.782l1.841,1.636a3.455,3.455,0,0,1,1.138,2.38,2.975,2.975,0,0,0,.422,4.731A2.959,2.959,0,0,0,38,54.816V56a7.026,7.026,0,0,0,.08,1Zm20-9a1,1,0,0,1-1,1H38a1,1,0,0,1,0-2H52A1,1,0,0,1,53,48ZM45,61a5.006,5.006,0,0,1-5-5V55H50v1A5.006,5.006,0,0,1,45,61Zm6-8H39a1,1,0,0,1,0-2H51a1,1,0,0,1,0,2Zm4.777-12.806-1.946,1.729A5.447,5.447,0,0,0,52.1,45.009c-.033,0-.064-.009-.1-.009H38c-.033,0-.064.009-.1.01a5.453,5.453,0,0,0-1.734-3.086l-1.946-1.729A15.563,15.563,0,0,1,44.563,13h.875A15.563,15.563,0,0,1,55.777,40.194Z"/>
        <path id="Trazado_1046861" data-name="Trazado 1046861" d="M56.993,28.965a11.643,11.643,0,0,1-.213,1.84l1.961.389a13.324,13.324,0,0,0,.25-2.16Z"/>
        <path id="Trazado_1046862" data-name="Trazado 1046862" d="M53.12,37.2l-1.947,1.73a9.488,9.488,0,0,0-1.342,1.474l1.613,1.184A7.488,7.488,0,0,1,52.5,40.429l1.947-1.73a13.623,13.623,0,0,0,3.676-5.345l-1.871-.707A11.608,11.608,0,0,1,53.12,37.2Z"/>
        <path id="Trazado_1046863" data-name="Trazado 1046863" d="M31.014,27.956l2,.089a11.5,11.5,0,0,1,.23-1.841L31.283,25.8a13.7,13.7,0,0,0-.269,2.158Z"/>
        <path id="Trazado_1046864" data-name="Trazado 1046864" d="M45,17V15h-.438a13.668,13.668,0,0,0-12.637,8.636l1.863.729A11.655,11.655,0,0,1,44.563,17Z"/>
        <path id="Trazado_1046865" data-name="Trazado 1046865" d="M49,25.906a3.905,3.905,0,0,0-3-3.789V20H44v2.117a3.9,3.9,0,0,0-.329,7.494l2.025.676A1.905,1.905,0,0,1,45.1,34h-.189A1.907,1.907,0,0,1,43,32.094V31H41v1.094a3.905,3.905,0,0,0,3,3.789V38h2V35.883a3.9,3.9,0,0,0,.329-7.494L44.3,27.713a1.905,1.905,0,0,1,.6-3.713h.189A1.907,1.907,0,0,1,47,25.906V26Z"/>
        <path id="Trazado_1046866" data-name="Trazado 1046866" d="M7.566,25H9V39h8V25h1.434a2.565,2.565,0,0,0,2.2-3.886l-5.262-8.771a2.766,2.766,0,0,0-4.744,0l-5.262,8.77A2.566,2.566,0,0,0,7.566,25Zm-.485-2.857,5.262-8.771a.8.8,0,0,1,1.314,0l5.262,8.771a.565.565,0,0,1-.485.857H15V37H11V23H7.566a.565.565,0,0,1-.485-.857Z"/>
      </g>
    </g>
  </g>
</svg>
