<svg xmlns="http://www.w3.org/2000/svg" xmlns:xlink="http://www.w3.org/1999/xlink" width="93.934" height="93.934" viewBox="0 0 93.934 93.934">
  <defs>
    <filter id="Trazado_982547" x="0" y="0" width="93.934" height="93.934" filterUnits="userSpaceOnUse">
      <feOffset dy="3" input="SourceAlpha"/>
      <feGaussianBlur stdDeviation="3" result="blur"/>
      <feFlood flood-opacity="0.161"/>
      <feComposite operator="in" in2="blur"/>
      <feComposite in="SourceGraphic"/>
    </filter>
  </defs>
  <g id="Grupo_1201263" data-name="Grupo 1201263" transform="translate(-189.033 -6206.287)">
    <g id="Grupo_1183774" data-name="Grupo 1183774" transform="translate(0 3337.287)">
      <g id="Grupo_1182347" data-name="Grupo 1182347" transform="translate(0 1089)">
        <g id="Grupo_1176309" data-name="Grupo 1176309" transform="translate(0 -206)">
          <g id="Grupo_1172970" data-name="Grupo 1172970" transform="translate(-1 -9042)">
            <g id="Grupo_1171971" data-name="Grupo 1171971" transform="translate(199.033 11034)">
              <g id="Grupo_1167337" data-name="Grupo 1167337" transform="translate(0)">
                <g id="Grupo_1166720" data-name="Grupo 1166720">
                  <g id="Grupo_1164305" data-name="Grupo 1164305">
                    <g id="Grupo_1163948" data-name="Grupo 1163948">
                      <g id="Grupo_1158168" data-name="Grupo 1158168">
                        <g id="Grupo_1152576" data-name="Grupo 1152576">
                          <g id="Grupo_1148633" data-name="Grupo 1148633">
                            <g id="Grupo_1148525" data-name="Grupo 1148525">
                              <g transform="matrix(1, 0, 0, 1, -9, -6)" filter="url(#Trazado_982547)">
                                <g id="Trazado_982547-2" data-name="Trazado 982547" transform="translate(9 6)" fill="#f2f7f5">
                                  <path d="M 37.966796875 74.43359375 C 33.04315185546875 74.43359375 28.26757431030273 73.46962738037109 23.77274131774902 71.56847381591797 C 19.43047523498535 69.73184967041016 15.53040790557861 67.10224914550781 12.18087482452393 63.75271987915039 C 8.831341743469238 60.4031867980957 6.201741218566895 56.50312042236328 4.365118980407715 52.16086196899414 C 2.463963508605957 47.66601943969727 1.499996900558472 42.89044189453125 1.499996900558472 37.966796875 C 1.499996900558472 33.04315185546875 2.463963508605957 28.26757431030273 4.365118980407715 23.77274131774902 C 6.201741218566895 19.43047523498535 8.831341743469238 15.53040790557861 12.18087482452393 12.18087482452393 C 15.53040790557861 8.831341743469238 19.43047523498535 6.201741218566895 23.77274131774902 4.365118980407715 C 28.26757431030273 2.463963508605957 33.04315185546875 1.499996900558472 37.966796875 1.499996900558472 C 42.89044189453125 1.499996900558472 47.66601943969727 2.463963508605957 52.16086196899414 4.365118980407715 C 56.50312042236328 6.201741218566895 60.4031867980957 8.831341743469238 63.75271987915039 12.18087482452393 C 67.10224914550781 15.53040790557861 69.73184967041016 19.43047523498535 71.56847381591797 23.77274131774902 C 73.46962738037109 28.26757431030273 74.43359375 33.04315185546875 74.43359375 37.966796875 C 74.43359375 42.89044189453125 73.46962738037109 47.66601943969727 71.56847381591797 52.16086196899414 C 69.73184967041016 56.50313186645508 67.10224914550781 60.4031867980957 63.75271987915039 63.75271987915039 C 60.4031867980957 67.10224914550781 56.50313186645508 69.73184967041016 52.16086196899414 71.56847381591797 C 47.66601943969727 73.46962738037109 42.89044189453125 74.43359375 37.966796875 74.43359375 Z" stroke="none"/>
                                  <path d="M 37.966796875 3 C 33.2449836730957 3 28.66600799560547 3.924095153808594 24.35705947875977 5.746635437011719 C 20.19359588623047 7.507637023925781 16.45379638671875 10.02928161621094 13.24153518676758 13.24153518676758 C 10.02927398681641 16.45379638671875 7.507621765136719 20.19359588623047 5.746635437011719 24.35705947875977 C 3.924095153808594 28.66600799560547 3 33.2449836730957 3 37.966796875 C 3 42.6886100769043 3.924095153808594 47.26758575439453 5.746635437011719 51.57653427124023 C 7.507621765136719 55.73999786376953 10.02927398681641 59.47979736328125 13.24153518676758 62.69205856323242 C 16.45379638671875 65.90431976318359 20.19359588623047 68.42597198486328 24.35705947875977 70.18695831298828 C 28.66600799560547 72.00949859619141 33.2449836730957 72.93359375 37.966796875 72.93359375 C 42.6886100769043 72.93359375 47.26758575439453 72.00949859619141 51.57653427124023 70.18695831298828 C 55.73999786376953 68.42597198486328 59.47979736328125 65.90431976318359 62.69205856323242 62.69205856323242 C 65.90431976318359 59.47979736328125 68.42597198486328 55.73999786376953 70.18695831298828 51.57653427124023 C 72.00949859619141 47.26758575439453 72.93359375 42.6886100769043 72.93359375 37.966796875 C 72.93359375 33.2449836730957 72.00949859619141 28.66600799560547 70.18695831298828 24.35705947875977 C 68.42597198486328 20.19359588623047 65.90431976318359 16.45379638671875 62.69205856323242 13.24153518676758 C 59.47979736328125 10.02928161621094 55.73999786376953 7.507637023925781 51.57653427124023 5.746635437011719 C 47.26758575439453 3.924095153808594 42.6886100769043 3 37.966796875 3 M 37.966796875 0 C 58.93528366088867 0 75.93359375 16.99832153320312 75.93359375 37.966796875 C 75.93359375 58.93528366088867 58.93528366088867 75.93359375 37.966796875 75.93359375 C 16.99831008911133 75.93359375 0 58.93528366088867 0 37.966796875 C 0 16.99832153320312 16.99831008911133 0 37.966796875 0 Z" stroke="none" fill="#4a665c"/>
                                </g>
                              </g>
                            </g>
                          </g>
                        </g>
                      </g>
                    </g>
                  </g>
                </g>
              </g>
            </g>
          </g>
        </g>
      </g>
    </g>
    <g id="satisfaccion-del-consumidor" transform="translate(209.219 6223.782)">
      <g id="Grupo_1201261" data-name="Grupo 1201261" transform="translate(0.784 0.79)">
        <path id="Trazado_1047294" data-name="Trazado 1047294" d="M161.473,130.01l-2.066-.968-2.2-3.741,1.412-3.346.381-.523H156.76l-4.45,2.232-.074.428.135.426-.3.533-.9,5.2.762.228,2.218,3.06L155.2,134.7h.777l2.746-2.7,2.9-.863.47-.463Z" transform="translate(-136.134 -109.512)" fill="#ce7bbc"/>
        <g id="Grupo_1201259" data-name="Grupo 1201259" transform="translate(12.11 9.362)">
          <path id="Trazado_1047295" data-name="Trazado 1047295" d="M126.863,107.59a7.543,7.543,0,0,1,6.763-7.5l0-.012,1.051-1.444a6.895,6.895,0,0,0-8.713-.167l.5,1.3.915,2.877-1.411,2.488-2.093,1.2-.6.837h0l.419.469,3.24.967A7.594,7.594,0,0,1,126.863,107.59Z" transform="translate(-123.253 -96.997)" fill="#c464b0"/>
        </g>
        <path id="Trazado_1047296" data-name="Trazado 1047296" d="M297.246,125.832c-.026-.078-.445-3.452-.445-3.452l.677-1.729-2.687.082-4.132,3.869-.735,4.813.555,3.3,2.783,1.721,6.521-5.179.4-.914h.085v0l-.084,0S297.272,125.91,297.246,125.832Z" transform="translate(-260.377 -108.813)" fill="#ffe02f"/>
        <g id="Grupo_1201260" data-name="Grupo 1201260" transform="translate(25.969 9.362)">
          <path id="Trazado_1047297" data-name="Trazado 1047297" d="M260.048,107.591a7.542,7.542,0,0,1,6.567-7.477l.28-.717.021-.96a6.894,6.894,0,0,0-8.7.222l-2.477,10.135.7.619,6.1,3.776A7.523,7.523,0,0,1,260.048,107.591Z" transform="translate(-255.735 -96.998)" fill="#fbc700"/>
        </g>
        <path id="Trazado_1047298" data-name="Trazado 1047298" d="M376.318,199.613l-1.077.256-1.151.575-1.5,1.988-.758,2.411v6.508l.706.785.47.15h6.179a1.453,1.453,0,0,0,1.453-1.453v-4.7A7.113,7.113,0,0,0,376.318,199.613Z" transform="translate(-333.713 -179.515)" fill="#ff5ca8"/>
        <path id="Trazado_1047299" data-name="Trazado 1047299" d="M327.489,205.967v-4.7a7.113,7.113,0,0,1,4.319-6.52,7.024,7.024,0,0,0-2.866-.568,7.125,7.125,0,0,0-6.825,5.636v.458l.593,2.267V206.9l.476.5a1.444,1.444,0,0,0,.215.018h5.539A1.453,1.453,0,0,1,327.489,205.967Z" transform="translate(-289.204 -174.651)" fill="#ff3c98"/>
        <path id="Trazado_1047300" data-name="Trazado 1047300" d="M113.411,204.408a7.137,7.137,0,0,0-4.25-5.117h-.994l-2.354,2.133-1.072,2.589-.288,1.363v5.776l.765.694.633.15H112.1a1.462,1.462,0,0,0,.216-.018l.5-.921v-3.452l.907-2.229Z" transform="translate(-94.31 -179.227)" fill="#73d578"/>
        <path id="Trazado_1047301" data-name="Trazado 1047301" d="M61.339,205.967v-4.605a7.2,7.2,0,0,1,4.409-6.647,7.024,7.024,0,0,0-2.788-.534,7.149,7.149,0,0,0-6.993,7.181v4.605a1.453,1.453,0,0,0,1.453,1.453h5.371a1.453,1.453,0,0,1-1.453-1.453Z" transform="translate(-50.897 -174.651)" fill="#00c63a"/>
        <path id="Trazado_1047302" data-name="Trazado 1047302" d="M228.356,214.249h-1.6l-3.487,2.739-1.151,2.581v7.567l1.042,1.216.989.344h7.863a1.637,1.637,0,0,0,1.637-1.637v-5.293A8.017,8.017,0,0,0,228.356,214.249Z" transform="translate(-199.667 -192.62)" fill="#00c2fb"/>
        <path id="Trazado_1047303" data-name="Trazado 1047303" d="M185.028,223.033v-5.189a8.11,8.11,0,0,1,5.307-7.621,7.918,7.918,0,0,0-2.8-.47,8.055,8.055,0,0,0-7.878,8.091v5.189a1.637,1.637,0,0,0,1.637,1.637h5.371A1.637,1.637,0,0,1,185.028,223.033Z" transform="translate(-161.647 -188.595)" fill="#00abf2"/>
        <path id="Trazado_1047304" data-name="Trazado 1047304" d="M386.117,109.157H385.5l-1.771,1.336-.53,2.2.53,2.458,1.118,1.778,1.266.486a4.766,4.766,0,0,0,0-8.256Z" transform="translate(-343.898 -98.523)" fill="#ffcebe"/>
        <path id="Trazado_1047305" data-name="Trazado 1047305" d="M347.467,107.813a4.764,4.764,0,0,1,2.384-4.128,4.767,4.767,0,1,0,0,8.256A4.764,4.764,0,0,1,347.467,107.813Z" transform="translate(-307.633 -93.051)" fill="#ffb1a0"/>
        <path id="Trazado_1047306" data-name="Trazado 1047306" d="M320.368,13.743h-.631l-1.308,1.537-.976,2.319.366,2.075,1.648,1.866.9.262a4.681,4.681,0,0,0,0-8.058Z" transform="translate(-285.027 -13.09)" fill="#ffcebe"/>
        <path id="Trazado_1047307" data-name="Trazado 1047307" d="M282.555,12.186a4.678,4.678,0,0,1,2.3-4.029,4.681,4.681,0,1,0,0,8.058A4.678,4.678,0,0,1,282.555,12.186Z" transform="translate(-249.511 -7.505)" fill="#ffb1a0"/>
        <path id="Trazado_1047308" data-name="Trazado 1047308" d="M250.6,112.409h-.715l-1.534,1.4s-.994,2.183-1.029,2.391,0,2.51,0,2.51l1.447,2.667.889.628.941.035a5.371,5.371,0,0,0,0-9.627Z" transform="translate(-222.218 -101.434)" fill="#ffcebe"/>
        <path id="Trazado_1047309" data-name="Trazado 1047309" d="M209.423,112.448a5.37,5.37,0,0,1,2.988-4.813,5.371,5.371,0,1,0,0,9.627A5.371,5.371,0,0,1,209.423,112.448Z" transform="translate(-184.03 -96.66)" fill="#ffb1a0"/>
        <path id="Trazado_1047310" data-name="Trazado 1047310" d="M189.066,13.743h-.409l-1.848,1.641-.523,2.179v1.308l1.081,1.988.732.68.967.262a4.681,4.681,0,0,0,0-8.058Z" transform="translate(-167.582 -13.09)" fill="#ffcebe"/>
        <path id="Trazado_1047311" data-name="Trazado 1047311" d="M150.1,12.186a4.678,4.678,0,0,1,2.3-4.029,4.681,4.681,0,1,0,0,8.058A4.678,4.678,0,0,1,150.1,12.186Z" transform="translate(-130.909 -7.505)" fill="#ffb1a0"/>
        <path id="Trazado_1047312" data-name="Trazado 1047312" d="M123.628,109.157h-.761l-1.18,1.284-.732,1.8v1.831l.758,2.027,1.085,1.229.83.08a4.766,4.766,0,0,0,0-8.256Z" transform="translate(-109.085 -98.523)" fill="#ffcebe"/>
        <path id="Trazado_1047313" data-name="Trazado 1047313" d="M82.924,107.813a4.764,4.764,0,0,1,2.384-4.128,4.767,4.767,0,1,0,0,8.256A4.764,4.764,0,0,1,82.924,107.813Z" transform="translate(-70.765 -93.051)" fill="#ffb1a0"/>
        <path id="Trazado_1047314" data-name="Trazado 1047314" d="M229.672,399.125l-.464.584.464,2.695,2,1.943s2,.39,2.076.39,1.552-.284,1.552-.284l.427-.352,0-.022a1.155,1.155,0,0,1,.332-1.022l1.5-1.464a1.155,1.155,0,0,0-.64-1.97l-2.075-.3a1.155,1.155,0,0,1-.87-.632l-.928-1.88a1.155,1.155,0,0,0-2.072,0l-.928,1.88a1.154,1.154,0,0,1-.375.435Z" transform="translate(-206.014 -355.506)" fill="#ffe02f"/>
        <path id="Trazado_1047315" data-name="Trazado 1047315" d="M209.23,429.428a4.63,4.63,0,0,1-6.1-4.392,4.681,4.681,0,0,1,.038-.584,1.153,1.153,0,0,1-.495.2l-2.075.3a1.155,1.155,0,0,0-.64,1.97l1.5,1.463a1.155,1.155,0,0,1,.332,1.023l-.354,2.066a1.155,1.155,0,0,0,1.676,1.218l1.856-.976a1.156,1.156,0,0,1,1.075,0l1.856.976a1.155,1.155,0,0,0,1.676-1.218Z" transform="translate(-179.514 -380.832)" fill="#fbc700"/>
        <path id="Trazado_1047316" data-name="Trazado 1047316" d="M357.442,384.188l-.342.431.342,1.988,1.477,1.433s1.479.288,1.531.288,1.145-.209,1.145-.209l.315-.259,0-.016a.852.852,0,0,1,.245-.754l1.108-1.08a.852.852,0,0,0-.472-1.454l-1.531-.222a.852.852,0,0,1-.642-.466l-.685-1.387a.852.852,0,0,0-1.528,0l-.685,1.387A.851.851,0,0,1,357.442,384.188Z" transform="translate(-320.526 -342.827)" fill="#ffe02f"/>
        <path id="Trazado_1047317" data-name="Trazado 1047317" d="M342.362,406.542a3.416,3.416,0,0,1-4.5-3.24,3.452,3.452,0,0,1,.028-.431.851.851,0,0,1-.365.145l-1.531.222a.852.852,0,0,0-.472,1.453l1.108,1.08a.852.852,0,0,1,.245.754l-.261,1.524a.852.852,0,0,0,1.237.9l1.369-.72a.852.852,0,0,1,.793,0l1.369.72a.852.852,0,0,0,1.237-.9Z" transform="translate(-300.977 -361.509)" fill="#fbc700"/>
        <path id="Trazado_1047318" data-name="Trazado 1047318" d="M453.834,349.638l-.284.358.284,1.651,1.226,1.19s1.228.239,1.271.239.951-.174.951-.174l.262-.215,0-.013a.708.708,0,0,1,.2-.626l.92-.9a.708.708,0,0,0-.392-1.207L457,349.759a.708.708,0,0,1-.533-.387l-.568-1.152a.708.708,0,0,0-1.269,0l-.568,1.152a.707.707,0,0,1-.23.267Z" transform="translate(-406.886 -312.223)" fill="#ffe02f"/>
        <path id="Trazado_1047319" data-name="Trazado 1047319" d="M441.311,368.2a2.833,2.833,0,0,1-3.711-3.048.706.706,0,0,1-.3.121l-1.271.185a.708.708,0,0,0-.392,1.207l.92.9a.708.708,0,0,1,.2.626l-.217,1.266a.708.708,0,0,0,1.027.746l1.137-.6a.708.708,0,0,1,.659,0l1.137.6a.708.708,0,0,0,1.027-.746Z" transform="translate(-390.653 -327.737)" fill="#fbc700"/>
        <path id="Trazado_1047320" data-name="Trazado 1047320" d="M115.713,384.188l-.342.431.342,1.988,1.477,1.433s1.479.288,1.531.288,1.145-.209,1.145-.209l.315-.259,0-.016a.852.852,0,0,1,.245-.754l1.108-1.08a.852.852,0,0,0-.472-1.454l-1.531-.222a.852.852,0,0,1-.642-.466l-.685-1.387a.852.852,0,0,0-1.528,0l-.685,1.387A.849.849,0,0,1,115.713,384.188Z" transform="translate(-104.086 -342.827)" fill="#ffe02f"/>
        <path id="Trazado_1047321" data-name="Trazado 1047321" d="M100.633,406.542a3.416,3.416,0,0,1-4.5-3.24,3.448,3.448,0,0,1,.028-.431.851.851,0,0,1-.365.145l-1.531.222a.852.852,0,0,0-.472,1.453l1.108,1.08a.852.852,0,0,1,.245.754l-.261,1.524a.852.852,0,0,0,1.237.9l1.369-.72a.852.852,0,0,1,.793,0l1.369.72a.852.852,0,0,0,1.237-.9Z" transform="translate(-84.537 -361.509)" fill="#fbc700"/>
        <path id="Trazado_1047322" data-name="Trazado 1047322" d="M25.913,349.638l-.284.358.284,1.651,1.226,1.19s1.228.239,1.271.239.951-.174.951-.174l.262-.215,0-.013a.708.708,0,0,1,.2-.626l.92-.9a.708.708,0,0,0-.392-1.207l-1.271-.185a.708.708,0,0,1-.533-.387l-.568-1.152a.708.708,0,0,0-1.269,0l-.568,1.152a.708.708,0,0,1-.23.267Z" transform="translate(-23.732 -312.223)" fill="#ffe02f"/>
        <path id="Trazado_1047323" data-name="Trazado 1047323" d="M13.391,368.2a2.836,2.836,0,0,1-3.734-2.69,2.864,2.864,0,0,1,.023-.358.706.706,0,0,1-.3.121l-1.271.185a.708.708,0,0,0-.392,1.207l.92.9a.708.708,0,0,1,.2.626l-.217,1.266a.708.708,0,0,0,1.027.746l1.137-.6a.708.708,0,0,1,.659,0l1.137.6a.708.708,0,0,0,1.027-.746Z" transform="translate(-7.5 -327.737)" fill="#fbc700"/>
      </g>
      <g id="Grupo_1201262" data-name="Grupo 1201262" transform="translate(-0.001 0.005)">
        <path id="Trazado_1047324" data-name="Trazado 1047324" d="M48.47,27.5v4.605a2.24,2.24,0,0,0,2.238,2.238h10.7v.885a2.424,2.424,0,0,0,2.422,2.422H68.35a.785.785,0,0,0,0-1.569H63.831a.853.853,0,0,1-.852-.852V30.04a7.2,7.2,0,1,1,14.4-.1v5.293a.853.853,0,0,1-.852.852H72.012a.785.785,0,1,0,0,1.569h4.519a2.424,2.424,0,0,0,2.422-2.422v-.885h10.7a2.24,2.24,0,0,0,2.238-2.238v-4.7a7.888,7.888,0,0,0-4.79-7.241A5.553,5.553,0,0,0,89.094,17.8a.785.785,0,0,0-1.434-.637,3.983,3.983,0,1,1,.071-3.058.785.785,0,1,0,1.462-.57A5.549,5.549,0,0,0,81.4,10.656,7.737,7.737,0,0,0,80.2,10a5.466,5.466,0,1,0-6.109,0,7.712,7.712,0,0,0-1.538.893,6.143,6.143,0,0,0-4.692-.02A7.755,7.755,0,0,0,66.337,10a5.466,5.466,0,1,0-6.107,0A7.668,7.668,0,0,0,59,10.679a5.55,5.55,0,0,0-5.732,9.493,8,8,0,0,0-4.8,7.328Zm35.639-6.395a6.317,6.317,0,0,1,6.214,6.3v4.7a.669.669,0,0,1-.668.668h-10.7V29.935a8.768,8.768,0,0,0-1.018-4.1,6.29,6.29,0,0,1,6.175-4.733ZM73.245,5.471a3.9,3.9,0,1,1,3.9,3.9A3.9,3.9,0,0,1,73.245,5.471Zm3.813,5.466a6.067,6.067,0,0,1,2.992.733,5.55,5.55,0,0,0,.892,8.5,7.961,7.961,0,0,0-4.1,4.071,8.871,8.871,0,0,0-3.4-2.447,6.157,6.157,0,0,0,.6-10.009,6.1,6.1,0,0,1,3.013-.848Zm-6.877,1.054a4.587,4.587,0,0,1,0,9.173h-.006a4.587,4.587,0,0,1,0-9.173Zm-3.832-.232a6.155,6.155,0,0,0,.568,10.035,8.684,8.684,0,0,0-3.369,2.443,7.911,7.911,0,0,0-4.121-4.07,5.549,5.549,0,0,0,.912-8.47,6.03,6.03,0,0,1,2.863-.76,6.136,6.136,0,0,1,3.148.822ZM59.388,5.471a3.9,3.9,0,1,1,3.9,3.9,3.9,3.9,0,0,1-3.9-3.9ZM52.361,15.552a3.983,3.983,0,1,1,3.962,3.982A3.987,3.987,0,0,1,52.361,15.552Zm3.9,5.552a6.334,6.334,0,0,1,6.194,4.751,8.972,8.972,0,0,0-1.042,4.185v2.735h-10.7a.669.669,0,0,1-.668-.668V27.5a6.376,6.376,0,0,1,6.219-6.4Z" transform="translate(-43.399 -0.005)"/>
        <path id="Trazado_1047325" data-name="Trazado 1047325" d="M204.893,395.44a1.94,1.94,0,0,0-1.075-3.309l-2.075-.3a.371.371,0,0,1-.279-.2l-.928-1.88a1.94,1.94,0,0,0-3.479,0l-.928,1.88a.371.371,0,0,1-.279.2l-2.075.3a1.94,1.94,0,0,0-1.075,3.309l1.5,1.463a.371.371,0,0,1,.107.328l-.355,2.066a1.94,1.94,0,0,0,2.815,2.045l1.856-.976a.371.371,0,0,1,.345,0l1.856.976a1.94,1.94,0,0,0,2.814-2.045l-.354-2.066a.371.371,0,0,1,.107-.328Zm-2.6.34a1.94,1.94,0,0,0-.558,1.717l.354,2.067a.37.37,0,0,1-.538.391l-1.856-.976a1.94,1.94,0,0,0-1.805,0l-1.856.976a.371.371,0,0,1-.538-.391l.355-2.066a1.94,1.94,0,0,0-.558-1.717l-1.5-1.463a.371.371,0,0,1,.205-.632l2.075-.3a1.939,1.939,0,0,0,1.461-1.061l.928-1.88a.371.371,0,0,1,.665,0l.928,1.88a1.939,1.939,0,0,0,1.461,1.061l2.075.3a.371.371,0,0,1,.205.632Z" transform="translate(-172.014 -348.006)"/>
        <path id="Trazado_1047326" data-name="Trazado 1047326" d="M337.958,378.178a1.627,1.627,0,0,0-1.321-1.114l-1.531-.222a.067.067,0,0,1-.051-.037l-.685-1.387a1.637,1.637,0,0,0-2.936,0l-.684,1.387a.068.068,0,0,1-.051.037l-1.531.222a1.637,1.637,0,0,0-.907,2.792l1.108,1.08a.068.068,0,0,1,.02.06l-.262,1.525a1.637,1.637,0,0,0,2.375,1.725l1.369-.72a.067.067,0,0,1,.063,0l1.369.72a1.637,1.637,0,0,0,2.375-1.725L336.417,381a.067.067,0,0,1,.019-.06l1.108-1.08h0A1.627,1.627,0,0,0,337.958,378.178Zm-1.509.554-1.108,1.08a1.636,1.636,0,0,0-.471,1.449l.261,1.524a.068.068,0,0,1-.1.071l-1.369-.72a1.637,1.637,0,0,0-1.523,0l-1.369.72a.059.059,0,0,1-.071-.005.059.059,0,0,1-.027-.066l.262-1.524a1.637,1.637,0,0,0-.471-1.449l-1.108-1.08a.068.068,0,0,1,.037-.115l1.531-.222a1.636,1.636,0,0,0,1.232-.9l.685-1.387a.068.068,0,0,1,.121,0l.685,1.387a1.636,1.636,0,0,0,1.232.9l1.531.222a.068.068,0,0,1,.038.115Z" transform="translate(-293.477 -335.326)"/>
        <path id="Trazado_1047327" data-name="Trazado 1047327" d="M436.263,345a1.492,1.492,0,0,0-.827-2.545l-1.231-.179-.55-1.115a1.492,1.492,0,0,0-2.676,0l-.55,1.115-1.231.179A1.492,1.492,0,0,0,428.37,345l.891.868-.21,1.226a1.492,1.492,0,0,0,2.165,1.573l1.1-.579,1.1.579a1.492,1.492,0,0,0,2.165-1.573l-.21-1.226Zm-2.015-.227a1.492,1.492,0,0,0-.429,1.321l.191,1.112-1-.525a1.493,1.493,0,0,0-1.389,0l-1,.525.191-1.112a1.492,1.492,0,0,0-.429-1.321l-.808-.787,1.117-.162a1.492,1.492,0,0,0,1.123-.816l.5-1.012.5,1.012a1.492,1.492,0,0,0,1.124.816l1.116.162Z" transform="translate(-383.151 -304.724)"/>
        <path id="Trazado_1047328" data-name="Trazado 1047328" d="M86.534,379.855l1.108,1.08a.068.068,0,0,1,.019.06l-.261,1.524a1.637,1.637,0,0,0,2.375,1.726l1.369-.72a.067.067,0,0,1,.063,0l1.369.72a1.637,1.637,0,0,0,2.375-1.725l-.262-1.525a.067.067,0,0,1,.02-.06l1.107-1.08a1.637,1.637,0,0,0-.907-2.792l-1.531-.222a.068.068,0,0,1-.051-.037l-.685-1.387a1.637,1.637,0,0,0-2.936,0l-.685,1.387a.068.068,0,0,1-.051.037l-1.531.222a1.637,1.637,0,0,0-.908,2.792Zm1.078-1.193a.059.059,0,0,1,.055-.046l1.531-.222a1.636,1.636,0,0,0,1.232-.9l.685-1.387a.068.068,0,0,1,.121,0l.685,1.387a1.636,1.636,0,0,0,1.232.9l1.531.222a.068.068,0,0,1,.037.115l-1.108,1.08a1.636,1.636,0,0,0-.471,1.449l.261,1.525a.068.068,0,0,1-.1.071l-1.369-.72a1.637,1.637,0,0,0-1.523,0l-1.369.72a.068.068,0,0,1-.1-.071l.261-1.524a1.637,1.637,0,0,0-.471-1.449l-1.108-1.08h0A.059.059,0,0,1,87.612,378.662Z" transform="translate(-77.038 -335.325)"/>
        <path id="Trazado_1047329" data-name="Trazado 1047329" d="M4.4,340.327a1.483,1.483,0,0,0-1.338.832l-.55,1.115-1.231.179A1.492,1.492,0,0,0,.45,345h0l.891.868-.21,1.226A1.492,1.492,0,0,0,3.3,348.665l1.1-.579,1.1.579a1.492,1.492,0,0,0,2.165-1.573l-.21-1.226L8.343,345a1.492,1.492,0,0,0-.827-2.545l-1.231-.179-.55-1.115a1.483,1.483,0,0,0-1.338-.832Zm1.623,3.494,1.116.162-.808.787a1.492,1.492,0,0,0-.429,1.321L6.09,347.2l-1-.525a1.493,1.493,0,0,0-1.389,0l-1,.525.191-1.112a1.492,1.492,0,0,0-.429-1.321l-.808-.787,1.116-.162A1.492,1.492,0,0,0,3.9,343l.5-1.012L4.9,343a1.493,1.493,0,0,0,1.124.816Z" transform="translate(0.001 -304.724)"/>
      </g>
    </g>
  </g>
</svg>
