<svg xmlns="http://www.w3.org/2000/svg" xmlns:xlink="http://www.w3.org/1999/xlink" width="93.934" height="93.934" viewBox="0 0 93.934 93.934">
  <defs>
    <filter id="Trazado_982547" x="0" y="0" width="93.934" height="93.934" filterUnits="userSpaceOnUse">
      <feOffset dy="3" input="SourceAlpha"/>
      <feGaussianBlur stdDeviation="3" result="blur"/>
      <feFlood flood-opacity="0.161"/>
      <feComposite operator="in" in2="blur"/>
      <feComposite in="SourceGraphic"/>
    </filter>
  </defs>
  <g id="Grupo_1201264" data-name="Grupo 1201264" transform="translate(-609 -6206.287)">
    <g id="Grupo_1183775" data-name="Grupo 1183775" transform="translate(0 3337.287)">
      <g id="Grupo_1182348" data-name="Grupo 1182348" transform="translate(419.967 1089)">
        <g id="Grupo_1176309" data-name="Grupo 1176309" transform="translate(0 -206)">
          <g id="Grupo_1172970" data-name="Grupo 1172970" transform="translate(-1 -9042)">
            <g id="Grupo_1171971" data-name="Grupo 1171971" transform="translate(199.033 11034)">
              <g id="Grupo_1167337" data-name="Grupo 1167337" transform="translate(0)">
                <g id="Grupo_1166720" data-name="Grupo 1166720">
                  <g id="Grupo_1164305" data-name="Grupo 1164305">
                    <g id="Grupo_1163948" data-name="Grupo 1163948">
                      <g id="Grupo_1158168" data-name="Grupo 1158168">
                        <g id="Grupo_1152576" data-name="Grupo 1152576">
                          <g id="Grupo_1148633" data-name="Grupo 1148633">
                            <g id="Grupo_1148525" data-name="Grupo 1148525">
                              <g transform="matrix(1, 0, 0, 1, -9, -6)" filter="url(#Trazado_982547)">
                                <g id="Trazado_982547-2" data-name="Trazado 982547" transform="translate(9 6)" fill="#f2f7f5">
                                  <path d="M 37.966796875 74.43359375 C 33.04315185546875 74.43359375 28.26757431030273 73.46962738037109 23.77274131774902 71.56847381591797 C 19.43047523498535 69.73184967041016 15.53040790557861 67.10224914550781 12.18087482452393 63.75271987915039 C 8.831341743469238 60.4031867980957 6.201741218566895 56.50312042236328 4.365118980407715 52.16086196899414 C 2.463963508605957 47.66601943969727 1.499996900558472 42.89044189453125 1.499996900558472 37.966796875 C 1.499996900558472 33.04315185546875 2.463963508605957 28.26757431030273 4.365118980407715 23.77274131774902 C 6.201741218566895 19.43047523498535 8.831341743469238 15.53040790557861 12.18087482452393 12.18087482452393 C 15.53040790557861 8.831341743469238 19.43047523498535 6.201741218566895 23.77274131774902 4.365118980407715 C 28.26757431030273 2.463963508605957 33.04315185546875 1.499996900558472 37.966796875 1.499996900558472 C 42.89044189453125 1.499996900558472 47.66601943969727 2.463963508605957 52.16086196899414 4.365118980407715 C 56.50312042236328 6.201741218566895 60.4031867980957 8.831341743469238 63.75271987915039 12.18087482452393 C 67.10224914550781 15.53040790557861 69.73184967041016 19.43047523498535 71.56847381591797 23.77274131774902 C 73.46962738037109 28.26757431030273 74.43359375 33.04315185546875 74.43359375 37.966796875 C 74.43359375 42.89044189453125 73.46962738037109 47.66601943969727 71.56847381591797 52.16086196899414 C 69.73184967041016 56.50313186645508 67.10224914550781 60.4031867980957 63.75271987915039 63.75271987915039 C 60.4031867980957 67.10224914550781 56.50313186645508 69.73184967041016 52.16086196899414 71.56847381591797 C 47.66601943969727 73.46962738037109 42.89044189453125 74.43359375 37.966796875 74.43359375 Z" stroke="none"/>
                                  <path d="M 37.966796875 3 C 33.2449836730957 3 28.66600799560547 3.924095153808594 24.35705947875977 5.746635437011719 C 20.19359588623047 7.507637023925781 16.45379638671875 10.02928161621094 13.24153518676758 13.24153518676758 C 10.02927398681641 16.45379638671875 7.507621765136719 20.19359588623047 5.746635437011719 24.35705947875977 C 3.924095153808594 28.66600799560547 3 33.2449836730957 3 37.966796875 C 3 42.6886100769043 3.924095153808594 47.26758575439453 5.746635437011719 51.57653427124023 C 7.507621765136719 55.73999786376953 10.02927398681641 59.47979736328125 13.24153518676758 62.69205856323242 C 16.45379638671875 65.90431976318359 20.19359588623047 68.42597198486328 24.35705947875977 70.18695831298828 C 28.66600799560547 72.00949859619141 33.2449836730957 72.93359375 37.966796875 72.93359375 C 42.6886100769043 72.93359375 47.26758575439453 72.00949859619141 51.57653427124023 70.18695831298828 C 55.73999786376953 68.42597198486328 59.47979736328125 65.90431976318359 62.69205856323242 62.69205856323242 C 65.90431976318359 59.47979736328125 68.42597198486328 55.73999786376953 70.18695831298828 51.57653427124023 C 72.00949859619141 47.26758575439453 72.93359375 42.6886100769043 72.93359375 37.966796875 C 72.93359375 33.2449836730957 72.00949859619141 28.66600799560547 70.18695831298828 24.35705947875977 C 68.42597198486328 20.19359588623047 65.90431976318359 16.45379638671875 62.69205856323242 13.24153518676758 C 59.47979736328125 10.02928161621094 55.73999786376953 7.507637023925781 51.57653427124023 5.746635437011719 C 47.26758575439453 3.924095153808594 42.6886100769043 3 37.966796875 3 M 37.966796875 0 C 58.93528366088867 0 75.93359375 16.99832153320312 75.93359375 37.966796875 C 75.93359375 58.93528366088867 58.93528366088867 75.93359375 37.966796875 75.93359375 C 16.99831008911133 75.93359375 0 58.93528366088867 0 37.966796875 C 0 16.99832153320312 16.99831008911133 0 37.966796875 0 Z" stroke="none" fill="#4a665c"/>
                                </g>
                              </g>
                            </g>
                          </g>
                        </g>
                      </g>
                    </g>
                  </g>
                </g>
              </g>
            </g>
          </g>
        </g>
      </g>
    </g>
    <g id="tecnica" transform="translate(626.989 6219)">
      <path id="Trazado_1047330" data-name="Trazado 1047330" d="M38.873,50H22.888a.888.888,0,0,0-.888.888v1.776a.888.888,0,0,0,.888.888h.888v1.776A1.776,1.776,0,0,0,25.552,57.1v1.184a2.259,2.259,0,0,0,2.131,2.368h6.394a2.259,2.259,0,0,0,2.131-2.368V57.1a1.776,1.776,0,0,0,1.776-1.776V53.552h.888a.888.888,0,0,0,.888-.888V50.888A.888.888,0,0,0,38.873,50Z" transform="translate(-1.903 -5.485)" fill="#536080"/>
      <path id="Trazado_1047331" data-name="Trazado 1047331" d="M24,54v1.776a1.776,1.776,0,0,0,1.776,1.776H36.433a1.776,1.776,0,0,0,1.776-1.776V54Z" transform="translate(-2.127 -5.932)" fill="#637399"/>
      <path id="Trazado_1047332" data-name="Trazado 1047332" d="M29.141,10.019c-8.318.407-15.176,7.545-15.618,16.26a17.449,17.449,0,0,0,7.321,15.268,2.133,2.133,0,0,1,.87,1.757v2.218H38.143v-2.16a2.232,2.232,0,0,1,.9-1.837,17.41,17.41,0,0,0,7.314-14.308c0-9.783-7.785-17.66-17.216-17.2Z" transform="translate(-0.951 -1.007)" fill="#c2daf2"/>
      <path id="Trazado_1047333" data-name="Trazado 1047333" d="M25.1,17c-2.452,0-4.44,1.7-4.44,3.806a3.274,3.274,0,0,0,.183,1.024A3.868,3.868,0,0,0,18,25.373a3.537,3.537,0,0,0,1.275,2.664A3.537,3.537,0,0,0,18,30.7a3.845,3.845,0,0,0,2.7,3.5c-.01.1-.036.2-.036.3,0,2.1,1.988,3.806,4.44,3.806a4.691,4.691,0,0,0,3.552-1.543V18.543A4.691,4.691,0,0,0,25.1,17Z" transform="translate(-1.455 -1.791)" fill="#f2d891"/>
      <path id="Trazado_1047334" data-name="Trazado 1047334" d="M42.843,29.212a8.746,8.746,0,0,0,0-3.11l1.814-1.114a10.813,10.813,0,0,0-2.665-4.926l-1.052.646a1.232,1.232,0,0,1-1.387-.036,7.89,7.89,0,0,0-1.191-.73,1.393,1.393,0,0,1-.722-1.26v-1.29A9.439,9.439,0,0,0,34.84,17q-.425.006-.84.052V23.8a3.327,3.327,0,0,1,.969-.144,3.828,3.828,0,0,1,3.633,4,3.828,3.828,0,0,1-3.633,4A3.327,3.327,0,0,1,34,31.509v6.753a9.2,9.2,0,0,0,1.1.051,9.447,9.447,0,0,0,2.543-.4V36.632a1.393,1.393,0,0,1,.722-1.26,7.88,7.88,0,0,0,1.191-.73,1.233,1.233,0,0,1,1.387-.036l1.046.643a10.81,10.81,0,0,0,2.67-4.923Z" transform="translate(-3.246 -1.791)" fill="#637399"/>
      <path id="Trazado_1047335" data-name="Trazado 1047335" d="M39.441,42.141a18.311,18.311,0,0,0,7.693-15.036,18.534,18.534,0,0,0-5.66-13.39,16.816,16.816,0,0,0-12.488-4.7c-8.766.428-16,7.941-16.461,17.1a18.244,18.244,0,0,0,7.7,16.042,1.254,1.254,0,0,1,.49,1.029v1.731a1.766,1.766,0,0,0-.666,1.375v1.776a1.778,1.778,0,0,0,1.776,1.776v.888a2.66,2.66,0,0,0,1.776,2.5V53.7a3.148,3.148,0,0,0,3.019,3.257h6.394A3.148,3.148,0,0,0,36.033,53.7V53.24a2.66,2.66,0,0,0,1.776-2.5v-.888a1.778,1.778,0,0,0,1.776-1.776V46.3a1.766,1.766,0,0,0-.666-1.375V43.25a1.353,1.353,0,0,1,.522-1.109ZM34.256,53.7a1.379,1.379,0,0,1-1.243,1.48H26.619a1.379,1.379,0,0,1-1.243-1.48v-.3h8.881Zm1.776-2.96a.889.889,0,0,1-.888.888H24.488a.889.889,0,0,1-.888-.888v-.888H36.033ZM21.823,48.075V46.3H37.809v1.776Zm16.6-7.389a3.11,3.11,0,0,0-1.279,2.564v1.272H22.489v-1.33a3.011,3.011,0,0,0-1.25-2.486A16.479,16.479,0,0,1,14.3,26.212c.419-8.261,6.909-15.034,14.774-15.418A15,15,0,0,1,40.249,15a16.751,16.751,0,0,1,5.109,12.1,16.532,16.532,0,0,1-6.935,13.58Z" transform="translate(-0.838 -0.896)"/>
      <path id="Trazado_1047336" data-name="Trazado 1047336" d="M31,1h1.776V5.44H31Z" transform="translate(-2.91)"/>
      <path id="Trazado_1047337" data-name="Trazado 1047337" d="M54,27h4.44v1.776H54Z" transform="translate(-5.485 -2.91)"/>
      <path id="Trazado_1047338" data-name="Trazado 1047338" d="M5,27H9.44v1.776H5Z" transform="translate(0 -2.91)"/>
      <path id="Trazado_1047339" data-name="Trazado 1047339" d="M0,0H1.776V4.44H0Z" transform="translate(11.394 8.653) rotate(-45)"/>
      <path id="Trazado_1047340" data-name="Trazado 1047340" d="M0,0H4.44V1.776H0Z" transform="translate(42.158 10.535) rotate(-45)"/>
      <path id="Trazado_1047341" data-name="Trazado 1047341" d="M24.993,16c-2.938,0-5.328,2.106-5.328,4.694a3.584,3.584,0,0,0,.034.492A4.58,4.58,0,0,0,17,25.261a4.28,4.28,0,0,0,.941,2.664A4.28,4.28,0,0,0,17,30.59a4.611,4.611,0,0,0,2.672,4.071,5.093,5.093,0,0,0,5.32,4.429,5.555,5.555,0,0,0,4.223-1.85.885.885,0,0,0,.218-.582V18.432a.885.885,0,0,0-.218-.582A5.555,5.555,0,0,0,24.993,16Zm2.664,20.3a3.847,3.847,0,0,1-2.664,1.01,3.318,3.318,0,0,1-3.518-2.737l1.115-.717H24.1V32.083H22.328a.89.89,0,0,0-.48.141l-1.34.862a2.864,2.864,0,0,1-1.731-2.5,2.654,2.654,0,0,1,.97-2c.02-.018.029-.044.047-.063h2.535V26.755H19.291a2.516,2.516,0,0,1-.515-1.493A2.864,2.864,0,0,1,20.6,22.729l1.1,1.1a.888.888,0,0,0,.628.26H24.1V22.314H22.7l-1.2-1.2a2.024,2.024,0,0,1-.052-.416c0-1.609,1.594-2.918,3.552-2.918a3.847,3.847,0,0,1,2.664,1.01Z" transform="translate(-1.343 -1.679)"/>
      <path id="Trazado_1047342" data-name="Trazado 1047342" d="M45.01,29.457l-1.317-.808a9.4,9.4,0,0,0,0-2.208l1.316-.809a.887.887,0,0,0,.4-.966,11.71,11.71,0,0,0-2.885-5.329.886.886,0,0,0-1.107-.143l-1.051.645a.354.354,0,0,1-.393.009,8.7,8.7,0,0,0-1.326-.813.521.521,0,0,1-.229-.466v-1.29a.888.888,0,0,0-.637-.852A10.312,10.312,0,0,0,34.718,16c-.312,0-.62.023-.924.056A.887.887,0,0,0,33,16.94v6.752a.888.888,0,0,0,1.146.85,2.439,2.439,0,0,1,.711-.106A2.947,2.947,0,0,1,37.6,27.545a2.947,2.947,0,0,1-2.745,3.108,2.439,2.439,0,0,1-.711-.106A.888.888,0,0,0,33,31.4V38.15a.888.888,0,0,0,.794.883,10.135,10.135,0,0,0,1.063.056H35a10.389,10.389,0,0,0,2.781-.432.888.888,0,0,0,.638-.852V36.52a.521.521,0,0,1,.229-.465,8.724,8.724,0,0,0,1.326-.812.353.353,0,0,1,.393.008l1.046.643a.891.891,0,0,0,1.107-.143,11.708,11.708,0,0,0,2.891-5.327.889.889,0,0,0-.4-.967Zm-3.3,4.533-.412-.253a2.118,2.118,0,0,0-2.381.08,6.958,6.958,0,0,1-1.057.648A2.284,2.284,0,0,0,36.64,36.52v.6a8.353,8.353,0,0,1-1.667.2h-.2V32.428h.081a4.719,4.719,0,0,0,4.521-4.884,4.719,4.719,0,0,0-4.521-4.884h-.081V17.776a8.911,8.911,0,0,1,1.864.193v.6a2.284,2.284,0,0,0,1.216,2.056,6.936,6.936,0,0,1,1.057.649,2.117,2.117,0,0,0,2.381.078l.417-.256a9.951,9.951,0,0,1,1.8,3.372l-1.245.766a.887.887,0,0,0-.41.908,7.838,7.838,0,0,1,0,2.806.89.89,0,0,0,.41.909l1.246.765a9.928,9.928,0,0,1-1.806,3.368Z" transform="translate(-3.134 -1.679)"/>
      <path id="Trazado_1047343" data-name="Trazado 1047343" d="M26,23.11h1.776v1.776H26Z" transform="translate(-2.351 -2.475)"/>
      <path id="Trazado_1047344" data-name="Trazado 1047344" d="M26,34.11h1.776v1.776H26Z" transform="translate(-2.351 -3.706)"/>
      <path id="Trazado_1047345" data-name="Trazado 1047345" d="M24,28.11h1.776v1.776H24Z" transform="translate(-2.127 -3.035)"/>
    </g>
  </g>
</svg>
