<svg xmlns="http://www.w3.org/2000/svg" xmlns:xlink="http://www.w3.org/1999/xlink" width="93.934" height="93.934" viewBox="0 0 93.934 93.934">
  <defs>
    <filter id="Trazado_982547" x="0" y="0" width="93.934" height="93.934" filterUnits="userSpaceOnUse">
      <feOffset dy="3" input="SourceAlpha"/>
      <feGaussianBlur stdDeviation="3" result="blur"/>
      <feFlood flood-opacity="0.161"/>
      <feComposite operator="in" in2="blur"/>
      <feComposite in="SourceGraphic"/>
    </filter>
  </defs>
  <g id="Grupo_1201265" data-name="Grupo 1201265" transform="translate(-1029.033 -6206.287)">
    <g id="Grupo_1183776" data-name="Grupo 1183776" transform="translate(0 3337.287)">
      <g id="Grupo_1182349" data-name="Grupo 1182349" transform="translate(840 1089)">
        <g id="Grupo_1176309" data-name="Grupo 1176309" transform="translate(0 -206)">
          <g id="Grupo_1172970" data-name="Grupo 1172970" transform="translate(-1 -9042)">
            <g id="Grupo_1171971" data-name="Grupo 1171971" transform="translate(199.033 11034)">
              <g id="Grupo_1167337" data-name="Grupo 1167337" transform="translate(0)">
                <g id="Grupo_1166720" data-name="Grupo 1166720">
                  <g id="Grupo_1164305" data-name="Grupo 1164305">
                    <g id="Grupo_1163948" data-name="Grupo 1163948">
                      <g id="Grupo_1158168" data-name="Grupo 1158168">
                        <g id="Grupo_1152576" data-name="Grupo 1152576">
                          <g id="Grupo_1148633" data-name="Grupo 1148633">
                            <g id="Grupo_1148525" data-name="Grupo 1148525">
                              <g transform="matrix(1, 0, 0, 1, -9, -6)" filter="url(#Trazado_982547)">
                                <g id="Trazado_982547-2" data-name="Trazado 982547" transform="translate(9 6)" fill="#f2f7f5">
                                  <path d="M 37.966796875 74.43359375 C 33.04315185546875 74.43359375 28.26757431030273 73.46962738037109 23.77274131774902 71.56847381591797 C 19.43047523498535 69.73184967041016 15.53040790557861 67.10224914550781 12.18087482452393 63.75271987915039 C 8.831341743469238 60.4031867980957 6.201741218566895 56.50312042236328 4.365118980407715 52.16086196899414 C 2.463963508605957 47.66601943969727 1.499996900558472 42.89044189453125 1.499996900558472 37.966796875 C 1.499996900558472 33.04315185546875 2.463963508605957 28.26757431030273 4.365118980407715 23.77274131774902 C 6.201741218566895 19.43047523498535 8.831341743469238 15.53040790557861 12.18087482452393 12.18087482452393 C 15.53040790557861 8.831341743469238 19.43047523498535 6.201741218566895 23.77274131774902 4.365118980407715 C 28.26757431030273 2.463963508605957 33.04315185546875 1.499996900558472 37.966796875 1.499996900558472 C 42.89044189453125 1.499996900558472 47.66601943969727 2.463963508605957 52.16086196899414 4.365118980407715 C 56.50312042236328 6.201741218566895 60.4031867980957 8.831341743469238 63.75271987915039 12.18087482452393 C 67.10224914550781 15.53040790557861 69.73184967041016 19.43047523498535 71.56847381591797 23.77274131774902 C 73.46962738037109 28.26757431030273 74.43359375 33.04315185546875 74.43359375 37.966796875 C 74.43359375 42.89044189453125 73.46962738037109 47.66601943969727 71.56847381591797 52.16086196899414 C 69.73184967041016 56.50313186645508 67.10224914550781 60.4031867980957 63.75271987915039 63.75271987915039 C 60.4031867980957 67.10224914550781 56.50313186645508 69.73184967041016 52.16086196899414 71.56847381591797 C 47.66601943969727 73.46962738037109 42.89044189453125 74.43359375 37.966796875 74.43359375 Z" stroke="none"/>
                                  <path d="M 37.966796875 3 C 33.2449836730957 3 28.66600799560547 3.924095153808594 24.35705947875977 5.746635437011719 C 20.19359588623047 7.507637023925781 16.45379638671875 10.02928161621094 13.24153518676758 13.24153518676758 C 10.02927398681641 16.45379638671875 7.507621765136719 20.19359588623047 5.746635437011719 24.35705947875977 C 3.924095153808594 28.66600799560547 3 33.2449836730957 3 37.966796875 C 3 42.6886100769043 3.924095153808594 47.26758575439453 5.746635437011719 51.57653427124023 C 7.507621765136719 55.73999786376953 10.02927398681641 59.47979736328125 13.24153518676758 62.69205856323242 C 16.45379638671875 65.90431976318359 20.19359588623047 68.42597198486328 24.35705947875977 70.18695831298828 C 28.66600799560547 72.00949859619141 33.2449836730957 72.93359375 37.966796875 72.93359375 C 42.6886100769043 72.93359375 47.26758575439453 72.00949859619141 51.57653427124023 70.18695831298828 C 55.73999786376953 68.42597198486328 59.47979736328125 65.90431976318359 62.69205856323242 62.69205856323242 C 65.90431976318359 59.47979736328125 68.42597198486328 55.73999786376953 70.18695831298828 51.57653427124023 C 72.00949859619141 47.26758575439453 72.93359375 42.6886100769043 72.93359375 37.966796875 C 72.93359375 33.2449836730957 72.00949859619141 28.66600799560547 70.18695831298828 24.35705947875977 C 68.42597198486328 20.19359588623047 65.90431976318359 16.45379638671875 62.69205856323242 13.24153518676758 C 59.47979736328125 10.02928161621094 55.73999786376953 7.507637023925781 51.57653427124023 5.746635437011719 C 47.26758575439453 3.924095153808594 42.6886100769043 3 37.966796875 3 M 37.966796875 0 C 58.93528366088867 0 75.93359375 16.99832153320312 75.93359375 37.966796875 C 75.93359375 58.93528366088867 58.93528366088867 75.93359375 37.966796875 75.93359375 C 16.99831008911133 75.93359375 0 58.93528366088867 0 37.966796875 C 0 16.99832153320312 16.99831008911133 0 37.966796875 0 Z" stroke="none" fill="#4a665c"/>
                                </g>
                              </g>
                            </g>
                          </g>
                        </g>
                      </g>
                    </g>
                  </g>
                </g>
              </g>
            </g>
          </g>
        </g>
      </g>
    </g>
    <g id="agregar-producto" transform="translate(1047.522 6220.207)">
      <g id="Icon" transform="translate(3.811 5.879)">
        <path id="Trazado_1047346" data-name="Trazado 1047346" d="M49.426,26.4,29.213,34.309,9,26.4l19.84-4.313a1.758,1.758,0,0,1,.747,0Z" transform="translate(-4.546 -7.944)" fill="#c47218"/>
        <path id="Trazado_1047347" data-name="Trazado 1047347" d="M32,34.909V56.88l19.1-7.472a1.758,1.758,0,0,0,1.117-1.637V27Z" transform="translate(-7.333 -8.545)" fill="#ffa000"/>
        <path id="Trazado_1047348" data-name="Trazado 1047348" d="M9,27V47.771a1.758,1.758,0,0,0,1.117,1.637l19.1,7.472V34.91Z" transform="translate(-4.546 -8.545)" fill="#ffb300"/>
        <path id="Trazado_1047349" data-name="Trazado 1047349" d="M55.549,36.546l-16.893,6.61a1.758,1.758,0,0,1-2.148-.732L32,34.909,52.213,27l4.2,7A1.758,1.758,0,0,1,55.549,36.546Z" transform="translate(-7.333 -8.545)" fill="#ffca28"/>
        <path id="Trazado_1047350" data-name="Trazado 1047350" d="M5.05,36.546l16.893,6.61a1.758,1.758,0,0,0,2.148-.732L28.6,34.909,8.386,27l-4.2,7A1.758,1.758,0,0,0,5.05,36.546Z" transform="translate(-3.932 -8.545)" fill="#ffca28"/>
        <circle id="Elipse_14238" data-name="Elipse 14238" cx="10.546" cy="10.546" r="10.546" transform="translate(14.121)" fill="#7cb342"/>
        <path id="Trazado_1047351" data-name="Trazado 1047351" d="M36.425,15.394H32.909V11.879A.879.879,0,0,0,32.031,11H30.273a.879.879,0,0,0-.879.879v3.515H25.879a.879.879,0,0,0-.879.879v1.758a.879.879,0,0,0,.879.879h3.515v3.515a.879.879,0,0,0,.879.879h1.758a.879.879,0,0,0,.879-.879V18.909h3.515a.879.879,0,0,0,.879-.879V16.273A.879.879,0,0,0,36.425,15.394Z" transform="translate(-6.485 -6.606)" fill="#e0e0e0"/>
      </g>
      <g id="Line" transform="translate(2.934 5)">
        <path id="Trazado_1047352" data-name="Trazado 1047352" d="M53.648,30.887l-4.2-7.005a.984.984,0,0,0-.567-.406L38.8,21.285a11.425,11.425,0,1,0-20.648,0L8.078,23.476a.983.983,0,0,0-.567.406l-4.2,7.005a2.652,2.652,0,0,0,1.3,3.811l2.778,1.087v9.32a2.621,2.621,0,0,0,1.676,2.455l19.1,7.472a.877.877,0,0,0,.64,0l19.1-7.472a2.621,2.621,0,0,0,1.675-2.455v-9.32L52.348,34.7a2.652,2.652,0,0,0,1.3-3.811ZM28.478,6.758a9.667,9.667,0,1,1-9.667,9.667,9.678,9.678,0,0,1,9.667-9.667ZM19.065,22.886a11.407,11.407,0,0,0,18.826,0l7.772,1.69L28.478,31.3,11.293,24.575l7.772-1.69ZM5.249,33.062a.883.883,0,0,1-.433-1.271l3.821-6.368,18.553,7.26-3.974,6.623a.878.878,0,0,1-1.074.366ZM27.6,52.927l-17.9-7a.874.874,0,0,1-.559-.819V36.473L21.5,41.309a2.633,2.633,0,0,0,3.221-1.1L27.6,35.417v17.51Zm20.213-7.822a.875.875,0,0,1-.558.819l-17.9,7V35.417l2.876,4.794a2.633,2.633,0,0,0,3.221,1.1l12.358-4.836v8.632Zm3.9-12.043L34.814,39.673a.878.878,0,0,1-1.074-.366l-3.974-6.623,18.553-7.26,3.821,6.368a.883.883,0,0,1-.433,1.271Zm-28.5-14h2.636V21.7A1.76,1.76,0,0,0,27.6,23.455h1.758A1.76,1.76,0,0,0,31.115,21.7V19.061h2.636A1.76,1.76,0,0,0,35.509,17.3V15.546a1.76,1.76,0,0,0-1.758-1.758H31.115V11.152a1.76,1.76,0,0,0-1.758-1.758H27.6a1.76,1.76,0,0,0-1.758,1.758v2.636H23.205a1.76,1.76,0,0,0-1.758,1.758V17.3A1.76,1.76,0,0,0,23.205,19.061Zm0-3.515H26.72a.879.879,0,0,0,.879-.879V11.152h1.758v3.515a.879.879,0,0,0,.879.879h3.515V17.3H30.236a.879.879,0,0,0-.879.879V21.7H27.6V18.182a.879.879,0,0,0-.879-.879H23.205Z" transform="translate(-2.934 -5)"/>
      </g>
    </g>
  </g>
</svg>
