<svg xmlns="http://www.w3.org/2000/svg" xmlns:xlink="http://www.w3.org/1999/xlink" width="113" height="113" viewBox="0 0 113 113">
  <defs>
    <filter id="Trazado_982547" x="0" y="0.001" width="113" height="113" filterUnits="userSpaceOnUse">
      <feOffset dy="3" input="SourceAlpha"/>
      <feGaussianBlur stdDeviation="3" result="blur"/>
      <feFlood flood-opacity="0.161"/>
      <feComposite operator="in" in2="blur"/>
      <feComposite in="SourceGraphic"/>
    </filter>
  </defs>
  <g id="Grupo_1201269" data-name="Grupo 1201269" transform="translate(-141.004 -6814.726)">
    <g id="Grupo_1183777" data-name="Grupo 1183777" transform="translate(150.004 6820.726)">
      <g id="Grupo_1182567" data-name="Grupo 1182567">
        <g id="Grupo_1180298" data-name="Grupo 1180298" transform="translate(0 0)">
          <g id="Grupo_1173622" data-name="Grupo 1173622">
            <g id="Grupo_1172087" data-name="Grupo 1172087" transform="translate(0)">
              <g id="Grupo_1171485" data-name="Grupo 1171485">
                <g id="Grupo_1167519" data-name="Grupo 1167519">
                  <g id="Grupo_1166845" data-name="Grupo 1166845">
                    <g id="Grupo_1166720" data-name="Grupo 1166720">
                      <g id="Grupo_1164305" data-name="Grupo 1164305">
                        <g id="Grupo_1163948" data-name="Grupo 1163948">
                          <g id="Grupo_1158168" data-name="Grupo 1158168">
                            <g id="Grupo_1152576" data-name="Grupo 1152576">
                              <g id="Grupo_1148633" data-name="Grupo 1148633">
                                <g id="Grupo_1148525" data-name="Grupo 1148525">
                                  <g transform="matrix(1, 0, 0, 1, -9, -6)" filter="url(#Trazado_982547)">
                                    <g id="Trazado_982547-2" data-name="Trazado 982547" transform="translate(9 6)" fill="#f1f0f2">
                                      <path d="M 47.5 93.5 C 41.28937149047852 93.5 35.26533508300781 92.28397369384766 29.59518623352051 89.88570404052734 C 24.11771965026855 87.56893157958984 19.19813346862793 84.25196075439453 14.97309303283691 80.02691650390625 C 10.74804019927979 75.80186462402344 7.431066513061523 70.88229370117188 5.114293098449707 65.40481567382812 C 2.716026782989502 59.73468017578125 1.5 53.71062850952148 1.5 47.5 C 1.5 41.28937149047852 2.716026782989502 35.26533508300781 5.114293098449707 29.59518623352051 C 7.431066513061523 24.11771965026855 10.74804019927979 19.19813346862793 14.97309303283691 14.97309303283691 C 19.19813346862793 10.74804019927979 24.11771965026855 7.431066513061523 29.59518623352051 5.114293098449707 C 35.26533508300781 2.716026782989502 41.28937149047852 1.5 47.5 1.5 C 53.71062850952148 1.5 59.73468017578125 2.716026782989502 65.40481567382812 5.114293098449707 C 70.88229370117188 7.431066513061523 75.80186462402344 10.74804019927979 80.02691650390625 14.97309303283691 C 84.25196075439453 19.19813346862793 87.56893157958984 24.11771965026855 89.88570404052734 29.59518623352051 C 92.28397369384766 35.26533508300781 93.5 41.28937149047852 93.5 47.5 C 93.5 53.71062850952148 92.28397369384766 59.73468017578125 89.88570404052734 65.40481567382812 C 87.56893157958984 70.88229370117188 84.25196075439453 75.80186462402344 80.02691650390625 80.02691650390625 C 75.80186462402344 84.25196075439453 70.88229370117188 87.56893157958984 65.40481567382812 89.88570404052734 C 59.73468017578125 92.28397369384766 53.71062850952148 93.5 47.5 93.5 Z" stroke="none"/>
                                      <path d="M 47.5 3 C 41.49121475219727 3 35.66376876831055 4.176155090332031 30.17950439453125 6.495796203613281 C 24.88084411621094 8.736953735351562 20.12152099609375 11.94598388671875 16.03375244140625 16.03375244140625 C 11.94598388671875 20.12152099609375 8.736953735351562 24.88084411621094 6.495796203613281 30.17950439453125 C 4.176155090332031 35.66376876831055 3 41.49121475219727 3 47.5 C 3 53.50878524780273 4.176155090332031 59.33623123168945 6.495796203613281 64.82049560546875 C 8.736953735351562 70.11915588378906 11.94598388671875 74.87847900390625 16.03375244140625 78.96624755859375 C 20.12152099609375 83.05401611328125 24.88084411621094 86.26304626464844 30.17950439453125 88.50419616699219 C 35.66376876831055 90.82384490966797 41.49121475219727 92 47.5 92 C 53.50878524780273 92 59.33623123168945 90.82384490966797 64.82049560546875 88.50419616699219 C 70.11915588378906 86.26304626464844 74.87847900390625 83.05401611328125 78.96624755859375 78.96624755859375 C 83.05401611328125 74.87847900390625 86.26304626464844 70.11915588378906 88.50419616699219 64.82049560546875 C 90.82384490966797 59.33623123168945 92 53.50878524780273 92 47.5 C 92 41.49121475219727 90.82384490966797 35.66376876831055 88.50419616699219 30.17950439453125 C 86.26304626464844 24.88084411621094 83.05401611328125 20.12152099609375 78.96624755859375 16.03375244140625 C 74.87847900390625 11.94598388671875 70.11915588378906 8.736953735351562 64.82049560546875 6.495796203613281 C 59.33623123168945 4.176155090332031 53.50878524780273 3 47.5 3 M 47.5 0 C 73.7335205078125 0 95 21.2664794921875 95 47.5 C 95 73.7335205078125 73.7335205078125 95 47.5 95 C 21.2664794921875 95 0 73.7335205078125 0 47.5 C 0 21.2664794921875 21.2664794921875 0 47.5 0 Z" stroke="none" fill="#817489"/>
                                    </g>
                                  </g>
                                </g>
                              </g>
                            </g>
                          </g>
                        </g>
                      </g>
                    </g>
                  </g>
                </g>
              </g>
            </g>
          </g>
        </g>
      </g>
    </g>
    <g id="estudiante" transform="translate(162.72 6769.506)">
      <path id="Trazado_1047353" data-name="Trazado 1047353" d="M16.38,198.565l-7.215,7.012A5.4,5.4,0,0,0,8.47,212.5l3.41,4.99a3.6,3.6,0,0,1,.628,2.032v3.8h5.4V199.781Z" transform="translate(-6.505 -109.272)" fill="#f1d0a5"/>
      <path id="Trazado_1047354" data-name="Trazado 1047354" d="M429.633,198.565l7.215,7.012a5.4,5.4,0,0,1,.695,6.921l-3.41,4.99a3.6,3.6,0,0,0-.628,2.032v3.8h-5.4V199.781Z" transform="translate(-369.941 -109.272)" fill="#f1d0a5"/>
      <path id="Trazado_1047355" data-name="Trazado 1047355" d="M438.49,205.577l-7.216-7.012L430,199.576l6.175,6a5.4,5.4,0,0,1,.695,6.921l-3.41,4.99a3.6,3.6,0,0,0-.628,2.032v3.8h2.313v-3.8a3.6,3.6,0,0,1,.628-2.032l3.41-4.99A5.4,5.4,0,0,0,438.49,205.577Z" transform="translate(-371.582 -109.272)" fill="#f1b986"/>
      <path id="Trazado_1047356" data-name="Trazado 1047356" d="M70.66,108.23a1.17,1.17,0,0,0-1.17,1.17v22.756a4.03,4.03,0,0,0,4.03,4.03h16.9a1.148,1.148,0,0,1,1.1.818l.2.478a1.148,1.148,0,0,0,1.1.818h4.022a1.148,1.148,0,0,0,1.1-.818l.2-.478a1.148,1.148,0,0,1,1.1-.818h16.9a4.03,4.03,0,0,0,4.03-4.03V109.4a1.17,1.17,0,0,0-1.17-1.17H100.748l-5.973,8.132-6.7-8.132Z" transform="translate(-60.049 -31.209)" fill="#9dc6fb"/>
      <g id="Grupo_1201267" data-name="Grupo 1201267" transform="translate(53.563 77.021)">
        <path id="Trazado_1047357" data-name="Trazado 1047357" d="M399.646,108.23h-2.533a1.17,1.17,0,0,1,1.17,1.17v22.756a4.03,4.03,0,0,1-4.03,4.03h2.533a4.03,4.03,0,0,0,4.03-4.03V109.4A1.17,1.17,0,0,0,399.646,108.23Z" transform="translate(-394.252 -108.23)" fill="#8993da"/>
      </g>
      <path id="Trazado_1047358" data-name="Trazado 1047358" d="M256.987,107.031h-17.8a2.623,2.623,0,0,1-2.623-2.623l-3.06-1.191V86.457l3.06-1.3a5.543,5.543,0,0,1,5.543-5.543h14.876a.7.7,0,0,1,.7.7v26.026A.7.7,0,0,1,256.987,107.031Z" transform="translate(-201.784 -6.481)" fill="#fff6f4"/>
      <path id="Trazado_1047359" data-name="Trazado 1047359" d="M391.47,79.614h-2.336a.7.7,0,0,1,.7.7v26.026a.7.7,0,0,1-.7.7h2.336a.7.7,0,0,0,.7-.7V80.309A.7.7,0,0,0,391.47,79.614Z" transform="translate(-336.266 -6.481)" fill="#d8e2f1"/>
      <path id="Trazado_1047360" data-name="Trazado 1047360" d="M119.1,107.031h-17.8a.7.7,0,0,1-.7-.7V80.309a.7.7,0,0,1,.7-.7h14.876a5.543,5.543,0,0,1,5.543,5.543v19.25A2.623,2.623,0,0,1,119.1,107.031Z" transform="translate(-86.943 -6.481)" fill="#fff6f4"/>
      <path id="Trazado_1047361" data-name="Trazado 1047361" d="M199.968,79.614h-2.4a5.543,5.543,0,0,1,5.543,5.543v19.25a2.623,2.623,0,0,1-2.623,2.623h2.4a2.623,2.623,0,0,0,2.623-2.623V85.157A5.543,5.543,0,0,0,199.968,79.614Z" transform="translate(-170.727 -6.481)" fill="#d8e2f1"/>
      <path id="Trazado_1047362" data-name="Trazado 1047362" d="M394.292,250.845l-.086-4.152a5.661,5.661,0,0,0-.315-1.734,4.754,4.754,0,0,1,.818-4.589.852.852,0,0,0,.088-.954l-3.365-6.5a1.71,1.71,0,0,1,2.751-1.971l6.275,6.524-1.627,6.519-.847,6.861h-3.692Z" transform="translate(-338.087 -136.796)" fill="#f1d0a5"/>
      <path id="Trazado_1047363" data-name="Trazado 1047363" d="M59.136,250.845l.086-4.152a5.659,5.659,0,0,1,.315-1.734,4.754,4.754,0,0,0-.818-4.589.852.852,0,0,1-.088-.954l3.365-6.5a1.71,1.71,0,0,0-2.751-1.971l-6.275,6.524,1.627,6.519.847,6.861h3.692Z" transform="translate(-45.774 -136.796)" fill="#f1d0a5"/>
      <path id="Trazado_1047364" data-name="Trazado 1047364" d="M85.05,232.91a1.71,1.71,0,0,0-2.485-2.2,1.7,1.7,0,0,1,.555,2.2l-3.365,6.5a.852.852,0,0,0,.088.954,4.754,4.754,0,0,1,.818,4.589,5.659,5.659,0,0,0-.315,1.734l-.086,4.152h1.93l.086-4.152a5.659,5.659,0,0,1,.315-1.734,4.754,4.754,0,0,0-.818-4.589.852.852,0,0,1-.088-.954Z" transform="translate(-68.827 -136.795)" fill="#f1b986"/>
      <path id="Trazado_1047365" data-name="Trazado 1047365" d="M408.486,387.8H397.92a.846.846,0,0,1-.846-.846v-5.326a.846.846,0,0,1,.846-.846h10.566a.846.846,0,0,1,.846.846v5.326A.846.846,0,0,1,408.486,387.8Z" transform="translate(-343.128 -266.732)" fill="#365e7d"/>
      <path id="Trazado_1047366" data-name="Trazado 1047366" d="M466.171,380.781h-2.319a.847.847,0,0,1,.866.826v5.366a.847.847,0,0,1-.866.826h2.319a.847.847,0,0,0,.866-.826v-5.366A.847.847,0,0,0,466.171,380.781Z" transform="translate(-400.833 -266.732)" fill="#2b4d66"/>
      <path id="Trazado_1047367" data-name="Trazado 1047367" d="M36.17,387.8H25.6a.846.846,0,0,1-.846-.846v-5.326a.846.846,0,0,1,.846-.846H36.17a.846.846,0,0,1,.846.846v5.326A.846.846,0,0,1,36.17,387.8Z" transform="translate(-21.394 -266.732)" fill="#365e7d"/>
      <path id="Trazado_1047368" data-name="Trazado 1047368" d="M93.854,380.781H91.535a.847.847,0,0,1,.866.826v5.366a.847.847,0,0,1-.866.826h2.319a.847.847,0,0,0,.866-.826v-5.366A.847.847,0,0,0,93.854,380.781Z" transform="translate(-79.099 -266.732)" fill="#2b4d66"/>
      <g id="Grupo_1201268" data-name="Grupo 1201268" transform="translate(0.001 72.114)">
        <path id="Trazado_1047369" data-name="Trazado 1047369" d="M65.034,108.791l3.411-4.99a6.407,6.407,0,0,0-.826-8.226l-6.472-6.29V78.191A2.191,2.191,0,0,0,58.957,76H56.917V73.828A1.716,1.716,0,0,0,55.2,72.114H40.327a6.562,6.562,0,0,0-5.543,3.057,6.562,6.562,0,0,0-5.543-3.057H24.912a1.019,1.019,0,1,0,0,2.038H29.24a4.53,4.53,0,0,1,4.524,4.524v19.25a1.606,1.606,0,0,1-1.6,1.6H15.6l1.525-2.947a2.727,2.727,0,0,0-2.44-3.981V74.152h6.15a1.019,1.019,0,1,0,0-2.038H14.365a1.716,1.716,0,0,0-1.714,1.714V76H10.611a2.191,2.191,0,0,0-2.189,2.189V89.285L1.95,95.575a6.407,6.407,0,0,0-.826,8.227l3.411,4.99a2.573,2.573,0,0,1,.45,1.457v2.782H4.21A1.867,1.867,0,0,0,2.345,114.9v5.326a1.867,1.867,0,0,0,1.865,1.865h2a1.019,1.019,0,1,0,0-2.038H4.383v-4.981H14.6v4.981H10.289a1.019,1.019,0,1,0,0,2.038h4.487a1.867,1.867,0,0,0,1.865-1.865V114.9a1.867,1.867,0,0,0-1.865-1.865H14.4l.065-3.109a4.634,4.634,0,0,1,.258-1.422,5.762,5.762,0,0,0,.287-2.5H30.369c.133,0,.093.077.348.633a2.154,2.154,0,0,0,2.055,1.48H36.8a2.153,2.153,0,0,0,2.055-1.48c.258-.561.216-.633.349-.633H54.556a5.758,5.758,0,0,0,.287,2.5,4.628,4.628,0,0,1,.258,1.419l.065,3.112h-.373a1.867,1.867,0,0,0-1.865,1.865v5.326a1.867,1.867,0,0,0,1.865,1.865h3.3a1.019,1.019,0,1,0,0-2.038H54.965v-4.981h10.22v4.981H62.164a1.019,1.019,0,0,0,0,2.038h3.194a1.867,1.867,0,0,0,1.865-1.865V114.9a1.867,1.867,0,0,0-1.865-1.865h-.775v-2.782a2.571,2.571,0,0,1,.45-1.457ZM58.957,78.04a.151.151,0,0,1,.151.151V95.807l-2.19-2.277V78.04ZM40.327,74.152H54.879V92.6a2.727,2.727,0,0,0-2.439,3.981l1.524,2.947H37.407a1.606,1.606,0,0,1-1.6-1.6V78.676A4.53,4.53,0,0,1,40.327,74.152ZM10.611,78.04h2.039V93.53L10.46,95.807V78.191A.151.151,0,0,1,10.611,78.04ZM7.023,113.03v-2.782a4.6,4.6,0,0,0-.806-2.607l-3.41-4.99a4.374,4.374,0,0,1,.564-5.615l5.052-4.91v5.8l-1.96,2.037a1.019,1.019,0,1,0,1.469,1.413l6.275-6.524a.691.691,0,0,1,1.111.8l-3.36,6.494a1.861,1.861,0,0,0,.2,2.08,3.757,3.757,0,0,1,.642,3.605,6.67,6.67,0,0,0-.371,2.049l-.065,3.154H7.023ZM39.2,103.958a2.153,2.153,0,0,0-2.055,1.48c-.258.559-.216.633-.349.633H32.773c-.133,0-.093-.077-.349-.633a2.153,2.153,0,0,0-2.055-1.48H14.407a5.7,5.7,0,0,0-.6-.945l.747-1.444H32.161a3.631,3.631,0,0,0,2.623-1.119,3.631,3.631,0,0,0,2.623,1.119H55.019l.747,1.444a5.7,5.7,0,0,0-.6.945Zm18,9.072-.065-3.157a6.667,6.667,0,0,0-.371-2.046,3.757,3.757,0,0,1,.642-3.605,1.861,1.861,0,0,0,.2-2.08l-3.36-6.494a.691.691,0,0,1,1.111-.8l6.275,6.524a1.019,1.019,0,1,0,1.469-1.413l-1.96-2.037v-5.8l5.052,4.91a4.373,4.373,0,0,1,.564,5.615l-3.41,4.99a4.6,4.6,0,0,0-.806,2.607v2.782H57.2Z" transform="translate(-0.001 -72.114)"/>
        <path id="Trazado_1047370" data-name="Trazado 1047370" d="M288.936,117.342h9.732a1.019,1.019,0,0,0,0-2.038h-9.732a1.019,1.019,0,0,0,0,2.038Z" transform="translate(-248.801 -109.436)"/>
        <path id="Trazado_1047371" data-name="Trazado 1047371" d="M288.936,155.817h9.732a1.019,1.019,0,0,0,0-2.038h-9.732a1.019,1.019,0,0,0,0,2.038Z" transform="translate(-248.801 -142.684)"/>
        <path id="Trazado_1047372" data-name="Trazado 1047372" d="M288.936,194.293h9.732a1.019,1.019,0,0,0,0-2.038h-9.732a1.019,1.019,0,0,0,0,2.038Z" transform="translate(-248.801 -175.933)"/>
        <path id="Trazado_1047373" data-name="Trazado 1047373" d="M288.936,232.768h9.732a1.019,1.019,0,0,0,0-2.038h-9.732a1.019,1.019,0,0,0,0,2.038Z" transform="translate(-248.801 -209.181)"/>
        <path id="Trazado_1047374" data-name="Trazado 1047374" d="M148.254,115.3h-9.732a1.019,1.019,0,0,0,0,2.038h9.732a1.019,1.019,0,0,0,0-2.038Z" transform="translate(-118.822 -109.436)"/>
        <path id="Trazado_1047375" data-name="Trazado 1047375" d="M148.254,153.779h-9.732a1.019,1.019,0,1,0,0,2.038h9.732a1.019,1.019,0,1,0,0-2.038Z" transform="translate(-118.822 -142.684)"/>
        <path id="Trazado_1047376" data-name="Trazado 1047376" d="M148.254,192.255h-9.732a1.019,1.019,0,1,0,0,2.038h9.732a1.019,1.019,0,0,0,0-2.038Z" transform="translate(-118.822 -175.933)"/>
        <path id="Trazado_1047377" data-name="Trazado 1047377" d="M148.254,230.73h-9.732a1.019,1.019,0,1,0,0,2.038h9.732a1.019,1.019,0,1,0,0-2.038Z" transform="translate(-118.822 -209.181)"/>
      </g>
    </g>
  </g>
</svg>
