<svg xmlns="http://www.w3.org/2000/svg" xmlns:xlink="http://www.w3.org/1999/xlink" width="118" height="118" viewBox="0 0 118 118">
  <defs>
    <filter id="Trazado_982547" x="0" y="0" width="118" height="118" filterUnits="userSpaceOnUse">
      <feOffset dy="3" input="SourceAlpha"/>
      <feGaussianBlur stdDeviation="3" result="blur"/>
      <feFlood flood-opacity="0.161"/>
      <feComposite operator="in" in2="blur"/>
      <feComposite in="SourceGraphic"/>
    </filter>
  </defs>
  <g id="Grupo_1201336" data-name="Grupo 1201336" transform="translate(-321 -8018.536)">
    <g id="Grupo_1201333" data-name="Grupo 1201333" transform="translate(0 4617.679)">
      <g id="Grupo_1183732" data-name="Grupo 1183732" transform="translate(330 3406.857)">
        <g id="Grupo_1182316" data-name="Grupo 1182316">
          <g id="Grupo_1176356" data-name="Grupo 1176356">
            <g id="Grupo_1172970" data-name="Grupo 1172970" transform="translate(0)">
              <g id="Grupo_1171971" data-name="Grupo 1171971">
                <g id="Grupo_1167337" data-name="Grupo 1167337">
                  <g id="Grupo_1166720" data-name="Grupo 1166720">
                    <g id="Grupo_1164305" data-name="Grupo 1164305">
                      <g id="Grupo_1163948" data-name="Grupo 1163948">
                        <g id="Grupo_1158168" data-name="Grupo 1158168">
                          <g id="Grupo_1152576" data-name="Grupo 1152576">
                            <g id="Grupo_1148633" data-name="Grupo 1148633">
                              <g id="Grupo_1148525" data-name="Grupo 1148525">
                                <g transform="matrix(1, 0, 0, 1, -9, -6)" filter="url(#Trazado_982547)">
                                  <g id="Trazado_982547-2" data-name="Trazado 982547" transform="translate(9 6)" fill="#f2f7f5">
                                    <path d="M 50 98.5 C 43.45188522338867 98.5 37.10042953491211 97.21787261962891 31.12207221984863 94.68923950195312 C 25.34691429138184 92.24655914306641 20.15995788574219 88.74932861328125 15.70532894134521 84.29468536376953 C 11.2506856918335 79.84004211425781 7.753442764282227 74.65309906005859 5.310757160186768 68.87794494628906 C 2.782128572463989 62.89958572387695 1.5 56.54813003540039 1.5 50 C 1.5 43.45188522338867 2.782128572463989 37.10042953491211 5.310757160186768 31.12207221984863 C 7.753442764282227 25.34691429138184 11.2506856918335 20.15997123718262 15.70532894134521 15.70532894134521 C 20.15997123718262 11.2506856918335 25.34691429138184 7.753442764282227 31.12207221984863 5.310757160186768 C 37.10042953491211 2.782128572463989 43.45188522338867 1.5 50 1.5 C 56.54813003540039 1.5 62.89958572387695 2.782128572463989 68.87794494628906 5.310757160186768 C 74.65309906005859 7.753442764282227 79.84004211425781 11.2506856918335 84.29468536376953 15.70532894134521 C 88.74932861328125 20.15995788574219 92.24655914306641 25.34691429138184 94.68923950195312 31.12207221984863 C 97.21787261962891 37.10042953491211 98.5 43.45188522338867 98.5 50 C 98.5 56.54813003540039 97.21787261962891 62.89958572387695 94.68923950195312 68.87794494628906 C 92.24655914306641 74.65309906005859 88.74932861328125 79.84004211425781 84.29468536376953 84.29468536376953 C 79.84004211425781 88.74932861328125 74.65309906005859 92.24655914306641 68.87794494628906 94.68923950195312 C 62.89958572387695 97.21787261962891 56.54813003540039 98.5 50 98.5 Z" stroke="none"/>
                                    <path d="M 50 3 C 43.65372467041016 3 37.49886322021484 4.242263793945312 31.70639801025391 6.6922607421875 C 26.11003112792969 9.059326171875 21.08335113525391 12.44861602783203 16.76598358154297 16.76598358154297 C 12.44861602783203 21.08335113525391 9.059326171875 26.11003112792969 6.6922607421875 31.70639801025391 C 4.242263793945312 37.49886322021484 3 43.65372467041016 3 50 C 3 56.34629058837891 4.242263793945312 62.50115203857422 6.6922607421875 68.29361724853516 C 9.059326171875 73.88998413085938 12.44861602783203 78.91666412353516 16.76598358154297 83.23403167724609 C 21.08335113525391 87.55138397216797 26.11003112792969 90.940673828125 31.70639801025391 93.3077392578125 C 37.49886322021484 95.75773620605469 43.65372467041016 97 50 97 C 56.34629058837891 97 62.50115203857422 95.75773620605469 68.29361724853516 93.3077392578125 C 73.88998413085938 90.940673828125 78.91666412353516 87.55138397216797 83.23403167724609 83.23403167724609 C 87.55138397216797 78.91666412353516 90.940673828125 73.88998413085938 93.3077392578125 68.29361724853516 C 95.75773620605469 62.50115203857422 97 56.34629058837891 97 50 C 97 43.65372467041016 95.75773620605469 37.49886322021484 93.3077392578125 31.70639801025391 C 90.940673828125 26.11003112792969 87.55138397216797 21.08335113525391 83.23403167724609 16.76598358154297 C 78.91666412353516 12.44861602783203 73.88998413085938 9.059326171875 68.29361724853516 6.6922607421875 C 62.50115203857422 4.242263793945312 56.34629058837891 3 50 3 M 50 0 C 77.6142578125 0 100 22.38577270507812 100 50 C 100 77.6142578125 77.6142578125 100 50 100 C 22.38577270507812 100 0 77.6142578125 0 50 C 0 22.38577270507812 22.38577270507812 0 50 0 Z" stroke="none" fill="#4a665c"/>
                                  </g>
                                </g>
                              </g>
                            </g>
                          </g>
                        </g>
                      </g>
                    </g>
                  </g>
                </g>
              </g>
            </g>
          </g>
        </g>
      </g>
    </g>
    <g id="ia-global" transform="translate(346.343 8040.905)">
      <path id="Trazado_1048013" data-name="Trazado 1048013" d="M30.18,54.382H54.532a.881.881,0,0,0,.88-.88V33.1a.881.881,0,0,0-.88-.88H37.4a.886.886,0,0,0-.643.278l-7.223,7.7a.878.878,0,0,0-.238.6V53.5a.881.881,0,0,0,.88.88ZM47,40.082a.987.987,0,0,1,0-1.974h3.6a.987.987,0,0,1,0,1.974h-.814V46.8H50.6a.987.987,0,1,1,0,1.974H47A.987.987,0,1,1,47,46.8h.815V40.082ZM34.815,41.467a4,4,0,0,1,6.823-2.815,3.906,3.906,0,0,1,1.171,2.815v6.665a.987.987,0,1,1-1.974,0v-3.29H36.789v3.29a.987.987,0,1,1-1.974,0Z" transform="translate(8.042 8.939)" fill="#4a665c"/>
      <path id="Trazado_1048014" data-name="Trazado 1048014" d="M37.669,25.347a49.161,49.161,0,0,1-.631,7.068h9.628a26.719,26.719,0,0,0,1.187-7.068Z" transform="translate(10.488 6.767)" fill="#4a665c"/>
      <path id="Trazado_1048015" data-name="Trazado 1048015" d="M39.036,41.129v-1.4a1.958,1.958,0,0,0-.586-1.413,2.023,2.023,0,0,0-3.46,1.413v1.4Z" transform="translate(9.841 10.677)" fill="#4a665c"/>
      <path id="Trazado_1048016" data-name="Trazado 1048016" d="M35.528,13.609q.56,1.52,1,3.136c.108-.008.211-.033.321-.033A4.524,4.524,0,0,1,38.028,25.6q.093,1.281.118,2.6h10.17a27.082,27.082,0,0,0-7.845-18.13,29.323,29.323,0,0,1-4.943,3.537Z" transform="translate(10.011 1.938)" fill="#4a665c"/>
      <path id="Trazado_1048017" data-name="Trazado 1048017" d="M25.3,35.144v13.39a9.129,9.129,0,0,0,3.292-1.085V39.877a2.841,2.841,0,0,1,.772-1.952l1.814-1.935a26.915,26.915,0,0,0-5.878-.846Z" transform="translate(6.777 9.863)" fill="#4a665c"/>
      <path id="Trazado_1048018" data-name="Trazado 1048018" d="M26.437,48.54V35.157a27.494,27.494,0,0,0-10.983,2.717c2.656,6.217,6.7,10.15,10.983,10.667Z" transform="translate(3.665 9.868)" fill="#4a665c"/>
      <path id="Trazado_1048019" data-name="Trazado 1048019" d="M36.428,13.45a27.385,27.385,0,0,0,4.26-3.051c-.019-.016-.037-.034-.055-.049l-.014-.012q-.863-.751-1.778-1.422c-.091-.066-.189-.131-.282-.2-.485-.347-.982-.671-1.486-.983-.12-.074-.242-.165-.364-.234-.058-.036-.105-.059-.158-.092q-.9-.533-1.845-1c-.115-.056-.231-.11-.347-.165-.626-.3-1.262-.571-1.909-.818l-.228-.088c-.6-.222-1.207-.413-1.819-.593a23.513,23.513,0,0,1,6.026,8.7Z" transform="translate(8.391 0.256)" fill="#4a665c"/>
      <path id="Trazado_1048020" data-name="Trazado 1048020" d="M27.188,25.347H13.077c.011.593.031,1.164.061,1.705a4.52,4.52,0,0,1,1.32,8.675,35.063,35.063,0,0,0,1.041,3.4,29.483,29.483,0,0,1,11.689-2.842Z" transform="translate(2.914 6.767)" fill="#4a665c"/>
      <path id="Trazado_1048021" data-name="Trazado 1048021" d="M25.3,25.347v10.92a28.732,28.732,0,0,1,7.407,1.189l3.88-4.139a2.865,2.865,0,0,1,2.082-.9h.082a46.861,46.861,0,0,0,.657-7.068H25.3Z" transform="translate(6.777 6.767)" fill="#4a665c"/>
      <path id="Trazado_1048022" data-name="Trazado 1048022" d="M21.141,4.753c-.563.165-1.121.343-1.671.544-.161.058-.318.118-.473.179-.649.251-1.29.522-1.917.822l-.183.089c-.583.285-1.151.6-1.713.926-.172.1-.344.2-.513.3q-.85.519-1.663,1.1c-.076.055-.158.112-.232.167-.105.076-.2.161-.308.239-.462.349-.917.71-1.359,1.091-.071.061-.144.129-.216.192a27.18,27.18,0,0,0,4.243,3.047,23.757,23.757,0,0,1,6-8.7Z" transform="translate(2.223 0.257)" fill="#4a665c"/>
      <path id="Trazado_1048023" data-name="Trazado 1048023" d="M21.168,46.628a23.673,23.673,0,0,1-6.033-8.714A26.417,26.417,0,0,0,10.9,40.952c.306.267.6.549.919.8.256.2.505.4.766.591.326.247.617.467.932.661a.937.937,0,0,1,.18.142l.3.188c.145.1.292.191.443.282l.17.1c.082.047.163.094.24.146a6.659,6.659,0,0,0,.675.39l.108.061c.333.184.675.361,1.018.539s.684.336,1.013.482h0l.057.026c.275.131.549.251.835.358.424.178.825.328,1.226.466s.778.267,1.163.38l.224.064Z" transform="translate(2.225 10.739)" fill="#4a665c"/>
      <path id="Trazado_1048024" data-name="Trazado 1048024" d="M25.3,3.945V17.372a27.2,27.2,0,0,0,11-2.725c-2.651-6.235-6.7-10.175-11-10.7Z" transform="translate(6.777 0.001)" fill="#4a665c"/>
      <path id="Trazado_1048025" data-name="Trazado 1048025" d="M15.443,14.651a27.155,27.155,0,0,0,11,2.722V3.942c-4.257.485-8.325,4.433-11,10.709Z" transform="translate(3.662)" fill="#4a665c"/>
      <path id="Trazado_1048026" data-name="Trazado 1048026" d="M14.021,28.2a45.327,45.327,0,0,1,2.613-14.594,29.149,29.149,0,0,1-4.927-3.535A27.036,27.036,0,0,0,3.864,28.2Z" transform="translate(0.001 1.938)" fill="#4a665c"/>
      <path id="Trazado_1048027" data-name="Trazado 1048027" d="M39.7,19.184a2.553,2.553,0,1,0-2.554,2.553A2.563,2.563,0,0,0,39.7,19.184Z" transform="translate(9.714 4.007)" fill="#4a665c"/>
      <path id="Trazado_1048028" data-name="Trazado 1048028" d="M25.3,16.333v10.8H39.4q-.026-1.28-.115-2.5a4.511,4.511,0,0,1-1.421-8.386q-.383-1.425-.87-2.773a29.151,29.151,0,0,1-11.7,2.864Z" transform="translate(6.777 3.012)" fill="#4a665c"/>
      <path id="Trazado_1048029" data-name="Trazado 1048029" d="M27.187,27.128v-10.8a29.11,29.11,0,0,1-11.706-2.865,43.4,43.4,0,0,0-2.4,13.66H27.187Z" transform="translate(2.915 3.011)" fill="#4a665c"/>
      <path id="Trazado_1048030" data-name="Trazado 1048030" d="M10.863,30.677a2.553,2.553,0,1,0,2.553-2.567A2.556,2.556,0,0,0,10.863,30.677Z" transform="translate(2.214 7.64)" fill="#4a665c"/>
      <path id="Trazado_1048031" data-name="Trazado 1048031" d="M15.418,36.057A4.514,4.514,0,0,1,14.088,27.3q-.055-.938-.072-1.952H3.86A27.043,27.043,0,0,0,11.7,43.573a28.3,28.3,0,0,1,4.94-3.539,37.073,37.073,0,0,1-1.221-3.977Z" transform="translate(0 6.767)" fill="#4a665c"/>
    </g>
  </g>
</svg>
