<svg xmlns="http://www.w3.org/2000/svg" width="75.934" height="75.934" viewBox="0 0 75.934 75.934">
  <g id="Grupo_1201282" data-name="Grupo 1201282" transform="translate(-198 -9583.287)">
    <g id="Grupo_1183001" data-name="Grupo 1183001" transform="translate(0 8919.287)">
      <g id="Grupo_1182333" data-name="Grupo 1182333" transform="translate(-0.033 -1122)">
        <g id="Grupo_1176309" data-name="Grupo 1176309" transform="translate(0 -206)">
          <g id="Grupo_1172970" data-name="Grupo 1172970" transform="translate(-1 -9042)">
            <g id="Grupo_1171971" data-name="Grupo 1171971" transform="translate(199.033 11034)">
              <g id="Grupo_1167337" data-name="Grupo 1167337">
                <g id="Grupo_1166720" data-name="Grupo 1166720">
                  <g id="Grupo_1164305" data-name="Grupo 1164305">
                    <g id="Grupo_1163948" data-name="Grupo 1163948">
                      <g id="Grupo_1158168" data-name="Grupo 1158168">
                        <g id="Grupo_1152576" data-name="Grupo 1152576">
                          <g id="Grupo_1148633" data-name="Grupo 1148633">
                            <g id="Grupo_1148525" data-name="Grupo 1148525">
                              <g id="Trazado_982547" data-name="Trazado 982547">
                                <path id="Trazado_1045808" data-name="Trazado 1045808" d="M37.967,74.434A36.477,36.477,0,0,1,23.773,4.365a36.477,36.477,0,0,1,28.388,67.2A36.239,36.239,0,0,1,37.967,74.434Z" fill="#f2f7f5"/>
                                <path id="Trazado_1045809" data-name="Trazado 1045809" d="M37.967,3a34.977,34.977,0,0,0-13.61,67.187A34.977,34.977,0,0,0,51.576,5.747,34.745,34.745,0,0,0,37.967,3m0-3A37.967,37.967,0,1,1,0,37.967,37.967,37.967,0,0,1,37.967,0Z" fill="#4a665c"/>
                              </g>
                            </g>
                          </g>
                        </g>
                      </g>
                    </g>
                  </g>
                </g>
              </g>
            </g>
          </g>
        </g>
      </g>
    </g>
    <g id="economico_3_" data-name="economico (3)" transform="translate(198.571 9583.858)">
      <path id="Trazado_1047643" data-name="Trazado 1047643" d="M80.807,40.388a16.4,16.4,0,0,1-32.807,0q0-.721.062-1.426a16.4,16.4,0,0,1,32.745,1.426Z" transform="translate(-29.147 -7.272)" fill="#9ce6ed"/>
      <path id="Trazado_1047644" data-name="Trazado 1047644" d="M241.117,82.576a16.392,16.392,0,0,1-7.793,13.964l-3.618-3.98V86.855h-2.853L224,82.576l2.853-2.14h3.566l2.14-2.853-1.426-3.566,4.462-3.718A16.365,16.365,0,0,1,241.117,82.576Z" transform="translate(-189.457 -49.459)" fill="#02c26a"/>
      <rect id="Rectángulo_416502" data-name="Rectángulo 416502" width="6" height="8" transform="translate(41 49.792)" fill="#4367e0"/>
      <rect id="Rectángulo_416503" data-name="Rectángulo 416503" width="5" height="13" transform="translate(47 44.792)" fill="#4976f2"/>
      <rect id="Rectángulo_416504" data-name="Rectángulo 416504" width="6" height="20" transform="translate(52 37.792)" fill="#548aff"/>
      <path id="Trazado_1047645" data-name="Trazado 1047645" d="M110.065,25.332l-5.078,5.078v4.279l-4.279,2.853-2.853-2.853H94.289V31.836l-3.3-1.98a16.417,16.417,0,0,1,19.075-4.524Z" transform="translate(-68.305 -7.278)" fill="#02c26a"/>
      <path id="Trazado_1047646" data-name="Trazado 1047646" d="M62.264,198.419l-2.853,2.14v8.5A16.41,16.41,0,0,1,48,193.426q0-.721.062-1.426h4.218l2.14,2.853h5.706Z" transform="translate(-29.147 -160.31)" fill="#02c26a"/>
      <path id="Trazado_1047647" data-name="Trazado 1047647" d="M31.132,257.426c0-.788-1.6-1.426-3.566-1.426S24,256.639,24,257.426v17.83c0,.788,1.6,1.426,3.566,1.426s3.566-.639,3.566-1.426Z" transform="translate(-7.287 -218.604)" fill="#ffc431"/>
      <ellipse id="Elipse_14239" data-name="Elipse 14239" cx="3.5" cy="1.5" rx="3.5" ry="1.5" transform="translate(17 37.792)" fill="#ffd873"/>
      <path id="Trazado_1047648" data-name="Trazado 1047648" d="M111.132,337.426c0-.788-1.6-1.426-3.566-1.426s-3.566.639-3.566,1.426v10.7c0,.788,1.6,1.426,3.566,1.426s3.566-.639,3.566-1.426Z" transform="translate(-80.155 -291.472)" fill="#ffc431"/>
      <ellipse id="Elipse_14240" data-name="Elipse 14240" cx="3.5" cy="1.5" rx="3.5" ry="1.5" transform="translate(24 44.792)" fill="#ffd873"/>
      <path id="Trazado_1047649" data-name="Trazado 1047649" d="M191.132,377.426c0-.788-1.6-1.426-3.566-1.426s-3.566.639-3.566,1.426v7.132c0,.788,1.6,1.426,3.566,1.426s3.566-.639,3.566-1.426Z" transform="translate(-153.023 -327.907)" fill="#ffc431"/>
      <ellipse id="Elipse_14241" data-name="Elipse 14241" cx="3.5" cy="1.5" rx="3.5" ry="1.5" transform="translate(31 47.792)" fill="#ffd873"/>
      <path id="Trazado_1047650" data-name="Trazado 1047650" d="M58.078,248H52.373a.713.713,0,0,0-.713.713v6.419H46.667a.713.713,0,0,0-.713.713v4.992H40.962a.713.713,0,0,0-.713.713v6.419H38.822v-7.132c0-.4-.194-1.151-1.493-1.671a8.515,8.515,0,0,0-5.573,0l-.066.028v-1.923c0-.4-.194-1.151-1.493-1.671a8.515,8.515,0,0,0-5.573,0l-.066.028V250.14c0-.4-.194-1.151-1.493-1.671A7.738,7.738,0,0,0,20.279,248a7.739,7.739,0,0,0-2.786.469c-1.3.52-1.493,1.27-1.493,1.671v17.83c0,.4.194,1.151,1.493,1.671a7.739,7.739,0,0,0,2.786.469,7.739,7.739,0,0,0,2.786-.469,3.437,3.437,0,0,0,.78-.423,3.437,3.437,0,0,0,.78.423,8.515,8.515,0,0,0,5.573,0,3.436,3.436,0,0,0,.78-.423,3.437,3.437,0,0,0,.78.423,8.515,8.515,0,0,0,5.573,0,3.879,3.879,0,0,0,.507-.244H58.078a.713.713,0,0,0,.713-.713V248.713A.713.713,0,0,0,58.078,248ZM17.426,262.481l.066.028a7.738,7.738,0,0,0,2.786.469,7.739,7.739,0,0,0,2.786-.469l.066-.028v1.9c-.124.221-1.111.74-2.853.74s-2.729-.519-2.853-.74Zm0-3.566.066.028a7.739,7.739,0,0,0,2.786.469,7.739,7.739,0,0,0,2.786-.469l.066-.028v1.9c-.124.221-1.111.74-2.853.74s-2.729-.519-2.853-.74Zm0-3.566.066.028a7.738,7.738,0,0,0,2.786.469,7.739,7.739,0,0,0,2.786-.469l.066-.028v1.9c-.124.221-1.111.74-2.853.74s-2.729-.519-2.853-.74Zm0-3.566.066.028a7.738,7.738,0,0,0,2.786.469,7.739,7.739,0,0,0,2.786-.469l.066-.028v1.9c-.124.221-1.111.74-2.853.74s-2.729-.519-2.853-.74Zm9.985,9.768c-1.742,0-2.729-.519-2.853-.74v-1.9l.066.028a8.515,8.515,0,0,0,5.573,0l.066-.028v1.9C30.14,261.031,29.153,261.551,27.411,261.551Zm-2.853.93.066.028a8.515,8.515,0,0,0,5.573,0l.066-.028v1.9c-.124.221-1.111.74-2.853.74s-2.729-.519-2.853-.74Zm7.132,0,.066.028a8.515,8.515,0,0,0,5.573,0l.066-.028v1.9c-.124.221-1.111.74-2.853.74s-2.729-.519-2.853-.74Zm2.853-2.356a4.336,4.336,0,0,1,2.834.714,4.363,4.363,0,0,1-2.834.712,4.363,4.363,0,0,1-2.834-.712A4.336,4.336,0,0,1,34.543,260.124Zm-7.132-3.566a4.336,4.336,0,0,1,2.834.714,4.363,4.363,0,0,1-2.834.712,4.355,4.355,0,0,1-2.835-.713A4.355,4.355,0,0,1,27.411,256.558Zm-7.132-7.132a4.336,4.336,0,0,1,2.834.714,4.363,4.363,0,0,1-2.834.712,4.363,4.363,0,0,1-2.834-.712A4.336,4.336,0,0,1,20.279,249.426Zm0,19.256c-1.739,0-2.726-.518-2.853-.739v-1.9l.066.028a7.738,7.738,0,0,0,2.786.469,7.739,7.739,0,0,0,2.786-.469l.066-.028v1.9C23.005,268.165,22.018,268.683,20.279,268.683Zm7.132,0c-1.742,0-2.729-.519-2.853-.74v-1.9l.066.028a8.515,8.515,0,0,0,5.573,0l.066-.028v1.9C30.137,268.165,29.15,268.683,27.411,268.683Zm7.132,0c-1.739,0-2.726-.518-2.853-.739v-1.9l.066.028a8.515,8.515,0,0,0,5.573,0l.066-.028v1.9C37.269,268.165,36.282,268.683,34.543,268.683Zm7.132-6.419h4.279v5.706H41.675Zm5.706-5.706H51.66v11.411H47.38Zm5.706,11.411V249.426h4.279v18.543Z" transform="translate(0 -211.318)"/>
      <rect id="Rectángulo_416505" data-name="Rectángulo 416505" width="2" height="1" transform="translate(34 44.792)"/>
      <path id="Trazado_1047651" data-name="Trazado 1047651" d="M256,175.69v1.426h3.566a.713.713,0,0,0,.5-.209l14.473-14.473v1.131h1.426v-2.853a.713.713,0,0,0-.713-.713H272.4v1.426h1.131L259.271,175.69Z" transform="translate(-218.604 -131.163)"/>
      <path id="Trazado_1047652" data-name="Trazado 1047652" d="M68.717,20.53A17.117,17.117,0,0,0,40,33.116a17.337,17.337,0,0,0,.144,2.231l1.414-.184a15.907,15.907,0,0,1-.132-2.047c0-.239.006-.477.017-.713h3.192l1.926,2.567a.713.713,0,0,0,.571.285h5.3l1.6,2.668L51.7,39.678a.713.713,0,0,0-.285.571v2.14h1.426V40.6L55.4,38.679a.713.713,0,0,0,.184-.938l-2.14-3.566a.713.713,0,0,0-.612-.346H47.489l-1.926-2.567a.713.713,0,0,0-.571-.285H41.573a15.616,15.616,0,0,1,3.145-7.464l2.415,1.449v2.449a.713.713,0,0,0,.713.713h3.271l2.644,2.644a.713.713,0,0,0,.9.089L58.939,28a.713.713,0,0,0,.318-.593V23.427l4.521-4.52a15.655,15.655,0,0,1,3.109,1.931L63.079,24.01a.713.713,0,0,0-.206.813l1.278,3.194-1.685,2.247H59.256a.713.713,0,0,0-.428.143l-2.853,2.14a.713.713,0,0,0-.165.966l2.853,4.279a.713.713,0,0,0,.593.318H61.4v4.279h1.426V37.4a.713.713,0,0,0-.713-.713H59.638l-2.267-3.4,2.123-1.592h3.328a.713.713,0,0,0,.571-.285l2.14-2.853a.713.713,0,0,0,.092-.693L64.39,24.774l3.583-2.985a15.632,15.632,0,0,1,4.776,9.962l1.421-.122a17.061,17.061,0,0,0-5.452-11.1Zm-10.679,2.1a.713.713,0,0,0-.209.5v3.9l-3.475,2.317-2.439-2.439a.713.713,0,0,0-.5-.209H48.558v-2.14a.713.713,0,0,0-.346-.612l-2.556-1.534a15.684,15.684,0,0,1,16.69-4.092Z" transform="translate(-21.86 0)"/>
    </g>
  </g>
</svg>
