<svg xmlns="http://www.w3.org/2000/svg" xmlns:xlink="http://www.w3.org/1999/xlink" width="400" height="210" viewBox="0 0 400 210">
  <defs>
    <clipPath id="clip-path">
      <rect id="Rectángulo_416506" data-name="Rectángulo 416506" width="400" height="210" transform="translate(47)" fill="#fff" stroke="#707070" stroke-width="1"/>
    </clipPath>
  </defs>
  <g id="Enmascarar_grupo_1183033" data-name="Enmascarar grupo 1183033" transform="translate(-47)" clip-path="url(#clip-path)">
    <g id="Grupo_1201280" data-name="Grupo 1201280" transform="translate(55.342 9.674)">
      <path id="Trazado_1047653" data-name="Trazado 1047653" d="M557.557,316.915s1.333,106.025-94.515,85.382c0,0-31.126-10.066-56.331,24.4-16.377,22.4-62.387,39.18-104.582-22.9-20.611-30.325-57.081-35.055-57.081-35.055s-94.789,1.645-36.74-120.526c84.84-178.558,185.364-56.425,185.364-56.425s25.747,37.4,90.547,36.375C532.512,227.4,558.068,277.581,557.557,316.915Z" transform="translate(-178.49 -127.2)" fill="#e6f1ed" opacity="0.77"/>
      <g id="Grupo_1201279" data-name="Grupo 1201279" transform="translate(63.742 -6.112)">
        <path id="Trazado_1047654" data-name="Trazado 1047654" d="M718.026,730.343c-.349.734-.681,1.446-1.039,2.192-.818,1.7-1.64,3.423-2.484,5.188-.486,1.015-.964,2.034-1.452,3.068-.609,1.288-1.209,2.576-1.815,3.891-.24.521-.482,1.022-.722,1.547l.023.005c-1.7,3.734-3.362,7.542-4.882,11.462l-19.906-34.809a42.557,42.557,0,0,0,12.683,6.351A40.646,40.646,0,0,0,718.026,730.343Z" transform="translate(-641.789 -518.46)" fill="none"/>
        <path id="Trazado_1047655" data-name="Trazado 1047655" d="M740.431,832.333h0s.162-.1.454-.29a31.737,31.737,0,0,0,4.928-4.058.28.28,0,0,1,.4.394,31.154,31.154,0,0,1-5.493,4.434.326.326,0,0,1-.384-.1.007.007,0,0,1,0,0A.279.279,0,0,1,740.431,832.333Z" transform="translate(-699.796 -566.218)" fill="#74160d"/>
        <path id="Trazado_1047656" data-name="Trazado 1047656" d="M750.46,823.948l0,0a15.714,15.714,0,0,0,3.841-3.193.28.28,0,0,1,.4.394,17.233,17.233,0,0,1-3.928,3.27c-.058.029-.1.047-.106.051a.281.281,0,0,1-.365-.155.258.258,0,0,1,0-.112.264.264,0,0,1,.154-.253Z" transform="translate(-713.742 -562.929)" fill="#74160d"/>
        <path id="Trazado_1047657" data-name="Trazado 1047657" d="M751.53,875.523c-.536-.442,0-1.982,1.205-3.44a8.762,8.762,0,0,1,.931-.971c.581.514,1.161,1.028,1.755,1.528a8.835,8.835,0,0,1-.743,1.045C753.476,875.143,752.065,875.967,751.53,875.523Z" transform="translate(-714.936 -585.868)" fill="#fbd7d2"/>
        <path id="Trazado_1047658" data-name="Trazado 1047658" d="M652.574,390.981v-.038c0,.034-.008.067-.013.1a22.114,22.114,0,0,1-8.039-7.683c-8.178,1.787-18.7,3.22-27.245,1.5v0a8.978,8.978,0,0,1-1.565-.213,21.55,21.55,0,0,1-5.955,12.768c-.068-.142-.124-.28-.189-.42l.13.38c-4.534-3.328-10.076-3.489-12.4-.348s-.548,8.441,4,11.81,10.124,3.542,12.462.388c0,0,0,0,0,0l1.96,5.719.021,0a18.493,18.493,0,0,0,6.641,9.211l-2.92,16.125c-3.137.251-6.175.575-9.085.969.026.076.059.148.086.225-1.132.123-2.238.257-3.332.4-.027-.1-.063-.19-.088-.288a.28.28,0,0,0-.542.142c.019.075.047.146.068.221-15.328,2.016-26.748,5.7-30.609,10.108q-1.127.747-2.217,1.6c-9.707,7.293-23.217,21.258-29.963,28.444a39.394,39.394,0,0,0-3.927-11.194c-.152-.288-.307-.575-.453-.865-.032-.061-.061-.119-.094-.179a9.717,9.717,0,0,1-.453-.965,41.322,41.322,0,0,1-2.571-28.117,38.75,38.75,0,0,1,31.615-28.432l0,0,.017,0c.3-.047.606-.083.909-.123,3.364-.551,14.929-3.362,17.519-16.22l.011,0c.095-.4.183-.81.291-1.214A38.792,38.792,0,0,1,621.184,366l0-.011.124,0c.533-.042,1.068-.076,1.606-.1a14.5,14.5,0,0,0,9.428-4.716c4.491-5.285,6.426-9.091,11.229-10.97v0a16.415,16.415,0,1,1,14.188,29.481l.009.017s-.16.056-.433.148c-.086.03-.166.069-.253.1s-.173.045-.261.073c-.22.073-.471.154-.761.248a43.555,43.555,0,0,1,4.335,5.792A11.722,11.722,0,0,0,652.574,390.981Z" transform="translate(-509.834 -347.947)" fill="#383851"/>
        <path id="Trazado_1047659" data-name="Trazado 1047659" d="M548.225,482.424c-2.476-.273-5.031-.583-7.651-.863l-3.041-16.523a18.57,18.57,0,0,0,7.226-13.254l.017,0,.009-.252c.014-.218.017-.437.024-.657l.228-6.271.01.009c3.154,2.338,8.442.549,11.81-4a14.472,14.472,0,0,0,1.389-2.3,40.908,40.908,0,0,1,.184,21.669,39.12,39.12,0,0,1-5.821,12.482l0,0-.02.023c-.124.176-.251.349-.378.523-.774,1.211-2.271,4.455-.76,9.768q-1.588-.191-3.229-.356S548.225,482.426,548.225,482.424Z" transform="translate(-402.754 -389.045)" fill="#383851"/>
        <path id="Trazado_1047660" data-name="Trazado 1047660" d="M709.242,652.005l-.009.01.022-.046a11.3,11.3,0,0,1,.9-1.8c1.9-3.677,13.933-21.362,27.7-38.268a.017.017,0,0,0,0,0c-2.722,3.344-5.377,6.717-7.9,10.008,6.166,10.1,12.4,16.188,26.277,18.319l4.617-5.38h0l-17.959,20.926,9.511,16.633L772.3,707.225a127.946,127.946,0,0,0-4.944,15.3c-1.662,6.689-3.237,13.539-4.71,20.5C753.089,753.46,745.6,760,744.157,758.812c-1.521-1.254,4.1-10.724,13.354-23-4.236,3.885-7.858,5.891-9.2,4.782-.958-.791-.578-3.022.8-6.006a.263.263,0,0,0,.251,0,31.144,31.144,0,0,0,5.493-4.434.28.28,0,0,0-.4-.394,31.768,31.768,0,0,1-4.928,4.058c-.292.193-.454.29-.454.29h0a.279.279,0,0,0-.1.381c-1.974,1.2-3.514,1.6-4.291.963-.955-.787-.58-3,.787-5.971a17.226,17.226,0,0,0,3.928-3.27.28.28,0,1,0-.4-.394,15.7,15.7,0,0,1-3.841,3.193l0,0h0a.262.262,0,0,0-.154.252c-1.594.84-2.839,1.074-3.509.521-1.837-1.515,1.216-8.3,6.887-15.605l-36.09-48C708.613,662.036,707.5,656.507,709.242,652.005Zm37.926,101.227a8.755,8.755,0,0,0-.931.97c-1.2,1.458-1.742,3-1.206,3.44s1.946-.38,3.148-1.839a8.731,8.731,0,0,0,.743-1.045C748.329,754.261,747.749,753.746,747.168,753.232Z" transform="translate(-708.438 -467.988)" fill="#f7b7aa"/>
        <path id="Trazado_1047661" data-name="Trazado 1047661" d="M687.655,745.771c.844-1.764,1.665-3.483,2.483-5.188C689.327,742.276,688.494,744.019,687.655,745.771Z" transform="translate(-614.941 -526.507)" fill="#383851"/>
        <path id="Trazado_1047662" data-name="Trazado 1047662" d="M699.737,645.3l.025,0,.184-.135c1.12-.966,2.2-1.906,3.256-2.832h-.027q4.02-3.525,7.454-6.679A344.454,344.454,0,0,0,718,676.091h0c0,1.762,2.111,3.421,5.826,4.87-1.318,3.088-2.849,6.355-4.447,9.712a40.648,40.648,0,0,1-19.593-1.1,42.554,42.554,0,0,1-12.683-6.351l-9.511-16.633,17.959-20.926C697.356,646.137,698.813,646.05,699.737,645.3Z" transform="translate(-643.146 -478.79)" fill="#383851"/>
        <path id="Trazado_1047663" data-name="Trazado 1047663" d="M694.873,759.617c.606-1.316,1.206-2.6,1.815-3.891Q695.778,757.65,694.873,759.617Z" transform="translate(-625.426 -533.394)" fill="#383851"/>
        <path id="Trazado_1047664" data-name="Trazado 1047664" d="M507.833,765.025c1.519-3.92,3.186-7.728,4.882-11.462,16.683,4.181,34.409,4.82,51.377,4.073a119.193,119.193,0,0,0,37.3-8.144,67.98,67.98,0,0,0,17.468-9.273c.509-.394,1-.812,1.5-1.219a89.034,89.034,0,0,1,6.665,30.667H627c.233,6.062.453,12.61.641,19.605v0c.714,26.521.991,59.414-.011,96.125H613.389V822.674L608.268,885.4H487.517c.8-28.387,4.9-57.353,10.662-84.576,1.472-6.958,3.047-13.806,4.71-20.5A127.6,127.6,0,0,1,507.833,765.025Z" transform="translate(-443.965 -525.788)" fill="#383851"/>
        <path id="Trazado_1047665" data-name="Trazado 1047665" d="M590.734,739.946a119.191,119.191,0,0,1-37.3,8.144c-16.968.747-34.694.107-51.377-4.073l-.023-.005c.239-.525.481-1.026.722-1.547q.905-1.965,1.815-3.891c.489-1.034.967-2.053,1.453-3.068.838-1.752,1.672-3.494,2.483-5.188.358-.747.689-1.458,1.039-2.192,1.6-3.358,3.128-6.625,4.447-9.712,8.249,3.219,24.419,5.406,43.019,5.406,19.366,0,36.1-2.371,44-5.809l6.89,7.353.089.19q.387.819.773,1.685l.1.223q.427.965.849,1.983l-.014.011c-.5.406-.987.824-1.5,1.219A67.982,67.982,0,0,1,590.734,739.946Z" transform="translate(-433.308 -516.242)" fill="#1f1e34"/>
        <path id="Trazado_1047666" data-name="Trazado 1047666" d="M754.768,632.237h-.015c.092.058.18.105.271.162.306.188.61.37.909.54.239.136.471.258.7.382.269.142.54.291.8.417.313.151.615.279.917.407.336.142.661.268.981.381.218.077.442.165.653.228l.033,0c.105.031.22.08.323.107l-4.617,5.38c-13.88-2.131-20.111-8.219-26.277-18.318,2.522-3.29,5.177-6.664,7.9-10.008,1.184,3.736,4.39,8.678,8.959,13.367A46.854,46.854,0,0,0,754.768,632.237Z" transform="translate(-707.938 -467.992)" fill="#ed7b7d"/>
        <path id="Trazado_1047667" data-name="Trazado 1047667" d="M552.714,527.408a22.307,22.307,0,0,0,4.65-8.184q1.638.167,3.229.356l.072.008a26.522,26.522,0,0,1-3.546,7.869Q554.917,527.43,552.714,527.408Z" transform="translate(-411.894 -425.839)" fill="#6997b2"/>
        <path id="Trazado_1047668" data-name="Trazado 1047668" d="M632.678,519.859c1.094-.14,2.2-.274,3.332-.4a23.648,23.648,0,0,0,4.544,7.785c-1.531-.005-3.06-.016-4.59-.02A26.5,26.5,0,0,1,632.678,519.859Z" transform="translate(-535.381 -425.947)" fill="#6997b2"/>
        <path id="Trazado_1047669" data-name="Trazado 1047669" d="M595.595,583.3c-.023-.044-.038-.07-.042-.076h0a.28.28,0,0,0-.386-.09c-.031.019-.039.055-.06.083-.028-.056-.055-.117-.083-.172l.628-.01C595.632,583.127,595.613,583.215,595.595,583.3Z" transform="translate(-469.949 -454.86)" fill="#6997b2"/>
        <path id="Trazado_1047670" data-name="Trazado 1047670" d="M572.616,585.023q-.25-1.252-.541-2.364l.517-.009C572.6,583.427,572.6,584.219,572.616,585.023Z" transform="translate(-434.401 -454.684)" fill="#6997b2"/>
        <path id="Trazado_1047671" data-name="Trazado 1047671" d="M577.333,547.193c-.218,1.033-.407,2.311-.565,3.805q-3.38.063-6.76.131A27.11,27.11,0,0,0,577.333,547.193Z" transform="translate(-437.991 -438.559)" fill="#6997b2"/>
        <path id="Trazado_1047672" data-name="Trazado 1047672" d="M577.906,547.7a26.612,26.612,0,0,1-14.757-8.835q2.719.007,5.438.021a23.467,23.467,0,0,0,14.8,5.241,24.16,24.16,0,0,0,14.948-5.032c1.739.018,3.477.045,5.215.065q-.746.854-1.56,1.644a.893.893,0,0,0-.692-.412c-.492.029-.922.794-1.285,2.159a26.56,26.56,0,0,1-9.612,4.84Q584.153,547.534,577.906,547.7Z" transform="translate(-460.468 -434.773)" fill="#6997b2"/>
        <path id="Trazado_1047673" data-name="Trazado 1047673" d="M734.784,651.178c.269.142.54.291.8.417C735.324,651.469,735.053,651.321,734.784,651.178Z" transform="translate(-686.084 -485.848)" fill="#6997b2"/>
        <path id="Trazado_1047674" data-name="Trazado 1047674" d="M737.548,649.486c.306.189.61.37.909.54C738.158,649.856,737.855,649.674,737.548,649.486Z" transform="translate(-690.462 -485.079)" fill="#6997b2"/>
        <path id="Trazado_1047675" data-name="Trazado 1047675" d="M731.3,652.69c.335.142.661.268.981.381C731.964,652.959,731.638,652.833,731.3,652.69Z" transform="translate(-680.884 -486.536)" fill="#6997b2"/>
        <path id="Trazado_1047676" data-name="Trazado 1047676" d="M552.986,532.036q1.09-.857,2.217-1.6c3.861-4.413,15.28-8.092,30.609-10.108a27.042,27.042,0,0,0,3.195,7.295q-12.132-.029-24.263,0c-1.975,0-3.95.025-5.925.034a14.217,14.217,0,0,0-3.59,2.777l-.062.045q17.927-.087,35.855-.045a27.215,27.215,0,0,0,13.439,8.9q-27.353.784-54.693,2.138l-8.217.4q-1.559,1.457-3.108,2.95,10.077-.481,20.153-.982,28.911-1.385,57.847-2.066c3.724-.085,7.448-.149,11.172-.215-.2,2.833-.317,6.193-.342,9.946l-1.4.023c-.87-2.262-1.875-3.594-2.882-3.535-.974.057-1.794,1.41-2.391,3.625l-1.116.019c-.657-1.155-1.359-1.8-2.062-1.761-.671.039-1.267.7-1.771,1.826l-45.026.763-40.555.688c-.961.982-1.886,1.938-2.763,2.848l82.64-1.4a27.253,27.253,0,0,0-1.372,7.579q-16.716.34-33.43.7-27.784.62-55.567,1.344c-.451.491-.707.774-.707.774a3.108,3.108,0,0,0-.85,2.078c4.12-.107,8.24-.229,12.36-.333q39.035-.98,78.075-1.754c-.027,1.6.005,3.294.107,5.044l.112,1.917v.009a.035.035,0,0,0,0,.008l.014.238c-13.522-.1-27.043-.154-40.562-.089-16,.078-31.94.716-47.877,2.049.476.859,1.019,1.746,1.63,2.65.6-.05,1.2-.1,1.8-.152,28.432-2.34,57.021-1.924,85.547-1.586a13.876,13.876,0,0,0,2.941,5.309l-.058.051,5.947,6.347q-26.765,1.016-53.518,2.314c-2.37.116-4.738.246-7.108.366q.2,1.415.408,2.784,30.958-1.554,61.932-2.735l.817-.029,9.392,10.023q-28.339.762-56.678,1.517-6.99.183-13.981.362c.166.954.331,1.878.5,2.781q30.541-.8,61.082-1.609l11.646-.314,7.189,7.672c-21.467.453-42.926,1.28-64.389,1.867q-6.995.191-13.992.334c.2.985.4,1.921.584,2.792,20.4-.438,40.792-1.2,61.188-1.777q9.593-.27,19.191-.46l7.366,7.861c-22.038-.032-44.07.5-66.09,1.365q-9.928.39-19.853.86c.144.578.226.888.226.888a2.873,2.873,0,0,0,.822,1.871c19.259-.889,38.526-1.619,57.8-1.969,9.907-.18,19.814-.221,29.721-.211l4.475,4.776c-7.9,3.438-24.633,5.809-44,5.809-18.6,0-34.769-2.187-43.019-5.406-3.715-1.449-5.826-3.108-5.826-4.87h0a344.484,344.484,0,0,1-7.373-40.433q-3.437,3.152-7.454,6.679-6.6.343-13.2.7a46.868,46.868,0,0,1-8.458-6.955c-4.568-4.689-7.774-9.631-8.959-13.367a.019.019,0,0,1,0,0c-.747-2.361-.693-4.243.355-5.265,0,0,1.595-1.76,4.179-4.513C529.769,553.295,543.279,539.329,552.986,532.036Z" transform="translate(-489.078 -426.34)" fill="#6997b2"/>
        <path id="Trazado_1047677" data-name="Trazado 1047677" d="M726.288,653.351c-.924.745-2.381.833-4.182.354h0c-.1-.027-.218-.076-.323-.107C723.284,653.517,724.785,653.43,726.288,653.351Z" transform="translate(-669.697 -486.837)" fill="#6997b2"/>
        <path id="Trazado_1047678" data-name="Trazado 1047678" d="M462.457,658.158h-.025a40.052,40.052,0,0,0,13.048-6.226l2.461,13.384a51.226,51.226,0,0,1-6.292,5.93l-14.63-11.786c1.621-.3,3.3-.683,5.016-1.174C462.178,658.246,462.315,658.2,462.457,658.158Z" transform="translate(-276.994 -486.192)" fill="#ed7b7d"/>
        <path id="Trazado_1047679" data-name="Trazado 1047679" d="M483.925,547.38a23.31,23.31,0,0,0-1.868-5.845,27.2,27.2,0,0,0,1.973-2.109q19.311.23,38.618.605a30.211,30.211,0,0,1,4.229,5.83h0l0,.009c.225.4.421.83.631,1.246-3.039-.013-6.077-.034-9.116-.034Q501.158,547.082,483.925,547.38Z" transform="translate(-340.219 -435.026)" fill="#6997b2"/>
        <path id="Trazado_1047680" data-name="Trazado 1047680" d="M500.2,520.048h0c0-.013-.007-.025,0-.038A114.093,114.093,0,0,1,521,524.3a19.532,19.532,0,0,1,9.153,4.028q-16.7-.321-33.41-.509A27.079,27.079,0,0,0,500.2,520.048Z" transform="translate(-350.869 -426.197)" fill="#6997b2"/>
        <path id="Trazado_1047681" data-name="Trazado 1047681" d="M474.858,654.218l-6.8.183-12.633-10.178q17.906-.541,35.816-.955c-.069,1.45-1.278,3.1-3.33,4.724h0A40.067,40.067,0,0,1,474.858,654.218Z" transform="translate(-289.42 -482.251)" fill="#6997b2"/>
        <path id="Trazado_1047682" data-name="Trazado 1047682" d="M461.913,608.543a13.925,13.925,0,0,0,.054-2.121c0-.007,0-.013,0-.02l-.008-.146q-.17-2.927-.383-5.737,23.225-.434,46.451-.8,1.251-.02,2.5-.035c.906,3.25,1.743,6.416,2.48,9.307l-17.9-.135Q478.512,608.731,461.913,608.543Z" transform="translate(-314.546 -462.429)" fill="#6997b2"/>
        <path id="Trazado_1047683" data-name="Trazado 1047683" d="M468.29,589.212c-.219-2.6-.461-5.1-.723-7.469l46.871-.794c.774,2.437,1.525,4.936,2.24,7.423q-3.923.057-7.844.122Q488.562,588.821,468.29,589.212Z" transform="translate(-321.485 -453.91)" fill="#6997b2"/>
        <path id="Trazado_1047684" data-name="Trazado 1047684" d="M474.823,568.794c-.458-3.747-.962-7.1-1.49-9.916q22.154-.334,44.31-.23c.031.078.062.155.092.233,1.141,2.7,2.278,5.817,3.381,9.128l-4.922.084Z" transform="translate(-329.064 -443.757)" fill="#6997b2"/>
        <path id="Trazado_1047685" data-name="Trazado 1047685" d="M469.15,631.51l-12.768-10.286,49.274.367c.955,3.836,1.69,6.967,2.123,8.857q-13.259.309-26.514.684C477.226,631.248,473.188,631.384,469.15,631.51Z" transform="translate(-306.485 -472.226)" fill="#6997b2"/>
        <path id="Trazado_1047686" data-name="Trazado 1047686" d="M578.372,490.955a18.463,18.463,0,0,0,8.491-3.577l2.3,12.5c-5.024.708-10.346-2.332-13.4-6.273a14.739,14.739,0,0,1-1.554-2.518A18.59,18.59,0,0,0,578.372,490.955Z" transform="translate(-452.116 -411.356)" fill="#ed7b7d"/>
        <path id="Trazado_1047687" data-name="Trazado 1047687" d="M593.949,433.054l-.01-.009-.228,6.271c-.007.22-.009.439-.024.657l-.009.252-.017,0a18.569,18.569,0,0,1-7.226,13.254L589.476,470c2.619.279,5.175.589,7.651.862l0,0a22.3,22.3,0,0,1-4.65,8.184,22.566,22.566,0,0,1-2.953,2.756,24.158,24.158,0,0,1-14.948,5.032,23.469,23.469,0,0,1-14.8-5.241,23.525,23.525,0,0,1-7.49-10.6c-.026-.076-.06-.148-.086-.225,2.909-.394,5.947-.717,9.085-.969l2.92-16.125a18.5,18.5,0,0,1-6.641-9.211l-.021,0-1.96-5.719,0,0c-2.338,3.154-7.918,2.98-12.462-.388s-6.335-8.657-4-11.81,7.869-2.98,12.4.348l-.13-.38c.065.141.12.279.189.42a21.548,21.548,0,0,0,5.955-12.768,8.983,8.983,0,0,0,1.565.213v0c8.548,1.726,19.067.292,27.245-1.5a22.119,22.119,0,0,0,8.039,7.683c.005-.034.008-.067.013-.1v.038a11.716,11.716,0,0,1,7.827-4.912,5.6,5.6,0,0,1,3.926.987c2.637,1.955,2.939,6.175,1,10.164a14.5,14.5,0,0,1-1.389,2.3C602.391,433.6,597.1,435.392,593.949,433.054Zm-43.984-4.309A9.681,9.681,0,0,0,544.4,426.7a4.1,4.1,0,0,0-3.417,1.486,3.558,3.558,0,0,0-.672,2.156,5.767,5.767,0,0,0,.495,2.234h0a.28.28,0,1,0,.516-.219,5.211,5.211,0,0,1-.45-2.015,3,3,0,0,1,.562-1.823,3.538,3.538,0,0,1,2.967-1.259,7.127,7.127,0,0,1,1.68.242,9.269,9.269,0,0,0-.957,4.3,13.361,13.361,0,0,0,1.324,5.63.28.28,0,1,0,.508-.235,12.8,12.8,0,0,1-1.273-5.394,8.67,8.67,0,0,1,.921-4.094l.031-.053a10.289,10.289,0,0,1,2.994,1.54c2.284,1.687,3.6,4,3.592,5.823a3,3,0,0,1-.562,1.822.28.28,0,0,0,.45.333,3.559,3.559,0,0,0,.672-2.156C553.777,432.936,552.354,430.52,549.965,428.745Zm25.343,30.992c3.05,3.941,8.372,6.981,13.4,6.273l-2.3-12.5a18.4,18.4,0,0,1-12.649,3.711A14.7,14.7,0,0,0,575.307,459.737Zm7.859-31.954c-.1-.918-.591-1.618-1.1-1.564s-.835.845-.736,1.762.59,1.619,1.1,1.565S583.266,428.7,583.166,427.784Zm-17.7,2.841c.2.9.758,1.546,1.255,1.439s.742-.928.546-1.831-.758-1.547-1.255-1.439S565.273,429.722,565.469,430.625Zm4.09-6.367c-.5-1.356-3.1-1.642-5.8-.639s-4.479,2.914-3.974,4.27,2.32-.575,5.019-1.578S570.063,425.613,569.559,424.258Zm-1.02,21.866a2.436,2.436,0,1,0,2.377-2.969A2.722,2.722,0,0,0,568.539,446.124ZM576.6,434.78a.28.28,0,0,0-.5.246s.212.431.423.959a5.039,5.039,0,0,1,.411,1.478l-.015.108a2.456,2.456,0,0,1-.943-.58l-.257-.052-.187.183s-.025.079-.073.207-.116.3-.2.488a2.354,2.354,0,0,1-.565.863l-.066.029-.037-.019-.134-.173a4.006,4.006,0,0,1-.351-1.1l-.177-.206-.269.041-.094.068-.249.156a1.418,1.418,0,0,1-.593.21l-.137-.051a.636.636,0,0,1-.083-.389,7.209,7.209,0,0,1,.568-2.245.28.28,0,1,0-.525-.2,7.645,7.645,0,0,0-.6,2.441,1.152,1.152,0,0,0,.208.741.717.717,0,0,0,.573.259,1.888,1.888,0,0,0,.869-.283c.025-.014.039-.025.062-.039a2.235,2.235,0,0,0,.592,1.208.615.615,0,0,0,.381.136.883.883,0,0,0,.65-.38,3.48,3.48,0,0,0,.409-.667c.1-.2.179-.4.242-.559a1.915,1.915,0,0,0,1.01.475.518.518,0,0,0,.447-.237.8.8,0,0,0,.106-.436,5.358,5.358,0,0,0-.451-1.685c-.22-.553-.439-1-.441-1Zm5.654-13.67c-2.879,0-5.213,1.172-5.213,2.617s2.376.269,5.255.269,5.171,1.178,5.171-.269S585.13,421.11,582.251,421.11Zm23.722,1.98a.28.28,0,0,0,.308-.249,6.824,6.824,0,0,0,.04-.73,4.094,4.094,0,0,0-1.486-3.418,3.559,3.559,0,0,0-2.155-.672c-2.082.007-4.5,1.43-6.274,3.819a9.686,9.686,0,0,0-2.045,5.562,4.1,4.1,0,0,0,1.485,3.418.28.28,0,1,0,.334-.45,3.542,3.542,0,0,1-1.259-2.968,9.134,9.134,0,0,1,1.935-5.229,10.3,10.3,0,0,1,2.411-2.35l.022.021.079.076c.069.07.17.177.292.321a8.206,8.206,0,0,1,.9,1.319,11.065,11.065,0,0,1,1.323,5.446,14.815,14.815,0,0,1-.146,2.046.28.28,0,0,0,.556.077,15.386,15.386,0,0,0,.151-2.123,10.511,10.511,0,0,0-2.7-7.5,5.849,5.849,0,0,1,2.936-.924,3,3,0,0,1,1.822.562,3.541,3.541,0,0,1,1.259,2.968,6.31,6.31,0,0,1-.036.671h0A.281.281,0,0,0,605.973,423.091Z" transform="translate(-451.655 -377.487)" fill="#f7b7aa"/>
        <path id="Trazado_1047688" data-name="Trazado 1047688" d="M553.266,427.052a6.317,6.317,0,0,0,.036-.671,3.542,3.542,0,0,0-1.259-2.968,3,3,0,0,0-1.822-.562,5.849,5.849,0,0,0-2.936.924,10.51,10.51,0,0,1,2.7,7.5,15.392,15.392,0,0,1-.151,2.123.28.28,0,0,1-.556-.077,14.81,14.81,0,0,0,.146-2.046,11.064,11.064,0,0,0-1.323-5.446,8.275,8.275,0,0,0-.9-1.319c-.122-.144-.223-.251-.292-.321l-.079-.076-.022-.021a10.271,10.271,0,0,0-2.411,2.35,9.135,9.135,0,0,0-1.935,5.229,3.542,3.542,0,0,0,1.259,2.968.28.28,0,1,1-.334.45,4.1,4.1,0,0,1-1.485-3.418,9.686,9.686,0,0,1,2.045-5.562c1.776-2.389,4.192-3.813,6.274-3.819a3.559,3.559,0,0,1,2.155.672,4.094,4.094,0,0,1,1.486,3.418,6.809,6.809,0,0,1-.04.73.28.28,0,0,1-.557-.059Z" transform="translate(-399.196 -381.757)" fill="#74160d"/>
        <path id="Trazado_1047689" data-name="Trazado 1047689" d="M650.667,448.74a.28.28,0,0,1-.058-.391,3,3,0,0,0,.562-1.822c.007-1.82-1.309-4.136-3.593-5.823a10.292,10.292,0,0,0-2.994-1.54l-.031.053a8.684,8.684,0,0,0-.921,4.094A12.789,12.789,0,0,0,644.9,448.7a.28.28,0,1,1-.508.235,13.354,13.354,0,0,1-1.324-5.63,9.269,9.269,0,0,1,.957-4.3,7.12,7.12,0,0,0-1.68-.242,3.541,3.541,0,0,0-2.967,1.259,2.994,2.994,0,0,0-.562,1.823,5.21,5.21,0,0,0,.45,2.015.28.28,0,1,1-.516.219h0a5.777,5.777,0,0,1-.494-2.234,3.559,3.559,0,0,1,.672-2.156,4.1,4.1,0,0,1,3.417-1.486,9.681,9.681,0,0,1,5.563,2.046c2.388,1.775,3.812,4.192,3.819,6.273a3.562,3.562,0,0,1-.672,2.156A.28.28,0,0,1,650.667,448.74Z" transform="translate(-549.602 -388.994)" fill="#74160d"/>
        <path id="Trazado_1047690" data-name="Trazado 1047690" d="M584.355,439.088c-.1-.918.231-1.707.736-1.762s1,.646,1.1,1.564-.23,1.708-.736,1.763S584.455,440.007,584.355,439.088Z" transform="translate(-454.675 -388.592)" fill="#74160d"/>
        <path id="Trazado_1047691" data-name="Trazado 1047691" d="M581.745,430.843c-2.879,0-5.255,1.178-5.255-.269s2.334-2.617,5.214-2.617,5.213,1.172,5.213,2.617S584.624,430.843,581.745,430.843Z" transform="translate(-451.107 -384.333)" fill="#383851"/>
        <path id="Trazado_1047692" data-name="Trazado 1047692" d="M614.015,442.039c.5-.109,1.059.536,1.255,1.439s-.048,1.723-.546,1.831-1.059-.536-1.255-1.439S613.518,442.148,614.015,442.039Z" transform="translate(-499.655 -390.732)" fill="#74160d"/>
        <path id="Trazado_1047693" data-name="Trazado 1047693" d="M614.315,434.75c-2.7,1-4.516,2.934-5.019,1.578s1.275-3.268,3.974-4.27,5.3-.717,5.8.639S617.014,433.748,614.315,434.75Z" transform="translate(-501.165 -385.926)" fill="#383851"/>
        <path id="Trazado_1047694" data-name="Trazado 1047694" d="M600.332,455.579a.8.8,0,0,1-.106.436.518.518,0,0,1-.447.237,1.91,1.91,0,0,1-1.01-.475c-.063.162-.142.357-.242.559a3.415,3.415,0,0,1-.409.667.881.881,0,0,1-.651.38.619.619,0,0,1-.381-.136,2.235,2.235,0,0,1-.592-1.208c-.023.014-.037.025-.062.039a1.888,1.888,0,0,1-.869.283.716.716,0,0,1-.573-.259,1.152,1.152,0,0,1-.208-.741,7.647,7.647,0,0,1,.6-2.442.28.28,0,0,1,.525.2,7.211,7.211,0,0,0-.568,2.245.634.634,0,0,0,.083.389l.137.051a1.41,1.41,0,0,0,.593-.21l.249-.156.094-.068.269-.041.177.206a4.043,4.043,0,0,0,.351,1.1l.134.173.036.019.066-.029a2.35,2.35,0,0,0,.565-.863c.083-.184.151-.359.2-.488s.073-.207.073-.207l.187-.183.257.052a2.461,2.461,0,0,0,.943.58l.015-.108a5.061,5.061,0,0,0-.411-1.478c-.211-.528-.423-.958-.423-.959a.28.28,0,0,1,.5-.246h0s.22.448.44,1A5.376,5.376,0,0,1,600.332,455.579Z" transform="translate(-474.499 -395.602)" fill="#74160d"/>
        <path id="Trazado_1047695" data-name="Trazado 1047695" d="M607.233,471.359a2.436,2.436,0,1,1-2.377-2.969A2.722,2.722,0,0,1,607.233,471.359Z" transform="translate(-485.595 -402.721)" fill="#74160d"/>
        <path id="Trazado_1047696" data-name="Trazado 1047696" d="M519.957,955.191h-5.121l5.121-62.725Z" transform="translate(-350.533 -595.58)" fill="#1f1e34"/>
        <path id="Trazado_1047697" data-name="Trazado 1047697" d="M562.17,534.234q2.2.025,4.405.048a26.7,26.7,0,0,1-2.143,2.773c-1.738-.02-3.477-.047-5.215-.065A22.537,22.537,0,0,0,562.17,534.234Z" transform="translate(-421.351 -432.665)" fill="#a5c3d3"/>
        <path id="Trazado_1047698" data-name="Trazado 1047698" d="M627.275,533.7c1.53,0,3.06.014,4.59.02a23.786,23.786,0,0,0,2.946,2.817q-2.719-.01-5.438-.021A26.683,26.683,0,0,1,627.275,533.7Z" transform="translate(-526.692 -432.424)" fill="#a5c3d3"/>
        <path id="Trazado_1047699" data-name="Trazado 1047699" d="M638.6,536.549l.062-.045a14.212,14.212,0,0,1,3.59-2.777c1.975-.009,3.951-.028,5.925-.034q12.132-.034,24.263,0a27.231,27.231,0,0,0,2.014,2.812Q656.532,536.461,638.6,536.549Z" transform="translate(-572.516 -432.412)" fill="#a5c3d3"/>
        <path id="Trazado_1047700" data-name="Trazado 1047700" d="M493.013,534.337q16.706.2,33.41.509h.02c.129.1.249.214.376.316q.422.338.833.7t.8.734q.364.347.719.711c.136.14.278.265.412.408h-.019q-19.308-.383-38.618-.605A27.276,27.276,0,0,0,493.013,534.337Z" transform="translate(-347.137 -432.712)" fill="#a5c3d3"/>
        <path id="Trazado_1047701" data-name="Trazado 1047701" d="M592.835,555.421a26.715,26.715,0,0,1-5.57-.607q6.247-.174,12.5-.31A26.667,26.667,0,0,1,592.835,555.421Z" transform="translate(-469.828 -441.883)" fill="#a5c3d3"/>
        <path id="Trazado_1047702" data-name="Trazado 1047702" d="M591.2,559.235q-10.076.484-20.153.982,1.547-1.488,3.108-2.95,4.108-.2,8.217-.4,27.34-1.345,54.693-2.138A27.124,27.124,0,0,0,653.7,554.3q3.38-.073,6.76-.131c-.091.857-.171,1.788-.242,2.781-3.724.065-7.448.13-11.172.215Q620.111,557.828,591.2,559.235Z" transform="translate(-521.683 -441.733)" fill="#a5c3d3"/>
        <path id="Trazado_1047703" data-name="Trazado 1047703" d="M479.674,553.766q17.233-.282,34.473-.3c3.039,0,6.077.021,9.116.034h.032c.2.4.39.8.578,1.2.131.285.255.578.379.869.041.1.083.193.123.29.061.147.128.29.187.439h-.015q-22.155-.1-44.311.23Q479.959,555.049,479.674,553.766Z" transform="translate(-335.968 -441.412)" fill="#a5c3d3"/>
        <path id="Trazado_1047704" data-name="Trazado 1047704" d="M585.161,579.053a.267.267,0,0,0-.165,0l0,0a12.093,12.093,0,0,0-.637-1.316l1.116-.019C585.361,578.137,585.256,578.579,585.161,579.053Z" transform="translate(-453.954 -452.442)" fill="#a5c3d3"/>
        <path id="Trazado_1047705" data-name="Trazado 1047705" d="M573.513,580.314l-.517.009a26.563,26.563,0,0,0-.882-2.786l1.4-.023Q573.506,578.882,573.513,580.314Z" transform="translate(-435.321 -452.347)" fill="#a5c3d3"/>
        <path id="Trazado_1047706" data-name="Trazado 1047706" d="M596.2,579.325l40.555-.688,45.026-.763a14.446,14.446,0,0,0-.866,2.816l-.628.01c-.715-1.4-1.491-2.184-2.268-2.139-.747.044-1.406.842-1.942,2.21l-82.64,1.4C594.312,581.263,595.237,580.307,596.2,579.325Z" transform="translate(-555.21 -452.512)" fill="#a5c3d3"/>
        <path id="Trazado_1047707" data-name="Trazado 1047707" d="M471.632,576.623l41.372-.7,4.922-.084h.02q.458,1.376.907,2.786h-.025l-46.871.794Q471.8,577.988,471.632,576.623Z" transform="translate(-325.873 -451.586)" fill="#a5c3d3"/>
        <path id="Trazado_1047708" data-name="Trazado 1047708" d="M606.413,601.981a3.108,3.108,0,0,1,.85-2.078s.256-.282.707-.774q27.783-.717,55.567-1.344,16.714-.375,33.43-.7c-.06.9-.1,1.831-.119,2.805q-39.04.793-78.075,1.754C614.653,601.752,610.533,601.874,606.413,601.981Z" transform="translate(-577.474 -461.25)" fill="#a5c3d3"/>
        <path id="Trazado_1047709" data-name="Trazado 1047709" d="M466.3,598.191q-.106-1.413-.223-2.787,20.272-.378,40.546-.718,3.921-.064,7.844-.122h.022q.4,1.4.789,2.79h-.023q-1.251.017-2.5.035Q489.528,597.745,466.3,598.191Z" transform="translate(-319.275 -460.101)" fill="#a5c3d3"/>
        <path id="Trazado_1047710" data-name="Trazado 1047710" d="M608.646,619.829c-.6.05-1.2.1-1.8.152-.611-.9-1.155-1.792-1.63-2.65,15.937-1.334,31.879-1.971,47.877-2.049,13.519-.065,27.04-.011,40.562.089l0,.028.013,0a13.979,13.979,0,0,0,.522,2.849C665.667,617.905,637.079,617.489,608.646,619.829Z" transform="translate(-574.047 -469.51)" fill="#a5c3d3"/>
        <path id="Trazado_1047711" data-name="Trazado 1047711" d="M460.233,616.715c.039-.257.057-.518.081-.78q16.6.169,33.194.311l17.9.135h.023q.372,1.455.708,2.806h-.023l-49.274-.367Z" transform="translate(-312.947 -469.821)" fill="#a5c3d3"/>
        <path id="Trazado_1047712" data-name="Trazado 1047712" d="M584.791,647.673q-.205-1.371-.408-2.784c2.369-.119,4.738-.25,7.108-.366q26.752-1.305,53.518-2.314l2.529,2.7-.817.029Q615.749,646.1,584.791,647.673Z" transform="translate(-516.034 -481.769)" fill="#a5c3d3"/>
        <path id="Trazado_1047713" data-name="Trazado 1047713" d="M455.371,639.2c4.038-.125,8.076-.262,12.114-.377q13.256-.379,26.514-.684h.023c.287,1.254.444,1.965.444,1.965a2.57,2.57,0,0,1,.081.83h-.023q-17.91.415-35.816.955Z" transform="translate(-292.706 -479.92)" fill="#a5c3d3"/>
        <path id="Trazado_1047714" data-name="Trazado 1047714" d="M725.411,650.74l-.184.135-.025,0c-1.5.079-3,.166-4.506.247l-.033,0c-.21-.063-.435-.151-.653-.228-.32-.113-.645-.239-.981-.381-.3-.128-.6-.256-.917-.407-.262-.126-.533-.275-.8-.417-.233-.124-.466-.246-.7-.382-.3-.171-.6-.352-.909-.54-.092-.057-.18-.1-.271-.162h.015q6.6-.362,13.2-.7h.027C727.611,648.834,726.531,649.775,725.411,650.74Z" transform="translate(-668.61 -484.362)" fill="#a5c3d3"/>
        <path id="Trazado_1047715" data-name="Trazado 1047715" d="M562.949,670.2c-.165-.9-.33-1.828-.5-2.781q6.99-.182,13.981-.362,28.34-.747,56.678-1.517l2.565,2.737-11.645.314Q593.49,669.415,562.949,670.2Z" transform="translate(-492.215 -492.382)" fill="#a5c3d3"/>
        <path id="Trazado_1047716" data-name="Trazado 1047716" d="M492.245,663.35c-.142.041-.279.088-.422.129-1.716.491-3.395.877-5.016,1.174l-1.389-1.119,6.8-.183Z" transform="translate(-306.782 -491.384)" fill="#a5c3d3"/>
        <path id="Trazado_1047717" data-name="Trazado 1047717" d="M545.115,689.628c-.186-.871-.382-1.807-.584-2.792q7-.147,13.992-.334c21.463-.588,42.922-1.415,64.389-1.867l2.583,2.756q-9.6.186-19.191.46C585.907,688.426,565.515,689.19,545.115,689.628Z" transform="translate(-472.262 -501.064)" fill="#a5c3d3"/>
        <path id="Trazado_1047718" data-name="Trazado 1047718" d="M527.251,709.091a2.874,2.874,0,0,1-.822-1.871s-.082-.31-.226-.888q9.925-.46,19.853-.86c22.02-.865,44.053-1.4,66.09-1.365l2.628,2.8c-9.908-.01-19.814.031-29.721.211C565.777,707.473,546.51,708.2,527.251,709.091Z" transform="translate(-451.548 -509.918)" fill="#a5c3d3"/>
        <line id="Línea_1635" data-name="Línea 1635" transform="translate(149.326 93.852)" fill="none" stroke="#74160d" stroke-linecap="round" stroke-linejoin="round" stroke-width="0"/>
        <path id="Trazado_1047719" data-name="Trazado 1047719" d="M556.05,527.56a28.342,28.342,0,0,1-4.038,4.884,3.573,3.573,0,0,0-.316-.475q.816-.788,1.56-1.644a25.959,25.959,0,0,0,5.689-10.641c0-.014.009-.027.013-.041a.28.28,0,0,1,.343-.2.274.274,0,0,1,.194.3c0,.014.009.025.005.038A27.069,27.069,0,0,1,556.05,527.56Z" transform="translate(-410.173 -425.935)" fill="#74160d"/>
        <path id="Trazado_1047720" data-name="Trazado 1047720" d="M595.983,539.96a27.3,27.3,0,0,1-26.273-20.112c-.02-.075-.049-.146-.068-.221a.28.28,0,0,1,.542-.142c.025.1.062.191.088.289a26.647,26.647,0,0,0,42.249,13.869c-.07.264-.139.546-.2.854a26.96,26.96,0,0,1-16.336,5.464Z" transform="translate(-472.975 -425.862)" fill="#74160d"/>
        <path id="Trazado_1047721" data-name="Trazado 1047721" d="M494.849,633.038l-2.628-2.8-7.366-7.861-2.583-2.756-7.189-7.672-2.565-2.737-9.391-10.023-2.529-2.7-5.947-6.347.058-.051a13.9,13.9,0,0,1-3.463-8.158l-.013,0,0-.028-.014-.238a.048.048,0,0,1,0-.008v-.009l-.112-1.917c-.1-1.751-.134-3.443-.107-5.044.017-.974.058-1.908.119-2.805a27.246,27.246,0,0,1,1.372-7.579c.536-1.368,1.195-2.167,1.942-2.21.777-.045,1.553.742,2.268,2.139.028.055.055.116.083.172a.265.265,0,0,0-.031.3l0,0,.017.031.071.149a7.065,7.065,0,0,1,.267.719,23.308,23.308,0,0,1,.778,3.621.28.28,0,0,0,.554-.083,15.935,15.935,0,0,0-1.172-4.661c.019-.09.038-.177.057-.265a14.447,14.447,0,0,1,.866-2.816c.5-1.122,1.1-1.787,1.771-1.826.7-.041,1.405.606,2.062,1.761a12.1,12.1,0,0,1,.637,1.316.28.28,0,0,0-.148.366s.069.162.183.468.273.752.448,1.311a29.848,29.848,0,0,1,1.031,4.464.28.28,0,1,0,.554-.083,29.182,29.182,0,0,0-1.7-6.379h0a.264.264,0,0,0-.2-.15c.1-.474.2-.917.312-1.332.6-2.214,1.418-3.568,2.391-3.625,1.007-.059,2.011,1.273,2.882,3.535a26.316,26.316,0,0,1,.882,2.786q.29,1.109.541,2.364-.017-1.206-.023-2.373-.007-1.434,0-2.8c.025-3.753.141-7.112.342-9.945.07-.992.15-1.924.242-2.781.158-1.495.347-2.772.565-3.805.065-.308.133-.59.2-.854.363-1.365.793-2.13,1.285-2.159a.894.894,0,0,1,.692.412,3.531,3.531,0,0,1,.316.475,23.336,23.336,0,0,1,1.868,5.845q.285,1.281.563,2.768c.528,2.82,1.032,6.169,1.49,9.916q.166,1.363.325,2.8c.261,2.369.5,4.867.722,7.469.077.918.152,1.845.223,2.787.141,1.871.269,3.787.383,5.737l.008.146c0,.007,0,.013,0,.02a14.064,14.064,0,0,1-.054,2.121c-.025.261-.043.523-.081.78l2.612,2.1,12.768,10.286,3.337,2.689,12.633,10.178,1.389,1.119,14.63,11.786a51.3,51.3,0,0,0,6.292-5.93l-2.461-13.384h0c3.579,18.017,5.667,34.222,5.7,37.784a11.268,11.268,0,0,1-.005,2.007v.05l0-.012c-.519,5.32-4.72,10.209-10.806,11.883-6.066,1.668-12.153-.365-15.329-4.642l-3.455-3.687-6.89-7.353ZM472.468,543.03c-.649.038-1.092,1.5-.989,3.26a8.1,8.1,0,0,0,.167,1.246c.722-.068,1.443-.136,2.166-.185a8.261,8.261,0,0,0,.017-1.2C473.727,544.39,473.117,542.992,472.468,543.03Z" transform="translate(-331.623 -436.044)" fill="#f7b7aa"/>
        <path id="Trazado_1047722" data-name="Trazado 1047722" d="M581.775,580.153a.264.264,0,0,1,.2.15h0a29.179,29.179,0,0,1,1.7,6.379.28.28,0,0,1-.554.083,29.866,29.866,0,0,0-1.031-4.464c-.175-.558-.333-1-.448-1.311s-.183-.468-.183-.468a.28.28,0,0,1,.148-.366s0,0,0,0A.272.272,0,0,1,581.775,580.153Z" transform="translate(-450.569 -453.542)" fill="#74160d"/>
        <path id="Trazado_1047723" data-name="Trazado 1047723" d="M593.484,583.277h0c0,.007.019.032.042.076a15.91,15.91,0,0,1,1.172,4.661.28.28,0,0,1-.554.083,23.349,23.349,0,0,0-.778-3.621,6.88,6.88,0,0,0-.267-.719l-.071-.149-.017-.031,0,0a.265.265,0,0,1,.031-.3c.021-.028.028-.064.06-.083A.278.278,0,0,1,593.484,583.277Z" transform="translate(-467.88 -454.909)" fill="#74160d"/>
        <path id="Trazado_1047724" data-name="Trazado 1047724" d="M564.911,548.675a8.178,8.178,0,0,1-.167-1.246c-.1-1.763.34-3.222.989-3.26s1.258,1.361,1.361,3.124a8.261,8.261,0,0,1-.017,1.2C566.353,548.539,565.632,548.607,564.911,548.675Z" transform="translate(-424.887 -437.183)" fill="#fbd7d2"/>
      </g>
    </g>
  </g>
</svg>
