<svg xmlns="http://www.w3.org/2000/svg" xmlns:xlink="http://www.w3.org/1999/xlink" width="118" height="118" viewBox="0 0 118 118">
  <defs>
    <filter id="Trazado_982547" x="0" y="0" width="118" height="118" filterUnits="userSpaceOnUse">
      <feOffset dy="3" input="SourceAlpha"/>
      <feGaussianBlur stdDeviation="3" result="blur"/>
      <feFlood flood-opacity="0.161"/>
      <feComposite operator="in" in2="blur"/>
      <feComposite in="SourceGraphic"/>
    </filter>
  </defs>
  <g id="Grupo_1201305" data-name="Grupo 1201305" transform="translate(-268.5 -1496.615)">
    <g id="Grupo_1201301" data-name="Grupo 1201301" transform="translate(-0.5 -6321.385)">
      <g id="Grupo_1183657" data-name="Grupo 1183657" transform="translate(11 6437)">
        <g id="Grupo_1182316" data-name="Grupo 1182316" transform="translate(-11 -8277.328)">
          <g id="Grupo_1176356" data-name="Grupo 1176356" transform="translate(278 9664.328)">
            <g id="Grupo_1172970" data-name="Grupo 1172970" transform="translate(0)">
              <g id="Grupo_1171971" data-name="Grupo 1171971">
                <g id="Grupo_1167337" data-name="Grupo 1167337">
                  <g id="Grupo_1166720" data-name="Grupo 1166720">
                    <g id="Grupo_1164305" data-name="Grupo 1164305">
                      <g id="Grupo_1163948" data-name="Grupo 1163948">
                        <g id="Grupo_1158168" data-name="Grupo 1158168">
                          <g id="Grupo_1152576" data-name="Grupo 1152576">
                            <g id="Grupo_1148633" data-name="Grupo 1148633">
                              <g id="Grupo_1148525" data-name="Grupo 1148525">
                                <g transform="matrix(1, 0, 0, 1, -9, -6)" filter="url(#Trazado_982547)">
                                  <g id="Trazado_982547-2" data-name="Trazado 982547" transform="translate(9 6)" fill="#f2f7f5">
                                    <path d="M 50 98.5 C 43.45188522338867 98.5 37.10042953491211 97.21787261962891 31.12207221984863 94.68923950195312 C 25.34691429138184 92.24655914306641 20.15995788574219 88.74932861328125 15.70532894134521 84.29468536376953 C 11.2506856918335 79.84004211425781 7.753442764282227 74.65309906005859 5.310757160186768 68.87794494628906 C 2.782128572463989 62.89958572387695 1.5 56.54813003540039 1.5 50 C 1.5 43.45188522338867 2.782128572463989 37.10042953491211 5.310757160186768 31.12207221984863 C 7.753442764282227 25.34691429138184 11.2506856918335 20.15997123718262 15.70532894134521 15.70532894134521 C 20.15997123718262 11.2506856918335 25.34691429138184 7.753442764282227 31.12207221984863 5.310757160186768 C 37.10042953491211 2.782128572463989 43.45188522338867 1.5 50 1.5 C 56.54813003540039 1.5 62.89958572387695 2.782128572463989 68.87794494628906 5.310757160186768 C 74.65309906005859 7.753442764282227 79.84004211425781 11.2506856918335 84.29468536376953 15.70532894134521 C 88.74932861328125 20.15995788574219 92.24655914306641 25.34691429138184 94.68923950195312 31.12207221984863 C 97.21787261962891 37.10042953491211 98.5 43.45188522338867 98.5 50 C 98.5 56.54813003540039 97.21787261962891 62.89958572387695 94.68923950195312 68.87794494628906 C 92.24655914306641 74.65309906005859 88.74932861328125 79.84004211425781 84.29468536376953 84.29468536376953 C 79.84004211425781 88.74932861328125 74.65309906005859 92.24655914306641 68.87794494628906 94.68923950195312 C 62.89958572387695 97.21787261962891 56.54813003540039 98.5 50 98.5 Z" stroke="none"/>
                                    <path d="M 50 3 C 43.65372467041016 3 37.49886322021484 4.242263793945312 31.70639801025391 6.6922607421875 C 26.11003112792969 9.059326171875 21.08335113525391 12.44861602783203 16.76598358154297 16.76598358154297 C 12.44861602783203 21.08335113525391 9.059326171875 26.11003112792969 6.6922607421875 31.70639801025391 C 4.242263793945312 37.49886322021484 3 43.65372467041016 3 50 C 3 56.34629058837891 4.242263793945312 62.50115203857422 6.6922607421875 68.29361724853516 C 9.059326171875 73.88998413085938 12.44861602783203 78.91666412353516 16.76598358154297 83.23403167724609 C 21.08335113525391 87.55138397216797 26.11003112792969 90.940673828125 31.70639801025391 93.3077392578125 C 37.49886322021484 95.75773620605469 43.65372467041016 97 50 97 C 56.34629058837891 97 62.50115203857422 95.75773620605469 68.29361724853516 93.3077392578125 C 73.88998413085938 90.940673828125 78.91666412353516 87.55138397216797 83.23403167724609 83.23403167724609 C 87.55138397216797 78.91666412353516 90.940673828125 73.88998413085938 93.3077392578125 68.29361724853516 C 95.75773620605469 62.50115203857422 97 56.34629058837891 97 50 C 97 43.65372467041016 95.75773620605469 37.49886322021484 93.3077392578125 31.70639801025391 C 90.940673828125 26.11003112792969 87.55138397216797 21.08335113525391 83.23403167724609 16.76598358154297 C 78.91666412353516 12.44861602783203 73.88998413085938 9.059326171875 68.29361724853516 6.6922607421875 C 62.50115203857422 4.242263793945312 56.34629058837891 3 50 3 M 50 0 C 77.6142578125 0 100 22.38577270507812 100 50 C 100 77.6142578125 77.6142578125 100 50 100 C 22.38577270507812 100 0 77.6142578125 0 50 C 0 22.38577270507812 22.38577270507812 0 50 0 Z" stroke="none" fill="#4a665c"/>
                                  </g>
                                </g>
                              </g>
                            </g>
                          </g>
                        </g>
                      </g>
                    </g>
                  </g>
                </g>
              </g>
            </g>
          </g>
        </g>
      </g>
    </g>
    <g id="inflacion-monetaria" transform="translate(296.221 1513.548)">
      <path id="Trazado_1047997" data-name="Trazado 1047997" d="M14.791,60.045H36.67a3.2,3.2,0,0,0,.7-.086A13.872,13.872,0,0,1,33.018,53.7H14.791a3.171,3.171,0,1,0,0,6.342Z" transform="translate(0 6.362)" fill="#4a665c"/>
      <path id="Trazado_1047998" data-name="Trazado 1047998" d="M14.791,52.429H32.458a13.394,13.394,0,0,1,.445-6.342H14.791a3.171,3.171,0,1,0,0,6.342Z" transform="translate(0 5.378)" fill="#4a665c"/>
      <path id="Trazado_1047999" data-name="Trazado 1047999" d="M27.611,32V12.261a1.129,1.129,0,0,1,1.129-1.129h1.368L24.152,4.5l-5.964,6.635h1.365a1.129,1.129,0,0,1,1.129,1.129V32h6.929Z" transform="translate(0.85 0)" fill="#4a665c"/>
      <path id="Trazado_1048000" data-name="Trazado 1048000" d="M42.963,25.353V39.839a13.724,13.724,0,0,1,4.75,1.1V25.355a1.129,1.129,0,0,1,1.129-1.129h.451l-3.955-4.4-3.955,4.4h.449a1.129,1.129,0,0,1,1.129,1.129Z" transform="translate(3.849 1.981)" fill="#4a665c"/>
      <path id="Trazado_1048001" data-name="Trazado 1048001" d="M14.791,44.813H33.85a13.9,13.9,0,0,1,5.063-5.389,3.161,3.161,0,0,0-2.243-.953H14.791a3.171,3.171,0,1,0,0,6.342Z" transform="translate(0 4.393)" fill="#4a665c"/>
      <path id="Trazado_1048002" data-name="Trazado 1048002" d="M11.615,34.021a3.176,3.176,0,0,0,3.172,3.172H36.664a3.172,3.172,0,1,0,0-6.344H29.621c-.01,0-.019.006-.03.006s-.019-.006-.03-.006H20.432c-.01,0-.019.006-.03.006s-.019-.006-.03-.006H14.785a3.176,3.176,0,0,0-3.172,3.172Z" transform="translate(0 3.407)" fill="#4a665c"/>
      <path id="Trazado_1048003" data-name="Trazado 1048003" d="M55.036,51.081A11.567,11.567,0,1,0,43.468,62.649,11.581,11.581,0,0,0,55.036,51.081ZM43.468,49.949a4.211,4.211,0,0,1,1.132,8.27v.988a1.129,1.129,0,0,1-2.259,0V58.22a4.215,4.215,0,0,1-3.094-4.05,1.129,1.129,0,0,1,2.259,0,1.963,1.963,0,1,0,1.963-1.963,4.211,4.211,0,0,1-1.127-8.271v-.979a1.129,1.129,0,0,1,2.259,0v.98a4.214,4.214,0,0,1,3.09,4.049,1.129,1.129,0,0,1-2.259,0,1.964,1.964,0,0,0-1.955-1.962h-.015a1.963,1.963,0,0,0,.006,3.925Z" transform="translate(2.623 4.528)" fill="#4a665c"/>
    </g>
  </g>
</svg>
