<svg xmlns="http://www.w3.org/2000/svg" xmlns:xlink="http://www.w3.org/1999/xlink" width="190" height="169" viewBox="0 0 190 169">
  <defs>
    <clipPath id="clip-path">
      <rect id="Rectángulo_416300" data-name="Rectángulo 416300" width="190" height="169" transform="translate(810 2931)" fill="#fff" stroke="#707070" stroke-width="1"/>
    </clipPath>
  </defs>
  <g id="Enmascarar_grupo_1183024" data-name="Enmascarar grupo 1183024" transform="translate(-810 -2931)" clip-path="url(#clip-path)">
    <g id="Grupo_1200905" data-name="Grupo 1200905" transform="translate(815.797 2932.719)">
      <g id="Grupo_1200809" data-name="Grupo 1200809" transform="translate(15.156 28.719)">
        <path id="Trazado_1046680" data-name="Trazado 1046680" d="M163.1,155.793a.746.746,0,0,1-.007.171c-.178,3.8-.521,7.642-.946,11.529H145.124l-23.465-4.962-34.637,4.962h-.178l-28.8-2.9-29.159,2.9H15.855c-.171-3.064-.315-7.334-.425-11.529a1.4,1.4,0,0,1-.007-.171c-.123-4.777-.212-9.445-.247-12.1v-.171c-.014-.953-.02-1.624-.02-1.926,0-1.3.007-2.6.034-3.9.007-.74.02-1.48.041-2.228.014-.514.021-1.035.041-1.549.02-.836.048-1.673.075-2.508a1.4,1.4,0,0,1,.007-.171q.206-6.066.713-12.111a.7.7,0,0,1,.02-.171q.4-4.914,1.042-9.794c.1-.768.206-1.542.315-2.317.014-.062.02-.117.027-.171.576-4,1.275-8.061,2.138-12.111.014-.055.027-.11.041-.171.007-.021.007-.041.014-.069.055-.26.11-.514.171-.775.829-3.79,1.8-7.567,2.94-11.268a1.591,1.591,0,0,1,.055-.171A107.9,107.9,0,0,1,26.685,71.48c.212-.5.425-.994.651-1.487a1.817,1.817,0,0,1,.075-.171,78.974,78.974,0,0,1,4.538-8.7c.055-.089.11-.185.171-.274.226-.37.452-.74.685-1.1a2.4,2.4,0,0,1,.2-.308c.377-.583.761-1.158,1.158-1.727.034-.055.075-.117.117-.171a56.107,56.107,0,0,1,3.866-4.962,77.061,77.061,0,0,1,6.086-6.231,1.256,1.256,0,0,1,.171-.158c.274-.26.555-.507.836-.754a2.374,2.374,0,0,1,.2-.171,70.738,70.738,0,0,1,11.076-8.026,1.147,1.147,0,0,1,.171-.1,63.6,63.6,0,0,1,8.054-3.982c.137-.062.274-.117.411-.171,1.206-.487,2.426-.932,3.646-1.337.062-.02.117-.041.171-.055A56.547,56.547,0,0,1,81.079,29a.776.776,0,0,1,.171-.02,52.238,52.238,0,0,1,12.111.2l.171.02a50.684,50.684,0,0,1,12.111,3.235c.055.02.11.048.171.068.37.158.747.315,1.117.48.13.055.26.11.384.171a53.1,53.1,0,0,1,10.6,6.34c.055.041.116.082.171.13.569.439,1.131.891,1.693,1.357a58.428,58.428,0,0,1,4.626,4.284c.055.055.11.11.165.171q1.634,1.686,3.187,3.55c.857,1.021,1.665,2.09,2.44,3.194.055.082.117.165.171.247a54.047,54.047,0,0,1,3.118,5.113.682.682,0,0,1,.089.171q1.1,2.015,2.063,4.126c1.193,2.591,2.255,5.264,3.235,7.985.02.055.041.11.062.171,1.179,3.3,2.221,6.655,3.194,9.993.117.4.233.8.35,1.2.062.192.116.384.171.576.034.117.068.226.1.343a1.654,1.654,0,0,1,.048.171c1.241,4.161,2.5,8.184,3.838,12.111a1.223,1.223,0,0,0,.055.171c1.028,3.03,2.1,6,3.249,8.951q.617,1.583,1.261,3.16a1.265,1.265,0,0,0,.075.171c1.083,2.666,2.234,5.319,3.482,7.985.055.123.11.24.171.363q.833,1.789,1.727,3.578l.082.185c.027.055.055.11.089.171s.055.116.082.171a58.587,58.587,0,0,1,4.263,11.94c.014.055.027.117.041.171q.124.483.226.966c.055.24.11.48.158.72.459,2.125.809,4.263,1.063,6.422.158,1.33.281,2.666.37,4,.007.055.007.117.014.171A106.3,106.3,0,0,1,163.1,155.793Z" transform="translate(-15.156 -28.719)" fill="#ff85ca"/>
      </g>
      <g id="Grupo_1200860" data-name="Grupo 1200860" transform="translate(15.176 28.978)" opacity="0.4">
        <g id="Grupo_1200835" data-name="Grupo 1200835" transform="translate(4.49)">
          <g id="Grupo_1200811" data-name="Grupo 1200811" transform="translate(0 64.566)">
            <g id="Grupo_1200810" data-name="Grupo 1200810">
              <path id="Trazado_1046681" data-name="Trazado 1046681" d="M29.927,241.807c.055-.258.11-.509.171-.767v73.949h-.171Z" transform="translate(-29.927 -241.04)" fill="#ffdfe5"/>
            </g>
          </g>
          <g id="Grupo_1200813" data-name="Grupo 1200813" transform="translate(12.282 28.561)">
            <g id="Grupo_1200812" data-name="Grupo 1200812">
              <rect id="Rectángulo_416294" data-name="Rectángulo 416294" width="0.171" height="109.954" fill="#ffdfe5"/>
            </g>
          </g>
          <g id="Grupo_1200815" data-name="Grupo 1200815" transform="translate(24.565 16.187)">
            <g id="Grupo_1200814" data-name="Grupo 1200814">
              <rect id="Rectángulo_416295" data-name="Rectángulo 416295" width="0.171" height="122.24" fill="#ffdfe5"/>
            </g>
          </g>
          <g id="Grupo_1200817" data-name="Grupo 1200817" transform="translate(36.848 8.107)">
            <g id="Grupo_1200816" data-name="Grupo 1200816">
              <path id="Trazado_1046682" data-name="Trazado 1046682" d="M150.615,56.22a1.167,1.167,0,0,1,.171-.1V186.437h-.171Z" transform="translate(-150.615 -56.118)" fill="#ffdfe5"/>
            </g>
          </g>
          <g id="Grupo_1200819" data-name="Grupo 1200819" transform="translate(49.13 2.595)">
            <g id="Grupo_1200818" data-name="Grupo 1200818">
              <path id="Trazado_1046683" data-name="Trazado 1046683" d="M191.016,38.067V173.9h-.171V38.121C190.907,38.1,190.961,38.081,191.016,38.067Z" transform="translate(-190.845 -38.067)" fill="#ffdfe5"/>
            </g>
          </g>
          <g id="Grupo_1200821" data-name="Grupo 1200821" transform="translate(61.413)">
            <g id="Grupo_1200820" data-name="Grupo 1200820">
              <path id="Trazado_1046684" data-name="Trazado 1046684" d="M231.245,29.566V167.992h-.171V29.586A.776.776,0,0,1,231.245,29.566Z" transform="translate(-231.074 -29.566)" fill="#ffdfe5"/>
            </g>
          </g>
          <g id="Grupo_1200823" data-name="Grupo 1200823" transform="translate(73.696 0.198)">
            <g id="Grupo_1200822" data-name="Grupo 1200822">
              <path id="Trazado_1046685" data-name="Trazado 1046685" d="M271.475,30.233V168.442H271.3V30.213Z" transform="translate(-271.304 -30.213)" fill="#ffdfe5"/>
            </g>
          </g>
          <g id="Grupo_1200825" data-name="Grupo 1200825" transform="translate(85.978 3.434)">
            <g id="Grupo_1200824" data-name="Grupo 1200824">
              <path id="Trazado_1046686" data-name="Trazado 1046686" d="M311.7,40.88V175.8h-.171V40.812C311.588,40.832,311.643,40.86,311.7,40.88Z" transform="translate(-311.533 -40.812)" fill="#ffdfe5"/>
            </g>
          </g>
          <g id="Grupo_1200827" data-name="Grupo 1200827" transform="translate(98.254 10.451)">
            <g id="Grupo_1200826" data-name="Grupo 1200826">
              <path id="Trazado_1046687" data-name="Trazado 1046687" d="M351.74,63.795c.055.041.116.082.171.129V191.771h-.171Z" transform="translate(-351.74 -63.795)" fill="#ffdfe5"/>
            </g>
          </g>
          <g id="Grupo_1200829" data-name="Grupo 1200829" transform="translate(110.536 23.061)">
            <g id="Grupo_1200828" data-name="Grupo 1200828">
              <path id="Trazado_1046688" data-name="Trazado 1046688" d="M391.969,105.1c.055.082.117.164.171.245v115.12h-.171Z" transform="translate(-391.969 -105.097)" fill="#ffdfe5"/>
            </g>
          </g>
          <g id="Grupo_1200831" data-name="Grupo 1200831" transform="translate(122.819 51.892)">
            <g id="Grupo_1200830" data-name="Grupo 1200830">
              <path id="Trazado_1046689" data-name="Trazado 1046689" d="M432.2,199.529c.062.191.116.381.171.572v85.962H432.2Z" transform="translate(-432.199 -199.529)" fill="#ffdfe5"/>
            </g>
          </g>
          <g id="Grupo_1200834" data-name="Grupo 1200834" transform="translate(135.102 77.691)">
            <g id="Grupo_1200832" data-name="Grupo 1200832">
              <rect id="Rectángulo_416296" data-name="Rectángulo 416296" width="0.171" height="0.171" fill="#ffdfe5"/>
            </g>
            <g id="Grupo_1200833" data-name="Grupo 1200833" transform="translate(0 7.637)">
              <path id="Trazado_1046690" data-name="Trazado 1046690" d="M472.428,309.044c.055.123.11.239.171.361V362.23h-.171Z" transform="translate(-472.428 -309.044)" fill="#ffdfe5"/>
            </g>
          </g>
        </g>
        <g id="Grupo_1200859" data-name="Grupo 1200859" transform="translate(0 4.003)">
          <g id="Grupo_1200837" data-name="Grupo 1200837" transform="translate(49.562)">
            <g id="Grupo_1200836" data-name="Grupo 1200836">
              <path id="Trazado_1046691" data-name="Trazado 1046691" d="M220.132,42.847H177.554c.137-.062.274-.117.411-.171h41.783C219.878,42.731,220.008,42.786,220.132,42.847Z" transform="translate(-177.554 -42.676)" fill="#ffdfe5"/>
            </g>
          </g>
          <g id="Grupo_1200839" data-name="Grupo 1200839" transform="translate(29.055 12.283)">
            <g id="Grupo_1200838" data-name="Grupo 1200838">
              <path id="Trazado_1046692" data-name="Trazado 1046692" d="M190.73,83.077H110.386v-.171h80.18C190.62,82.961,190.675,83.016,190.73,83.077Z" transform="translate(-110.386 -82.906)" fill="#ffdfe5"/>
            </g>
          </g>
          <g id="Grupo_1200841" data-name="Grupo 1200841" transform="translate(16.772 24.559)">
            <g id="Grupo_1200840" data-name="Grupo 1200840" transform="translate(0)">
              <path id="Trazado_1046693" data-name="Trazado 1046693" d="M171.789,123.284H70.156v-.171H171.7A.672.672,0,0,1,171.789,123.284Z" transform="translate(-70.156 -123.113)" fill="#ffdfe5"/>
            </g>
          </g>
          <g id="Grupo_1200843" data-name="Grupo 1200843" transform="translate(12.159 36.841)">
            <g id="Grupo_1200842" data-name="Grupo 1200842">
              <path id="Trazado_1046694" data-name="Trazado 1046694" d="M166.654,163.513H55.048a1.818,1.818,0,0,1,.075-.171H166.592C166.613,163.4,166.633,163.452,166.654,163.513Z" transform="translate(-55.048 -163.342)" fill="#ffdfe5"/>
            </g>
          </g>
          <g id="Grupo_1200845" data-name="Grupo 1200845" transform="translate(7.601 49.124)">
            <g id="Grupo_1200844" data-name="Grupo 1200844">
              <path id="Trazado_1046695" data-name="Trazado 1046695" d="M160.148,203.743H40.119a1.591,1.591,0,0,1,.055-.171H160.1A1.612,1.612,0,0,1,160.148,203.743Z" transform="translate(-40.119 -203.572)" fill="#ffdfe5"/>
            </g>
          </g>
          <g id="Grupo_1200847" data-name="Grupo 1200847" transform="translate(4.435 61.406)">
            <g id="Grupo_1200846" data-name="Grupo 1200846">
              <path id="Trazado_1046696" data-name="Trazado 1046696" d="M156.782,243.8a1.224,1.224,0,0,0,.055.171H29.747c.014-.055.027-.11.041-.171Z" transform="translate(-29.747 -243.801)" fill="#ffdfe5"/>
            </g>
          </g>
          <g id="Grupo_1200850" data-name="Grupo 1200850" transform="translate(2.269 73.689)">
            <g id="Grupo_1200848" data-name="Grupo 1200848">
              <path id="Trazado_1046697" data-name="Trazado 1046697" d="M156.418,284.03a1.261,1.261,0,0,0,.075.171H22.653c.014-.062.02-.117.027-.171Z" transform="translate(-22.653 -284.03)" fill="#ffdfe5"/>
            </g>
            <g id="Grupo_1200849" data-name="Grupo 1200849" transform="translate(137.322)">
              <rect id="Rectángulo_416297" data-name="Rectángulo 416297" width="0.171" height="0.171" fill="#ffdfe5"/>
            </g>
          </g>
          <g id="Grupo_1200852" data-name="Grupo 1200852" transform="translate(0.891 85.971)">
            <g id="Grupo_1200851" data-name="Grupo 1200851">
              <path id="Trazado_1046698" data-name="Trazado 1046698" d="M158.911,324.431H18.141a.7.7,0,0,1,.02-.171h140.66C158.849,324.315,158.877,324.37,158.911,324.431Z" transform="translate(-18.141 -324.26)" fill="#ffdfe5"/>
            </g>
          </g>
          <g id="Grupo_1200854" data-name="Grupo 1200854" transform="translate(0.172 98.254)">
            <g id="Grupo_1200853" data-name="Grupo 1200853">
              <path id="Trazado_1046699" data-name="Trazado 1046699" d="M161.66,364.66H15.784a1.4,1.4,0,0,1,.007-.171H161.619C161.633,364.544,161.647,364.606,161.66,364.66Z" transform="translate(-15.784 -364.489)" fill="#ffdfe5"/>
            </g>
          </g>
          <g id="Grupo_1200856" data-name="Grupo 1200856" transform="translate(0 110.537)">
            <g id="Grupo_1200855" data-name="Grupo 1200855">
              <path id="Trazado_1046700" data-name="Trazado 1046700" d="M163.1,404.89H15.222v-.171H163.086C163.093,404.774,163.093,404.835,163.1,404.89Z" transform="translate(-15.222 -404.719)" fill="#ffdfe5"/>
            </g>
          </g>
          <g id="Grupo_1200858" data-name="Grupo 1200858" transform="translate(0.247 122.812)">
            <g id="Grupo_1200857" data-name="Grupo 1200857">
              <path id="Trazado_1046701" data-name="Trazado 1046701" d="M163.71,444.926a.745.745,0,0,1-.007.171H16.038a1.4,1.4,0,0,1-.007-.171Z" transform="translate(-16.031 -444.926)" fill="#ffdfe5"/>
            </g>
          </g>
        </g>
      </g>
      <g id="Grupo_1200891" data-name="Grupo 1200891" transform="translate(28.884 42.165)">
        <g id="Grupo_1200863" data-name="Grupo 1200863" transform="translate(93.481 35.525)">
          <g id="Grupo_1200861" data-name="Grupo 1200861">
            <path id="Trazado_1046702" data-name="Trazado 1046702" d="M377.5,192.543v23.071a3.428,3.428,0,0,1-3.427,3.427H366.3V190.3l5.353-1.18h2.42A3.428,3.428,0,0,1,377.5,192.543Z" transform="translate(-366.3 -189.116)" fill="#7f6eec"/>
          </g>
          <g id="Grupo_1200862" data-name="Grupo 1200862" transform="translate(1.028)">
            <path id="Trazado_1046703" data-name="Trazado 1046703" d="M373.993,189.116l-1.905,29.925h-.267l-2.152-29.925Z" transform="translate(-369.668 -189.116)" fill="#3c1c87"/>
          </g>
        </g>
        <g id="Grupo_1200866" data-name="Grupo 1200866" transform="translate(1.078 41.473)">
          <g id="Grupo_1200864" data-name="Grupo 1200864">
            <path id="Trazado_1046704" data-name="Trazado 1046704" d="M86.63,231.965c-4.229,2.831-9.447,3.879-14.063,2.069A14.816,14.816,0,0,1,63.694,221.6c-.457-5.7,2.9-11.695,7.67-12.8a8.921,8.921,0,0,1,4.426.162c4.177,1.172,7.626,4.914,9.59,9.4C87.322,222.808,86.481,226.977,86.63,231.965Z" transform="translate(-63.653 -208.596)" fill="#ffbcc9"/>
          </g>
          <g id="Grupo_1200865" data-name="Grupo 1200865" transform="translate(2.082 5.651)">
            <path id="Trazado_1046705" data-name="Trazado 1046705" d="M88.3,244.2a.344.344,0,0,1-.327-.238,28.816,28.816,0,0,0-6.561-10.841c-2.122-2.228-6.314-5.875-10.547-5.268a.348.348,0,0,1-.388-.291.343.343,0,0,1,.291-.387c4.54-.649,8.928,3.151,11.141,5.474a29.527,29.527,0,0,1,6.717,11.106.343.343,0,0,1-.222.431A.38.38,0,0,1,88.3,244.2Z" transform="translate(-70.474 -227.105)" fill="#3c1c87"/>
          </g>
        </g>
        <g id="Grupo_1200870" data-name="Grupo 1200870" transform="translate(0 90.152)">
          <g id="Grupo_1200867" data-name="Grupo 1200867" transform="translate(0 3.737)">
            <path id="Trazado_1046706" data-name="Trazado 1046706" d="M115.854,380.278l8.246,7.737-6.02,23.7H60.121a18.473,18.473,0,0,1,4.058-8.431c5.833-6.3,34.764-6.066,42.461-8.4,4.243-1.282,5.017-7.238,4.853-12.33Z" transform="translate(-60.121 -380.278)" fill="#ffbcc9"/>
          </g>
          <g id="Grupo_1200868" data-name="Grupo 1200868" transform="translate(58.137 3.217)">
            <path id="Trazado_1046707" data-name="Trazado 1046707" d="M308.64,410.532h-58.1V383.178l4.2-4.6L257.1,381c-.117,5.017.72,10.74,4.866,11.995a51.837,51.837,0,0,0,8.225,1.323c.117.014.226.027.343.034,5.531.59,12.44,1.131,18.657,2.043.117.014.233.034.343.048,6.738,1.015,12.6,2.481,14.894,4.956A19.053,19.053,0,0,1,308.64,410.532Z" transform="translate(-250.538 -378.574)" fill="#7f6eec"/>
          </g>
          <g id="Grupo_1200869" data-name="Grupo 1200869" transform="translate(50.793)">
            <path id="Trazado_1046708" data-name="Trazado 1046708" d="M240.864,368.134a50.389,50.389,0,0,0-.473,5.552,12.138,12.138,0,0,1-6.566,2.173,1.583,1.583,0,0,1-.178.007c-.151,0-.3,0-.452-.007a13.107,13.107,0,0,1-6.134-1.81,51.378,51.378,0,0,0-.576-6.011l7.163.089h.178l4.366.055C239.055,368.182,239.96,368.161,240.864,368.134Z" transform="translate(-226.484 -368.038)" fill="#3c1c87"/>
          </g>
        </g>
        <g id="Grupo_1200871" data-name="Grupo 1200871" transform="translate(18.75)">
          <path id="Trazado_1046709" data-name="Trazado 1046709" d="M162.277,76.455l-1.3-3.695H142.028a20.491,20.491,0,0,0-20.494,20.487v50.021a20.491,20.491,0,0,0,20.494,20.487h18.945l1.3-3.467Z" transform="translate(-121.534 -72.76)" fill="#ffbcc9"/>
        </g>
        <g id="Grupo_1200872" data-name="Grupo 1200872" transform="translate(58.189)">
          <path id="Trazado_1046710" data-name="Trazado 1046710" d="M288.975,93.247v50.021a20.491,20.491,0,0,1-20.494,20.487H250.708v-91h17.773a20.438,20.438,0,0,1,9.939,2.563c.171.1.343.192.507.295A20.475,20.475,0,0,1,288.975,93.247Z" transform="translate(-250.708 -72.76)" fill="#7f6eec"/>
        </g>
        <g id="Grupo_1200873" data-name="Grupo 1200873" transform="translate(32.753 41.298)">
          <path id="Trazado_1046711" data-name="Trazado 1046711" d="M176.846,212.748a4.725,4.725,0,1,1-4.725-4.725A4.725,4.725,0,0,1,176.846,212.748Z" transform="translate(-167.396 -208.023)" fill="#3c1c87"/>
        </g>
        <g id="Grupo_1200874" data-name="Grupo 1200874" transform="translate(49.279 45.254)">
          <path id="Trazado_1046712" data-name="Trazado 1046712" d="M230.61,232.941a.261.261,0,0,1-.146-.046,6.292,6.292,0,0,0-5.157-.887c-.113.03-.226.064-.339.1a3.432,3.432,0,0,1-1.582.211,2.416,2.416,0,0,1-1.8-2,5.988,5.988,0,0,1,.257-2.627,42.663,42.663,0,0,1,2.322-6.561.257.257,0,0,1,.469.211,42.116,42.116,0,0,0-2.294,6.481,5.552,5.552,0,0,0-.249,2.4,1.919,1.919,0,0,0,1.382,1.585,3,3,0,0,0,1.347-.2c.118-.035.235-.07.351-.1a6.808,6.808,0,0,1,5.584.96.257.257,0,0,1-.146.469Z" transform="translate(-221.525 -220.983)" fill="#3c1c87"/>
        </g>
        <g id="Grupo_1200875" data-name="Grupo 1200875" transform="translate(28.59 28.849)">
          <path id="Trazado_1046713" data-name="Trazado 1046713" d="M154.1,170.612a.343.343,0,0,1-.277-.544,6.857,6.857,0,0,1,9.2-1.77.343.343,0,0,1-.365.58,6.171,6.171,0,0,0-8.276,1.592A.341.341,0,0,1,154.1,170.612Z" transform="translate(-153.762 -167.248)" fill="#3c1c87"/>
        </g>
        <g id="Grupo_1200890" data-name="Grupo 1200890" transform="translate(49.529 2.564)">
          <g id="Grupo_1200887" data-name="Grupo 1200887">
            <g id="Grupo_1200876" data-name="Grupo 1200876" transform="translate(8.658 31.967)">
              <path id="Trazado_1046714" data-name="Trazado 1046714" d="M250.7,208.279a7.082,7.082,0,0,1,5.617-.83,4.308,4.308,0,0,0,1.822.305,2.17,2.17,0,0,0,1.6-1.8,5.778,5.778,0,0,0-.254-2.524c-.593-2.241-1.964-4.213-2.916-6.327,0,0-5.4-11.246-5.871-11.246Z" transform="translate(-250.702 -185.86)" fill="#3c1c87"/>
            </g>
            <g id="Grupo_1200877" data-name="Grupo 1200877" transform="translate(17.977 28.1)">
              <circle id="Elipse_14193" data-name="Elipse 14193" cx="9.567" cy="9.567" r="9.567" transform="translate(0 17.677) rotate(-67.5)" fill="#ffdfe5"/>
            </g>
            <g id="Grupo_1200878" data-name="Grupo 1200878" transform="translate(0 57.95)">
              <path id="Trazado_1046715" data-name="Trazado 1046715" d="M230.788,273.437a20.493,20.493,0,0,1-8.239-1.707.343.343,0,0,1,.277-.627,20.051,20.051,0,0,0,16.182-.11.343.343,0,0,1,.285.623A20.535,20.535,0,0,1,230.788,273.437Z" transform="translate(-222.344 -270.961)" fill="#3c1c87"/>
            </g>
            <g id="Grupo_1200885" data-name="Grupo 1200885" transform="translate(25.837)">
              <g id="Grupo_1200880" data-name="Grupo 1200880">
                <g id="Grupo_1200879" data-name="Grupo 1200879">
                  <path id="Trazado_1046716" data-name="Trazado 1046716" d="M328.057,107.806v.343c-5.038-.014-10.11-.185-15.12-.521a17.853,17.853,0,0,1-4.9-.8,1.626,1.626,0,0,1-.9-.624,1.745,1.745,0,0,1-.165-.891c.021-7.163.041-14.572,2.056-21.611a2.124,2.124,0,0,1,.555-1.062,2.158,2.158,0,0,1,1.008-.411,65.068,65.068,0,0,1,6.916-1.076c.171.1.343.192.507.295a64.678,64.678,0,0,0-7.348,1.117,1.348,1.348,0,0,0-1.309,1.234c-2,6.991-2.022,14.373-2.043,21.515a1.491,1.491,0,0,0,.117.72,1.34,1.34,0,0,0,.727.473,17.839,17.839,0,0,0,4.8.781C317.968,107.62,323.026,107.792,328.057,107.806Z" transform="translate(-306.967 -81.157)" fill="#ffdfe5"/>
                </g>
              </g>
              <g id="Grupo_1200882" data-name="Grupo 1200882" transform="translate(8.954 21.351)">
                <g id="Grupo_1200881" data-name="Grupo 1200881">
                  <path id="Trazado_1046717" data-name="Trazado 1046717" d="M338.86,152.371a1.283,1.283,0,1,1-1.283-1.283A1.283,1.283,0,0,1,338.86,152.371Z" transform="translate(-336.294 -151.088)" fill="#ffdfe5"/>
                </g>
              </g>
              <g id="Grupo_1200884" data-name="Grupo 1200884" transform="translate(16.041 21.351)">
                <g id="Grupo_1200883" data-name="Grupo 1200883">
                  <path id="Trazado_1046718" data-name="Trazado 1046718" d="M362.074,152.371a1.283,1.283,0,1,1-1.283-1.283A1.283,1.283,0,0,1,362.074,152.371Z" transform="translate(-359.508 -151.088)" fill="#ffdfe5"/>
                </g>
              </g>
            </g>
            <g id="Grupo_1200886" data-name="Grupo 1200886" transform="translate(8.719 72.396)">
              <path id="Trazado_1046719" data-name="Trazado 1046719" d="M266.472,334.137a.171.171,0,0,1-.17-.152l-1.538-13.6a1.887,1.887,0,0,0-1.855-1.664l-11.837-.1a.171.171,0,0,1,0-.342h0l11.837.1a2.231,2.231,0,0,1,2.193,1.967l1.538,13.6a.172.172,0,0,1-.151.19Z" transform="translate(-250.901 -318.278)" fill="#ffdfe5"/>
            </g>
          </g>
          <g id="Grupo_1200889" data-name="Grupo 1200889" transform="translate(27.831 106.554)">
            <g id="Grupo_1200888" data-name="Grupo 1200888">
              <path id="Trazado_1046720" data-name="Trazado 1046720" d="M333.411,443.28a2.93,2.93,0,0,1-2.858,2.975c-.829.014-1.652.02-2.461.02-4.352,0-8.4-.226-11.865-.466a2.918,2.918,0,0,1-2.728-2.893c.007-4.243.151-8.526.432-12.762.117.014.226.027.343.034-.281,4.222-.425,8.5-.432,12.728a2.584,2.584,0,0,0,2.406,2.557c4.113.274,9.02.548,14.3.439a2.591,2.591,0,0,0,2.523-2.625c-.027-1.81-.048-3.633-.062-5.449-.02-1.844-.041-3.736-.075-5.606.117.014.233.034.343.048.041,1.858.055,3.722.075,5.552S333.384,441.477,333.411,443.28Z" transform="translate(-313.5 -430.154)" fill="#ffdfe5"/>
            </g>
          </g>
        </g>
      </g>
      <g id="Grupo_1200902" data-name="Grupo 1200902" transform="translate(22.9 113.563)">
        <g id="Grupo_1200894" data-name="Grupo 1200894" transform="translate(108.387)">
          <g id="Grupo_1200892" data-name="Grupo 1200892">
            <rect id="Rectángulo_416298" data-name="Rectángulo 416298" width="16.333" height="4.2" fill="#ffdfe5"/>
          </g>
          <g id="Grupo_1200893" data-name="Grupo 1200893" transform="translate(0 7)">
            <rect id="Rectángulo_416299" data-name="Rectángulo 416299" width="16.333" height="4.2" fill="#ffdfe5"/>
          </g>
        </g>
        <g id="Grupo_1200895" data-name="Grupo 1200895" transform="translate(0 19.002)">
          <circle id="Elipse_14194" data-name="Elipse 14194" cx="6.533" cy="6.533" r="6.533" transform="translate(0 11.116) rotate(-58.286)" fill="#ffdfe5"/>
        </g>
        <g id="Grupo_1200898" data-name="Grupo 1200898" transform="translate(112.338 16.566)">
          <g id="Grupo_1200896" data-name="Grupo 1200896">
            <path id="Trazado_1046721" data-name="Trazado 1046721" d="M408.477,369.47l3.822-8.6,4.4,8.6Z" transform="translate(-408.464 -360.87)" fill="#924ca5"/>
          </g>
          <g id="Grupo_1200897" data-name="Grupo 1200897" transform="translate(0 11.467)">
            <path id="Trazado_1046722" data-name="Trazado 1046722" d="M408.477,407.027l3.822-8.6,4.4,8.6Z" transform="translate(-408.464 -398.427)" fill="#924ca5"/>
          </g>
        </g>
        <g id="Grupo_1200901" data-name="Grupo 1200901" transform="translate(1.187 4.751)">
          <g id="Grupo_1200899" data-name="Grupo 1200899" transform="translate(11.467)">
            <path id="Trazado_1046723" data-name="Trazado 1046723" d="M81.966,322.185l8.6,3.822-8.6,4.4Z" transform="translate(-81.966 -322.172)" fill="#7f6eec"/>
          </g>
          <g id="Grupo_1200900" data-name="Grupo 1200900">
            <path id="Trazado_1046724" data-name="Trazado 1046724" d="M44.409,322.185l8.6,3.822-8.6,4.4Z" transform="translate(-44.409 -322.172)" fill="#7f6eec"/>
          </g>
        </g>
      </g>
      <g id="Grupo_1200903" data-name="Grupo 1200903" transform="translate(35.059 40.902)">
        <path id="Trazado_1046725" data-name="Trazado 1046725" d="M131.189,170.312a50.844,50.844,0,1,1,35.953-14.892A50.512,50.512,0,0,1,131.189,170.312Zm0-101.5a50.654,50.654,0,1,0,50.655,50.655A50.712,50.712,0,0,0,131.189,68.813Z" transform="translate(-80.345 -68.623)" fill="#ffdfe5"/>
      </g>
      <g id="Grupo_1200904" data-name="Grupo 1200904" transform="translate(29.916 35.759)">
        <path id="Trazado_1046726" data-name="Trazado 1046726" d="M119.5,163.752h-.016q-.336,0-.671,0a.1.1,0,0,1,0-.21h0q.333,0,.668,0a.112.112,0,0,1,.113.1A.1.1,0,0,1,119.5,163.752Zm.685,0a.1.1,0,0,1,0-.21q.343,0,.684-.013h0a.1.1,0,0,1,0,.209q-.343.008-.686.013Zm-2.057-.011h0q-.344-.008-.687-.021a.105.105,0,0,1-.1-.109.1.1,0,0,1,.109-.1q.341.012.684.021a.1.1,0,0,1,0,.21Zm3.425-.022a.1.1,0,0,1,0-.21q.343-.012.684-.029a.106.106,0,0,1,.11.1.1.1,0,0,1-.1.11c-.229.011-.457.021-.687.029Zm-4.8-.027h-.005q-.343-.017-.686-.037a.1.1,0,0,1-.1-.111.116.116,0,0,1,.111-.1q.341.021.684.037a.1.1,0,0,1-.005.21Zm6.166-.04a.1.1,0,0,1-.006-.21q.342-.021.683-.045a.108.108,0,0,1,.112.1.1.1,0,0,1-.1.112q-.342.025-.685.046Zm-7.535-.043h-.008q-.343-.025-.685-.054a.1.1,0,0,1-.1-.114.1.1,0,0,1,.114-.1q.341.029.682.054a.105.105,0,0,1-.008.21Zm8.9-.056a.105.105,0,0,1-.009-.21q.341-.029.682-.062a.108.108,0,0,1,.115.094.1.1,0,0,1-.095.114q-.341.034-.684.063Zm-10.269-.06h-.01c-.229-.023-.456-.046-.684-.071a.1.1,0,0,1-.093-.116.1.1,0,0,1,.116-.093q.34.037.681.07a.106.106,0,0,1,.094.115A.1.1,0,0,1,114.026,163.488Zm11.634-.073a.1.1,0,0,1-.012-.209c.227-.026.454-.052.68-.079a.1.1,0,0,1,.117.092.1.1,0,0,1-.091.117q-.34.041-.682.079Zm-13-.076h-.013q-.341-.041-.681-.087a.105.105,0,0,1-.09-.118.107.107,0,0,1,.118-.09q.338.045.679.087a.1.1,0,0,1-.013.209Zm14.359-.091a.1.1,0,0,1-.014-.209q.34-.047.678-.1a.1.1,0,0,1,.119.089.105.105,0,0,1-.089.119q-.339.049-.68.1Zm-15.718-.092h-.015c-.227-.033-.453-.068-.68-.1a.1.1,0,0,1-.086-.12.1.1,0,0,1,.12-.087c.225.037.45.07.676.1a.1.1,0,0,1-.015.209Zm17.075-.107a.1.1,0,0,1-.017-.208q.338-.055.676-.112a.1.1,0,0,1,.121.085.1.1,0,0,1-.086.121q-.338.058-.677.112Zm-18.429-.108-.018,0q-.339-.058-.677-.121a.105.105,0,0,1,.038-.207q.336.063.674.121a.105.105,0,0,1,.086.122A.1.1,0,0,1,109.949,162.941Zm19.781-.126a.105.105,0,0,1-.02-.208c.224-.042.449-.084.672-.128a.1.1,0,0,1,.123.083.1.1,0,0,1-.083.123q-.337.066-.674.13Zm-21.129-.123-.02,0c-.225-.044-.45-.09-.674-.137a.105.105,0,0,1-.081-.125.107.107,0,0,1,.125-.081q.335.071.671.137a.1.1,0,0,1-.02.208Zm22.474-.143a.1.1,0,0,1-.022-.208q.335-.071.669-.146a.108.108,0,0,1,.125.08.105.105,0,0,1-.08.125q-.335.075-.671.146Zm-23.817-.139-.023,0c-.224-.05-.447-.1-.67-.154a.1.1,0,0,1-.078-.126.1.1,0,0,1,.127-.078q.332.08.667.153a.105.105,0,0,1-.023.208Zm25.155-.161a.1.1,0,0,1-.024-.207q.333-.08.666-.162a.1.1,0,0,1,.127.077.105.105,0,0,1-.076.128q-.333.083-.667.162A.116.116,0,0,1,132.414,162.249Zm-26.489-.154a.1.1,0,0,1-.025,0q-.334-.083-.666-.171a.1.1,0,0,1-.074-.128.1.1,0,0,1,.128-.075c.22.059.441.115.662.17a.105.105,0,0,1,.077.128A.1.1,0,0,1,105.924,162.094Zm27.82-.178a.1.1,0,0,1-.027-.206q.332-.088.661-.179a.107.107,0,0,1,.129.074.1.1,0,0,1-.073.129q-.331.091-.663.179A.1.1,0,0,1,133.744,161.917Zm-29.147-.17a.148.148,0,0,1-.028,0q-.332-.091-.661-.187a.105.105,0,0,1-.071-.13.109.109,0,0,1,.13-.071c.219.064.438.126.659.186a.1.1,0,0,1-.028.206Zm30.468-.2a.1.1,0,0,1-.029-.205q.328-.1.656-.195a.105.105,0,0,1,.061.2q-.328.1-.659.194A.106.106,0,0,1,135.066,161.551Zm-31.786-.186a.114.114,0,0,1-.03,0q-.331-.1-.659-.2a.1.1,0,1,1,.063-.2c.218.07.437.136.656.2a.105.105,0,0,1-.03.206Zm33.1-.212a.1.1,0,0,1-.031-.2q.327-.1.651-.211a.105.105,0,0,1,.066.2q-.327.108-.654.211A.108.108,0,0,1,136.379,161.153Zm-34.412-.2a.112.112,0,0,1-.033,0q-.328-.109-.655-.221a.105.105,0,0,1,.069-.2q.324.113.651.219a.105.105,0,0,1,.067.133A.1.1,0,0,1,101.967,160.95Zm35.714-.227a.1.1,0,0,1-.034-.2c.215-.074.431-.15.645-.226a.1.1,0,1,1,.071.2q-.324.117-.648.227A.092.092,0,0,1,137.681,160.723Zm-37.016-.221a.108.108,0,0,1-.035-.006q-.325-.116-.648-.236a.105.105,0,0,1-.062-.135.107.107,0,0,1,.135-.062q.322.12.645.236a.1.1,0,0,1,.064.134A.106.106,0,0,1,100.665,160.5Zm38.308-.242a.105.105,0,0,1-.037-.2q.321-.119.64-.242a.1.1,0,1,1,.075.2c-.213.082-.427.163-.642.243A.1.1,0,0,1,138.972,160.261Zm-39.6-.238a.1.1,0,0,1-.038-.007q-.321-.124-.641-.253a.1.1,0,1,1,.078-.194q.319.126.639.251a.105.105,0,0,1-.038.2Zm40.877-.255a.1.1,0,0,1-.039-.2q.318-.128.634-.259a.105.105,0,0,1,.081.194q-.317.131-.636.259A.1.1,0,0,1,140.251,159.768ZM98.1,159.511a.1.1,0,0,1-.04-.008q-.319-.132-.635-.268a.1.1,0,0,1-.054-.138.107.107,0,0,1,.138-.055q.315.136.632.267a.105.105,0,0,1-.04.2Zm43.419-.268a.1.1,0,0,1-.1-.064.105.105,0,0,1,.054-.138c.209-.09.417-.181.625-.273a.1.1,0,0,1,.139.053.105.105,0,0,1-.053.139q-.312.139-.627.274A.111.111,0,0,1,141.516,159.243Zm-44.683-.274a.108.108,0,0,1-.043-.009q-.315-.14-.628-.283a.1.1,0,0,1-.052-.139.1.1,0,0,1,.139-.052c.208.094.416.189.626.282a.1.1,0,0,1-.043.2Zm45.932-.28a.1.1,0,0,1-.044-.2q.31-.143.618-.289a.1.1,0,0,1,.14.05.1.1,0,0,1-.05.14q-.309.146-.62.289A.1.1,0,0,1,142.764,158.689ZM95.583,158.4a.1.1,0,0,1-.045-.01q-.311-.148-.621-.3a.1.1,0,0,1-.048-.141.107.107,0,0,1,.14-.048q.308.151.618.3a.105.105,0,0,1-.045.2ZM144,158.1a.1.1,0,0,1-.094-.059.1.1,0,0,1,.048-.141q.306-.149.611-.3a.1.1,0,1,1,.094.187q-.305.154-.613.3A.1.1,0,0,1,144,158.1Zm-49.651-.312a.1.1,0,0,1-.047-.011q-.307-.155-.613-.314a.1.1,0,0,1,.1-.186c.2.106.406.209.611.312a.105.105,0,0,1,.046.141A.1.1,0,0,1,94.348,157.791Zm50.872-.3a.1.1,0,0,1-.049-.2c.2-.106.4-.211.6-.319a.1.1,0,0,1,.1.185q-.3.161-.605.32A.1.1,0,0,1,145.22,157.488Zm-52.091-.332a.108.108,0,0,1-.05-.013q-.3-.163-.6-.329a.1.1,0,0,1-.042-.142.1.1,0,0,1,.143-.041q.3.164.6.328a.1.1,0,0,1-.049.2Zm53.3-.314a.1.1,0,0,1-.051-.2q.3-.165.6-.333a.1.1,0,1,1,.1.182q-.3.169-.6.335A.11.11,0,0,1,146.425,156.842Zm-54.5-.35a.1.1,0,0,1-.052-.014q-.3-.169-.6-.343a.105.105,0,0,1-.038-.144.1.1,0,0,1,.143-.037c.2.114.4.229.594.342a.1.1,0,0,1-.052.2Zm55.689-.325a.106.106,0,0,1-.091-.052.1.1,0,0,1,.038-.143q.295-.173.587-.348a.105.105,0,0,1,.108.181q-.294.176-.59.348A.1.1,0,0,1,147.615,156.167ZM90.739,155.8a.1.1,0,0,1-.054-.015q-.295-.177-.587-.357a.105.105,0,0,1,.11-.179q.292.18.586.357a.1.1,0,0,1,.036.143A.1.1,0,0,1,90.739,155.8Zm58.049-.336a.1.1,0,0,1-.055-.194q.291-.18.579-.363a.105.105,0,0,1,.112.178q-.289.183-.581.363A.1.1,0,0,1,148.788,155.464Zm-59.218-.386a.1.1,0,0,1-.056-.016q-.291-.185-.579-.372a.105.105,0,0,1,.115-.177q.287.187.576.371a.105.105,0,0,1-.056.194Zm60.374-.346a.1.1,0,0,1-.058-.192q.287-.187.57-.377a.105.105,0,0,1,.117.175q-.285.191-.572.377A.106.106,0,0,1,149.944,154.731Zm-61.524-.4a.1.1,0,0,1-.059-.018q-.285-.191-.569-.386a.1.1,0,1,1,.119-.173q.283.193.568.385a.1.1,0,0,1-.059.192Zm62.661-.356a.105.105,0,0,1-.06-.192q.281-.192.56-.39a.1.1,0,1,1,.121.171q-.281.2-.563.392A.1.1,0,0,1,151.081,153.971Zm-63.793-.422a.1.1,0,0,1-.06-.019q-.281-.2-.56-.4a.1.1,0,0,1,.123-.17q.277.2.557.4a.1.1,0,0,1-.06.191Zm64.912-.368a.1.1,0,0,1-.061-.19c.184-.132.368-.267.551-.4a.1.1,0,1,1,.125.168q-.275.2-.553.405A.107.107,0,0,1,152.2,153.181Zm-66.023-.438a.108.108,0,0,1-.063-.021c-.184-.136-.367-.275-.549-.414a.1.1,0,0,1-.02-.147.1.1,0,0,1,.147-.02q.272.208.547.412a.1.1,0,0,1-.063.189Zm67.123-.378a.1.1,0,0,1-.063-.188q.272-.207.541-.417a.1.1,0,1,1,.129.165q-.271.211-.543.419A.1.1,0,0,1,153.3,152.365Zm-68.214-.454a.1.1,0,0,1-.064-.022q-.271-.211-.539-.427a.105.105,0,0,1,.132-.164q.267.215.536.426a.105.105,0,0,1,.018.147A.107.107,0,0,1,85.086,151.911Zm69.294-.389a.1.1,0,0,1-.066-.187q.267-.213.531-.43a.105.105,0,0,1,.133.163q-.265.217-.533.432A.105.105,0,0,1,154.38,151.522Zm-70.365-.47a.1.1,0,0,1-.067-.024c-.177-.146-.353-.292-.528-.44a.1.1,0,1,1,.135-.16q.262.22.527.439a.1.1,0,0,1-.067.185Zm71.424-.4a.1.1,0,0,1-.08-.037.106.106,0,0,1,.013-.148q.262-.219.521-.443a.1.1,0,1,1,.137.158q-.26.224-.523.445A.1.1,0,0,1,155.439,150.654Zm-72.472-.485a.1.1,0,0,1-.069-.026q-.26-.224-.517-.452a.105.105,0,0,1-.009-.148.1.1,0,0,1,.148-.009c.171.152.343.3.515.451a.1.1,0,0,1-.069.184Zm73.51-.41a.1.1,0,0,1-.07-.183q.256-.228.51-.456a.105.105,0,0,1,.141.156c-.17.153-.34.306-.511.458A.1.1,0,0,1,156.477,149.758Zm-74.537-.5a.106.106,0,0,1-.071-.027q-.254-.232-.506-.464a.105.105,0,0,1,.143-.154q.251.233.5.463a.1.1,0,0,1-.071.183Zm75.553-.419a.1.1,0,0,1-.072-.182q.251-.234.5-.469a.107.107,0,0,1,.149,0,.105.105,0,0,1,0,.148q-.249.237-.5.47A.1.1,0,0,1,157.493,148.839Zm-76.557-.514a.1.1,0,0,1-.072-.029q-.249-.237-.494-.477a.1.1,0,1,1,.146-.151q.245.239.493.475a.1.1,0,0,1,0,.148A.106.106,0,0,1,80.936,148.325Zm77.55-.431a.1.1,0,0,1-.075-.032.1.1,0,0,1,0-.148q.245-.239.487-.481a.105.105,0,1,1,.148.149q-.243.242-.489.482A.1.1,0,0,1,158.485,147.894Zm-78.531-.528a.107.107,0,0,1-.074-.03q-.243-.243-.482-.489a.1.1,0,0,1,.151-.146c.159.163.319.325.48.486a.106.106,0,0,1,0,.149A.1.1,0,0,1,79.955,147.366Zm79.5-.441a.1.1,0,0,1-.075-.178q.24-.245.475-.492a.107.107,0,0,1,.148,0,.1.1,0,0,1,0,.148q-.236.248-.477.494A.1.1,0,0,1,159.456,146.925ZM79,146.384a.1.1,0,0,1-.076-.032q-.237-.249-.47-.5a.1.1,0,1,1,.154-.142q.232.251.468.5a.105.105,0,0,1,0,.148A.109.109,0,0,1,79,146.384Zm81.4-.451a.1.1,0,0,1-.077-.176q.233-.251.463-.5a.1.1,0,1,1,.155.141q-.231.255-.465.506A.107.107,0,0,1,160.4,145.933Zm-82.338-.553a.1.1,0,0,1-.078-.035c-.154-.169-.307-.34-.458-.511a.105.105,0,0,1,.009-.148.1.1,0,0,1,.148.009q.226.256.456.51a.1.1,0,0,1-.078.176Zm83.261-.463a.1.1,0,0,1-.07-.026.105.105,0,0,1-.009-.148q.227-.256.451-.515a.105.105,0,0,1,.158.138c-.15.173-.3.345-.452.517A.105.105,0,0,1,161.325,144.917Zm-84.168-.564a.106.106,0,0,1-.08-.037q-.224-.26-.445-.522a.1.1,0,0,1,.161-.135c.147.175.295.347.444.521a.1.1,0,0,1-.08.173Zm85.065-.473a.1.1,0,0,1-.08-.172q.221-.261.438-.526a.105.105,0,1,1,.162.134c-.146.176-.292.353-.44.528A.1.1,0,0,1,162.222,143.88Zm-85.947-.575a.105.105,0,0,1-.081-.038c-.145-.177-.289-.354-.432-.534a.1.1,0,0,1,.164-.131q.213.267.43.531a.106.106,0,0,1-.014.148A.107.107,0,0,1,76.275,143.305Zm86.819-.485a.107.107,0,0,1-.066-.023.1.1,0,0,1-.016-.147q.215-.268.426-.537a.105.105,0,1,1,.165.129q-.212.27-.427.539A.1.1,0,0,1,163.094,142.82Zm-87.675-.585a.105.105,0,0,1-.083-.04c-.141-.181-.28-.361-.419-.544a.1.1,0,0,1,.167-.127q.208.272.418.541a.105.105,0,0,1-.018.147A.1.1,0,0,1,75.419,142.235Zm88.521-.5a.1.1,0,0,1-.083-.168q.208-.273.412-.547a.1.1,0,0,1,.168.125q-.205.275-.414.549A.1.1,0,0,1,163.94,141.739Zm-89.351-.593a.105.105,0,0,1-.085-.042q-.2-.276-.405-.554a.1.1,0,0,1,.17-.123q.2.276.4.551a.105.105,0,0,1-.085.168Zm90.17-.508a.1.1,0,0,1-.062-.02.1.1,0,0,1-.023-.147q.2-.276.4-.557a.105.105,0,0,1,.172.122q-.2.28-.4.559A.1.1,0,0,1,164.759,140.639Zm-90.973-.6a.105.105,0,0,1-.086-.044q-.2-.28-.392-.563a.1.1,0,0,1,.173-.119c.129.187.259.375.39.561a.105.105,0,0,1-.086.166Zm91.765-.521a.1.1,0,0,1-.06-.019.105.105,0,0,1-.027-.146q.194-.28.385-.566a.105.105,0,0,1,.175.117c-.128.19-.257.381-.387.569A.106.106,0,0,1,165.551,139.517Zm-92.54-.608a.1.1,0,0,1-.087-.046q-.191-.286-.378-.573a.1.1,0,1,1,.176-.115q.187.288.376.57a.1.1,0,0,1-.087.163Zm93.305-.532a.1.1,0,0,1-.088-.162q.187-.288.371-.576a.105.105,0,0,1,.177.113c-.123.193-.247.386-.372.578A.1.1,0,0,1,166.316,138.376Zm-94.052-.614a.105.105,0,0,1-.089-.048q-.184-.29-.364-.581a.1.1,0,1,1,.179-.11q.18.292.362.579a.106.106,0,0,1-.032.146A.109.109,0,0,1,72.264,137.762Zm94.789-.543A.107.107,0,0,1,167,137.2a.105.105,0,0,1-.034-.145q.18-.292.357-.586a.108.108,0,0,1,.144-.037.105.105,0,0,1,.036.144c-.118.2-.238.392-.358.588A.1.1,0,0,1,167.053,137.218ZM71.545,136.6a.1.1,0,0,1-.09-.051q-.176-.293-.349-.589a.1.1,0,0,1,.038-.143.1.1,0,0,1,.144.037c.115.2.231.392.348.587a.1.1,0,0,1-.036.143A.1.1,0,0,1,71.545,136.6Zm96.216-.558a.1.1,0,0,1-.053-.014.1.1,0,0,1-.038-.143q.173-.295.342-.594a.105.105,0,0,1,.183.1q-.17.3-.344.6A.105.105,0,0,1,167.761,136.04Zm-96.906-.623a.1.1,0,0,1-.091-.053q-.169-.3-.335-.6a.106.106,0,0,1,.042-.143.1.1,0,0,1,.143.041c.11.2.221.4.333.6a.1.1,0,0,1-.04.143A.1.1,0,0,1,70.855,135.416Zm97.585-.571a.105.105,0,0,1-.092-.156q.165-.3.328-.6a.1.1,0,1,1,.185.1c-.108.2-.218.4-.329.6A.105.105,0,0,1,168.44,134.845Zm-98.245-.626a.105.105,0,0,1-.093-.055c-.108-.2-.214-.4-.32-.606a.1.1,0,1,1,.186-.1q.158.3.319.6a.1.1,0,0,1-.043.142A.109.109,0,0,1,70.195,134.219Zm98.894-.585a.1.1,0,0,1-.049-.012.1.1,0,0,1-.045-.141q.158-.3.313-.611a.105.105,0,0,1,.187.1c-.1.2-.209.41-.314.612A.1.1,0,0,1,169.089,133.634Zm-99.525-.628a.1.1,0,0,1-.094-.058q-.153-.305-.3-.612a.105.105,0,0,1,.048-.141.107.107,0,0,1,.14.048c.1.2.2.408.3.611a.1.1,0,0,1-.046.141A.108.108,0,0,1,69.564,133.006Zm100.144-.6a.107.107,0,0,1-.046-.01.105.105,0,0,1-.048-.141q.151-.308.3-.618a.1.1,0,0,1,.14-.05.1.1,0,0,1,.05.139c-.1.208-.2.414-.3.621A.105.105,0,0,1,169.709,132.407Zm-100.745-.629a.1.1,0,0,1-.095-.06q-.147-.308-.289-.621a.1.1,0,0,1,.052-.139.1.1,0,0,1,.139.052q.142.311.288.618a.105.105,0,0,1-.05.14A.1.1,0,0,1,68.964,131.778Zm101.334-.613a.1.1,0,0,1-.044-.01.1.1,0,0,1-.052-.139q.143-.312.283-.626a.1.1,0,1,1,.192.085q-.14.315-.283.627A.106.106,0,0,1,170.3,131.165Zm-101.9-.628a.1.1,0,0,1-.1-.062q-.139-.313-.274-.628a.105.105,0,0,1,.193-.083c.09.208.181.417.273.625a.1.1,0,0,1-.053.139A.1.1,0,0,1,68.394,130.537Zm102.464-.629a.109.109,0,0,1-.041-.008.106.106,0,0,1-.055-.138q.136-.316.267-.632a.1.1,0,1,1,.194.08c-.088.213-.178.423-.268.635A.1.1,0,0,1,170.857,129.908Zm-103-.626a.1.1,0,0,1-.1-.065c-.088-.21-.173-.422-.258-.633a.1.1,0,0,1,.058-.136.1.1,0,0,1,.136.058q.127.316.258.632a.105.105,0,0,1-.056.137A.107.107,0,0,1,67.855,129.282Zm103.53-.645a.1.1,0,0,1-.039-.008.1.1,0,0,1-.059-.136q.127-.319.251-.639a.107.107,0,0,1,.136-.06.105.105,0,0,1,.06.136c-.083.214-.167.428-.252.641A.1.1,0,0,1,171.384,128.637Zm-104.039-.625a.106.106,0,0,1-.1-.067c-.082-.214-.164-.427-.244-.643a.105.105,0,0,1,.062-.135.107.107,0,0,1,.135.062q.12.321.243.64a.1.1,0,0,1-.06.136A.1.1,0,0,1,67.345,128.012Zm104.535-.659a.118.118,0,0,1-.037-.006.105.105,0,0,1-.062-.135q.12-.321.235-.645a.107.107,0,0,1,.135-.064.1.1,0,0,1,.063.134c-.078.216-.156.433-.237.648A.105.105,0,0,1,171.88,127.353Zm-105.014-.627a.1.1,0,0,1-.1-.07c-.077-.215-.153-.432-.228-.648a.105.105,0,0,1,.2-.069q.111.324.227.646a.1.1,0,0,1-.063.134A.1.1,0,0,1,66.866,126.726Zm105.478-.669a.1.1,0,0,1-.034-.005.1.1,0,0,1-.065-.133q.112-.326.22-.652a.105.105,0,1,1,.2.066q-.108.327-.22.653A.1.1,0,0,1,172.344,126.057ZM66.42,125.429a.1.1,0,0,1-.1-.072c-.072-.217-.142-.434-.212-.654a.1.1,0,0,1,.068-.132.1.1,0,0,1,.132.068q.1.327.211.651a.1.1,0,0,1-.1.138Zm106.357-.679a.1.1,0,0,1-.031,0,.1.1,0,0,1-.069-.132q.1-.328.2-.657a.1.1,0,1,1,.2.061c-.067.221-.134.44-.2.66A.1.1,0,0,1,172.776,124.75Zm-106.771-.628a.1.1,0,0,1-.1-.075c-.067-.219-.132-.439-.2-.658a.105.105,0,0,1,.2-.059q.1.329.195.656a.105.105,0,0,1-.07.131A.107.107,0,0,1,66.005,124.122Zm107.169-.688a.11.11,0,0,1-.029,0,.1.1,0,0,1-.071-.13q.095-.329.186-.659a.109.109,0,0,1,.129-.073.106.106,0,0,1,.073.13c-.061.221-.123.441-.187.661A.1.1,0,0,1,173.174,123.434Zm-107.551-.628a.1.1,0,0,1-.1-.077q-.092-.331-.179-.663a.1.1,0,0,1,.075-.128.1.1,0,0,1,.128.074q.087.332.179.661a.106.106,0,0,1-.073.13A.121.121,0,0,1,65.623,122.806Zm107.916-.693a.09.09,0,0,1-.027,0,.1.1,0,0,1-.075-.128q.087-.331.17-.663a.1.1,0,0,1,.127-.077.105.105,0,0,1,.076.128q-.083.333-.17.666A.105.105,0,0,1,173.539,122.113Zm-108.265-.634a.1.1,0,0,1-.1-.079q-.084-.333-.162-.668a.1.1,0,0,1,.078-.126.1.1,0,0,1,.126.078c.053.222.107.444.162.665a.105.105,0,0,1-.076.128A.1.1,0,0,1,65.274,121.479Zm108.6-.7a.1.1,0,0,1-.024,0,.1.1,0,0,1-.078-.126c.052-.221.1-.444.154-.667a.108.108,0,0,1,.125-.08.105.105,0,0,1,.08.125q-.075.336-.154.67A.105.105,0,0,1,173.871,120.782Zm-108.914-.637a.1.1,0,0,1-.1-.082q-.075-.334-.146-.671a.1.1,0,1,1,.205-.043q.071.334.146.668a.105.105,0,0,1-.079.125Zm109.213-.7-.022,0a.1.1,0,0,1-.081-.124q.071-.335.137-.671a.105.105,0,0,1,.206.041c-.045.224-.091.449-.138.672A.1.1,0,0,1,174.17,119.443Zm-109.5-.64a.105.105,0,0,1-.1-.084c-.045-.225-.088-.45-.129-.674a.105.105,0,0,1,.084-.123.108.108,0,0,1,.122.084q.063.336.129.672a.1.1,0,0,1-.083.123Zm109.762-.706-.019,0a.106.106,0,0,1-.084-.123c.041-.224.082-.448.12-.674a.1.1,0,0,1,.122-.085.1.1,0,0,1,.085.122q-.059.338-.121.677A.1.1,0,0,1,174.436,118.1Zm-110.013-.643a.1.1,0,0,1-.1-.087c-.039-.226-.077-.451-.113-.678a.1.1,0,0,1,.087-.12.1.1,0,0,1,.12.087q.053.338.112.675a.1.1,0,0,1-.085.121A.072.072,0,0,1,64.424,117.455Zm110.246-.709a.06.06,0,0,1-.016,0,.1.1,0,0,1-.087-.12q.054-.338.1-.677a.1.1,0,0,1,.119-.089.105.105,0,0,1,.088.119c-.034.227-.068.454-.1.679A.105.105,0,0,1,174.669,116.746ZM64.207,116.1a.1.1,0,0,1-.1-.09q-.05-.339-.1-.681a.1.1,0,0,1,.09-.118.108.108,0,0,1,.118.09q.045.339.1.678a.105.105,0,0,1-.088.119Zm110.662-.711h-.014a.1.1,0,0,1-.09-.118q.046-.339.087-.679a.1.1,0,0,1,.117-.092.1.1,0,0,1,.091.117c-.027.227-.056.455-.087.681A.1.1,0,0,1,174.869,115.389Zm-110.846-.648a.1.1,0,0,1-.1-.092q-.042-.341-.08-.683a.105.105,0,0,1,.093-.116.1.1,0,0,1,.116.093q.037.341.079.68a.1.1,0,0,1-.091.117Zm111.012-.714h-.012a.1.1,0,0,1-.093-.116q.038-.339.071-.681a.11.11,0,0,1,.115-.095.106.106,0,0,1,.094.115c-.022.227-.045.456-.071.683A.105.105,0,0,1,175.035,114.028Zm-111.162-.65a.1.1,0,0,1-.1-.094q-.033-.341-.062-.684a.1.1,0,1,1,.209-.018q.029.343.062.681a.1.1,0,0,1-.094.114Zm111.295-.715h-.009a.1.1,0,0,1-.1-.114q.029-.34.053-.682a.1.1,0,0,1,.112-.1.105.105,0,0,1,.1.112c-.016.229-.035.456-.054.685A.105.105,0,0,1,175.168,112.663Zm-111.412-.651a.105.105,0,0,1-.1-.1c-.016-.227-.032-.456-.046-.685a.1.1,0,0,1,.1-.111.1.1,0,0,1,.111.1q.021.341.046.683a.1.1,0,0,1-.1.112Zm111.511-.718h-.006a.1.1,0,0,1-.1-.111q.021-.341.037-.683a.118.118,0,0,1,.11-.1.1.1,0,0,1,.1.11c-.011.229-.024.458-.037.685A.1.1,0,0,1,175.267,111.294Zm-111.595-.651a.1.1,0,0,1-.1-.1q-.016-.343-.029-.686a.1.1,0,0,1,.1-.109h0a.1.1,0,0,1,.1.1c.009.229.018.456.029.685a.1.1,0,0,1-.1.11Zm111.66-.718h0a.105.105,0,0,1-.1-.109q.012-.341.021-.684a.1.1,0,0,1,.107-.1.1.1,0,0,1,.1.107q-.008.343-.021.687A.1.1,0,0,1,175.333,109.925Zm-111.711-.651a.1.1,0,0,1-.1-.1c-.005-.228-.01-.456-.013-.685,0-.058.04-.094.1-.106a.1.1,0,0,1,.1.1c0,.227.007.456.013.683a.1.1,0,0,1-.1.107Zm111.744-.719h0a.1.1,0,0,1-.1-.106q0-.343,0-.685v-.073a.1.1,0,1,1,.209,0v.073c0,.23,0,.458,0,.688A.1.1,0,0,1,175.367,108.555ZM63.605,107.9a.1.1,0,0,1-.1-.1v-.031c0-.221,0-.439,0-.656a.1.1,0,0,1,.1-.1h0a.1.1,0,0,1,.1.106c0,.216,0,.433,0,.65v.035A.1.1,0,0,1,63.605,107.9Zm111.76-.793a.1.1,0,0,1-.1-.1c0-.227-.007-.456-.013-.683a.1.1,0,0,1,.1-.107h0a.1.1,0,0,1,.1.1c.006.228.01.456.013.685a.1.1,0,0,1-.1.106Zm-111.744-.578h0a.105.105,0,0,1-.1-.107q.008-.343.02-.686a.105.105,0,0,1,.1-.1h0a.1.1,0,0,1,.1.108c-.008.228-.015.456-.02.685A.1.1,0,0,1,63.621,106.532Zm111.711-.79a.1.1,0,0,1-.1-.1c-.008-.228-.018-.456-.03-.684a.105.105,0,0,1,.1-.11.114.114,0,0,1,.11.1q.017.343.03.687a.1.1,0,0,1-.1.109Zm-111.662-.581h-.005a.1.1,0,0,1-.1-.11q.016-.343.037-.685a.119.119,0,0,1,.111-.1.1.1,0,0,1,.1.111c-.013.227-.026.455-.037.683A.1.1,0,0,1,63.669,105.162Zm111.594-.79a.1.1,0,0,1-.1-.1q-.021-.341-.046-.683a.1.1,0,0,1,.1-.112h.008a.105.105,0,0,1,.1.1c.017.227.032.456.046.685a.105.105,0,0,1-.1.111Zm-111.512-.58h-.008a.1.1,0,0,1-.1-.112c.016-.229.035-.456.054-.685a.111.111,0,0,1,.113-.1.105.105,0,0,1,.1.114c-.019.227-.037.455-.053.682A.105.105,0,0,1,63.751,103.792ZM175.162,103a.1.1,0,0,1-.1-.1c-.02-.227-.041-.455-.063-.681a.1.1,0,0,1,.094-.114.1.1,0,0,1,.115.094q.034.341.063.684a.105.105,0,0,1-.1.114Zm-111.3-.579h-.01a.106.106,0,0,1-.094-.115c.022-.227.045-.456.07-.683a.1.1,0,0,1,.116-.093.105.105,0,0,1,.093.116q-.037.339-.07.681A.1.1,0,0,1,63.866,102.426Zm111.161-.786a.1.1,0,0,1-.1-.093q-.037-.341-.079-.68a.1.1,0,0,1,.091-.117.1.1,0,0,1,.117.091q.042.341.08.683a.105.105,0,0,1-.093.116Zm-111.012-.576H64a.1.1,0,0,1-.091-.117c.027-.227.056-.455.087-.681a.109.109,0,0,1,.118-.09.105.105,0,0,1,.09.118q-.045.339-.087.679A.1.1,0,0,1,64.015,101.063Zm110.844-.785a.105.105,0,0,1-.1-.091c-.031-.226-.062-.452-.1-.678a.1.1,0,1,1,.208-.031q.05.339.1.681a.1.1,0,0,1-.09.118ZM64.2,99.7h-.015a.105.105,0,0,1-.089-.119q.049-.34.1-.679a.1.1,0,0,1,.12-.087.1.1,0,0,1,.087.12c-.036.225-.07.451-.1.677A.1.1,0,0,1,64.2,99.7Zm110.462-.781a.105.105,0,0,1-.1-.088q-.054-.338-.113-.675a.1.1,0,0,1,.085-.122.1.1,0,0,1,.122.085c.039.226.077.451.114.678a.1.1,0,0,1-.087.12ZM64.412,98.349l-.018,0a.105.105,0,0,1-.086-.122q.058-.338.121-.677a.108.108,0,0,1,.122-.084.105.105,0,0,1,.084.123c-.042.224-.082.448-.12.674A.1.1,0,0,1,64.412,98.349Zm110.012-.779a.1.1,0,0,1-.1-.085q-.063-.336-.13-.672a.105.105,0,0,1,.083-.123.1.1,0,0,1,.123.082q.067.337.13.674a.105.105,0,0,1-.084.123ZM64.661,97l-.02,0a.1.1,0,0,1-.083-.123q.067-.338.137-.674a.1.1,0,0,1,.205.043q-.071.335-.136.671A.105.105,0,0,1,64.661,97Zm109.5-.775a.105.105,0,0,1-.1-.083q-.071-.335-.146-.669a.1.1,0,0,1,.079-.125.107.107,0,0,1,.125.08c.05.223.1.447.147.67a.105.105,0,0,1-.081.125ZM64.943,95.658l-.023,0a.105.105,0,0,1-.08-.125q.075-.336.154-.67a.1.1,0,0,1,.2.048c-.053.221-.1.444-.153.667A.1.1,0,0,1,64.943,95.658Zm108.913-.77a.1.1,0,0,1-.1-.081c-.053-.222-.107-.444-.162-.665a.1.1,0,1,1,.2-.051q.084.333.163.667a.1.1,0,0,1-.078.126Zm-108.6-.565a.1.1,0,0,1-.025,0,.105.105,0,0,1-.077-.128q.083-.333.17-.666a.1.1,0,0,1,.128-.075.1.1,0,0,1,.075.128q-.087.331-.17.663A.1.1,0,0,1,65.257,94.323Zm108.264-.766a.1.1,0,0,1-.1-.078c-.059-.22-.118-.441-.179-.66a.1.1,0,1,1,.2-.056q.092.331.18.663a.1.1,0,0,1-.074.128A.088.088,0,0,1,173.522,93.557ZM65.605,93a.142.142,0,0,1-.028,0,.106.106,0,0,1-.074-.129q.092-.332.186-.661a.107.107,0,0,1,.13-.072.1.1,0,0,1,.072.13q-.095.329-.186.659A.105.105,0,0,1,65.605,93Zm107.549-.761a.1.1,0,0,1-.1-.075q-.1-.329-.2-.656a.1.1,0,1,1,.2-.061c.067.219.132.439.2.658a.105.105,0,0,1-.071.13A.117.117,0,0,1,173.155,92.236ZM65.986,91.68a.113.113,0,0,1-.03,0,.1.1,0,0,1-.07-.131c.067-.221.134-.44.2-.659a.1.1,0,0,1,.2.062q-.1.329-.2.658A.1.1,0,0,1,65.986,91.68Zm106.77-.755a.105.105,0,0,1-.1-.073q-.1-.327-.211-.651a.1.1,0,0,1,.067-.133.1.1,0,0,1,.133.066c.072.217.143.434.212.654a.1.1,0,0,1-.068.132A.106.106,0,0,1,172.756,90.925ZM66.4,90.365a.109.109,0,0,1-.033,0,.105.105,0,0,1-.067-.133q.108-.327.22-.653a.1.1,0,1,1,.2.067c-.074.217-.147.434-.219.652A.1.1,0,0,1,66.4,90.365Zm105.923-.743a.1.1,0,0,1-.1-.07q-.112-.324-.227-.646a.1.1,0,0,1,.2-.07c.077.215.153.432.228.648a.105.105,0,0,1-.065.134A.115.115,0,0,1,172.324,89.622ZM66.848,89.064a.111.111,0,0,1-.035-.006.1.1,0,0,1-.064-.134q.116-.325.236-.648a.106.106,0,0,1,.135-.062.1.1,0,0,1,.062.135c-.079.214-.158.43-.235.645A.1.1,0,0,1,66.848,89.064Zm105.013-.732a.105.105,0,0,1-.1-.068q-.12-.321-.243-.64a.105.105,0,0,1,.2-.076c.082.214.164.427.244.643a.105.105,0,0,1-.062.135A.112.112,0,0,1,171.86,88.332ZM67.327,87.773a.1.1,0,0,1-.038-.007.106.106,0,0,1-.06-.136c.082-.214.167-.429.252-.642a.105.105,0,0,1,.2.078q-.128.317-.251.639A.105.105,0,0,1,67.327,87.773Zm104.038-.72a.105.105,0,0,1-.1-.066c-.085-.212-.171-.421-.258-.632a.1.1,0,1,1,.194-.08q.131.316.259.633a.105.105,0,0,1-.059.136A.1.1,0,0,1,171.365,87.053ZM67.838,86.5a.1.1,0,0,1-.04-.008.1.1,0,0,1-.056-.137c.088-.212.177-.423.267-.635a.107.107,0,0,1,.138-.055.106.106,0,0,1,.055.138q-.136.316-.267.632A.1.1,0,0,1,67.838,86.5Zm103-.7a.1.1,0,0,1-.1-.064c-.09-.209-.181-.417-.273-.624a.1.1,0,0,1,.192-.085c.093.208.184.416.274.627a.105.105,0,0,1-.055.138A.109.109,0,0,1,170.841,85.792ZM68.38,85.231a.107.107,0,0,1-.043-.009.105.105,0,0,1-.053-.139q.14-.315.283-.627a.1.1,0,0,1,.191.087c-.1.208-.189.416-.282.626A.1.1,0,0,1,68.38,85.231Zm101.905-.688a.105.105,0,0,1-.1-.061c-.095-.207-.191-.412-.289-.618a.1.1,0,0,1,.05-.139.1.1,0,0,1,.14.05q.147.308.29.621a.1.1,0,0,1-.052.139A.1.1,0,0,1,170.285,84.543ZM68.953,83.98a.1.1,0,0,1-.045-.01.1.1,0,0,1-.05-.139c.1-.208.2-.414.3-.621a.105.105,0,1,1,.189.093q-.151.308-.3.618A.1.1,0,0,1,68.953,83.98ZM169.7,83.309a.1.1,0,0,1-.094-.059c-.1-.2-.2-.408-.3-.61a.105.105,0,0,1,.187-.1q.154.306.305.613a.106.106,0,0,1-.048.141A.114.114,0,0,1,169.7,83.309ZM69.557,82.745a.1.1,0,0,1-.094-.152q.155-.308.314-.613a.1.1,0,1,1,.186.1q-.158.3-.313.61A.1.1,0,0,1,69.557,82.745Zm99.526-.657a.105.105,0,0,1-.093-.056q-.158-.3-.319-.6a.1.1,0,0,1,.043-.142.106.106,0,0,1,.142.043c.108.2.215.4.32.605a.1.1,0,0,1-.045.141A.1.1,0,0,1,169.083,82.089Zm-98.892-.563a.108.108,0,0,1-.05-.013.1.1,0,0,1-.043-.142c.108-.2.218-.4.328-.6a.1.1,0,0,1,.143-.042.1.1,0,0,1,.041.142q-.165.3-.328.6A.1.1,0,0,1,70.191,81.525Zm98.246-.641a.106.106,0,0,1-.092-.054c-.11-.2-.221-.4-.334-.6a.105.105,0,0,1,.183-.1q.169.3.335.6a.105.105,0,0,1-.041.143A.1.1,0,0,1,168.436,80.884Zm-97.582-.562a.1.1,0,0,1-.052-.014.1.1,0,0,1-.04-.143c.114-.2.227-.4.343-.6a.1.1,0,0,1,.143-.037.1.1,0,0,1,.038.143q-.173.3-.342.594A.1.1,0,0,1,70.854,80.322ZM167.76,79.7a.106.106,0,0,1-.091-.052q-.172-.3-.348-.587a.105.105,0,0,1,.18-.109q.176.294.35.59a.1.1,0,0,1-.038.143A.1.1,0,0,1,167.76,79.7Zm-96.213-.559a.11.11,0,0,1-.054-.014.105.105,0,0,1-.036-.144q.177-.3.358-.588a.1.1,0,0,1,.144-.034.1.1,0,0,1,.034.144q-.18.292-.357.586A.1.1,0,0,1,71.547,79.136Zm95.507-.614a.1.1,0,0,1-.089-.05c-.12-.193-.241-.386-.363-.578a.1.1,0,0,1,.032-.145.1.1,0,0,1,.145.032q.184.289.364.581a.1.1,0,0,1-.034.144A.1.1,0,0,1,167.054,78.522Zm-94.786-.556a.1.1,0,0,1-.056-.016.1.1,0,0,1-.032-.145c.123-.193.247-.386.372-.578a.1.1,0,1,1,.176.114q-.187.288-.371.576A.107.107,0,0,1,72.269,77.966Zm94.052-.6a.1.1,0,0,1-.088-.048c-.125-.19-.25-.381-.377-.57a.105.105,0,1,1,.175-.117q.191.285.378.572a.1.1,0,0,1-.03.145A.106.106,0,0,1,166.321,77.368Zm-93.3-.551a.108.108,0,0,1-.058-.017.106.106,0,0,1-.029-.146c.128-.19.256-.381.387-.569a.105.105,0,0,1,.173.12q-.194.28-.384.566A.106.106,0,0,1,73.019,76.817Zm92.54-.585a.1.1,0,0,1-.086-.045q-.193-.283-.391-.561a.105.105,0,0,1,.172-.122c.132.187.262.374.392.563a.105.105,0,0,1-.027.146A.1.1,0,0,1,165.559,76.231ZM73.8,75.685a.1.1,0,0,1-.086-.165c.133-.187.266-.374.4-.559a.1.1,0,1,1,.17.123q-.2.277-.4.557A.106.106,0,0,1,73.8,75.685Zm90.972-.572a.106.106,0,0,1-.085-.043q-.2-.276-.4-.551a.1.1,0,0,1,.168-.125q.2.276.406.554a.1.1,0,0,1-.024.146A.1.1,0,0,1,164.769,75.113ZM74.6,74.573a.107.107,0,0,1-.063-.021.1.1,0,0,1-.021-.147q.2-.275.413-.549a.1.1,0,1,1,.167.127q-.207.273-.412.547A.1.1,0,0,1,74.6,74.573Zm89.35-.56a.1.1,0,0,1-.083-.041q-.207-.271-.418-.541a.105.105,0,0,1,.018-.147.1.1,0,0,1,.147.018q.212.271.419.543a.1.1,0,0,1-.02.147A.107.107,0,0,1,163.952,74.014Zm-88.519-.532a.1.1,0,0,1-.065-.022.106.106,0,0,1-.018-.147q.212-.27.427-.539a.1.1,0,0,1,.147-.016.1.1,0,0,1,.016.147q-.214.268-.425.537A.1.1,0,0,1,75.433,73.482Zm87.675-.547a.1.1,0,0,1-.082-.039c-.143-.177-.286-.354-.431-.53a.105.105,0,1,1,.162-.134q.218.266.432.533a.1.1,0,0,1-.016.147A.1.1,0,0,1,163.109,72.935Zm-86.817-.524a.1.1,0,0,1-.067-.024.106.106,0,0,1-.014-.148c.146-.176.292-.353.439-.528a.1.1,0,1,1,.161.135c-.147.175-.293.35-.438.527A.106.106,0,0,1,76.292,72.411Zm85.946-.534a.105.105,0,0,1-.08-.037q-.22-.261-.444-.521a.1.1,0,0,1,.159-.136q.224.26.445.522a.1.1,0,0,1-.08.172Zm-85.062-.514a.1.1,0,0,1-.08-.173q.224-.261.452-.518a.105.105,0,0,1,.157.14c-.151.17-.3.343-.45.515A.107.107,0,0,1,77.176,71.362Zm84.166-.523a.1.1,0,0,1-.078-.035q-.227-.256-.456-.51a.1.1,0,1,1,.155-.141c.154.169.307.34.458.511a.106.106,0,0,1-.009.148A.108.108,0,0,1,161.343,70.839Zm-83.257-.5a.1.1,0,0,1-.078-.175c.154-.17.309-.339.465-.507a.105.105,0,0,1,.154.144q-.233.25-.463.5A.1.1,0,0,1,78.085,70.334Zm82.336-.51a.1.1,0,0,1-.077-.033q-.233-.251-.469-.5a.105.105,0,0,1,0-.148.106.106,0,0,1,.148,0q.237.249.471.5a.106.106,0,0,1-.005.149A.1.1,0,0,1,160.421,69.825Zm-81.4-.495a.1.1,0,0,1-.076-.177c.158-.165.317-.331.477-.494a.1.1,0,1,1,.151.146q-.24.245-.475.493A.106.106,0,0,1,79.019,69.33Zm80.457-.5a.1.1,0,0,1-.075-.032c-.159-.163-.319-.325-.481-.486a.105.105,0,1,1,.148-.149q.243.243.483.489a.1.1,0,0,1,0,.148A.1.1,0,0,1,159.476,68.831Zm-79.5-.483a.1.1,0,0,1-.074-.179q.243-.242.489-.483a.105.105,0,0,1,.147.151q-.245.239-.487.481A.107.107,0,0,1,79.977,68.348Zm78.53-.485a.1.1,0,0,1-.073-.03q-.245-.239-.493-.475a.1.1,0,0,1,0-.148.106.106,0,0,1,.148,0q.249.237.495.477a.1.1,0,0,1,0,.148A.106.106,0,0,1,158.507,67.863Zm-77.548-.472a.107.107,0,0,1-.076-.032.105.105,0,0,1,0-.148q.249-.237.5-.47a.1.1,0,0,1,.143.153q-.251.234-.5.469A.1.1,0,0,1,80.958,67.391Zm76.555-.474a.105.105,0,0,1-.071-.027q-.251-.233-.5-.463a.105.105,0,0,1,.141-.156l.506.464a.105.105,0,0,1,.006.148A.1.1,0,0,1,157.513,66.917Zm-75.551-.459a.1.1,0,0,1-.07-.183c.17-.153.34-.306.511-.458a.1.1,0,0,1,.148.009.106.106,0,0,1-.009.148q-.256.228-.51.456A.106.106,0,0,1,81.962,66.459ZM156.5,66a.1.1,0,0,1-.07-.026c-.171-.152-.343-.3-.516-.451a.1.1,0,1,1,.137-.159q.26.224.518.452a.105.105,0,0,1,.009.148A.1.1,0,0,1,156.5,66ZM82.989,65.55a.106.106,0,0,1-.08-.037.1.1,0,0,1,.011-.147q.26-.224.522-.445a.105.105,0,0,1,.135.162c-.174.146-.348.295-.52.443A.105.105,0,0,1,82.989,65.55Zm72.47-.451a.1.1,0,0,1-.067-.025q-.262-.22-.527-.437a.105.105,0,0,1,.133-.163c.177.146.354.292.529.44a.1.1,0,0,1,.013.147A.1.1,0,0,1,155.458,65.1Zm-71.422-.432a.1.1,0,0,1-.066-.186c.177-.145.354-.29.533-.432a.1.1,0,0,1,.131.164q-.267.213-.531.43A.106.106,0,0,1,84.037,64.668Zm70.361-.439a.107.107,0,0,1-.066-.023q-.267-.215-.536-.426a.1.1,0,1,1,.129-.165q.271.211.539.427a.1.1,0,0,1,.016.147A.1.1,0,0,1,154.4,64.229Zm-69.292-.418a.1.1,0,0,1-.064-.187q.271-.211.543-.419a.106.106,0,0,1,.147.02.1.1,0,0,1-.02.147q-.272.207-.541.417A.1.1,0,0,1,85.106,63.811Zm68.211-.427a.106.106,0,0,1-.064-.021c-.181-.139-.364-.275-.547-.412a.1.1,0,1,1,.125-.168q.276.2.549.413a.1.1,0,0,1-.064.188Zm-67.121-.4a.1.1,0,0,1-.063-.189q.275-.2.553-.405a.1.1,0,1,1,.123.17q-.277.2-.551.4A.1.1,0,0,1,86.195,62.981Zm66.019-.415a.1.1,0,0,1-.062-.02q-.278-.2-.557-.4a.1.1,0,1,1,.121-.171q.281.2.56.4a.1.1,0,0,1-.062.19ZM87.3,62.178a.1.1,0,0,1-.06-.191q.281-.2.563-.392a.1.1,0,0,1,.146.027.105.105,0,0,1-.027.146q-.281.192-.56.39A.1.1,0,0,1,87.3,62.178Zm63.788-.4a.1.1,0,0,1-.059-.019q-.283-.193-.567-.385a.1.1,0,1,1,.117-.174q.286.191.569.386a.1.1,0,0,1-.06.191ZM88.432,61.4a.1.1,0,0,1-.058-.192q.285-.191.572-.377a.1.1,0,1,1,.115.175q-.287.187-.57.377A.107.107,0,0,1,88.432,61.4Zm61.519-.392a.109.109,0,0,1-.057-.016q-.287-.187-.576-.37a.105.105,0,0,1,.112-.178q.291.185.579.372a.105.105,0,0,1,.031.146A.1.1,0,0,1,149.951,61.011Zm-60.373-.356a.1.1,0,0,1-.089-.048.106.106,0,0,1,.032-.146q.289-.183.581-.363a.1.1,0,1,1,.11.178q-.291.18-.579.363A.1.1,0,0,1,89.578,60.655Zm59.213-.379a.107.107,0,0,1-.055-.015q-.292-.18-.586-.357a.1.1,0,0,1-.036-.144.108.108,0,0,1,.144-.037q.3.178.588.358a.106.106,0,0,1,.034.145A.1.1,0,0,1,148.791,60.275Zm-58.049-.34a.105.105,0,0,1-.054-.2q.294-.176.59-.349a.1.1,0,1,1,.106.181q-.295.173-.587.349A.112.112,0,0,1,90.743,59.936Zm56.87-.367a.106.106,0,0,1-.053-.014q-.3-.173-.594-.343a.1.1,0,1,1,.1-.182q.3.169.6.343a.1.1,0,0,1,.038.144A.106.106,0,0,1,147.613,59.569Zm-55.689-.323a.1.1,0,0,1-.052-.2q.3-.17.6-.335a.1.1,0,0,1,.142.041.1.1,0,0,1-.041.143q-.3.165-.6.334A.1.1,0,0,1,91.923,59.245Zm54.495-.355a.106.106,0,0,1-.05-.013q-.3-.164-.6-.328a.1.1,0,0,1-.043-.142.106.106,0,0,1,.142-.043q.3.163.6.328a.1.1,0,0,1-.05.2Zm-53.3-.305a.1.1,0,0,1-.05-.2q.3-.161.605-.32a.105.105,0,0,1,.1.186c-.2.106-.4.211-.6.319A.109.109,0,0,1,93.12,58.584Zm52.086-.342a.1.1,0,0,1-.048-.012c-.2-.106-.406-.209-.611-.312a.105.105,0,0,1-.046-.141.107.107,0,0,1,.141-.046q.308.155.613.314a.1.1,0,0,1-.049.2Zm-50.873-.289a.1.1,0,0,1-.047-.2q.305-.154.613-.306a.107.107,0,0,1,.14.048.105.105,0,0,1-.048.141q-.306.15-.611.3A.105.105,0,0,1,94.333,57.953Zm49.645-.33a.107.107,0,0,1-.046-.01q-.308-.151-.618-.3a.105.105,0,0,1,.089-.191q.311.148.621.3a.105.105,0,0,1-.046.2Zm-48.417-.271a.1.1,0,0,1-.045-.2q.309-.148.62-.29a.1.1,0,1,1,.088.19q-.311.143-.618.289A.1.1,0,0,1,95.561,57.353Zm47.174-.318a.109.109,0,0,1-.043-.009c-.208-.094-.416-.189-.626-.282a.1.1,0,1,1,.085-.192q.315.14.628.282a.1.1,0,0,1-.044.2ZM96.8,56.782a.1.1,0,0,1-.043-.2q.312-.139.627-.274a.105.105,0,0,1,.083.193c-.209.09-.417.181-.625.273A.114.114,0,0,1,96.8,56.782Zm44.675-.3a.111.111,0,0,1-.042-.008q-.315-.136-.632-.267a.1.1,0,0,1-.057-.137.1.1,0,0,1,.137-.057c.213.088.424.177.635.268a.1.1,0,0,1,.054.138A.1.1,0,0,1,141.477,56.479Zm-43.42-.237a.1.1,0,0,1-.04-.2q.316-.132.634-.259a.1.1,0,0,1,.136.058.105.105,0,0,1-.059.136q-.316.127-.631.258A.1.1,0,0,1,98.057,56.242Zm42.149-.289a.1.1,0,0,1-.039-.008c-.212-.085-.425-.168-.639-.251a.105.105,0,0,1-.06-.136.106.106,0,0,1,.136-.06q.322.124.642.252a.1.1,0,0,1-.039.2Zm-40.879-.221a.1.1,0,0,1-.038-.2c.213-.083.428-.164.642-.244a.106.106,0,0,1,.135.062.105.105,0,0,1-.062.135c-.214.078-.427.16-.64.243A.1.1,0,0,1,99.327,55.732Zm39.595-.274a.118.118,0,0,1-.037-.006q-.322-.12-.645-.236a.1.1,0,0,1-.064-.134.106.106,0,0,1,.134-.064q.325.116.648.236a.105.105,0,0,1,.062.135A.1.1,0,0,1,138.922,55.457Zm-38.31-.2a.1.1,0,0,1-.035-.2c.216-.077.432-.154.648-.228a.1.1,0,1,1,.068.2c-.216.075-.431.15-.645.227A.1.1,0,0,1,100.612,55.254Zm37.013-.259a.1.1,0,0,1-.034-.005q-.325-.112-.651-.219a.105.105,0,0,1-.067-.133.1.1,0,0,1,.132-.067q.328.109.654.22a.1.1,0,0,1-.034.2Zm-35.717-.189a.1.1,0,0,1-.1-.072.105.105,0,0,1,.067-.133q.327-.108.654-.211a.1.1,0,1,1,.063.2q-.327.1-.651.211A.116.116,0,0,1,101.909,54.806Zm34.409-.241a.1.1,0,0,1-.032,0c-.219-.07-.437-.136-.657-.2a.1.1,0,0,1-.07-.131.1.1,0,0,1,.131-.07q.331.1.66.2a.1.1,0,0,1-.032.2Zm-33.1-.173a.105.105,0,0,1-.031-.205q.328-.1.658-.2a.1.1,0,1,1,.059.2q-.329.1-.656.2A.113.113,0,0,1,103.216,54.391ZM135,54.167a.11.11,0,0,1-.029,0c-.219-.064-.438-.125-.659-.186a.105.105,0,0,1-.073-.129.11.11,0,0,1,.129-.074q.332.091.661.187a.105.105,0,0,1-.029.206Zm-30.468-.158a.1.1,0,0,1-.028-.206q.331-.091.663-.179a.1.1,0,0,1,.128.075.1.1,0,0,1-.075.128q-.332.087-.661.179A.147.147,0,0,1,104.533,54.009Zm29.146-.205a.089.089,0,0,1-.027,0q-.331-.087-.663-.169a.105.105,0,0,1,.05-.2q.334.083.666.17a.1.1,0,0,1-.027.206Zm-27.82-.144a.105.105,0,0,1-.025-.207q.332-.084.668-.163a.1.1,0,0,1,.126.078.1.1,0,0,1-.078.126q-.334.079-.665.163A.109.109,0,0,1,105.859,53.659Zm26.489-.186a.094.094,0,0,1-.024,0q-.333-.079-.667-.152a.105.105,0,0,1,.045-.205q.336.076.67.154a.1.1,0,0,1-.024.207Zm-25.155-.13a.1.1,0,0,1-.023-.207q.335-.076.672-.147a.1.1,0,1,1,.043.205q-.335.071-.668.146A.086.086,0,0,1,107.193,53.343Zm23.816-.168-.022,0q-.334-.071-.671-.136a.1.1,0,0,1-.083-.123.1.1,0,0,1,.123-.083q.337.066.674.136a.1.1,0,0,1-.022.208Zm-22.474-.117a.106.106,0,0,1-.1-.084.1.1,0,0,1,.082-.123c.225-.045.45-.089.675-.13a.108.108,0,0,1,.122.084.105.105,0,0,1-.084.123q-.336.062-.672.129Zm21.129-.148-.019,0q-.336-.062-.674-.12a.1.1,0,0,1-.086-.122.1.1,0,0,1,.121-.085q.339.058.677.12a.105.105,0,0,1-.019.209Zm-19.78-.1a.105.105,0,0,1-.018-.209q.338-.059.678-.113a.1.1,0,0,1,.12.087.1.1,0,0,1-.087.12c-.226.036-.45.074-.675.113Zm18.428-.129a.06.06,0,0,1-.016,0c-.225-.036-.45-.07-.677-.1a.105.105,0,0,1,.031-.208c.227.033.453.068.679.1a.1.1,0,0,1-.017.209Zm-17.074-.088a.105.105,0,0,1-.015-.209q.339-.05.68-.1a.107.107,0,0,1,.118.09.1.1,0,0,1-.09.118c-.226.03-.452.063-.677.1Zm15.717-.11h-.014q-.338-.045-.679-.087a.1.1,0,0,1-.091-.117.1.1,0,0,1,.117-.092q.341.041.681.087a.1.1,0,0,1-.014.209ZM112.6,52.406a.1.1,0,0,1-.013-.209q.34-.041.682-.079a.1.1,0,0,1,.116.093.1.1,0,0,1-.093.116q-.341.038-.68.079Zm13-.091h-.011c-.227-.024-.454-.048-.681-.069a.105.105,0,0,1-.094-.115.114.114,0,0,1,.114-.095l.683.07a.1.1,0,0,1-.011.209Zm-11.634-.059a.1.1,0,0,1-.01-.209c.227-.023.455-.043.683-.064a.108.108,0,0,1,.114.1.105.105,0,0,1-.1.114q-.341.03-.682.063Zm10.269-.072h-.009q-.341-.028-.683-.053a.1.1,0,0,1-.1-.112.1.1,0,0,1,.112-.1q.343.025.685.053a.1.1,0,0,1-.009.209Zm-8.9-.046a.105.105,0,0,1-.008-.21q.342-.025.685-.046a.117.117,0,0,1,.111.1.105.105,0,0,1-.1.112q-.343.022-.683.046Zm7.535-.053h-.006q-.342-.02-.684-.037a.1.1,0,0,1-.1-.11.109.109,0,0,1,.11-.1q.343.016.685.037a.1.1,0,0,1-.006.209Zm-6.166-.031a.1.1,0,0,1-.005-.209q.343-.016.686-.03a.116.116,0,0,1,.109.1.1.1,0,0,1-.1.109q-.343.013-.684.03Zm4.8-.034h0L120.8,52a.1.1,0,0,1,0-.209h0q.344.008.687.02a.1.1,0,0,1,0,.209ZM118.063,52a.1.1,0,0,1,0-.209c.228-.005.456-.01.685-.013h0a.1.1,0,0,1,0,.21q-.343.005-.684.013Zm2.056-.014h0q-.315,0-.631,0h-.054a.1.1,0,1,1,0-.209h.054q.317,0,.633,0a.1.1,0,0,1,0,.209Z" transform="translate(-63.5 -51.776)" fill="#ffdfe5"/>
      </g>
    </g>
  </g>
</svg>
